M48
; DRILL file {KiCad (5.1.5)-3} date 5/8/2020 12:55:37 AM
; FORMAT={-:-/ absolute / inch / decimal}
; #@! TF.CreationDate,2020-05-08T00:55:37-06:00
; #@! TF.GenerationSoftware,Kicad,Pcbnew,(5.1.5)-3
; #@! TF.FileFunction,Plated,1,2,PTH
FMAT,2
INCH
T1C0.0157
T2C0.0300
T3C0.0315
T4C0.0402
T5C0.1260
%
G90
G05
T1
X2.52Y-4.425
X3.22Y-4.22
X3.235Y-5.48
X3.415Y-3.665
X3.945Y-5.07
X4.025Y-4.54
T2
X2.7362Y-3.49
X2.7362Y-3.59
X2.7362Y-3.69
X2.7362Y-3.79
X2.8362Y-3.49
X2.8362Y-3.59
X2.8362Y-3.69
X2.8362Y-3.79
T3
X2.9484Y-4.21
X2.9484Y-4.31
X2.9484Y-4.41
X2.9484Y-4.51
X2.9484Y-4.61
X2.9484Y-4.71
X2.9484Y-4.81
X2.9484Y-4.91
X2.9484Y-5.01
X2.9484Y-5.11
X2.9484Y-5.21
X2.9484Y-5.31
X2.9484Y-5.41
X2.9484Y-5.51
X2.9484Y-5.61
X3.5484Y-4.21
X3.5484Y-4.31
X3.5484Y-4.41
X3.5484Y-4.51
X3.5484Y-4.61
X3.5484Y-4.71
X3.5484Y-4.81
X3.5484Y-4.91
X3.5484Y-5.01
X3.5484Y-5.11
X3.5484Y-5.21
X3.5484Y-5.31
X3.5484Y-5.41
X3.5484Y-5.51
X3.5484Y-5.61
T4
X3.72Y-5.3009
X3.72Y-5.4191
X2.77Y-4.7828
X2.77Y-4.9009
X2.77Y-5.0191
X2.77Y-5.1372
X3.72Y-4.2006
X3.72Y-4.3187
T5
X3.9764Y-5.748
X2.5197Y-3.5039
X3.9764Y-3.5039
X2.5197Y-5.748
T0
M30
