G04 #@! TF.GenerationSoftware,KiCad,Pcbnew,(5.1.5)-3*
G04 #@! TF.CreationDate,2020-05-08T00:55:34-06:00*
G04 #@! TF.ProjectId,camera,63616d65-7261-42e6-9b69-6361645f7063,rev?*
G04 #@! TF.SameCoordinates,Original*
G04 #@! TF.FileFunction,Soldermask,Top*
G04 #@! TF.FilePolarity,Negative*
%FSLAX46Y46*%
G04 Gerber Fmt 4.6, Leading zero omitted, Abs format (unit mm)*
G04 Created by KiCad (PCBNEW (5.1.5)-3) date 2020-05-08 00:55:34*
%MOMM*%
%LPD*%
G04 APERTURE LIST*
%ADD10C,0.100000*%
G04 APERTURE END LIST*
D10*
G36*
X72015499Y-147802445D02*
G01*
X72052995Y-147813820D01*
X72087554Y-147832292D01*
X72117847Y-147857153D01*
X72142708Y-147887446D01*
X72161180Y-147922005D01*
X72172555Y-147959501D01*
X72177000Y-148004638D01*
X72177000Y-148643362D01*
X72172555Y-148688499D01*
X72161180Y-148725995D01*
X72142708Y-148760554D01*
X72117847Y-148790847D01*
X72087554Y-148815708D01*
X72052995Y-148834180D01*
X72015499Y-148845555D01*
X71970362Y-148850000D01*
X71231638Y-148850000D01*
X71186501Y-148845555D01*
X71149005Y-148834180D01*
X71114446Y-148815708D01*
X71084153Y-148790847D01*
X71059292Y-148760554D01*
X71040820Y-148725995D01*
X71029445Y-148688499D01*
X71025000Y-148643362D01*
X71025000Y-148004638D01*
X71029445Y-147959501D01*
X71040820Y-147922005D01*
X71059292Y-147887446D01*
X71084153Y-147857153D01*
X71114446Y-147832292D01*
X71149005Y-147813820D01*
X71186501Y-147802445D01*
X71231638Y-147798000D01*
X71970362Y-147798000D01*
X72015499Y-147802445D01*
G37*
G36*
X93773499Y-147802445D02*
G01*
X93810995Y-147813820D01*
X93845554Y-147832292D01*
X93875847Y-147857153D01*
X93900708Y-147887446D01*
X93919180Y-147922005D01*
X93930555Y-147959501D01*
X93935000Y-148004638D01*
X93935000Y-148643362D01*
X93930555Y-148688499D01*
X93919180Y-148725995D01*
X93900708Y-148760554D01*
X93875847Y-148790847D01*
X93845554Y-148815708D01*
X93810995Y-148834180D01*
X93773499Y-148845555D01*
X93728362Y-148850000D01*
X92989638Y-148850000D01*
X92944501Y-148845555D01*
X92907005Y-148834180D01*
X92872446Y-148815708D01*
X92842153Y-148790847D01*
X92817292Y-148760554D01*
X92798820Y-148725995D01*
X92787445Y-148688499D01*
X92783000Y-148643362D01*
X92783000Y-148004638D01*
X92787445Y-147959501D01*
X92798820Y-147922005D01*
X92817292Y-147887446D01*
X92842153Y-147857153D01*
X92872446Y-147832292D01*
X92907005Y-147813820D01*
X92944501Y-147802445D01*
X92989638Y-147798000D01*
X93728362Y-147798000D01*
X93773499Y-147802445D01*
G37*
G36*
X95523499Y-147802445D02*
G01*
X95560995Y-147813820D01*
X95595554Y-147832292D01*
X95625847Y-147857153D01*
X95650708Y-147887446D01*
X95669180Y-147922005D01*
X95680555Y-147959501D01*
X95685000Y-148004638D01*
X95685000Y-148643362D01*
X95680555Y-148688499D01*
X95669180Y-148725995D01*
X95650708Y-148760554D01*
X95625847Y-148790847D01*
X95595554Y-148815708D01*
X95560995Y-148834180D01*
X95523499Y-148845555D01*
X95478362Y-148850000D01*
X94739638Y-148850000D01*
X94694501Y-148845555D01*
X94657005Y-148834180D01*
X94622446Y-148815708D01*
X94592153Y-148790847D01*
X94567292Y-148760554D01*
X94548820Y-148725995D01*
X94537445Y-148688499D01*
X94533000Y-148643362D01*
X94533000Y-148004638D01*
X94537445Y-147959501D01*
X94548820Y-147922005D01*
X94567292Y-147887446D01*
X94592153Y-147857153D01*
X94622446Y-147832292D01*
X94657005Y-147813820D01*
X94694501Y-147802445D01*
X94739638Y-147798000D01*
X95478362Y-147798000D01*
X95523499Y-147802445D01*
G37*
G36*
X70265499Y-147802445D02*
G01*
X70302995Y-147813820D01*
X70337554Y-147832292D01*
X70367847Y-147857153D01*
X70392708Y-147887446D01*
X70411180Y-147922005D01*
X70422555Y-147959501D01*
X70427000Y-148004638D01*
X70427000Y-148643362D01*
X70422555Y-148688499D01*
X70411180Y-148725995D01*
X70392708Y-148760554D01*
X70367847Y-148790847D01*
X70337554Y-148815708D01*
X70302995Y-148834180D01*
X70265499Y-148845555D01*
X70220362Y-148850000D01*
X69481638Y-148850000D01*
X69436501Y-148845555D01*
X69399005Y-148834180D01*
X69364446Y-148815708D01*
X69334153Y-148790847D01*
X69309292Y-148760554D01*
X69290820Y-148725995D01*
X69279445Y-148688499D01*
X69275000Y-148643362D01*
X69275000Y-148004638D01*
X69279445Y-147959501D01*
X69290820Y-147922005D01*
X69309292Y-147887446D01*
X69334153Y-147857153D01*
X69364446Y-147832292D01*
X69399005Y-147813820D01*
X69436501Y-147802445D01*
X69481638Y-147798000D01*
X70220362Y-147798000D01*
X70265499Y-147802445D01*
G37*
G36*
X64817021Y-143306640D02*
G01*
X65326769Y-143517785D01*
X65326771Y-143517786D01*
X65785534Y-143824321D01*
X66175679Y-144214466D01*
X66482214Y-144673229D01*
X66482215Y-144673231D01*
X66693360Y-145182979D01*
X66801000Y-145724124D01*
X66801000Y-146275876D01*
X66693360Y-146817021D01*
X66482215Y-147326769D01*
X66482214Y-147326771D01*
X66175679Y-147785534D01*
X65785534Y-148175679D01*
X65326771Y-148482214D01*
X65326770Y-148482215D01*
X65326769Y-148482215D01*
X64817021Y-148693360D01*
X64275876Y-148801000D01*
X63724124Y-148801000D01*
X63182979Y-148693360D01*
X62673231Y-148482215D01*
X62673230Y-148482215D01*
X62673229Y-148482214D01*
X62214466Y-148175679D01*
X61824321Y-147785534D01*
X61517786Y-147326771D01*
X61517785Y-147326769D01*
X61306640Y-146817021D01*
X61199000Y-146275876D01*
X61199000Y-145724124D01*
X61306640Y-145182979D01*
X61517785Y-144673231D01*
X61517786Y-144673229D01*
X61824321Y-144214466D01*
X62214466Y-143824321D01*
X62673229Y-143517786D01*
X62673231Y-143517785D01*
X63182979Y-143306640D01*
X63724124Y-143199000D01*
X64275876Y-143199000D01*
X64817021Y-143306640D01*
G37*
G36*
X101817021Y-143306640D02*
G01*
X102326769Y-143517785D01*
X102326771Y-143517786D01*
X102785534Y-143824321D01*
X103175679Y-144214466D01*
X103482214Y-144673229D01*
X103482215Y-144673231D01*
X103693360Y-145182979D01*
X103801000Y-145724124D01*
X103801000Y-146275876D01*
X103693360Y-146817021D01*
X103482215Y-147326769D01*
X103482214Y-147326771D01*
X103175679Y-147785534D01*
X102785534Y-148175679D01*
X102326771Y-148482214D01*
X102326770Y-148482215D01*
X102326769Y-148482215D01*
X101817021Y-148693360D01*
X101275876Y-148801000D01*
X100724124Y-148801000D01*
X100182979Y-148693360D01*
X99673231Y-148482215D01*
X99673230Y-148482215D01*
X99673229Y-148482214D01*
X99214466Y-148175679D01*
X98824321Y-147785534D01*
X98517786Y-147326771D01*
X98517785Y-147326769D01*
X98306640Y-146817021D01*
X98199000Y-146275876D01*
X98199000Y-145724124D01*
X98306640Y-145182979D01*
X98517785Y-144673231D01*
X98517786Y-144673229D01*
X98824321Y-144214466D01*
X99214466Y-143824321D01*
X99673229Y-143517786D01*
X99673231Y-143517785D01*
X100182979Y-143306640D01*
X100724124Y-143199000D01*
X101275876Y-143199000D01*
X101817021Y-143306640D01*
G37*
G36*
X93773499Y-145782445D02*
G01*
X93810995Y-145793820D01*
X93845554Y-145812292D01*
X93875847Y-145837153D01*
X93900708Y-145867446D01*
X93919180Y-145902005D01*
X93930555Y-145939501D01*
X93935000Y-145984638D01*
X93935000Y-146623362D01*
X93930555Y-146668499D01*
X93919180Y-146705995D01*
X93900708Y-146740554D01*
X93875847Y-146770847D01*
X93845554Y-146795708D01*
X93810995Y-146814180D01*
X93773499Y-146825555D01*
X93728362Y-146830000D01*
X92989638Y-146830000D01*
X92944501Y-146825555D01*
X92907005Y-146814180D01*
X92872446Y-146795708D01*
X92842153Y-146770847D01*
X92817292Y-146740554D01*
X92798820Y-146705995D01*
X92787445Y-146668499D01*
X92783000Y-146623362D01*
X92783000Y-145984638D01*
X92787445Y-145939501D01*
X92798820Y-145902005D01*
X92817292Y-145867446D01*
X92842153Y-145837153D01*
X92872446Y-145812292D01*
X92907005Y-145793820D01*
X92944501Y-145782445D01*
X92989638Y-145778000D01*
X93728362Y-145778000D01*
X93773499Y-145782445D01*
G37*
G36*
X95523499Y-145782445D02*
G01*
X95560995Y-145793820D01*
X95595554Y-145812292D01*
X95625847Y-145837153D01*
X95650708Y-145867446D01*
X95669180Y-145902005D01*
X95680555Y-145939501D01*
X95685000Y-145984638D01*
X95685000Y-146623362D01*
X95680555Y-146668499D01*
X95669180Y-146705995D01*
X95650708Y-146740554D01*
X95625847Y-146770847D01*
X95595554Y-146795708D01*
X95560995Y-146814180D01*
X95523499Y-146825555D01*
X95478362Y-146830000D01*
X94739638Y-146830000D01*
X94694501Y-146825555D01*
X94657005Y-146814180D01*
X94622446Y-146795708D01*
X94592153Y-146770847D01*
X94567292Y-146740554D01*
X94548820Y-146705995D01*
X94537445Y-146668499D01*
X94533000Y-146623362D01*
X94533000Y-145984638D01*
X94537445Y-145939501D01*
X94548820Y-145902005D01*
X94567292Y-145867446D01*
X94592153Y-145837153D01*
X94622446Y-145812292D01*
X94657005Y-145793820D01*
X94694501Y-145782445D01*
X94739638Y-145778000D01*
X95478362Y-145778000D01*
X95523499Y-145782445D01*
G37*
G36*
X70310499Y-145782445D02*
G01*
X70347995Y-145793820D01*
X70382554Y-145812292D01*
X70412847Y-145837153D01*
X70437708Y-145867446D01*
X70456180Y-145902005D01*
X70467555Y-145939501D01*
X70472000Y-145984638D01*
X70472000Y-146623362D01*
X70467555Y-146668499D01*
X70456180Y-146705995D01*
X70437708Y-146740554D01*
X70412847Y-146770847D01*
X70382554Y-146795708D01*
X70347995Y-146814180D01*
X70310499Y-146825555D01*
X70265362Y-146830000D01*
X69526638Y-146830000D01*
X69481501Y-146825555D01*
X69444005Y-146814180D01*
X69409446Y-146795708D01*
X69379153Y-146770847D01*
X69354292Y-146740554D01*
X69335820Y-146705995D01*
X69324445Y-146668499D01*
X69320000Y-146623362D01*
X69320000Y-145984638D01*
X69324445Y-145939501D01*
X69335820Y-145902005D01*
X69354292Y-145867446D01*
X69379153Y-145837153D01*
X69409446Y-145812292D01*
X69444005Y-145793820D01*
X69481501Y-145782445D01*
X69526638Y-145778000D01*
X70265362Y-145778000D01*
X70310499Y-145782445D01*
G37*
G36*
X72060499Y-145782445D02*
G01*
X72097995Y-145793820D01*
X72132554Y-145812292D01*
X72162847Y-145837153D01*
X72187708Y-145867446D01*
X72206180Y-145902005D01*
X72217555Y-145939501D01*
X72222000Y-145984638D01*
X72222000Y-146623362D01*
X72217555Y-146668499D01*
X72206180Y-146705995D01*
X72187708Y-146740554D01*
X72162847Y-146770847D01*
X72132554Y-146795708D01*
X72097995Y-146814180D01*
X72060499Y-146825555D01*
X72015362Y-146830000D01*
X71276638Y-146830000D01*
X71231501Y-146825555D01*
X71194005Y-146814180D01*
X71159446Y-146795708D01*
X71129153Y-146770847D01*
X71104292Y-146740554D01*
X71085820Y-146705995D01*
X71074445Y-146668499D01*
X71070000Y-146623362D01*
X71070000Y-145984638D01*
X71074445Y-145939501D01*
X71085820Y-145902005D01*
X71104292Y-145867446D01*
X71129153Y-145837153D01*
X71159446Y-145812292D01*
X71194005Y-145793820D01*
X71231501Y-145782445D01*
X71276638Y-145778000D01*
X72015362Y-145778000D01*
X72060499Y-145782445D01*
G37*
G36*
X90378228Y-141675703D02*
G01*
X90533100Y-141739853D01*
X90672481Y-141832985D01*
X90791015Y-141951519D01*
X90884147Y-142090900D01*
X90948297Y-142245772D01*
X90981000Y-142410184D01*
X90981000Y-142577816D01*
X90948297Y-142742228D01*
X90884147Y-142897100D01*
X90791015Y-143036481D01*
X90672481Y-143155015D01*
X90533100Y-143248147D01*
X90378228Y-143312297D01*
X90213816Y-143345000D01*
X90046184Y-143345000D01*
X89881772Y-143312297D01*
X89726900Y-143248147D01*
X89587519Y-143155015D01*
X89468985Y-143036481D01*
X89375853Y-142897100D01*
X89311703Y-142742228D01*
X89279000Y-142577816D01*
X89279000Y-142410184D01*
X89311703Y-142245772D01*
X89375853Y-142090900D01*
X89468985Y-141951519D01*
X89587519Y-141832985D01*
X89726900Y-141739853D01*
X89881772Y-141675703D01*
X90046184Y-141643000D01*
X90213816Y-141643000D01*
X90378228Y-141675703D01*
G37*
G36*
X75138228Y-141675703D02*
G01*
X75293100Y-141739853D01*
X75432481Y-141832985D01*
X75551015Y-141951519D01*
X75644147Y-142090900D01*
X75708297Y-142245772D01*
X75741000Y-142410184D01*
X75741000Y-142577816D01*
X75708297Y-142742228D01*
X75644147Y-142897100D01*
X75551015Y-143036481D01*
X75432481Y-143155015D01*
X75293100Y-143248147D01*
X75138228Y-143312297D01*
X74973816Y-143345000D01*
X74806184Y-143345000D01*
X74641772Y-143312297D01*
X74486900Y-143248147D01*
X74347519Y-143155015D01*
X74228985Y-143036481D01*
X74135853Y-142897100D01*
X74071703Y-142742228D01*
X74039000Y-142577816D01*
X74039000Y-142410184D01*
X74071703Y-142245772D01*
X74135853Y-142090900D01*
X74228985Y-141951519D01*
X74347519Y-141832985D01*
X74486900Y-141739853D01*
X74641772Y-141675703D01*
X74806184Y-141643000D01*
X74973816Y-141643000D01*
X75138228Y-141675703D01*
G37*
G36*
X75138228Y-139135703D02*
G01*
X75293100Y-139199853D01*
X75432481Y-139292985D01*
X75551015Y-139411519D01*
X75644147Y-139550900D01*
X75708297Y-139705772D01*
X75741000Y-139870184D01*
X75741000Y-140037816D01*
X75708297Y-140202228D01*
X75644147Y-140357100D01*
X75551015Y-140496481D01*
X75432481Y-140615015D01*
X75293100Y-140708147D01*
X75138228Y-140772297D01*
X74973816Y-140805000D01*
X74806184Y-140805000D01*
X74641772Y-140772297D01*
X74486900Y-140708147D01*
X74347519Y-140615015D01*
X74228985Y-140496481D01*
X74135853Y-140357100D01*
X74071703Y-140202228D01*
X74039000Y-140037816D01*
X74039000Y-139870184D01*
X74071703Y-139705772D01*
X74135853Y-139550900D01*
X74228985Y-139411519D01*
X74347519Y-139292985D01*
X74486900Y-139199853D01*
X74641772Y-139135703D01*
X74806184Y-139103000D01*
X74973816Y-139103000D01*
X75138228Y-139135703D01*
G37*
G36*
X90378228Y-139135703D02*
G01*
X90533100Y-139199853D01*
X90672481Y-139292985D01*
X90791015Y-139411519D01*
X90884147Y-139550900D01*
X90948297Y-139705772D01*
X90981000Y-139870184D01*
X90981000Y-140037816D01*
X90948297Y-140202228D01*
X90884147Y-140357100D01*
X90791015Y-140496481D01*
X90672481Y-140615015D01*
X90533100Y-140708147D01*
X90378228Y-140772297D01*
X90213816Y-140805000D01*
X90046184Y-140805000D01*
X89881772Y-140772297D01*
X89726900Y-140708147D01*
X89587519Y-140615015D01*
X89468985Y-140496481D01*
X89375853Y-140357100D01*
X89311703Y-140202228D01*
X89279000Y-140037816D01*
X89279000Y-139870184D01*
X89311703Y-139705772D01*
X89375853Y-139550900D01*
X89468985Y-139411519D01*
X89587519Y-139292985D01*
X89726900Y-139199853D01*
X89881772Y-139135703D01*
X90046184Y-139103000D01*
X90213816Y-139103000D01*
X90378228Y-139135703D01*
G37*
G36*
X94826571Y-136846863D02*
G01*
X94905023Y-136854590D01*
X94984417Y-136878674D01*
X95056013Y-136900392D01*
X95195165Y-136974771D01*
X95317133Y-137074867D01*
X95417229Y-137196835D01*
X95491608Y-137335987D01*
X95495477Y-137348741D01*
X95537410Y-137486977D01*
X95552875Y-137644000D01*
X95537410Y-137801023D01*
X95532533Y-137817100D01*
X95491608Y-137952013D01*
X95417229Y-138091165D01*
X95317133Y-138213133D01*
X95195165Y-138313229D01*
X95056013Y-138387608D01*
X95005682Y-138402875D01*
X94905023Y-138433410D01*
X94826571Y-138441137D01*
X94787346Y-138445000D01*
X94188654Y-138445000D01*
X94149429Y-138441137D01*
X94070977Y-138433410D01*
X93970318Y-138402875D01*
X93919987Y-138387608D01*
X93780835Y-138313229D01*
X93658867Y-138213133D01*
X93558771Y-138091165D01*
X93484392Y-137952013D01*
X93443467Y-137817100D01*
X93438590Y-137801023D01*
X93423125Y-137644000D01*
X93438590Y-137486977D01*
X93480523Y-137348741D01*
X93484392Y-137335987D01*
X93558771Y-137196835D01*
X93658867Y-137074867D01*
X93780835Y-136974771D01*
X93919987Y-136900392D01*
X93991583Y-136878674D01*
X94070977Y-136854590D01*
X94149429Y-136846863D01*
X94188654Y-136843000D01*
X94787346Y-136843000D01*
X94826571Y-136846863D01*
G37*
G36*
X90378228Y-136595703D02*
G01*
X90533100Y-136659853D01*
X90672481Y-136752985D01*
X90791015Y-136871519D01*
X90884147Y-137010900D01*
X90948297Y-137165772D01*
X90981000Y-137330184D01*
X90981000Y-137497816D01*
X90948297Y-137662228D01*
X90884147Y-137817100D01*
X90791015Y-137956481D01*
X90672481Y-138075015D01*
X90533100Y-138168147D01*
X90378228Y-138232297D01*
X90213816Y-138265000D01*
X90046184Y-138265000D01*
X89881772Y-138232297D01*
X89726900Y-138168147D01*
X89587519Y-138075015D01*
X89468985Y-137956481D01*
X89375853Y-137817100D01*
X89311703Y-137662228D01*
X89279000Y-137497816D01*
X89279000Y-137330184D01*
X89311703Y-137165772D01*
X89375853Y-137010900D01*
X89468985Y-136871519D01*
X89587519Y-136752985D01*
X89726900Y-136659853D01*
X89881772Y-136595703D01*
X90046184Y-136563000D01*
X90213816Y-136563000D01*
X90378228Y-136595703D01*
G37*
G36*
X75138228Y-136595703D02*
G01*
X75293100Y-136659853D01*
X75432481Y-136752985D01*
X75551015Y-136871519D01*
X75644147Y-137010900D01*
X75708297Y-137165772D01*
X75741000Y-137330184D01*
X75741000Y-137497816D01*
X75708297Y-137662228D01*
X75644147Y-137817100D01*
X75551015Y-137956481D01*
X75432481Y-138075015D01*
X75293100Y-138168147D01*
X75138228Y-138232297D01*
X74973816Y-138265000D01*
X74806184Y-138265000D01*
X74641772Y-138232297D01*
X74486900Y-138168147D01*
X74347519Y-138075015D01*
X74228985Y-137956481D01*
X74135853Y-137817100D01*
X74071703Y-137662228D01*
X74039000Y-137497816D01*
X74039000Y-137330184D01*
X74071703Y-137165772D01*
X74135853Y-137010900D01*
X74228985Y-136871519D01*
X74347519Y-136752985D01*
X74486900Y-136659853D01*
X74641772Y-136595703D01*
X74806184Y-136563000D01*
X74973816Y-136563000D01*
X75138228Y-136595703D01*
G37*
G36*
X99110585Y-134622802D02*
G01*
X99260410Y-134652604D01*
X99542674Y-134769521D01*
X99796705Y-134939259D01*
X100012741Y-135155295D01*
X100182479Y-135409326D01*
X100299396Y-135691590D01*
X100359000Y-135991240D01*
X100359000Y-136296760D01*
X100299396Y-136596410D01*
X100182479Y-136878674D01*
X100012741Y-137132705D01*
X99796705Y-137348741D01*
X99542674Y-137518479D01*
X99260410Y-137635396D01*
X99125516Y-137662228D01*
X98960761Y-137695000D01*
X98655239Y-137695000D01*
X98490484Y-137662228D01*
X98355590Y-137635396D01*
X98073326Y-137518479D01*
X97819295Y-137348741D01*
X97603259Y-137132705D01*
X97433521Y-136878674D01*
X97316604Y-136596410D01*
X97257000Y-136296760D01*
X97257000Y-135991240D01*
X97316604Y-135691590D01*
X97433521Y-135409326D01*
X97603259Y-135155295D01*
X97819295Y-134939259D01*
X98073326Y-134769521D01*
X98355590Y-134652604D01*
X98505415Y-134622802D01*
X98655239Y-134593000D01*
X98960761Y-134593000D01*
X99110585Y-134622802D01*
G37*
G36*
X90378228Y-134055703D02*
G01*
X90533100Y-134119853D01*
X90672481Y-134212985D01*
X90791015Y-134331519D01*
X90884147Y-134470900D01*
X90948297Y-134625772D01*
X90981000Y-134790184D01*
X90981000Y-134957816D01*
X90948297Y-135122228D01*
X90884147Y-135277100D01*
X90791015Y-135416481D01*
X90672481Y-135535015D01*
X90533100Y-135628147D01*
X90378228Y-135692297D01*
X90213816Y-135725000D01*
X90046184Y-135725000D01*
X89881772Y-135692297D01*
X89726900Y-135628147D01*
X89587519Y-135535015D01*
X89468985Y-135416481D01*
X89375853Y-135277100D01*
X89311703Y-135122228D01*
X89279000Y-134957816D01*
X89279000Y-134790184D01*
X89311703Y-134625772D01*
X89375853Y-134470900D01*
X89468985Y-134331519D01*
X89587519Y-134212985D01*
X89726900Y-134119853D01*
X89881772Y-134055703D01*
X90046184Y-134023000D01*
X90213816Y-134023000D01*
X90378228Y-134055703D01*
G37*
G36*
X75138228Y-134055703D02*
G01*
X75293100Y-134119853D01*
X75432481Y-134212985D01*
X75551015Y-134331519D01*
X75644147Y-134470900D01*
X75708297Y-134625772D01*
X75741000Y-134790184D01*
X75741000Y-134957816D01*
X75708297Y-135122228D01*
X75644147Y-135277100D01*
X75551015Y-135416481D01*
X75432481Y-135535015D01*
X75293100Y-135628147D01*
X75138228Y-135692297D01*
X74973816Y-135725000D01*
X74806184Y-135725000D01*
X74641772Y-135692297D01*
X74486900Y-135628147D01*
X74347519Y-135535015D01*
X74228985Y-135416481D01*
X74135853Y-135277100D01*
X74071703Y-135122228D01*
X74039000Y-134957816D01*
X74039000Y-134790184D01*
X74071703Y-134625772D01*
X74135853Y-134470900D01*
X74228985Y-134331519D01*
X74347519Y-134212985D01*
X74486900Y-134119853D01*
X74641772Y-134055703D01*
X74806184Y-134023000D01*
X74973816Y-134023000D01*
X75138228Y-134055703D01*
G37*
G36*
X95401048Y-133847122D02*
G01*
X95435387Y-133857539D01*
X95467036Y-133874456D01*
X95494778Y-133897222D01*
X95517544Y-133924964D01*
X95534461Y-133956613D01*
X95544878Y-133990952D01*
X95549000Y-134032807D01*
X95549000Y-135255193D01*
X95544878Y-135297048D01*
X95534461Y-135331387D01*
X95517544Y-135363036D01*
X95494778Y-135390778D01*
X95467036Y-135413544D01*
X95435387Y-135430461D01*
X95401048Y-135440878D01*
X95359193Y-135445000D01*
X93616807Y-135445000D01*
X93574952Y-135440878D01*
X93540613Y-135430461D01*
X93508964Y-135413544D01*
X93481222Y-135390778D01*
X93458456Y-135363036D01*
X93441539Y-135331387D01*
X93431122Y-135297048D01*
X93427000Y-135255193D01*
X93427000Y-134032807D01*
X93431122Y-133990952D01*
X93441539Y-133956613D01*
X93458456Y-133924964D01*
X93481222Y-133897222D01*
X93508964Y-133874456D01*
X93540613Y-133857539D01*
X93574952Y-133847122D01*
X93616807Y-133843000D01*
X95359193Y-133843000D01*
X95401048Y-133847122D01*
G37*
G36*
X75138228Y-131515703D02*
G01*
X75293100Y-131579853D01*
X75432481Y-131672985D01*
X75551015Y-131791519D01*
X75644147Y-131930900D01*
X75708297Y-132085772D01*
X75741000Y-132250184D01*
X75741000Y-132417816D01*
X75708297Y-132582228D01*
X75644147Y-132737100D01*
X75551015Y-132876481D01*
X75432481Y-132995015D01*
X75293100Y-133088147D01*
X75138228Y-133152297D01*
X74973816Y-133185000D01*
X74806184Y-133185000D01*
X74641772Y-133152297D01*
X74486900Y-133088147D01*
X74347519Y-132995015D01*
X74228985Y-132876481D01*
X74135853Y-132737100D01*
X74071703Y-132582228D01*
X74039000Y-132417816D01*
X74039000Y-132250184D01*
X74071703Y-132085772D01*
X74135853Y-131930900D01*
X74228985Y-131791519D01*
X74347519Y-131672985D01*
X74486900Y-131579853D01*
X74641772Y-131515703D01*
X74806184Y-131483000D01*
X74973816Y-131483000D01*
X75138228Y-131515703D01*
G37*
G36*
X90378228Y-131515703D02*
G01*
X90533100Y-131579853D01*
X90672481Y-131672985D01*
X90791015Y-131791519D01*
X90884147Y-131930900D01*
X90948297Y-132085772D01*
X90981000Y-132250184D01*
X90981000Y-132417816D01*
X90948297Y-132582228D01*
X90884147Y-132737100D01*
X90791015Y-132876481D01*
X90672481Y-132995015D01*
X90533100Y-133088147D01*
X90378228Y-133152297D01*
X90213816Y-133185000D01*
X90046184Y-133185000D01*
X89881772Y-133152297D01*
X89726900Y-133088147D01*
X89587519Y-132995015D01*
X89468985Y-132876481D01*
X89375853Y-132737100D01*
X89311703Y-132582228D01*
X89279000Y-132417816D01*
X89279000Y-132250184D01*
X89311703Y-132085772D01*
X89375853Y-131930900D01*
X89468985Y-131791519D01*
X89587519Y-131672985D01*
X89726900Y-131579853D01*
X89881772Y-131515703D01*
X90046184Y-131483000D01*
X90213816Y-131483000D01*
X90378228Y-131515703D01*
G37*
G36*
X71271048Y-129687122D02*
G01*
X71305387Y-129697539D01*
X71337036Y-129714456D01*
X71364778Y-129737222D01*
X71387544Y-129764964D01*
X71404461Y-129796613D01*
X71414878Y-129830952D01*
X71419000Y-129872807D01*
X71419000Y-131095193D01*
X71414878Y-131137048D01*
X71404461Y-131171387D01*
X71387544Y-131203036D01*
X71364778Y-131230778D01*
X71337036Y-131253544D01*
X71305387Y-131270461D01*
X71271048Y-131280878D01*
X71229193Y-131285000D01*
X69486807Y-131285000D01*
X69444952Y-131280878D01*
X69410613Y-131270461D01*
X69378964Y-131253544D01*
X69351222Y-131230778D01*
X69328456Y-131203036D01*
X69311539Y-131171387D01*
X69301122Y-131137048D01*
X69297000Y-131095193D01*
X69297000Y-129872807D01*
X69301122Y-129830952D01*
X69311539Y-129796613D01*
X69328456Y-129764964D01*
X69351222Y-129737222D01*
X69378964Y-129714456D01*
X69410613Y-129697539D01*
X69444952Y-129687122D01*
X69486807Y-129683000D01*
X71229193Y-129683000D01*
X71271048Y-129687122D01*
G37*
G36*
X90378228Y-128975703D02*
G01*
X90533100Y-129039853D01*
X90672481Y-129132985D01*
X90791015Y-129251519D01*
X90884147Y-129390900D01*
X90948297Y-129545772D01*
X90981000Y-129710184D01*
X90981000Y-129877816D01*
X90948297Y-130042228D01*
X90884147Y-130197100D01*
X90791015Y-130336481D01*
X90672481Y-130455015D01*
X90533100Y-130548147D01*
X90378228Y-130612297D01*
X90213816Y-130645000D01*
X90046184Y-130645000D01*
X89881772Y-130612297D01*
X89726900Y-130548147D01*
X89587519Y-130455015D01*
X89468985Y-130336481D01*
X89375853Y-130197100D01*
X89311703Y-130042228D01*
X89279000Y-129877816D01*
X89279000Y-129710184D01*
X89311703Y-129545772D01*
X89375853Y-129390900D01*
X89468985Y-129251519D01*
X89587519Y-129132985D01*
X89726900Y-129039853D01*
X89881772Y-128975703D01*
X90046184Y-128943000D01*
X90213816Y-128943000D01*
X90378228Y-128975703D01*
G37*
G36*
X75138228Y-128975703D02*
G01*
X75293100Y-129039853D01*
X75432481Y-129132985D01*
X75551015Y-129251519D01*
X75644147Y-129390900D01*
X75708297Y-129545772D01*
X75741000Y-129710184D01*
X75741000Y-129877816D01*
X75708297Y-130042228D01*
X75644147Y-130197100D01*
X75551015Y-130336481D01*
X75432481Y-130455015D01*
X75293100Y-130548147D01*
X75138228Y-130612297D01*
X74973816Y-130645000D01*
X74806184Y-130645000D01*
X74641772Y-130612297D01*
X74486900Y-130548147D01*
X74347519Y-130455015D01*
X74228985Y-130336481D01*
X74135853Y-130197100D01*
X74071703Y-130042228D01*
X74039000Y-129877816D01*
X74039000Y-129710184D01*
X74071703Y-129545772D01*
X74135853Y-129390900D01*
X74228985Y-129251519D01*
X74347519Y-129132985D01*
X74486900Y-129039853D01*
X74641772Y-128975703D01*
X74806184Y-128943000D01*
X74973816Y-128943000D01*
X75138228Y-128975703D01*
G37*
G36*
X66340585Y-126812802D02*
G01*
X66490410Y-126842604D01*
X66772674Y-126959521D01*
X67026705Y-127129259D01*
X67242741Y-127345295D01*
X67412479Y-127599326D01*
X67529396Y-127881590D01*
X67589000Y-128181240D01*
X67589000Y-128486760D01*
X67529396Y-128786410D01*
X67412479Y-129068674D01*
X67242741Y-129322705D01*
X67026705Y-129538741D01*
X66772674Y-129708479D01*
X66490410Y-129825396D01*
X66340585Y-129855198D01*
X66190761Y-129885000D01*
X65885239Y-129885000D01*
X65735415Y-129855198D01*
X65585590Y-129825396D01*
X65303326Y-129708479D01*
X65049295Y-129538741D01*
X64833259Y-129322705D01*
X64663521Y-129068674D01*
X64546604Y-128786410D01*
X64487000Y-128486760D01*
X64487000Y-128181240D01*
X64546604Y-127881590D01*
X64663521Y-127599326D01*
X64833259Y-127345295D01*
X65049295Y-127129259D01*
X65303326Y-126959521D01*
X65585590Y-126842604D01*
X65735415Y-126812802D01*
X65885239Y-126783000D01*
X66190761Y-126783000D01*
X66340585Y-126812802D01*
G37*
G36*
X70696571Y-126686863D02*
G01*
X70775023Y-126694590D01*
X70875682Y-126725125D01*
X70926013Y-126740392D01*
X71065165Y-126814771D01*
X71187133Y-126914867D01*
X71287229Y-127036835D01*
X71361608Y-127175987D01*
X71361608Y-127175988D01*
X71407410Y-127326977D01*
X71422875Y-127484000D01*
X71407410Y-127641023D01*
X71402533Y-127657100D01*
X71361608Y-127792013D01*
X71287229Y-127931165D01*
X71187133Y-128053133D01*
X71065165Y-128153229D01*
X70926013Y-128227608D01*
X70875682Y-128242875D01*
X70775023Y-128273410D01*
X70696571Y-128281137D01*
X70657346Y-128285000D01*
X70058654Y-128285000D01*
X70019429Y-128281137D01*
X69940977Y-128273410D01*
X69840318Y-128242875D01*
X69789987Y-128227608D01*
X69650835Y-128153229D01*
X69528867Y-128053133D01*
X69428771Y-127931165D01*
X69354392Y-127792013D01*
X69313467Y-127657100D01*
X69308590Y-127641023D01*
X69293125Y-127484000D01*
X69308590Y-127326977D01*
X69354392Y-127175988D01*
X69354392Y-127175987D01*
X69428771Y-127036835D01*
X69528867Y-126914867D01*
X69650835Y-126814771D01*
X69789987Y-126740392D01*
X69840318Y-126725125D01*
X69940977Y-126694590D01*
X70019429Y-126686863D01*
X70058654Y-126683000D01*
X70657346Y-126683000D01*
X70696571Y-126686863D01*
G37*
G36*
X75138228Y-126435703D02*
G01*
X75293100Y-126499853D01*
X75432481Y-126592985D01*
X75551015Y-126711519D01*
X75644147Y-126850900D01*
X75708297Y-127005772D01*
X75741000Y-127170184D01*
X75741000Y-127337816D01*
X75708297Y-127502228D01*
X75644147Y-127657100D01*
X75551015Y-127796481D01*
X75432481Y-127915015D01*
X75293100Y-128008147D01*
X75138228Y-128072297D01*
X74973816Y-128105000D01*
X74806184Y-128105000D01*
X74641772Y-128072297D01*
X74486900Y-128008147D01*
X74347519Y-127915015D01*
X74228985Y-127796481D01*
X74135853Y-127657100D01*
X74071703Y-127502228D01*
X74039000Y-127337816D01*
X74039000Y-127170184D01*
X74071703Y-127005772D01*
X74135853Y-126850900D01*
X74228985Y-126711519D01*
X74347519Y-126592985D01*
X74486900Y-126499853D01*
X74641772Y-126435703D01*
X74806184Y-126403000D01*
X74973816Y-126403000D01*
X75138228Y-126435703D01*
G37*
G36*
X90378228Y-126435703D02*
G01*
X90533100Y-126499853D01*
X90672481Y-126592985D01*
X90791015Y-126711519D01*
X90884147Y-126850900D01*
X90948297Y-127005772D01*
X90981000Y-127170184D01*
X90981000Y-127337816D01*
X90948297Y-127502228D01*
X90884147Y-127657100D01*
X90791015Y-127796481D01*
X90672481Y-127915015D01*
X90533100Y-128008147D01*
X90378228Y-128072297D01*
X90213816Y-128105000D01*
X90046184Y-128105000D01*
X89881772Y-128072297D01*
X89726900Y-128008147D01*
X89587519Y-127915015D01*
X89468985Y-127796481D01*
X89375853Y-127657100D01*
X89311703Y-127502228D01*
X89279000Y-127337816D01*
X89279000Y-127170184D01*
X89311703Y-127005772D01*
X89375853Y-126850900D01*
X89468985Y-126711519D01*
X89587519Y-126592985D01*
X89726900Y-126499853D01*
X89881772Y-126435703D01*
X90046184Y-126403000D01*
X90213816Y-126403000D01*
X90378228Y-126435703D01*
G37*
G36*
X94090499Y-124422445D02*
G01*
X94127995Y-124433820D01*
X94162554Y-124452292D01*
X94192847Y-124477153D01*
X94217708Y-124507446D01*
X94236180Y-124542005D01*
X94247555Y-124579501D01*
X94252000Y-124624638D01*
X94252000Y-125363362D01*
X94247555Y-125408499D01*
X94236180Y-125445995D01*
X94217708Y-125480554D01*
X94192847Y-125510847D01*
X94162554Y-125535708D01*
X94127995Y-125554180D01*
X94090499Y-125565555D01*
X94045362Y-125570000D01*
X93406638Y-125570000D01*
X93361501Y-125565555D01*
X93324005Y-125554180D01*
X93289446Y-125535708D01*
X93259153Y-125510847D01*
X93234292Y-125480554D01*
X93215820Y-125445995D01*
X93204445Y-125408499D01*
X93200000Y-125363362D01*
X93200000Y-124624638D01*
X93204445Y-124579501D01*
X93215820Y-124542005D01*
X93234292Y-124507446D01*
X93259153Y-124477153D01*
X93289446Y-124452292D01*
X93324005Y-124433820D01*
X93361501Y-124422445D01*
X93406638Y-124418000D01*
X94045362Y-124418000D01*
X94090499Y-124422445D01*
G37*
G36*
X75138228Y-123895703D02*
G01*
X75293100Y-123959853D01*
X75432481Y-124052985D01*
X75551015Y-124171519D01*
X75644147Y-124310900D01*
X75708297Y-124465772D01*
X75741000Y-124630184D01*
X75741000Y-124797816D01*
X75708297Y-124962228D01*
X75644147Y-125117100D01*
X75551015Y-125256481D01*
X75432481Y-125375015D01*
X75293100Y-125468147D01*
X75138228Y-125532297D01*
X74973816Y-125565000D01*
X74806184Y-125565000D01*
X74641772Y-125532297D01*
X74486900Y-125468147D01*
X74347519Y-125375015D01*
X74228985Y-125256481D01*
X74135853Y-125117100D01*
X74071703Y-124962228D01*
X74039000Y-124797816D01*
X74039000Y-124630184D01*
X74071703Y-124465772D01*
X74135853Y-124310900D01*
X74228985Y-124171519D01*
X74347519Y-124052985D01*
X74486900Y-123959853D01*
X74641772Y-123895703D01*
X74806184Y-123863000D01*
X74973816Y-123863000D01*
X75138228Y-123895703D01*
G37*
G36*
X90378228Y-123895703D02*
G01*
X90533100Y-123959853D01*
X90672481Y-124052985D01*
X90791015Y-124171519D01*
X90884147Y-124310900D01*
X90948297Y-124465772D01*
X90981000Y-124630184D01*
X90981000Y-124797816D01*
X90948297Y-124962228D01*
X90884147Y-125117100D01*
X90791015Y-125256481D01*
X90672481Y-125375015D01*
X90533100Y-125468147D01*
X90378228Y-125532297D01*
X90213816Y-125565000D01*
X90046184Y-125565000D01*
X89881772Y-125532297D01*
X89726900Y-125468147D01*
X89587519Y-125375015D01*
X89468985Y-125256481D01*
X89375853Y-125117100D01*
X89311703Y-124962228D01*
X89279000Y-124797816D01*
X89279000Y-124630184D01*
X89311703Y-124465772D01*
X89375853Y-124310900D01*
X89468985Y-124171519D01*
X89587519Y-124052985D01*
X89726900Y-123959853D01*
X89881772Y-123895703D01*
X90046184Y-123863000D01*
X90213816Y-123863000D01*
X90378228Y-123895703D01*
G37*
G36*
X70696571Y-123686863D02*
G01*
X70775023Y-123694590D01*
X70875682Y-123725125D01*
X70926013Y-123740392D01*
X71065165Y-123814771D01*
X71187133Y-123914867D01*
X71287229Y-124036835D01*
X71361608Y-124175987D01*
X71361608Y-124175988D01*
X71407410Y-124326977D01*
X71422875Y-124484000D01*
X71407410Y-124641023D01*
X71395283Y-124681000D01*
X71361608Y-124792013D01*
X71287229Y-124931165D01*
X71187133Y-125053133D01*
X71065165Y-125153229D01*
X70926013Y-125227608D01*
X70875682Y-125242875D01*
X70775023Y-125273410D01*
X70696571Y-125281137D01*
X70657346Y-125285000D01*
X70058654Y-125285000D01*
X70019429Y-125281137D01*
X69940977Y-125273410D01*
X69840318Y-125242875D01*
X69789987Y-125227608D01*
X69650835Y-125153229D01*
X69528867Y-125053133D01*
X69428771Y-124931165D01*
X69354392Y-124792013D01*
X69320717Y-124681000D01*
X69308590Y-124641023D01*
X69293125Y-124484000D01*
X69308590Y-124326977D01*
X69354392Y-124175988D01*
X69354392Y-124175987D01*
X69428771Y-124036835D01*
X69528867Y-123914867D01*
X69650835Y-123814771D01*
X69789987Y-123740392D01*
X69840318Y-123725125D01*
X69940977Y-123694590D01*
X70019429Y-123686863D01*
X70058654Y-123683000D01*
X70657346Y-123683000D01*
X70696571Y-123686863D01*
G37*
G36*
X97409000Y-125270000D02*
G01*
X95307000Y-125270000D01*
X95307000Y-123668000D01*
X97409000Y-123668000D01*
X97409000Y-125270000D01*
G37*
G36*
X66340585Y-122112802D02*
G01*
X66490410Y-122142604D01*
X66772674Y-122259521D01*
X67026705Y-122429259D01*
X67242741Y-122645295D01*
X67412479Y-122899326D01*
X67529396Y-123181590D01*
X67529396Y-123181591D01*
X67589000Y-123481239D01*
X67589000Y-123786761D01*
X67585535Y-123804180D01*
X67529396Y-124086410D01*
X67412479Y-124368674D01*
X67242741Y-124622705D01*
X67026705Y-124838741D01*
X66772674Y-125008479D01*
X66490410Y-125125396D01*
X66350484Y-125153229D01*
X66190761Y-125185000D01*
X65885239Y-125185000D01*
X65725516Y-125153229D01*
X65585590Y-125125396D01*
X65303326Y-125008479D01*
X65049295Y-124838741D01*
X64833259Y-124622705D01*
X64663521Y-124368674D01*
X64546604Y-124086410D01*
X64490465Y-123804180D01*
X64487000Y-123786761D01*
X64487000Y-123481239D01*
X64546604Y-123181591D01*
X64546604Y-123181590D01*
X64663521Y-122899326D01*
X64833259Y-122645295D01*
X65049295Y-122429259D01*
X65303326Y-122259521D01*
X65585590Y-122142604D01*
X65735415Y-122112802D01*
X65885239Y-122083000D01*
X66190761Y-122083000D01*
X66340585Y-122112802D01*
G37*
G36*
X103709000Y-124120000D02*
G01*
X101607000Y-124120000D01*
X101607000Y-120218000D01*
X103709000Y-120218000D01*
X103709000Y-124120000D01*
G37*
G36*
X94090499Y-122672445D02*
G01*
X94127995Y-122683820D01*
X94162554Y-122702292D01*
X94192847Y-122727153D01*
X94217708Y-122757446D01*
X94236180Y-122792005D01*
X94247555Y-122829501D01*
X94252000Y-122874638D01*
X94252000Y-123613362D01*
X94247555Y-123658499D01*
X94236180Y-123695995D01*
X94217708Y-123730554D01*
X94192847Y-123760847D01*
X94162554Y-123785708D01*
X94127995Y-123804180D01*
X94090499Y-123815555D01*
X94045362Y-123820000D01*
X93406638Y-123820000D01*
X93361501Y-123815555D01*
X93324005Y-123804180D01*
X93289446Y-123785708D01*
X93259153Y-123760847D01*
X93234292Y-123730554D01*
X93215820Y-123695995D01*
X93204445Y-123658499D01*
X93200000Y-123613362D01*
X93200000Y-122874638D01*
X93204445Y-122829501D01*
X93215820Y-122792005D01*
X93234292Y-122757446D01*
X93259153Y-122727153D01*
X93289446Y-122702292D01*
X93324005Y-122683820D01*
X93361501Y-122672445D01*
X93406638Y-122668000D01*
X94045362Y-122668000D01*
X94090499Y-122672445D01*
G37*
G36*
X90378228Y-121355703D02*
G01*
X90533100Y-121419853D01*
X90672481Y-121512985D01*
X90791015Y-121631519D01*
X90884147Y-121770900D01*
X90948297Y-121925772D01*
X90981000Y-122090184D01*
X90981000Y-122257816D01*
X90948297Y-122422228D01*
X90884147Y-122577100D01*
X90791015Y-122716481D01*
X90672481Y-122835015D01*
X90533100Y-122928147D01*
X90378228Y-122992297D01*
X90213816Y-123025000D01*
X90046184Y-123025000D01*
X89881772Y-122992297D01*
X89726900Y-122928147D01*
X89587519Y-122835015D01*
X89468985Y-122716481D01*
X89375853Y-122577100D01*
X89311703Y-122422228D01*
X89279000Y-122257816D01*
X89279000Y-122090184D01*
X89311703Y-121925772D01*
X89375853Y-121770900D01*
X89468985Y-121631519D01*
X89587519Y-121512985D01*
X89726900Y-121419853D01*
X89881772Y-121355703D01*
X90046184Y-121323000D01*
X90213816Y-121323000D01*
X90378228Y-121355703D01*
G37*
G36*
X75138228Y-121355703D02*
G01*
X75293100Y-121419853D01*
X75432481Y-121512985D01*
X75551015Y-121631519D01*
X75644147Y-121770900D01*
X75708297Y-121925772D01*
X75741000Y-122090184D01*
X75741000Y-122257816D01*
X75708297Y-122422228D01*
X75644147Y-122577100D01*
X75551015Y-122716481D01*
X75432481Y-122835015D01*
X75293100Y-122928147D01*
X75138228Y-122992297D01*
X74973816Y-123025000D01*
X74806184Y-123025000D01*
X74641772Y-122992297D01*
X74486900Y-122928147D01*
X74347519Y-122835015D01*
X74228985Y-122716481D01*
X74135853Y-122577100D01*
X74071703Y-122422228D01*
X74039000Y-122257816D01*
X74039000Y-122090184D01*
X74071703Y-121925772D01*
X74135853Y-121770900D01*
X74228985Y-121631519D01*
X74347519Y-121512985D01*
X74486900Y-121419853D01*
X74641772Y-121355703D01*
X74806184Y-121323000D01*
X74973816Y-121323000D01*
X75138228Y-121355703D01*
G37*
G36*
X97409000Y-122970000D02*
G01*
X95307000Y-122970000D01*
X95307000Y-121368000D01*
X97409000Y-121368000D01*
X97409000Y-122970000D01*
G37*
G36*
X70696571Y-120686863D02*
G01*
X70775023Y-120694590D01*
X70874078Y-120724638D01*
X70926013Y-120740392D01*
X71065165Y-120814771D01*
X71187133Y-120914867D01*
X71287229Y-121036835D01*
X71361608Y-121175987D01*
X71361608Y-121175988D01*
X71407410Y-121326977D01*
X71422875Y-121484000D01*
X71407410Y-121641023D01*
X71376875Y-121741682D01*
X71361608Y-121792013D01*
X71287229Y-121931165D01*
X71187133Y-122053133D01*
X71065165Y-122153229D01*
X70926013Y-122227608D01*
X70875682Y-122242875D01*
X70775023Y-122273410D01*
X70696571Y-122281137D01*
X70657346Y-122285000D01*
X70058654Y-122285000D01*
X70019429Y-122281137D01*
X69940977Y-122273410D01*
X69840318Y-122242875D01*
X69789987Y-122227608D01*
X69650835Y-122153229D01*
X69528867Y-122053133D01*
X69428771Y-121931165D01*
X69354392Y-121792013D01*
X69339125Y-121741682D01*
X69308590Y-121641023D01*
X69293125Y-121484000D01*
X69308590Y-121326977D01*
X69354392Y-121175988D01*
X69354392Y-121175987D01*
X69428771Y-121036835D01*
X69528867Y-120914867D01*
X69650835Y-120814771D01*
X69789987Y-120740392D01*
X69841922Y-120724638D01*
X69940977Y-120694590D01*
X70019429Y-120686863D01*
X70058654Y-120683000D01*
X70657346Y-120683000D01*
X70696571Y-120686863D01*
G37*
G36*
X94090499Y-120522445D02*
G01*
X94127995Y-120533820D01*
X94162554Y-120552292D01*
X94192847Y-120577153D01*
X94217708Y-120607446D01*
X94236180Y-120642005D01*
X94247555Y-120679501D01*
X94252000Y-120724638D01*
X94252000Y-121463362D01*
X94247555Y-121508499D01*
X94236180Y-121545995D01*
X94217708Y-121580554D01*
X94192847Y-121610847D01*
X94162554Y-121635708D01*
X94127995Y-121654180D01*
X94090499Y-121665555D01*
X94045362Y-121670000D01*
X93406638Y-121670000D01*
X93361501Y-121665555D01*
X93324005Y-121654180D01*
X93289446Y-121635708D01*
X93259153Y-121610847D01*
X93234292Y-121580554D01*
X93215820Y-121545995D01*
X93204445Y-121508499D01*
X93200000Y-121463362D01*
X93200000Y-120724638D01*
X93204445Y-120679501D01*
X93215820Y-120642005D01*
X93234292Y-120607446D01*
X93259153Y-120577153D01*
X93289446Y-120552292D01*
X93324005Y-120533820D01*
X93361501Y-120522445D01*
X93406638Y-120518000D01*
X94045362Y-120518000D01*
X94090499Y-120522445D01*
G37*
G36*
X97409000Y-120670000D02*
G01*
X95307000Y-120670000D01*
X95307000Y-119068000D01*
X97409000Y-119068000D01*
X97409000Y-120670000D01*
G37*
G36*
X75138228Y-118815703D02*
G01*
X75293100Y-118879853D01*
X75432481Y-118972985D01*
X75551015Y-119091519D01*
X75644147Y-119230900D01*
X75708297Y-119385772D01*
X75741000Y-119550184D01*
X75741000Y-119717816D01*
X75708297Y-119882228D01*
X75644147Y-120037100D01*
X75551015Y-120176481D01*
X75432481Y-120295015D01*
X75293100Y-120388147D01*
X75138228Y-120452297D01*
X74973816Y-120485000D01*
X74806184Y-120485000D01*
X74641772Y-120452297D01*
X74486900Y-120388147D01*
X74347519Y-120295015D01*
X74228985Y-120176481D01*
X74135853Y-120037100D01*
X74071703Y-119882228D01*
X74039000Y-119717816D01*
X74039000Y-119550184D01*
X74071703Y-119385772D01*
X74135853Y-119230900D01*
X74228985Y-119091519D01*
X74347519Y-118972985D01*
X74486900Y-118879853D01*
X74641772Y-118815703D01*
X74806184Y-118783000D01*
X74973816Y-118783000D01*
X75138228Y-118815703D01*
G37*
G36*
X90378228Y-118815703D02*
G01*
X90533100Y-118879853D01*
X90672481Y-118972985D01*
X90791015Y-119091519D01*
X90884147Y-119230900D01*
X90948297Y-119385772D01*
X90981000Y-119550184D01*
X90981000Y-119717816D01*
X90948297Y-119882228D01*
X90884147Y-120037100D01*
X90791015Y-120176481D01*
X90672481Y-120295015D01*
X90533100Y-120388147D01*
X90378228Y-120452297D01*
X90213816Y-120485000D01*
X90046184Y-120485000D01*
X89881772Y-120452297D01*
X89726900Y-120388147D01*
X89587519Y-120295015D01*
X89468985Y-120176481D01*
X89375853Y-120037100D01*
X89311703Y-119882228D01*
X89279000Y-119717816D01*
X89279000Y-119550184D01*
X89311703Y-119385772D01*
X89375853Y-119230900D01*
X89468985Y-119091519D01*
X89587519Y-118972985D01*
X89726900Y-118879853D01*
X89881772Y-118815703D01*
X90046184Y-118783000D01*
X90213816Y-118783000D01*
X90378228Y-118815703D01*
G37*
G36*
X94090499Y-118772445D02*
G01*
X94127995Y-118783820D01*
X94162554Y-118802292D01*
X94192847Y-118827153D01*
X94217708Y-118857446D01*
X94236180Y-118892005D01*
X94247555Y-118929501D01*
X94252000Y-118974638D01*
X94252000Y-119713362D01*
X94247555Y-119758499D01*
X94236180Y-119795995D01*
X94217708Y-119830554D01*
X94192847Y-119860847D01*
X94162554Y-119885708D01*
X94127995Y-119904180D01*
X94090499Y-119915555D01*
X94045362Y-119920000D01*
X93406638Y-119920000D01*
X93361501Y-119915555D01*
X93324005Y-119904180D01*
X93289446Y-119885708D01*
X93259153Y-119860847D01*
X93234292Y-119830554D01*
X93215820Y-119795995D01*
X93204445Y-119758499D01*
X93200000Y-119713362D01*
X93200000Y-118974638D01*
X93204445Y-118929501D01*
X93215820Y-118892005D01*
X93234292Y-118857446D01*
X93259153Y-118827153D01*
X93289446Y-118802292D01*
X93324005Y-118783820D01*
X93361501Y-118772445D01*
X93406638Y-118768000D01*
X94045362Y-118768000D01*
X94090499Y-118772445D01*
G37*
G36*
X90378228Y-116275703D02*
G01*
X90533100Y-116339853D01*
X90672481Y-116432985D01*
X90791015Y-116551519D01*
X90884147Y-116690900D01*
X90948297Y-116845772D01*
X90981000Y-117010184D01*
X90981000Y-117177816D01*
X90948297Y-117342228D01*
X90884147Y-117497100D01*
X90791015Y-117636481D01*
X90672481Y-117755015D01*
X90533100Y-117848147D01*
X90378228Y-117912297D01*
X90213816Y-117945000D01*
X90046184Y-117945000D01*
X89881772Y-117912297D01*
X89726900Y-117848147D01*
X89587519Y-117755015D01*
X89468985Y-117636481D01*
X89375853Y-117497100D01*
X89311703Y-117342228D01*
X89279000Y-117177816D01*
X89279000Y-117010184D01*
X89311703Y-116845772D01*
X89375853Y-116690900D01*
X89468985Y-116551519D01*
X89587519Y-116432985D01*
X89726900Y-116339853D01*
X89881772Y-116275703D01*
X90046184Y-116243000D01*
X90213816Y-116243000D01*
X90378228Y-116275703D01*
G37*
G36*
X75138228Y-116275703D02*
G01*
X75293100Y-116339853D01*
X75432481Y-116432985D01*
X75551015Y-116551519D01*
X75644147Y-116690900D01*
X75708297Y-116845772D01*
X75741000Y-117010184D01*
X75741000Y-117177816D01*
X75708297Y-117342228D01*
X75644147Y-117497100D01*
X75551015Y-117636481D01*
X75432481Y-117755015D01*
X75293100Y-117848147D01*
X75138228Y-117912297D01*
X74973816Y-117945000D01*
X74806184Y-117945000D01*
X74641772Y-117912297D01*
X74486900Y-117848147D01*
X74347519Y-117755015D01*
X74228985Y-117636481D01*
X74135853Y-117497100D01*
X74071703Y-117342228D01*
X74039000Y-117177816D01*
X74039000Y-117010184D01*
X74071703Y-116845772D01*
X74135853Y-116690900D01*
X74228985Y-116551519D01*
X74347519Y-116432985D01*
X74486900Y-116339853D01*
X74641772Y-116275703D01*
X74806184Y-116243000D01*
X74973816Y-116243000D01*
X75138228Y-116275703D01*
G37*
G36*
X75138228Y-113735703D02*
G01*
X75293100Y-113799853D01*
X75432481Y-113892985D01*
X75551015Y-114011519D01*
X75644147Y-114150900D01*
X75708297Y-114305772D01*
X75741000Y-114470184D01*
X75741000Y-114637816D01*
X75708297Y-114802228D01*
X75644147Y-114957100D01*
X75551015Y-115096481D01*
X75432481Y-115215015D01*
X75293100Y-115308147D01*
X75138228Y-115372297D01*
X74973816Y-115405000D01*
X74806184Y-115405000D01*
X74641772Y-115372297D01*
X74486900Y-115308147D01*
X74347519Y-115215015D01*
X74228985Y-115096481D01*
X74135853Y-114957100D01*
X74071703Y-114802228D01*
X74039000Y-114637816D01*
X74039000Y-114470184D01*
X74071703Y-114305772D01*
X74135853Y-114150900D01*
X74228985Y-114011519D01*
X74347519Y-113892985D01*
X74486900Y-113799853D01*
X74641772Y-113735703D01*
X74806184Y-113703000D01*
X74973816Y-113703000D01*
X75138228Y-113735703D01*
G37*
G36*
X90378228Y-113735703D02*
G01*
X90533100Y-113799853D01*
X90672481Y-113892985D01*
X90791015Y-114011519D01*
X90884147Y-114150900D01*
X90948297Y-114305772D01*
X90981000Y-114470184D01*
X90981000Y-114637816D01*
X90948297Y-114802228D01*
X90884147Y-114957100D01*
X90791015Y-115096481D01*
X90672481Y-115215015D01*
X90533100Y-115308147D01*
X90378228Y-115372297D01*
X90213816Y-115405000D01*
X90046184Y-115405000D01*
X89881772Y-115372297D01*
X89726900Y-115308147D01*
X89587519Y-115215015D01*
X89468985Y-115096481D01*
X89375853Y-114957100D01*
X89311703Y-114802228D01*
X89279000Y-114637816D01*
X89279000Y-114470184D01*
X89311703Y-114305772D01*
X89375853Y-114150900D01*
X89468985Y-114011519D01*
X89587519Y-113892985D01*
X89726900Y-113799853D01*
X89881772Y-113735703D01*
X90046184Y-113703000D01*
X90213816Y-113703000D01*
X90378228Y-113735703D01*
G37*
G36*
X90378228Y-111195703D02*
G01*
X90533100Y-111259853D01*
X90672481Y-111352985D01*
X90791015Y-111471519D01*
X90884147Y-111610900D01*
X90948297Y-111765772D01*
X90981000Y-111930184D01*
X90981000Y-112097816D01*
X90948297Y-112262228D01*
X90884147Y-112417100D01*
X90791015Y-112556481D01*
X90672481Y-112675015D01*
X90533100Y-112768147D01*
X90378228Y-112832297D01*
X90213816Y-112865000D01*
X90046184Y-112865000D01*
X89881772Y-112832297D01*
X89726900Y-112768147D01*
X89587519Y-112675015D01*
X89468985Y-112556481D01*
X89375853Y-112417100D01*
X89311703Y-112262228D01*
X89279000Y-112097816D01*
X89279000Y-111930184D01*
X89311703Y-111765772D01*
X89375853Y-111610900D01*
X89468985Y-111471519D01*
X89587519Y-111352985D01*
X89726900Y-111259853D01*
X89881772Y-111195703D01*
X90046184Y-111163000D01*
X90213816Y-111163000D01*
X90378228Y-111195703D01*
G37*
G36*
X75138228Y-111195703D02*
G01*
X75293100Y-111259853D01*
X75432481Y-111352985D01*
X75551015Y-111471519D01*
X75644147Y-111610900D01*
X75708297Y-111765772D01*
X75741000Y-111930184D01*
X75741000Y-112097816D01*
X75708297Y-112262228D01*
X75644147Y-112417100D01*
X75551015Y-112556481D01*
X75432481Y-112675015D01*
X75293100Y-112768147D01*
X75138228Y-112832297D01*
X74973816Y-112865000D01*
X74806184Y-112865000D01*
X74641772Y-112832297D01*
X74486900Y-112768147D01*
X74347519Y-112675015D01*
X74228985Y-112556481D01*
X74135853Y-112417100D01*
X74071703Y-112262228D01*
X74039000Y-112097816D01*
X74039000Y-111930184D01*
X74071703Y-111765772D01*
X74135853Y-111610900D01*
X74228985Y-111471519D01*
X74347519Y-111352985D01*
X74486900Y-111259853D01*
X74641772Y-111195703D01*
X74806184Y-111163000D01*
X74973816Y-111163000D01*
X75138228Y-111195703D01*
G37*
G36*
X94826571Y-108896863D02*
G01*
X94905023Y-108904590D01*
X94984417Y-108928674D01*
X95056013Y-108950392D01*
X95195165Y-109024771D01*
X95317133Y-109124867D01*
X95417229Y-109246835D01*
X95491608Y-109385987D01*
X95495477Y-109398741D01*
X95537410Y-109536977D01*
X95552875Y-109694000D01*
X95537410Y-109851023D01*
X95506875Y-109951682D01*
X95491608Y-110002013D01*
X95417229Y-110141165D01*
X95317133Y-110263133D01*
X95195165Y-110363229D01*
X95056013Y-110437608D01*
X95005682Y-110452875D01*
X94905023Y-110483410D01*
X94826571Y-110491137D01*
X94787346Y-110495000D01*
X94188654Y-110495000D01*
X94149429Y-110491137D01*
X94070977Y-110483410D01*
X93970318Y-110452875D01*
X93919987Y-110437608D01*
X93780835Y-110363229D01*
X93658867Y-110263133D01*
X93558771Y-110141165D01*
X93484392Y-110002013D01*
X93469125Y-109951682D01*
X93438590Y-109851023D01*
X93423125Y-109694000D01*
X93438590Y-109536977D01*
X93480523Y-109398741D01*
X93484392Y-109385987D01*
X93558771Y-109246835D01*
X93658867Y-109124867D01*
X93780835Y-109024771D01*
X93919987Y-108950392D01*
X93991583Y-108928674D01*
X94070977Y-108904590D01*
X94149429Y-108896863D01*
X94188654Y-108893000D01*
X94787346Y-108893000D01*
X94826571Y-108896863D01*
G37*
G36*
X90378228Y-108655703D02*
G01*
X90533100Y-108719853D01*
X90672481Y-108812985D01*
X90791015Y-108931519D01*
X90884147Y-109070900D01*
X90948297Y-109225772D01*
X90981000Y-109390184D01*
X90981000Y-109557816D01*
X90948297Y-109722228D01*
X90884147Y-109877100D01*
X90791015Y-110016481D01*
X90672481Y-110135015D01*
X90533100Y-110228147D01*
X90378228Y-110292297D01*
X90213816Y-110325000D01*
X90046184Y-110325000D01*
X89881772Y-110292297D01*
X89726900Y-110228147D01*
X89587519Y-110135015D01*
X89468985Y-110016481D01*
X89375853Y-109877100D01*
X89311703Y-109722228D01*
X89279000Y-109557816D01*
X89279000Y-109390184D01*
X89311703Y-109225772D01*
X89375853Y-109070900D01*
X89468985Y-108931519D01*
X89587519Y-108812985D01*
X89726900Y-108719853D01*
X89881772Y-108655703D01*
X90046184Y-108623000D01*
X90213816Y-108623000D01*
X90378228Y-108655703D01*
G37*
G36*
X75138228Y-108655703D02*
G01*
X75293100Y-108719853D01*
X75432481Y-108812985D01*
X75551015Y-108931519D01*
X75644147Y-109070900D01*
X75708297Y-109225772D01*
X75741000Y-109390184D01*
X75741000Y-109557816D01*
X75708297Y-109722228D01*
X75644147Y-109877100D01*
X75551015Y-110016481D01*
X75432481Y-110135015D01*
X75293100Y-110228147D01*
X75138228Y-110292297D01*
X74973816Y-110325000D01*
X74806184Y-110325000D01*
X74641772Y-110292297D01*
X74486900Y-110228147D01*
X74347519Y-110135015D01*
X74228985Y-110016481D01*
X74135853Y-109877100D01*
X74071703Y-109722228D01*
X74039000Y-109557816D01*
X74039000Y-109390184D01*
X74071703Y-109225772D01*
X74135853Y-109070900D01*
X74228985Y-108931519D01*
X74347519Y-108812985D01*
X74486900Y-108719853D01*
X74641772Y-108655703D01*
X74806184Y-108623000D01*
X74973816Y-108623000D01*
X75138228Y-108655703D01*
G37*
G36*
X99110585Y-106672802D02*
G01*
X99260410Y-106702604D01*
X99542674Y-106819521D01*
X99796705Y-106989259D01*
X100012741Y-107205295D01*
X100182479Y-107459326D01*
X100299396Y-107741590D01*
X100359000Y-108041240D01*
X100359000Y-108346760D01*
X100299396Y-108646410D01*
X100182479Y-108928674D01*
X100012741Y-109182705D01*
X99796705Y-109398741D01*
X99542674Y-109568479D01*
X99260410Y-109685396D01*
X99110585Y-109715198D01*
X98960761Y-109745000D01*
X98655239Y-109745000D01*
X98505415Y-109715198D01*
X98355590Y-109685396D01*
X98073326Y-109568479D01*
X97819295Y-109398741D01*
X97603259Y-109182705D01*
X97433521Y-108928674D01*
X97316604Y-108646410D01*
X97257000Y-108346760D01*
X97257000Y-108041240D01*
X97316604Y-107741590D01*
X97433521Y-107459326D01*
X97603259Y-107205295D01*
X97819295Y-106989259D01*
X98073326Y-106819521D01*
X98355590Y-106702604D01*
X98505415Y-106672802D01*
X98655239Y-106643000D01*
X98960761Y-106643000D01*
X99110585Y-106672802D01*
G37*
G36*
X75741000Y-107785000D02*
G01*
X74039000Y-107785000D01*
X74039000Y-106083000D01*
X75741000Y-106083000D01*
X75741000Y-107785000D01*
G37*
G36*
X90378228Y-106115703D02*
G01*
X90533100Y-106179853D01*
X90672481Y-106272985D01*
X90791015Y-106391519D01*
X90884147Y-106530900D01*
X90948297Y-106685772D01*
X90981000Y-106850184D01*
X90981000Y-107017816D01*
X90948297Y-107182228D01*
X90884147Y-107337100D01*
X90791015Y-107476481D01*
X90672481Y-107595015D01*
X90533100Y-107688147D01*
X90378228Y-107752297D01*
X90213816Y-107785000D01*
X90046184Y-107785000D01*
X89881772Y-107752297D01*
X89726900Y-107688147D01*
X89587519Y-107595015D01*
X89468985Y-107476481D01*
X89375853Y-107337100D01*
X89311703Y-107182228D01*
X89279000Y-107017816D01*
X89279000Y-106850184D01*
X89311703Y-106685772D01*
X89375853Y-106530900D01*
X89468985Y-106391519D01*
X89587519Y-106272985D01*
X89726900Y-106179853D01*
X89881772Y-106115703D01*
X90046184Y-106083000D01*
X90213816Y-106083000D01*
X90378228Y-106115703D01*
G37*
G36*
X95401048Y-105897122D02*
G01*
X95435387Y-105907539D01*
X95467036Y-105924456D01*
X95494778Y-105947222D01*
X95517544Y-105974964D01*
X95534461Y-106006613D01*
X95544878Y-106040952D01*
X95549000Y-106082807D01*
X95549000Y-107305193D01*
X95544878Y-107347048D01*
X95534461Y-107381387D01*
X95517544Y-107413036D01*
X95494778Y-107440778D01*
X95467036Y-107463544D01*
X95435387Y-107480461D01*
X95401048Y-107490878D01*
X95359193Y-107495000D01*
X93616807Y-107495000D01*
X93574952Y-107490878D01*
X93540613Y-107480461D01*
X93508964Y-107463544D01*
X93481222Y-107440778D01*
X93458456Y-107413036D01*
X93441539Y-107381387D01*
X93431122Y-107347048D01*
X93427000Y-107305193D01*
X93427000Y-106082807D01*
X93431122Y-106040952D01*
X93441539Y-106006613D01*
X93458456Y-105974964D01*
X93481222Y-105947222D01*
X93508964Y-105924456D01*
X93540613Y-105907539D01*
X93574952Y-105897122D01*
X93616807Y-105893000D01*
X95359193Y-105893000D01*
X95401048Y-105897122D01*
G37*
G36*
X72277142Y-95484242D02*
G01*
X72425101Y-95545529D01*
X72558255Y-95634499D01*
X72671501Y-95747745D01*
X72760471Y-95880899D01*
X72821758Y-96028858D01*
X72853000Y-96185925D01*
X72853000Y-96346075D01*
X72821758Y-96503142D01*
X72760471Y-96651101D01*
X72671501Y-96784255D01*
X72558255Y-96897501D01*
X72425101Y-96986471D01*
X72277142Y-97047758D01*
X72120075Y-97079000D01*
X71959925Y-97079000D01*
X71802858Y-97047758D01*
X71654899Y-96986471D01*
X71521745Y-96897501D01*
X71408499Y-96784255D01*
X71319529Y-96651101D01*
X71258242Y-96503142D01*
X71227000Y-96346075D01*
X71227000Y-96185925D01*
X71258242Y-96028858D01*
X71319529Y-95880899D01*
X71408499Y-95747745D01*
X71521745Y-95634499D01*
X71654899Y-95545529D01*
X71802858Y-95484242D01*
X71959925Y-95453000D01*
X72120075Y-95453000D01*
X72277142Y-95484242D01*
G37*
G36*
X69737142Y-95484242D02*
G01*
X69885101Y-95545529D01*
X70018255Y-95634499D01*
X70131501Y-95747745D01*
X70220471Y-95880899D01*
X70281758Y-96028858D01*
X70313000Y-96185925D01*
X70313000Y-96346075D01*
X70281758Y-96503142D01*
X70220471Y-96651101D01*
X70131501Y-96784255D01*
X70018255Y-96897501D01*
X69885101Y-96986471D01*
X69737142Y-97047758D01*
X69580075Y-97079000D01*
X69419925Y-97079000D01*
X69262858Y-97047758D01*
X69114899Y-96986471D01*
X68981745Y-96897501D01*
X68868499Y-96784255D01*
X68779529Y-96651101D01*
X68718242Y-96503142D01*
X68687000Y-96346075D01*
X68687000Y-96185925D01*
X68718242Y-96028858D01*
X68779529Y-95880899D01*
X68868499Y-95747745D01*
X68981745Y-95634499D01*
X69114899Y-95545529D01*
X69262858Y-95484242D01*
X69419925Y-95453000D01*
X69580075Y-95453000D01*
X69737142Y-95484242D01*
G37*
G36*
X72277142Y-92944242D02*
G01*
X72425101Y-93005529D01*
X72558255Y-93094499D01*
X72671501Y-93207745D01*
X72760471Y-93340899D01*
X72821758Y-93488858D01*
X72853000Y-93645925D01*
X72853000Y-93806075D01*
X72821758Y-93963142D01*
X72760471Y-94111101D01*
X72671501Y-94244255D01*
X72558255Y-94357501D01*
X72425101Y-94446471D01*
X72277142Y-94507758D01*
X72120075Y-94539000D01*
X71959925Y-94539000D01*
X71802858Y-94507758D01*
X71654899Y-94446471D01*
X71521745Y-94357501D01*
X71408499Y-94244255D01*
X71319529Y-94111101D01*
X71258242Y-93963142D01*
X71227000Y-93806075D01*
X71227000Y-93645925D01*
X71258242Y-93488858D01*
X71319529Y-93340899D01*
X71408499Y-93207745D01*
X71521745Y-93094499D01*
X71654899Y-93005529D01*
X71802858Y-92944242D01*
X71959925Y-92913000D01*
X72120075Y-92913000D01*
X72277142Y-92944242D01*
G37*
G36*
X69737142Y-92944242D02*
G01*
X69885101Y-93005529D01*
X70018255Y-93094499D01*
X70131501Y-93207745D01*
X70220471Y-93340899D01*
X70281758Y-93488858D01*
X70313000Y-93645925D01*
X70313000Y-93806075D01*
X70281758Y-93963142D01*
X70220471Y-94111101D01*
X70131501Y-94244255D01*
X70018255Y-94357501D01*
X69885101Y-94446471D01*
X69737142Y-94507758D01*
X69580075Y-94539000D01*
X69419925Y-94539000D01*
X69262858Y-94507758D01*
X69114899Y-94446471D01*
X68981745Y-94357501D01*
X68868499Y-94244255D01*
X68779529Y-94111101D01*
X68718242Y-93963142D01*
X68687000Y-93806075D01*
X68687000Y-93645925D01*
X68718242Y-93488858D01*
X68779529Y-93340899D01*
X68868499Y-93207745D01*
X68981745Y-93094499D01*
X69114899Y-93005529D01*
X69262858Y-92944242D01*
X69419925Y-92913000D01*
X69580075Y-92913000D01*
X69737142Y-92944242D01*
G37*
G36*
X69737142Y-90404242D02*
G01*
X69885101Y-90465529D01*
X70018255Y-90554499D01*
X70131501Y-90667745D01*
X70220471Y-90800899D01*
X70281758Y-90948858D01*
X70313000Y-91105925D01*
X70313000Y-91266075D01*
X70281758Y-91423142D01*
X70220471Y-91571101D01*
X70131501Y-91704255D01*
X70018255Y-91817501D01*
X69885101Y-91906471D01*
X69737142Y-91967758D01*
X69580075Y-91999000D01*
X69419925Y-91999000D01*
X69262858Y-91967758D01*
X69114899Y-91906471D01*
X68981745Y-91817501D01*
X68868499Y-91704255D01*
X68779529Y-91571101D01*
X68718242Y-91423142D01*
X68687000Y-91266075D01*
X68687000Y-91105925D01*
X68718242Y-90948858D01*
X68779529Y-90800899D01*
X68868499Y-90667745D01*
X68981745Y-90554499D01*
X69114899Y-90465529D01*
X69262858Y-90404242D01*
X69419925Y-90373000D01*
X69580075Y-90373000D01*
X69737142Y-90404242D01*
G37*
G36*
X72277142Y-90404242D02*
G01*
X72425101Y-90465529D01*
X72558255Y-90554499D01*
X72671501Y-90667745D01*
X72760471Y-90800899D01*
X72821758Y-90948858D01*
X72853000Y-91105925D01*
X72853000Y-91266075D01*
X72821758Y-91423142D01*
X72760471Y-91571101D01*
X72671501Y-91704255D01*
X72558255Y-91817501D01*
X72425101Y-91906471D01*
X72277142Y-91967758D01*
X72120075Y-91999000D01*
X71959925Y-91999000D01*
X71802858Y-91967758D01*
X71654899Y-91906471D01*
X71521745Y-91817501D01*
X71408499Y-91704255D01*
X71319529Y-91571101D01*
X71258242Y-91423142D01*
X71227000Y-91266075D01*
X71227000Y-91105925D01*
X71258242Y-90948858D01*
X71319529Y-90800899D01*
X71408499Y-90667745D01*
X71521745Y-90554499D01*
X71654899Y-90465529D01*
X71802858Y-90404242D01*
X71959925Y-90373000D01*
X72120075Y-90373000D01*
X72277142Y-90404242D01*
G37*
G36*
X101817021Y-86306640D02*
G01*
X102326769Y-86517785D01*
X102326771Y-86517786D01*
X102785534Y-86824321D01*
X103175679Y-87214466D01*
X103482214Y-87673229D01*
X103482215Y-87673231D01*
X103693360Y-88182979D01*
X103801000Y-88724124D01*
X103801000Y-89275876D01*
X103693360Y-89817021D01*
X103482215Y-90326769D01*
X103482214Y-90326771D01*
X103175679Y-90785534D01*
X102785534Y-91175679D01*
X102326771Y-91482214D01*
X102326770Y-91482215D01*
X102326769Y-91482215D01*
X101817021Y-91693360D01*
X101275876Y-91801000D01*
X100724124Y-91801000D01*
X100182979Y-91693360D01*
X99673231Y-91482215D01*
X99673230Y-91482215D01*
X99673229Y-91482214D01*
X99214466Y-91175679D01*
X98824321Y-90785534D01*
X98517786Y-90326771D01*
X98517785Y-90326769D01*
X98306640Y-89817021D01*
X98199000Y-89275876D01*
X98199000Y-88724124D01*
X98306640Y-88182979D01*
X98517785Y-87673231D01*
X98517786Y-87673229D01*
X98824321Y-87214466D01*
X99214466Y-86824321D01*
X99673229Y-86517786D01*
X99673231Y-86517785D01*
X100182979Y-86306640D01*
X100724124Y-86199000D01*
X101275876Y-86199000D01*
X101817021Y-86306640D01*
G37*
G36*
X64817021Y-86306640D02*
G01*
X65326769Y-86517785D01*
X65326771Y-86517786D01*
X65785534Y-86824321D01*
X66175679Y-87214466D01*
X66482214Y-87673229D01*
X66482215Y-87673231D01*
X66693360Y-88182979D01*
X66801000Y-88724124D01*
X66801000Y-89275876D01*
X66693360Y-89817021D01*
X66482215Y-90326769D01*
X66482214Y-90326771D01*
X66175679Y-90785534D01*
X65785534Y-91175679D01*
X65326771Y-91482214D01*
X65326770Y-91482215D01*
X65326769Y-91482215D01*
X64817021Y-91693360D01*
X64275876Y-91801000D01*
X63724124Y-91801000D01*
X63182979Y-91693360D01*
X62673231Y-91482215D01*
X62673230Y-91482215D01*
X62673229Y-91482214D01*
X62214466Y-91175679D01*
X61824321Y-90785534D01*
X61517786Y-90326771D01*
X61517785Y-90326769D01*
X61306640Y-89817021D01*
X61199000Y-89275876D01*
X61199000Y-88724124D01*
X61306640Y-88182979D01*
X61517785Y-87673231D01*
X61517786Y-87673229D01*
X61824321Y-87214466D01*
X62214466Y-86824321D01*
X62673229Y-86517786D01*
X62673231Y-86517785D01*
X63182979Y-86306640D01*
X63724124Y-86199000D01*
X64275876Y-86199000D01*
X64817021Y-86306640D01*
G37*
G36*
X70313000Y-89459000D02*
G01*
X68687000Y-89459000D01*
X68687000Y-87833000D01*
X70313000Y-87833000D01*
X70313000Y-89459000D01*
G37*
G36*
X72277142Y-87864242D02*
G01*
X72425101Y-87925529D01*
X72558255Y-88014499D01*
X72671501Y-88127745D01*
X72760471Y-88260899D01*
X72821758Y-88408858D01*
X72853000Y-88565925D01*
X72853000Y-88726075D01*
X72821758Y-88883142D01*
X72760471Y-89031101D01*
X72671501Y-89164255D01*
X72558255Y-89277501D01*
X72425101Y-89366471D01*
X72277142Y-89427758D01*
X72120075Y-89459000D01*
X71959925Y-89459000D01*
X71802858Y-89427758D01*
X71654899Y-89366471D01*
X71521745Y-89277501D01*
X71408499Y-89164255D01*
X71319529Y-89031101D01*
X71258242Y-88883142D01*
X71227000Y-88726075D01*
X71227000Y-88565925D01*
X71258242Y-88408858D01*
X71319529Y-88260899D01*
X71408499Y-88127745D01*
X71521745Y-88014499D01*
X71654899Y-87925529D01*
X71802858Y-87864242D01*
X71959925Y-87833000D01*
X72120075Y-87833000D01*
X72277142Y-87864242D01*
G37*
M02*
