G04 #@! TF.GenerationSoftware,KiCad,Pcbnew,(5.1.5)-3*
G04 #@! TF.CreationDate,2020-05-08T00:55:34-06:00*
G04 #@! TF.ProjectId,camera,63616d65-7261-42e6-9b69-6361645f7063,rev?*
G04 #@! TF.SameCoordinates,Original*
G04 #@! TF.FileFunction,Copper,L2,Bot*
G04 #@! TF.FilePolarity,Positive*
%FSLAX46Y46*%
G04 Gerber Fmt 4.6, Leading zero omitted, Abs format (unit mm)*
G04 Created by KiCad (PCBNEW (5.1.5)-3) date 2020-05-08 00:55:34*
%MOMM*%
%LPD*%
G04 APERTURE LIST*
%ADD10R,1.600000X1.600000*%
%ADD11O,1.600000X1.600000*%
%ADD12C,5.500000*%
%ADD13C,0.100000*%
%ADD14O,2.020000X1.500000*%
%ADD15R,1.524000X1.524000*%
%ADD16C,1.524000*%
%ADD17C,0.800000*%
%ADD18C,0.381000*%
%ADD19C,0.254000*%
G04 APERTURE END LIST*
D10*
X74890000Y-106934000D03*
D11*
X90130000Y-139954000D03*
X74890000Y-109474000D03*
X90130000Y-137414000D03*
X74890000Y-112014000D03*
X90130000Y-134874000D03*
X74890000Y-114554000D03*
X90130000Y-132334000D03*
X74890000Y-117094000D03*
X90130000Y-129794000D03*
X74890000Y-119634000D03*
X90130000Y-127254000D03*
X74890000Y-122174000D03*
X90130000Y-124714000D03*
X74890000Y-124714000D03*
X90130000Y-122174000D03*
X74890000Y-127254000D03*
X90130000Y-119634000D03*
X74890000Y-129794000D03*
X90130000Y-117094000D03*
X74890000Y-132334000D03*
X90130000Y-114554000D03*
X74890000Y-134874000D03*
X90130000Y-112014000D03*
X74890000Y-137414000D03*
X90130000Y-109474000D03*
X74890000Y-139954000D03*
X90130000Y-106934000D03*
X74890000Y-142494000D03*
X90130000Y-142494000D03*
D12*
X64000000Y-146000000D03*
X64000000Y-89000000D03*
X101000000Y-89000000D03*
X101000000Y-146000000D03*
G04 #@! TA.AperFunction,ComponentPad*
D13*
G36*
X95272504Y-105945204D02*
G01*
X95296773Y-105948804D01*
X95320571Y-105954765D01*
X95343671Y-105963030D01*
X95365849Y-105973520D01*
X95386893Y-105986133D01*
X95406598Y-106000747D01*
X95424777Y-106017223D01*
X95441253Y-106035402D01*
X95455867Y-106055107D01*
X95468480Y-106076151D01*
X95478970Y-106098329D01*
X95487235Y-106121429D01*
X95493196Y-106145227D01*
X95496796Y-106169496D01*
X95498000Y-106194000D01*
X95498000Y-107194000D01*
X95496796Y-107218504D01*
X95493196Y-107242773D01*
X95487235Y-107266571D01*
X95478970Y-107289671D01*
X95468480Y-107311849D01*
X95455867Y-107332893D01*
X95441253Y-107352598D01*
X95424777Y-107370777D01*
X95406598Y-107387253D01*
X95386893Y-107401867D01*
X95365849Y-107414480D01*
X95343671Y-107424970D01*
X95320571Y-107433235D01*
X95296773Y-107439196D01*
X95272504Y-107442796D01*
X95248000Y-107444000D01*
X93728000Y-107444000D01*
X93703496Y-107442796D01*
X93679227Y-107439196D01*
X93655429Y-107433235D01*
X93632329Y-107424970D01*
X93610151Y-107414480D01*
X93589107Y-107401867D01*
X93569402Y-107387253D01*
X93551223Y-107370777D01*
X93534747Y-107352598D01*
X93520133Y-107332893D01*
X93507520Y-107311849D01*
X93497030Y-107289671D01*
X93488765Y-107266571D01*
X93482804Y-107242773D01*
X93479204Y-107218504D01*
X93478000Y-107194000D01*
X93478000Y-106194000D01*
X93479204Y-106169496D01*
X93482804Y-106145227D01*
X93488765Y-106121429D01*
X93497030Y-106098329D01*
X93507520Y-106076151D01*
X93520133Y-106055107D01*
X93534747Y-106035402D01*
X93551223Y-106017223D01*
X93569402Y-106000747D01*
X93589107Y-105986133D01*
X93610151Y-105973520D01*
X93632329Y-105963030D01*
X93655429Y-105954765D01*
X93679227Y-105948804D01*
X93703496Y-105945204D01*
X93728000Y-105944000D01*
X95248000Y-105944000D01*
X95272504Y-105945204D01*
G37*
G04 #@! TD.AperFunction*
D14*
X94488000Y-109694000D03*
D15*
X69500000Y-88646000D03*
D16*
X72040000Y-88646000D03*
X69500000Y-91186000D03*
X72040000Y-91186000D03*
X69500000Y-93726000D03*
X72040000Y-93726000D03*
X69500000Y-96266000D03*
X72040000Y-96266000D03*
G04 #@! TA.AperFunction,ComponentPad*
D13*
G36*
X71142504Y-129735204D02*
G01*
X71166773Y-129738804D01*
X71190571Y-129744765D01*
X71213671Y-129753030D01*
X71235849Y-129763520D01*
X71256893Y-129776133D01*
X71276598Y-129790747D01*
X71294777Y-129807223D01*
X71311253Y-129825402D01*
X71325867Y-129845107D01*
X71338480Y-129866151D01*
X71348970Y-129888329D01*
X71357235Y-129911429D01*
X71363196Y-129935227D01*
X71366796Y-129959496D01*
X71368000Y-129984000D01*
X71368000Y-130984000D01*
X71366796Y-131008504D01*
X71363196Y-131032773D01*
X71357235Y-131056571D01*
X71348970Y-131079671D01*
X71338480Y-131101849D01*
X71325867Y-131122893D01*
X71311253Y-131142598D01*
X71294777Y-131160777D01*
X71276598Y-131177253D01*
X71256893Y-131191867D01*
X71235849Y-131204480D01*
X71213671Y-131214970D01*
X71190571Y-131223235D01*
X71166773Y-131229196D01*
X71142504Y-131232796D01*
X71118000Y-131234000D01*
X69598000Y-131234000D01*
X69573496Y-131232796D01*
X69549227Y-131229196D01*
X69525429Y-131223235D01*
X69502329Y-131214970D01*
X69480151Y-131204480D01*
X69459107Y-131191867D01*
X69439402Y-131177253D01*
X69421223Y-131160777D01*
X69404747Y-131142598D01*
X69390133Y-131122893D01*
X69377520Y-131101849D01*
X69367030Y-131079671D01*
X69358765Y-131056571D01*
X69352804Y-131032773D01*
X69349204Y-131008504D01*
X69348000Y-130984000D01*
X69348000Y-129984000D01*
X69349204Y-129959496D01*
X69352804Y-129935227D01*
X69358765Y-129911429D01*
X69367030Y-129888329D01*
X69377520Y-129866151D01*
X69390133Y-129845107D01*
X69404747Y-129825402D01*
X69421223Y-129807223D01*
X69439402Y-129790747D01*
X69459107Y-129776133D01*
X69480151Y-129763520D01*
X69502329Y-129753030D01*
X69525429Y-129744765D01*
X69549227Y-129738804D01*
X69573496Y-129735204D01*
X69598000Y-129734000D01*
X71118000Y-129734000D01*
X71142504Y-129735204D01*
G37*
G04 #@! TD.AperFunction*
D14*
X70358000Y-127484000D03*
X70358000Y-124484000D03*
X70358000Y-121484000D03*
G04 #@! TA.AperFunction,ComponentPad*
D13*
G36*
X95272504Y-133895204D02*
G01*
X95296773Y-133898804D01*
X95320571Y-133904765D01*
X95343671Y-133913030D01*
X95365849Y-133923520D01*
X95386893Y-133936133D01*
X95406598Y-133950747D01*
X95424777Y-133967223D01*
X95441253Y-133985402D01*
X95455867Y-134005107D01*
X95468480Y-134026151D01*
X95478970Y-134048329D01*
X95487235Y-134071429D01*
X95493196Y-134095227D01*
X95496796Y-134119496D01*
X95498000Y-134144000D01*
X95498000Y-135144000D01*
X95496796Y-135168504D01*
X95493196Y-135192773D01*
X95487235Y-135216571D01*
X95478970Y-135239671D01*
X95468480Y-135261849D01*
X95455867Y-135282893D01*
X95441253Y-135302598D01*
X95424777Y-135320777D01*
X95406598Y-135337253D01*
X95386893Y-135351867D01*
X95365849Y-135364480D01*
X95343671Y-135374970D01*
X95320571Y-135383235D01*
X95296773Y-135389196D01*
X95272504Y-135392796D01*
X95248000Y-135394000D01*
X93728000Y-135394000D01*
X93703496Y-135392796D01*
X93679227Y-135389196D01*
X93655429Y-135383235D01*
X93632329Y-135374970D01*
X93610151Y-135364480D01*
X93589107Y-135351867D01*
X93569402Y-135337253D01*
X93551223Y-135320777D01*
X93534747Y-135302598D01*
X93520133Y-135282893D01*
X93507520Y-135261849D01*
X93497030Y-135239671D01*
X93488765Y-135216571D01*
X93482804Y-135192773D01*
X93479204Y-135168504D01*
X93478000Y-135144000D01*
X93478000Y-134144000D01*
X93479204Y-134119496D01*
X93482804Y-134095227D01*
X93488765Y-134071429D01*
X93497030Y-134048329D01*
X93507520Y-134026151D01*
X93520133Y-134005107D01*
X93534747Y-133985402D01*
X93551223Y-133967223D01*
X93569402Y-133950747D01*
X93589107Y-133936133D01*
X93610151Y-133923520D01*
X93632329Y-133913030D01*
X93655429Y-133904765D01*
X93679227Y-133898804D01*
X93703496Y-133895204D01*
X93728000Y-133894000D01*
X95248000Y-133894000D01*
X95272504Y-133895204D01*
G37*
G04 #@! TD.AperFunction*
D14*
X94488000Y-137644000D03*
D17*
X81788000Y-107188000D03*
X82169000Y-139192000D03*
X64008000Y-112395000D03*
X102235000Y-115316000D03*
X100203000Y-128778000D03*
X86741000Y-93091000D03*
D18*
X84582000Y-134406000D02*
X90130000Y-139954000D01*
X84582000Y-100110370D02*
X84582000Y-134406000D01*
X72040000Y-88646000D02*
X73117630Y-88646000D01*
X73117630Y-88646000D02*
X84582000Y-100110370D01*
X77904990Y-97872662D02*
X77904990Y-126779010D01*
X72605827Y-92573499D02*
X77904990Y-97872662D01*
X77904990Y-126779010D02*
X74890000Y-129794000D01*
X69500000Y-91186000D02*
X70887499Y-92573499D01*
X70887499Y-92573499D02*
X72605827Y-92573499D01*
X72040000Y-91186000D02*
X78486000Y-97632000D01*
X78486000Y-128738000D02*
X74890000Y-132334000D01*
X78486000Y-97632000D02*
X78486000Y-128738000D01*
X70887499Y-96831827D02*
X72339520Y-98283848D01*
X72040000Y-93726000D02*
X70887499Y-94878501D01*
X70887499Y-94878501D02*
X70887499Y-96831827D01*
X72339520Y-137403520D02*
X74890000Y-139954000D01*
X72339520Y-98283848D02*
X72339520Y-137403520D01*
X74090001Y-141694001D02*
X74890000Y-142494000D01*
X71758510Y-139362510D02*
X74090001Y-141694001D01*
X71758510Y-98524510D02*
X71758510Y-139362510D01*
X69500000Y-96266000D02*
X71758510Y-98524510D01*
X73683457Y-90033499D02*
X84000990Y-100351032D01*
X68422370Y-93726000D02*
X67310000Y-92613630D01*
X84000990Y-136364990D02*
X90130000Y-142494000D01*
X69500000Y-93726000D02*
X68422370Y-93726000D01*
X67310000Y-92613630D02*
X67310000Y-91186000D01*
X84000990Y-100351032D02*
X84000990Y-136364990D01*
X67310000Y-91186000D02*
X68462501Y-90033499D01*
X68462501Y-90033499D02*
X73683457Y-90033499D01*
D19*
G36*
X104594000Y-149594000D02*
G01*
X60406000Y-149594000D01*
X60406000Y-148380928D01*
X61798677Y-148380928D01*
X62104859Y-148824503D01*
X62692306Y-149139954D01*
X63330008Y-149334740D01*
X63993457Y-149401372D01*
X64657158Y-149337292D01*
X65295605Y-149144962D01*
X65884262Y-148831772D01*
X65895141Y-148824503D01*
X66201323Y-148380928D01*
X98798677Y-148380928D01*
X99104859Y-148824503D01*
X99692306Y-149139954D01*
X100330008Y-149334740D01*
X100993457Y-149401372D01*
X101657158Y-149337292D01*
X102295605Y-149144962D01*
X102884262Y-148831772D01*
X102895141Y-148824503D01*
X103201323Y-148380928D01*
X101000000Y-146179605D01*
X98798677Y-148380928D01*
X66201323Y-148380928D01*
X64000000Y-146179605D01*
X61798677Y-148380928D01*
X60406000Y-148380928D01*
X60406000Y-145993457D01*
X60598628Y-145993457D01*
X60662708Y-146657158D01*
X60855038Y-147295605D01*
X61168228Y-147884262D01*
X61175497Y-147895141D01*
X61619072Y-148201323D01*
X63820395Y-146000000D01*
X64179605Y-146000000D01*
X66380928Y-148201323D01*
X66824503Y-147895141D01*
X67139954Y-147307694D01*
X67334740Y-146669992D01*
X67401372Y-146006543D01*
X67400109Y-145993457D01*
X97598628Y-145993457D01*
X97662708Y-146657158D01*
X97855038Y-147295605D01*
X98168228Y-147884262D01*
X98175497Y-147895141D01*
X98619072Y-148201323D01*
X100820395Y-146000000D01*
X101179605Y-146000000D01*
X103380928Y-148201323D01*
X103824503Y-147895141D01*
X104139954Y-147307694D01*
X104334740Y-146669992D01*
X104401372Y-146006543D01*
X104337292Y-145342842D01*
X104144962Y-144704395D01*
X103831772Y-144115738D01*
X103824503Y-144104859D01*
X103380928Y-143798677D01*
X101179605Y-146000000D01*
X100820395Y-146000000D01*
X98619072Y-143798677D01*
X98175497Y-144104859D01*
X97860046Y-144692306D01*
X97665260Y-145330008D01*
X97598628Y-145993457D01*
X67400109Y-145993457D01*
X67337292Y-145342842D01*
X67144962Y-144704395D01*
X66831772Y-144115738D01*
X66824503Y-144104859D01*
X66380928Y-143798677D01*
X64179605Y-146000000D01*
X63820395Y-146000000D01*
X61619072Y-143798677D01*
X61175497Y-144104859D01*
X60860046Y-144692306D01*
X60665260Y-145330008D01*
X60598628Y-145993457D01*
X60406000Y-145993457D01*
X60406000Y-143619072D01*
X61798677Y-143619072D01*
X64000000Y-145820395D01*
X66201323Y-143619072D01*
X65895141Y-143175497D01*
X65307694Y-142860046D01*
X64669992Y-142665260D01*
X64006543Y-142598628D01*
X63342842Y-142662708D01*
X62704395Y-142855038D01*
X62115738Y-143168228D01*
X62104859Y-143175497D01*
X61798677Y-143619072D01*
X60406000Y-143619072D01*
X60406000Y-131234000D01*
X68709928Y-131234000D01*
X68722188Y-131358482D01*
X68758498Y-131478180D01*
X68817463Y-131588494D01*
X68896815Y-131685185D01*
X68993506Y-131764537D01*
X69103820Y-131823502D01*
X69223518Y-131859812D01*
X69348000Y-131872072D01*
X70072250Y-131869000D01*
X70231000Y-131710250D01*
X70231000Y-130611000D01*
X68871750Y-130611000D01*
X68713000Y-130769750D01*
X68709928Y-131234000D01*
X60406000Y-131234000D01*
X60406000Y-128148738D01*
X64157000Y-128148738D01*
X64157000Y-128519262D01*
X64229286Y-128882667D01*
X64371080Y-129224987D01*
X64576932Y-129533067D01*
X64838933Y-129795068D01*
X65147013Y-130000920D01*
X65489333Y-130142714D01*
X65852738Y-130215000D01*
X66223262Y-130215000D01*
X66586667Y-130142714D01*
X66928987Y-130000920D01*
X67237067Y-129795068D01*
X67298135Y-129734000D01*
X68709928Y-129734000D01*
X68713000Y-130198250D01*
X68871750Y-130357000D01*
X70231000Y-130357000D01*
X70231000Y-129257750D01*
X70072250Y-129099000D01*
X69348000Y-129095928D01*
X69223518Y-129108188D01*
X69103820Y-129144498D01*
X68993506Y-129203463D01*
X68896815Y-129282815D01*
X68817463Y-129379506D01*
X68758498Y-129489820D01*
X68722188Y-129609518D01*
X68709928Y-129734000D01*
X67298135Y-129734000D01*
X67499068Y-129533067D01*
X67704920Y-129224987D01*
X67846714Y-128882667D01*
X67919000Y-128519262D01*
X67919000Y-128148738D01*
X67846714Y-127785333D01*
X67704920Y-127443013D01*
X67499068Y-127134933D01*
X67237067Y-126872932D01*
X66928987Y-126667080D01*
X66586667Y-126525286D01*
X66223262Y-126453000D01*
X65852738Y-126453000D01*
X65489333Y-126525286D01*
X65147013Y-126667080D01*
X64838933Y-126872932D01*
X64576932Y-127134933D01*
X64371080Y-127443013D01*
X64229286Y-127785333D01*
X64157000Y-128148738D01*
X60406000Y-128148738D01*
X60406000Y-123448738D01*
X64157000Y-123448738D01*
X64157000Y-123819262D01*
X64229286Y-124182667D01*
X64371080Y-124524987D01*
X64576932Y-124833067D01*
X64838933Y-125095068D01*
X65147013Y-125300920D01*
X65489333Y-125442714D01*
X65852738Y-125515000D01*
X66223262Y-125515000D01*
X66586667Y-125442714D01*
X66928987Y-125300920D01*
X67237067Y-125095068D01*
X67499068Y-124833067D01*
X67504334Y-124825185D01*
X68755682Y-124825185D01*
X68769827Y-124896684D01*
X68875858Y-125147868D01*
X69028855Y-125373540D01*
X69222939Y-125565028D01*
X69450651Y-125714972D01*
X69703240Y-125817611D01*
X69971000Y-125869000D01*
X70231000Y-125869000D01*
X70231000Y-124611000D01*
X68878344Y-124611000D01*
X68755682Y-124825185D01*
X67504334Y-124825185D01*
X67704920Y-124524987D01*
X67846714Y-124182667D01*
X67854641Y-124142815D01*
X68755682Y-124142815D01*
X68878344Y-124357000D01*
X70231000Y-124357000D01*
X70231000Y-123099000D01*
X69971000Y-123099000D01*
X69703240Y-123150389D01*
X69450651Y-123253028D01*
X69222939Y-123402972D01*
X69028855Y-123594460D01*
X68875858Y-123820132D01*
X68769827Y-124071316D01*
X68755682Y-124142815D01*
X67854641Y-124142815D01*
X67919000Y-123819262D01*
X67919000Y-123448738D01*
X67846714Y-123085333D01*
X67704920Y-122743013D01*
X67499068Y-122434933D01*
X67237067Y-122172932D01*
X66928987Y-121967080D01*
X66586667Y-121825286D01*
X66223262Y-121753000D01*
X65852738Y-121753000D01*
X65489333Y-121825286D01*
X65147013Y-121967080D01*
X64838933Y-122172932D01*
X64576932Y-122434933D01*
X64371080Y-122743013D01*
X64229286Y-123085333D01*
X64157000Y-123448738D01*
X60406000Y-123448738D01*
X60406000Y-91380928D01*
X61798677Y-91380928D01*
X62104859Y-91824503D01*
X62692306Y-92139954D01*
X63330008Y-92334740D01*
X63993457Y-92401372D01*
X64657158Y-92337292D01*
X65295605Y-92144962D01*
X65884262Y-91831772D01*
X65895141Y-91824503D01*
X66201323Y-91380928D01*
X64000000Y-89179605D01*
X61798677Y-91380928D01*
X60406000Y-91380928D01*
X60406000Y-88993457D01*
X60598628Y-88993457D01*
X60662708Y-89657158D01*
X60855038Y-90295605D01*
X61168228Y-90884262D01*
X61175497Y-90895141D01*
X61619072Y-91201323D01*
X63820395Y-89000000D01*
X64179605Y-89000000D01*
X66380928Y-91201323D01*
X66813328Y-90902855D01*
X66779448Y-90966239D01*
X66746769Y-91073967D01*
X66735735Y-91186000D01*
X66738501Y-91214084D01*
X66738500Y-92585555D01*
X66735735Y-92613630D01*
X66738500Y-92641703D01*
X66746769Y-92725663D01*
X66779448Y-92833391D01*
X66832516Y-92932674D01*
X66903933Y-93019697D01*
X66925748Y-93037600D01*
X67998406Y-94110260D01*
X68016303Y-94132067D01*
X68038107Y-94149961D01*
X68038109Y-94149963D01*
X68103325Y-94203484D01*
X68202608Y-94256552D01*
X68310336Y-94289231D01*
X68422370Y-94300265D01*
X68450444Y-94297500D01*
X68507190Y-94297500D01*
X68612174Y-94454620D01*
X68771380Y-94613826D01*
X68958587Y-94738913D01*
X69166599Y-94825075D01*
X69387424Y-94869000D01*
X69612576Y-94869000D01*
X69833401Y-94825075D01*
X70041413Y-94738913D01*
X70228620Y-94613826D01*
X70387826Y-94454620D01*
X70512913Y-94267413D01*
X70599075Y-94059401D01*
X70643000Y-93838576D01*
X70643000Y-93613424D01*
X70599075Y-93392599D01*
X70512913Y-93184587D01*
X70387826Y-92997380D01*
X70228620Y-92838174D01*
X70041413Y-92713087D01*
X69833401Y-92626925D01*
X69612576Y-92583000D01*
X69387424Y-92583000D01*
X69166599Y-92626925D01*
X68958587Y-92713087D01*
X68771380Y-92838174D01*
X68612174Y-92997380D01*
X68568034Y-93063441D01*
X67881500Y-92376908D01*
X67881500Y-91422722D01*
X68388336Y-90915886D01*
X68357000Y-91073424D01*
X68357000Y-91298576D01*
X68400925Y-91519401D01*
X68487087Y-91727413D01*
X68612174Y-91914620D01*
X68771380Y-92073826D01*
X68958587Y-92198913D01*
X69166599Y-92285075D01*
X69387424Y-92329000D01*
X69612576Y-92329000D01*
X69797912Y-92292134D01*
X70463533Y-92957756D01*
X70481432Y-92979566D01*
X70530332Y-93019697D01*
X70568454Y-93050983D01*
X70667737Y-93104051D01*
X70775465Y-93136730D01*
X70887499Y-93147764D01*
X70915573Y-93144999D01*
X71053539Y-93144999D01*
X71027087Y-93184587D01*
X70940925Y-93392599D01*
X70897000Y-93613424D01*
X70897000Y-93838576D01*
X70933866Y-94023912D01*
X70503247Y-94454531D01*
X70481432Y-94472434D01*
X70410016Y-94559456D01*
X70410015Y-94559457D01*
X70356947Y-94658740D01*
X70324268Y-94766468D01*
X70313234Y-94878501D01*
X70315999Y-94906576D01*
X70315999Y-95465553D01*
X70228620Y-95378174D01*
X70041413Y-95253087D01*
X69833401Y-95166925D01*
X69612576Y-95123000D01*
X69387424Y-95123000D01*
X69166599Y-95166925D01*
X68958587Y-95253087D01*
X68771380Y-95378174D01*
X68612174Y-95537380D01*
X68487087Y-95724587D01*
X68400925Y-95932599D01*
X68357000Y-96153424D01*
X68357000Y-96378576D01*
X68400925Y-96599401D01*
X68487087Y-96807413D01*
X68612174Y-96994620D01*
X68771380Y-97153826D01*
X68958587Y-97278913D01*
X69166599Y-97365075D01*
X69387424Y-97409000D01*
X69612576Y-97409000D01*
X69797912Y-97372134D01*
X71187010Y-98761233D01*
X71187011Y-120505716D01*
X71052909Y-120434037D01*
X70839715Y-120369365D01*
X70673558Y-120353000D01*
X70042442Y-120353000D01*
X69876285Y-120369365D01*
X69663091Y-120434037D01*
X69466610Y-120539058D01*
X69294393Y-120680393D01*
X69153058Y-120852610D01*
X69048037Y-121049091D01*
X68983365Y-121262285D01*
X68961528Y-121484000D01*
X68983365Y-121705715D01*
X69048037Y-121918909D01*
X69153058Y-122115390D01*
X69294393Y-122287607D01*
X69466610Y-122428942D01*
X69663091Y-122533963D01*
X69876285Y-122598635D01*
X70042442Y-122615000D01*
X70673558Y-122615000D01*
X70839715Y-122598635D01*
X71052909Y-122533963D01*
X71187011Y-122462284D01*
X71187011Y-123221195D01*
X71012760Y-123150389D01*
X70745000Y-123099000D01*
X70485000Y-123099000D01*
X70485000Y-124357000D01*
X70505000Y-124357000D01*
X70505000Y-124611000D01*
X70485000Y-124611000D01*
X70485000Y-125869000D01*
X70745000Y-125869000D01*
X71012760Y-125817611D01*
X71187011Y-125746805D01*
X71187011Y-126505716D01*
X71052909Y-126434037D01*
X70839715Y-126369365D01*
X70673558Y-126353000D01*
X70042442Y-126353000D01*
X69876285Y-126369365D01*
X69663091Y-126434037D01*
X69466610Y-126539058D01*
X69294393Y-126680393D01*
X69153058Y-126852610D01*
X69048037Y-127049091D01*
X68983365Y-127262285D01*
X68961528Y-127484000D01*
X68983365Y-127705715D01*
X69048037Y-127918909D01*
X69153058Y-128115390D01*
X69294393Y-128287607D01*
X69466610Y-128428942D01*
X69663091Y-128533963D01*
X69876285Y-128598635D01*
X70042442Y-128615000D01*
X70673558Y-128615000D01*
X70839715Y-128598635D01*
X71052909Y-128533963D01*
X71187011Y-128462284D01*
X71187011Y-129096696D01*
X70643750Y-129099000D01*
X70485000Y-129257750D01*
X70485000Y-130357000D01*
X70505000Y-130357000D01*
X70505000Y-130611000D01*
X70485000Y-130611000D01*
X70485000Y-131710250D01*
X70643750Y-131869000D01*
X71187011Y-131871304D01*
X71187011Y-139334426D01*
X71184245Y-139362510D01*
X71195279Y-139474543D01*
X71227958Y-139582271D01*
X71281026Y-139681554D01*
X71281027Y-139681555D01*
X71352444Y-139768577D01*
X71374254Y-139786476D01*
X73705740Y-142117963D01*
X73705745Y-142117967D01*
X73751550Y-142163772D01*
X73709000Y-142377682D01*
X73709000Y-142610318D01*
X73754386Y-142838485D01*
X73843412Y-143053413D01*
X73972658Y-143246843D01*
X74137157Y-143411342D01*
X74330587Y-143540588D01*
X74545515Y-143629614D01*
X74773682Y-143675000D01*
X75006318Y-143675000D01*
X75234485Y-143629614D01*
X75449413Y-143540588D01*
X75642843Y-143411342D01*
X75807342Y-143246843D01*
X75936588Y-143053413D01*
X76025614Y-142838485D01*
X76071000Y-142610318D01*
X76071000Y-142377682D01*
X76025614Y-142149515D01*
X75936588Y-141934587D01*
X75807342Y-141741157D01*
X75642843Y-141576658D01*
X75449413Y-141447412D01*
X75234485Y-141358386D01*
X75006318Y-141313000D01*
X74773682Y-141313000D01*
X74559772Y-141355550D01*
X74513967Y-141309745D01*
X74513963Y-141309740D01*
X72330010Y-139125788D01*
X72330010Y-138202232D01*
X73751550Y-139623773D01*
X73709000Y-139837682D01*
X73709000Y-140070318D01*
X73754386Y-140298485D01*
X73843412Y-140513413D01*
X73972658Y-140706843D01*
X74137157Y-140871342D01*
X74330587Y-141000588D01*
X74545515Y-141089614D01*
X74773682Y-141135000D01*
X75006318Y-141135000D01*
X75234485Y-141089614D01*
X75449413Y-141000588D01*
X75642843Y-140871342D01*
X75807342Y-140706843D01*
X75936588Y-140513413D01*
X76025614Y-140298485D01*
X76071000Y-140070318D01*
X76071000Y-139837682D01*
X76025614Y-139609515D01*
X75936588Y-139394587D01*
X75807342Y-139201157D01*
X75642843Y-139036658D01*
X75449413Y-138907412D01*
X75234485Y-138818386D01*
X75006318Y-138773000D01*
X74773682Y-138773000D01*
X74559773Y-138815550D01*
X73041905Y-137297682D01*
X73709000Y-137297682D01*
X73709000Y-137530318D01*
X73754386Y-137758485D01*
X73843412Y-137973413D01*
X73972658Y-138166843D01*
X74137157Y-138331342D01*
X74330587Y-138460588D01*
X74545515Y-138549614D01*
X74773682Y-138595000D01*
X75006318Y-138595000D01*
X75234485Y-138549614D01*
X75449413Y-138460588D01*
X75642843Y-138331342D01*
X75807342Y-138166843D01*
X75936588Y-137973413D01*
X76025614Y-137758485D01*
X76071000Y-137530318D01*
X76071000Y-137297682D01*
X76025614Y-137069515D01*
X75936588Y-136854587D01*
X75807342Y-136661157D01*
X75642843Y-136496658D01*
X75449413Y-136367412D01*
X75234485Y-136278386D01*
X75006318Y-136233000D01*
X74773682Y-136233000D01*
X74545515Y-136278386D01*
X74330587Y-136367412D01*
X74137157Y-136496658D01*
X73972658Y-136661157D01*
X73843412Y-136854587D01*
X73754386Y-137069515D01*
X73709000Y-137297682D01*
X73041905Y-137297682D01*
X72911020Y-137166798D01*
X72911020Y-134757682D01*
X73709000Y-134757682D01*
X73709000Y-134990318D01*
X73754386Y-135218485D01*
X73843412Y-135433413D01*
X73972658Y-135626843D01*
X74137157Y-135791342D01*
X74330587Y-135920588D01*
X74545515Y-136009614D01*
X74773682Y-136055000D01*
X75006318Y-136055000D01*
X75234485Y-136009614D01*
X75449413Y-135920588D01*
X75642843Y-135791342D01*
X75807342Y-135626843D01*
X75936588Y-135433413D01*
X76025614Y-135218485D01*
X76071000Y-134990318D01*
X76071000Y-134757682D01*
X76025614Y-134529515D01*
X75936588Y-134314587D01*
X75807342Y-134121157D01*
X75642843Y-133956658D01*
X75449413Y-133827412D01*
X75234485Y-133738386D01*
X75006318Y-133693000D01*
X74773682Y-133693000D01*
X74545515Y-133738386D01*
X74330587Y-133827412D01*
X74137157Y-133956658D01*
X73972658Y-134121157D01*
X73843412Y-134314587D01*
X73754386Y-134529515D01*
X73709000Y-134757682D01*
X72911020Y-134757682D01*
X72911020Y-127137682D01*
X73709000Y-127137682D01*
X73709000Y-127370318D01*
X73754386Y-127598485D01*
X73843412Y-127813413D01*
X73972658Y-128006843D01*
X74137157Y-128171342D01*
X74330587Y-128300588D01*
X74545515Y-128389614D01*
X74773682Y-128435000D01*
X75006318Y-128435000D01*
X75234485Y-128389614D01*
X75449413Y-128300588D01*
X75642843Y-128171342D01*
X75807342Y-128006843D01*
X75936588Y-127813413D01*
X76025614Y-127598485D01*
X76071000Y-127370318D01*
X76071000Y-127137682D01*
X76025614Y-126909515D01*
X75936588Y-126694587D01*
X75807342Y-126501157D01*
X75642843Y-126336658D01*
X75449413Y-126207412D01*
X75234485Y-126118386D01*
X75006318Y-126073000D01*
X74773682Y-126073000D01*
X74545515Y-126118386D01*
X74330587Y-126207412D01*
X74137157Y-126336658D01*
X73972658Y-126501157D01*
X73843412Y-126694587D01*
X73754386Y-126909515D01*
X73709000Y-127137682D01*
X72911020Y-127137682D01*
X72911020Y-124597682D01*
X73709000Y-124597682D01*
X73709000Y-124830318D01*
X73754386Y-125058485D01*
X73843412Y-125273413D01*
X73972658Y-125466843D01*
X74137157Y-125631342D01*
X74330587Y-125760588D01*
X74545515Y-125849614D01*
X74773682Y-125895000D01*
X75006318Y-125895000D01*
X75234485Y-125849614D01*
X75449413Y-125760588D01*
X75642843Y-125631342D01*
X75807342Y-125466843D01*
X75936588Y-125273413D01*
X76025614Y-125058485D01*
X76071000Y-124830318D01*
X76071000Y-124597682D01*
X76025614Y-124369515D01*
X75936588Y-124154587D01*
X75807342Y-123961157D01*
X75642843Y-123796658D01*
X75449413Y-123667412D01*
X75234485Y-123578386D01*
X75006318Y-123533000D01*
X74773682Y-123533000D01*
X74545515Y-123578386D01*
X74330587Y-123667412D01*
X74137157Y-123796658D01*
X73972658Y-123961157D01*
X73843412Y-124154587D01*
X73754386Y-124369515D01*
X73709000Y-124597682D01*
X72911020Y-124597682D01*
X72911020Y-122057682D01*
X73709000Y-122057682D01*
X73709000Y-122290318D01*
X73754386Y-122518485D01*
X73843412Y-122733413D01*
X73972658Y-122926843D01*
X74137157Y-123091342D01*
X74330587Y-123220588D01*
X74545515Y-123309614D01*
X74773682Y-123355000D01*
X75006318Y-123355000D01*
X75234485Y-123309614D01*
X75449413Y-123220588D01*
X75642843Y-123091342D01*
X75807342Y-122926843D01*
X75936588Y-122733413D01*
X76025614Y-122518485D01*
X76071000Y-122290318D01*
X76071000Y-122057682D01*
X76025614Y-121829515D01*
X75936588Y-121614587D01*
X75807342Y-121421157D01*
X75642843Y-121256658D01*
X75449413Y-121127412D01*
X75234485Y-121038386D01*
X75006318Y-120993000D01*
X74773682Y-120993000D01*
X74545515Y-121038386D01*
X74330587Y-121127412D01*
X74137157Y-121256658D01*
X73972658Y-121421157D01*
X73843412Y-121614587D01*
X73754386Y-121829515D01*
X73709000Y-122057682D01*
X72911020Y-122057682D01*
X72911020Y-119517682D01*
X73709000Y-119517682D01*
X73709000Y-119750318D01*
X73754386Y-119978485D01*
X73843412Y-120193413D01*
X73972658Y-120386843D01*
X74137157Y-120551342D01*
X74330587Y-120680588D01*
X74545515Y-120769614D01*
X74773682Y-120815000D01*
X75006318Y-120815000D01*
X75234485Y-120769614D01*
X75449413Y-120680588D01*
X75642843Y-120551342D01*
X75807342Y-120386843D01*
X75936588Y-120193413D01*
X76025614Y-119978485D01*
X76071000Y-119750318D01*
X76071000Y-119517682D01*
X76025614Y-119289515D01*
X75936588Y-119074587D01*
X75807342Y-118881157D01*
X75642843Y-118716658D01*
X75449413Y-118587412D01*
X75234485Y-118498386D01*
X75006318Y-118453000D01*
X74773682Y-118453000D01*
X74545515Y-118498386D01*
X74330587Y-118587412D01*
X74137157Y-118716658D01*
X73972658Y-118881157D01*
X73843412Y-119074587D01*
X73754386Y-119289515D01*
X73709000Y-119517682D01*
X72911020Y-119517682D01*
X72911020Y-114903039D01*
X73498096Y-114903039D01*
X73538754Y-115037087D01*
X73658963Y-115291420D01*
X73826481Y-115517414D01*
X74034869Y-115706385D01*
X74276119Y-115851070D01*
X74540960Y-115945909D01*
X74762998Y-115824625D01*
X74762998Y-115915125D01*
X74545515Y-115958386D01*
X74330587Y-116047412D01*
X74137157Y-116176658D01*
X73972658Y-116341157D01*
X73843412Y-116534587D01*
X73754386Y-116749515D01*
X73709000Y-116977682D01*
X73709000Y-117210318D01*
X73754386Y-117438485D01*
X73843412Y-117653413D01*
X73972658Y-117846843D01*
X74137157Y-118011342D01*
X74330587Y-118140588D01*
X74545515Y-118229614D01*
X74773682Y-118275000D01*
X75006318Y-118275000D01*
X75234485Y-118229614D01*
X75449413Y-118140588D01*
X75642843Y-118011342D01*
X75807342Y-117846843D01*
X75936588Y-117653413D01*
X76025614Y-117438485D01*
X76071000Y-117210318D01*
X76071000Y-116977682D01*
X76025614Y-116749515D01*
X75936588Y-116534587D01*
X75807342Y-116341157D01*
X75642843Y-116176658D01*
X75449413Y-116047412D01*
X75234485Y-115958386D01*
X75017002Y-115915125D01*
X75017002Y-115824625D01*
X75239040Y-115945909D01*
X75503881Y-115851070D01*
X75745131Y-115706385D01*
X75953519Y-115517414D01*
X76121037Y-115291420D01*
X76241246Y-115037087D01*
X76281904Y-114903039D01*
X76159915Y-114681000D01*
X75017000Y-114681000D01*
X75017000Y-114701000D01*
X74763000Y-114701000D01*
X74763000Y-114681000D01*
X73620085Y-114681000D01*
X73498096Y-114903039D01*
X72911020Y-114903039D01*
X72911020Y-114204961D01*
X73498096Y-114204961D01*
X73620085Y-114427000D01*
X74763000Y-114427000D01*
X74763000Y-114407000D01*
X75017000Y-114407000D01*
X75017000Y-114427000D01*
X76159915Y-114427000D01*
X76281904Y-114204961D01*
X76241246Y-114070913D01*
X76121037Y-113816580D01*
X75953519Y-113590586D01*
X75745131Y-113401615D01*
X75503881Y-113256930D01*
X75239040Y-113162091D01*
X75017002Y-113283375D01*
X75017002Y-113192875D01*
X75234485Y-113149614D01*
X75449413Y-113060588D01*
X75642843Y-112931342D01*
X75807342Y-112766843D01*
X75936588Y-112573413D01*
X76025614Y-112358485D01*
X76071000Y-112130318D01*
X76071000Y-111897682D01*
X76025614Y-111669515D01*
X75936588Y-111454587D01*
X75807342Y-111261157D01*
X75642843Y-111096658D01*
X75449413Y-110967412D01*
X75234485Y-110878386D01*
X75006318Y-110833000D01*
X74773682Y-110833000D01*
X74545515Y-110878386D01*
X74330587Y-110967412D01*
X74137157Y-111096658D01*
X73972658Y-111261157D01*
X73843412Y-111454587D01*
X73754386Y-111669515D01*
X73709000Y-111897682D01*
X73709000Y-112130318D01*
X73754386Y-112358485D01*
X73843412Y-112573413D01*
X73972658Y-112766843D01*
X74137157Y-112931342D01*
X74330587Y-113060588D01*
X74545515Y-113149614D01*
X74762998Y-113192875D01*
X74762998Y-113283375D01*
X74540960Y-113162091D01*
X74276119Y-113256930D01*
X74034869Y-113401615D01*
X73826481Y-113590586D01*
X73658963Y-113816580D01*
X73538754Y-114070913D01*
X73498096Y-114204961D01*
X72911020Y-114204961D01*
X72911020Y-109357682D01*
X73709000Y-109357682D01*
X73709000Y-109590318D01*
X73754386Y-109818485D01*
X73843412Y-110033413D01*
X73972658Y-110226843D01*
X74137157Y-110391342D01*
X74330587Y-110520588D01*
X74545515Y-110609614D01*
X74773682Y-110655000D01*
X75006318Y-110655000D01*
X75234485Y-110609614D01*
X75449413Y-110520588D01*
X75642843Y-110391342D01*
X75807342Y-110226843D01*
X75936588Y-110033413D01*
X76025614Y-109818485D01*
X76071000Y-109590318D01*
X76071000Y-109357682D01*
X76025614Y-109129515D01*
X75936588Y-108914587D01*
X75807342Y-108721157D01*
X75642843Y-108556658D01*
X75449413Y-108427412D01*
X75234485Y-108338386D01*
X75006318Y-108293000D01*
X74773682Y-108293000D01*
X74545515Y-108338386D01*
X74330587Y-108427412D01*
X74137157Y-108556658D01*
X73972658Y-108721157D01*
X73843412Y-108914587D01*
X73754386Y-109129515D01*
X73709000Y-109357682D01*
X72911020Y-109357682D01*
X72911020Y-106134000D01*
X73707157Y-106134000D01*
X73707157Y-107734000D01*
X73714513Y-107808689D01*
X73736299Y-107880508D01*
X73771678Y-107946696D01*
X73819289Y-108004711D01*
X73877304Y-108052322D01*
X73943492Y-108087701D01*
X74015311Y-108109487D01*
X74090000Y-108116843D01*
X75690000Y-108116843D01*
X75764689Y-108109487D01*
X75836508Y-108087701D01*
X75902696Y-108052322D01*
X75960711Y-108004711D01*
X76008322Y-107946696D01*
X76043701Y-107880508D01*
X76065487Y-107808689D01*
X76072843Y-107734000D01*
X76072843Y-106134000D01*
X76065487Y-106059311D01*
X76043701Y-105987492D01*
X76008322Y-105921304D01*
X75960711Y-105863289D01*
X75902696Y-105815678D01*
X75836508Y-105780299D01*
X75764689Y-105758513D01*
X75690000Y-105751157D01*
X74090000Y-105751157D01*
X74015311Y-105758513D01*
X73943492Y-105780299D01*
X73877304Y-105815678D01*
X73819289Y-105863289D01*
X73771678Y-105921304D01*
X73736299Y-105987492D01*
X73714513Y-106059311D01*
X73707157Y-106134000D01*
X72911020Y-106134000D01*
X72911020Y-98311922D01*
X72913785Y-98283848D01*
X72902751Y-98171814D01*
X72870072Y-98064086D01*
X72817004Y-97964803D01*
X72805712Y-97951044D01*
X72745587Y-97877781D01*
X72723778Y-97859883D01*
X72252932Y-97389038D01*
X72373401Y-97365075D01*
X72581413Y-97278913D01*
X72768620Y-97153826D01*
X72927826Y-96994620D01*
X73052913Y-96807413D01*
X73139075Y-96599401D01*
X73183000Y-96378576D01*
X73183000Y-96153424D01*
X73139075Y-95932599D01*
X73052913Y-95724587D01*
X72927826Y-95537380D01*
X72768620Y-95378174D01*
X72581413Y-95253087D01*
X72373401Y-95166925D01*
X72152576Y-95123000D01*
X71927424Y-95123000D01*
X71706599Y-95166925D01*
X71498587Y-95253087D01*
X71458999Y-95279539D01*
X71458999Y-95115223D01*
X71742088Y-94832134D01*
X71927424Y-94869000D01*
X72152576Y-94869000D01*
X72373401Y-94825075D01*
X72581413Y-94738913D01*
X72768620Y-94613826D01*
X72927826Y-94454620D01*
X73052913Y-94267413D01*
X73139075Y-94059401D01*
X73163038Y-93938932D01*
X77333490Y-98109385D01*
X77333491Y-126542285D01*
X75220228Y-128655550D01*
X75006318Y-128613000D01*
X74773682Y-128613000D01*
X74545515Y-128658386D01*
X74330587Y-128747412D01*
X74137157Y-128876658D01*
X73972658Y-129041157D01*
X73843412Y-129234587D01*
X73754386Y-129449515D01*
X73709000Y-129677682D01*
X73709000Y-129910318D01*
X73754386Y-130138485D01*
X73843412Y-130353413D01*
X73972658Y-130546843D01*
X74137157Y-130711342D01*
X74330587Y-130840588D01*
X74545515Y-130929614D01*
X74773682Y-130975000D01*
X75006318Y-130975000D01*
X75234485Y-130929614D01*
X75449413Y-130840588D01*
X75642843Y-130711342D01*
X75807342Y-130546843D01*
X75936588Y-130353413D01*
X76025614Y-130138485D01*
X76071000Y-129910318D01*
X76071000Y-129677682D01*
X76028450Y-129463772D01*
X77914501Y-127577723D01*
X77914501Y-128501276D01*
X75220228Y-131195550D01*
X75006318Y-131153000D01*
X74773682Y-131153000D01*
X74545515Y-131198386D01*
X74330587Y-131287412D01*
X74137157Y-131416658D01*
X73972658Y-131581157D01*
X73843412Y-131774587D01*
X73754386Y-131989515D01*
X73709000Y-132217682D01*
X73709000Y-132450318D01*
X73754386Y-132678485D01*
X73843412Y-132893413D01*
X73972658Y-133086843D01*
X74137157Y-133251342D01*
X74330587Y-133380588D01*
X74545515Y-133469614D01*
X74773682Y-133515000D01*
X75006318Y-133515000D01*
X75234485Y-133469614D01*
X75449413Y-133380588D01*
X75642843Y-133251342D01*
X75807342Y-133086843D01*
X75936588Y-132893413D01*
X76025614Y-132678485D01*
X76071000Y-132450318D01*
X76071000Y-132217682D01*
X76028450Y-132003772D01*
X78870257Y-129161966D01*
X78892067Y-129144067D01*
X78963484Y-129057045D01*
X79016552Y-128957762D01*
X79049231Y-128850034D01*
X79057500Y-128766074D01*
X79060265Y-128738000D01*
X79057500Y-128709926D01*
X79057500Y-97660074D01*
X79060265Y-97632000D01*
X79049231Y-97519966D01*
X79016552Y-97412238D01*
X78963484Y-97312955D01*
X78960493Y-97309311D01*
X78892067Y-97225933D01*
X78870258Y-97208035D01*
X73146134Y-91483912D01*
X73183000Y-91298576D01*
X73183000Y-91073424D01*
X73139075Y-90852599D01*
X73052913Y-90644587D01*
X73026461Y-90604999D01*
X73446735Y-90604999D01*
X83429490Y-100587755D01*
X83429491Y-136336906D01*
X83426725Y-136364990D01*
X83437759Y-136477023D01*
X83470438Y-136584751D01*
X83511278Y-136661157D01*
X83523507Y-136684035D01*
X83594924Y-136771057D01*
X83616734Y-136788956D01*
X88991550Y-142163773D01*
X88949000Y-142377682D01*
X88949000Y-142610318D01*
X88994386Y-142838485D01*
X89083412Y-143053413D01*
X89212658Y-143246843D01*
X89377157Y-143411342D01*
X89570587Y-143540588D01*
X89785515Y-143629614D01*
X90013682Y-143675000D01*
X90246318Y-143675000D01*
X90474485Y-143629614D01*
X90499935Y-143619072D01*
X98798677Y-143619072D01*
X101000000Y-145820395D01*
X103201323Y-143619072D01*
X102895141Y-143175497D01*
X102307694Y-142860046D01*
X101669992Y-142665260D01*
X101006543Y-142598628D01*
X100342842Y-142662708D01*
X99704395Y-142855038D01*
X99115738Y-143168228D01*
X99104859Y-143175497D01*
X98798677Y-143619072D01*
X90499935Y-143619072D01*
X90689413Y-143540588D01*
X90882843Y-143411342D01*
X91047342Y-143246843D01*
X91176588Y-143053413D01*
X91265614Y-142838485D01*
X91311000Y-142610318D01*
X91311000Y-142377682D01*
X91265614Y-142149515D01*
X91176588Y-141934587D01*
X91047342Y-141741157D01*
X90882843Y-141576658D01*
X90689413Y-141447412D01*
X90474485Y-141358386D01*
X90246318Y-141313000D01*
X90013682Y-141313000D01*
X89799773Y-141355550D01*
X84572490Y-136128268D01*
X84572490Y-135204712D01*
X88991550Y-139623773D01*
X88949000Y-139837682D01*
X88949000Y-140070318D01*
X88994386Y-140298485D01*
X89083412Y-140513413D01*
X89212658Y-140706843D01*
X89377157Y-140871342D01*
X89570587Y-141000588D01*
X89785515Y-141089614D01*
X90013682Y-141135000D01*
X90246318Y-141135000D01*
X90474485Y-141089614D01*
X90689413Y-141000588D01*
X90882843Y-140871342D01*
X91047342Y-140706843D01*
X91176588Y-140513413D01*
X91265614Y-140298485D01*
X91311000Y-140070318D01*
X91311000Y-139837682D01*
X91265614Y-139609515D01*
X91176588Y-139394587D01*
X91047342Y-139201157D01*
X90882843Y-139036658D01*
X90689413Y-138907412D01*
X90474485Y-138818386D01*
X90246318Y-138773000D01*
X90013682Y-138773000D01*
X89799773Y-138815550D01*
X88281905Y-137297682D01*
X88949000Y-137297682D01*
X88949000Y-137530318D01*
X88994386Y-137758485D01*
X89083412Y-137973413D01*
X89212658Y-138166843D01*
X89377157Y-138331342D01*
X89570587Y-138460588D01*
X89785515Y-138549614D01*
X90013682Y-138595000D01*
X90246318Y-138595000D01*
X90474485Y-138549614D01*
X90689413Y-138460588D01*
X90882843Y-138331342D01*
X91047342Y-138166843D01*
X91176588Y-137973413D01*
X91265614Y-137758485D01*
X91288386Y-137644000D01*
X93091528Y-137644000D01*
X93113365Y-137865715D01*
X93178037Y-138078909D01*
X93283058Y-138275390D01*
X93424393Y-138447607D01*
X93596610Y-138588942D01*
X93793091Y-138693963D01*
X94006285Y-138758635D01*
X94172442Y-138775000D01*
X94803558Y-138775000D01*
X94969715Y-138758635D01*
X95182909Y-138693963D01*
X95379390Y-138588942D01*
X95551607Y-138447607D01*
X95692942Y-138275390D01*
X95797963Y-138078909D01*
X95862635Y-137865715D01*
X95884472Y-137644000D01*
X95862635Y-137422285D01*
X95797963Y-137209091D01*
X95692942Y-137012610D01*
X95551607Y-136840393D01*
X95379390Y-136699058D01*
X95182909Y-136594037D01*
X94969715Y-136529365D01*
X94803558Y-136513000D01*
X94172442Y-136513000D01*
X94006285Y-136529365D01*
X93793091Y-136594037D01*
X93596610Y-136699058D01*
X93424393Y-136840393D01*
X93283058Y-137012610D01*
X93178037Y-137209091D01*
X93113365Y-137422285D01*
X93091528Y-137644000D01*
X91288386Y-137644000D01*
X91311000Y-137530318D01*
X91311000Y-137297682D01*
X91265614Y-137069515D01*
X91176588Y-136854587D01*
X91047342Y-136661157D01*
X90882843Y-136496658D01*
X90689413Y-136367412D01*
X90474485Y-136278386D01*
X90246318Y-136233000D01*
X90013682Y-136233000D01*
X89785515Y-136278386D01*
X89570587Y-136367412D01*
X89377157Y-136496658D01*
X89212658Y-136661157D01*
X89083412Y-136854587D01*
X88994386Y-137069515D01*
X88949000Y-137297682D01*
X88281905Y-137297682D01*
X85741905Y-134757682D01*
X88949000Y-134757682D01*
X88949000Y-134990318D01*
X88994386Y-135218485D01*
X89083412Y-135433413D01*
X89212658Y-135626843D01*
X89377157Y-135791342D01*
X89570587Y-135920588D01*
X89785515Y-136009614D01*
X90013682Y-136055000D01*
X90246318Y-136055000D01*
X90474485Y-136009614D01*
X90689413Y-135920588D01*
X90882843Y-135791342D01*
X91047342Y-135626843D01*
X91176588Y-135433413D01*
X91192913Y-135394000D01*
X92839928Y-135394000D01*
X92852188Y-135518482D01*
X92888498Y-135638180D01*
X92947463Y-135748494D01*
X93026815Y-135845185D01*
X93123506Y-135924537D01*
X93233820Y-135983502D01*
X93353518Y-136019812D01*
X93478000Y-136032072D01*
X94202250Y-136029000D01*
X94361000Y-135870250D01*
X94361000Y-134771000D01*
X94615000Y-134771000D01*
X94615000Y-135870250D01*
X94773750Y-136029000D01*
X95498000Y-136032072D01*
X95622482Y-136019812D01*
X95742180Y-135983502D01*
X95788509Y-135958738D01*
X96927000Y-135958738D01*
X96927000Y-136329262D01*
X96999286Y-136692667D01*
X97141080Y-137034987D01*
X97346932Y-137343067D01*
X97608933Y-137605068D01*
X97917013Y-137810920D01*
X98259333Y-137952714D01*
X98622738Y-138025000D01*
X98993262Y-138025000D01*
X99356667Y-137952714D01*
X99698987Y-137810920D01*
X100007067Y-137605068D01*
X100269068Y-137343067D01*
X100474920Y-137034987D01*
X100616714Y-136692667D01*
X100689000Y-136329262D01*
X100689000Y-135958738D01*
X100616714Y-135595333D01*
X100474920Y-135253013D01*
X100269068Y-134944933D01*
X100007067Y-134682932D01*
X99698987Y-134477080D01*
X99356667Y-134335286D01*
X98993262Y-134263000D01*
X98622738Y-134263000D01*
X98259333Y-134335286D01*
X97917013Y-134477080D01*
X97608933Y-134682932D01*
X97346932Y-134944933D01*
X97141080Y-135253013D01*
X96999286Y-135595333D01*
X96927000Y-135958738D01*
X95788509Y-135958738D01*
X95852494Y-135924537D01*
X95949185Y-135845185D01*
X96028537Y-135748494D01*
X96087502Y-135638180D01*
X96123812Y-135518482D01*
X96136072Y-135394000D01*
X96133000Y-134929750D01*
X95974250Y-134771000D01*
X94615000Y-134771000D01*
X94361000Y-134771000D01*
X93001750Y-134771000D01*
X92843000Y-134929750D01*
X92839928Y-135394000D01*
X91192913Y-135394000D01*
X91265614Y-135218485D01*
X91311000Y-134990318D01*
X91311000Y-134757682D01*
X91265614Y-134529515D01*
X91176588Y-134314587D01*
X91047342Y-134121157D01*
X90882843Y-133956658D01*
X90789069Y-133894000D01*
X92839928Y-133894000D01*
X92843000Y-134358250D01*
X93001750Y-134517000D01*
X94361000Y-134517000D01*
X94361000Y-133417750D01*
X94615000Y-133417750D01*
X94615000Y-134517000D01*
X95974250Y-134517000D01*
X96133000Y-134358250D01*
X96136072Y-133894000D01*
X96123812Y-133769518D01*
X96087502Y-133649820D01*
X96028537Y-133539506D01*
X95949185Y-133442815D01*
X95852494Y-133363463D01*
X95742180Y-133304498D01*
X95622482Y-133268188D01*
X95498000Y-133255928D01*
X94773750Y-133259000D01*
X94615000Y-133417750D01*
X94361000Y-133417750D01*
X94202250Y-133259000D01*
X93478000Y-133255928D01*
X93353518Y-133268188D01*
X93233820Y-133304498D01*
X93123506Y-133363463D01*
X93026815Y-133442815D01*
X92947463Y-133539506D01*
X92888498Y-133649820D01*
X92852188Y-133769518D01*
X92839928Y-133894000D01*
X90789069Y-133894000D01*
X90689413Y-133827412D01*
X90474485Y-133738386D01*
X90246318Y-133693000D01*
X90013682Y-133693000D01*
X89785515Y-133738386D01*
X89570587Y-133827412D01*
X89377157Y-133956658D01*
X89212658Y-134121157D01*
X89083412Y-134314587D01*
X88994386Y-134529515D01*
X88949000Y-134757682D01*
X85741905Y-134757682D01*
X85153500Y-134169278D01*
X85153500Y-132217682D01*
X88949000Y-132217682D01*
X88949000Y-132450318D01*
X88994386Y-132678485D01*
X89083412Y-132893413D01*
X89212658Y-133086843D01*
X89377157Y-133251342D01*
X89570587Y-133380588D01*
X89785515Y-133469614D01*
X90013682Y-133515000D01*
X90246318Y-133515000D01*
X90474485Y-133469614D01*
X90689413Y-133380588D01*
X90882843Y-133251342D01*
X91047342Y-133086843D01*
X91176588Y-132893413D01*
X91265614Y-132678485D01*
X91311000Y-132450318D01*
X91311000Y-132217682D01*
X91265614Y-131989515D01*
X91176588Y-131774587D01*
X91047342Y-131581157D01*
X90882843Y-131416658D01*
X90689413Y-131287412D01*
X90474485Y-131198386D01*
X90246318Y-131153000D01*
X90013682Y-131153000D01*
X89785515Y-131198386D01*
X89570587Y-131287412D01*
X89377157Y-131416658D01*
X89212658Y-131581157D01*
X89083412Y-131774587D01*
X88994386Y-131989515D01*
X88949000Y-132217682D01*
X85153500Y-132217682D01*
X85153500Y-129677682D01*
X88949000Y-129677682D01*
X88949000Y-129910318D01*
X88994386Y-130138485D01*
X89083412Y-130353413D01*
X89212658Y-130546843D01*
X89377157Y-130711342D01*
X89570587Y-130840588D01*
X89785515Y-130929614D01*
X90013682Y-130975000D01*
X90246318Y-130975000D01*
X90474485Y-130929614D01*
X90689413Y-130840588D01*
X90882843Y-130711342D01*
X91047342Y-130546843D01*
X91176588Y-130353413D01*
X91265614Y-130138485D01*
X91311000Y-129910318D01*
X91311000Y-129677682D01*
X91265614Y-129449515D01*
X91176588Y-129234587D01*
X91047342Y-129041157D01*
X90882843Y-128876658D01*
X90689413Y-128747412D01*
X90474485Y-128658386D01*
X90246318Y-128613000D01*
X90013682Y-128613000D01*
X89785515Y-128658386D01*
X89570587Y-128747412D01*
X89377157Y-128876658D01*
X89212658Y-129041157D01*
X89083412Y-129234587D01*
X88994386Y-129449515D01*
X88949000Y-129677682D01*
X85153500Y-129677682D01*
X85153500Y-127137682D01*
X88949000Y-127137682D01*
X88949000Y-127370318D01*
X88994386Y-127598485D01*
X89083412Y-127813413D01*
X89212658Y-128006843D01*
X89377157Y-128171342D01*
X89570587Y-128300588D01*
X89785515Y-128389614D01*
X90013682Y-128435000D01*
X90246318Y-128435000D01*
X90474485Y-128389614D01*
X90689413Y-128300588D01*
X90882843Y-128171342D01*
X91047342Y-128006843D01*
X91176588Y-127813413D01*
X91265614Y-127598485D01*
X91311000Y-127370318D01*
X91311000Y-127137682D01*
X91265614Y-126909515D01*
X91176588Y-126694587D01*
X91047342Y-126501157D01*
X90882843Y-126336658D01*
X90689413Y-126207412D01*
X90474485Y-126118386D01*
X90246318Y-126073000D01*
X90013682Y-126073000D01*
X89785515Y-126118386D01*
X89570587Y-126207412D01*
X89377157Y-126336658D01*
X89212658Y-126501157D01*
X89083412Y-126694587D01*
X88994386Y-126909515D01*
X88949000Y-127137682D01*
X85153500Y-127137682D01*
X85153500Y-124597682D01*
X88949000Y-124597682D01*
X88949000Y-124830318D01*
X88994386Y-125058485D01*
X89083412Y-125273413D01*
X89212658Y-125466843D01*
X89377157Y-125631342D01*
X89570587Y-125760588D01*
X89785515Y-125849614D01*
X90013682Y-125895000D01*
X90246318Y-125895000D01*
X90474485Y-125849614D01*
X90689413Y-125760588D01*
X90882843Y-125631342D01*
X91047342Y-125466843D01*
X91176588Y-125273413D01*
X91265614Y-125058485D01*
X91311000Y-124830318D01*
X91311000Y-124597682D01*
X91265614Y-124369515D01*
X91176588Y-124154587D01*
X91047342Y-123961157D01*
X90882843Y-123796658D01*
X90689413Y-123667412D01*
X90474485Y-123578386D01*
X90246318Y-123533000D01*
X90013682Y-123533000D01*
X89785515Y-123578386D01*
X89570587Y-123667412D01*
X89377157Y-123796658D01*
X89212658Y-123961157D01*
X89083412Y-124154587D01*
X88994386Y-124369515D01*
X88949000Y-124597682D01*
X85153500Y-124597682D01*
X85153500Y-122057682D01*
X88949000Y-122057682D01*
X88949000Y-122290318D01*
X88994386Y-122518485D01*
X89083412Y-122733413D01*
X89212658Y-122926843D01*
X89377157Y-123091342D01*
X89570587Y-123220588D01*
X89785515Y-123309614D01*
X90013682Y-123355000D01*
X90246318Y-123355000D01*
X90474485Y-123309614D01*
X90689413Y-123220588D01*
X90882843Y-123091342D01*
X91047342Y-122926843D01*
X91176588Y-122733413D01*
X91265614Y-122518485D01*
X91311000Y-122290318D01*
X91311000Y-122057682D01*
X91265614Y-121829515D01*
X91176588Y-121614587D01*
X91047342Y-121421157D01*
X90882843Y-121256658D01*
X90689413Y-121127412D01*
X90474485Y-121038386D01*
X90246318Y-120993000D01*
X90013682Y-120993000D01*
X89785515Y-121038386D01*
X89570587Y-121127412D01*
X89377157Y-121256658D01*
X89212658Y-121421157D01*
X89083412Y-121614587D01*
X88994386Y-121829515D01*
X88949000Y-122057682D01*
X85153500Y-122057682D01*
X85153500Y-119517682D01*
X88949000Y-119517682D01*
X88949000Y-119750318D01*
X88994386Y-119978485D01*
X89083412Y-120193413D01*
X89212658Y-120386843D01*
X89377157Y-120551342D01*
X89570587Y-120680588D01*
X89785515Y-120769614D01*
X90013682Y-120815000D01*
X90246318Y-120815000D01*
X90474485Y-120769614D01*
X90689413Y-120680588D01*
X90882843Y-120551342D01*
X91047342Y-120386843D01*
X91176588Y-120193413D01*
X91265614Y-119978485D01*
X91311000Y-119750318D01*
X91311000Y-119517682D01*
X91265614Y-119289515D01*
X91176588Y-119074587D01*
X91047342Y-118881157D01*
X90882843Y-118716658D01*
X90689413Y-118587412D01*
X90474485Y-118498386D01*
X90246318Y-118453000D01*
X90013682Y-118453000D01*
X89785515Y-118498386D01*
X89570587Y-118587412D01*
X89377157Y-118716658D01*
X89212658Y-118881157D01*
X89083412Y-119074587D01*
X88994386Y-119289515D01*
X88949000Y-119517682D01*
X85153500Y-119517682D01*
X85153500Y-116977682D01*
X88949000Y-116977682D01*
X88949000Y-117210318D01*
X88994386Y-117438485D01*
X89083412Y-117653413D01*
X89212658Y-117846843D01*
X89377157Y-118011342D01*
X89570587Y-118140588D01*
X89785515Y-118229614D01*
X90013682Y-118275000D01*
X90246318Y-118275000D01*
X90474485Y-118229614D01*
X90689413Y-118140588D01*
X90882843Y-118011342D01*
X91047342Y-117846843D01*
X91176588Y-117653413D01*
X91265614Y-117438485D01*
X91311000Y-117210318D01*
X91311000Y-116977682D01*
X91265614Y-116749515D01*
X91176588Y-116534587D01*
X91047342Y-116341157D01*
X90882843Y-116176658D01*
X90689413Y-116047412D01*
X90474485Y-115958386D01*
X90246318Y-115913000D01*
X90013682Y-115913000D01*
X89785515Y-115958386D01*
X89570587Y-116047412D01*
X89377157Y-116176658D01*
X89212658Y-116341157D01*
X89083412Y-116534587D01*
X88994386Y-116749515D01*
X88949000Y-116977682D01*
X85153500Y-116977682D01*
X85153500Y-114437682D01*
X88949000Y-114437682D01*
X88949000Y-114670318D01*
X88994386Y-114898485D01*
X89083412Y-115113413D01*
X89212658Y-115306843D01*
X89377157Y-115471342D01*
X89570587Y-115600588D01*
X89785515Y-115689614D01*
X90013682Y-115735000D01*
X90246318Y-115735000D01*
X90474485Y-115689614D01*
X90689413Y-115600588D01*
X90882843Y-115471342D01*
X91047342Y-115306843D01*
X91176588Y-115113413D01*
X91265614Y-114898485D01*
X91311000Y-114670318D01*
X91311000Y-114437682D01*
X91265614Y-114209515D01*
X91176588Y-113994587D01*
X91047342Y-113801157D01*
X90882843Y-113636658D01*
X90689413Y-113507412D01*
X90474485Y-113418386D01*
X90246318Y-113373000D01*
X90013682Y-113373000D01*
X89785515Y-113418386D01*
X89570587Y-113507412D01*
X89377157Y-113636658D01*
X89212658Y-113801157D01*
X89083412Y-113994587D01*
X88994386Y-114209515D01*
X88949000Y-114437682D01*
X85153500Y-114437682D01*
X85153500Y-109823039D01*
X88738096Y-109823039D01*
X88778754Y-109957087D01*
X88898963Y-110211420D01*
X89066481Y-110437414D01*
X89274869Y-110626385D01*
X89516119Y-110771070D01*
X89780960Y-110865909D01*
X90002998Y-110744625D01*
X90002998Y-110835125D01*
X89785515Y-110878386D01*
X89570587Y-110967412D01*
X89377157Y-111096658D01*
X89212658Y-111261157D01*
X89083412Y-111454587D01*
X88994386Y-111669515D01*
X88949000Y-111897682D01*
X88949000Y-112130318D01*
X88994386Y-112358485D01*
X89083412Y-112573413D01*
X89212658Y-112766843D01*
X89377157Y-112931342D01*
X89570587Y-113060588D01*
X89785515Y-113149614D01*
X90013682Y-113195000D01*
X90246318Y-113195000D01*
X90474485Y-113149614D01*
X90689413Y-113060588D01*
X90882843Y-112931342D01*
X91047342Y-112766843D01*
X91176588Y-112573413D01*
X91265614Y-112358485D01*
X91311000Y-112130318D01*
X91311000Y-111897682D01*
X91265614Y-111669515D01*
X91176588Y-111454587D01*
X91047342Y-111261157D01*
X90882843Y-111096658D01*
X90689413Y-110967412D01*
X90474485Y-110878386D01*
X90257002Y-110835125D01*
X90257002Y-110744625D01*
X90479040Y-110865909D01*
X90743881Y-110771070D01*
X90985131Y-110626385D01*
X91193519Y-110437414D01*
X91361037Y-110211420D01*
X91481246Y-109957087D01*
X91521904Y-109823039D01*
X91451010Y-109694000D01*
X93091528Y-109694000D01*
X93113365Y-109915715D01*
X93178037Y-110128909D01*
X93283058Y-110325390D01*
X93424393Y-110497607D01*
X93596610Y-110638942D01*
X93793091Y-110743963D01*
X94006285Y-110808635D01*
X94172442Y-110825000D01*
X94803558Y-110825000D01*
X94969715Y-110808635D01*
X95182909Y-110743963D01*
X95379390Y-110638942D01*
X95551607Y-110497607D01*
X95692942Y-110325390D01*
X95797963Y-110128909D01*
X95862635Y-109915715D01*
X95884472Y-109694000D01*
X95862635Y-109472285D01*
X95797963Y-109259091D01*
X95692942Y-109062610D01*
X95551607Y-108890393D01*
X95379390Y-108749058D01*
X95182909Y-108644037D01*
X94969715Y-108579365D01*
X94803558Y-108563000D01*
X94172442Y-108563000D01*
X94006285Y-108579365D01*
X93793091Y-108644037D01*
X93596610Y-108749058D01*
X93424393Y-108890393D01*
X93283058Y-109062610D01*
X93178037Y-109259091D01*
X93113365Y-109472285D01*
X93091528Y-109694000D01*
X91451010Y-109694000D01*
X91399915Y-109601000D01*
X90257000Y-109601000D01*
X90257000Y-109621000D01*
X90003000Y-109621000D01*
X90003000Y-109601000D01*
X88860085Y-109601000D01*
X88738096Y-109823039D01*
X85153500Y-109823039D01*
X85153500Y-109124961D01*
X88738096Y-109124961D01*
X88860085Y-109347000D01*
X90003000Y-109347000D01*
X90003000Y-109327000D01*
X90257000Y-109327000D01*
X90257000Y-109347000D01*
X91399915Y-109347000D01*
X91521904Y-109124961D01*
X91481246Y-108990913D01*
X91361037Y-108736580D01*
X91193519Y-108510586D01*
X90985131Y-108321615D01*
X90743881Y-108176930D01*
X90479040Y-108082091D01*
X90257002Y-108203375D01*
X90257002Y-108112875D01*
X90474485Y-108069614D01*
X90689413Y-107980588D01*
X90882843Y-107851342D01*
X91047342Y-107686843D01*
X91176588Y-107493413D01*
X91197055Y-107444000D01*
X92839928Y-107444000D01*
X92852188Y-107568482D01*
X92888498Y-107688180D01*
X92947463Y-107798494D01*
X93026815Y-107895185D01*
X93123506Y-107974537D01*
X93233820Y-108033502D01*
X93353518Y-108069812D01*
X93478000Y-108082072D01*
X94202250Y-108079000D01*
X94361000Y-107920250D01*
X94361000Y-106821000D01*
X94615000Y-106821000D01*
X94615000Y-107920250D01*
X94773750Y-108079000D01*
X95498000Y-108082072D01*
X95622482Y-108069812D01*
X95742180Y-108033502D01*
X95788509Y-108008738D01*
X96927000Y-108008738D01*
X96927000Y-108379262D01*
X96999286Y-108742667D01*
X97141080Y-109084987D01*
X97346932Y-109393067D01*
X97608933Y-109655068D01*
X97917013Y-109860920D01*
X98259333Y-110002714D01*
X98622738Y-110075000D01*
X98993262Y-110075000D01*
X99356667Y-110002714D01*
X99698987Y-109860920D01*
X100007067Y-109655068D01*
X100269068Y-109393067D01*
X100474920Y-109084987D01*
X100616714Y-108742667D01*
X100689000Y-108379262D01*
X100689000Y-108008738D01*
X100616714Y-107645333D01*
X100474920Y-107303013D01*
X100269068Y-106994933D01*
X100007067Y-106732932D01*
X99698987Y-106527080D01*
X99356667Y-106385286D01*
X98993262Y-106313000D01*
X98622738Y-106313000D01*
X98259333Y-106385286D01*
X97917013Y-106527080D01*
X97608933Y-106732932D01*
X97346932Y-106994933D01*
X97141080Y-107303013D01*
X96999286Y-107645333D01*
X96927000Y-108008738D01*
X95788509Y-108008738D01*
X95852494Y-107974537D01*
X95949185Y-107895185D01*
X96028537Y-107798494D01*
X96087502Y-107688180D01*
X96123812Y-107568482D01*
X96136072Y-107444000D01*
X96133000Y-106979750D01*
X95974250Y-106821000D01*
X94615000Y-106821000D01*
X94361000Y-106821000D01*
X93001750Y-106821000D01*
X92843000Y-106979750D01*
X92839928Y-107444000D01*
X91197055Y-107444000D01*
X91265614Y-107278485D01*
X91311000Y-107050318D01*
X91311000Y-106817682D01*
X91265614Y-106589515D01*
X91176588Y-106374587D01*
X91047342Y-106181157D01*
X90882843Y-106016658D01*
X90774103Y-105944000D01*
X92839928Y-105944000D01*
X92843000Y-106408250D01*
X93001750Y-106567000D01*
X94361000Y-106567000D01*
X94361000Y-105467750D01*
X94615000Y-105467750D01*
X94615000Y-106567000D01*
X95974250Y-106567000D01*
X96133000Y-106408250D01*
X96136072Y-105944000D01*
X96123812Y-105819518D01*
X96087502Y-105699820D01*
X96028537Y-105589506D01*
X95949185Y-105492815D01*
X95852494Y-105413463D01*
X95742180Y-105354498D01*
X95622482Y-105318188D01*
X95498000Y-105305928D01*
X94773750Y-105309000D01*
X94615000Y-105467750D01*
X94361000Y-105467750D01*
X94202250Y-105309000D01*
X93478000Y-105305928D01*
X93353518Y-105318188D01*
X93233820Y-105354498D01*
X93123506Y-105413463D01*
X93026815Y-105492815D01*
X92947463Y-105589506D01*
X92888498Y-105699820D01*
X92852188Y-105819518D01*
X92839928Y-105944000D01*
X90774103Y-105944000D01*
X90689413Y-105887412D01*
X90474485Y-105798386D01*
X90246318Y-105753000D01*
X90013682Y-105753000D01*
X89785515Y-105798386D01*
X89570587Y-105887412D01*
X89377157Y-106016658D01*
X89212658Y-106181157D01*
X89083412Y-106374587D01*
X88994386Y-106589515D01*
X88949000Y-106817682D01*
X88949000Y-107050318D01*
X88994386Y-107278485D01*
X89083412Y-107493413D01*
X89212658Y-107686843D01*
X89377157Y-107851342D01*
X89570587Y-107980588D01*
X89785515Y-108069614D01*
X90002998Y-108112875D01*
X90002998Y-108203375D01*
X89780960Y-108082091D01*
X89516119Y-108176930D01*
X89274869Y-108321615D01*
X89066481Y-108510586D01*
X88898963Y-108736580D01*
X88778754Y-108990913D01*
X88738096Y-109124961D01*
X85153500Y-109124961D01*
X85153500Y-100138444D01*
X85156265Y-100110370D01*
X85145231Y-99998337D01*
X85112552Y-99890608D01*
X85059484Y-99791325D01*
X85056592Y-99787801D01*
X84988067Y-99704303D01*
X84966258Y-99686405D01*
X76660781Y-91380928D01*
X98798677Y-91380928D01*
X99104859Y-91824503D01*
X99692306Y-92139954D01*
X100330008Y-92334740D01*
X100993457Y-92401372D01*
X101657158Y-92337292D01*
X102295605Y-92144962D01*
X102884262Y-91831772D01*
X102895141Y-91824503D01*
X103201323Y-91380928D01*
X101000000Y-89179605D01*
X98798677Y-91380928D01*
X76660781Y-91380928D01*
X74273310Y-88993457D01*
X97598628Y-88993457D01*
X97662708Y-89657158D01*
X97855038Y-90295605D01*
X98168228Y-90884262D01*
X98175497Y-90895141D01*
X98619072Y-91201323D01*
X100820395Y-89000000D01*
X101179605Y-89000000D01*
X103380928Y-91201323D01*
X103824503Y-90895141D01*
X104139954Y-90307694D01*
X104334740Y-89669992D01*
X104401372Y-89006543D01*
X104337292Y-88342842D01*
X104144962Y-87704395D01*
X103831772Y-87115738D01*
X103824503Y-87104859D01*
X103380928Y-86798677D01*
X101179605Y-89000000D01*
X100820395Y-89000000D01*
X98619072Y-86798677D01*
X98175497Y-87104859D01*
X97860046Y-87692306D01*
X97665260Y-88330008D01*
X97598628Y-88993457D01*
X74273310Y-88993457D01*
X73541600Y-88261748D01*
X73523697Y-88239933D01*
X73436675Y-88168516D01*
X73337392Y-88115448D01*
X73229664Y-88082769D01*
X73145704Y-88074500D01*
X73117630Y-88071735D01*
X73089556Y-88074500D01*
X73032810Y-88074500D01*
X72927826Y-87917380D01*
X72768620Y-87758174D01*
X72581413Y-87633087D01*
X72373401Y-87546925D01*
X72152576Y-87503000D01*
X71927424Y-87503000D01*
X71706599Y-87546925D01*
X71498587Y-87633087D01*
X71311380Y-87758174D01*
X71152174Y-87917380D01*
X71027087Y-88104587D01*
X70940925Y-88312599D01*
X70897000Y-88533424D01*
X70897000Y-88758576D01*
X70940925Y-88979401D01*
X71027087Y-89187413D01*
X71152174Y-89374620D01*
X71239553Y-89461999D01*
X70894754Y-89461999D01*
X70900072Y-89408000D01*
X70897000Y-88931750D01*
X70738250Y-88773000D01*
X69627000Y-88773000D01*
X69627000Y-88793000D01*
X69373000Y-88793000D01*
X69373000Y-88773000D01*
X68261750Y-88773000D01*
X68103000Y-88931750D01*
X68099928Y-89408000D01*
X68112188Y-89532482D01*
X68124136Y-89571870D01*
X68056434Y-89627432D01*
X68038535Y-89649242D01*
X66925744Y-90762034D01*
X66903934Y-90779933D01*
X66853118Y-90841852D01*
X67139954Y-90307694D01*
X67334740Y-89669992D01*
X67401372Y-89006543D01*
X67337292Y-88342842D01*
X67199068Y-87884000D01*
X68099928Y-87884000D01*
X68103000Y-88360250D01*
X68261750Y-88519000D01*
X69373000Y-88519000D01*
X69373000Y-87407750D01*
X69627000Y-87407750D01*
X69627000Y-88519000D01*
X70738250Y-88519000D01*
X70897000Y-88360250D01*
X70900072Y-87884000D01*
X70887812Y-87759518D01*
X70851502Y-87639820D01*
X70792537Y-87529506D01*
X70713185Y-87432815D01*
X70616494Y-87353463D01*
X70506180Y-87294498D01*
X70386482Y-87258188D01*
X70262000Y-87245928D01*
X69785750Y-87249000D01*
X69627000Y-87407750D01*
X69373000Y-87407750D01*
X69214250Y-87249000D01*
X68738000Y-87245928D01*
X68613518Y-87258188D01*
X68493820Y-87294498D01*
X68383506Y-87353463D01*
X68286815Y-87432815D01*
X68207463Y-87529506D01*
X68148498Y-87639820D01*
X68112188Y-87759518D01*
X68099928Y-87884000D01*
X67199068Y-87884000D01*
X67144962Y-87704395D01*
X66831772Y-87115738D01*
X66824503Y-87104859D01*
X66380928Y-86798677D01*
X64179605Y-89000000D01*
X63820395Y-89000000D01*
X61619072Y-86798677D01*
X61175497Y-87104859D01*
X60860046Y-87692306D01*
X60665260Y-88330008D01*
X60598628Y-88993457D01*
X60406000Y-88993457D01*
X60406000Y-86619072D01*
X61798677Y-86619072D01*
X64000000Y-88820395D01*
X66201323Y-86619072D01*
X98798677Y-86619072D01*
X101000000Y-88820395D01*
X103201323Y-86619072D01*
X102895141Y-86175497D01*
X102307694Y-85860046D01*
X101669992Y-85665260D01*
X101006543Y-85598628D01*
X100342842Y-85662708D01*
X99704395Y-85855038D01*
X99115738Y-86168228D01*
X99104859Y-86175497D01*
X98798677Y-86619072D01*
X66201323Y-86619072D01*
X65895141Y-86175497D01*
X65307694Y-85860046D01*
X64669992Y-85665260D01*
X64006543Y-85598628D01*
X63342842Y-85662708D01*
X62704395Y-85855038D01*
X62115738Y-86168228D01*
X62104859Y-86175497D01*
X61798677Y-86619072D01*
X60406000Y-86619072D01*
X60406000Y-85406000D01*
X104594001Y-85406000D01*
X104594000Y-149594000D01*
G37*
X104594000Y-149594000D02*
X60406000Y-149594000D01*
X60406000Y-148380928D01*
X61798677Y-148380928D01*
X62104859Y-148824503D01*
X62692306Y-149139954D01*
X63330008Y-149334740D01*
X63993457Y-149401372D01*
X64657158Y-149337292D01*
X65295605Y-149144962D01*
X65884262Y-148831772D01*
X65895141Y-148824503D01*
X66201323Y-148380928D01*
X98798677Y-148380928D01*
X99104859Y-148824503D01*
X99692306Y-149139954D01*
X100330008Y-149334740D01*
X100993457Y-149401372D01*
X101657158Y-149337292D01*
X102295605Y-149144962D01*
X102884262Y-148831772D01*
X102895141Y-148824503D01*
X103201323Y-148380928D01*
X101000000Y-146179605D01*
X98798677Y-148380928D01*
X66201323Y-148380928D01*
X64000000Y-146179605D01*
X61798677Y-148380928D01*
X60406000Y-148380928D01*
X60406000Y-145993457D01*
X60598628Y-145993457D01*
X60662708Y-146657158D01*
X60855038Y-147295605D01*
X61168228Y-147884262D01*
X61175497Y-147895141D01*
X61619072Y-148201323D01*
X63820395Y-146000000D01*
X64179605Y-146000000D01*
X66380928Y-148201323D01*
X66824503Y-147895141D01*
X67139954Y-147307694D01*
X67334740Y-146669992D01*
X67401372Y-146006543D01*
X67400109Y-145993457D01*
X97598628Y-145993457D01*
X97662708Y-146657158D01*
X97855038Y-147295605D01*
X98168228Y-147884262D01*
X98175497Y-147895141D01*
X98619072Y-148201323D01*
X100820395Y-146000000D01*
X101179605Y-146000000D01*
X103380928Y-148201323D01*
X103824503Y-147895141D01*
X104139954Y-147307694D01*
X104334740Y-146669992D01*
X104401372Y-146006543D01*
X104337292Y-145342842D01*
X104144962Y-144704395D01*
X103831772Y-144115738D01*
X103824503Y-144104859D01*
X103380928Y-143798677D01*
X101179605Y-146000000D01*
X100820395Y-146000000D01*
X98619072Y-143798677D01*
X98175497Y-144104859D01*
X97860046Y-144692306D01*
X97665260Y-145330008D01*
X97598628Y-145993457D01*
X67400109Y-145993457D01*
X67337292Y-145342842D01*
X67144962Y-144704395D01*
X66831772Y-144115738D01*
X66824503Y-144104859D01*
X66380928Y-143798677D01*
X64179605Y-146000000D01*
X63820395Y-146000000D01*
X61619072Y-143798677D01*
X61175497Y-144104859D01*
X60860046Y-144692306D01*
X60665260Y-145330008D01*
X60598628Y-145993457D01*
X60406000Y-145993457D01*
X60406000Y-143619072D01*
X61798677Y-143619072D01*
X64000000Y-145820395D01*
X66201323Y-143619072D01*
X65895141Y-143175497D01*
X65307694Y-142860046D01*
X64669992Y-142665260D01*
X64006543Y-142598628D01*
X63342842Y-142662708D01*
X62704395Y-142855038D01*
X62115738Y-143168228D01*
X62104859Y-143175497D01*
X61798677Y-143619072D01*
X60406000Y-143619072D01*
X60406000Y-131234000D01*
X68709928Y-131234000D01*
X68722188Y-131358482D01*
X68758498Y-131478180D01*
X68817463Y-131588494D01*
X68896815Y-131685185D01*
X68993506Y-131764537D01*
X69103820Y-131823502D01*
X69223518Y-131859812D01*
X69348000Y-131872072D01*
X70072250Y-131869000D01*
X70231000Y-131710250D01*
X70231000Y-130611000D01*
X68871750Y-130611000D01*
X68713000Y-130769750D01*
X68709928Y-131234000D01*
X60406000Y-131234000D01*
X60406000Y-128148738D01*
X64157000Y-128148738D01*
X64157000Y-128519262D01*
X64229286Y-128882667D01*
X64371080Y-129224987D01*
X64576932Y-129533067D01*
X64838933Y-129795068D01*
X65147013Y-130000920D01*
X65489333Y-130142714D01*
X65852738Y-130215000D01*
X66223262Y-130215000D01*
X66586667Y-130142714D01*
X66928987Y-130000920D01*
X67237067Y-129795068D01*
X67298135Y-129734000D01*
X68709928Y-129734000D01*
X68713000Y-130198250D01*
X68871750Y-130357000D01*
X70231000Y-130357000D01*
X70231000Y-129257750D01*
X70072250Y-129099000D01*
X69348000Y-129095928D01*
X69223518Y-129108188D01*
X69103820Y-129144498D01*
X68993506Y-129203463D01*
X68896815Y-129282815D01*
X68817463Y-129379506D01*
X68758498Y-129489820D01*
X68722188Y-129609518D01*
X68709928Y-129734000D01*
X67298135Y-129734000D01*
X67499068Y-129533067D01*
X67704920Y-129224987D01*
X67846714Y-128882667D01*
X67919000Y-128519262D01*
X67919000Y-128148738D01*
X67846714Y-127785333D01*
X67704920Y-127443013D01*
X67499068Y-127134933D01*
X67237067Y-126872932D01*
X66928987Y-126667080D01*
X66586667Y-126525286D01*
X66223262Y-126453000D01*
X65852738Y-126453000D01*
X65489333Y-126525286D01*
X65147013Y-126667080D01*
X64838933Y-126872932D01*
X64576932Y-127134933D01*
X64371080Y-127443013D01*
X64229286Y-127785333D01*
X64157000Y-128148738D01*
X60406000Y-128148738D01*
X60406000Y-123448738D01*
X64157000Y-123448738D01*
X64157000Y-123819262D01*
X64229286Y-124182667D01*
X64371080Y-124524987D01*
X64576932Y-124833067D01*
X64838933Y-125095068D01*
X65147013Y-125300920D01*
X65489333Y-125442714D01*
X65852738Y-125515000D01*
X66223262Y-125515000D01*
X66586667Y-125442714D01*
X66928987Y-125300920D01*
X67237067Y-125095068D01*
X67499068Y-124833067D01*
X67504334Y-124825185D01*
X68755682Y-124825185D01*
X68769827Y-124896684D01*
X68875858Y-125147868D01*
X69028855Y-125373540D01*
X69222939Y-125565028D01*
X69450651Y-125714972D01*
X69703240Y-125817611D01*
X69971000Y-125869000D01*
X70231000Y-125869000D01*
X70231000Y-124611000D01*
X68878344Y-124611000D01*
X68755682Y-124825185D01*
X67504334Y-124825185D01*
X67704920Y-124524987D01*
X67846714Y-124182667D01*
X67854641Y-124142815D01*
X68755682Y-124142815D01*
X68878344Y-124357000D01*
X70231000Y-124357000D01*
X70231000Y-123099000D01*
X69971000Y-123099000D01*
X69703240Y-123150389D01*
X69450651Y-123253028D01*
X69222939Y-123402972D01*
X69028855Y-123594460D01*
X68875858Y-123820132D01*
X68769827Y-124071316D01*
X68755682Y-124142815D01*
X67854641Y-124142815D01*
X67919000Y-123819262D01*
X67919000Y-123448738D01*
X67846714Y-123085333D01*
X67704920Y-122743013D01*
X67499068Y-122434933D01*
X67237067Y-122172932D01*
X66928987Y-121967080D01*
X66586667Y-121825286D01*
X66223262Y-121753000D01*
X65852738Y-121753000D01*
X65489333Y-121825286D01*
X65147013Y-121967080D01*
X64838933Y-122172932D01*
X64576932Y-122434933D01*
X64371080Y-122743013D01*
X64229286Y-123085333D01*
X64157000Y-123448738D01*
X60406000Y-123448738D01*
X60406000Y-91380928D01*
X61798677Y-91380928D01*
X62104859Y-91824503D01*
X62692306Y-92139954D01*
X63330008Y-92334740D01*
X63993457Y-92401372D01*
X64657158Y-92337292D01*
X65295605Y-92144962D01*
X65884262Y-91831772D01*
X65895141Y-91824503D01*
X66201323Y-91380928D01*
X64000000Y-89179605D01*
X61798677Y-91380928D01*
X60406000Y-91380928D01*
X60406000Y-88993457D01*
X60598628Y-88993457D01*
X60662708Y-89657158D01*
X60855038Y-90295605D01*
X61168228Y-90884262D01*
X61175497Y-90895141D01*
X61619072Y-91201323D01*
X63820395Y-89000000D01*
X64179605Y-89000000D01*
X66380928Y-91201323D01*
X66813328Y-90902855D01*
X66779448Y-90966239D01*
X66746769Y-91073967D01*
X66735735Y-91186000D01*
X66738501Y-91214084D01*
X66738500Y-92585555D01*
X66735735Y-92613630D01*
X66738500Y-92641703D01*
X66746769Y-92725663D01*
X66779448Y-92833391D01*
X66832516Y-92932674D01*
X66903933Y-93019697D01*
X66925748Y-93037600D01*
X67998406Y-94110260D01*
X68016303Y-94132067D01*
X68038107Y-94149961D01*
X68038109Y-94149963D01*
X68103325Y-94203484D01*
X68202608Y-94256552D01*
X68310336Y-94289231D01*
X68422370Y-94300265D01*
X68450444Y-94297500D01*
X68507190Y-94297500D01*
X68612174Y-94454620D01*
X68771380Y-94613826D01*
X68958587Y-94738913D01*
X69166599Y-94825075D01*
X69387424Y-94869000D01*
X69612576Y-94869000D01*
X69833401Y-94825075D01*
X70041413Y-94738913D01*
X70228620Y-94613826D01*
X70387826Y-94454620D01*
X70512913Y-94267413D01*
X70599075Y-94059401D01*
X70643000Y-93838576D01*
X70643000Y-93613424D01*
X70599075Y-93392599D01*
X70512913Y-93184587D01*
X70387826Y-92997380D01*
X70228620Y-92838174D01*
X70041413Y-92713087D01*
X69833401Y-92626925D01*
X69612576Y-92583000D01*
X69387424Y-92583000D01*
X69166599Y-92626925D01*
X68958587Y-92713087D01*
X68771380Y-92838174D01*
X68612174Y-92997380D01*
X68568034Y-93063441D01*
X67881500Y-92376908D01*
X67881500Y-91422722D01*
X68388336Y-90915886D01*
X68357000Y-91073424D01*
X68357000Y-91298576D01*
X68400925Y-91519401D01*
X68487087Y-91727413D01*
X68612174Y-91914620D01*
X68771380Y-92073826D01*
X68958587Y-92198913D01*
X69166599Y-92285075D01*
X69387424Y-92329000D01*
X69612576Y-92329000D01*
X69797912Y-92292134D01*
X70463533Y-92957756D01*
X70481432Y-92979566D01*
X70530332Y-93019697D01*
X70568454Y-93050983D01*
X70667737Y-93104051D01*
X70775465Y-93136730D01*
X70887499Y-93147764D01*
X70915573Y-93144999D01*
X71053539Y-93144999D01*
X71027087Y-93184587D01*
X70940925Y-93392599D01*
X70897000Y-93613424D01*
X70897000Y-93838576D01*
X70933866Y-94023912D01*
X70503247Y-94454531D01*
X70481432Y-94472434D01*
X70410016Y-94559456D01*
X70410015Y-94559457D01*
X70356947Y-94658740D01*
X70324268Y-94766468D01*
X70313234Y-94878501D01*
X70315999Y-94906576D01*
X70315999Y-95465553D01*
X70228620Y-95378174D01*
X70041413Y-95253087D01*
X69833401Y-95166925D01*
X69612576Y-95123000D01*
X69387424Y-95123000D01*
X69166599Y-95166925D01*
X68958587Y-95253087D01*
X68771380Y-95378174D01*
X68612174Y-95537380D01*
X68487087Y-95724587D01*
X68400925Y-95932599D01*
X68357000Y-96153424D01*
X68357000Y-96378576D01*
X68400925Y-96599401D01*
X68487087Y-96807413D01*
X68612174Y-96994620D01*
X68771380Y-97153826D01*
X68958587Y-97278913D01*
X69166599Y-97365075D01*
X69387424Y-97409000D01*
X69612576Y-97409000D01*
X69797912Y-97372134D01*
X71187010Y-98761233D01*
X71187011Y-120505716D01*
X71052909Y-120434037D01*
X70839715Y-120369365D01*
X70673558Y-120353000D01*
X70042442Y-120353000D01*
X69876285Y-120369365D01*
X69663091Y-120434037D01*
X69466610Y-120539058D01*
X69294393Y-120680393D01*
X69153058Y-120852610D01*
X69048037Y-121049091D01*
X68983365Y-121262285D01*
X68961528Y-121484000D01*
X68983365Y-121705715D01*
X69048037Y-121918909D01*
X69153058Y-122115390D01*
X69294393Y-122287607D01*
X69466610Y-122428942D01*
X69663091Y-122533963D01*
X69876285Y-122598635D01*
X70042442Y-122615000D01*
X70673558Y-122615000D01*
X70839715Y-122598635D01*
X71052909Y-122533963D01*
X71187011Y-122462284D01*
X71187011Y-123221195D01*
X71012760Y-123150389D01*
X70745000Y-123099000D01*
X70485000Y-123099000D01*
X70485000Y-124357000D01*
X70505000Y-124357000D01*
X70505000Y-124611000D01*
X70485000Y-124611000D01*
X70485000Y-125869000D01*
X70745000Y-125869000D01*
X71012760Y-125817611D01*
X71187011Y-125746805D01*
X71187011Y-126505716D01*
X71052909Y-126434037D01*
X70839715Y-126369365D01*
X70673558Y-126353000D01*
X70042442Y-126353000D01*
X69876285Y-126369365D01*
X69663091Y-126434037D01*
X69466610Y-126539058D01*
X69294393Y-126680393D01*
X69153058Y-126852610D01*
X69048037Y-127049091D01*
X68983365Y-127262285D01*
X68961528Y-127484000D01*
X68983365Y-127705715D01*
X69048037Y-127918909D01*
X69153058Y-128115390D01*
X69294393Y-128287607D01*
X69466610Y-128428942D01*
X69663091Y-128533963D01*
X69876285Y-128598635D01*
X70042442Y-128615000D01*
X70673558Y-128615000D01*
X70839715Y-128598635D01*
X71052909Y-128533963D01*
X71187011Y-128462284D01*
X71187011Y-129096696D01*
X70643750Y-129099000D01*
X70485000Y-129257750D01*
X70485000Y-130357000D01*
X70505000Y-130357000D01*
X70505000Y-130611000D01*
X70485000Y-130611000D01*
X70485000Y-131710250D01*
X70643750Y-131869000D01*
X71187011Y-131871304D01*
X71187011Y-139334426D01*
X71184245Y-139362510D01*
X71195279Y-139474543D01*
X71227958Y-139582271D01*
X71281026Y-139681554D01*
X71281027Y-139681555D01*
X71352444Y-139768577D01*
X71374254Y-139786476D01*
X73705740Y-142117963D01*
X73705745Y-142117967D01*
X73751550Y-142163772D01*
X73709000Y-142377682D01*
X73709000Y-142610318D01*
X73754386Y-142838485D01*
X73843412Y-143053413D01*
X73972658Y-143246843D01*
X74137157Y-143411342D01*
X74330587Y-143540588D01*
X74545515Y-143629614D01*
X74773682Y-143675000D01*
X75006318Y-143675000D01*
X75234485Y-143629614D01*
X75449413Y-143540588D01*
X75642843Y-143411342D01*
X75807342Y-143246843D01*
X75936588Y-143053413D01*
X76025614Y-142838485D01*
X76071000Y-142610318D01*
X76071000Y-142377682D01*
X76025614Y-142149515D01*
X75936588Y-141934587D01*
X75807342Y-141741157D01*
X75642843Y-141576658D01*
X75449413Y-141447412D01*
X75234485Y-141358386D01*
X75006318Y-141313000D01*
X74773682Y-141313000D01*
X74559772Y-141355550D01*
X74513967Y-141309745D01*
X74513963Y-141309740D01*
X72330010Y-139125788D01*
X72330010Y-138202232D01*
X73751550Y-139623773D01*
X73709000Y-139837682D01*
X73709000Y-140070318D01*
X73754386Y-140298485D01*
X73843412Y-140513413D01*
X73972658Y-140706843D01*
X74137157Y-140871342D01*
X74330587Y-141000588D01*
X74545515Y-141089614D01*
X74773682Y-141135000D01*
X75006318Y-141135000D01*
X75234485Y-141089614D01*
X75449413Y-141000588D01*
X75642843Y-140871342D01*
X75807342Y-140706843D01*
X75936588Y-140513413D01*
X76025614Y-140298485D01*
X76071000Y-140070318D01*
X76071000Y-139837682D01*
X76025614Y-139609515D01*
X75936588Y-139394587D01*
X75807342Y-139201157D01*
X75642843Y-139036658D01*
X75449413Y-138907412D01*
X75234485Y-138818386D01*
X75006318Y-138773000D01*
X74773682Y-138773000D01*
X74559773Y-138815550D01*
X73041905Y-137297682D01*
X73709000Y-137297682D01*
X73709000Y-137530318D01*
X73754386Y-137758485D01*
X73843412Y-137973413D01*
X73972658Y-138166843D01*
X74137157Y-138331342D01*
X74330587Y-138460588D01*
X74545515Y-138549614D01*
X74773682Y-138595000D01*
X75006318Y-138595000D01*
X75234485Y-138549614D01*
X75449413Y-138460588D01*
X75642843Y-138331342D01*
X75807342Y-138166843D01*
X75936588Y-137973413D01*
X76025614Y-137758485D01*
X76071000Y-137530318D01*
X76071000Y-137297682D01*
X76025614Y-137069515D01*
X75936588Y-136854587D01*
X75807342Y-136661157D01*
X75642843Y-136496658D01*
X75449413Y-136367412D01*
X75234485Y-136278386D01*
X75006318Y-136233000D01*
X74773682Y-136233000D01*
X74545515Y-136278386D01*
X74330587Y-136367412D01*
X74137157Y-136496658D01*
X73972658Y-136661157D01*
X73843412Y-136854587D01*
X73754386Y-137069515D01*
X73709000Y-137297682D01*
X73041905Y-137297682D01*
X72911020Y-137166798D01*
X72911020Y-134757682D01*
X73709000Y-134757682D01*
X73709000Y-134990318D01*
X73754386Y-135218485D01*
X73843412Y-135433413D01*
X73972658Y-135626843D01*
X74137157Y-135791342D01*
X74330587Y-135920588D01*
X74545515Y-136009614D01*
X74773682Y-136055000D01*
X75006318Y-136055000D01*
X75234485Y-136009614D01*
X75449413Y-135920588D01*
X75642843Y-135791342D01*
X75807342Y-135626843D01*
X75936588Y-135433413D01*
X76025614Y-135218485D01*
X76071000Y-134990318D01*
X76071000Y-134757682D01*
X76025614Y-134529515D01*
X75936588Y-134314587D01*
X75807342Y-134121157D01*
X75642843Y-133956658D01*
X75449413Y-133827412D01*
X75234485Y-133738386D01*
X75006318Y-133693000D01*
X74773682Y-133693000D01*
X74545515Y-133738386D01*
X74330587Y-133827412D01*
X74137157Y-133956658D01*
X73972658Y-134121157D01*
X73843412Y-134314587D01*
X73754386Y-134529515D01*
X73709000Y-134757682D01*
X72911020Y-134757682D01*
X72911020Y-127137682D01*
X73709000Y-127137682D01*
X73709000Y-127370318D01*
X73754386Y-127598485D01*
X73843412Y-127813413D01*
X73972658Y-128006843D01*
X74137157Y-128171342D01*
X74330587Y-128300588D01*
X74545515Y-128389614D01*
X74773682Y-128435000D01*
X75006318Y-128435000D01*
X75234485Y-128389614D01*
X75449413Y-128300588D01*
X75642843Y-128171342D01*
X75807342Y-128006843D01*
X75936588Y-127813413D01*
X76025614Y-127598485D01*
X76071000Y-127370318D01*
X76071000Y-127137682D01*
X76025614Y-126909515D01*
X75936588Y-126694587D01*
X75807342Y-126501157D01*
X75642843Y-126336658D01*
X75449413Y-126207412D01*
X75234485Y-126118386D01*
X75006318Y-126073000D01*
X74773682Y-126073000D01*
X74545515Y-126118386D01*
X74330587Y-126207412D01*
X74137157Y-126336658D01*
X73972658Y-126501157D01*
X73843412Y-126694587D01*
X73754386Y-126909515D01*
X73709000Y-127137682D01*
X72911020Y-127137682D01*
X72911020Y-124597682D01*
X73709000Y-124597682D01*
X73709000Y-124830318D01*
X73754386Y-125058485D01*
X73843412Y-125273413D01*
X73972658Y-125466843D01*
X74137157Y-125631342D01*
X74330587Y-125760588D01*
X74545515Y-125849614D01*
X74773682Y-125895000D01*
X75006318Y-125895000D01*
X75234485Y-125849614D01*
X75449413Y-125760588D01*
X75642843Y-125631342D01*
X75807342Y-125466843D01*
X75936588Y-125273413D01*
X76025614Y-125058485D01*
X76071000Y-124830318D01*
X76071000Y-124597682D01*
X76025614Y-124369515D01*
X75936588Y-124154587D01*
X75807342Y-123961157D01*
X75642843Y-123796658D01*
X75449413Y-123667412D01*
X75234485Y-123578386D01*
X75006318Y-123533000D01*
X74773682Y-123533000D01*
X74545515Y-123578386D01*
X74330587Y-123667412D01*
X74137157Y-123796658D01*
X73972658Y-123961157D01*
X73843412Y-124154587D01*
X73754386Y-124369515D01*
X73709000Y-124597682D01*
X72911020Y-124597682D01*
X72911020Y-122057682D01*
X73709000Y-122057682D01*
X73709000Y-122290318D01*
X73754386Y-122518485D01*
X73843412Y-122733413D01*
X73972658Y-122926843D01*
X74137157Y-123091342D01*
X74330587Y-123220588D01*
X74545515Y-123309614D01*
X74773682Y-123355000D01*
X75006318Y-123355000D01*
X75234485Y-123309614D01*
X75449413Y-123220588D01*
X75642843Y-123091342D01*
X75807342Y-122926843D01*
X75936588Y-122733413D01*
X76025614Y-122518485D01*
X76071000Y-122290318D01*
X76071000Y-122057682D01*
X76025614Y-121829515D01*
X75936588Y-121614587D01*
X75807342Y-121421157D01*
X75642843Y-121256658D01*
X75449413Y-121127412D01*
X75234485Y-121038386D01*
X75006318Y-120993000D01*
X74773682Y-120993000D01*
X74545515Y-121038386D01*
X74330587Y-121127412D01*
X74137157Y-121256658D01*
X73972658Y-121421157D01*
X73843412Y-121614587D01*
X73754386Y-121829515D01*
X73709000Y-122057682D01*
X72911020Y-122057682D01*
X72911020Y-119517682D01*
X73709000Y-119517682D01*
X73709000Y-119750318D01*
X73754386Y-119978485D01*
X73843412Y-120193413D01*
X73972658Y-120386843D01*
X74137157Y-120551342D01*
X74330587Y-120680588D01*
X74545515Y-120769614D01*
X74773682Y-120815000D01*
X75006318Y-120815000D01*
X75234485Y-120769614D01*
X75449413Y-120680588D01*
X75642843Y-120551342D01*
X75807342Y-120386843D01*
X75936588Y-120193413D01*
X76025614Y-119978485D01*
X76071000Y-119750318D01*
X76071000Y-119517682D01*
X76025614Y-119289515D01*
X75936588Y-119074587D01*
X75807342Y-118881157D01*
X75642843Y-118716658D01*
X75449413Y-118587412D01*
X75234485Y-118498386D01*
X75006318Y-118453000D01*
X74773682Y-118453000D01*
X74545515Y-118498386D01*
X74330587Y-118587412D01*
X74137157Y-118716658D01*
X73972658Y-118881157D01*
X73843412Y-119074587D01*
X73754386Y-119289515D01*
X73709000Y-119517682D01*
X72911020Y-119517682D01*
X72911020Y-114903039D01*
X73498096Y-114903039D01*
X73538754Y-115037087D01*
X73658963Y-115291420D01*
X73826481Y-115517414D01*
X74034869Y-115706385D01*
X74276119Y-115851070D01*
X74540960Y-115945909D01*
X74762998Y-115824625D01*
X74762998Y-115915125D01*
X74545515Y-115958386D01*
X74330587Y-116047412D01*
X74137157Y-116176658D01*
X73972658Y-116341157D01*
X73843412Y-116534587D01*
X73754386Y-116749515D01*
X73709000Y-116977682D01*
X73709000Y-117210318D01*
X73754386Y-117438485D01*
X73843412Y-117653413D01*
X73972658Y-117846843D01*
X74137157Y-118011342D01*
X74330587Y-118140588D01*
X74545515Y-118229614D01*
X74773682Y-118275000D01*
X75006318Y-118275000D01*
X75234485Y-118229614D01*
X75449413Y-118140588D01*
X75642843Y-118011342D01*
X75807342Y-117846843D01*
X75936588Y-117653413D01*
X76025614Y-117438485D01*
X76071000Y-117210318D01*
X76071000Y-116977682D01*
X76025614Y-116749515D01*
X75936588Y-116534587D01*
X75807342Y-116341157D01*
X75642843Y-116176658D01*
X75449413Y-116047412D01*
X75234485Y-115958386D01*
X75017002Y-115915125D01*
X75017002Y-115824625D01*
X75239040Y-115945909D01*
X75503881Y-115851070D01*
X75745131Y-115706385D01*
X75953519Y-115517414D01*
X76121037Y-115291420D01*
X76241246Y-115037087D01*
X76281904Y-114903039D01*
X76159915Y-114681000D01*
X75017000Y-114681000D01*
X75017000Y-114701000D01*
X74763000Y-114701000D01*
X74763000Y-114681000D01*
X73620085Y-114681000D01*
X73498096Y-114903039D01*
X72911020Y-114903039D01*
X72911020Y-114204961D01*
X73498096Y-114204961D01*
X73620085Y-114427000D01*
X74763000Y-114427000D01*
X74763000Y-114407000D01*
X75017000Y-114407000D01*
X75017000Y-114427000D01*
X76159915Y-114427000D01*
X76281904Y-114204961D01*
X76241246Y-114070913D01*
X76121037Y-113816580D01*
X75953519Y-113590586D01*
X75745131Y-113401615D01*
X75503881Y-113256930D01*
X75239040Y-113162091D01*
X75017002Y-113283375D01*
X75017002Y-113192875D01*
X75234485Y-113149614D01*
X75449413Y-113060588D01*
X75642843Y-112931342D01*
X75807342Y-112766843D01*
X75936588Y-112573413D01*
X76025614Y-112358485D01*
X76071000Y-112130318D01*
X76071000Y-111897682D01*
X76025614Y-111669515D01*
X75936588Y-111454587D01*
X75807342Y-111261157D01*
X75642843Y-111096658D01*
X75449413Y-110967412D01*
X75234485Y-110878386D01*
X75006318Y-110833000D01*
X74773682Y-110833000D01*
X74545515Y-110878386D01*
X74330587Y-110967412D01*
X74137157Y-111096658D01*
X73972658Y-111261157D01*
X73843412Y-111454587D01*
X73754386Y-111669515D01*
X73709000Y-111897682D01*
X73709000Y-112130318D01*
X73754386Y-112358485D01*
X73843412Y-112573413D01*
X73972658Y-112766843D01*
X74137157Y-112931342D01*
X74330587Y-113060588D01*
X74545515Y-113149614D01*
X74762998Y-113192875D01*
X74762998Y-113283375D01*
X74540960Y-113162091D01*
X74276119Y-113256930D01*
X74034869Y-113401615D01*
X73826481Y-113590586D01*
X73658963Y-113816580D01*
X73538754Y-114070913D01*
X73498096Y-114204961D01*
X72911020Y-114204961D01*
X72911020Y-109357682D01*
X73709000Y-109357682D01*
X73709000Y-109590318D01*
X73754386Y-109818485D01*
X73843412Y-110033413D01*
X73972658Y-110226843D01*
X74137157Y-110391342D01*
X74330587Y-110520588D01*
X74545515Y-110609614D01*
X74773682Y-110655000D01*
X75006318Y-110655000D01*
X75234485Y-110609614D01*
X75449413Y-110520588D01*
X75642843Y-110391342D01*
X75807342Y-110226843D01*
X75936588Y-110033413D01*
X76025614Y-109818485D01*
X76071000Y-109590318D01*
X76071000Y-109357682D01*
X76025614Y-109129515D01*
X75936588Y-108914587D01*
X75807342Y-108721157D01*
X75642843Y-108556658D01*
X75449413Y-108427412D01*
X75234485Y-108338386D01*
X75006318Y-108293000D01*
X74773682Y-108293000D01*
X74545515Y-108338386D01*
X74330587Y-108427412D01*
X74137157Y-108556658D01*
X73972658Y-108721157D01*
X73843412Y-108914587D01*
X73754386Y-109129515D01*
X73709000Y-109357682D01*
X72911020Y-109357682D01*
X72911020Y-106134000D01*
X73707157Y-106134000D01*
X73707157Y-107734000D01*
X73714513Y-107808689D01*
X73736299Y-107880508D01*
X73771678Y-107946696D01*
X73819289Y-108004711D01*
X73877304Y-108052322D01*
X73943492Y-108087701D01*
X74015311Y-108109487D01*
X74090000Y-108116843D01*
X75690000Y-108116843D01*
X75764689Y-108109487D01*
X75836508Y-108087701D01*
X75902696Y-108052322D01*
X75960711Y-108004711D01*
X76008322Y-107946696D01*
X76043701Y-107880508D01*
X76065487Y-107808689D01*
X76072843Y-107734000D01*
X76072843Y-106134000D01*
X76065487Y-106059311D01*
X76043701Y-105987492D01*
X76008322Y-105921304D01*
X75960711Y-105863289D01*
X75902696Y-105815678D01*
X75836508Y-105780299D01*
X75764689Y-105758513D01*
X75690000Y-105751157D01*
X74090000Y-105751157D01*
X74015311Y-105758513D01*
X73943492Y-105780299D01*
X73877304Y-105815678D01*
X73819289Y-105863289D01*
X73771678Y-105921304D01*
X73736299Y-105987492D01*
X73714513Y-106059311D01*
X73707157Y-106134000D01*
X72911020Y-106134000D01*
X72911020Y-98311922D01*
X72913785Y-98283848D01*
X72902751Y-98171814D01*
X72870072Y-98064086D01*
X72817004Y-97964803D01*
X72805712Y-97951044D01*
X72745587Y-97877781D01*
X72723778Y-97859883D01*
X72252932Y-97389038D01*
X72373401Y-97365075D01*
X72581413Y-97278913D01*
X72768620Y-97153826D01*
X72927826Y-96994620D01*
X73052913Y-96807413D01*
X73139075Y-96599401D01*
X73183000Y-96378576D01*
X73183000Y-96153424D01*
X73139075Y-95932599D01*
X73052913Y-95724587D01*
X72927826Y-95537380D01*
X72768620Y-95378174D01*
X72581413Y-95253087D01*
X72373401Y-95166925D01*
X72152576Y-95123000D01*
X71927424Y-95123000D01*
X71706599Y-95166925D01*
X71498587Y-95253087D01*
X71458999Y-95279539D01*
X71458999Y-95115223D01*
X71742088Y-94832134D01*
X71927424Y-94869000D01*
X72152576Y-94869000D01*
X72373401Y-94825075D01*
X72581413Y-94738913D01*
X72768620Y-94613826D01*
X72927826Y-94454620D01*
X73052913Y-94267413D01*
X73139075Y-94059401D01*
X73163038Y-93938932D01*
X77333490Y-98109385D01*
X77333491Y-126542285D01*
X75220228Y-128655550D01*
X75006318Y-128613000D01*
X74773682Y-128613000D01*
X74545515Y-128658386D01*
X74330587Y-128747412D01*
X74137157Y-128876658D01*
X73972658Y-129041157D01*
X73843412Y-129234587D01*
X73754386Y-129449515D01*
X73709000Y-129677682D01*
X73709000Y-129910318D01*
X73754386Y-130138485D01*
X73843412Y-130353413D01*
X73972658Y-130546843D01*
X74137157Y-130711342D01*
X74330587Y-130840588D01*
X74545515Y-130929614D01*
X74773682Y-130975000D01*
X75006318Y-130975000D01*
X75234485Y-130929614D01*
X75449413Y-130840588D01*
X75642843Y-130711342D01*
X75807342Y-130546843D01*
X75936588Y-130353413D01*
X76025614Y-130138485D01*
X76071000Y-129910318D01*
X76071000Y-129677682D01*
X76028450Y-129463772D01*
X77914501Y-127577723D01*
X77914501Y-128501276D01*
X75220228Y-131195550D01*
X75006318Y-131153000D01*
X74773682Y-131153000D01*
X74545515Y-131198386D01*
X74330587Y-131287412D01*
X74137157Y-131416658D01*
X73972658Y-131581157D01*
X73843412Y-131774587D01*
X73754386Y-131989515D01*
X73709000Y-132217682D01*
X73709000Y-132450318D01*
X73754386Y-132678485D01*
X73843412Y-132893413D01*
X73972658Y-133086843D01*
X74137157Y-133251342D01*
X74330587Y-133380588D01*
X74545515Y-133469614D01*
X74773682Y-133515000D01*
X75006318Y-133515000D01*
X75234485Y-133469614D01*
X75449413Y-133380588D01*
X75642843Y-133251342D01*
X75807342Y-133086843D01*
X75936588Y-132893413D01*
X76025614Y-132678485D01*
X76071000Y-132450318D01*
X76071000Y-132217682D01*
X76028450Y-132003772D01*
X78870257Y-129161966D01*
X78892067Y-129144067D01*
X78963484Y-129057045D01*
X79016552Y-128957762D01*
X79049231Y-128850034D01*
X79057500Y-128766074D01*
X79060265Y-128738000D01*
X79057500Y-128709926D01*
X79057500Y-97660074D01*
X79060265Y-97632000D01*
X79049231Y-97519966D01*
X79016552Y-97412238D01*
X78963484Y-97312955D01*
X78960493Y-97309311D01*
X78892067Y-97225933D01*
X78870258Y-97208035D01*
X73146134Y-91483912D01*
X73183000Y-91298576D01*
X73183000Y-91073424D01*
X73139075Y-90852599D01*
X73052913Y-90644587D01*
X73026461Y-90604999D01*
X73446735Y-90604999D01*
X83429490Y-100587755D01*
X83429491Y-136336906D01*
X83426725Y-136364990D01*
X83437759Y-136477023D01*
X83470438Y-136584751D01*
X83511278Y-136661157D01*
X83523507Y-136684035D01*
X83594924Y-136771057D01*
X83616734Y-136788956D01*
X88991550Y-142163773D01*
X88949000Y-142377682D01*
X88949000Y-142610318D01*
X88994386Y-142838485D01*
X89083412Y-143053413D01*
X89212658Y-143246843D01*
X89377157Y-143411342D01*
X89570587Y-143540588D01*
X89785515Y-143629614D01*
X90013682Y-143675000D01*
X90246318Y-143675000D01*
X90474485Y-143629614D01*
X90499935Y-143619072D01*
X98798677Y-143619072D01*
X101000000Y-145820395D01*
X103201323Y-143619072D01*
X102895141Y-143175497D01*
X102307694Y-142860046D01*
X101669992Y-142665260D01*
X101006543Y-142598628D01*
X100342842Y-142662708D01*
X99704395Y-142855038D01*
X99115738Y-143168228D01*
X99104859Y-143175497D01*
X98798677Y-143619072D01*
X90499935Y-143619072D01*
X90689413Y-143540588D01*
X90882843Y-143411342D01*
X91047342Y-143246843D01*
X91176588Y-143053413D01*
X91265614Y-142838485D01*
X91311000Y-142610318D01*
X91311000Y-142377682D01*
X91265614Y-142149515D01*
X91176588Y-141934587D01*
X91047342Y-141741157D01*
X90882843Y-141576658D01*
X90689413Y-141447412D01*
X90474485Y-141358386D01*
X90246318Y-141313000D01*
X90013682Y-141313000D01*
X89799773Y-141355550D01*
X84572490Y-136128268D01*
X84572490Y-135204712D01*
X88991550Y-139623773D01*
X88949000Y-139837682D01*
X88949000Y-140070318D01*
X88994386Y-140298485D01*
X89083412Y-140513413D01*
X89212658Y-140706843D01*
X89377157Y-140871342D01*
X89570587Y-141000588D01*
X89785515Y-141089614D01*
X90013682Y-141135000D01*
X90246318Y-141135000D01*
X90474485Y-141089614D01*
X90689413Y-141000588D01*
X90882843Y-140871342D01*
X91047342Y-140706843D01*
X91176588Y-140513413D01*
X91265614Y-140298485D01*
X91311000Y-140070318D01*
X91311000Y-139837682D01*
X91265614Y-139609515D01*
X91176588Y-139394587D01*
X91047342Y-139201157D01*
X90882843Y-139036658D01*
X90689413Y-138907412D01*
X90474485Y-138818386D01*
X90246318Y-138773000D01*
X90013682Y-138773000D01*
X89799773Y-138815550D01*
X88281905Y-137297682D01*
X88949000Y-137297682D01*
X88949000Y-137530318D01*
X88994386Y-137758485D01*
X89083412Y-137973413D01*
X89212658Y-138166843D01*
X89377157Y-138331342D01*
X89570587Y-138460588D01*
X89785515Y-138549614D01*
X90013682Y-138595000D01*
X90246318Y-138595000D01*
X90474485Y-138549614D01*
X90689413Y-138460588D01*
X90882843Y-138331342D01*
X91047342Y-138166843D01*
X91176588Y-137973413D01*
X91265614Y-137758485D01*
X91288386Y-137644000D01*
X93091528Y-137644000D01*
X93113365Y-137865715D01*
X93178037Y-138078909D01*
X93283058Y-138275390D01*
X93424393Y-138447607D01*
X93596610Y-138588942D01*
X93793091Y-138693963D01*
X94006285Y-138758635D01*
X94172442Y-138775000D01*
X94803558Y-138775000D01*
X94969715Y-138758635D01*
X95182909Y-138693963D01*
X95379390Y-138588942D01*
X95551607Y-138447607D01*
X95692942Y-138275390D01*
X95797963Y-138078909D01*
X95862635Y-137865715D01*
X95884472Y-137644000D01*
X95862635Y-137422285D01*
X95797963Y-137209091D01*
X95692942Y-137012610D01*
X95551607Y-136840393D01*
X95379390Y-136699058D01*
X95182909Y-136594037D01*
X94969715Y-136529365D01*
X94803558Y-136513000D01*
X94172442Y-136513000D01*
X94006285Y-136529365D01*
X93793091Y-136594037D01*
X93596610Y-136699058D01*
X93424393Y-136840393D01*
X93283058Y-137012610D01*
X93178037Y-137209091D01*
X93113365Y-137422285D01*
X93091528Y-137644000D01*
X91288386Y-137644000D01*
X91311000Y-137530318D01*
X91311000Y-137297682D01*
X91265614Y-137069515D01*
X91176588Y-136854587D01*
X91047342Y-136661157D01*
X90882843Y-136496658D01*
X90689413Y-136367412D01*
X90474485Y-136278386D01*
X90246318Y-136233000D01*
X90013682Y-136233000D01*
X89785515Y-136278386D01*
X89570587Y-136367412D01*
X89377157Y-136496658D01*
X89212658Y-136661157D01*
X89083412Y-136854587D01*
X88994386Y-137069515D01*
X88949000Y-137297682D01*
X88281905Y-137297682D01*
X85741905Y-134757682D01*
X88949000Y-134757682D01*
X88949000Y-134990318D01*
X88994386Y-135218485D01*
X89083412Y-135433413D01*
X89212658Y-135626843D01*
X89377157Y-135791342D01*
X89570587Y-135920588D01*
X89785515Y-136009614D01*
X90013682Y-136055000D01*
X90246318Y-136055000D01*
X90474485Y-136009614D01*
X90689413Y-135920588D01*
X90882843Y-135791342D01*
X91047342Y-135626843D01*
X91176588Y-135433413D01*
X91192913Y-135394000D01*
X92839928Y-135394000D01*
X92852188Y-135518482D01*
X92888498Y-135638180D01*
X92947463Y-135748494D01*
X93026815Y-135845185D01*
X93123506Y-135924537D01*
X93233820Y-135983502D01*
X93353518Y-136019812D01*
X93478000Y-136032072D01*
X94202250Y-136029000D01*
X94361000Y-135870250D01*
X94361000Y-134771000D01*
X94615000Y-134771000D01*
X94615000Y-135870250D01*
X94773750Y-136029000D01*
X95498000Y-136032072D01*
X95622482Y-136019812D01*
X95742180Y-135983502D01*
X95788509Y-135958738D01*
X96927000Y-135958738D01*
X96927000Y-136329262D01*
X96999286Y-136692667D01*
X97141080Y-137034987D01*
X97346932Y-137343067D01*
X97608933Y-137605068D01*
X97917013Y-137810920D01*
X98259333Y-137952714D01*
X98622738Y-138025000D01*
X98993262Y-138025000D01*
X99356667Y-137952714D01*
X99698987Y-137810920D01*
X100007067Y-137605068D01*
X100269068Y-137343067D01*
X100474920Y-137034987D01*
X100616714Y-136692667D01*
X100689000Y-136329262D01*
X100689000Y-135958738D01*
X100616714Y-135595333D01*
X100474920Y-135253013D01*
X100269068Y-134944933D01*
X100007067Y-134682932D01*
X99698987Y-134477080D01*
X99356667Y-134335286D01*
X98993262Y-134263000D01*
X98622738Y-134263000D01*
X98259333Y-134335286D01*
X97917013Y-134477080D01*
X97608933Y-134682932D01*
X97346932Y-134944933D01*
X97141080Y-135253013D01*
X96999286Y-135595333D01*
X96927000Y-135958738D01*
X95788509Y-135958738D01*
X95852494Y-135924537D01*
X95949185Y-135845185D01*
X96028537Y-135748494D01*
X96087502Y-135638180D01*
X96123812Y-135518482D01*
X96136072Y-135394000D01*
X96133000Y-134929750D01*
X95974250Y-134771000D01*
X94615000Y-134771000D01*
X94361000Y-134771000D01*
X93001750Y-134771000D01*
X92843000Y-134929750D01*
X92839928Y-135394000D01*
X91192913Y-135394000D01*
X91265614Y-135218485D01*
X91311000Y-134990318D01*
X91311000Y-134757682D01*
X91265614Y-134529515D01*
X91176588Y-134314587D01*
X91047342Y-134121157D01*
X90882843Y-133956658D01*
X90789069Y-133894000D01*
X92839928Y-133894000D01*
X92843000Y-134358250D01*
X93001750Y-134517000D01*
X94361000Y-134517000D01*
X94361000Y-133417750D01*
X94615000Y-133417750D01*
X94615000Y-134517000D01*
X95974250Y-134517000D01*
X96133000Y-134358250D01*
X96136072Y-133894000D01*
X96123812Y-133769518D01*
X96087502Y-133649820D01*
X96028537Y-133539506D01*
X95949185Y-133442815D01*
X95852494Y-133363463D01*
X95742180Y-133304498D01*
X95622482Y-133268188D01*
X95498000Y-133255928D01*
X94773750Y-133259000D01*
X94615000Y-133417750D01*
X94361000Y-133417750D01*
X94202250Y-133259000D01*
X93478000Y-133255928D01*
X93353518Y-133268188D01*
X93233820Y-133304498D01*
X93123506Y-133363463D01*
X93026815Y-133442815D01*
X92947463Y-133539506D01*
X92888498Y-133649820D01*
X92852188Y-133769518D01*
X92839928Y-133894000D01*
X90789069Y-133894000D01*
X90689413Y-133827412D01*
X90474485Y-133738386D01*
X90246318Y-133693000D01*
X90013682Y-133693000D01*
X89785515Y-133738386D01*
X89570587Y-133827412D01*
X89377157Y-133956658D01*
X89212658Y-134121157D01*
X89083412Y-134314587D01*
X88994386Y-134529515D01*
X88949000Y-134757682D01*
X85741905Y-134757682D01*
X85153500Y-134169278D01*
X85153500Y-132217682D01*
X88949000Y-132217682D01*
X88949000Y-132450318D01*
X88994386Y-132678485D01*
X89083412Y-132893413D01*
X89212658Y-133086843D01*
X89377157Y-133251342D01*
X89570587Y-133380588D01*
X89785515Y-133469614D01*
X90013682Y-133515000D01*
X90246318Y-133515000D01*
X90474485Y-133469614D01*
X90689413Y-133380588D01*
X90882843Y-133251342D01*
X91047342Y-133086843D01*
X91176588Y-132893413D01*
X91265614Y-132678485D01*
X91311000Y-132450318D01*
X91311000Y-132217682D01*
X91265614Y-131989515D01*
X91176588Y-131774587D01*
X91047342Y-131581157D01*
X90882843Y-131416658D01*
X90689413Y-131287412D01*
X90474485Y-131198386D01*
X90246318Y-131153000D01*
X90013682Y-131153000D01*
X89785515Y-131198386D01*
X89570587Y-131287412D01*
X89377157Y-131416658D01*
X89212658Y-131581157D01*
X89083412Y-131774587D01*
X88994386Y-131989515D01*
X88949000Y-132217682D01*
X85153500Y-132217682D01*
X85153500Y-129677682D01*
X88949000Y-129677682D01*
X88949000Y-129910318D01*
X88994386Y-130138485D01*
X89083412Y-130353413D01*
X89212658Y-130546843D01*
X89377157Y-130711342D01*
X89570587Y-130840588D01*
X89785515Y-130929614D01*
X90013682Y-130975000D01*
X90246318Y-130975000D01*
X90474485Y-130929614D01*
X90689413Y-130840588D01*
X90882843Y-130711342D01*
X91047342Y-130546843D01*
X91176588Y-130353413D01*
X91265614Y-130138485D01*
X91311000Y-129910318D01*
X91311000Y-129677682D01*
X91265614Y-129449515D01*
X91176588Y-129234587D01*
X91047342Y-129041157D01*
X90882843Y-128876658D01*
X90689413Y-128747412D01*
X90474485Y-128658386D01*
X90246318Y-128613000D01*
X90013682Y-128613000D01*
X89785515Y-128658386D01*
X89570587Y-128747412D01*
X89377157Y-128876658D01*
X89212658Y-129041157D01*
X89083412Y-129234587D01*
X88994386Y-129449515D01*
X88949000Y-129677682D01*
X85153500Y-129677682D01*
X85153500Y-127137682D01*
X88949000Y-127137682D01*
X88949000Y-127370318D01*
X88994386Y-127598485D01*
X89083412Y-127813413D01*
X89212658Y-128006843D01*
X89377157Y-128171342D01*
X89570587Y-128300588D01*
X89785515Y-128389614D01*
X90013682Y-128435000D01*
X90246318Y-128435000D01*
X90474485Y-128389614D01*
X90689413Y-128300588D01*
X90882843Y-128171342D01*
X91047342Y-128006843D01*
X91176588Y-127813413D01*
X91265614Y-127598485D01*
X91311000Y-127370318D01*
X91311000Y-127137682D01*
X91265614Y-126909515D01*
X91176588Y-126694587D01*
X91047342Y-126501157D01*
X90882843Y-126336658D01*
X90689413Y-126207412D01*
X90474485Y-126118386D01*
X90246318Y-126073000D01*
X90013682Y-126073000D01*
X89785515Y-126118386D01*
X89570587Y-126207412D01*
X89377157Y-126336658D01*
X89212658Y-126501157D01*
X89083412Y-126694587D01*
X88994386Y-126909515D01*
X88949000Y-127137682D01*
X85153500Y-127137682D01*
X85153500Y-124597682D01*
X88949000Y-124597682D01*
X88949000Y-124830318D01*
X88994386Y-125058485D01*
X89083412Y-125273413D01*
X89212658Y-125466843D01*
X89377157Y-125631342D01*
X89570587Y-125760588D01*
X89785515Y-125849614D01*
X90013682Y-125895000D01*
X90246318Y-125895000D01*
X90474485Y-125849614D01*
X90689413Y-125760588D01*
X90882843Y-125631342D01*
X91047342Y-125466843D01*
X91176588Y-125273413D01*
X91265614Y-125058485D01*
X91311000Y-124830318D01*
X91311000Y-124597682D01*
X91265614Y-124369515D01*
X91176588Y-124154587D01*
X91047342Y-123961157D01*
X90882843Y-123796658D01*
X90689413Y-123667412D01*
X90474485Y-123578386D01*
X90246318Y-123533000D01*
X90013682Y-123533000D01*
X89785515Y-123578386D01*
X89570587Y-123667412D01*
X89377157Y-123796658D01*
X89212658Y-123961157D01*
X89083412Y-124154587D01*
X88994386Y-124369515D01*
X88949000Y-124597682D01*
X85153500Y-124597682D01*
X85153500Y-122057682D01*
X88949000Y-122057682D01*
X88949000Y-122290318D01*
X88994386Y-122518485D01*
X89083412Y-122733413D01*
X89212658Y-122926843D01*
X89377157Y-123091342D01*
X89570587Y-123220588D01*
X89785515Y-123309614D01*
X90013682Y-123355000D01*
X90246318Y-123355000D01*
X90474485Y-123309614D01*
X90689413Y-123220588D01*
X90882843Y-123091342D01*
X91047342Y-122926843D01*
X91176588Y-122733413D01*
X91265614Y-122518485D01*
X91311000Y-122290318D01*
X91311000Y-122057682D01*
X91265614Y-121829515D01*
X91176588Y-121614587D01*
X91047342Y-121421157D01*
X90882843Y-121256658D01*
X90689413Y-121127412D01*
X90474485Y-121038386D01*
X90246318Y-120993000D01*
X90013682Y-120993000D01*
X89785515Y-121038386D01*
X89570587Y-121127412D01*
X89377157Y-121256658D01*
X89212658Y-121421157D01*
X89083412Y-121614587D01*
X88994386Y-121829515D01*
X88949000Y-122057682D01*
X85153500Y-122057682D01*
X85153500Y-119517682D01*
X88949000Y-119517682D01*
X88949000Y-119750318D01*
X88994386Y-119978485D01*
X89083412Y-120193413D01*
X89212658Y-120386843D01*
X89377157Y-120551342D01*
X89570587Y-120680588D01*
X89785515Y-120769614D01*
X90013682Y-120815000D01*
X90246318Y-120815000D01*
X90474485Y-120769614D01*
X90689413Y-120680588D01*
X90882843Y-120551342D01*
X91047342Y-120386843D01*
X91176588Y-120193413D01*
X91265614Y-119978485D01*
X91311000Y-119750318D01*
X91311000Y-119517682D01*
X91265614Y-119289515D01*
X91176588Y-119074587D01*
X91047342Y-118881157D01*
X90882843Y-118716658D01*
X90689413Y-118587412D01*
X90474485Y-118498386D01*
X90246318Y-118453000D01*
X90013682Y-118453000D01*
X89785515Y-118498386D01*
X89570587Y-118587412D01*
X89377157Y-118716658D01*
X89212658Y-118881157D01*
X89083412Y-119074587D01*
X88994386Y-119289515D01*
X88949000Y-119517682D01*
X85153500Y-119517682D01*
X85153500Y-116977682D01*
X88949000Y-116977682D01*
X88949000Y-117210318D01*
X88994386Y-117438485D01*
X89083412Y-117653413D01*
X89212658Y-117846843D01*
X89377157Y-118011342D01*
X89570587Y-118140588D01*
X89785515Y-118229614D01*
X90013682Y-118275000D01*
X90246318Y-118275000D01*
X90474485Y-118229614D01*
X90689413Y-118140588D01*
X90882843Y-118011342D01*
X91047342Y-117846843D01*
X91176588Y-117653413D01*
X91265614Y-117438485D01*
X91311000Y-117210318D01*
X91311000Y-116977682D01*
X91265614Y-116749515D01*
X91176588Y-116534587D01*
X91047342Y-116341157D01*
X90882843Y-116176658D01*
X90689413Y-116047412D01*
X90474485Y-115958386D01*
X90246318Y-115913000D01*
X90013682Y-115913000D01*
X89785515Y-115958386D01*
X89570587Y-116047412D01*
X89377157Y-116176658D01*
X89212658Y-116341157D01*
X89083412Y-116534587D01*
X88994386Y-116749515D01*
X88949000Y-116977682D01*
X85153500Y-116977682D01*
X85153500Y-114437682D01*
X88949000Y-114437682D01*
X88949000Y-114670318D01*
X88994386Y-114898485D01*
X89083412Y-115113413D01*
X89212658Y-115306843D01*
X89377157Y-115471342D01*
X89570587Y-115600588D01*
X89785515Y-115689614D01*
X90013682Y-115735000D01*
X90246318Y-115735000D01*
X90474485Y-115689614D01*
X90689413Y-115600588D01*
X90882843Y-115471342D01*
X91047342Y-115306843D01*
X91176588Y-115113413D01*
X91265614Y-114898485D01*
X91311000Y-114670318D01*
X91311000Y-114437682D01*
X91265614Y-114209515D01*
X91176588Y-113994587D01*
X91047342Y-113801157D01*
X90882843Y-113636658D01*
X90689413Y-113507412D01*
X90474485Y-113418386D01*
X90246318Y-113373000D01*
X90013682Y-113373000D01*
X89785515Y-113418386D01*
X89570587Y-113507412D01*
X89377157Y-113636658D01*
X89212658Y-113801157D01*
X89083412Y-113994587D01*
X88994386Y-114209515D01*
X88949000Y-114437682D01*
X85153500Y-114437682D01*
X85153500Y-109823039D01*
X88738096Y-109823039D01*
X88778754Y-109957087D01*
X88898963Y-110211420D01*
X89066481Y-110437414D01*
X89274869Y-110626385D01*
X89516119Y-110771070D01*
X89780960Y-110865909D01*
X90002998Y-110744625D01*
X90002998Y-110835125D01*
X89785515Y-110878386D01*
X89570587Y-110967412D01*
X89377157Y-111096658D01*
X89212658Y-111261157D01*
X89083412Y-111454587D01*
X88994386Y-111669515D01*
X88949000Y-111897682D01*
X88949000Y-112130318D01*
X88994386Y-112358485D01*
X89083412Y-112573413D01*
X89212658Y-112766843D01*
X89377157Y-112931342D01*
X89570587Y-113060588D01*
X89785515Y-113149614D01*
X90013682Y-113195000D01*
X90246318Y-113195000D01*
X90474485Y-113149614D01*
X90689413Y-113060588D01*
X90882843Y-112931342D01*
X91047342Y-112766843D01*
X91176588Y-112573413D01*
X91265614Y-112358485D01*
X91311000Y-112130318D01*
X91311000Y-111897682D01*
X91265614Y-111669515D01*
X91176588Y-111454587D01*
X91047342Y-111261157D01*
X90882843Y-111096658D01*
X90689413Y-110967412D01*
X90474485Y-110878386D01*
X90257002Y-110835125D01*
X90257002Y-110744625D01*
X90479040Y-110865909D01*
X90743881Y-110771070D01*
X90985131Y-110626385D01*
X91193519Y-110437414D01*
X91361037Y-110211420D01*
X91481246Y-109957087D01*
X91521904Y-109823039D01*
X91451010Y-109694000D01*
X93091528Y-109694000D01*
X93113365Y-109915715D01*
X93178037Y-110128909D01*
X93283058Y-110325390D01*
X93424393Y-110497607D01*
X93596610Y-110638942D01*
X93793091Y-110743963D01*
X94006285Y-110808635D01*
X94172442Y-110825000D01*
X94803558Y-110825000D01*
X94969715Y-110808635D01*
X95182909Y-110743963D01*
X95379390Y-110638942D01*
X95551607Y-110497607D01*
X95692942Y-110325390D01*
X95797963Y-110128909D01*
X95862635Y-109915715D01*
X95884472Y-109694000D01*
X95862635Y-109472285D01*
X95797963Y-109259091D01*
X95692942Y-109062610D01*
X95551607Y-108890393D01*
X95379390Y-108749058D01*
X95182909Y-108644037D01*
X94969715Y-108579365D01*
X94803558Y-108563000D01*
X94172442Y-108563000D01*
X94006285Y-108579365D01*
X93793091Y-108644037D01*
X93596610Y-108749058D01*
X93424393Y-108890393D01*
X93283058Y-109062610D01*
X93178037Y-109259091D01*
X93113365Y-109472285D01*
X93091528Y-109694000D01*
X91451010Y-109694000D01*
X91399915Y-109601000D01*
X90257000Y-109601000D01*
X90257000Y-109621000D01*
X90003000Y-109621000D01*
X90003000Y-109601000D01*
X88860085Y-109601000D01*
X88738096Y-109823039D01*
X85153500Y-109823039D01*
X85153500Y-109124961D01*
X88738096Y-109124961D01*
X88860085Y-109347000D01*
X90003000Y-109347000D01*
X90003000Y-109327000D01*
X90257000Y-109327000D01*
X90257000Y-109347000D01*
X91399915Y-109347000D01*
X91521904Y-109124961D01*
X91481246Y-108990913D01*
X91361037Y-108736580D01*
X91193519Y-108510586D01*
X90985131Y-108321615D01*
X90743881Y-108176930D01*
X90479040Y-108082091D01*
X90257002Y-108203375D01*
X90257002Y-108112875D01*
X90474485Y-108069614D01*
X90689413Y-107980588D01*
X90882843Y-107851342D01*
X91047342Y-107686843D01*
X91176588Y-107493413D01*
X91197055Y-107444000D01*
X92839928Y-107444000D01*
X92852188Y-107568482D01*
X92888498Y-107688180D01*
X92947463Y-107798494D01*
X93026815Y-107895185D01*
X93123506Y-107974537D01*
X93233820Y-108033502D01*
X93353518Y-108069812D01*
X93478000Y-108082072D01*
X94202250Y-108079000D01*
X94361000Y-107920250D01*
X94361000Y-106821000D01*
X94615000Y-106821000D01*
X94615000Y-107920250D01*
X94773750Y-108079000D01*
X95498000Y-108082072D01*
X95622482Y-108069812D01*
X95742180Y-108033502D01*
X95788509Y-108008738D01*
X96927000Y-108008738D01*
X96927000Y-108379262D01*
X96999286Y-108742667D01*
X97141080Y-109084987D01*
X97346932Y-109393067D01*
X97608933Y-109655068D01*
X97917013Y-109860920D01*
X98259333Y-110002714D01*
X98622738Y-110075000D01*
X98993262Y-110075000D01*
X99356667Y-110002714D01*
X99698987Y-109860920D01*
X100007067Y-109655068D01*
X100269068Y-109393067D01*
X100474920Y-109084987D01*
X100616714Y-108742667D01*
X100689000Y-108379262D01*
X100689000Y-108008738D01*
X100616714Y-107645333D01*
X100474920Y-107303013D01*
X100269068Y-106994933D01*
X100007067Y-106732932D01*
X99698987Y-106527080D01*
X99356667Y-106385286D01*
X98993262Y-106313000D01*
X98622738Y-106313000D01*
X98259333Y-106385286D01*
X97917013Y-106527080D01*
X97608933Y-106732932D01*
X97346932Y-106994933D01*
X97141080Y-107303013D01*
X96999286Y-107645333D01*
X96927000Y-108008738D01*
X95788509Y-108008738D01*
X95852494Y-107974537D01*
X95949185Y-107895185D01*
X96028537Y-107798494D01*
X96087502Y-107688180D01*
X96123812Y-107568482D01*
X96136072Y-107444000D01*
X96133000Y-106979750D01*
X95974250Y-106821000D01*
X94615000Y-106821000D01*
X94361000Y-106821000D01*
X93001750Y-106821000D01*
X92843000Y-106979750D01*
X92839928Y-107444000D01*
X91197055Y-107444000D01*
X91265614Y-107278485D01*
X91311000Y-107050318D01*
X91311000Y-106817682D01*
X91265614Y-106589515D01*
X91176588Y-106374587D01*
X91047342Y-106181157D01*
X90882843Y-106016658D01*
X90774103Y-105944000D01*
X92839928Y-105944000D01*
X92843000Y-106408250D01*
X93001750Y-106567000D01*
X94361000Y-106567000D01*
X94361000Y-105467750D01*
X94615000Y-105467750D01*
X94615000Y-106567000D01*
X95974250Y-106567000D01*
X96133000Y-106408250D01*
X96136072Y-105944000D01*
X96123812Y-105819518D01*
X96087502Y-105699820D01*
X96028537Y-105589506D01*
X95949185Y-105492815D01*
X95852494Y-105413463D01*
X95742180Y-105354498D01*
X95622482Y-105318188D01*
X95498000Y-105305928D01*
X94773750Y-105309000D01*
X94615000Y-105467750D01*
X94361000Y-105467750D01*
X94202250Y-105309000D01*
X93478000Y-105305928D01*
X93353518Y-105318188D01*
X93233820Y-105354498D01*
X93123506Y-105413463D01*
X93026815Y-105492815D01*
X92947463Y-105589506D01*
X92888498Y-105699820D01*
X92852188Y-105819518D01*
X92839928Y-105944000D01*
X90774103Y-105944000D01*
X90689413Y-105887412D01*
X90474485Y-105798386D01*
X90246318Y-105753000D01*
X90013682Y-105753000D01*
X89785515Y-105798386D01*
X89570587Y-105887412D01*
X89377157Y-106016658D01*
X89212658Y-106181157D01*
X89083412Y-106374587D01*
X88994386Y-106589515D01*
X88949000Y-106817682D01*
X88949000Y-107050318D01*
X88994386Y-107278485D01*
X89083412Y-107493413D01*
X89212658Y-107686843D01*
X89377157Y-107851342D01*
X89570587Y-107980588D01*
X89785515Y-108069614D01*
X90002998Y-108112875D01*
X90002998Y-108203375D01*
X89780960Y-108082091D01*
X89516119Y-108176930D01*
X89274869Y-108321615D01*
X89066481Y-108510586D01*
X88898963Y-108736580D01*
X88778754Y-108990913D01*
X88738096Y-109124961D01*
X85153500Y-109124961D01*
X85153500Y-100138444D01*
X85156265Y-100110370D01*
X85145231Y-99998337D01*
X85112552Y-99890608D01*
X85059484Y-99791325D01*
X85056592Y-99787801D01*
X84988067Y-99704303D01*
X84966258Y-99686405D01*
X76660781Y-91380928D01*
X98798677Y-91380928D01*
X99104859Y-91824503D01*
X99692306Y-92139954D01*
X100330008Y-92334740D01*
X100993457Y-92401372D01*
X101657158Y-92337292D01*
X102295605Y-92144962D01*
X102884262Y-91831772D01*
X102895141Y-91824503D01*
X103201323Y-91380928D01*
X101000000Y-89179605D01*
X98798677Y-91380928D01*
X76660781Y-91380928D01*
X74273310Y-88993457D01*
X97598628Y-88993457D01*
X97662708Y-89657158D01*
X97855038Y-90295605D01*
X98168228Y-90884262D01*
X98175497Y-90895141D01*
X98619072Y-91201323D01*
X100820395Y-89000000D01*
X101179605Y-89000000D01*
X103380928Y-91201323D01*
X103824503Y-90895141D01*
X104139954Y-90307694D01*
X104334740Y-89669992D01*
X104401372Y-89006543D01*
X104337292Y-88342842D01*
X104144962Y-87704395D01*
X103831772Y-87115738D01*
X103824503Y-87104859D01*
X103380928Y-86798677D01*
X101179605Y-89000000D01*
X100820395Y-89000000D01*
X98619072Y-86798677D01*
X98175497Y-87104859D01*
X97860046Y-87692306D01*
X97665260Y-88330008D01*
X97598628Y-88993457D01*
X74273310Y-88993457D01*
X73541600Y-88261748D01*
X73523697Y-88239933D01*
X73436675Y-88168516D01*
X73337392Y-88115448D01*
X73229664Y-88082769D01*
X73145704Y-88074500D01*
X73117630Y-88071735D01*
X73089556Y-88074500D01*
X73032810Y-88074500D01*
X72927826Y-87917380D01*
X72768620Y-87758174D01*
X72581413Y-87633087D01*
X72373401Y-87546925D01*
X72152576Y-87503000D01*
X71927424Y-87503000D01*
X71706599Y-87546925D01*
X71498587Y-87633087D01*
X71311380Y-87758174D01*
X71152174Y-87917380D01*
X71027087Y-88104587D01*
X70940925Y-88312599D01*
X70897000Y-88533424D01*
X70897000Y-88758576D01*
X70940925Y-88979401D01*
X71027087Y-89187413D01*
X71152174Y-89374620D01*
X71239553Y-89461999D01*
X70894754Y-89461999D01*
X70900072Y-89408000D01*
X70897000Y-88931750D01*
X70738250Y-88773000D01*
X69627000Y-88773000D01*
X69627000Y-88793000D01*
X69373000Y-88793000D01*
X69373000Y-88773000D01*
X68261750Y-88773000D01*
X68103000Y-88931750D01*
X68099928Y-89408000D01*
X68112188Y-89532482D01*
X68124136Y-89571870D01*
X68056434Y-89627432D01*
X68038535Y-89649242D01*
X66925744Y-90762034D01*
X66903934Y-90779933D01*
X66853118Y-90841852D01*
X67139954Y-90307694D01*
X67334740Y-89669992D01*
X67401372Y-89006543D01*
X67337292Y-88342842D01*
X67199068Y-87884000D01*
X68099928Y-87884000D01*
X68103000Y-88360250D01*
X68261750Y-88519000D01*
X69373000Y-88519000D01*
X69373000Y-87407750D01*
X69627000Y-87407750D01*
X69627000Y-88519000D01*
X70738250Y-88519000D01*
X70897000Y-88360250D01*
X70900072Y-87884000D01*
X70887812Y-87759518D01*
X70851502Y-87639820D01*
X70792537Y-87529506D01*
X70713185Y-87432815D01*
X70616494Y-87353463D01*
X70506180Y-87294498D01*
X70386482Y-87258188D01*
X70262000Y-87245928D01*
X69785750Y-87249000D01*
X69627000Y-87407750D01*
X69373000Y-87407750D01*
X69214250Y-87249000D01*
X68738000Y-87245928D01*
X68613518Y-87258188D01*
X68493820Y-87294498D01*
X68383506Y-87353463D01*
X68286815Y-87432815D01*
X68207463Y-87529506D01*
X68148498Y-87639820D01*
X68112188Y-87759518D01*
X68099928Y-87884000D01*
X67199068Y-87884000D01*
X67144962Y-87704395D01*
X66831772Y-87115738D01*
X66824503Y-87104859D01*
X66380928Y-86798677D01*
X64179605Y-89000000D01*
X63820395Y-89000000D01*
X61619072Y-86798677D01*
X61175497Y-87104859D01*
X60860046Y-87692306D01*
X60665260Y-88330008D01*
X60598628Y-88993457D01*
X60406000Y-88993457D01*
X60406000Y-86619072D01*
X61798677Y-86619072D01*
X64000000Y-88820395D01*
X66201323Y-86619072D01*
X98798677Y-86619072D01*
X101000000Y-88820395D01*
X103201323Y-86619072D01*
X102895141Y-86175497D01*
X102307694Y-85860046D01*
X101669992Y-85665260D01*
X101006543Y-85598628D01*
X100342842Y-85662708D01*
X99704395Y-85855038D01*
X99115738Y-86168228D01*
X99104859Y-86175497D01*
X98798677Y-86619072D01*
X66201323Y-86619072D01*
X65895141Y-86175497D01*
X65307694Y-85860046D01*
X64669992Y-85665260D01*
X64006543Y-85598628D01*
X63342842Y-85662708D01*
X62704395Y-85855038D01*
X62115738Y-86168228D01*
X62104859Y-86175497D01*
X61798677Y-86619072D01*
X60406000Y-86619072D01*
X60406000Y-85406000D01*
X104594001Y-85406000D01*
X104594000Y-149594000D01*
M02*
