G04 #@! TF.GenerationSoftware,KiCad,Pcbnew,(5.1.5)-3*
G04 #@! TF.CreationDate,2020-05-08T00:55:34-06:00*
G04 #@! TF.ProjectId,camera,63616d65-7261-42e6-9b69-6361645f7063,rev?*
G04 #@! TF.SameCoordinates,Original*
G04 #@! TF.FileFunction,Paste,Top*
G04 #@! TF.FilePolarity,Positive*
%FSLAX46Y46*%
G04 Gerber Fmt 4.6, Leading zero omitted, Abs format (unit mm)*
G04 Created by KiCad (PCBNEW (5.1.5)-3) date 2020-05-08 00:55:34*
%MOMM*%
%LPD*%
G04 APERTURE LIST*
%ADD10C,0.100000*%
%ADD11R,2.000000X3.800000*%
%ADD12R,2.000000X1.500000*%
G04 APERTURE END LIST*
D10*
G36*
X71911779Y-147850144D02*
G01*
X71934834Y-147853563D01*
X71957443Y-147859227D01*
X71979387Y-147867079D01*
X72000457Y-147877044D01*
X72020448Y-147889026D01*
X72039168Y-147902910D01*
X72056438Y-147918562D01*
X72072090Y-147935832D01*
X72085974Y-147954552D01*
X72097956Y-147974543D01*
X72107921Y-147995613D01*
X72115773Y-148017557D01*
X72121437Y-148040166D01*
X72124856Y-148063221D01*
X72126000Y-148086500D01*
X72126000Y-148561500D01*
X72124856Y-148584779D01*
X72121437Y-148607834D01*
X72115773Y-148630443D01*
X72107921Y-148652387D01*
X72097956Y-148673457D01*
X72085974Y-148693448D01*
X72072090Y-148712168D01*
X72056438Y-148729438D01*
X72039168Y-148745090D01*
X72020448Y-148758974D01*
X72000457Y-148770956D01*
X71979387Y-148780921D01*
X71957443Y-148788773D01*
X71934834Y-148794437D01*
X71911779Y-148797856D01*
X71888500Y-148799000D01*
X71313500Y-148799000D01*
X71290221Y-148797856D01*
X71267166Y-148794437D01*
X71244557Y-148788773D01*
X71222613Y-148780921D01*
X71201543Y-148770956D01*
X71181552Y-148758974D01*
X71162832Y-148745090D01*
X71145562Y-148729438D01*
X71129910Y-148712168D01*
X71116026Y-148693448D01*
X71104044Y-148673457D01*
X71094079Y-148652387D01*
X71086227Y-148630443D01*
X71080563Y-148607834D01*
X71077144Y-148584779D01*
X71076000Y-148561500D01*
X71076000Y-148086500D01*
X71077144Y-148063221D01*
X71080563Y-148040166D01*
X71086227Y-148017557D01*
X71094079Y-147995613D01*
X71104044Y-147974543D01*
X71116026Y-147954552D01*
X71129910Y-147935832D01*
X71145562Y-147918562D01*
X71162832Y-147902910D01*
X71181552Y-147889026D01*
X71201543Y-147877044D01*
X71222613Y-147867079D01*
X71244557Y-147859227D01*
X71267166Y-147853563D01*
X71290221Y-147850144D01*
X71313500Y-147849000D01*
X71888500Y-147849000D01*
X71911779Y-147850144D01*
G37*
G36*
X70161779Y-147850144D02*
G01*
X70184834Y-147853563D01*
X70207443Y-147859227D01*
X70229387Y-147867079D01*
X70250457Y-147877044D01*
X70270448Y-147889026D01*
X70289168Y-147902910D01*
X70306438Y-147918562D01*
X70322090Y-147935832D01*
X70335974Y-147954552D01*
X70347956Y-147974543D01*
X70357921Y-147995613D01*
X70365773Y-148017557D01*
X70371437Y-148040166D01*
X70374856Y-148063221D01*
X70376000Y-148086500D01*
X70376000Y-148561500D01*
X70374856Y-148584779D01*
X70371437Y-148607834D01*
X70365773Y-148630443D01*
X70357921Y-148652387D01*
X70347956Y-148673457D01*
X70335974Y-148693448D01*
X70322090Y-148712168D01*
X70306438Y-148729438D01*
X70289168Y-148745090D01*
X70270448Y-148758974D01*
X70250457Y-148770956D01*
X70229387Y-148780921D01*
X70207443Y-148788773D01*
X70184834Y-148794437D01*
X70161779Y-148797856D01*
X70138500Y-148799000D01*
X69563500Y-148799000D01*
X69540221Y-148797856D01*
X69517166Y-148794437D01*
X69494557Y-148788773D01*
X69472613Y-148780921D01*
X69451543Y-148770956D01*
X69431552Y-148758974D01*
X69412832Y-148745090D01*
X69395562Y-148729438D01*
X69379910Y-148712168D01*
X69366026Y-148693448D01*
X69354044Y-148673457D01*
X69344079Y-148652387D01*
X69336227Y-148630443D01*
X69330563Y-148607834D01*
X69327144Y-148584779D01*
X69326000Y-148561500D01*
X69326000Y-148086500D01*
X69327144Y-148063221D01*
X69330563Y-148040166D01*
X69336227Y-148017557D01*
X69344079Y-147995613D01*
X69354044Y-147974543D01*
X69366026Y-147954552D01*
X69379910Y-147935832D01*
X69395562Y-147918562D01*
X69412832Y-147902910D01*
X69431552Y-147889026D01*
X69451543Y-147877044D01*
X69472613Y-147867079D01*
X69494557Y-147859227D01*
X69517166Y-147853563D01*
X69540221Y-147850144D01*
X69563500Y-147849000D01*
X70138500Y-147849000D01*
X70161779Y-147850144D01*
G37*
G36*
X93669779Y-147850144D02*
G01*
X93692834Y-147853563D01*
X93715443Y-147859227D01*
X93737387Y-147867079D01*
X93758457Y-147877044D01*
X93778448Y-147889026D01*
X93797168Y-147902910D01*
X93814438Y-147918562D01*
X93830090Y-147935832D01*
X93843974Y-147954552D01*
X93855956Y-147974543D01*
X93865921Y-147995613D01*
X93873773Y-148017557D01*
X93879437Y-148040166D01*
X93882856Y-148063221D01*
X93884000Y-148086500D01*
X93884000Y-148561500D01*
X93882856Y-148584779D01*
X93879437Y-148607834D01*
X93873773Y-148630443D01*
X93865921Y-148652387D01*
X93855956Y-148673457D01*
X93843974Y-148693448D01*
X93830090Y-148712168D01*
X93814438Y-148729438D01*
X93797168Y-148745090D01*
X93778448Y-148758974D01*
X93758457Y-148770956D01*
X93737387Y-148780921D01*
X93715443Y-148788773D01*
X93692834Y-148794437D01*
X93669779Y-148797856D01*
X93646500Y-148799000D01*
X93071500Y-148799000D01*
X93048221Y-148797856D01*
X93025166Y-148794437D01*
X93002557Y-148788773D01*
X92980613Y-148780921D01*
X92959543Y-148770956D01*
X92939552Y-148758974D01*
X92920832Y-148745090D01*
X92903562Y-148729438D01*
X92887910Y-148712168D01*
X92874026Y-148693448D01*
X92862044Y-148673457D01*
X92852079Y-148652387D01*
X92844227Y-148630443D01*
X92838563Y-148607834D01*
X92835144Y-148584779D01*
X92834000Y-148561500D01*
X92834000Y-148086500D01*
X92835144Y-148063221D01*
X92838563Y-148040166D01*
X92844227Y-148017557D01*
X92852079Y-147995613D01*
X92862044Y-147974543D01*
X92874026Y-147954552D01*
X92887910Y-147935832D01*
X92903562Y-147918562D01*
X92920832Y-147902910D01*
X92939552Y-147889026D01*
X92959543Y-147877044D01*
X92980613Y-147867079D01*
X93002557Y-147859227D01*
X93025166Y-147853563D01*
X93048221Y-147850144D01*
X93071500Y-147849000D01*
X93646500Y-147849000D01*
X93669779Y-147850144D01*
G37*
G36*
X95419779Y-147850144D02*
G01*
X95442834Y-147853563D01*
X95465443Y-147859227D01*
X95487387Y-147867079D01*
X95508457Y-147877044D01*
X95528448Y-147889026D01*
X95547168Y-147902910D01*
X95564438Y-147918562D01*
X95580090Y-147935832D01*
X95593974Y-147954552D01*
X95605956Y-147974543D01*
X95615921Y-147995613D01*
X95623773Y-148017557D01*
X95629437Y-148040166D01*
X95632856Y-148063221D01*
X95634000Y-148086500D01*
X95634000Y-148561500D01*
X95632856Y-148584779D01*
X95629437Y-148607834D01*
X95623773Y-148630443D01*
X95615921Y-148652387D01*
X95605956Y-148673457D01*
X95593974Y-148693448D01*
X95580090Y-148712168D01*
X95564438Y-148729438D01*
X95547168Y-148745090D01*
X95528448Y-148758974D01*
X95508457Y-148770956D01*
X95487387Y-148780921D01*
X95465443Y-148788773D01*
X95442834Y-148794437D01*
X95419779Y-148797856D01*
X95396500Y-148799000D01*
X94821500Y-148799000D01*
X94798221Y-148797856D01*
X94775166Y-148794437D01*
X94752557Y-148788773D01*
X94730613Y-148780921D01*
X94709543Y-148770956D01*
X94689552Y-148758974D01*
X94670832Y-148745090D01*
X94653562Y-148729438D01*
X94637910Y-148712168D01*
X94624026Y-148693448D01*
X94612044Y-148673457D01*
X94602079Y-148652387D01*
X94594227Y-148630443D01*
X94588563Y-148607834D01*
X94585144Y-148584779D01*
X94584000Y-148561500D01*
X94584000Y-148086500D01*
X94585144Y-148063221D01*
X94588563Y-148040166D01*
X94594227Y-148017557D01*
X94602079Y-147995613D01*
X94612044Y-147974543D01*
X94624026Y-147954552D01*
X94637910Y-147935832D01*
X94653562Y-147918562D01*
X94670832Y-147902910D01*
X94689552Y-147889026D01*
X94709543Y-147877044D01*
X94730613Y-147867079D01*
X94752557Y-147859227D01*
X94775166Y-147853563D01*
X94798221Y-147850144D01*
X94821500Y-147849000D01*
X95396500Y-147849000D01*
X95419779Y-147850144D01*
G37*
G36*
X70206779Y-145830144D02*
G01*
X70229834Y-145833563D01*
X70252443Y-145839227D01*
X70274387Y-145847079D01*
X70295457Y-145857044D01*
X70315448Y-145869026D01*
X70334168Y-145882910D01*
X70351438Y-145898562D01*
X70367090Y-145915832D01*
X70380974Y-145934552D01*
X70392956Y-145954543D01*
X70402921Y-145975613D01*
X70410773Y-145997557D01*
X70416437Y-146020166D01*
X70419856Y-146043221D01*
X70421000Y-146066500D01*
X70421000Y-146541500D01*
X70419856Y-146564779D01*
X70416437Y-146587834D01*
X70410773Y-146610443D01*
X70402921Y-146632387D01*
X70392956Y-146653457D01*
X70380974Y-146673448D01*
X70367090Y-146692168D01*
X70351438Y-146709438D01*
X70334168Y-146725090D01*
X70315448Y-146738974D01*
X70295457Y-146750956D01*
X70274387Y-146760921D01*
X70252443Y-146768773D01*
X70229834Y-146774437D01*
X70206779Y-146777856D01*
X70183500Y-146779000D01*
X69608500Y-146779000D01*
X69585221Y-146777856D01*
X69562166Y-146774437D01*
X69539557Y-146768773D01*
X69517613Y-146760921D01*
X69496543Y-146750956D01*
X69476552Y-146738974D01*
X69457832Y-146725090D01*
X69440562Y-146709438D01*
X69424910Y-146692168D01*
X69411026Y-146673448D01*
X69399044Y-146653457D01*
X69389079Y-146632387D01*
X69381227Y-146610443D01*
X69375563Y-146587834D01*
X69372144Y-146564779D01*
X69371000Y-146541500D01*
X69371000Y-146066500D01*
X69372144Y-146043221D01*
X69375563Y-146020166D01*
X69381227Y-145997557D01*
X69389079Y-145975613D01*
X69399044Y-145954543D01*
X69411026Y-145934552D01*
X69424910Y-145915832D01*
X69440562Y-145898562D01*
X69457832Y-145882910D01*
X69476552Y-145869026D01*
X69496543Y-145857044D01*
X69517613Y-145847079D01*
X69539557Y-145839227D01*
X69562166Y-145833563D01*
X69585221Y-145830144D01*
X69608500Y-145829000D01*
X70183500Y-145829000D01*
X70206779Y-145830144D01*
G37*
G36*
X71956779Y-145830144D02*
G01*
X71979834Y-145833563D01*
X72002443Y-145839227D01*
X72024387Y-145847079D01*
X72045457Y-145857044D01*
X72065448Y-145869026D01*
X72084168Y-145882910D01*
X72101438Y-145898562D01*
X72117090Y-145915832D01*
X72130974Y-145934552D01*
X72142956Y-145954543D01*
X72152921Y-145975613D01*
X72160773Y-145997557D01*
X72166437Y-146020166D01*
X72169856Y-146043221D01*
X72171000Y-146066500D01*
X72171000Y-146541500D01*
X72169856Y-146564779D01*
X72166437Y-146587834D01*
X72160773Y-146610443D01*
X72152921Y-146632387D01*
X72142956Y-146653457D01*
X72130974Y-146673448D01*
X72117090Y-146692168D01*
X72101438Y-146709438D01*
X72084168Y-146725090D01*
X72065448Y-146738974D01*
X72045457Y-146750956D01*
X72024387Y-146760921D01*
X72002443Y-146768773D01*
X71979834Y-146774437D01*
X71956779Y-146777856D01*
X71933500Y-146779000D01*
X71358500Y-146779000D01*
X71335221Y-146777856D01*
X71312166Y-146774437D01*
X71289557Y-146768773D01*
X71267613Y-146760921D01*
X71246543Y-146750956D01*
X71226552Y-146738974D01*
X71207832Y-146725090D01*
X71190562Y-146709438D01*
X71174910Y-146692168D01*
X71161026Y-146673448D01*
X71149044Y-146653457D01*
X71139079Y-146632387D01*
X71131227Y-146610443D01*
X71125563Y-146587834D01*
X71122144Y-146564779D01*
X71121000Y-146541500D01*
X71121000Y-146066500D01*
X71122144Y-146043221D01*
X71125563Y-146020166D01*
X71131227Y-145997557D01*
X71139079Y-145975613D01*
X71149044Y-145954543D01*
X71161026Y-145934552D01*
X71174910Y-145915832D01*
X71190562Y-145898562D01*
X71207832Y-145882910D01*
X71226552Y-145869026D01*
X71246543Y-145857044D01*
X71267613Y-145847079D01*
X71289557Y-145839227D01*
X71312166Y-145833563D01*
X71335221Y-145830144D01*
X71358500Y-145829000D01*
X71933500Y-145829000D01*
X71956779Y-145830144D01*
G37*
G36*
X93986779Y-118820144D02*
G01*
X94009834Y-118823563D01*
X94032443Y-118829227D01*
X94054387Y-118837079D01*
X94075457Y-118847044D01*
X94095448Y-118859026D01*
X94114168Y-118872910D01*
X94131438Y-118888562D01*
X94147090Y-118905832D01*
X94160974Y-118924552D01*
X94172956Y-118944543D01*
X94182921Y-118965613D01*
X94190773Y-118987557D01*
X94196437Y-119010166D01*
X94199856Y-119033221D01*
X94201000Y-119056500D01*
X94201000Y-119631500D01*
X94199856Y-119654779D01*
X94196437Y-119677834D01*
X94190773Y-119700443D01*
X94182921Y-119722387D01*
X94172956Y-119743457D01*
X94160974Y-119763448D01*
X94147090Y-119782168D01*
X94131438Y-119799438D01*
X94114168Y-119815090D01*
X94095448Y-119828974D01*
X94075457Y-119840956D01*
X94054387Y-119850921D01*
X94032443Y-119858773D01*
X94009834Y-119864437D01*
X93986779Y-119867856D01*
X93963500Y-119869000D01*
X93488500Y-119869000D01*
X93465221Y-119867856D01*
X93442166Y-119864437D01*
X93419557Y-119858773D01*
X93397613Y-119850921D01*
X93376543Y-119840956D01*
X93356552Y-119828974D01*
X93337832Y-119815090D01*
X93320562Y-119799438D01*
X93304910Y-119782168D01*
X93291026Y-119763448D01*
X93279044Y-119743457D01*
X93269079Y-119722387D01*
X93261227Y-119700443D01*
X93255563Y-119677834D01*
X93252144Y-119654779D01*
X93251000Y-119631500D01*
X93251000Y-119056500D01*
X93252144Y-119033221D01*
X93255563Y-119010166D01*
X93261227Y-118987557D01*
X93269079Y-118965613D01*
X93279044Y-118944543D01*
X93291026Y-118924552D01*
X93304910Y-118905832D01*
X93320562Y-118888562D01*
X93337832Y-118872910D01*
X93356552Y-118859026D01*
X93376543Y-118847044D01*
X93397613Y-118837079D01*
X93419557Y-118829227D01*
X93442166Y-118823563D01*
X93465221Y-118820144D01*
X93488500Y-118819000D01*
X93963500Y-118819000D01*
X93986779Y-118820144D01*
G37*
G36*
X93986779Y-120570144D02*
G01*
X94009834Y-120573563D01*
X94032443Y-120579227D01*
X94054387Y-120587079D01*
X94075457Y-120597044D01*
X94095448Y-120609026D01*
X94114168Y-120622910D01*
X94131438Y-120638562D01*
X94147090Y-120655832D01*
X94160974Y-120674552D01*
X94172956Y-120694543D01*
X94182921Y-120715613D01*
X94190773Y-120737557D01*
X94196437Y-120760166D01*
X94199856Y-120783221D01*
X94201000Y-120806500D01*
X94201000Y-121381500D01*
X94199856Y-121404779D01*
X94196437Y-121427834D01*
X94190773Y-121450443D01*
X94182921Y-121472387D01*
X94172956Y-121493457D01*
X94160974Y-121513448D01*
X94147090Y-121532168D01*
X94131438Y-121549438D01*
X94114168Y-121565090D01*
X94095448Y-121578974D01*
X94075457Y-121590956D01*
X94054387Y-121600921D01*
X94032443Y-121608773D01*
X94009834Y-121614437D01*
X93986779Y-121617856D01*
X93963500Y-121619000D01*
X93488500Y-121619000D01*
X93465221Y-121617856D01*
X93442166Y-121614437D01*
X93419557Y-121608773D01*
X93397613Y-121600921D01*
X93376543Y-121590956D01*
X93356552Y-121578974D01*
X93337832Y-121565090D01*
X93320562Y-121549438D01*
X93304910Y-121532168D01*
X93291026Y-121513448D01*
X93279044Y-121493457D01*
X93269079Y-121472387D01*
X93261227Y-121450443D01*
X93255563Y-121427834D01*
X93252144Y-121404779D01*
X93251000Y-121381500D01*
X93251000Y-120806500D01*
X93252144Y-120783221D01*
X93255563Y-120760166D01*
X93261227Y-120737557D01*
X93269079Y-120715613D01*
X93279044Y-120694543D01*
X93291026Y-120674552D01*
X93304910Y-120655832D01*
X93320562Y-120638562D01*
X93337832Y-120622910D01*
X93356552Y-120609026D01*
X93376543Y-120597044D01*
X93397613Y-120587079D01*
X93419557Y-120579227D01*
X93442166Y-120573563D01*
X93465221Y-120570144D01*
X93488500Y-120569000D01*
X93963500Y-120569000D01*
X93986779Y-120570144D01*
G37*
G36*
X93986779Y-122720144D02*
G01*
X94009834Y-122723563D01*
X94032443Y-122729227D01*
X94054387Y-122737079D01*
X94075457Y-122747044D01*
X94095448Y-122759026D01*
X94114168Y-122772910D01*
X94131438Y-122788562D01*
X94147090Y-122805832D01*
X94160974Y-122824552D01*
X94172956Y-122844543D01*
X94182921Y-122865613D01*
X94190773Y-122887557D01*
X94196437Y-122910166D01*
X94199856Y-122933221D01*
X94201000Y-122956500D01*
X94201000Y-123531500D01*
X94199856Y-123554779D01*
X94196437Y-123577834D01*
X94190773Y-123600443D01*
X94182921Y-123622387D01*
X94172956Y-123643457D01*
X94160974Y-123663448D01*
X94147090Y-123682168D01*
X94131438Y-123699438D01*
X94114168Y-123715090D01*
X94095448Y-123728974D01*
X94075457Y-123740956D01*
X94054387Y-123750921D01*
X94032443Y-123758773D01*
X94009834Y-123764437D01*
X93986779Y-123767856D01*
X93963500Y-123769000D01*
X93488500Y-123769000D01*
X93465221Y-123767856D01*
X93442166Y-123764437D01*
X93419557Y-123758773D01*
X93397613Y-123750921D01*
X93376543Y-123740956D01*
X93356552Y-123728974D01*
X93337832Y-123715090D01*
X93320562Y-123699438D01*
X93304910Y-123682168D01*
X93291026Y-123663448D01*
X93279044Y-123643457D01*
X93269079Y-123622387D01*
X93261227Y-123600443D01*
X93255563Y-123577834D01*
X93252144Y-123554779D01*
X93251000Y-123531500D01*
X93251000Y-122956500D01*
X93252144Y-122933221D01*
X93255563Y-122910166D01*
X93261227Y-122887557D01*
X93269079Y-122865613D01*
X93279044Y-122844543D01*
X93291026Y-122824552D01*
X93304910Y-122805832D01*
X93320562Y-122788562D01*
X93337832Y-122772910D01*
X93356552Y-122759026D01*
X93376543Y-122747044D01*
X93397613Y-122737079D01*
X93419557Y-122729227D01*
X93442166Y-122723563D01*
X93465221Y-122720144D01*
X93488500Y-122719000D01*
X93963500Y-122719000D01*
X93986779Y-122720144D01*
G37*
G36*
X93986779Y-124470144D02*
G01*
X94009834Y-124473563D01*
X94032443Y-124479227D01*
X94054387Y-124487079D01*
X94075457Y-124497044D01*
X94095448Y-124509026D01*
X94114168Y-124522910D01*
X94131438Y-124538562D01*
X94147090Y-124555832D01*
X94160974Y-124574552D01*
X94172956Y-124594543D01*
X94182921Y-124615613D01*
X94190773Y-124637557D01*
X94196437Y-124660166D01*
X94199856Y-124683221D01*
X94201000Y-124706500D01*
X94201000Y-125281500D01*
X94199856Y-125304779D01*
X94196437Y-125327834D01*
X94190773Y-125350443D01*
X94182921Y-125372387D01*
X94172956Y-125393457D01*
X94160974Y-125413448D01*
X94147090Y-125432168D01*
X94131438Y-125449438D01*
X94114168Y-125465090D01*
X94095448Y-125478974D01*
X94075457Y-125490956D01*
X94054387Y-125500921D01*
X94032443Y-125508773D01*
X94009834Y-125514437D01*
X93986779Y-125517856D01*
X93963500Y-125519000D01*
X93488500Y-125519000D01*
X93465221Y-125517856D01*
X93442166Y-125514437D01*
X93419557Y-125508773D01*
X93397613Y-125500921D01*
X93376543Y-125490956D01*
X93356552Y-125478974D01*
X93337832Y-125465090D01*
X93320562Y-125449438D01*
X93304910Y-125432168D01*
X93291026Y-125413448D01*
X93279044Y-125393457D01*
X93269079Y-125372387D01*
X93261227Y-125350443D01*
X93255563Y-125327834D01*
X93252144Y-125304779D01*
X93251000Y-125281500D01*
X93251000Y-124706500D01*
X93252144Y-124683221D01*
X93255563Y-124660166D01*
X93261227Y-124637557D01*
X93269079Y-124615613D01*
X93279044Y-124594543D01*
X93291026Y-124574552D01*
X93304910Y-124555832D01*
X93320562Y-124538562D01*
X93337832Y-124522910D01*
X93356552Y-124509026D01*
X93376543Y-124497044D01*
X93397613Y-124487079D01*
X93419557Y-124479227D01*
X93442166Y-124473563D01*
X93465221Y-124470144D01*
X93488500Y-124469000D01*
X93963500Y-124469000D01*
X93986779Y-124470144D01*
G37*
G36*
X93669779Y-145830144D02*
G01*
X93692834Y-145833563D01*
X93715443Y-145839227D01*
X93737387Y-145847079D01*
X93758457Y-145857044D01*
X93778448Y-145869026D01*
X93797168Y-145882910D01*
X93814438Y-145898562D01*
X93830090Y-145915832D01*
X93843974Y-145934552D01*
X93855956Y-145954543D01*
X93865921Y-145975613D01*
X93873773Y-145997557D01*
X93879437Y-146020166D01*
X93882856Y-146043221D01*
X93884000Y-146066500D01*
X93884000Y-146541500D01*
X93882856Y-146564779D01*
X93879437Y-146587834D01*
X93873773Y-146610443D01*
X93865921Y-146632387D01*
X93855956Y-146653457D01*
X93843974Y-146673448D01*
X93830090Y-146692168D01*
X93814438Y-146709438D01*
X93797168Y-146725090D01*
X93778448Y-146738974D01*
X93758457Y-146750956D01*
X93737387Y-146760921D01*
X93715443Y-146768773D01*
X93692834Y-146774437D01*
X93669779Y-146777856D01*
X93646500Y-146779000D01*
X93071500Y-146779000D01*
X93048221Y-146777856D01*
X93025166Y-146774437D01*
X93002557Y-146768773D01*
X92980613Y-146760921D01*
X92959543Y-146750956D01*
X92939552Y-146738974D01*
X92920832Y-146725090D01*
X92903562Y-146709438D01*
X92887910Y-146692168D01*
X92874026Y-146673448D01*
X92862044Y-146653457D01*
X92852079Y-146632387D01*
X92844227Y-146610443D01*
X92838563Y-146587834D01*
X92835144Y-146564779D01*
X92834000Y-146541500D01*
X92834000Y-146066500D01*
X92835144Y-146043221D01*
X92838563Y-146020166D01*
X92844227Y-145997557D01*
X92852079Y-145975613D01*
X92862044Y-145954543D01*
X92874026Y-145934552D01*
X92887910Y-145915832D01*
X92903562Y-145898562D01*
X92920832Y-145882910D01*
X92939552Y-145869026D01*
X92959543Y-145857044D01*
X92980613Y-145847079D01*
X93002557Y-145839227D01*
X93025166Y-145833563D01*
X93048221Y-145830144D01*
X93071500Y-145829000D01*
X93646500Y-145829000D01*
X93669779Y-145830144D01*
G37*
G36*
X95419779Y-145830144D02*
G01*
X95442834Y-145833563D01*
X95465443Y-145839227D01*
X95487387Y-145847079D01*
X95508457Y-145857044D01*
X95528448Y-145869026D01*
X95547168Y-145882910D01*
X95564438Y-145898562D01*
X95580090Y-145915832D01*
X95593974Y-145934552D01*
X95605956Y-145954543D01*
X95615921Y-145975613D01*
X95623773Y-145997557D01*
X95629437Y-146020166D01*
X95632856Y-146043221D01*
X95634000Y-146066500D01*
X95634000Y-146541500D01*
X95632856Y-146564779D01*
X95629437Y-146587834D01*
X95623773Y-146610443D01*
X95615921Y-146632387D01*
X95605956Y-146653457D01*
X95593974Y-146673448D01*
X95580090Y-146692168D01*
X95564438Y-146709438D01*
X95547168Y-146725090D01*
X95528448Y-146738974D01*
X95508457Y-146750956D01*
X95487387Y-146760921D01*
X95465443Y-146768773D01*
X95442834Y-146774437D01*
X95419779Y-146777856D01*
X95396500Y-146779000D01*
X94821500Y-146779000D01*
X94798221Y-146777856D01*
X94775166Y-146774437D01*
X94752557Y-146768773D01*
X94730613Y-146760921D01*
X94709543Y-146750956D01*
X94689552Y-146738974D01*
X94670832Y-146725090D01*
X94653562Y-146709438D01*
X94637910Y-146692168D01*
X94624026Y-146673448D01*
X94612044Y-146653457D01*
X94602079Y-146632387D01*
X94594227Y-146610443D01*
X94588563Y-146587834D01*
X94585144Y-146564779D01*
X94584000Y-146541500D01*
X94584000Y-146066500D01*
X94585144Y-146043221D01*
X94588563Y-146020166D01*
X94594227Y-145997557D01*
X94602079Y-145975613D01*
X94612044Y-145954543D01*
X94624026Y-145934552D01*
X94637910Y-145915832D01*
X94653562Y-145898562D01*
X94670832Y-145882910D01*
X94689552Y-145869026D01*
X94709543Y-145857044D01*
X94730613Y-145847079D01*
X94752557Y-145839227D01*
X94775166Y-145833563D01*
X94798221Y-145830144D01*
X94821500Y-145829000D01*
X95396500Y-145829000D01*
X95419779Y-145830144D01*
G37*
D11*
X102658000Y-122169000D03*
D12*
X96358000Y-122169000D03*
X96358000Y-124469000D03*
X96358000Y-119869000D03*
M02*
