G04 #@! TF.GenerationSoftware,KiCad,Pcbnew,(5.1.5)-3*
G04 #@! TF.CreationDate,2020-05-08T00:55:34-06:00*
G04 #@! TF.ProjectId,camera,63616d65-7261-42e6-9b69-6361645f7063,rev?*
G04 #@! TF.SameCoordinates,Original*
G04 #@! TF.FileFunction,Legend,Top*
G04 #@! TF.FilePolarity,Positive*
%FSLAX46Y46*%
G04 Gerber Fmt 4.6, Leading zero omitted, Abs format (unit mm)*
G04 Created by KiCad (PCBNEW (5.1.5)-3) date 2020-05-08 00:55:34*
%MOMM*%
%LPD*%
G04 APERTURE LIST*
%ADD10C,0.300000*%
%ADD11C,0.120000*%
%ADD12C,0.150000*%
G04 APERTURE END LIST*
D10*
X95548000Y-128972571D02*
X94833714Y-128972571D01*
X94762285Y-129686857D01*
X94833714Y-129615428D01*
X94976571Y-129544000D01*
X95333714Y-129544000D01*
X95476571Y-129615428D01*
X95548000Y-129686857D01*
X95619428Y-129829714D01*
X95619428Y-130186857D01*
X95548000Y-130329714D01*
X95476571Y-130401142D01*
X95333714Y-130472571D01*
X94976571Y-130472571D01*
X94833714Y-130401142D01*
X94762285Y-130329714D01*
X96048000Y-128972571D02*
X96548000Y-130472571D01*
X97048000Y-128972571D01*
X98976571Y-128972571D02*
X99262285Y-128972571D01*
X99405142Y-129044000D01*
X99548000Y-129186857D01*
X99619428Y-129472571D01*
X99619428Y-129972571D01*
X99548000Y-130258285D01*
X99405142Y-130401142D01*
X99262285Y-130472571D01*
X98976571Y-130472571D01*
X98833714Y-130401142D01*
X98690857Y-130258285D01*
X98619428Y-129972571D01*
X98619428Y-129472571D01*
X98690857Y-129186857D01*
X98833714Y-129044000D01*
X98976571Y-128972571D01*
X100905142Y-129472571D02*
X100905142Y-130472571D01*
X100262285Y-129472571D02*
X100262285Y-130258285D01*
X100333714Y-130401142D01*
X100476571Y-130472571D01*
X100690857Y-130472571D01*
X100833714Y-130401142D01*
X100905142Y-130329714D01*
X101405142Y-129472571D02*
X101976571Y-129472571D01*
X101619428Y-128972571D02*
X101619428Y-130258285D01*
X101690857Y-130401142D01*
X101833714Y-130472571D01*
X101976571Y-130472571D01*
X99492857Y-101032571D02*
X99992857Y-102532571D01*
X100492857Y-101032571D01*
X102135714Y-102532571D02*
X102135714Y-101532571D01*
X102135714Y-101032571D02*
X102064285Y-101104000D01*
X102135714Y-101175428D01*
X102207142Y-101104000D01*
X102135714Y-101032571D01*
X102135714Y-101175428D01*
X102850000Y-101532571D02*
X102850000Y-102532571D01*
X102850000Y-101675428D02*
X102921428Y-101604000D01*
X103064285Y-101532571D01*
X103278571Y-101532571D01*
X103421428Y-101604000D01*
X103492857Y-101746857D01*
X103492857Y-102532571D01*
X62543428Y-99822285D02*
X61043428Y-100322285D01*
X62543428Y-100822285D01*
X61043428Y-102108000D02*
X61043428Y-101250857D01*
X61043428Y-101679428D02*
X62543428Y-101679428D01*
X62329142Y-101536571D01*
X62186285Y-101393714D01*
X62114857Y-101250857D01*
X61186285Y-102750857D02*
X61114857Y-102822285D01*
X61043428Y-102750857D01*
X61114857Y-102679428D01*
X61186285Y-102750857D01*
X61043428Y-102750857D01*
X62543428Y-103750857D02*
X62543428Y-103893714D01*
X62472000Y-104036571D01*
X62400571Y-104108000D01*
X62257714Y-104179428D01*
X61972000Y-104250857D01*
X61614857Y-104250857D01*
X61329142Y-104179428D01*
X61186285Y-104108000D01*
X61114857Y-104036571D01*
X61043428Y-103893714D01*
X61043428Y-103750857D01*
X61114857Y-103608000D01*
X61186285Y-103536571D01*
X61329142Y-103465142D01*
X61614857Y-103393714D01*
X61972000Y-103393714D01*
X62257714Y-103465142D01*
X62400571Y-103536571D01*
X62472000Y-103608000D01*
X62543428Y-103750857D01*
X72243142Y-125031428D02*
X72243142Y-123888571D01*
X72243142Y-131127428D02*
X72243142Y-129984571D01*
D11*
X76160000Y-108204000D02*
X76160000Y-105664000D01*
X76160000Y-105664000D02*
X73490000Y-105664000D01*
X73490000Y-108204000D02*
X73490000Y-146434000D01*
X73490000Y-102994000D02*
X73490000Y-105664000D01*
X88860000Y-105664000D02*
X91530000Y-105664000D01*
X88860000Y-105664000D02*
X88860000Y-143764000D01*
X88860000Y-143764000D02*
X91530000Y-143764000D01*
X76160000Y-108204000D02*
X73490000Y-108204000D01*
X76160000Y-108204000D02*
X76160000Y-143764000D01*
X76160000Y-143764000D02*
X73490000Y-143764000D01*
X73490000Y-146434000D02*
X91530000Y-146434000D01*
X91530000Y-146434000D02*
X91530000Y-102994000D01*
X91530000Y-102994000D02*
X73490000Y-102994000D01*
X69926000Y-149059000D02*
X72386000Y-149059000D01*
X72386000Y-149059000D02*
X72386000Y-147589000D01*
X72386000Y-147589000D02*
X69926000Y-147589000D01*
X95894000Y-147589000D02*
X93434000Y-147589000D01*
X95894000Y-149059000D02*
X95894000Y-147589000D01*
X93434000Y-149059000D02*
X95894000Y-149059000D01*
X93398000Y-103259000D02*
X102518000Y-103259000D01*
X102518000Y-103259000D02*
X103518000Y-104259000D01*
X103518000Y-104259000D02*
X103518000Y-112129000D01*
X103518000Y-112129000D02*
X102518000Y-113129000D01*
X102518000Y-113129000D02*
X93398000Y-113129000D01*
X93398000Y-103259000D02*
X93398000Y-105684000D01*
X93398000Y-113129000D02*
X93398000Y-110345767D01*
X93398000Y-107704000D02*
X93398000Y-109042233D01*
X70599733Y-145794000D02*
X70942267Y-145794000D01*
X70599733Y-146814000D02*
X70942267Y-146814000D01*
X68230000Y-87122000D02*
X73564000Y-87122000D01*
X73564000Y-87122000D02*
X73564000Y-97790000D01*
X73564000Y-97790000D02*
X68230000Y-97790000D01*
X68230000Y-97790000D02*
X68230000Y-97790000D01*
X70770000Y-87630000D02*
X70770000Y-89916000D01*
X70770000Y-89916000D02*
X68484000Y-89916000D01*
X68484000Y-89916000D02*
X68484000Y-89916000D01*
X67900000Y-86546000D02*
X97100000Y-86546000D01*
X97100000Y-86546000D02*
X97100000Y-101996000D01*
X97100000Y-101996000D02*
X67900000Y-101996000D01*
X67900000Y-101996000D02*
X67900000Y-86546000D01*
X67900000Y-86546000D02*
X67900000Y-86546000D01*
X68230000Y-97790000D02*
X68230000Y-87122000D01*
X68230000Y-87122000D02*
X68230000Y-87122000D01*
X94236000Y-120047733D02*
X94236000Y-120390267D01*
X93216000Y-120047733D02*
X93216000Y-120390267D01*
X94236000Y-124290267D02*
X94236000Y-123947733D01*
X93216000Y-124290267D02*
X93216000Y-123947733D01*
X71448000Y-133919000D02*
X62328000Y-133919000D01*
X62328000Y-133919000D02*
X61328000Y-132919000D01*
X61328000Y-132919000D02*
X61328000Y-119049000D01*
X61328000Y-119049000D02*
X62328000Y-118049000D01*
X62328000Y-118049000D02*
X71448000Y-118049000D01*
X71448000Y-133919000D02*
X71448000Y-131494000D01*
X71448000Y-118049000D02*
X71448000Y-120832233D01*
X71448000Y-129474000D02*
X71448000Y-128135767D01*
X71448000Y-126832233D02*
X71448000Y-125135767D01*
X71448000Y-123832233D02*
X71448000Y-122135767D01*
X93398000Y-131209000D02*
X102518000Y-131209000D01*
X102518000Y-131209000D02*
X103518000Y-132209000D01*
X103518000Y-132209000D02*
X103518000Y-140079000D01*
X103518000Y-140079000D02*
X102518000Y-141079000D01*
X102518000Y-141079000D02*
X93398000Y-141079000D01*
X93398000Y-131209000D02*
X93398000Y-133634000D01*
X93398000Y-141079000D02*
X93398000Y-138295767D01*
X93398000Y-135654000D02*
X93398000Y-136992233D01*
X94062733Y-145794000D02*
X94405267Y-145794000D01*
X94062733Y-146814000D02*
X94405267Y-146814000D01*
X101418000Y-125579000D02*
X101418000Y-124319000D01*
X101418000Y-118759000D02*
X101418000Y-120019000D01*
X97658000Y-125579000D02*
X101418000Y-125579000D01*
X95408000Y-118759000D02*
X101418000Y-118759000D01*
D12*
X81795714Y-104052666D02*
X82271904Y-104052666D01*
X81700476Y-104338380D02*
X82033809Y-103338380D01*
X82367142Y-104338380D01*
X83224285Y-104338380D02*
X82652857Y-104338380D01*
X82938571Y-104338380D02*
X82938571Y-103338380D01*
X82843333Y-103481238D01*
X82748095Y-103576476D01*
X82652857Y-103624095D01*
X67333904Y-148776380D02*
X67333904Y-147776380D01*
X67572000Y-147776380D01*
X67714857Y-147824000D01*
X67810095Y-147919238D01*
X67857714Y-148014476D01*
X67905333Y-148204952D01*
X67905333Y-148347809D01*
X67857714Y-148538285D01*
X67810095Y-148633523D01*
X67714857Y-148728761D01*
X67572000Y-148776380D01*
X67333904Y-148776380D01*
X68857714Y-148776380D02*
X68286285Y-148776380D01*
X68572000Y-148776380D02*
X68572000Y-147776380D01*
X68476761Y-147919238D01*
X68381523Y-148014476D01*
X68286285Y-148062095D01*
X96289904Y-148776380D02*
X96289904Y-147776380D01*
X96528000Y-147776380D01*
X96670857Y-147824000D01*
X96766095Y-147919238D01*
X96813714Y-148014476D01*
X96861333Y-148204952D01*
X96861333Y-148347809D01*
X96813714Y-148538285D01*
X96766095Y-148633523D01*
X96670857Y-148728761D01*
X96528000Y-148776380D01*
X96289904Y-148776380D01*
X97242285Y-147871619D02*
X97289904Y-147824000D01*
X97385142Y-147776380D01*
X97623238Y-147776380D01*
X97718476Y-147824000D01*
X97766095Y-147871619D01*
X97813714Y-147966857D01*
X97813714Y-148062095D01*
X97766095Y-148204952D01*
X97194666Y-148776380D01*
X97813714Y-148776380D01*
X93392666Y-113752380D02*
X93392666Y-114466666D01*
X93345047Y-114609523D01*
X93249809Y-114704761D01*
X93106952Y-114752380D01*
X93011714Y-114752380D01*
X94392666Y-114752380D02*
X93821238Y-114752380D01*
X94106952Y-114752380D02*
X94106952Y-113752380D01*
X94011714Y-113895238D01*
X93916476Y-113990476D01*
X93821238Y-114038095D01*
X67950333Y-146756380D02*
X67617000Y-146280190D01*
X67378904Y-146756380D02*
X67378904Y-145756380D01*
X67759857Y-145756380D01*
X67855095Y-145804000D01*
X67902714Y-145851619D01*
X67950333Y-145946857D01*
X67950333Y-146089714D01*
X67902714Y-146184952D01*
X67855095Y-146232571D01*
X67759857Y-146280190D01*
X67378904Y-146280190D01*
X68902714Y-146756380D02*
X68331285Y-146756380D01*
X68617000Y-146756380D02*
X68617000Y-145756380D01*
X68521761Y-145899238D01*
X68426523Y-145994476D01*
X68331285Y-146042095D01*
X65786095Y-101052380D02*
X65786095Y-101861904D01*
X65833714Y-101957142D01*
X65881333Y-102004761D01*
X65976571Y-102052380D01*
X66167047Y-102052380D01*
X66262285Y-102004761D01*
X66309904Y-101957142D01*
X66357523Y-101861904D01*
X66357523Y-101052380D01*
X67357523Y-102052380D02*
X66786095Y-102052380D01*
X67071809Y-102052380D02*
X67071809Y-101052380D01*
X66976571Y-101195238D01*
X66881333Y-101290476D01*
X66786095Y-101338095D01*
X93559333Y-118290142D02*
X93511714Y-118337761D01*
X93368857Y-118385380D01*
X93273619Y-118385380D01*
X93130761Y-118337761D01*
X93035523Y-118242523D01*
X92987904Y-118147285D01*
X92940285Y-117956809D01*
X92940285Y-117813952D01*
X92987904Y-117623476D01*
X93035523Y-117528238D01*
X93130761Y-117433000D01*
X93273619Y-117385380D01*
X93368857Y-117385380D01*
X93511714Y-117433000D01*
X93559333Y-117480619D01*
X94511714Y-118385380D02*
X93940285Y-118385380D01*
X94226000Y-118385380D02*
X94226000Y-117385380D01*
X94130761Y-117528238D01*
X94035523Y-117623476D01*
X93940285Y-117671095D01*
X93559333Y-126762142D02*
X93511714Y-126809761D01*
X93368857Y-126857380D01*
X93273619Y-126857380D01*
X93130761Y-126809761D01*
X93035523Y-126714523D01*
X92987904Y-126619285D01*
X92940285Y-126428809D01*
X92940285Y-126285952D01*
X92987904Y-126095476D01*
X93035523Y-126000238D01*
X93130761Y-125905000D01*
X93273619Y-125857380D01*
X93368857Y-125857380D01*
X93511714Y-125905000D01*
X93559333Y-125952619D01*
X93940285Y-125952619D02*
X93987904Y-125905000D01*
X94083142Y-125857380D01*
X94321238Y-125857380D01*
X94416476Y-125905000D01*
X94464095Y-125952619D01*
X94511714Y-126047857D01*
X94511714Y-126143095D01*
X94464095Y-126285952D01*
X93892666Y-126857380D01*
X94511714Y-126857380D01*
X70786666Y-134580380D02*
X70786666Y-135294666D01*
X70739047Y-135437523D01*
X70643809Y-135532761D01*
X70500952Y-135580380D01*
X70405714Y-135580380D01*
X71215238Y-134675619D02*
X71262857Y-134628000D01*
X71358095Y-134580380D01*
X71596190Y-134580380D01*
X71691428Y-134628000D01*
X71739047Y-134675619D01*
X71786666Y-134770857D01*
X71786666Y-134866095D01*
X71739047Y-135008952D01*
X71167619Y-135580380D01*
X71786666Y-135580380D01*
X93392666Y-141692380D02*
X93392666Y-142406666D01*
X93345047Y-142549523D01*
X93249809Y-142644761D01*
X93106952Y-142692380D01*
X93011714Y-142692380D01*
X93773619Y-141692380D02*
X94392666Y-141692380D01*
X94059333Y-142073333D01*
X94202190Y-142073333D01*
X94297428Y-142120952D01*
X94345047Y-142168571D01*
X94392666Y-142263809D01*
X94392666Y-142501904D01*
X94345047Y-142597142D01*
X94297428Y-142644761D01*
X94202190Y-142692380D01*
X93916476Y-142692380D01*
X93821238Y-142644761D01*
X93773619Y-142597142D01*
X96861333Y-146756380D02*
X96528000Y-146280190D01*
X96289904Y-146756380D02*
X96289904Y-145756380D01*
X96670857Y-145756380D01*
X96766095Y-145804000D01*
X96813714Y-145851619D01*
X96861333Y-145946857D01*
X96861333Y-146089714D01*
X96813714Y-146184952D01*
X96766095Y-146232571D01*
X96670857Y-146280190D01*
X96289904Y-146280190D01*
X97242285Y-145851619D02*
X97289904Y-145804000D01*
X97385142Y-145756380D01*
X97623238Y-145756380D01*
X97718476Y-145804000D01*
X97766095Y-145851619D01*
X97813714Y-145946857D01*
X97813714Y-146042095D01*
X97766095Y-146184952D01*
X97194666Y-146756380D01*
X97813714Y-146756380D01*
X102362095Y-126198380D02*
X102362095Y-127007904D01*
X102409714Y-127103142D01*
X102457333Y-127150761D01*
X102552571Y-127198380D01*
X102743047Y-127198380D01*
X102838285Y-127150761D01*
X102885904Y-127103142D01*
X102933523Y-127007904D01*
X102933523Y-126198380D01*
X103362095Y-126293619D02*
X103409714Y-126246000D01*
X103504952Y-126198380D01*
X103743047Y-126198380D01*
X103838285Y-126246000D01*
X103885904Y-126293619D01*
X103933523Y-126388857D01*
X103933523Y-126484095D01*
X103885904Y-126626952D01*
X103314476Y-127198380D01*
X103933523Y-127198380D01*
M02*
