M48
; DRILL file {KiCad (5.1.5)-3} date 5/8/2020 1:18:28 AM
; FORMAT={-:-/ absolute / inch / decimal}
; #@! TF.CreationDate,2020-05-08T01:18:28-06:00
; #@! TF.GenerationSoftware,Kicad,Pcbnew,(5.1.5)-3
; #@! TF.FileFunction,Plated,1,2,PTH
FMAT,2
INCH
T1C0.0157
T2C0.0300
T3C0.0315
T4C0.0402
T5C0.1260
%
G90
G05
T1
X4.4907Y-2.9607
X4.4907Y-3.5507
X5.1357Y-3.3057
X5.3657Y-2.6107
X5.4607Y-2.0207
X5.5907Y-2.9807
X5.6157Y-3.1157
X5.6307Y-3.2907
X6.0507Y-3.2907
T2
X4.7047Y-1.9
X4.7047Y-2.0
X4.7047Y-2.1
X4.7047Y-2.2
X4.8047Y-1.9
X4.8047Y-2.0
X4.8047Y-2.1
X4.8047Y-2.2
T3
X4.9169Y-2.6311
X4.9169Y-2.7311
X4.9169Y-2.8311
X4.9169Y-2.9311
X4.9169Y-3.0311
X4.9169Y-3.1311
X4.9169Y-3.2311
X4.9169Y-3.3311
X4.9169Y-3.4311
X4.9169Y-3.5311
X4.9169Y-3.6311
X4.9169Y-3.7311
X4.9169Y-3.8311
X4.9169Y-3.9311
X4.9169Y-4.0311
X5.5169Y-2.6311
X5.5169Y-2.7311
X5.5169Y-2.8311
X5.5169Y-2.9311
X5.5169Y-3.0311
X5.5169Y-3.1311
X5.5169Y-3.2311
X5.5169Y-3.3311
X5.5169Y-3.4311
X5.5169Y-3.5311
X5.5169Y-3.6311
X5.5169Y-3.7311
X5.5169Y-3.8311
X5.5169Y-3.9311
X5.5169Y-4.0311
T4
X4.7357Y-2.6217
X4.7357Y-2.7398
X4.7357Y-3.7707
X4.7357Y-3.8888
X5.6957Y-2.6217
X5.6957Y-2.7398
X4.7357Y-3.1962
X4.7357Y-3.3143
X5.6957Y-3.6526
X5.6957Y-3.7707
X5.6957Y-3.8888
T5
X4.4882Y-4.1732
X5.9449Y-4.1732
X4.4882Y-1.9291
X5.9449Y-1.9291
T0
M30
