G04 #@! TF.GenerationSoftware,KiCad,Pcbnew,(5.1.5)-3*
G04 #@! TF.CreationDate,2020-05-08T01:18:23-06:00*
G04 #@! TF.ProjectId,cap,6361702e-6b69-4636-9164-5f7063625858,rev?*
G04 #@! TF.SameCoordinates,Original*
G04 #@! TF.FileFunction,Paste,Top*
G04 #@! TF.FilePolarity,Positive*
%FSLAX46Y46*%
G04 Gerber Fmt 4.6, Leading zero omitted, Abs format (unit mm)*
G04 Created by KiCad (PCBNEW (5.1.5)-3) date 2020-05-08 01:18:23*
%MOMM*%
%LPD*%
G04 APERTURE LIST*
%ADD10C,0.100000*%
%ADD11R,0.650000X1.060000*%
G04 APERTURE END LIST*
D10*
G36*
X121314691Y-89079053D02*
G01*
X121335926Y-89082203D01*
X121356750Y-89087419D01*
X121376962Y-89094651D01*
X121396368Y-89103830D01*
X121414781Y-89114866D01*
X121432024Y-89127654D01*
X121447930Y-89142070D01*
X121462346Y-89157976D01*
X121475134Y-89175219D01*
X121486170Y-89193632D01*
X121495349Y-89213038D01*
X121502581Y-89233250D01*
X121507797Y-89254074D01*
X121510947Y-89275309D01*
X121512000Y-89296750D01*
X121512000Y-89809250D01*
X121510947Y-89830691D01*
X121507797Y-89851926D01*
X121502581Y-89872750D01*
X121495349Y-89892962D01*
X121486170Y-89912368D01*
X121475134Y-89930781D01*
X121462346Y-89948024D01*
X121447930Y-89963930D01*
X121432024Y-89978346D01*
X121414781Y-89991134D01*
X121396368Y-90002170D01*
X121376962Y-90011349D01*
X121356750Y-90018581D01*
X121335926Y-90023797D01*
X121314691Y-90026947D01*
X121293250Y-90028000D01*
X120855750Y-90028000D01*
X120834309Y-90026947D01*
X120813074Y-90023797D01*
X120792250Y-90018581D01*
X120772038Y-90011349D01*
X120752632Y-90002170D01*
X120734219Y-89991134D01*
X120716976Y-89978346D01*
X120701070Y-89963930D01*
X120686654Y-89948024D01*
X120673866Y-89930781D01*
X120662830Y-89912368D01*
X120653651Y-89892962D01*
X120646419Y-89872750D01*
X120641203Y-89851926D01*
X120638053Y-89830691D01*
X120637000Y-89809250D01*
X120637000Y-89296750D01*
X120638053Y-89275309D01*
X120641203Y-89254074D01*
X120646419Y-89233250D01*
X120653651Y-89213038D01*
X120662830Y-89193632D01*
X120673866Y-89175219D01*
X120686654Y-89157976D01*
X120701070Y-89142070D01*
X120716976Y-89127654D01*
X120734219Y-89114866D01*
X120752632Y-89103830D01*
X120772038Y-89094651D01*
X120792250Y-89087419D01*
X120813074Y-89082203D01*
X120834309Y-89079053D01*
X120855750Y-89078000D01*
X121293250Y-89078000D01*
X121314691Y-89079053D01*
G37*
G36*
X119739691Y-89079053D02*
G01*
X119760926Y-89082203D01*
X119781750Y-89087419D01*
X119801962Y-89094651D01*
X119821368Y-89103830D01*
X119839781Y-89114866D01*
X119857024Y-89127654D01*
X119872930Y-89142070D01*
X119887346Y-89157976D01*
X119900134Y-89175219D01*
X119911170Y-89193632D01*
X119920349Y-89213038D01*
X119927581Y-89233250D01*
X119932797Y-89254074D01*
X119935947Y-89275309D01*
X119937000Y-89296750D01*
X119937000Y-89809250D01*
X119935947Y-89830691D01*
X119932797Y-89851926D01*
X119927581Y-89872750D01*
X119920349Y-89892962D01*
X119911170Y-89912368D01*
X119900134Y-89930781D01*
X119887346Y-89948024D01*
X119872930Y-89963930D01*
X119857024Y-89978346D01*
X119839781Y-89991134D01*
X119821368Y-90002170D01*
X119801962Y-90011349D01*
X119781750Y-90018581D01*
X119760926Y-90023797D01*
X119739691Y-90026947D01*
X119718250Y-90028000D01*
X119280750Y-90028000D01*
X119259309Y-90026947D01*
X119238074Y-90023797D01*
X119217250Y-90018581D01*
X119197038Y-90011349D01*
X119177632Y-90002170D01*
X119159219Y-89991134D01*
X119141976Y-89978346D01*
X119126070Y-89963930D01*
X119111654Y-89948024D01*
X119098866Y-89930781D01*
X119087830Y-89912368D01*
X119078651Y-89892962D01*
X119071419Y-89872750D01*
X119066203Y-89851926D01*
X119063053Y-89830691D01*
X119062000Y-89809250D01*
X119062000Y-89296750D01*
X119063053Y-89275309D01*
X119066203Y-89254074D01*
X119071419Y-89233250D01*
X119078651Y-89213038D01*
X119087830Y-89193632D01*
X119098866Y-89175219D01*
X119111654Y-89157976D01*
X119126070Y-89142070D01*
X119141976Y-89127654D01*
X119159219Y-89114866D01*
X119177632Y-89103830D01*
X119197038Y-89094651D01*
X119217250Y-89087419D01*
X119238074Y-89082203D01*
X119259309Y-89079053D01*
X119280750Y-89078000D01*
X119718250Y-89078000D01*
X119739691Y-89079053D01*
G37*
G36*
X149918691Y-73879053D02*
G01*
X149939926Y-73882203D01*
X149960750Y-73887419D01*
X149980962Y-73894651D01*
X150000368Y-73903830D01*
X150018781Y-73914866D01*
X150036024Y-73927654D01*
X150051930Y-73942070D01*
X150066346Y-73957976D01*
X150079134Y-73975219D01*
X150090170Y-73993632D01*
X150099349Y-74013038D01*
X150106581Y-74033250D01*
X150111797Y-74054074D01*
X150114947Y-74075309D01*
X150116000Y-74096750D01*
X150116000Y-74609250D01*
X150114947Y-74630691D01*
X150111797Y-74651926D01*
X150106581Y-74672750D01*
X150099349Y-74692962D01*
X150090170Y-74712368D01*
X150079134Y-74730781D01*
X150066346Y-74748024D01*
X150051930Y-74763930D01*
X150036024Y-74778346D01*
X150018781Y-74791134D01*
X150000368Y-74802170D01*
X149980962Y-74811349D01*
X149960750Y-74818581D01*
X149939926Y-74823797D01*
X149918691Y-74826947D01*
X149897250Y-74828000D01*
X149459750Y-74828000D01*
X149438309Y-74826947D01*
X149417074Y-74823797D01*
X149396250Y-74818581D01*
X149376038Y-74811349D01*
X149356632Y-74802170D01*
X149338219Y-74791134D01*
X149320976Y-74778346D01*
X149305070Y-74763930D01*
X149290654Y-74748024D01*
X149277866Y-74730781D01*
X149266830Y-74712368D01*
X149257651Y-74692962D01*
X149250419Y-74672750D01*
X149245203Y-74651926D01*
X149242053Y-74630691D01*
X149241000Y-74609250D01*
X149241000Y-74096750D01*
X149242053Y-74075309D01*
X149245203Y-74054074D01*
X149250419Y-74033250D01*
X149257651Y-74013038D01*
X149266830Y-73993632D01*
X149277866Y-73975219D01*
X149290654Y-73957976D01*
X149305070Y-73942070D01*
X149320976Y-73927654D01*
X149338219Y-73914866D01*
X149356632Y-73903830D01*
X149376038Y-73894651D01*
X149396250Y-73887419D01*
X149417074Y-73882203D01*
X149438309Y-73879053D01*
X149459750Y-73878000D01*
X149897250Y-73878000D01*
X149918691Y-73879053D01*
G37*
G36*
X148343691Y-73879053D02*
G01*
X148364926Y-73882203D01*
X148385750Y-73887419D01*
X148405962Y-73894651D01*
X148425368Y-73903830D01*
X148443781Y-73914866D01*
X148461024Y-73927654D01*
X148476930Y-73942070D01*
X148491346Y-73957976D01*
X148504134Y-73975219D01*
X148515170Y-73993632D01*
X148524349Y-74013038D01*
X148531581Y-74033250D01*
X148536797Y-74054074D01*
X148539947Y-74075309D01*
X148541000Y-74096750D01*
X148541000Y-74609250D01*
X148539947Y-74630691D01*
X148536797Y-74651926D01*
X148531581Y-74672750D01*
X148524349Y-74692962D01*
X148515170Y-74712368D01*
X148504134Y-74730781D01*
X148491346Y-74748024D01*
X148476930Y-74763930D01*
X148461024Y-74778346D01*
X148443781Y-74791134D01*
X148425368Y-74802170D01*
X148405962Y-74811349D01*
X148385750Y-74818581D01*
X148364926Y-74823797D01*
X148343691Y-74826947D01*
X148322250Y-74828000D01*
X147884750Y-74828000D01*
X147863309Y-74826947D01*
X147842074Y-74823797D01*
X147821250Y-74818581D01*
X147801038Y-74811349D01*
X147781632Y-74802170D01*
X147763219Y-74791134D01*
X147745976Y-74778346D01*
X147730070Y-74763930D01*
X147715654Y-74748024D01*
X147702866Y-74730781D01*
X147691830Y-74712368D01*
X147682651Y-74692962D01*
X147675419Y-74672750D01*
X147670203Y-74651926D01*
X147667053Y-74630691D01*
X147666000Y-74609250D01*
X147666000Y-74096750D01*
X147667053Y-74075309D01*
X147670203Y-74054074D01*
X147675419Y-74033250D01*
X147682651Y-74013038D01*
X147691830Y-73993632D01*
X147702866Y-73975219D01*
X147715654Y-73957976D01*
X147730070Y-73942070D01*
X147745976Y-73927654D01*
X147763219Y-73914866D01*
X147781632Y-73903830D01*
X147801038Y-73894651D01*
X147821250Y-73887419D01*
X147842074Y-73882203D01*
X147863309Y-73879053D01*
X147884750Y-73878000D01*
X148322250Y-73878000D01*
X148343691Y-73879053D01*
G37*
G36*
X144591691Y-78423053D02*
G01*
X144612926Y-78426203D01*
X144633750Y-78431419D01*
X144653962Y-78438651D01*
X144673368Y-78447830D01*
X144691781Y-78458866D01*
X144709024Y-78471654D01*
X144724930Y-78486070D01*
X144739346Y-78501976D01*
X144752134Y-78519219D01*
X144763170Y-78537632D01*
X144772349Y-78557038D01*
X144779581Y-78577250D01*
X144784797Y-78598074D01*
X144787947Y-78619309D01*
X144789000Y-78640750D01*
X144789000Y-79078250D01*
X144787947Y-79099691D01*
X144784797Y-79120926D01*
X144779581Y-79141750D01*
X144772349Y-79161962D01*
X144763170Y-79181368D01*
X144752134Y-79199781D01*
X144739346Y-79217024D01*
X144724930Y-79232930D01*
X144709024Y-79247346D01*
X144691781Y-79260134D01*
X144673368Y-79271170D01*
X144653962Y-79280349D01*
X144633750Y-79287581D01*
X144612926Y-79292797D01*
X144591691Y-79295947D01*
X144570250Y-79297000D01*
X144057750Y-79297000D01*
X144036309Y-79295947D01*
X144015074Y-79292797D01*
X143994250Y-79287581D01*
X143974038Y-79280349D01*
X143954632Y-79271170D01*
X143936219Y-79260134D01*
X143918976Y-79247346D01*
X143903070Y-79232930D01*
X143888654Y-79217024D01*
X143875866Y-79199781D01*
X143864830Y-79181368D01*
X143855651Y-79161962D01*
X143848419Y-79141750D01*
X143843203Y-79120926D01*
X143840053Y-79099691D01*
X143839000Y-79078250D01*
X143839000Y-78640750D01*
X143840053Y-78619309D01*
X143843203Y-78598074D01*
X143848419Y-78577250D01*
X143855651Y-78557038D01*
X143864830Y-78537632D01*
X143875866Y-78519219D01*
X143888654Y-78501976D01*
X143903070Y-78486070D01*
X143918976Y-78471654D01*
X143936219Y-78458866D01*
X143954632Y-78447830D01*
X143974038Y-78438651D01*
X143994250Y-78431419D01*
X144015074Y-78426203D01*
X144036309Y-78423053D01*
X144057750Y-78422000D01*
X144570250Y-78422000D01*
X144591691Y-78423053D01*
G37*
G36*
X144591691Y-79998053D02*
G01*
X144612926Y-80001203D01*
X144633750Y-80006419D01*
X144653962Y-80013651D01*
X144673368Y-80022830D01*
X144691781Y-80033866D01*
X144709024Y-80046654D01*
X144724930Y-80061070D01*
X144739346Y-80076976D01*
X144752134Y-80094219D01*
X144763170Y-80112632D01*
X144772349Y-80132038D01*
X144779581Y-80152250D01*
X144784797Y-80173074D01*
X144787947Y-80194309D01*
X144789000Y-80215750D01*
X144789000Y-80653250D01*
X144787947Y-80674691D01*
X144784797Y-80695926D01*
X144779581Y-80716750D01*
X144772349Y-80736962D01*
X144763170Y-80756368D01*
X144752134Y-80774781D01*
X144739346Y-80792024D01*
X144724930Y-80807930D01*
X144709024Y-80822346D01*
X144691781Y-80835134D01*
X144673368Y-80846170D01*
X144653962Y-80855349D01*
X144633750Y-80862581D01*
X144612926Y-80867797D01*
X144591691Y-80870947D01*
X144570250Y-80872000D01*
X144057750Y-80872000D01*
X144036309Y-80870947D01*
X144015074Y-80867797D01*
X143994250Y-80862581D01*
X143974038Y-80855349D01*
X143954632Y-80846170D01*
X143936219Y-80835134D01*
X143918976Y-80822346D01*
X143903070Y-80807930D01*
X143888654Y-80792024D01*
X143875866Y-80774781D01*
X143864830Y-80756368D01*
X143855651Y-80736962D01*
X143848419Y-80716750D01*
X143843203Y-80695926D01*
X143840053Y-80674691D01*
X143839000Y-80653250D01*
X143839000Y-80215750D01*
X143840053Y-80194309D01*
X143843203Y-80173074D01*
X143848419Y-80152250D01*
X143855651Y-80132038D01*
X143864830Y-80112632D01*
X143875866Y-80094219D01*
X143888654Y-80076976D01*
X143903070Y-80061070D01*
X143918976Y-80046654D01*
X143936219Y-80033866D01*
X143954632Y-80022830D01*
X143974038Y-80013651D01*
X143994250Y-80006419D01*
X144015074Y-80001203D01*
X144036309Y-79998053D01*
X144057750Y-79997000D01*
X144570250Y-79997000D01*
X144591691Y-79998053D01*
G37*
G36*
X144591691Y-75121053D02*
G01*
X144612926Y-75124203D01*
X144633750Y-75129419D01*
X144653962Y-75136651D01*
X144673368Y-75145830D01*
X144691781Y-75156866D01*
X144709024Y-75169654D01*
X144724930Y-75184070D01*
X144739346Y-75199976D01*
X144752134Y-75217219D01*
X144763170Y-75235632D01*
X144772349Y-75255038D01*
X144779581Y-75275250D01*
X144784797Y-75296074D01*
X144787947Y-75317309D01*
X144789000Y-75338750D01*
X144789000Y-75776250D01*
X144787947Y-75797691D01*
X144784797Y-75818926D01*
X144779581Y-75839750D01*
X144772349Y-75859962D01*
X144763170Y-75879368D01*
X144752134Y-75897781D01*
X144739346Y-75915024D01*
X144724930Y-75930930D01*
X144709024Y-75945346D01*
X144691781Y-75958134D01*
X144673368Y-75969170D01*
X144653962Y-75978349D01*
X144633750Y-75985581D01*
X144612926Y-75990797D01*
X144591691Y-75993947D01*
X144570250Y-75995000D01*
X144057750Y-75995000D01*
X144036309Y-75993947D01*
X144015074Y-75990797D01*
X143994250Y-75985581D01*
X143974038Y-75978349D01*
X143954632Y-75969170D01*
X143936219Y-75958134D01*
X143918976Y-75945346D01*
X143903070Y-75930930D01*
X143888654Y-75915024D01*
X143875866Y-75897781D01*
X143864830Y-75879368D01*
X143855651Y-75859962D01*
X143848419Y-75839750D01*
X143843203Y-75818926D01*
X143840053Y-75797691D01*
X143839000Y-75776250D01*
X143839000Y-75338750D01*
X143840053Y-75317309D01*
X143843203Y-75296074D01*
X143848419Y-75275250D01*
X143855651Y-75255038D01*
X143864830Y-75235632D01*
X143875866Y-75217219D01*
X143888654Y-75199976D01*
X143903070Y-75184070D01*
X143918976Y-75169654D01*
X143936219Y-75156866D01*
X143954632Y-75145830D01*
X143974038Y-75136651D01*
X143994250Y-75129419D01*
X144015074Y-75124203D01*
X144036309Y-75121053D01*
X144057750Y-75120000D01*
X144570250Y-75120000D01*
X144591691Y-75121053D01*
G37*
G36*
X144591691Y-76696053D02*
G01*
X144612926Y-76699203D01*
X144633750Y-76704419D01*
X144653962Y-76711651D01*
X144673368Y-76720830D01*
X144691781Y-76731866D01*
X144709024Y-76744654D01*
X144724930Y-76759070D01*
X144739346Y-76774976D01*
X144752134Y-76792219D01*
X144763170Y-76810632D01*
X144772349Y-76830038D01*
X144779581Y-76850250D01*
X144784797Y-76871074D01*
X144787947Y-76892309D01*
X144789000Y-76913750D01*
X144789000Y-77351250D01*
X144787947Y-77372691D01*
X144784797Y-77393926D01*
X144779581Y-77414750D01*
X144772349Y-77434962D01*
X144763170Y-77454368D01*
X144752134Y-77472781D01*
X144739346Y-77490024D01*
X144724930Y-77505930D01*
X144709024Y-77520346D01*
X144691781Y-77533134D01*
X144673368Y-77544170D01*
X144653962Y-77553349D01*
X144633750Y-77560581D01*
X144612926Y-77565797D01*
X144591691Y-77568947D01*
X144570250Y-77570000D01*
X144057750Y-77570000D01*
X144036309Y-77568947D01*
X144015074Y-77565797D01*
X143994250Y-77560581D01*
X143974038Y-77553349D01*
X143954632Y-77544170D01*
X143936219Y-77533134D01*
X143918976Y-77520346D01*
X143903070Y-77505930D01*
X143888654Y-77490024D01*
X143875866Y-77472781D01*
X143864830Y-77454368D01*
X143855651Y-77434962D01*
X143848419Y-77414750D01*
X143843203Y-77393926D01*
X143840053Y-77372691D01*
X143839000Y-77351250D01*
X143839000Y-76913750D01*
X143840053Y-76892309D01*
X143843203Y-76871074D01*
X143848419Y-76850250D01*
X143855651Y-76830038D01*
X143864830Y-76810632D01*
X143875866Y-76792219D01*
X143888654Y-76774976D01*
X143903070Y-76759070D01*
X143918976Y-76744654D01*
X143936219Y-76731866D01*
X143954632Y-76720830D01*
X143974038Y-76711651D01*
X143994250Y-76704419D01*
X144015074Y-76699203D01*
X144036309Y-76696053D01*
X144057750Y-76695000D01*
X144570250Y-76695000D01*
X144591691Y-76696053D01*
G37*
G36*
X152138691Y-86920053D02*
G01*
X152159926Y-86923203D01*
X152180750Y-86928419D01*
X152200962Y-86935651D01*
X152220368Y-86944830D01*
X152238781Y-86955866D01*
X152256024Y-86968654D01*
X152271930Y-86983070D01*
X152286346Y-86998976D01*
X152299134Y-87016219D01*
X152310170Y-87034632D01*
X152319349Y-87054038D01*
X152326581Y-87074250D01*
X152331797Y-87095074D01*
X152334947Y-87116309D01*
X152336000Y-87137750D01*
X152336000Y-87650250D01*
X152334947Y-87671691D01*
X152331797Y-87692926D01*
X152326581Y-87713750D01*
X152319349Y-87733962D01*
X152310170Y-87753368D01*
X152299134Y-87771781D01*
X152286346Y-87789024D01*
X152271930Y-87804930D01*
X152256024Y-87819346D01*
X152238781Y-87832134D01*
X152220368Y-87843170D01*
X152200962Y-87852349D01*
X152180750Y-87859581D01*
X152159926Y-87864797D01*
X152138691Y-87867947D01*
X152117250Y-87869000D01*
X151679750Y-87869000D01*
X151658309Y-87867947D01*
X151637074Y-87864797D01*
X151616250Y-87859581D01*
X151596038Y-87852349D01*
X151576632Y-87843170D01*
X151558219Y-87832134D01*
X151540976Y-87819346D01*
X151525070Y-87804930D01*
X151510654Y-87789024D01*
X151497866Y-87771781D01*
X151486830Y-87753368D01*
X151477651Y-87733962D01*
X151470419Y-87713750D01*
X151465203Y-87692926D01*
X151462053Y-87671691D01*
X151461000Y-87650250D01*
X151461000Y-87137750D01*
X151462053Y-87116309D01*
X151465203Y-87095074D01*
X151470419Y-87074250D01*
X151477651Y-87054038D01*
X151486830Y-87034632D01*
X151497866Y-87016219D01*
X151510654Y-86998976D01*
X151525070Y-86983070D01*
X151540976Y-86968654D01*
X151558219Y-86955866D01*
X151576632Y-86944830D01*
X151596038Y-86935651D01*
X151616250Y-86928419D01*
X151637074Y-86923203D01*
X151658309Y-86920053D01*
X151679750Y-86919000D01*
X152117250Y-86919000D01*
X152138691Y-86920053D01*
G37*
G36*
X150563691Y-86920053D02*
G01*
X150584926Y-86923203D01*
X150605750Y-86928419D01*
X150625962Y-86935651D01*
X150645368Y-86944830D01*
X150663781Y-86955866D01*
X150681024Y-86968654D01*
X150696930Y-86983070D01*
X150711346Y-86998976D01*
X150724134Y-87016219D01*
X150735170Y-87034632D01*
X150744349Y-87054038D01*
X150751581Y-87074250D01*
X150756797Y-87095074D01*
X150759947Y-87116309D01*
X150761000Y-87137750D01*
X150761000Y-87650250D01*
X150759947Y-87671691D01*
X150756797Y-87692926D01*
X150751581Y-87713750D01*
X150744349Y-87733962D01*
X150735170Y-87753368D01*
X150724134Y-87771781D01*
X150711346Y-87789024D01*
X150696930Y-87804930D01*
X150681024Y-87819346D01*
X150663781Y-87832134D01*
X150645368Y-87843170D01*
X150625962Y-87852349D01*
X150605750Y-87859581D01*
X150584926Y-87864797D01*
X150563691Y-87867947D01*
X150542250Y-87869000D01*
X150104750Y-87869000D01*
X150083309Y-87867947D01*
X150062074Y-87864797D01*
X150041250Y-87859581D01*
X150021038Y-87852349D01*
X150001632Y-87843170D01*
X149983219Y-87832134D01*
X149965976Y-87819346D01*
X149950070Y-87804930D01*
X149935654Y-87789024D01*
X149922866Y-87771781D01*
X149911830Y-87753368D01*
X149902651Y-87733962D01*
X149895419Y-87713750D01*
X149890203Y-87692926D01*
X149887053Y-87671691D01*
X149886000Y-87650250D01*
X149886000Y-87137750D01*
X149887053Y-87116309D01*
X149890203Y-87095074D01*
X149895419Y-87074250D01*
X149902651Y-87054038D01*
X149911830Y-87034632D01*
X149922866Y-87016219D01*
X149935654Y-86998976D01*
X149950070Y-86983070D01*
X149965976Y-86968654D01*
X149983219Y-86955866D01*
X150001632Y-86944830D01*
X150021038Y-86935651D01*
X150041250Y-86928419D01*
X150062074Y-86923203D01*
X150083309Y-86920053D01*
X150104750Y-86919000D01*
X150542250Y-86919000D01*
X150563691Y-86920053D01*
G37*
G36*
X152205703Y-79601722D02*
G01*
X152220264Y-79603882D01*
X152234543Y-79607459D01*
X152248403Y-79612418D01*
X152261710Y-79618712D01*
X152274336Y-79626280D01*
X152286159Y-79635048D01*
X152297066Y-79644934D01*
X152306952Y-79655841D01*
X152315720Y-79667664D01*
X152323288Y-79680290D01*
X152329582Y-79693597D01*
X152334541Y-79707457D01*
X152338118Y-79721736D01*
X152340278Y-79736297D01*
X152341000Y-79751000D01*
X152341000Y-80051000D01*
X152340278Y-80065703D01*
X152338118Y-80080264D01*
X152334541Y-80094543D01*
X152329582Y-80108403D01*
X152323288Y-80121710D01*
X152315720Y-80134336D01*
X152306952Y-80146159D01*
X152297066Y-80157066D01*
X152286159Y-80166952D01*
X152274336Y-80175720D01*
X152261710Y-80183288D01*
X152248403Y-80189582D01*
X152234543Y-80194541D01*
X152220264Y-80198118D01*
X152205703Y-80200278D01*
X152191000Y-80201000D01*
X150541000Y-80201000D01*
X150526297Y-80200278D01*
X150511736Y-80198118D01*
X150497457Y-80194541D01*
X150483597Y-80189582D01*
X150470290Y-80183288D01*
X150457664Y-80175720D01*
X150445841Y-80166952D01*
X150434934Y-80157066D01*
X150425048Y-80146159D01*
X150416280Y-80134336D01*
X150408712Y-80121710D01*
X150402418Y-80108403D01*
X150397459Y-80094543D01*
X150393882Y-80080264D01*
X150391722Y-80065703D01*
X150391000Y-80051000D01*
X150391000Y-79751000D01*
X150391722Y-79736297D01*
X150393882Y-79721736D01*
X150397459Y-79707457D01*
X150402418Y-79693597D01*
X150408712Y-79680290D01*
X150416280Y-79667664D01*
X150425048Y-79655841D01*
X150434934Y-79644934D01*
X150445841Y-79635048D01*
X150457664Y-79626280D01*
X150470290Y-79618712D01*
X150483597Y-79612418D01*
X150497457Y-79607459D01*
X150511736Y-79603882D01*
X150526297Y-79601722D01*
X150541000Y-79601000D01*
X152191000Y-79601000D01*
X152205703Y-79601722D01*
G37*
G36*
X152205703Y-78331722D02*
G01*
X152220264Y-78333882D01*
X152234543Y-78337459D01*
X152248403Y-78342418D01*
X152261710Y-78348712D01*
X152274336Y-78356280D01*
X152286159Y-78365048D01*
X152297066Y-78374934D01*
X152306952Y-78385841D01*
X152315720Y-78397664D01*
X152323288Y-78410290D01*
X152329582Y-78423597D01*
X152334541Y-78437457D01*
X152338118Y-78451736D01*
X152340278Y-78466297D01*
X152341000Y-78481000D01*
X152341000Y-78781000D01*
X152340278Y-78795703D01*
X152338118Y-78810264D01*
X152334541Y-78824543D01*
X152329582Y-78838403D01*
X152323288Y-78851710D01*
X152315720Y-78864336D01*
X152306952Y-78876159D01*
X152297066Y-78887066D01*
X152286159Y-78896952D01*
X152274336Y-78905720D01*
X152261710Y-78913288D01*
X152248403Y-78919582D01*
X152234543Y-78924541D01*
X152220264Y-78928118D01*
X152205703Y-78930278D01*
X152191000Y-78931000D01*
X150541000Y-78931000D01*
X150526297Y-78930278D01*
X150511736Y-78928118D01*
X150497457Y-78924541D01*
X150483597Y-78919582D01*
X150470290Y-78913288D01*
X150457664Y-78905720D01*
X150445841Y-78896952D01*
X150434934Y-78887066D01*
X150425048Y-78876159D01*
X150416280Y-78864336D01*
X150408712Y-78851710D01*
X150402418Y-78838403D01*
X150397459Y-78824543D01*
X150393882Y-78810264D01*
X150391722Y-78795703D01*
X150391000Y-78781000D01*
X150391000Y-78481000D01*
X150391722Y-78466297D01*
X150393882Y-78451736D01*
X150397459Y-78437457D01*
X150402418Y-78423597D01*
X150408712Y-78410290D01*
X150416280Y-78397664D01*
X150425048Y-78385841D01*
X150434934Y-78374934D01*
X150445841Y-78365048D01*
X150457664Y-78356280D01*
X150470290Y-78348712D01*
X150483597Y-78342418D01*
X150497457Y-78337459D01*
X150511736Y-78333882D01*
X150526297Y-78331722D01*
X150541000Y-78331000D01*
X152191000Y-78331000D01*
X152205703Y-78331722D01*
G37*
G36*
X152205703Y-77061722D02*
G01*
X152220264Y-77063882D01*
X152234543Y-77067459D01*
X152248403Y-77072418D01*
X152261710Y-77078712D01*
X152274336Y-77086280D01*
X152286159Y-77095048D01*
X152297066Y-77104934D01*
X152306952Y-77115841D01*
X152315720Y-77127664D01*
X152323288Y-77140290D01*
X152329582Y-77153597D01*
X152334541Y-77167457D01*
X152338118Y-77181736D01*
X152340278Y-77196297D01*
X152341000Y-77211000D01*
X152341000Y-77511000D01*
X152340278Y-77525703D01*
X152338118Y-77540264D01*
X152334541Y-77554543D01*
X152329582Y-77568403D01*
X152323288Y-77581710D01*
X152315720Y-77594336D01*
X152306952Y-77606159D01*
X152297066Y-77617066D01*
X152286159Y-77626952D01*
X152274336Y-77635720D01*
X152261710Y-77643288D01*
X152248403Y-77649582D01*
X152234543Y-77654541D01*
X152220264Y-77658118D01*
X152205703Y-77660278D01*
X152191000Y-77661000D01*
X150541000Y-77661000D01*
X150526297Y-77660278D01*
X150511736Y-77658118D01*
X150497457Y-77654541D01*
X150483597Y-77649582D01*
X150470290Y-77643288D01*
X150457664Y-77635720D01*
X150445841Y-77626952D01*
X150434934Y-77617066D01*
X150425048Y-77606159D01*
X150416280Y-77594336D01*
X150408712Y-77581710D01*
X150402418Y-77568403D01*
X150397459Y-77554543D01*
X150393882Y-77540264D01*
X150391722Y-77525703D01*
X150391000Y-77511000D01*
X150391000Y-77211000D01*
X150391722Y-77196297D01*
X150393882Y-77181736D01*
X150397459Y-77167457D01*
X150402418Y-77153597D01*
X150408712Y-77140290D01*
X150416280Y-77127664D01*
X150425048Y-77115841D01*
X150434934Y-77104934D01*
X150445841Y-77095048D01*
X150457664Y-77086280D01*
X150470290Y-77078712D01*
X150483597Y-77072418D01*
X150497457Y-77067459D01*
X150511736Y-77063882D01*
X150526297Y-77061722D01*
X150541000Y-77061000D01*
X152191000Y-77061000D01*
X152205703Y-77061722D01*
G37*
G36*
X152205703Y-75791722D02*
G01*
X152220264Y-75793882D01*
X152234543Y-75797459D01*
X152248403Y-75802418D01*
X152261710Y-75808712D01*
X152274336Y-75816280D01*
X152286159Y-75825048D01*
X152297066Y-75834934D01*
X152306952Y-75845841D01*
X152315720Y-75857664D01*
X152323288Y-75870290D01*
X152329582Y-75883597D01*
X152334541Y-75897457D01*
X152338118Y-75911736D01*
X152340278Y-75926297D01*
X152341000Y-75941000D01*
X152341000Y-76241000D01*
X152340278Y-76255703D01*
X152338118Y-76270264D01*
X152334541Y-76284543D01*
X152329582Y-76298403D01*
X152323288Y-76311710D01*
X152315720Y-76324336D01*
X152306952Y-76336159D01*
X152297066Y-76347066D01*
X152286159Y-76356952D01*
X152274336Y-76365720D01*
X152261710Y-76373288D01*
X152248403Y-76379582D01*
X152234543Y-76384541D01*
X152220264Y-76388118D01*
X152205703Y-76390278D01*
X152191000Y-76391000D01*
X150541000Y-76391000D01*
X150526297Y-76390278D01*
X150511736Y-76388118D01*
X150497457Y-76384541D01*
X150483597Y-76379582D01*
X150470290Y-76373288D01*
X150457664Y-76365720D01*
X150445841Y-76356952D01*
X150434934Y-76347066D01*
X150425048Y-76336159D01*
X150416280Y-76324336D01*
X150408712Y-76311710D01*
X150402418Y-76298403D01*
X150397459Y-76284543D01*
X150393882Y-76270264D01*
X150391722Y-76255703D01*
X150391000Y-76241000D01*
X150391000Y-75941000D01*
X150391722Y-75926297D01*
X150393882Y-75911736D01*
X150397459Y-75897457D01*
X150402418Y-75883597D01*
X150408712Y-75870290D01*
X150416280Y-75857664D01*
X150425048Y-75845841D01*
X150434934Y-75834934D01*
X150445841Y-75825048D01*
X150457664Y-75816280D01*
X150470290Y-75808712D01*
X150483597Y-75802418D01*
X150497457Y-75797459D01*
X150511736Y-75793882D01*
X150526297Y-75791722D01*
X150541000Y-75791000D01*
X152191000Y-75791000D01*
X152205703Y-75791722D01*
G37*
G36*
X147255703Y-75791722D02*
G01*
X147270264Y-75793882D01*
X147284543Y-75797459D01*
X147298403Y-75802418D01*
X147311710Y-75808712D01*
X147324336Y-75816280D01*
X147336159Y-75825048D01*
X147347066Y-75834934D01*
X147356952Y-75845841D01*
X147365720Y-75857664D01*
X147373288Y-75870290D01*
X147379582Y-75883597D01*
X147384541Y-75897457D01*
X147388118Y-75911736D01*
X147390278Y-75926297D01*
X147391000Y-75941000D01*
X147391000Y-76241000D01*
X147390278Y-76255703D01*
X147388118Y-76270264D01*
X147384541Y-76284543D01*
X147379582Y-76298403D01*
X147373288Y-76311710D01*
X147365720Y-76324336D01*
X147356952Y-76336159D01*
X147347066Y-76347066D01*
X147336159Y-76356952D01*
X147324336Y-76365720D01*
X147311710Y-76373288D01*
X147298403Y-76379582D01*
X147284543Y-76384541D01*
X147270264Y-76388118D01*
X147255703Y-76390278D01*
X147241000Y-76391000D01*
X145591000Y-76391000D01*
X145576297Y-76390278D01*
X145561736Y-76388118D01*
X145547457Y-76384541D01*
X145533597Y-76379582D01*
X145520290Y-76373288D01*
X145507664Y-76365720D01*
X145495841Y-76356952D01*
X145484934Y-76347066D01*
X145475048Y-76336159D01*
X145466280Y-76324336D01*
X145458712Y-76311710D01*
X145452418Y-76298403D01*
X145447459Y-76284543D01*
X145443882Y-76270264D01*
X145441722Y-76255703D01*
X145441000Y-76241000D01*
X145441000Y-75941000D01*
X145441722Y-75926297D01*
X145443882Y-75911736D01*
X145447459Y-75897457D01*
X145452418Y-75883597D01*
X145458712Y-75870290D01*
X145466280Y-75857664D01*
X145475048Y-75845841D01*
X145484934Y-75834934D01*
X145495841Y-75825048D01*
X145507664Y-75816280D01*
X145520290Y-75808712D01*
X145533597Y-75802418D01*
X145547457Y-75797459D01*
X145561736Y-75793882D01*
X145576297Y-75791722D01*
X145591000Y-75791000D01*
X147241000Y-75791000D01*
X147255703Y-75791722D01*
G37*
G36*
X147255703Y-77061722D02*
G01*
X147270264Y-77063882D01*
X147284543Y-77067459D01*
X147298403Y-77072418D01*
X147311710Y-77078712D01*
X147324336Y-77086280D01*
X147336159Y-77095048D01*
X147347066Y-77104934D01*
X147356952Y-77115841D01*
X147365720Y-77127664D01*
X147373288Y-77140290D01*
X147379582Y-77153597D01*
X147384541Y-77167457D01*
X147388118Y-77181736D01*
X147390278Y-77196297D01*
X147391000Y-77211000D01*
X147391000Y-77511000D01*
X147390278Y-77525703D01*
X147388118Y-77540264D01*
X147384541Y-77554543D01*
X147379582Y-77568403D01*
X147373288Y-77581710D01*
X147365720Y-77594336D01*
X147356952Y-77606159D01*
X147347066Y-77617066D01*
X147336159Y-77626952D01*
X147324336Y-77635720D01*
X147311710Y-77643288D01*
X147298403Y-77649582D01*
X147284543Y-77654541D01*
X147270264Y-77658118D01*
X147255703Y-77660278D01*
X147241000Y-77661000D01*
X145591000Y-77661000D01*
X145576297Y-77660278D01*
X145561736Y-77658118D01*
X145547457Y-77654541D01*
X145533597Y-77649582D01*
X145520290Y-77643288D01*
X145507664Y-77635720D01*
X145495841Y-77626952D01*
X145484934Y-77617066D01*
X145475048Y-77606159D01*
X145466280Y-77594336D01*
X145458712Y-77581710D01*
X145452418Y-77568403D01*
X145447459Y-77554543D01*
X145443882Y-77540264D01*
X145441722Y-77525703D01*
X145441000Y-77511000D01*
X145441000Y-77211000D01*
X145441722Y-77196297D01*
X145443882Y-77181736D01*
X145447459Y-77167457D01*
X145452418Y-77153597D01*
X145458712Y-77140290D01*
X145466280Y-77127664D01*
X145475048Y-77115841D01*
X145484934Y-77104934D01*
X145495841Y-77095048D01*
X145507664Y-77086280D01*
X145520290Y-77078712D01*
X145533597Y-77072418D01*
X145547457Y-77067459D01*
X145561736Y-77063882D01*
X145576297Y-77061722D01*
X145591000Y-77061000D01*
X147241000Y-77061000D01*
X147255703Y-77061722D01*
G37*
G36*
X147255703Y-78331722D02*
G01*
X147270264Y-78333882D01*
X147284543Y-78337459D01*
X147298403Y-78342418D01*
X147311710Y-78348712D01*
X147324336Y-78356280D01*
X147336159Y-78365048D01*
X147347066Y-78374934D01*
X147356952Y-78385841D01*
X147365720Y-78397664D01*
X147373288Y-78410290D01*
X147379582Y-78423597D01*
X147384541Y-78437457D01*
X147388118Y-78451736D01*
X147390278Y-78466297D01*
X147391000Y-78481000D01*
X147391000Y-78781000D01*
X147390278Y-78795703D01*
X147388118Y-78810264D01*
X147384541Y-78824543D01*
X147379582Y-78838403D01*
X147373288Y-78851710D01*
X147365720Y-78864336D01*
X147356952Y-78876159D01*
X147347066Y-78887066D01*
X147336159Y-78896952D01*
X147324336Y-78905720D01*
X147311710Y-78913288D01*
X147298403Y-78919582D01*
X147284543Y-78924541D01*
X147270264Y-78928118D01*
X147255703Y-78930278D01*
X147241000Y-78931000D01*
X145591000Y-78931000D01*
X145576297Y-78930278D01*
X145561736Y-78928118D01*
X145547457Y-78924541D01*
X145533597Y-78919582D01*
X145520290Y-78913288D01*
X145507664Y-78905720D01*
X145495841Y-78896952D01*
X145484934Y-78887066D01*
X145475048Y-78876159D01*
X145466280Y-78864336D01*
X145458712Y-78851710D01*
X145452418Y-78838403D01*
X145447459Y-78824543D01*
X145443882Y-78810264D01*
X145441722Y-78795703D01*
X145441000Y-78781000D01*
X145441000Y-78481000D01*
X145441722Y-78466297D01*
X145443882Y-78451736D01*
X145447459Y-78437457D01*
X145452418Y-78423597D01*
X145458712Y-78410290D01*
X145466280Y-78397664D01*
X145475048Y-78385841D01*
X145484934Y-78374934D01*
X145495841Y-78365048D01*
X145507664Y-78356280D01*
X145520290Y-78348712D01*
X145533597Y-78342418D01*
X145547457Y-78337459D01*
X145561736Y-78333882D01*
X145576297Y-78331722D01*
X145591000Y-78331000D01*
X147241000Y-78331000D01*
X147255703Y-78331722D01*
G37*
G36*
X147255703Y-79601722D02*
G01*
X147270264Y-79603882D01*
X147284543Y-79607459D01*
X147298403Y-79612418D01*
X147311710Y-79618712D01*
X147324336Y-79626280D01*
X147336159Y-79635048D01*
X147347066Y-79644934D01*
X147356952Y-79655841D01*
X147365720Y-79667664D01*
X147373288Y-79680290D01*
X147379582Y-79693597D01*
X147384541Y-79707457D01*
X147388118Y-79721736D01*
X147390278Y-79736297D01*
X147391000Y-79751000D01*
X147391000Y-80051000D01*
X147390278Y-80065703D01*
X147388118Y-80080264D01*
X147384541Y-80094543D01*
X147379582Y-80108403D01*
X147373288Y-80121710D01*
X147365720Y-80134336D01*
X147356952Y-80146159D01*
X147347066Y-80157066D01*
X147336159Y-80166952D01*
X147324336Y-80175720D01*
X147311710Y-80183288D01*
X147298403Y-80189582D01*
X147284543Y-80194541D01*
X147270264Y-80198118D01*
X147255703Y-80200278D01*
X147241000Y-80201000D01*
X145591000Y-80201000D01*
X145576297Y-80200278D01*
X145561736Y-80198118D01*
X145547457Y-80194541D01*
X145533597Y-80189582D01*
X145520290Y-80183288D01*
X145507664Y-80175720D01*
X145495841Y-80166952D01*
X145484934Y-80157066D01*
X145475048Y-80146159D01*
X145466280Y-80134336D01*
X145458712Y-80121710D01*
X145452418Y-80108403D01*
X145447459Y-80094543D01*
X145443882Y-80080264D01*
X145441722Y-80065703D01*
X145441000Y-80051000D01*
X145441000Y-79751000D01*
X145441722Y-79736297D01*
X145443882Y-79721736D01*
X145447459Y-79707457D01*
X145452418Y-79693597D01*
X145458712Y-79680290D01*
X145466280Y-79667664D01*
X145475048Y-79655841D01*
X145484934Y-79644934D01*
X145495841Y-79635048D01*
X145507664Y-79626280D01*
X145520290Y-79618712D01*
X145533597Y-79612418D01*
X145547457Y-79607459D01*
X145561736Y-79603882D01*
X145576297Y-79601722D01*
X145591000Y-79601000D01*
X147241000Y-79601000D01*
X147255703Y-79601722D01*
G37*
D11*
X151741000Y-83373000D03*
X150791000Y-83373000D03*
X149841000Y-83373000D03*
X149841000Y-85573000D03*
X151741000Y-85573000D03*
X150791000Y-85573000D03*
D10*
G36*
X121853779Y-107746144D02*
G01*
X121876834Y-107749563D01*
X121899443Y-107755227D01*
X121921387Y-107763079D01*
X121942457Y-107773044D01*
X121962448Y-107785026D01*
X121981168Y-107798910D01*
X121998438Y-107814562D01*
X122014090Y-107831832D01*
X122027974Y-107850552D01*
X122039956Y-107870543D01*
X122049921Y-107891613D01*
X122057773Y-107913557D01*
X122063437Y-107936166D01*
X122066856Y-107959221D01*
X122068000Y-107982500D01*
X122068000Y-108457500D01*
X122066856Y-108480779D01*
X122063437Y-108503834D01*
X122057773Y-108526443D01*
X122049921Y-108548387D01*
X122039956Y-108569457D01*
X122027974Y-108589448D01*
X122014090Y-108608168D01*
X121998438Y-108625438D01*
X121981168Y-108641090D01*
X121962448Y-108654974D01*
X121942457Y-108666956D01*
X121921387Y-108676921D01*
X121899443Y-108684773D01*
X121876834Y-108690437D01*
X121853779Y-108693856D01*
X121830500Y-108695000D01*
X121255500Y-108695000D01*
X121232221Y-108693856D01*
X121209166Y-108690437D01*
X121186557Y-108684773D01*
X121164613Y-108676921D01*
X121143543Y-108666956D01*
X121123552Y-108654974D01*
X121104832Y-108641090D01*
X121087562Y-108625438D01*
X121071910Y-108608168D01*
X121058026Y-108589448D01*
X121046044Y-108569457D01*
X121036079Y-108548387D01*
X121028227Y-108526443D01*
X121022563Y-108503834D01*
X121019144Y-108480779D01*
X121018000Y-108457500D01*
X121018000Y-107982500D01*
X121019144Y-107959221D01*
X121022563Y-107936166D01*
X121028227Y-107913557D01*
X121036079Y-107891613D01*
X121046044Y-107870543D01*
X121058026Y-107850552D01*
X121071910Y-107831832D01*
X121087562Y-107814562D01*
X121104832Y-107798910D01*
X121123552Y-107785026D01*
X121143543Y-107773044D01*
X121164613Y-107763079D01*
X121186557Y-107755227D01*
X121209166Y-107749563D01*
X121232221Y-107746144D01*
X121255500Y-107745000D01*
X121830500Y-107745000D01*
X121853779Y-107746144D01*
G37*
G36*
X120103779Y-107746144D02*
G01*
X120126834Y-107749563D01*
X120149443Y-107755227D01*
X120171387Y-107763079D01*
X120192457Y-107773044D01*
X120212448Y-107785026D01*
X120231168Y-107798910D01*
X120248438Y-107814562D01*
X120264090Y-107831832D01*
X120277974Y-107850552D01*
X120289956Y-107870543D01*
X120299921Y-107891613D01*
X120307773Y-107913557D01*
X120313437Y-107936166D01*
X120316856Y-107959221D01*
X120318000Y-107982500D01*
X120318000Y-108457500D01*
X120316856Y-108480779D01*
X120313437Y-108503834D01*
X120307773Y-108526443D01*
X120299921Y-108548387D01*
X120289956Y-108569457D01*
X120277974Y-108589448D01*
X120264090Y-108608168D01*
X120248438Y-108625438D01*
X120231168Y-108641090D01*
X120212448Y-108654974D01*
X120192457Y-108666956D01*
X120171387Y-108676921D01*
X120149443Y-108684773D01*
X120126834Y-108690437D01*
X120103779Y-108693856D01*
X120080500Y-108695000D01*
X119505500Y-108695000D01*
X119482221Y-108693856D01*
X119459166Y-108690437D01*
X119436557Y-108684773D01*
X119414613Y-108676921D01*
X119393543Y-108666956D01*
X119373552Y-108654974D01*
X119354832Y-108641090D01*
X119337562Y-108625438D01*
X119321910Y-108608168D01*
X119308026Y-108589448D01*
X119296044Y-108569457D01*
X119286079Y-108548387D01*
X119278227Y-108526443D01*
X119272563Y-108503834D01*
X119269144Y-108480779D01*
X119268000Y-108457500D01*
X119268000Y-107982500D01*
X119269144Y-107959221D01*
X119272563Y-107936166D01*
X119278227Y-107913557D01*
X119286079Y-107891613D01*
X119296044Y-107870543D01*
X119308026Y-107850552D01*
X119321910Y-107831832D01*
X119337562Y-107814562D01*
X119354832Y-107798910D01*
X119373552Y-107785026D01*
X119393543Y-107773044D01*
X119414613Y-107763079D01*
X119436557Y-107755227D01*
X119459166Y-107749563D01*
X119482221Y-107746144D01*
X119505500Y-107745000D01*
X120080500Y-107745000D01*
X120103779Y-107746144D01*
G37*
G36*
X143725779Y-107746144D02*
G01*
X143748834Y-107749563D01*
X143771443Y-107755227D01*
X143793387Y-107763079D01*
X143814457Y-107773044D01*
X143834448Y-107785026D01*
X143853168Y-107798910D01*
X143870438Y-107814562D01*
X143886090Y-107831832D01*
X143899974Y-107850552D01*
X143911956Y-107870543D01*
X143921921Y-107891613D01*
X143929773Y-107913557D01*
X143935437Y-107936166D01*
X143938856Y-107959221D01*
X143940000Y-107982500D01*
X143940000Y-108457500D01*
X143938856Y-108480779D01*
X143935437Y-108503834D01*
X143929773Y-108526443D01*
X143921921Y-108548387D01*
X143911956Y-108569457D01*
X143899974Y-108589448D01*
X143886090Y-108608168D01*
X143870438Y-108625438D01*
X143853168Y-108641090D01*
X143834448Y-108654974D01*
X143814457Y-108666956D01*
X143793387Y-108676921D01*
X143771443Y-108684773D01*
X143748834Y-108690437D01*
X143725779Y-108693856D01*
X143702500Y-108695000D01*
X143127500Y-108695000D01*
X143104221Y-108693856D01*
X143081166Y-108690437D01*
X143058557Y-108684773D01*
X143036613Y-108676921D01*
X143015543Y-108666956D01*
X142995552Y-108654974D01*
X142976832Y-108641090D01*
X142959562Y-108625438D01*
X142943910Y-108608168D01*
X142930026Y-108589448D01*
X142918044Y-108569457D01*
X142908079Y-108548387D01*
X142900227Y-108526443D01*
X142894563Y-108503834D01*
X142891144Y-108480779D01*
X142890000Y-108457500D01*
X142890000Y-107982500D01*
X142891144Y-107959221D01*
X142894563Y-107936166D01*
X142900227Y-107913557D01*
X142908079Y-107891613D01*
X142918044Y-107870543D01*
X142930026Y-107850552D01*
X142943910Y-107831832D01*
X142959562Y-107814562D01*
X142976832Y-107798910D01*
X142995552Y-107785026D01*
X143015543Y-107773044D01*
X143036613Y-107763079D01*
X143058557Y-107755227D01*
X143081166Y-107749563D01*
X143104221Y-107746144D01*
X143127500Y-107745000D01*
X143702500Y-107745000D01*
X143725779Y-107746144D01*
G37*
G36*
X145475779Y-107746144D02*
G01*
X145498834Y-107749563D01*
X145521443Y-107755227D01*
X145543387Y-107763079D01*
X145564457Y-107773044D01*
X145584448Y-107785026D01*
X145603168Y-107798910D01*
X145620438Y-107814562D01*
X145636090Y-107831832D01*
X145649974Y-107850552D01*
X145661956Y-107870543D01*
X145671921Y-107891613D01*
X145679773Y-107913557D01*
X145685437Y-107936166D01*
X145688856Y-107959221D01*
X145690000Y-107982500D01*
X145690000Y-108457500D01*
X145688856Y-108480779D01*
X145685437Y-108503834D01*
X145679773Y-108526443D01*
X145671921Y-108548387D01*
X145661956Y-108569457D01*
X145649974Y-108589448D01*
X145636090Y-108608168D01*
X145620438Y-108625438D01*
X145603168Y-108641090D01*
X145584448Y-108654974D01*
X145564457Y-108666956D01*
X145543387Y-108676921D01*
X145521443Y-108684773D01*
X145498834Y-108690437D01*
X145475779Y-108693856D01*
X145452500Y-108695000D01*
X144877500Y-108695000D01*
X144854221Y-108693856D01*
X144831166Y-108690437D01*
X144808557Y-108684773D01*
X144786613Y-108676921D01*
X144765543Y-108666956D01*
X144745552Y-108654974D01*
X144726832Y-108641090D01*
X144709562Y-108625438D01*
X144693910Y-108608168D01*
X144680026Y-108589448D01*
X144668044Y-108569457D01*
X144658079Y-108548387D01*
X144650227Y-108526443D01*
X144644563Y-108503834D01*
X144641144Y-108480779D01*
X144640000Y-108457500D01*
X144640000Y-107982500D01*
X144641144Y-107959221D01*
X144644563Y-107936166D01*
X144650227Y-107913557D01*
X144658079Y-107891613D01*
X144668044Y-107870543D01*
X144680026Y-107850552D01*
X144693910Y-107831832D01*
X144709562Y-107814562D01*
X144726832Y-107798910D01*
X144745552Y-107785026D01*
X144765543Y-107773044D01*
X144786613Y-107763079D01*
X144808557Y-107755227D01*
X144831166Y-107749563D01*
X144854221Y-107746144D01*
X144877500Y-107745000D01*
X145452500Y-107745000D01*
X145475779Y-107746144D01*
G37*
G36*
X145475779Y-105843144D02*
G01*
X145498834Y-105846563D01*
X145521443Y-105852227D01*
X145543387Y-105860079D01*
X145564457Y-105870044D01*
X145584448Y-105882026D01*
X145603168Y-105895910D01*
X145620438Y-105911562D01*
X145636090Y-105928832D01*
X145649974Y-105947552D01*
X145661956Y-105967543D01*
X145671921Y-105988613D01*
X145679773Y-106010557D01*
X145685437Y-106033166D01*
X145688856Y-106056221D01*
X145690000Y-106079500D01*
X145690000Y-106554500D01*
X145688856Y-106577779D01*
X145685437Y-106600834D01*
X145679773Y-106623443D01*
X145671921Y-106645387D01*
X145661956Y-106666457D01*
X145649974Y-106686448D01*
X145636090Y-106705168D01*
X145620438Y-106722438D01*
X145603168Y-106738090D01*
X145584448Y-106751974D01*
X145564457Y-106763956D01*
X145543387Y-106773921D01*
X145521443Y-106781773D01*
X145498834Y-106787437D01*
X145475779Y-106790856D01*
X145452500Y-106792000D01*
X144877500Y-106792000D01*
X144854221Y-106790856D01*
X144831166Y-106787437D01*
X144808557Y-106781773D01*
X144786613Y-106773921D01*
X144765543Y-106763956D01*
X144745552Y-106751974D01*
X144726832Y-106738090D01*
X144709562Y-106722438D01*
X144693910Y-106705168D01*
X144680026Y-106686448D01*
X144668044Y-106666457D01*
X144658079Y-106645387D01*
X144650227Y-106623443D01*
X144644563Y-106600834D01*
X144641144Y-106577779D01*
X144640000Y-106554500D01*
X144640000Y-106079500D01*
X144641144Y-106056221D01*
X144644563Y-106033166D01*
X144650227Y-106010557D01*
X144658079Y-105988613D01*
X144668044Y-105967543D01*
X144680026Y-105947552D01*
X144693910Y-105928832D01*
X144709562Y-105911562D01*
X144726832Y-105895910D01*
X144745552Y-105882026D01*
X144765543Y-105870044D01*
X144786613Y-105860079D01*
X144808557Y-105852227D01*
X144831166Y-105846563D01*
X144854221Y-105843144D01*
X144877500Y-105842000D01*
X145452500Y-105842000D01*
X145475779Y-105843144D01*
G37*
G36*
X143725779Y-105843144D02*
G01*
X143748834Y-105846563D01*
X143771443Y-105852227D01*
X143793387Y-105860079D01*
X143814457Y-105870044D01*
X143834448Y-105882026D01*
X143853168Y-105895910D01*
X143870438Y-105911562D01*
X143886090Y-105928832D01*
X143899974Y-105947552D01*
X143911956Y-105967543D01*
X143921921Y-105988613D01*
X143929773Y-106010557D01*
X143935437Y-106033166D01*
X143938856Y-106056221D01*
X143940000Y-106079500D01*
X143940000Y-106554500D01*
X143938856Y-106577779D01*
X143935437Y-106600834D01*
X143929773Y-106623443D01*
X143921921Y-106645387D01*
X143911956Y-106666457D01*
X143899974Y-106686448D01*
X143886090Y-106705168D01*
X143870438Y-106722438D01*
X143853168Y-106738090D01*
X143834448Y-106751974D01*
X143814457Y-106763956D01*
X143793387Y-106773921D01*
X143771443Y-106781773D01*
X143748834Y-106787437D01*
X143725779Y-106790856D01*
X143702500Y-106792000D01*
X143127500Y-106792000D01*
X143104221Y-106790856D01*
X143081166Y-106787437D01*
X143058557Y-106781773D01*
X143036613Y-106773921D01*
X143015543Y-106763956D01*
X142995552Y-106751974D01*
X142976832Y-106738090D01*
X142959562Y-106722438D01*
X142943910Y-106705168D01*
X142930026Y-106686448D01*
X142918044Y-106666457D01*
X142908079Y-106645387D01*
X142900227Y-106623443D01*
X142894563Y-106600834D01*
X142891144Y-106577779D01*
X142890000Y-106554500D01*
X142890000Y-106079500D01*
X142891144Y-106056221D01*
X142894563Y-106033166D01*
X142900227Y-106010557D01*
X142908079Y-105988613D01*
X142918044Y-105967543D01*
X142930026Y-105947552D01*
X142943910Y-105928832D01*
X142959562Y-105911562D01*
X142976832Y-105895910D01*
X142995552Y-105882026D01*
X143015543Y-105870044D01*
X143036613Y-105860079D01*
X143058557Y-105852227D01*
X143081166Y-105846563D01*
X143104221Y-105843144D01*
X143127500Y-105842000D01*
X143702500Y-105842000D01*
X143725779Y-105843144D01*
G37*
G36*
X120148779Y-105843144D02*
G01*
X120171834Y-105846563D01*
X120194443Y-105852227D01*
X120216387Y-105860079D01*
X120237457Y-105870044D01*
X120257448Y-105882026D01*
X120276168Y-105895910D01*
X120293438Y-105911562D01*
X120309090Y-105928832D01*
X120322974Y-105947552D01*
X120334956Y-105967543D01*
X120344921Y-105988613D01*
X120352773Y-106010557D01*
X120358437Y-106033166D01*
X120361856Y-106056221D01*
X120363000Y-106079500D01*
X120363000Y-106554500D01*
X120361856Y-106577779D01*
X120358437Y-106600834D01*
X120352773Y-106623443D01*
X120344921Y-106645387D01*
X120334956Y-106666457D01*
X120322974Y-106686448D01*
X120309090Y-106705168D01*
X120293438Y-106722438D01*
X120276168Y-106738090D01*
X120257448Y-106751974D01*
X120237457Y-106763956D01*
X120216387Y-106773921D01*
X120194443Y-106781773D01*
X120171834Y-106787437D01*
X120148779Y-106790856D01*
X120125500Y-106792000D01*
X119550500Y-106792000D01*
X119527221Y-106790856D01*
X119504166Y-106787437D01*
X119481557Y-106781773D01*
X119459613Y-106773921D01*
X119438543Y-106763956D01*
X119418552Y-106751974D01*
X119399832Y-106738090D01*
X119382562Y-106722438D01*
X119366910Y-106705168D01*
X119353026Y-106686448D01*
X119341044Y-106666457D01*
X119331079Y-106645387D01*
X119323227Y-106623443D01*
X119317563Y-106600834D01*
X119314144Y-106577779D01*
X119313000Y-106554500D01*
X119313000Y-106079500D01*
X119314144Y-106056221D01*
X119317563Y-106033166D01*
X119323227Y-106010557D01*
X119331079Y-105988613D01*
X119341044Y-105967543D01*
X119353026Y-105947552D01*
X119366910Y-105928832D01*
X119382562Y-105911562D01*
X119399832Y-105895910D01*
X119418552Y-105882026D01*
X119438543Y-105870044D01*
X119459613Y-105860079D01*
X119481557Y-105852227D01*
X119504166Y-105846563D01*
X119527221Y-105843144D01*
X119550500Y-105842000D01*
X120125500Y-105842000D01*
X120148779Y-105843144D01*
G37*
G36*
X121898779Y-105843144D02*
G01*
X121921834Y-105846563D01*
X121944443Y-105852227D01*
X121966387Y-105860079D01*
X121987457Y-105870044D01*
X122007448Y-105882026D01*
X122026168Y-105895910D01*
X122043438Y-105911562D01*
X122059090Y-105928832D01*
X122072974Y-105947552D01*
X122084956Y-105967543D01*
X122094921Y-105988613D01*
X122102773Y-106010557D01*
X122108437Y-106033166D01*
X122111856Y-106056221D01*
X122113000Y-106079500D01*
X122113000Y-106554500D01*
X122111856Y-106577779D01*
X122108437Y-106600834D01*
X122102773Y-106623443D01*
X122094921Y-106645387D01*
X122084956Y-106666457D01*
X122072974Y-106686448D01*
X122059090Y-106705168D01*
X122043438Y-106722438D01*
X122026168Y-106738090D01*
X122007448Y-106751974D01*
X121987457Y-106763956D01*
X121966387Y-106773921D01*
X121944443Y-106781773D01*
X121921834Y-106787437D01*
X121898779Y-106790856D01*
X121875500Y-106792000D01*
X121300500Y-106792000D01*
X121277221Y-106790856D01*
X121254166Y-106787437D01*
X121231557Y-106781773D01*
X121209613Y-106773921D01*
X121188543Y-106763956D01*
X121168552Y-106751974D01*
X121149832Y-106738090D01*
X121132562Y-106722438D01*
X121116910Y-106705168D01*
X121103026Y-106686448D01*
X121091044Y-106666457D01*
X121081079Y-106645387D01*
X121073227Y-106623443D01*
X121067563Y-106600834D01*
X121064144Y-106577779D01*
X121063000Y-106554500D01*
X121063000Y-106079500D01*
X121064144Y-106056221D01*
X121067563Y-106033166D01*
X121073227Y-106010557D01*
X121081079Y-105988613D01*
X121091044Y-105967543D01*
X121103026Y-105947552D01*
X121116910Y-105928832D01*
X121132562Y-105911562D01*
X121149832Y-105895910D01*
X121168552Y-105882026D01*
X121188543Y-105870044D01*
X121209613Y-105860079D01*
X121231557Y-105852227D01*
X121254166Y-105846563D01*
X121277221Y-105843144D01*
X121300500Y-105842000D01*
X121875500Y-105842000D01*
X121898779Y-105843144D01*
G37*
G36*
X146741504Y-85249204D02*
G01*
X146765773Y-85252804D01*
X146789571Y-85258765D01*
X146812671Y-85267030D01*
X146834849Y-85277520D01*
X146855893Y-85290133D01*
X146875598Y-85304747D01*
X146893777Y-85321223D01*
X146910253Y-85339402D01*
X146924867Y-85359107D01*
X146937480Y-85380151D01*
X146947970Y-85402329D01*
X146956235Y-85425429D01*
X146962196Y-85449227D01*
X146965796Y-85473496D01*
X146967000Y-85498000D01*
X146967000Y-86423000D01*
X146965796Y-86447504D01*
X146962196Y-86471773D01*
X146956235Y-86495571D01*
X146947970Y-86518671D01*
X146937480Y-86540849D01*
X146924867Y-86561893D01*
X146910253Y-86581598D01*
X146893777Y-86599777D01*
X146875598Y-86616253D01*
X146855893Y-86630867D01*
X146834849Y-86643480D01*
X146812671Y-86653970D01*
X146789571Y-86662235D01*
X146765773Y-86668196D01*
X146741504Y-86671796D01*
X146717000Y-86673000D01*
X145467000Y-86673000D01*
X145442496Y-86671796D01*
X145418227Y-86668196D01*
X145394429Y-86662235D01*
X145371329Y-86653970D01*
X145349151Y-86643480D01*
X145328107Y-86630867D01*
X145308402Y-86616253D01*
X145290223Y-86599777D01*
X145273747Y-86581598D01*
X145259133Y-86561893D01*
X145246520Y-86540849D01*
X145236030Y-86518671D01*
X145227765Y-86495571D01*
X145221804Y-86471773D01*
X145218204Y-86447504D01*
X145217000Y-86423000D01*
X145217000Y-85498000D01*
X145218204Y-85473496D01*
X145221804Y-85449227D01*
X145227765Y-85425429D01*
X145236030Y-85402329D01*
X145246520Y-85380151D01*
X145259133Y-85359107D01*
X145273747Y-85339402D01*
X145290223Y-85321223D01*
X145308402Y-85304747D01*
X145328107Y-85290133D01*
X145349151Y-85277520D01*
X145371329Y-85267030D01*
X145394429Y-85258765D01*
X145418227Y-85252804D01*
X145442496Y-85249204D01*
X145467000Y-85248000D01*
X146717000Y-85248000D01*
X146741504Y-85249204D01*
G37*
G36*
X146741504Y-82274204D02*
G01*
X146765773Y-82277804D01*
X146789571Y-82283765D01*
X146812671Y-82292030D01*
X146834849Y-82302520D01*
X146855893Y-82315133D01*
X146875598Y-82329747D01*
X146893777Y-82346223D01*
X146910253Y-82364402D01*
X146924867Y-82384107D01*
X146937480Y-82405151D01*
X146947970Y-82427329D01*
X146956235Y-82450429D01*
X146962196Y-82474227D01*
X146965796Y-82498496D01*
X146967000Y-82523000D01*
X146967000Y-83448000D01*
X146965796Y-83472504D01*
X146962196Y-83496773D01*
X146956235Y-83520571D01*
X146947970Y-83543671D01*
X146937480Y-83565849D01*
X146924867Y-83586893D01*
X146910253Y-83606598D01*
X146893777Y-83624777D01*
X146875598Y-83641253D01*
X146855893Y-83655867D01*
X146834849Y-83668480D01*
X146812671Y-83678970D01*
X146789571Y-83687235D01*
X146765773Y-83693196D01*
X146741504Y-83696796D01*
X146717000Y-83698000D01*
X145467000Y-83698000D01*
X145442496Y-83696796D01*
X145418227Y-83693196D01*
X145394429Y-83687235D01*
X145371329Y-83678970D01*
X145349151Y-83668480D01*
X145328107Y-83655867D01*
X145308402Y-83641253D01*
X145290223Y-83624777D01*
X145273747Y-83606598D01*
X145259133Y-83586893D01*
X145246520Y-83565849D01*
X145236030Y-83543671D01*
X145227765Y-83520571D01*
X145221804Y-83496773D01*
X145218204Y-83472504D01*
X145217000Y-83448000D01*
X145217000Y-82523000D01*
X145218204Y-82498496D01*
X145221804Y-82474227D01*
X145227765Y-82450429D01*
X145236030Y-82427329D01*
X145246520Y-82405151D01*
X145259133Y-82384107D01*
X145273747Y-82364402D01*
X145290223Y-82346223D01*
X145308402Y-82329747D01*
X145328107Y-82315133D01*
X145349151Y-82302520D01*
X145371329Y-82292030D01*
X145394429Y-82283765D01*
X145418227Y-82277804D01*
X145442496Y-82274204D01*
X145467000Y-82273000D01*
X146717000Y-82273000D01*
X146741504Y-82274204D01*
G37*
M02*
