G04 #@! TF.GenerationSoftware,KiCad,Pcbnew,(5.1.5)-3*
G04 #@! TF.CreationDate,2020-05-08T01:18:23-06:00*
G04 #@! TF.ProjectId,cap,6361702e-6b69-4636-9164-5f7063625858,rev?*
G04 #@! TF.SameCoordinates,Original*
G04 #@! TF.FileFunction,Soldermask,Bot*
G04 #@! TF.FilePolarity,Negative*
%FSLAX46Y46*%
G04 Gerber Fmt 4.6, Leading zero omitted, Abs format (unit mm)*
G04 Created by KiCad (PCBNEW (5.1.5)-3) date 2020-05-08 01:18:23*
%MOMM*%
%LPD*%
G04 APERTURE LIST*
%ADD10C,0.100000*%
G04 APERTURE END LIST*
D10*
G36*
X151817021Y-103306640D02*
G01*
X152326769Y-103517785D01*
X152326771Y-103517786D01*
X152785534Y-103824321D01*
X153175679Y-104214466D01*
X153482214Y-104673229D01*
X153482215Y-104673231D01*
X153693360Y-105182979D01*
X153801000Y-105724124D01*
X153801000Y-106275876D01*
X153693360Y-106817021D01*
X153482215Y-107326769D01*
X153482214Y-107326771D01*
X153175679Y-107785534D01*
X152785534Y-108175679D01*
X152326771Y-108482214D01*
X152326770Y-108482215D01*
X152326769Y-108482215D01*
X151817021Y-108693360D01*
X151275876Y-108801000D01*
X150724124Y-108801000D01*
X150182979Y-108693360D01*
X149673231Y-108482215D01*
X149673230Y-108482215D01*
X149673229Y-108482214D01*
X149214466Y-108175679D01*
X148824321Y-107785534D01*
X148517786Y-107326771D01*
X148517785Y-107326769D01*
X148306640Y-106817021D01*
X148199000Y-106275876D01*
X148199000Y-105724124D01*
X148306640Y-105182979D01*
X148517785Y-104673231D01*
X148517786Y-104673229D01*
X148824321Y-104214466D01*
X149214466Y-103824321D01*
X149673229Y-103517786D01*
X149673231Y-103517785D01*
X150182979Y-103306640D01*
X150724124Y-103199000D01*
X151275876Y-103199000D01*
X151817021Y-103306640D01*
G37*
G36*
X114817021Y-103306640D02*
G01*
X115326769Y-103517785D01*
X115326771Y-103517786D01*
X115785534Y-103824321D01*
X116175679Y-104214466D01*
X116482214Y-104673229D01*
X116482215Y-104673231D01*
X116693360Y-105182979D01*
X116801000Y-105724124D01*
X116801000Y-106275876D01*
X116693360Y-106817021D01*
X116482215Y-107326769D01*
X116482214Y-107326771D01*
X116175679Y-107785534D01*
X115785534Y-108175679D01*
X115326771Y-108482214D01*
X115326770Y-108482215D01*
X115326769Y-108482215D01*
X114817021Y-108693360D01*
X114275876Y-108801000D01*
X113724124Y-108801000D01*
X113182979Y-108693360D01*
X112673231Y-108482215D01*
X112673230Y-108482215D01*
X112673229Y-108482214D01*
X112214466Y-108175679D01*
X111824321Y-107785534D01*
X111517786Y-107326771D01*
X111517785Y-107326769D01*
X111306640Y-106817021D01*
X111199000Y-106275876D01*
X111199000Y-105724124D01*
X111306640Y-105182979D01*
X111517785Y-104673231D01*
X111517786Y-104673229D01*
X111824321Y-104214466D01*
X112214466Y-103824321D01*
X112673229Y-103517786D01*
X112673231Y-103517785D01*
X113182979Y-103306640D01*
X113724124Y-103199000D01*
X114275876Y-103199000D01*
X114817021Y-103306640D01*
G37*
G36*
X125138228Y-101571703D02*
G01*
X125293100Y-101635853D01*
X125432481Y-101728985D01*
X125551015Y-101847519D01*
X125644147Y-101986900D01*
X125708297Y-102141772D01*
X125741000Y-102306184D01*
X125741000Y-102473816D01*
X125708297Y-102638228D01*
X125644147Y-102793100D01*
X125551015Y-102932481D01*
X125432481Y-103051015D01*
X125293100Y-103144147D01*
X125138228Y-103208297D01*
X124973816Y-103241000D01*
X124806184Y-103241000D01*
X124641772Y-103208297D01*
X124486900Y-103144147D01*
X124347519Y-103051015D01*
X124228985Y-102932481D01*
X124135853Y-102793100D01*
X124071703Y-102638228D01*
X124039000Y-102473816D01*
X124039000Y-102306184D01*
X124071703Y-102141772D01*
X124135853Y-101986900D01*
X124228985Y-101847519D01*
X124347519Y-101728985D01*
X124486900Y-101635853D01*
X124641772Y-101571703D01*
X124806184Y-101539000D01*
X124973816Y-101539000D01*
X125138228Y-101571703D01*
G37*
G36*
X140378228Y-101571703D02*
G01*
X140533100Y-101635853D01*
X140672481Y-101728985D01*
X140791015Y-101847519D01*
X140884147Y-101986900D01*
X140948297Y-102141772D01*
X140981000Y-102306184D01*
X140981000Y-102473816D01*
X140948297Y-102638228D01*
X140884147Y-102793100D01*
X140791015Y-102932481D01*
X140672481Y-103051015D01*
X140533100Y-103144147D01*
X140378228Y-103208297D01*
X140213816Y-103241000D01*
X140046184Y-103241000D01*
X139881772Y-103208297D01*
X139726900Y-103144147D01*
X139587519Y-103051015D01*
X139468985Y-102932481D01*
X139375853Y-102793100D01*
X139311703Y-102638228D01*
X139279000Y-102473816D01*
X139279000Y-102306184D01*
X139311703Y-102141772D01*
X139375853Y-101986900D01*
X139468985Y-101847519D01*
X139587519Y-101728985D01*
X139726900Y-101635853D01*
X139881772Y-101571703D01*
X140046184Y-101539000D01*
X140213816Y-101539000D01*
X140378228Y-101571703D01*
G37*
G36*
X140378228Y-99031703D02*
G01*
X140533100Y-99095853D01*
X140672481Y-99188985D01*
X140791015Y-99307519D01*
X140884147Y-99446900D01*
X140948297Y-99601772D01*
X140981000Y-99766184D01*
X140981000Y-99933816D01*
X140948297Y-100098228D01*
X140884147Y-100253100D01*
X140791015Y-100392481D01*
X140672481Y-100511015D01*
X140533100Y-100604147D01*
X140378228Y-100668297D01*
X140213816Y-100701000D01*
X140046184Y-100701000D01*
X139881772Y-100668297D01*
X139726900Y-100604147D01*
X139587519Y-100511015D01*
X139468985Y-100392481D01*
X139375853Y-100253100D01*
X139311703Y-100098228D01*
X139279000Y-99933816D01*
X139279000Y-99766184D01*
X139311703Y-99601772D01*
X139375853Y-99446900D01*
X139468985Y-99307519D01*
X139587519Y-99188985D01*
X139726900Y-99095853D01*
X139881772Y-99031703D01*
X140046184Y-98999000D01*
X140213816Y-98999000D01*
X140378228Y-99031703D01*
G37*
G36*
X125138228Y-99031703D02*
G01*
X125293100Y-99095853D01*
X125432481Y-99188985D01*
X125551015Y-99307519D01*
X125644147Y-99446900D01*
X125708297Y-99601772D01*
X125741000Y-99766184D01*
X125741000Y-99933816D01*
X125708297Y-100098228D01*
X125644147Y-100253100D01*
X125551015Y-100392481D01*
X125432481Y-100511015D01*
X125293100Y-100604147D01*
X125138228Y-100668297D01*
X124973816Y-100701000D01*
X124806184Y-100701000D01*
X124641772Y-100668297D01*
X124486900Y-100604147D01*
X124347519Y-100511015D01*
X124228985Y-100392481D01*
X124135853Y-100253100D01*
X124071703Y-100098228D01*
X124039000Y-99933816D01*
X124039000Y-99766184D01*
X124071703Y-99601772D01*
X124135853Y-99446900D01*
X124228985Y-99307519D01*
X124347519Y-99188985D01*
X124486900Y-99095853D01*
X124641772Y-99031703D01*
X124806184Y-98999000D01*
X124973816Y-98999000D01*
X125138228Y-99031703D01*
G37*
G36*
X121200048Y-97979122D02*
G01*
X121234387Y-97989539D01*
X121266036Y-98006456D01*
X121293778Y-98029222D01*
X121316544Y-98056964D01*
X121333461Y-98088613D01*
X121343878Y-98122952D01*
X121348000Y-98164807D01*
X121348000Y-99387193D01*
X121343878Y-99429048D01*
X121333461Y-99463387D01*
X121316544Y-99495036D01*
X121293778Y-99522778D01*
X121266036Y-99545544D01*
X121234387Y-99562461D01*
X121200048Y-99572878D01*
X121158193Y-99577000D01*
X119415807Y-99577000D01*
X119373952Y-99572878D01*
X119339613Y-99562461D01*
X119307964Y-99545544D01*
X119280222Y-99522778D01*
X119257456Y-99495036D01*
X119240539Y-99463387D01*
X119230122Y-99429048D01*
X119226000Y-99387193D01*
X119226000Y-98164807D01*
X119230122Y-98122952D01*
X119240539Y-98088613D01*
X119257456Y-98056964D01*
X119280222Y-98029222D01*
X119307964Y-98006456D01*
X119339613Y-97989539D01*
X119373952Y-97979122D01*
X119415807Y-97975000D01*
X121158193Y-97975000D01*
X121200048Y-97979122D01*
G37*
G36*
X145009571Y-97978863D02*
G01*
X145088023Y-97986590D01*
X145167417Y-98010674D01*
X145239013Y-98032392D01*
X145378165Y-98106771D01*
X145500133Y-98206867D01*
X145600229Y-98328835D01*
X145674608Y-98467987D01*
X145678477Y-98480741D01*
X145720410Y-98618977D01*
X145735875Y-98776000D01*
X145720410Y-98933023D01*
X145700396Y-98999000D01*
X145674608Y-99084013D01*
X145600229Y-99223165D01*
X145500133Y-99345133D01*
X145378165Y-99445229D01*
X145239013Y-99519608D01*
X145188682Y-99534875D01*
X145088023Y-99565410D01*
X145022432Y-99571870D01*
X144970346Y-99577000D01*
X144371654Y-99577000D01*
X144319568Y-99571870D01*
X144253977Y-99565410D01*
X144153318Y-99534875D01*
X144102987Y-99519608D01*
X143963835Y-99445229D01*
X143841867Y-99345133D01*
X143741771Y-99223165D01*
X143667392Y-99084013D01*
X143641604Y-98999000D01*
X143621590Y-98933023D01*
X143606125Y-98776000D01*
X143621590Y-98618977D01*
X143663523Y-98480741D01*
X143667392Y-98467987D01*
X143741771Y-98328835D01*
X143841867Y-98206867D01*
X143963835Y-98106771D01*
X144102987Y-98032392D01*
X144174583Y-98010674D01*
X144253977Y-97986590D01*
X144332429Y-97978863D01*
X144371654Y-97975000D01*
X144970346Y-97975000D01*
X145009571Y-97978863D01*
G37*
G36*
X116269585Y-95754802D02*
G01*
X116419410Y-95784604D01*
X116701674Y-95901521D01*
X116955705Y-96071259D01*
X117171741Y-96287295D01*
X117341479Y-96541326D01*
X117458396Y-96823590D01*
X117518000Y-97123240D01*
X117518000Y-97428760D01*
X117458396Y-97728410D01*
X117341479Y-98010674D01*
X117171741Y-98264705D01*
X116955705Y-98480741D01*
X116701674Y-98650479D01*
X116419410Y-98767396D01*
X116269585Y-98797198D01*
X116119761Y-98827000D01*
X115814239Y-98827000D01*
X115664415Y-98797198D01*
X115514590Y-98767396D01*
X115232326Y-98650479D01*
X114978295Y-98480741D01*
X114762259Y-98264705D01*
X114592521Y-98010674D01*
X114475604Y-97728410D01*
X114416000Y-97428760D01*
X114416000Y-97123240D01*
X114475604Y-96823590D01*
X114592521Y-96541326D01*
X114762259Y-96287295D01*
X114978295Y-96071259D01*
X115232326Y-95901521D01*
X115514590Y-95784604D01*
X115664415Y-95754802D01*
X115814239Y-95725000D01*
X116119761Y-95725000D01*
X116269585Y-95754802D01*
G37*
G36*
X140378228Y-96491703D02*
G01*
X140533100Y-96555853D01*
X140672481Y-96648985D01*
X140791015Y-96767519D01*
X140884147Y-96906900D01*
X140948297Y-97061772D01*
X140981000Y-97226184D01*
X140981000Y-97393816D01*
X140948297Y-97558228D01*
X140884147Y-97713100D01*
X140791015Y-97852481D01*
X140672481Y-97971015D01*
X140533100Y-98064147D01*
X140378228Y-98128297D01*
X140213816Y-98161000D01*
X140046184Y-98161000D01*
X139881772Y-98128297D01*
X139726900Y-98064147D01*
X139587519Y-97971015D01*
X139468985Y-97852481D01*
X139375853Y-97713100D01*
X139311703Y-97558228D01*
X139279000Y-97393816D01*
X139279000Y-97226184D01*
X139311703Y-97061772D01*
X139375853Y-96906900D01*
X139468985Y-96767519D01*
X139587519Y-96648985D01*
X139726900Y-96555853D01*
X139881772Y-96491703D01*
X140046184Y-96459000D01*
X140213816Y-96459000D01*
X140378228Y-96491703D01*
G37*
G36*
X125138228Y-96491703D02*
G01*
X125293100Y-96555853D01*
X125432481Y-96648985D01*
X125551015Y-96767519D01*
X125644147Y-96906900D01*
X125708297Y-97061772D01*
X125741000Y-97226184D01*
X125741000Y-97393816D01*
X125708297Y-97558228D01*
X125644147Y-97713100D01*
X125551015Y-97852481D01*
X125432481Y-97971015D01*
X125293100Y-98064147D01*
X125138228Y-98128297D01*
X124973816Y-98161000D01*
X124806184Y-98161000D01*
X124641772Y-98128297D01*
X124486900Y-98064147D01*
X124347519Y-97971015D01*
X124228985Y-97852481D01*
X124135853Y-97713100D01*
X124071703Y-97558228D01*
X124039000Y-97393816D01*
X124039000Y-97226184D01*
X124071703Y-97061772D01*
X124135853Y-96906900D01*
X124228985Y-96767519D01*
X124347519Y-96648985D01*
X124486900Y-96555853D01*
X124641772Y-96491703D01*
X124806184Y-96459000D01*
X124973816Y-96459000D01*
X125138228Y-96491703D01*
G37*
G36*
X149293585Y-94254802D02*
G01*
X149443410Y-94284604D01*
X149725674Y-94401521D01*
X149979705Y-94571259D01*
X150195741Y-94787295D01*
X150365479Y-95041326D01*
X150482396Y-95323590D01*
X150512198Y-95473415D01*
X150542000Y-95623239D01*
X150542000Y-95928761D01*
X150541152Y-95933023D01*
X150482396Y-96228410D01*
X150365479Y-96510674D01*
X150195741Y-96764705D01*
X149979705Y-96980741D01*
X149725674Y-97150479D01*
X149443410Y-97267396D01*
X149293585Y-97297198D01*
X149143761Y-97327000D01*
X148838239Y-97327000D01*
X148688415Y-97297198D01*
X148538590Y-97267396D01*
X148256326Y-97150479D01*
X148002295Y-96980741D01*
X147786259Y-96764705D01*
X147616521Y-96510674D01*
X147499604Y-96228410D01*
X147440848Y-95933023D01*
X147440000Y-95928761D01*
X147440000Y-95623239D01*
X147469802Y-95473415D01*
X147499604Y-95323590D01*
X147616521Y-95041326D01*
X147786259Y-94787295D01*
X148002295Y-94571259D01*
X148256326Y-94401521D01*
X148538590Y-94284604D01*
X148688415Y-94254802D01*
X148838239Y-94225000D01*
X149143761Y-94225000D01*
X149293585Y-94254802D01*
G37*
G36*
X120625571Y-94978863D02*
G01*
X120704023Y-94986590D01*
X120804682Y-95017125D01*
X120855013Y-95032392D01*
X120994165Y-95106771D01*
X121116133Y-95206867D01*
X121216229Y-95328835D01*
X121290608Y-95467987D01*
X121290608Y-95467988D01*
X121336410Y-95618977D01*
X121351875Y-95776000D01*
X121336410Y-95933023D01*
X121305875Y-96033682D01*
X121290608Y-96084013D01*
X121216229Y-96223165D01*
X121116133Y-96345133D01*
X120994165Y-96445229D01*
X120855013Y-96519608D01*
X120804682Y-96534875D01*
X120704023Y-96565410D01*
X120625571Y-96573137D01*
X120586346Y-96577000D01*
X119987654Y-96577000D01*
X119948429Y-96573137D01*
X119869977Y-96565410D01*
X119769318Y-96534875D01*
X119718987Y-96519608D01*
X119579835Y-96445229D01*
X119457867Y-96345133D01*
X119357771Y-96223165D01*
X119283392Y-96084013D01*
X119268125Y-96033682D01*
X119237590Y-95933023D01*
X119222125Y-95776000D01*
X119237590Y-95618977D01*
X119283392Y-95467988D01*
X119283392Y-95467987D01*
X119357771Y-95328835D01*
X119457867Y-95206867D01*
X119579835Y-95106771D01*
X119718987Y-95032392D01*
X119769318Y-95017125D01*
X119869977Y-94986590D01*
X119948429Y-94978863D01*
X119987654Y-94975000D01*
X120586346Y-94975000D01*
X120625571Y-94978863D01*
G37*
G36*
X145009571Y-94978863D02*
G01*
X145088023Y-94986590D01*
X145188682Y-95017125D01*
X145239013Y-95032392D01*
X145378165Y-95106771D01*
X145500133Y-95206867D01*
X145600229Y-95328835D01*
X145674608Y-95467987D01*
X145674608Y-95467988D01*
X145720410Y-95618977D01*
X145735875Y-95776000D01*
X145720410Y-95933023D01*
X145689875Y-96033682D01*
X145674608Y-96084013D01*
X145600229Y-96223165D01*
X145500133Y-96345133D01*
X145378165Y-96445229D01*
X145239013Y-96519608D01*
X145188682Y-96534875D01*
X145088023Y-96565410D01*
X145009571Y-96573137D01*
X144970346Y-96577000D01*
X144371654Y-96577000D01*
X144332429Y-96573137D01*
X144253977Y-96565410D01*
X144153318Y-96534875D01*
X144102987Y-96519608D01*
X143963835Y-96445229D01*
X143841867Y-96345133D01*
X143741771Y-96223165D01*
X143667392Y-96084013D01*
X143652125Y-96033682D01*
X143621590Y-95933023D01*
X143606125Y-95776000D01*
X143621590Y-95618977D01*
X143667392Y-95467988D01*
X143667392Y-95467987D01*
X143741771Y-95328835D01*
X143841867Y-95206867D01*
X143963835Y-95106771D01*
X144102987Y-95032392D01*
X144153318Y-95017125D01*
X144253977Y-94986590D01*
X144332429Y-94978863D01*
X144371654Y-94975000D01*
X144970346Y-94975000D01*
X145009571Y-94978863D01*
G37*
G36*
X140378228Y-93951703D02*
G01*
X140533100Y-94015853D01*
X140672481Y-94108985D01*
X140791015Y-94227519D01*
X140884147Y-94366900D01*
X140948297Y-94521772D01*
X140981000Y-94686184D01*
X140981000Y-94853816D01*
X140948297Y-95018228D01*
X140884147Y-95173100D01*
X140791015Y-95312481D01*
X140672481Y-95431015D01*
X140533100Y-95524147D01*
X140378228Y-95588297D01*
X140213816Y-95621000D01*
X140046184Y-95621000D01*
X139881772Y-95588297D01*
X139726900Y-95524147D01*
X139587519Y-95431015D01*
X139468985Y-95312481D01*
X139375853Y-95173100D01*
X139311703Y-95018228D01*
X139279000Y-94853816D01*
X139279000Y-94686184D01*
X139311703Y-94521772D01*
X139375853Y-94366900D01*
X139468985Y-94227519D01*
X139587519Y-94108985D01*
X139726900Y-94015853D01*
X139881772Y-93951703D01*
X140046184Y-93919000D01*
X140213816Y-93919000D01*
X140378228Y-93951703D01*
G37*
G36*
X125138228Y-93951703D02*
G01*
X125293100Y-94015853D01*
X125432481Y-94108985D01*
X125551015Y-94227519D01*
X125644147Y-94366900D01*
X125708297Y-94521772D01*
X125741000Y-94686184D01*
X125741000Y-94853816D01*
X125708297Y-95018228D01*
X125644147Y-95173100D01*
X125551015Y-95312481D01*
X125432481Y-95431015D01*
X125293100Y-95524147D01*
X125138228Y-95588297D01*
X124973816Y-95621000D01*
X124806184Y-95621000D01*
X124641772Y-95588297D01*
X124486900Y-95524147D01*
X124347519Y-95431015D01*
X124228985Y-95312481D01*
X124135853Y-95173100D01*
X124071703Y-95018228D01*
X124039000Y-94853816D01*
X124039000Y-94686184D01*
X124071703Y-94521772D01*
X124135853Y-94366900D01*
X124228985Y-94227519D01*
X124347519Y-94108985D01*
X124486900Y-94015853D01*
X124641772Y-93951703D01*
X124806184Y-93919000D01*
X124973816Y-93919000D01*
X125138228Y-93951703D01*
G37*
G36*
X145584048Y-91979122D02*
G01*
X145618387Y-91989539D01*
X145650036Y-92006456D01*
X145677778Y-92029222D01*
X145700544Y-92056964D01*
X145717461Y-92088613D01*
X145727878Y-92122952D01*
X145732000Y-92164807D01*
X145732000Y-93387193D01*
X145727878Y-93429048D01*
X145717461Y-93463387D01*
X145700544Y-93495036D01*
X145677778Y-93522778D01*
X145650036Y-93545544D01*
X145618387Y-93562461D01*
X145584048Y-93572878D01*
X145542193Y-93577000D01*
X143799807Y-93577000D01*
X143757952Y-93572878D01*
X143723613Y-93562461D01*
X143691964Y-93545544D01*
X143664222Y-93522778D01*
X143641456Y-93495036D01*
X143624539Y-93463387D01*
X143614122Y-93429048D01*
X143610000Y-93387193D01*
X143610000Y-92164807D01*
X143614122Y-92122952D01*
X143624539Y-92088613D01*
X143641456Y-92056964D01*
X143664222Y-92029222D01*
X143691964Y-92006456D01*
X143723613Y-91989539D01*
X143757952Y-91979122D01*
X143799807Y-91975000D01*
X145542193Y-91975000D01*
X145584048Y-91979122D01*
G37*
G36*
X125138228Y-91411703D02*
G01*
X125293100Y-91475853D01*
X125432481Y-91568985D01*
X125551015Y-91687519D01*
X125644147Y-91826900D01*
X125708297Y-91981772D01*
X125741000Y-92146184D01*
X125741000Y-92313816D01*
X125708297Y-92478228D01*
X125644147Y-92633100D01*
X125551015Y-92772481D01*
X125432481Y-92891015D01*
X125293100Y-92984147D01*
X125138228Y-93048297D01*
X124973816Y-93081000D01*
X124806184Y-93081000D01*
X124641772Y-93048297D01*
X124486900Y-92984147D01*
X124347519Y-92891015D01*
X124228985Y-92772481D01*
X124135853Y-92633100D01*
X124071703Y-92478228D01*
X124039000Y-92313816D01*
X124039000Y-92146184D01*
X124071703Y-91981772D01*
X124135853Y-91826900D01*
X124228985Y-91687519D01*
X124347519Y-91568985D01*
X124486900Y-91475853D01*
X124641772Y-91411703D01*
X124806184Y-91379000D01*
X124973816Y-91379000D01*
X125138228Y-91411703D01*
G37*
G36*
X140378228Y-91411703D02*
G01*
X140533100Y-91475853D01*
X140672481Y-91568985D01*
X140791015Y-91687519D01*
X140884147Y-91826900D01*
X140948297Y-91981772D01*
X140981000Y-92146184D01*
X140981000Y-92313816D01*
X140948297Y-92478228D01*
X140884147Y-92633100D01*
X140791015Y-92772481D01*
X140672481Y-92891015D01*
X140533100Y-92984147D01*
X140378228Y-93048297D01*
X140213816Y-93081000D01*
X140046184Y-93081000D01*
X139881772Y-93048297D01*
X139726900Y-92984147D01*
X139587519Y-92891015D01*
X139468985Y-92772481D01*
X139375853Y-92633100D01*
X139311703Y-92478228D01*
X139279000Y-92313816D01*
X139279000Y-92146184D01*
X139311703Y-91981772D01*
X139375853Y-91826900D01*
X139468985Y-91687519D01*
X139587519Y-91568985D01*
X139726900Y-91475853D01*
X139881772Y-91411703D01*
X140046184Y-91379000D01*
X140213816Y-91379000D01*
X140378228Y-91411703D01*
G37*
G36*
X140378228Y-88871703D02*
G01*
X140533100Y-88935853D01*
X140672481Y-89028985D01*
X140791015Y-89147519D01*
X140884147Y-89286900D01*
X140948297Y-89441772D01*
X140981000Y-89606184D01*
X140981000Y-89773816D01*
X140948297Y-89938228D01*
X140884147Y-90093100D01*
X140791015Y-90232481D01*
X140672481Y-90351015D01*
X140533100Y-90444147D01*
X140378228Y-90508297D01*
X140213816Y-90541000D01*
X140046184Y-90541000D01*
X139881772Y-90508297D01*
X139726900Y-90444147D01*
X139587519Y-90351015D01*
X139468985Y-90232481D01*
X139375853Y-90093100D01*
X139311703Y-89938228D01*
X139279000Y-89773816D01*
X139279000Y-89606184D01*
X139311703Y-89441772D01*
X139375853Y-89286900D01*
X139468985Y-89147519D01*
X139587519Y-89028985D01*
X139726900Y-88935853D01*
X139881772Y-88871703D01*
X140046184Y-88839000D01*
X140213816Y-88839000D01*
X140378228Y-88871703D01*
G37*
G36*
X125138228Y-88871703D02*
G01*
X125293100Y-88935853D01*
X125432481Y-89028985D01*
X125551015Y-89147519D01*
X125644147Y-89286900D01*
X125708297Y-89441772D01*
X125741000Y-89606184D01*
X125741000Y-89773816D01*
X125708297Y-89938228D01*
X125644147Y-90093100D01*
X125551015Y-90232481D01*
X125432481Y-90351015D01*
X125293100Y-90444147D01*
X125138228Y-90508297D01*
X124973816Y-90541000D01*
X124806184Y-90541000D01*
X124641772Y-90508297D01*
X124486900Y-90444147D01*
X124347519Y-90351015D01*
X124228985Y-90232481D01*
X124135853Y-90093100D01*
X124071703Y-89938228D01*
X124039000Y-89773816D01*
X124039000Y-89606184D01*
X124071703Y-89441772D01*
X124135853Y-89286900D01*
X124228985Y-89147519D01*
X124347519Y-89028985D01*
X124486900Y-88935853D01*
X124641772Y-88871703D01*
X124806184Y-88839000D01*
X124973816Y-88839000D01*
X125138228Y-88871703D01*
G37*
G36*
X140378228Y-86331703D02*
G01*
X140533100Y-86395853D01*
X140672481Y-86488985D01*
X140791015Y-86607519D01*
X140884147Y-86746900D01*
X140948297Y-86901772D01*
X140981000Y-87066184D01*
X140981000Y-87233816D01*
X140948297Y-87398228D01*
X140884147Y-87553100D01*
X140791015Y-87692481D01*
X140672481Y-87811015D01*
X140533100Y-87904147D01*
X140378228Y-87968297D01*
X140213816Y-88001000D01*
X140046184Y-88001000D01*
X139881772Y-87968297D01*
X139726900Y-87904147D01*
X139587519Y-87811015D01*
X139468985Y-87692481D01*
X139375853Y-87553100D01*
X139311703Y-87398228D01*
X139279000Y-87233816D01*
X139279000Y-87066184D01*
X139311703Y-86901772D01*
X139375853Y-86746900D01*
X139468985Y-86607519D01*
X139587519Y-86488985D01*
X139726900Y-86395853D01*
X139881772Y-86331703D01*
X140046184Y-86299000D01*
X140213816Y-86299000D01*
X140378228Y-86331703D01*
G37*
G36*
X125138228Y-86331703D02*
G01*
X125293100Y-86395853D01*
X125432481Y-86488985D01*
X125551015Y-86607519D01*
X125644147Y-86746900D01*
X125708297Y-86901772D01*
X125741000Y-87066184D01*
X125741000Y-87233816D01*
X125708297Y-87398228D01*
X125644147Y-87553100D01*
X125551015Y-87692481D01*
X125432481Y-87811015D01*
X125293100Y-87904147D01*
X125138228Y-87968297D01*
X124973816Y-88001000D01*
X124806184Y-88001000D01*
X124641772Y-87968297D01*
X124486900Y-87904147D01*
X124347519Y-87811015D01*
X124228985Y-87692481D01*
X124135853Y-87553100D01*
X124071703Y-87398228D01*
X124039000Y-87233816D01*
X124039000Y-87066184D01*
X124071703Y-86901772D01*
X124135853Y-86746900D01*
X124228985Y-86607519D01*
X124347519Y-86488985D01*
X124486900Y-86395853D01*
X124641772Y-86331703D01*
X124806184Y-86299000D01*
X124973816Y-86299000D01*
X125138228Y-86331703D01*
G37*
G36*
X140378228Y-83791703D02*
G01*
X140533100Y-83855853D01*
X140672481Y-83948985D01*
X140791015Y-84067519D01*
X140884147Y-84206900D01*
X140948297Y-84361772D01*
X140981000Y-84526184D01*
X140981000Y-84693816D01*
X140948297Y-84858228D01*
X140884147Y-85013100D01*
X140791015Y-85152481D01*
X140672481Y-85271015D01*
X140533100Y-85364147D01*
X140378228Y-85428297D01*
X140213816Y-85461000D01*
X140046184Y-85461000D01*
X139881772Y-85428297D01*
X139726900Y-85364147D01*
X139587519Y-85271015D01*
X139468985Y-85152481D01*
X139375853Y-85013100D01*
X139311703Y-84858228D01*
X139279000Y-84693816D01*
X139279000Y-84526184D01*
X139311703Y-84361772D01*
X139375853Y-84206900D01*
X139468985Y-84067519D01*
X139587519Y-83948985D01*
X139726900Y-83855853D01*
X139881772Y-83791703D01*
X140046184Y-83759000D01*
X140213816Y-83759000D01*
X140378228Y-83791703D01*
G37*
G36*
X125138228Y-83791703D02*
G01*
X125293100Y-83855853D01*
X125432481Y-83948985D01*
X125551015Y-84067519D01*
X125644147Y-84206900D01*
X125708297Y-84361772D01*
X125741000Y-84526184D01*
X125741000Y-84693816D01*
X125708297Y-84858228D01*
X125644147Y-85013100D01*
X125551015Y-85152481D01*
X125432481Y-85271015D01*
X125293100Y-85364147D01*
X125138228Y-85428297D01*
X124973816Y-85461000D01*
X124806184Y-85461000D01*
X124641772Y-85428297D01*
X124486900Y-85364147D01*
X124347519Y-85271015D01*
X124228985Y-85152481D01*
X124135853Y-85013100D01*
X124071703Y-84858228D01*
X124039000Y-84693816D01*
X124039000Y-84526184D01*
X124071703Y-84361772D01*
X124135853Y-84206900D01*
X124228985Y-84067519D01*
X124347519Y-83948985D01*
X124486900Y-83855853D01*
X124641772Y-83791703D01*
X124806184Y-83759000D01*
X124973816Y-83759000D01*
X125138228Y-83791703D01*
G37*
G36*
X121200048Y-83386122D02*
G01*
X121234387Y-83396539D01*
X121266036Y-83413456D01*
X121293778Y-83436222D01*
X121316544Y-83463964D01*
X121333461Y-83495613D01*
X121343878Y-83529952D01*
X121348000Y-83571807D01*
X121348000Y-84794193D01*
X121343878Y-84836048D01*
X121333461Y-84870387D01*
X121316544Y-84902036D01*
X121293778Y-84929778D01*
X121266036Y-84952544D01*
X121234387Y-84969461D01*
X121200048Y-84979878D01*
X121158193Y-84984000D01*
X119415807Y-84984000D01*
X119373952Y-84979878D01*
X119339613Y-84969461D01*
X119307964Y-84952544D01*
X119280222Y-84929778D01*
X119257456Y-84902036D01*
X119240539Y-84870387D01*
X119230122Y-84836048D01*
X119226000Y-84794193D01*
X119226000Y-83571807D01*
X119230122Y-83529952D01*
X119240539Y-83495613D01*
X119257456Y-83463964D01*
X119280222Y-83436222D01*
X119307964Y-83413456D01*
X119339613Y-83396539D01*
X119373952Y-83386122D01*
X119415807Y-83382000D01*
X121158193Y-83382000D01*
X121200048Y-83386122D01*
G37*
G36*
X116269585Y-81161802D02*
G01*
X116419410Y-81191604D01*
X116701674Y-81308521D01*
X116955705Y-81478259D01*
X117171741Y-81694295D01*
X117341479Y-81948326D01*
X117458396Y-82230590D01*
X117518000Y-82530240D01*
X117518000Y-82835760D01*
X117458396Y-83135410D01*
X117341479Y-83417674D01*
X117171741Y-83671705D01*
X116955705Y-83887741D01*
X116701674Y-84057479D01*
X116419410Y-84174396D01*
X116269585Y-84204198D01*
X116119761Y-84234000D01*
X115814239Y-84234000D01*
X115664415Y-84204198D01*
X115514590Y-84174396D01*
X115232326Y-84057479D01*
X114978295Y-83887741D01*
X114762259Y-83671705D01*
X114592521Y-83417674D01*
X114475604Y-83135410D01*
X114416000Y-82835760D01*
X114416000Y-82530240D01*
X114475604Y-82230590D01*
X114592521Y-81948326D01*
X114762259Y-81694295D01*
X114978295Y-81478259D01*
X115232326Y-81308521D01*
X115514590Y-81191604D01*
X115664415Y-81161802D01*
X115814239Y-81132000D01*
X116119761Y-81132000D01*
X116269585Y-81161802D01*
G37*
G36*
X125138228Y-81251703D02*
G01*
X125293100Y-81315853D01*
X125432481Y-81408985D01*
X125551015Y-81527519D01*
X125644147Y-81666900D01*
X125708297Y-81821772D01*
X125741000Y-81986184D01*
X125741000Y-82153816D01*
X125708297Y-82318228D01*
X125644147Y-82473100D01*
X125551015Y-82612481D01*
X125432481Y-82731015D01*
X125293100Y-82824147D01*
X125138228Y-82888297D01*
X124973816Y-82921000D01*
X124806184Y-82921000D01*
X124641772Y-82888297D01*
X124486900Y-82824147D01*
X124347519Y-82731015D01*
X124228985Y-82612481D01*
X124135853Y-82473100D01*
X124071703Y-82318228D01*
X124039000Y-82153816D01*
X124039000Y-81986184D01*
X124071703Y-81821772D01*
X124135853Y-81666900D01*
X124228985Y-81527519D01*
X124347519Y-81408985D01*
X124486900Y-81315853D01*
X124641772Y-81251703D01*
X124806184Y-81219000D01*
X124973816Y-81219000D01*
X125138228Y-81251703D01*
G37*
G36*
X140378228Y-81251703D02*
G01*
X140533100Y-81315853D01*
X140672481Y-81408985D01*
X140791015Y-81527519D01*
X140884147Y-81666900D01*
X140948297Y-81821772D01*
X140981000Y-81986184D01*
X140981000Y-82153816D01*
X140948297Y-82318228D01*
X140884147Y-82473100D01*
X140791015Y-82612481D01*
X140672481Y-82731015D01*
X140533100Y-82824147D01*
X140378228Y-82888297D01*
X140213816Y-82921000D01*
X140046184Y-82921000D01*
X139881772Y-82888297D01*
X139726900Y-82824147D01*
X139587519Y-82731015D01*
X139468985Y-82612481D01*
X139375853Y-82473100D01*
X139311703Y-82318228D01*
X139279000Y-82153816D01*
X139279000Y-81986184D01*
X139311703Y-81821772D01*
X139375853Y-81666900D01*
X139468985Y-81527519D01*
X139587519Y-81408985D01*
X139726900Y-81315853D01*
X139881772Y-81251703D01*
X140046184Y-81219000D01*
X140213816Y-81219000D01*
X140378228Y-81251703D01*
G37*
G36*
X120625571Y-80385863D02*
G01*
X120704023Y-80393590D01*
X120804682Y-80424125D01*
X120855013Y-80439392D01*
X120994165Y-80513771D01*
X121116133Y-80613867D01*
X121216229Y-80735835D01*
X121290608Y-80874987D01*
X121290608Y-80874988D01*
X121336410Y-81025977D01*
X121351875Y-81183000D01*
X121336410Y-81340023D01*
X121305875Y-81440682D01*
X121290608Y-81491013D01*
X121216229Y-81630165D01*
X121116133Y-81752133D01*
X120994165Y-81852229D01*
X120855013Y-81926608D01*
X120804682Y-81941875D01*
X120704023Y-81972410D01*
X120625571Y-81980137D01*
X120586346Y-81984000D01*
X119987654Y-81984000D01*
X119948429Y-81980137D01*
X119869977Y-81972410D01*
X119769318Y-81941875D01*
X119718987Y-81926608D01*
X119579835Y-81852229D01*
X119457867Y-81752133D01*
X119357771Y-81630165D01*
X119283392Y-81491013D01*
X119268125Y-81440682D01*
X119237590Y-81340023D01*
X119222125Y-81183000D01*
X119237590Y-81025977D01*
X119283392Y-80874988D01*
X119283392Y-80874987D01*
X119357771Y-80735835D01*
X119457867Y-80613867D01*
X119579835Y-80513771D01*
X119718987Y-80439392D01*
X119769318Y-80424125D01*
X119869977Y-80393590D01*
X119948429Y-80385863D01*
X119987654Y-80382000D01*
X120586346Y-80382000D01*
X120625571Y-80385863D01*
G37*
G36*
X140378228Y-78711703D02*
G01*
X140533100Y-78775853D01*
X140672481Y-78868985D01*
X140791015Y-78987519D01*
X140884147Y-79126900D01*
X140948297Y-79281772D01*
X140981000Y-79446184D01*
X140981000Y-79613816D01*
X140948297Y-79778228D01*
X140884147Y-79933100D01*
X140791015Y-80072481D01*
X140672481Y-80191015D01*
X140533100Y-80284147D01*
X140378228Y-80348297D01*
X140213816Y-80381000D01*
X140046184Y-80381000D01*
X139881772Y-80348297D01*
X139726900Y-80284147D01*
X139587519Y-80191015D01*
X139468985Y-80072481D01*
X139375853Y-79933100D01*
X139311703Y-79778228D01*
X139279000Y-79613816D01*
X139279000Y-79446184D01*
X139311703Y-79281772D01*
X139375853Y-79126900D01*
X139468985Y-78987519D01*
X139587519Y-78868985D01*
X139726900Y-78775853D01*
X139881772Y-78711703D01*
X140046184Y-78679000D01*
X140213816Y-78679000D01*
X140378228Y-78711703D01*
G37*
G36*
X125138228Y-78711703D02*
G01*
X125293100Y-78775853D01*
X125432481Y-78868985D01*
X125551015Y-78987519D01*
X125644147Y-79126900D01*
X125708297Y-79281772D01*
X125741000Y-79446184D01*
X125741000Y-79613816D01*
X125708297Y-79778228D01*
X125644147Y-79933100D01*
X125551015Y-80072481D01*
X125432481Y-80191015D01*
X125293100Y-80284147D01*
X125138228Y-80348297D01*
X124973816Y-80381000D01*
X124806184Y-80381000D01*
X124641772Y-80348297D01*
X124486900Y-80284147D01*
X124347519Y-80191015D01*
X124228985Y-80072481D01*
X124135853Y-79933100D01*
X124071703Y-79778228D01*
X124039000Y-79613816D01*
X124039000Y-79446184D01*
X124071703Y-79281772D01*
X124135853Y-79126900D01*
X124228985Y-78987519D01*
X124347519Y-78868985D01*
X124486900Y-78775853D01*
X124641772Y-78711703D01*
X124806184Y-78679000D01*
X124973816Y-78679000D01*
X125138228Y-78711703D01*
G37*
G36*
X140378228Y-76171703D02*
G01*
X140533100Y-76235853D01*
X140672481Y-76328985D01*
X140791015Y-76447519D01*
X140884147Y-76586900D01*
X140948297Y-76741772D01*
X140981000Y-76906184D01*
X140981000Y-77073816D01*
X140948297Y-77238228D01*
X140884147Y-77393100D01*
X140791015Y-77532481D01*
X140672481Y-77651015D01*
X140533100Y-77744147D01*
X140378228Y-77808297D01*
X140213816Y-77841000D01*
X140046184Y-77841000D01*
X139881772Y-77808297D01*
X139726900Y-77744147D01*
X139587519Y-77651015D01*
X139468985Y-77532481D01*
X139375853Y-77393100D01*
X139311703Y-77238228D01*
X139279000Y-77073816D01*
X139279000Y-76906184D01*
X139311703Y-76741772D01*
X139375853Y-76586900D01*
X139468985Y-76447519D01*
X139587519Y-76328985D01*
X139726900Y-76235853D01*
X139881772Y-76171703D01*
X140046184Y-76139000D01*
X140213816Y-76139000D01*
X140378228Y-76171703D01*
G37*
G36*
X125138228Y-76171703D02*
G01*
X125293100Y-76235853D01*
X125432481Y-76328985D01*
X125551015Y-76447519D01*
X125644147Y-76586900D01*
X125708297Y-76741772D01*
X125741000Y-76906184D01*
X125741000Y-77073816D01*
X125708297Y-77238228D01*
X125644147Y-77393100D01*
X125551015Y-77532481D01*
X125432481Y-77651015D01*
X125293100Y-77744147D01*
X125138228Y-77808297D01*
X124973816Y-77841000D01*
X124806184Y-77841000D01*
X124641772Y-77808297D01*
X124486900Y-77744147D01*
X124347519Y-77651015D01*
X124228985Y-77532481D01*
X124135853Y-77393100D01*
X124071703Y-77238228D01*
X124039000Y-77073816D01*
X124039000Y-76906184D01*
X124071703Y-76741772D01*
X124135853Y-76586900D01*
X124228985Y-76447519D01*
X124347519Y-76328985D01*
X124486900Y-76235853D01*
X124641772Y-76171703D01*
X124806184Y-76139000D01*
X124973816Y-76139000D01*
X125138228Y-76171703D01*
G37*
G36*
X125138228Y-73631703D02*
G01*
X125293100Y-73695853D01*
X125432481Y-73788985D01*
X125551015Y-73907519D01*
X125644147Y-74046900D01*
X125708297Y-74201772D01*
X125741000Y-74366184D01*
X125741000Y-74533816D01*
X125708297Y-74698228D01*
X125644147Y-74853100D01*
X125551015Y-74992481D01*
X125432481Y-75111015D01*
X125293100Y-75204147D01*
X125138228Y-75268297D01*
X124973816Y-75301000D01*
X124806184Y-75301000D01*
X124641772Y-75268297D01*
X124486900Y-75204147D01*
X124347519Y-75111015D01*
X124228985Y-74992481D01*
X124135853Y-74853100D01*
X124071703Y-74698228D01*
X124039000Y-74533816D01*
X124039000Y-74366184D01*
X124071703Y-74201772D01*
X124135853Y-74046900D01*
X124228985Y-73907519D01*
X124347519Y-73788985D01*
X124486900Y-73695853D01*
X124641772Y-73631703D01*
X124806184Y-73599000D01*
X124973816Y-73599000D01*
X125138228Y-73631703D01*
G37*
G36*
X140378228Y-73631703D02*
G01*
X140533100Y-73695853D01*
X140672481Y-73788985D01*
X140791015Y-73907519D01*
X140884147Y-74046900D01*
X140948297Y-74201772D01*
X140981000Y-74366184D01*
X140981000Y-74533816D01*
X140948297Y-74698228D01*
X140884147Y-74853100D01*
X140791015Y-74992481D01*
X140672481Y-75111015D01*
X140533100Y-75204147D01*
X140378228Y-75268297D01*
X140213816Y-75301000D01*
X140046184Y-75301000D01*
X139881772Y-75268297D01*
X139726900Y-75204147D01*
X139587519Y-75111015D01*
X139468985Y-74992481D01*
X139375853Y-74853100D01*
X139311703Y-74698228D01*
X139279000Y-74533816D01*
X139279000Y-74366184D01*
X139311703Y-74201772D01*
X139375853Y-74046900D01*
X139468985Y-73907519D01*
X139587519Y-73788985D01*
X139726900Y-73695853D01*
X139881772Y-73631703D01*
X140046184Y-73599000D01*
X140213816Y-73599000D01*
X140378228Y-73631703D01*
G37*
G36*
X140378228Y-71091703D02*
G01*
X140533100Y-71155853D01*
X140672481Y-71248985D01*
X140791015Y-71367519D01*
X140884147Y-71506900D01*
X140948297Y-71661772D01*
X140981000Y-71826184D01*
X140981000Y-71993816D01*
X140948297Y-72158228D01*
X140884147Y-72313100D01*
X140791015Y-72452481D01*
X140672481Y-72571015D01*
X140533100Y-72664147D01*
X140378228Y-72728297D01*
X140213816Y-72761000D01*
X140046184Y-72761000D01*
X139881772Y-72728297D01*
X139726900Y-72664147D01*
X139587519Y-72571015D01*
X139468985Y-72452481D01*
X139375853Y-72313100D01*
X139311703Y-72158228D01*
X139279000Y-71993816D01*
X139279000Y-71826184D01*
X139311703Y-71661772D01*
X139375853Y-71506900D01*
X139468985Y-71367519D01*
X139587519Y-71248985D01*
X139726900Y-71155853D01*
X139881772Y-71091703D01*
X140046184Y-71059000D01*
X140213816Y-71059000D01*
X140378228Y-71091703D01*
G37*
G36*
X125138228Y-71091703D02*
G01*
X125293100Y-71155853D01*
X125432481Y-71248985D01*
X125551015Y-71367519D01*
X125644147Y-71506900D01*
X125708297Y-71661772D01*
X125741000Y-71826184D01*
X125741000Y-71993816D01*
X125708297Y-72158228D01*
X125644147Y-72313100D01*
X125551015Y-72452481D01*
X125432481Y-72571015D01*
X125293100Y-72664147D01*
X125138228Y-72728297D01*
X124973816Y-72761000D01*
X124806184Y-72761000D01*
X124641772Y-72728297D01*
X124486900Y-72664147D01*
X124347519Y-72571015D01*
X124228985Y-72452481D01*
X124135853Y-72313100D01*
X124071703Y-72158228D01*
X124039000Y-71993816D01*
X124039000Y-71826184D01*
X124071703Y-71661772D01*
X124135853Y-71506900D01*
X124228985Y-71367519D01*
X124347519Y-71248985D01*
X124486900Y-71155853D01*
X124641772Y-71091703D01*
X124806184Y-71059000D01*
X124973816Y-71059000D01*
X125138228Y-71091703D01*
G37*
G36*
X145009571Y-68792863D02*
G01*
X145088023Y-68800590D01*
X145167417Y-68824674D01*
X145239013Y-68846392D01*
X145378165Y-68920771D01*
X145500133Y-69020867D01*
X145600229Y-69142835D01*
X145674608Y-69281987D01*
X145678477Y-69294741D01*
X145720410Y-69432977D01*
X145735875Y-69590000D01*
X145720410Y-69747023D01*
X145689875Y-69847682D01*
X145674608Y-69898013D01*
X145600229Y-70037165D01*
X145500133Y-70159133D01*
X145378165Y-70259229D01*
X145239013Y-70333608D01*
X145188682Y-70348875D01*
X145088023Y-70379410D01*
X145022432Y-70385870D01*
X144970346Y-70391000D01*
X144371654Y-70391000D01*
X144319568Y-70385870D01*
X144253977Y-70379410D01*
X144153318Y-70348875D01*
X144102987Y-70333608D01*
X143963835Y-70259229D01*
X143841867Y-70159133D01*
X143741771Y-70037165D01*
X143667392Y-69898013D01*
X143652125Y-69847682D01*
X143621590Y-69747023D01*
X143606125Y-69590000D01*
X143621590Y-69432977D01*
X143663523Y-69294741D01*
X143667392Y-69281987D01*
X143741771Y-69142835D01*
X143841867Y-69020867D01*
X143963835Y-68920771D01*
X144102987Y-68846392D01*
X144174583Y-68824674D01*
X144253977Y-68800590D01*
X144332429Y-68792863D01*
X144371654Y-68789000D01*
X144970346Y-68789000D01*
X145009571Y-68792863D01*
G37*
G36*
X121200048Y-68793122D02*
G01*
X121234387Y-68803539D01*
X121266036Y-68820456D01*
X121293778Y-68843222D01*
X121316544Y-68870964D01*
X121333461Y-68902613D01*
X121343878Y-68936952D01*
X121348000Y-68978807D01*
X121348000Y-70201193D01*
X121343878Y-70243048D01*
X121333461Y-70277387D01*
X121316544Y-70309036D01*
X121293778Y-70336778D01*
X121266036Y-70359544D01*
X121234387Y-70376461D01*
X121200048Y-70386878D01*
X121158193Y-70391000D01*
X119415807Y-70391000D01*
X119373952Y-70386878D01*
X119339613Y-70376461D01*
X119307964Y-70359544D01*
X119280222Y-70336778D01*
X119257456Y-70309036D01*
X119240539Y-70277387D01*
X119230122Y-70243048D01*
X119226000Y-70201193D01*
X119226000Y-68978807D01*
X119230122Y-68936952D01*
X119240539Y-68902613D01*
X119257456Y-68870964D01*
X119280222Y-68843222D01*
X119307964Y-68820456D01*
X119339613Y-68803539D01*
X119373952Y-68793122D01*
X119415807Y-68789000D01*
X121158193Y-68789000D01*
X121200048Y-68793122D01*
G37*
G36*
X140378228Y-68551703D02*
G01*
X140533100Y-68615853D01*
X140672481Y-68708985D01*
X140791015Y-68827519D01*
X140884147Y-68966900D01*
X140948297Y-69121772D01*
X140981000Y-69286184D01*
X140981000Y-69453816D01*
X140948297Y-69618228D01*
X140884147Y-69773100D01*
X140791015Y-69912481D01*
X140672481Y-70031015D01*
X140533100Y-70124147D01*
X140378228Y-70188297D01*
X140213816Y-70221000D01*
X140046184Y-70221000D01*
X139881772Y-70188297D01*
X139726900Y-70124147D01*
X139587519Y-70031015D01*
X139468985Y-69912481D01*
X139375853Y-69773100D01*
X139311703Y-69618228D01*
X139279000Y-69453816D01*
X139279000Y-69286184D01*
X139311703Y-69121772D01*
X139375853Y-68966900D01*
X139468985Y-68827519D01*
X139587519Y-68708985D01*
X139726900Y-68615853D01*
X139881772Y-68551703D01*
X140046184Y-68519000D01*
X140213816Y-68519000D01*
X140378228Y-68551703D01*
G37*
G36*
X125138228Y-68551703D02*
G01*
X125293100Y-68615853D01*
X125432481Y-68708985D01*
X125551015Y-68827519D01*
X125644147Y-68966900D01*
X125708297Y-69121772D01*
X125741000Y-69286184D01*
X125741000Y-69453816D01*
X125708297Y-69618228D01*
X125644147Y-69773100D01*
X125551015Y-69912481D01*
X125432481Y-70031015D01*
X125293100Y-70124147D01*
X125138228Y-70188297D01*
X124973816Y-70221000D01*
X124806184Y-70221000D01*
X124641772Y-70188297D01*
X124486900Y-70124147D01*
X124347519Y-70031015D01*
X124228985Y-69912481D01*
X124135853Y-69773100D01*
X124071703Y-69618228D01*
X124039000Y-69453816D01*
X124039000Y-69286184D01*
X124071703Y-69121772D01*
X124135853Y-68966900D01*
X124228985Y-68827519D01*
X124347519Y-68708985D01*
X124486900Y-68615853D01*
X124641772Y-68551703D01*
X124806184Y-68519000D01*
X124973816Y-68519000D01*
X125138228Y-68551703D01*
G37*
G36*
X149293585Y-66568802D02*
G01*
X149443410Y-66598604D01*
X149725674Y-66715521D01*
X149979705Y-66885259D01*
X150195741Y-67101295D01*
X150365479Y-67355326D01*
X150482396Y-67637590D01*
X150542000Y-67937240D01*
X150542000Y-68242760D01*
X150482396Y-68542410D01*
X150365479Y-68824674D01*
X150195741Y-69078705D01*
X149979705Y-69294741D01*
X149725674Y-69464479D01*
X149443410Y-69581396D01*
X149293585Y-69611198D01*
X149143761Y-69641000D01*
X148838239Y-69641000D01*
X148688415Y-69611198D01*
X148538590Y-69581396D01*
X148256326Y-69464479D01*
X148002295Y-69294741D01*
X147786259Y-69078705D01*
X147616521Y-68824674D01*
X147499604Y-68542410D01*
X147440000Y-68242760D01*
X147440000Y-67937240D01*
X147499604Y-67637590D01*
X147616521Y-67355326D01*
X147786259Y-67101295D01*
X148002295Y-66885259D01*
X148256326Y-66715521D01*
X148538590Y-66598604D01*
X148688415Y-66568802D01*
X148838239Y-66539000D01*
X149143761Y-66539000D01*
X149293585Y-66568802D01*
G37*
G36*
X116269585Y-66568802D02*
G01*
X116419410Y-66598604D01*
X116701674Y-66715521D01*
X116955705Y-66885259D01*
X117171741Y-67101295D01*
X117341479Y-67355326D01*
X117458396Y-67637590D01*
X117518000Y-67937240D01*
X117518000Y-68242760D01*
X117458396Y-68542410D01*
X117341479Y-68824674D01*
X117171741Y-69078705D01*
X116955705Y-69294741D01*
X116701674Y-69464479D01*
X116419410Y-69581396D01*
X116269585Y-69611198D01*
X116119761Y-69641000D01*
X115814239Y-69641000D01*
X115664415Y-69611198D01*
X115514590Y-69581396D01*
X115232326Y-69464479D01*
X114978295Y-69294741D01*
X114762259Y-69078705D01*
X114592521Y-68824674D01*
X114475604Y-68542410D01*
X114416000Y-68242760D01*
X114416000Y-67937240D01*
X114475604Y-67637590D01*
X114592521Y-67355326D01*
X114762259Y-67101295D01*
X114978295Y-66885259D01*
X115232326Y-66715521D01*
X115514590Y-66598604D01*
X115664415Y-66568802D01*
X115814239Y-66539000D01*
X116119761Y-66539000D01*
X116269585Y-66568802D01*
G37*
G36*
X140378228Y-66011703D02*
G01*
X140533100Y-66075853D01*
X140672481Y-66168985D01*
X140791015Y-66287519D01*
X140884147Y-66426900D01*
X140948297Y-66581772D01*
X140981000Y-66746184D01*
X140981000Y-66913816D01*
X140948297Y-67078228D01*
X140884147Y-67233100D01*
X140791015Y-67372481D01*
X140672481Y-67491015D01*
X140533100Y-67584147D01*
X140378228Y-67648297D01*
X140213816Y-67681000D01*
X140046184Y-67681000D01*
X139881772Y-67648297D01*
X139726900Y-67584147D01*
X139587519Y-67491015D01*
X139468985Y-67372481D01*
X139375853Y-67233100D01*
X139311703Y-67078228D01*
X139279000Y-66913816D01*
X139279000Y-66746184D01*
X139311703Y-66581772D01*
X139375853Y-66426900D01*
X139468985Y-66287519D01*
X139587519Y-66168985D01*
X139726900Y-66075853D01*
X139881772Y-66011703D01*
X140046184Y-65979000D01*
X140213816Y-65979000D01*
X140378228Y-66011703D01*
G37*
G36*
X125741000Y-67681000D02*
G01*
X124039000Y-67681000D01*
X124039000Y-65979000D01*
X125741000Y-65979000D01*
X125741000Y-67681000D01*
G37*
G36*
X145584048Y-65793122D02*
G01*
X145618387Y-65803539D01*
X145650036Y-65820456D01*
X145677778Y-65843222D01*
X145700544Y-65870964D01*
X145717461Y-65902613D01*
X145727878Y-65936952D01*
X145732000Y-65978807D01*
X145732000Y-67201193D01*
X145727878Y-67243048D01*
X145717461Y-67277387D01*
X145700544Y-67309036D01*
X145677778Y-67336778D01*
X145650036Y-67359544D01*
X145618387Y-67376461D01*
X145584048Y-67386878D01*
X145542193Y-67391000D01*
X143799807Y-67391000D01*
X143757952Y-67386878D01*
X143723613Y-67376461D01*
X143691964Y-67359544D01*
X143664222Y-67336778D01*
X143641456Y-67309036D01*
X143624539Y-67277387D01*
X143614122Y-67243048D01*
X143610000Y-67201193D01*
X143610000Y-65978807D01*
X143614122Y-65936952D01*
X143624539Y-65902613D01*
X143641456Y-65870964D01*
X143664222Y-65843222D01*
X143691964Y-65820456D01*
X143723613Y-65803539D01*
X143757952Y-65793122D01*
X143799807Y-65789000D01*
X145542193Y-65789000D01*
X145584048Y-65793122D01*
G37*
G36*
X120625571Y-65792863D02*
G01*
X120704023Y-65800590D01*
X120769512Y-65820456D01*
X120855013Y-65846392D01*
X120994165Y-65920771D01*
X121116133Y-66020867D01*
X121216229Y-66142835D01*
X121290608Y-66281987D01*
X121290608Y-66281988D01*
X121336410Y-66432977D01*
X121351875Y-66590000D01*
X121336410Y-66747023D01*
X121305875Y-66847682D01*
X121290608Y-66898013D01*
X121216229Y-67037165D01*
X121116133Y-67159133D01*
X120994165Y-67259229D01*
X120855013Y-67333608D01*
X120804682Y-67348875D01*
X120704023Y-67379410D01*
X120638432Y-67385870D01*
X120586346Y-67391000D01*
X119987654Y-67391000D01*
X119935568Y-67385870D01*
X119869977Y-67379410D01*
X119769318Y-67348875D01*
X119718987Y-67333608D01*
X119579835Y-67259229D01*
X119457867Y-67159133D01*
X119357771Y-67037165D01*
X119283392Y-66898013D01*
X119268125Y-66847682D01*
X119237590Y-66747023D01*
X119222125Y-66590000D01*
X119237590Y-66432977D01*
X119283392Y-66281988D01*
X119283392Y-66281987D01*
X119357771Y-66142835D01*
X119457867Y-66020867D01*
X119579835Y-65920771D01*
X119718987Y-65846392D01*
X119804488Y-65820456D01*
X119869977Y-65800590D01*
X119948429Y-65792863D01*
X119987654Y-65789000D01*
X120586346Y-65789000D01*
X120625571Y-65792863D01*
G37*
G36*
X119737142Y-55098242D02*
G01*
X119885101Y-55159529D01*
X120018255Y-55248499D01*
X120131501Y-55361745D01*
X120220471Y-55494899D01*
X120281758Y-55642858D01*
X120313000Y-55799925D01*
X120313000Y-55960075D01*
X120281758Y-56117142D01*
X120220471Y-56265101D01*
X120131501Y-56398255D01*
X120018255Y-56511501D01*
X119885101Y-56600471D01*
X119737142Y-56661758D01*
X119580075Y-56693000D01*
X119419925Y-56693000D01*
X119262858Y-56661758D01*
X119114899Y-56600471D01*
X118981745Y-56511501D01*
X118868499Y-56398255D01*
X118779529Y-56265101D01*
X118718242Y-56117142D01*
X118687000Y-55960075D01*
X118687000Y-55799925D01*
X118718242Y-55642858D01*
X118779529Y-55494899D01*
X118868499Y-55361745D01*
X118981745Y-55248499D01*
X119114899Y-55159529D01*
X119262858Y-55098242D01*
X119419925Y-55067000D01*
X119580075Y-55067000D01*
X119737142Y-55098242D01*
G37*
G36*
X122277142Y-55098242D02*
G01*
X122425101Y-55159529D01*
X122558255Y-55248499D01*
X122671501Y-55361745D01*
X122760471Y-55494899D01*
X122821758Y-55642858D01*
X122853000Y-55799925D01*
X122853000Y-55960075D01*
X122821758Y-56117142D01*
X122760471Y-56265101D01*
X122671501Y-56398255D01*
X122558255Y-56511501D01*
X122425101Y-56600471D01*
X122277142Y-56661758D01*
X122120075Y-56693000D01*
X121959925Y-56693000D01*
X121802858Y-56661758D01*
X121654899Y-56600471D01*
X121521745Y-56511501D01*
X121408499Y-56398255D01*
X121319529Y-56265101D01*
X121258242Y-56117142D01*
X121227000Y-55960075D01*
X121227000Y-55799925D01*
X121258242Y-55642858D01*
X121319529Y-55494899D01*
X121408499Y-55361745D01*
X121521745Y-55248499D01*
X121654899Y-55159529D01*
X121802858Y-55098242D01*
X121959925Y-55067000D01*
X122120075Y-55067000D01*
X122277142Y-55098242D01*
G37*
G36*
X122277142Y-52558242D02*
G01*
X122425101Y-52619529D01*
X122558255Y-52708499D01*
X122671501Y-52821745D01*
X122760471Y-52954899D01*
X122821758Y-53102858D01*
X122853000Y-53259925D01*
X122853000Y-53420075D01*
X122821758Y-53577142D01*
X122760471Y-53725101D01*
X122671501Y-53858255D01*
X122558255Y-53971501D01*
X122425101Y-54060471D01*
X122277142Y-54121758D01*
X122120075Y-54153000D01*
X121959925Y-54153000D01*
X121802858Y-54121758D01*
X121654899Y-54060471D01*
X121521745Y-53971501D01*
X121408499Y-53858255D01*
X121319529Y-53725101D01*
X121258242Y-53577142D01*
X121227000Y-53420075D01*
X121227000Y-53259925D01*
X121258242Y-53102858D01*
X121319529Y-52954899D01*
X121408499Y-52821745D01*
X121521745Y-52708499D01*
X121654899Y-52619529D01*
X121802858Y-52558242D01*
X121959925Y-52527000D01*
X122120075Y-52527000D01*
X122277142Y-52558242D01*
G37*
G36*
X119737142Y-52558242D02*
G01*
X119885101Y-52619529D01*
X120018255Y-52708499D01*
X120131501Y-52821745D01*
X120220471Y-52954899D01*
X120281758Y-53102858D01*
X120313000Y-53259925D01*
X120313000Y-53420075D01*
X120281758Y-53577142D01*
X120220471Y-53725101D01*
X120131501Y-53858255D01*
X120018255Y-53971501D01*
X119885101Y-54060471D01*
X119737142Y-54121758D01*
X119580075Y-54153000D01*
X119419925Y-54153000D01*
X119262858Y-54121758D01*
X119114899Y-54060471D01*
X118981745Y-53971501D01*
X118868499Y-53858255D01*
X118779529Y-53725101D01*
X118718242Y-53577142D01*
X118687000Y-53420075D01*
X118687000Y-53259925D01*
X118718242Y-53102858D01*
X118779529Y-52954899D01*
X118868499Y-52821745D01*
X118981745Y-52708499D01*
X119114899Y-52619529D01*
X119262858Y-52558242D01*
X119419925Y-52527000D01*
X119580075Y-52527000D01*
X119737142Y-52558242D01*
G37*
G36*
X114817021Y-46306640D02*
G01*
X115326769Y-46517785D01*
X115326771Y-46517786D01*
X115785534Y-46824321D01*
X116175679Y-47214466D01*
X116482214Y-47673229D01*
X116482215Y-47673231D01*
X116693360Y-48182979D01*
X116801000Y-48724124D01*
X116801000Y-49275876D01*
X116693360Y-49817021D01*
X116482215Y-50326769D01*
X116482214Y-50326771D01*
X116175679Y-50785534D01*
X115785534Y-51175679D01*
X115326771Y-51482214D01*
X115326770Y-51482215D01*
X115326769Y-51482215D01*
X114817021Y-51693360D01*
X114275876Y-51801000D01*
X113724124Y-51801000D01*
X113182979Y-51693360D01*
X112673231Y-51482215D01*
X112673230Y-51482215D01*
X112673229Y-51482214D01*
X112214466Y-51175679D01*
X111824321Y-50785534D01*
X111517786Y-50326771D01*
X111517785Y-50326769D01*
X111306640Y-49817021D01*
X111199000Y-49275876D01*
X111199000Y-48724124D01*
X111306640Y-48182979D01*
X111517785Y-47673231D01*
X111517786Y-47673229D01*
X111824321Y-47214466D01*
X112214466Y-46824321D01*
X112673229Y-46517786D01*
X112673231Y-46517785D01*
X113182979Y-46306640D01*
X113724124Y-46199000D01*
X114275876Y-46199000D01*
X114817021Y-46306640D01*
G37*
G36*
X151817021Y-46306640D02*
G01*
X152326769Y-46517785D01*
X152326771Y-46517786D01*
X152785534Y-46824321D01*
X153175679Y-47214466D01*
X153482214Y-47673229D01*
X153482215Y-47673231D01*
X153693360Y-48182979D01*
X153801000Y-48724124D01*
X153801000Y-49275876D01*
X153693360Y-49817021D01*
X153482215Y-50326769D01*
X153482214Y-50326771D01*
X153175679Y-50785534D01*
X152785534Y-51175679D01*
X152326771Y-51482214D01*
X152326770Y-51482215D01*
X152326769Y-51482215D01*
X151817021Y-51693360D01*
X151275876Y-51801000D01*
X150724124Y-51801000D01*
X150182979Y-51693360D01*
X149673231Y-51482215D01*
X149673230Y-51482215D01*
X149673229Y-51482214D01*
X149214466Y-51175679D01*
X148824321Y-50785534D01*
X148517786Y-50326771D01*
X148517785Y-50326769D01*
X148306640Y-49817021D01*
X148199000Y-49275876D01*
X148199000Y-48724124D01*
X148306640Y-48182979D01*
X148517785Y-47673231D01*
X148517786Y-47673229D01*
X148824321Y-47214466D01*
X149214466Y-46824321D01*
X149673229Y-46517786D01*
X149673231Y-46517785D01*
X150182979Y-46306640D01*
X150724124Y-46199000D01*
X151275876Y-46199000D01*
X151817021Y-46306640D01*
G37*
G36*
X119737142Y-50018242D02*
G01*
X119885101Y-50079529D01*
X120018255Y-50168499D01*
X120131501Y-50281745D01*
X120220471Y-50414899D01*
X120281758Y-50562858D01*
X120313000Y-50719925D01*
X120313000Y-50880075D01*
X120281758Y-51037142D01*
X120220471Y-51185101D01*
X120131501Y-51318255D01*
X120018255Y-51431501D01*
X119885101Y-51520471D01*
X119737142Y-51581758D01*
X119580075Y-51613000D01*
X119419925Y-51613000D01*
X119262858Y-51581758D01*
X119114899Y-51520471D01*
X118981745Y-51431501D01*
X118868499Y-51318255D01*
X118779529Y-51185101D01*
X118718242Y-51037142D01*
X118687000Y-50880075D01*
X118687000Y-50719925D01*
X118718242Y-50562858D01*
X118779529Y-50414899D01*
X118868499Y-50281745D01*
X118981745Y-50168499D01*
X119114899Y-50079529D01*
X119262858Y-50018242D01*
X119419925Y-49987000D01*
X119580075Y-49987000D01*
X119737142Y-50018242D01*
G37*
G36*
X122277142Y-50018242D02*
G01*
X122425101Y-50079529D01*
X122558255Y-50168499D01*
X122671501Y-50281745D01*
X122760471Y-50414899D01*
X122821758Y-50562858D01*
X122853000Y-50719925D01*
X122853000Y-50880075D01*
X122821758Y-51037142D01*
X122760471Y-51185101D01*
X122671501Y-51318255D01*
X122558255Y-51431501D01*
X122425101Y-51520471D01*
X122277142Y-51581758D01*
X122120075Y-51613000D01*
X121959925Y-51613000D01*
X121802858Y-51581758D01*
X121654899Y-51520471D01*
X121521745Y-51431501D01*
X121408499Y-51318255D01*
X121319529Y-51185101D01*
X121258242Y-51037142D01*
X121227000Y-50880075D01*
X121227000Y-50719925D01*
X121258242Y-50562858D01*
X121319529Y-50414899D01*
X121408499Y-50281745D01*
X121521745Y-50168499D01*
X121654899Y-50079529D01*
X121802858Y-50018242D01*
X121959925Y-49987000D01*
X122120075Y-49987000D01*
X122277142Y-50018242D01*
G37*
G36*
X122277142Y-47478242D02*
G01*
X122425101Y-47539529D01*
X122558255Y-47628499D01*
X122671501Y-47741745D01*
X122760471Y-47874899D01*
X122821758Y-48022858D01*
X122853000Y-48179925D01*
X122853000Y-48340075D01*
X122821758Y-48497142D01*
X122760471Y-48645101D01*
X122671501Y-48778255D01*
X122558255Y-48891501D01*
X122425101Y-48980471D01*
X122277142Y-49041758D01*
X122120075Y-49073000D01*
X121959925Y-49073000D01*
X121802858Y-49041758D01*
X121654899Y-48980471D01*
X121521745Y-48891501D01*
X121408499Y-48778255D01*
X121319529Y-48645101D01*
X121258242Y-48497142D01*
X121227000Y-48340075D01*
X121227000Y-48179925D01*
X121258242Y-48022858D01*
X121319529Y-47874899D01*
X121408499Y-47741745D01*
X121521745Y-47628499D01*
X121654899Y-47539529D01*
X121802858Y-47478242D01*
X121959925Y-47447000D01*
X122120075Y-47447000D01*
X122277142Y-47478242D01*
G37*
G36*
X120313000Y-49073000D02*
G01*
X118687000Y-49073000D01*
X118687000Y-47447000D01*
X120313000Y-47447000D01*
X120313000Y-49073000D01*
G37*
M02*
