G04 #@! TF.GenerationSoftware,KiCad,Pcbnew,(5.1.5)-3*
G04 #@! TF.CreationDate,2020-05-08T00:45:14-06:00*
G04 #@! TF.ProjectId,vibration,76696272-6174-4696-9f6e-2e6b69636164,rev?*
G04 #@! TF.SameCoordinates,Original*
G04 #@! TF.FileFunction,Legend,Top*
G04 #@! TF.FilePolarity,Positive*
%FSLAX46Y46*%
G04 Gerber Fmt 4.6, Leading zero omitted, Abs format (unit mm)*
G04 Created by KiCad (PCBNEW (5.1.5)-3) date 2020-05-08 00:45:14*
%MOMM*%
%LPD*%
G04 APERTURE LIST*
%ADD10C,0.300000*%
%ADD11C,0.150000*%
%ADD12C,0.120000*%
G04 APERTURE END LIST*
D10*
X62543428Y-94234285D02*
X61043428Y-94734285D01*
X62543428Y-95234285D01*
X61043428Y-96520000D02*
X61043428Y-95662857D01*
X61043428Y-96091428D02*
X62543428Y-96091428D01*
X62329142Y-95948571D01*
X62186285Y-95805714D01*
X62114857Y-95662857D01*
X61186285Y-97162857D02*
X61114857Y-97234285D01*
X61043428Y-97162857D01*
X61114857Y-97091428D01*
X61186285Y-97162857D01*
X61043428Y-97162857D01*
X62543428Y-98162857D02*
X62543428Y-98305714D01*
X62472000Y-98448571D01*
X62400571Y-98520000D01*
X62257714Y-98591428D01*
X61972000Y-98662857D01*
X61614857Y-98662857D01*
X61329142Y-98591428D01*
X61186285Y-98520000D01*
X61114857Y-98448571D01*
X61043428Y-98305714D01*
X61043428Y-98162857D01*
X61114857Y-98020000D01*
X61186285Y-97948571D01*
X61329142Y-97877142D01*
X61614857Y-97805714D01*
X61972000Y-97805714D01*
X62257714Y-97877142D01*
X62400571Y-97948571D01*
X62472000Y-98020000D01*
X62543428Y-98162857D01*
D11*
X72890000Y-108966095D02*
X72937619Y-108870857D01*
X72937619Y-108728000D01*
X72890000Y-108585142D01*
X72794761Y-108489904D01*
X72699523Y-108442285D01*
X72509047Y-108394666D01*
X72366190Y-108394666D01*
X72175714Y-108442285D01*
X72080476Y-108489904D01*
X71985238Y-108585142D01*
X71937619Y-108728000D01*
X71937619Y-108823238D01*
X71985238Y-108966095D01*
X72032857Y-109013714D01*
X72366190Y-109013714D01*
X72366190Y-108823238D01*
X71937619Y-109442285D02*
X72937619Y-109442285D01*
X71937619Y-110013714D01*
X72937619Y-110013714D01*
X71937619Y-110489904D02*
X72937619Y-110489904D01*
X72937619Y-110728000D01*
X72890000Y-110870857D01*
X72794761Y-110966095D01*
X72699523Y-111013714D01*
X72509047Y-111061333D01*
X72366190Y-111061333D01*
X72175714Y-111013714D01*
X72080476Y-110966095D01*
X71985238Y-110870857D01*
X71937619Y-110728000D01*
X71937619Y-110489904D01*
X71937619Y-105608571D02*
X72937619Y-105608571D01*
X72604285Y-106084761D02*
X71937619Y-106084761D01*
X72509047Y-106084761D02*
X72556666Y-106132380D01*
X72604285Y-106227619D01*
X72604285Y-106370476D01*
X72556666Y-106465714D01*
X72461428Y-106513333D01*
X71937619Y-106513333D01*
X72318571Y-106989523D02*
X72318571Y-107751428D01*
X71937619Y-107370476D02*
X72699523Y-107370476D01*
X72683619Y-118713523D02*
X71683619Y-119046857D01*
X72683619Y-119380190D01*
X71683619Y-121046857D02*
X72159809Y-120713523D01*
X71683619Y-120475428D02*
X72683619Y-120475428D01*
X72683619Y-120856380D01*
X72636000Y-120951619D01*
X72588380Y-120999238D01*
X72493142Y-121046857D01*
X72350285Y-121046857D01*
X72255047Y-120999238D01*
X72207428Y-120951619D01*
X72159809Y-120856380D01*
X72159809Y-120475428D01*
X71683619Y-121904000D02*
X72207428Y-121904000D01*
X72302666Y-121856380D01*
X72350285Y-121761142D01*
X72350285Y-121570666D01*
X72302666Y-121475428D01*
X71731238Y-121904000D02*
X71683619Y-121808761D01*
X71683619Y-121570666D01*
X71731238Y-121475428D01*
X71826476Y-121427809D01*
X71921714Y-121427809D01*
X72016952Y-121475428D01*
X72064571Y-121570666D01*
X72064571Y-121808761D01*
X72112190Y-121904000D01*
X72350285Y-122284952D02*
X71683619Y-122475428D01*
X72159809Y-122665904D01*
X71683619Y-122856380D01*
X72350285Y-123046857D01*
X72683619Y-135191523D02*
X72683619Y-134715333D01*
X72207428Y-134667714D01*
X72255047Y-134715333D01*
X72302666Y-134810571D01*
X72302666Y-135048666D01*
X72255047Y-135143904D01*
X72207428Y-135191523D01*
X72112190Y-135239142D01*
X71874095Y-135239142D01*
X71778857Y-135191523D01*
X71731238Y-135143904D01*
X71683619Y-135048666D01*
X71683619Y-134810571D01*
X71731238Y-134715333D01*
X71778857Y-134667714D01*
X72683619Y-135524857D02*
X71683619Y-135858190D01*
X72683619Y-136191523D01*
X92527428Y-130174952D02*
X92527428Y-129413047D01*
X92527428Y-133222952D02*
X92527428Y-132461047D01*
X92908380Y-132842000D02*
X92146476Y-132842000D01*
X92527428Y-107060952D02*
X92527428Y-106299047D01*
X92527428Y-110108952D02*
X92527428Y-109347047D01*
X92908380Y-109728000D02*
X92146476Y-109728000D01*
X92860761Y-117014476D02*
X92908380Y-116871619D01*
X92908380Y-116633523D01*
X92860761Y-116538285D01*
X92813142Y-116490666D01*
X92717904Y-116443047D01*
X92622666Y-116443047D01*
X92527428Y-116490666D01*
X92479809Y-116538285D01*
X92432190Y-116633523D01*
X92384571Y-116824000D01*
X92336952Y-116919238D01*
X92289333Y-116966857D01*
X92194095Y-117014476D01*
X92098857Y-117014476D01*
X92003619Y-116966857D01*
X91956000Y-116919238D01*
X91908380Y-116824000D01*
X91908380Y-116585904D01*
X91956000Y-116443047D01*
X92813142Y-115443047D02*
X92860761Y-115490666D01*
X92908380Y-115633523D01*
X92908380Y-115728761D01*
X92860761Y-115871619D01*
X92765523Y-115966857D01*
X92670285Y-116014476D01*
X92479809Y-116062095D01*
X92336952Y-116062095D01*
X92146476Y-116014476D01*
X92051238Y-115966857D01*
X91956000Y-115871619D01*
X91908380Y-115728761D01*
X91908380Y-115633523D01*
X91956000Y-115490666D01*
X92003619Y-115443047D01*
X92908380Y-114538285D02*
X92908380Y-115014476D01*
X91908380Y-115014476D01*
X92860761Y-113990285D02*
X92908380Y-113847428D01*
X92908380Y-113609333D01*
X92860761Y-113514095D01*
X92813142Y-113466476D01*
X92717904Y-113418857D01*
X92622666Y-113418857D01*
X92527428Y-113466476D01*
X92479809Y-113514095D01*
X92432190Y-113609333D01*
X92384571Y-113799809D01*
X92336952Y-113895047D01*
X92289333Y-113942666D01*
X92194095Y-113990285D01*
X92098857Y-113990285D01*
X92003619Y-113942666D01*
X91956000Y-113895047D01*
X91908380Y-113799809D01*
X91908380Y-113561714D01*
X91956000Y-113418857D01*
X92908380Y-112990285D02*
X91908380Y-112990285D01*
X91908380Y-112752190D01*
X91956000Y-112609333D01*
X92051238Y-112514095D01*
X92146476Y-112466476D01*
X92336952Y-112418857D01*
X92479809Y-112418857D01*
X92670285Y-112466476D01*
X92765523Y-112514095D01*
X92860761Y-112609333D01*
X92908380Y-112752190D01*
X92908380Y-112990285D01*
X92622666Y-112037904D02*
X92622666Y-111561714D01*
X92908380Y-112133142D02*
X91908380Y-111799809D01*
X92908380Y-111466476D01*
X92860761Y-140128476D02*
X92908380Y-139985619D01*
X92908380Y-139747523D01*
X92860761Y-139652285D01*
X92813142Y-139604666D01*
X92717904Y-139557047D01*
X92622666Y-139557047D01*
X92527428Y-139604666D01*
X92479809Y-139652285D01*
X92432190Y-139747523D01*
X92384571Y-139938000D01*
X92336952Y-140033238D01*
X92289333Y-140080857D01*
X92194095Y-140128476D01*
X92098857Y-140128476D01*
X92003619Y-140080857D01*
X91956000Y-140033238D01*
X91908380Y-139938000D01*
X91908380Y-139699904D01*
X91956000Y-139557047D01*
X92813142Y-138557047D02*
X92860761Y-138604666D01*
X92908380Y-138747523D01*
X92908380Y-138842761D01*
X92860761Y-138985619D01*
X92765523Y-139080857D01*
X92670285Y-139128476D01*
X92479809Y-139176095D01*
X92336952Y-139176095D01*
X92146476Y-139128476D01*
X92051238Y-139080857D01*
X91956000Y-138985619D01*
X91908380Y-138842761D01*
X91908380Y-138747523D01*
X91956000Y-138604666D01*
X92003619Y-138557047D01*
X92908380Y-137652285D02*
X92908380Y-138128476D01*
X91908380Y-138128476D01*
X92860761Y-137104285D02*
X92908380Y-136961428D01*
X92908380Y-136723333D01*
X92860761Y-136628095D01*
X92813142Y-136580476D01*
X92717904Y-136532857D01*
X92622666Y-136532857D01*
X92527428Y-136580476D01*
X92479809Y-136628095D01*
X92432190Y-136723333D01*
X92384571Y-136913809D01*
X92336952Y-137009047D01*
X92289333Y-137056666D01*
X92194095Y-137104285D01*
X92098857Y-137104285D01*
X92003619Y-137056666D01*
X91956000Y-137009047D01*
X91908380Y-136913809D01*
X91908380Y-136675714D01*
X91956000Y-136532857D01*
X92908380Y-136104285D02*
X91908380Y-136104285D01*
X91908380Y-135866190D01*
X91956000Y-135723333D01*
X92051238Y-135628095D01*
X92146476Y-135580476D01*
X92336952Y-135532857D01*
X92479809Y-135532857D01*
X92670285Y-135580476D01*
X92765523Y-135628095D01*
X92860761Y-135723333D01*
X92908380Y-135866190D01*
X92908380Y-136104285D01*
X92622666Y-135151904D02*
X92622666Y-134675714D01*
X92908380Y-135247142D02*
X91908380Y-134913809D01*
X92908380Y-134580476D01*
X93916571Y-142962380D02*
X93440380Y-142962380D01*
X93392761Y-143438571D01*
X93440380Y-143390952D01*
X93535619Y-143343333D01*
X93773714Y-143343333D01*
X93868952Y-143390952D01*
X93916571Y-143438571D01*
X93964190Y-143533809D01*
X93964190Y-143771904D01*
X93916571Y-143867142D01*
X93868952Y-143914761D01*
X93773714Y-143962380D01*
X93535619Y-143962380D01*
X93440380Y-143914761D01*
X93392761Y-143867142D01*
X95011809Y-142962380D02*
X95345142Y-143962380D01*
X95678476Y-142962380D01*
X99996857Y-101306380D02*
X100615904Y-101306380D01*
X100282571Y-101687333D01*
X100425428Y-101687333D01*
X100520666Y-101734952D01*
X100568285Y-101782571D01*
X100615904Y-101877809D01*
X100615904Y-102115904D01*
X100568285Y-102211142D01*
X100520666Y-102258761D01*
X100425428Y-102306380D01*
X100139714Y-102306380D01*
X100044476Y-102258761D01*
X99996857Y-102211142D01*
X101044476Y-102211142D02*
X101092095Y-102258761D01*
X101044476Y-102306380D01*
X100996857Y-102258761D01*
X101044476Y-102211142D01*
X101044476Y-102306380D01*
X101425428Y-101306380D02*
X102044476Y-101306380D01*
X101711142Y-101687333D01*
X101854000Y-101687333D01*
X101949238Y-101734952D01*
X101996857Y-101782571D01*
X102044476Y-101877809D01*
X102044476Y-102115904D01*
X101996857Y-102211142D01*
X101949238Y-102258761D01*
X101854000Y-102306380D01*
X101568285Y-102306380D01*
X101473047Y-102258761D01*
X101425428Y-102211142D01*
X103092095Y-101306380D02*
X103425428Y-102306380D01*
X103758761Y-101306380D01*
D12*
X76160000Y-108204000D02*
X76160000Y-105664000D01*
X76160000Y-105664000D02*
X73490000Y-105664000D01*
X73490000Y-108204000D02*
X73490000Y-146434000D01*
X73490000Y-102994000D02*
X73490000Y-105664000D01*
X88860000Y-105664000D02*
X91530000Y-105664000D01*
X88860000Y-105664000D02*
X88860000Y-143764000D01*
X88860000Y-143764000D02*
X91530000Y-143764000D01*
X76160000Y-108204000D02*
X73490000Y-108204000D01*
X76160000Y-108204000D02*
X76160000Y-143764000D01*
X76160000Y-143764000D02*
X73490000Y-143764000D01*
X73490000Y-146434000D02*
X91530000Y-146434000D01*
X91530000Y-146434000D02*
X91530000Y-102994000D01*
X91530000Y-102994000D02*
X73490000Y-102994000D01*
X69926000Y-149059000D02*
X72386000Y-149059000D01*
X72386000Y-149059000D02*
X72386000Y-147589000D01*
X72386000Y-147589000D02*
X69926000Y-147589000D01*
X95894000Y-147589000D02*
X93434000Y-147589000D01*
X95894000Y-149059000D02*
X95894000Y-147589000D01*
X93434000Y-149059000D02*
X95894000Y-149059000D01*
X71194000Y-113129000D02*
X62074000Y-113129000D01*
X62074000Y-113129000D02*
X61074000Y-112129000D01*
X61074000Y-112129000D02*
X61074000Y-104259000D01*
X61074000Y-104259000D02*
X62074000Y-103259000D01*
X62074000Y-103259000D02*
X71194000Y-103259000D01*
X71194000Y-113129000D02*
X71194000Y-110704000D01*
X71194000Y-103259000D02*
X71194000Y-106042233D01*
X71194000Y-108684000D02*
X71194000Y-107345767D01*
X70599733Y-145794000D02*
X70942267Y-145794000D01*
X70599733Y-146814000D02*
X70942267Y-146814000D01*
X68230000Y-87122000D02*
X73564000Y-87122000D01*
X73564000Y-87122000D02*
X73564000Y-97790000D01*
X73564000Y-97790000D02*
X68230000Y-97790000D01*
X68230000Y-97790000D02*
X68230000Y-97790000D01*
X70770000Y-87630000D02*
X70770000Y-89916000D01*
X70770000Y-89916000D02*
X68484000Y-89916000D01*
X68484000Y-89916000D02*
X68484000Y-89916000D01*
X67900000Y-86546000D02*
X97100000Y-86546000D01*
X97100000Y-86546000D02*
X97100000Y-101996000D01*
X97100000Y-101996000D02*
X67900000Y-101996000D01*
X67900000Y-101996000D02*
X67900000Y-86546000D01*
X67900000Y-86546000D02*
X67900000Y-86546000D01*
X68230000Y-97790000D02*
X68230000Y-87122000D01*
X68230000Y-87122000D02*
X68230000Y-87122000D01*
X94062733Y-145794000D02*
X94405267Y-145794000D01*
X94062733Y-146814000D02*
X94405267Y-146814000D01*
X71194000Y-127473000D02*
X62074000Y-127473000D01*
X62074000Y-127473000D02*
X61074000Y-126473000D01*
X61074000Y-126473000D02*
X61074000Y-115603000D01*
X61074000Y-115603000D02*
X62074000Y-114603000D01*
X62074000Y-114603000D02*
X71194000Y-114603000D01*
X71194000Y-127473000D02*
X71194000Y-125048000D01*
X71194000Y-114603000D02*
X71194000Y-117386233D01*
X71194000Y-123028000D02*
X71194000Y-121689767D01*
X71194000Y-120386233D02*
X71194000Y-118689767D01*
X71194000Y-134730233D02*
X71194000Y-133033767D01*
X71194000Y-137372000D02*
X71194000Y-136033767D01*
X71194000Y-128947000D02*
X71194000Y-131730233D01*
X71194000Y-141817000D02*
X71194000Y-139392000D01*
X62074000Y-128947000D02*
X71194000Y-128947000D01*
X61074000Y-129947000D02*
X62074000Y-128947000D01*
X61074000Y-140817000D02*
X61074000Y-129947000D01*
X62074000Y-141817000D02*
X61074000Y-140817000D01*
X71194000Y-141817000D02*
X62074000Y-141817000D01*
X93652000Y-126359000D02*
X102772000Y-126359000D01*
X102772000Y-126359000D02*
X103772000Y-127359000D01*
X103772000Y-127359000D02*
X103772000Y-141229000D01*
X103772000Y-141229000D02*
X102772000Y-142229000D01*
X102772000Y-142229000D02*
X93652000Y-142229000D01*
X93652000Y-126359000D02*
X93652000Y-128784000D01*
X93652000Y-142229000D02*
X93652000Y-139445767D01*
X93652000Y-130804000D02*
X93652000Y-132142233D01*
X93652000Y-133445767D02*
X93652000Y-135142233D01*
X93652000Y-136445767D02*
X93652000Y-138142233D01*
X93652000Y-113345767D02*
X93652000Y-115042233D01*
X93652000Y-110345767D02*
X93652000Y-112042233D01*
X93652000Y-107704000D02*
X93652000Y-109042233D01*
X93652000Y-119129000D02*
X93652000Y-116345767D01*
X93652000Y-103259000D02*
X93652000Y-105684000D01*
X102772000Y-119129000D02*
X93652000Y-119129000D01*
X103772000Y-118129000D02*
X102772000Y-119129000D01*
X103772000Y-104259000D02*
X103772000Y-118129000D01*
X102772000Y-103259000D02*
X103772000Y-104259000D01*
X93652000Y-103259000D02*
X102772000Y-103259000D01*
X97846000Y-121160000D02*
X96916000Y-121160000D01*
X94686000Y-121160000D02*
X95616000Y-121160000D01*
X94686000Y-121160000D02*
X94686000Y-123320000D01*
X97846000Y-121160000D02*
X97846000Y-122620000D01*
X102164000Y-121160000D02*
X102164000Y-122620000D01*
X99004000Y-121160000D02*
X99004000Y-123320000D01*
X99004000Y-121160000D02*
X99934000Y-121160000D01*
X102164000Y-121160000D02*
X101234000Y-121160000D01*
X93982000Y-122091267D02*
X93982000Y-121748733D01*
X92962000Y-122091267D02*
X92962000Y-121748733D01*
X103888000Y-122091267D02*
X103888000Y-121748733D01*
X102868000Y-122091267D02*
X102868000Y-121748733D01*
X96094733Y-124204000D02*
X96437267Y-124204000D01*
X96094733Y-125224000D02*
X96437267Y-125224000D01*
X100412733Y-124204000D02*
X100755267Y-124204000D01*
X100412733Y-125224000D02*
X100755267Y-125224000D01*
D11*
X81795714Y-104052666D02*
X82271904Y-104052666D01*
X81700476Y-104338380D02*
X82033809Y-103338380D01*
X82367142Y-104338380D01*
X83224285Y-104338380D02*
X82652857Y-104338380D01*
X82938571Y-104338380D02*
X82938571Y-103338380D01*
X82843333Y-103481238D01*
X82748095Y-103576476D01*
X82652857Y-103624095D01*
X67333904Y-148776380D02*
X67333904Y-147776380D01*
X67572000Y-147776380D01*
X67714857Y-147824000D01*
X67810095Y-147919238D01*
X67857714Y-148014476D01*
X67905333Y-148204952D01*
X67905333Y-148347809D01*
X67857714Y-148538285D01*
X67810095Y-148633523D01*
X67714857Y-148728761D01*
X67572000Y-148776380D01*
X67333904Y-148776380D01*
X68857714Y-148776380D02*
X68286285Y-148776380D01*
X68572000Y-148776380D02*
X68572000Y-147776380D01*
X68476761Y-147919238D01*
X68381523Y-148014476D01*
X68286285Y-148062095D01*
X96289904Y-148776380D02*
X96289904Y-147776380D01*
X96528000Y-147776380D01*
X96670857Y-147824000D01*
X96766095Y-147919238D01*
X96813714Y-148014476D01*
X96861333Y-148204952D01*
X96861333Y-148347809D01*
X96813714Y-148538285D01*
X96766095Y-148633523D01*
X96670857Y-148728761D01*
X96528000Y-148776380D01*
X96289904Y-148776380D01*
X97242285Y-147871619D02*
X97289904Y-147824000D01*
X97385142Y-147776380D01*
X97623238Y-147776380D01*
X97718476Y-147824000D01*
X97766095Y-147871619D01*
X97813714Y-147966857D01*
X97813714Y-148062095D01*
X97766095Y-148204952D01*
X97194666Y-148776380D01*
X97813714Y-148776380D01*
X62698380Y-108537333D02*
X63412666Y-108537333D01*
X63555523Y-108584952D01*
X63650761Y-108680190D01*
X63698380Y-108823047D01*
X63698380Y-108918285D01*
X63698380Y-107537333D02*
X63698380Y-108108761D01*
X63698380Y-107823047D02*
X62698380Y-107823047D01*
X62841238Y-107918285D01*
X62936476Y-108013523D01*
X62984095Y-108108761D01*
X67950333Y-146756380D02*
X67617000Y-146280190D01*
X67378904Y-146756380D02*
X67378904Y-145756380D01*
X67759857Y-145756380D01*
X67855095Y-145804000D01*
X67902714Y-145851619D01*
X67950333Y-145946857D01*
X67950333Y-146089714D01*
X67902714Y-146184952D01*
X67855095Y-146232571D01*
X67759857Y-146280190D01*
X67378904Y-146280190D01*
X68902714Y-146756380D02*
X68331285Y-146756380D01*
X68617000Y-146756380D02*
X68617000Y-145756380D01*
X68521761Y-145899238D01*
X68426523Y-145994476D01*
X68331285Y-146042095D01*
X68580095Y-98258380D02*
X68580095Y-99067904D01*
X68627714Y-99163142D01*
X68675333Y-99210761D01*
X68770571Y-99258380D01*
X68961047Y-99258380D01*
X69056285Y-99210761D01*
X69103904Y-99163142D01*
X69151523Y-99067904D01*
X69151523Y-98258380D01*
X70151523Y-99258380D02*
X69580095Y-99258380D01*
X69865809Y-99258380D02*
X69865809Y-98258380D01*
X69770571Y-98401238D01*
X69675333Y-98496476D01*
X69580095Y-98544095D01*
X96861333Y-146756380D02*
X96528000Y-146280190D01*
X96289904Y-146756380D02*
X96289904Y-145756380D01*
X96670857Y-145756380D01*
X96766095Y-145804000D01*
X96813714Y-145851619D01*
X96861333Y-145946857D01*
X96861333Y-146089714D01*
X96813714Y-146184952D01*
X96766095Y-146232571D01*
X96670857Y-146280190D01*
X96289904Y-146280190D01*
X97242285Y-145851619D02*
X97289904Y-145804000D01*
X97385142Y-145756380D01*
X97623238Y-145756380D01*
X97718476Y-145804000D01*
X97766095Y-145851619D01*
X97813714Y-145946857D01*
X97813714Y-146042095D01*
X97766095Y-146184952D01*
X97194666Y-146756380D01*
X97813714Y-146756380D01*
X62698380Y-121371333D02*
X63412666Y-121371333D01*
X63555523Y-121418952D01*
X63650761Y-121514190D01*
X63698380Y-121657047D01*
X63698380Y-121752285D01*
X62793619Y-120942761D02*
X62746000Y-120895142D01*
X62698380Y-120799904D01*
X62698380Y-120561809D01*
X62746000Y-120466571D01*
X62793619Y-120418952D01*
X62888857Y-120371333D01*
X62984095Y-120371333D01*
X63126952Y-120418952D01*
X63698380Y-120990380D01*
X63698380Y-120371333D01*
X62698380Y-135969333D02*
X63412666Y-135969333D01*
X63555523Y-136016952D01*
X63650761Y-136112190D01*
X63698380Y-136255047D01*
X63698380Y-136350285D01*
X62698380Y-135588380D02*
X62698380Y-134969333D01*
X63079333Y-135302666D01*
X63079333Y-135159809D01*
X63126952Y-135064571D01*
X63174571Y-135016952D01*
X63269809Y-134969333D01*
X63507904Y-134969333D01*
X63603142Y-135016952D01*
X63650761Y-135064571D01*
X63698380Y-135159809D01*
X63698380Y-135445523D01*
X63650761Y-135540761D01*
X63603142Y-135588380D01*
X100290380Y-134699333D02*
X101004666Y-134699333D01*
X101147523Y-134746952D01*
X101242761Y-134842190D01*
X101290380Y-134985047D01*
X101290380Y-135080285D01*
X100623714Y-133794571D02*
X101290380Y-133794571D01*
X100242761Y-134032666D02*
X100957047Y-134270761D01*
X100957047Y-133651714D01*
X100544380Y-111585333D02*
X101258666Y-111585333D01*
X101401523Y-111632952D01*
X101496761Y-111728190D01*
X101544380Y-111871047D01*
X101544380Y-111966285D01*
X100544380Y-110632952D02*
X100544380Y-111109142D01*
X101020571Y-111156761D01*
X100972952Y-111109142D01*
X100925333Y-111013904D01*
X100925333Y-110775809D01*
X100972952Y-110680571D01*
X101020571Y-110632952D01*
X101115809Y-110585333D01*
X101353904Y-110585333D01*
X101449142Y-110632952D01*
X101496761Y-110680571D01*
X101544380Y-110775809D01*
X101544380Y-111013904D01*
X101496761Y-111109142D01*
X101449142Y-111156761D01*
M02*
