G04 #@! TF.GenerationSoftware,KiCad,Pcbnew,(5.1.5)-3*
G04 #@! TF.CreationDate,2020-05-08T00:45:13-06:00*
G04 #@! TF.ProjectId,vibration,76696272-6174-4696-9f6e-2e6b69636164,rev?*
G04 #@! TF.SameCoordinates,Original*
G04 #@! TF.FileFunction,Copper,L1,Top*
G04 #@! TF.FilePolarity,Positive*
%FSLAX46Y46*%
G04 Gerber Fmt 4.6, Leading zero omitted, Abs format (unit mm)*
G04 Created by KiCad (PCBNEW (5.1.5)-3) date 2020-05-08 00:45:13*
%MOMM*%
%LPD*%
G04 APERTURE LIST*
%ADD10R,1.600000X1.600000*%
%ADD11O,1.600000X1.600000*%
%ADD12C,0.100000*%
%ADD13C,5.500000*%
%ADD14O,2.020000X1.500000*%
%ADD15R,1.524000X1.524000*%
%ADD16C,1.524000*%
%ADD17R,0.800000X0.900000*%
%ADD18C,0.800000*%
%ADD19C,0.381000*%
%ADD20C,1.270000*%
%ADD21C,0.508000*%
%ADD22C,0.254000*%
G04 APERTURE END LIST*
D10*
X74890000Y-106934000D03*
D11*
X90130000Y-139954000D03*
X74890000Y-109474000D03*
X90130000Y-137414000D03*
X74890000Y-112014000D03*
X90130000Y-134874000D03*
X74890000Y-114554000D03*
X90130000Y-132334000D03*
X74890000Y-117094000D03*
X90130000Y-129794000D03*
X74890000Y-119634000D03*
X90130000Y-127254000D03*
X74890000Y-122174000D03*
X90130000Y-124714000D03*
X74890000Y-124714000D03*
X90130000Y-122174000D03*
X74890000Y-127254000D03*
X90130000Y-119634000D03*
X74890000Y-129794000D03*
X90130000Y-117094000D03*
X74890000Y-132334000D03*
X90130000Y-114554000D03*
X74890000Y-134874000D03*
X90130000Y-112014000D03*
X74890000Y-137414000D03*
X90130000Y-109474000D03*
X74890000Y-139954000D03*
X90130000Y-106934000D03*
X74890000Y-142494000D03*
X90130000Y-142494000D03*
G04 #@! TA.AperFunction,SMDPad,CuDef*
D12*
G36*
X71911779Y-147850144D02*
G01*
X71934834Y-147853563D01*
X71957443Y-147859227D01*
X71979387Y-147867079D01*
X72000457Y-147877044D01*
X72020448Y-147889026D01*
X72039168Y-147902910D01*
X72056438Y-147918562D01*
X72072090Y-147935832D01*
X72085974Y-147954552D01*
X72097956Y-147974543D01*
X72107921Y-147995613D01*
X72115773Y-148017557D01*
X72121437Y-148040166D01*
X72124856Y-148063221D01*
X72126000Y-148086500D01*
X72126000Y-148561500D01*
X72124856Y-148584779D01*
X72121437Y-148607834D01*
X72115773Y-148630443D01*
X72107921Y-148652387D01*
X72097956Y-148673457D01*
X72085974Y-148693448D01*
X72072090Y-148712168D01*
X72056438Y-148729438D01*
X72039168Y-148745090D01*
X72020448Y-148758974D01*
X72000457Y-148770956D01*
X71979387Y-148780921D01*
X71957443Y-148788773D01*
X71934834Y-148794437D01*
X71911779Y-148797856D01*
X71888500Y-148799000D01*
X71313500Y-148799000D01*
X71290221Y-148797856D01*
X71267166Y-148794437D01*
X71244557Y-148788773D01*
X71222613Y-148780921D01*
X71201543Y-148770956D01*
X71181552Y-148758974D01*
X71162832Y-148745090D01*
X71145562Y-148729438D01*
X71129910Y-148712168D01*
X71116026Y-148693448D01*
X71104044Y-148673457D01*
X71094079Y-148652387D01*
X71086227Y-148630443D01*
X71080563Y-148607834D01*
X71077144Y-148584779D01*
X71076000Y-148561500D01*
X71076000Y-148086500D01*
X71077144Y-148063221D01*
X71080563Y-148040166D01*
X71086227Y-148017557D01*
X71094079Y-147995613D01*
X71104044Y-147974543D01*
X71116026Y-147954552D01*
X71129910Y-147935832D01*
X71145562Y-147918562D01*
X71162832Y-147902910D01*
X71181552Y-147889026D01*
X71201543Y-147877044D01*
X71222613Y-147867079D01*
X71244557Y-147859227D01*
X71267166Y-147853563D01*
X71290221Y-147850144D01*
X71313500Y-147849000D01*
X71888500Y-147849000D01*
X71911779Y-147850144D01*
G37*
G04 #@! TD.AperFunction*
G04 #@! TA.AperFunction,SMDPad,CuDef*
G36*
X70161779Y-147850144D02*
G01*
X70184834Y-147853563D01*
X70207443Y-147859227D01*
X70229387Y-147867079D01*
X70250457Y-147877044D01*
X70270448Y-147889026D01*
X70289168Y-147902910D01*
X70306438Y-147918562D01*
X70322090Y-147935832D01*
X70335974Y-147954552D01*
X70347956Y-147974543D01*
X70357921Y-147995613D01*
X70365773Y-148017557D01*
X70371437Y-148040166D01*
X70374856Y-148063221D01*
X70376000Y-148086500D01*
X70376000Y-148561500D01*
X70374856Y-148584779D01*
X70371437Y-148607834D01*
X70365773Y-148630443D01*
X70357921Y-148652387D01*
X70347956Y-148673457D01*
X70335974Y-148693448D01*
X70322090Y-148712168D01*
X70306438Y-148729438D01*
X70289168Y-148745090D01*
X70270448Y-148758974D01*
X70250457Y-148770956D01*
X70229387Y-148780921D01*
X70207443Y-148788773D01*
X70184834Y-148794437D01*
X70161779Y-148797856D01*
X70138500Y-148799000D01*
X69563500Y-148799000D01*
X69540221Y-148797856D01*
X69517166Y-148794437D01*
X69494557Y-148788773D01*
X69472613Y-148780921D01*
X69451543Y-148770956D01*
X69431552Y-148758974D01*
X69412832Y-148745090D01*
X69395562Y-148729438D01*
X69379910Y-148712168D01*
X69366026Y-148693448D01*
X69354044Y-148673457D01*
X69344079Y-148652387D01*
X69336227Y-148630443D01*
X69330563Y-148607834D01*
X69327144Y-148584779D01*
X69326000Y-148561500D01*
X69326000Y-148086500D01*
X69327144Y-148063221D01*
X69330563Y-148040166D01*
X69336227Y-148017557D01*
X69344079Y-147995613D01*
X69354044Y-147974543D01*
X69366026Y-147954552D01*
X69379910Y-147935832D01*
X69395562Y-147918562D01*
X69412832Y-147902910D01*
X69431552Y-147889026D01*
X69451543Y-147877044D01*
X69472613Y-147867079D01*
X69494557Y-147859227D01*
X69517166Y-147853563D01*
X69540221Y-147850144D01*
X69563500Y-147849000D01*
X70138500Y-147849000D01*
X70161779Y-147850144D01*
G37*
G04 #@! TD.AperFunction*
G04 #@! TA.AperFunction,SMDPad,CuDef*
G36*
X93669779Y-147850144D02*
G01*
X93692834Y-147853563D01*
X93715443Y-147859227D01*
X93737387Y-147867079D01*
X93758457Y-147877044D01*
X93778448Y-147889026D01*
X93797168Y-147902910D01*
X93814438Y-147918562D01*
X93830090Y-147935832D01*
X93843974Y-147954552D01*
X93855956Y-147974543D01*
X93865921Y-147995613D01*
X93873773Y-148017557D01*
X93879437Y-148040166D01*
X93882856Y-148063221D01*
X93884000Y-148086500D01*
X93884000Y-148561500D01*
X93882856Y-148584779D01*
X93879437Y-148607834D01*
X93873773Y-148630443D01*
X93865921Y-148652387D01*
X93855956Y-148673457D01*
X93843974Y-148693448D01*
X93830090Y-148712168D01*
X93814438Y-148729438D01*
X93797168Y-148745090D01*
X93778448Y-148758974D01*
X93758457Y-148770956D01*
X93737387Y-148780921D01*
X93715443Y-148788773D01*
X93692834Y-148794437D01*
X93669779Y-148797856D01*
X93646500Y-148799000D01*
X93071500Y-148799000D01*
X93048221Y-148797856D01*
X93025166Y-148794437D01*
X93002557Y-148788773D01*
X92980613Y-148780921D01*
X92959543Y-148770956D01*
X92939552Y-148758974D01*
X92920832Y-148745090D01*
X92903562Y-148729438D01*
X92887910Y-148712168D01*
X92874026Y-148693448D01*
X92862044Y-148673457D01*
X92852079Y-148652387D01*
X92844227Y-148630443D01*
X92838563Y-148607834D01*
X92835144Y-148584779D01*
X92834000Y-148561500D01*
X92834000Y-148086500D01*
X92835144Y-148063221D01*
X92838563Y-148040166D01*
X92844227Y-148017557D01*
X92852079Y-147995613D01*
X92862044Y-147974543D01*
X92874026Y-147954552D01*
X92887910Y-147935832D01*
X92903562Y-147918562D01*
X92920832Y-147902910D01*
X92939552Y-147889026D01*
X92959543Y-147877044D01*
X92980613Y-147867079D01*
X93002557Y-147859227D01*
X93025166Y-147853563D01*
X93048221Y-147850144D01*
X93071500Y-147849000D01*
X93646500Y-147849000D01*
X93669779Y-147850144D01*
G37*
G04 #@! TD.AperFunction*
G04 #@! TA.AperFunction,SMDPad,CuDef*
G36*
X95419779Y-147850144D02*
G01*
X95442834Y-147853563D01*
X95465443Y-147859227D01*
X95487387Y-147867079D01*
X95508457Y-147877044D01*
X95528448Y-147889026D01*
X95547168Y-147902910D01*
X95564438Y-147918562D01*
X95580090Y-147935832D01*
X95593974Y-147954552D01*
X95605956Y-147974543D01*
X95615921Y-147995613D01*
X95623773Y-148017557D01*
X95629437Y-148040166D01*
X95632856Y-148063221D01*
X95634000Y-148086500D01*
X95634000Y-148561500D01*
X95632856Y-148584779D01*
X95629437Y-148607834D01*
X95623773Y-148630443D01*
X95615921Y-148652387D01*
X95605956Y-148673457D01*
X95593974Y-148693448D01*
X95580090Y-148712168D01*
X95564438Y-148729438D01*
X95547168Y-148745090D01*
X95528448Y-148758974D01*
X95508457Y-148770956D01*
X95487387Y-148780921D01*
X95465443Y-148788773D01*
X95442834Y-148794437D01*
X95419779Y-148797856D01*
X95396500Y-148799000D01*
X94821500Y-148799000D01*
X94798221Y-148797856D01*
X94775166Y-148794437D01*
X94752557Y-148788773D01*
X94730613Y-148780921D01*
X94709543Y-148770956D01*
X94689552Y-148758974D01*
X94670832Y-148745090D01*
X94653562Y-148729438D01*
X94637910Y-148712168D01*
X94624026Y-148693448D01*
X94612044Y-148673457D01*
X94602079Y-148652387D01*
X94594227Y-148630443D01*
X94588563Y-148607834D01*
X94585144Y-148584779D01*
X94584000Y-148561500D01*
X94584000Y-148086500D01*
X94585144Y-148063221D01*
X94588563Y-148040166D01*
X94594227Y-148017557D01*
X94602079Y-147995613D01*
X94612044Y-147974543D01*
X94624026Y-147954552D01*
X94637910Y-147935832D01*
X94653562Y-147918562D01*
X94670832Y-147902910D01*
X94689552Y-147889026D01*
X94709543Y-147877044D01*
X94730613Y-147867079D01*
X94752557Y-147859227D01*
X94775166Y-147853563D01*
X94798221Y-147850144D01*
X94821500Y-147849000D01*
X95396500Y-147849000D01*
X95419779Y-147850144D01*
G37*
G04 #@! TD.AperFunction*
D13*
X64000000Y-146000000D03*
X64000000Y-89000000D03*
X101000000Y-89000000D03*
X101000000Y-146000000D03*
G04 #@! TA.AperFunction,ComponentPad*
D12*
G36*
X70888504Y-108945204D02*
G01*
X70912773Y-108948804D01*
X70936571Y-108954765D01*
X70959671Y-108963030D01*
X70981849Y-108973520D01*
X71002893Y-108986133D01*
X71022598Y-109000747D01*
X71040777Y-109017223D01*
X71057253Y-109035402D01*
X71071867Y-109055107D01*
X71084480Y-109076151D01*
X71094970Y-109098329D01*
X71103235Y-109121429D01*
X71109196Y-109145227D01*
X71112796Y-109169496D01*
X71114000Y-109194000D01*
X71114000Y-110194000D01*
X71112796Y-110218504D01*
X71109196Y-110242773D01*
X71103235Y-110266571D01*
X71094970Y-110289671D01*
X71084480Y-110311849D01*
X71071867Y-110332893D01*
X71057253Y-110352598D01*
X71040777Y-110370777D01*
X71022598Y-110387253D01*
X71002893Y-110401867D01*
X70981849Y-110414480D01*
X70959671Y-110424970D01*
X70936571Y-110433235D01*
X70912773Y-110439196D01*
X70888504Y-110442796D01*
X70864000Y-110444000D01*
X69344000Y-110444000D01*
X69319496Y-110442796D01*
X69295227Y-110439196D01*
X69271429Y-110433235D01*
X69248329Y-110424970D01*
X69226151Y-110414480D01*
X69205107Y-110401867D01*
X69185402Y-110387253D01*
X69167223Y-110370777D01*
X69150747Y-110352598D01*
X69136133Y-110332893D01*
X69123520Y-110311849D01*
X69113030Y-110289671D01*
X69104765Y-110266571D01*
X69098804Y-110242773D01*
X69095204Y-110218504D01*
X69094000Y-110194000D01*
X69094000Y-109194000D01*
X69095204Y-109169496D01*
X69098804Y-109145227D01*
X69104765Y-109121429D01*
X69113030Y-109098329D01*
X69123520Y-109076151D01*
X69136133Y-109055107D01*
X69150747Y-109035402D01*
X69167223Y-109017223D01*
X69185402Y-109000747D01*
X69205107Y-108986133D01*
X69226151Y-108973520D01*
X69248329Y-108963030D01*
X69271429Y-108954765D01*
X69295227Y-108948804D01*
X69319496Y-108945204D01*
X69344000Y-108944000D01*
X70864000Y-108944000D01*
X70888504Y-108945204D01*
G37*
G04 #@! TD.AperFunction*
D14*
X70104000Y-106694000D03*
G04 #@! TA.AperFunction,SMDPad,CuDef*
D12*
G36*
X70206779Y-145830144D02*
G01*
X70229834Y-145833563D01*
X70252443Y-145839227D01*
X70274387Y-145847079D01*
X70295457Y-145857044D01*
X70315448Y-145869026D01*
X70334168Y-145882910D01*
X70351438Y-145898562D01*
X70367090Y-145915832D01*
X70380974Y-145934552D01*
X70392956Y-145954543D01*
X70402921Y-145975613D01*
X70410773Y-145997557D01*
X70416437Y-146020166D01*
X70419856Y-146043221D01*
X70421000Y-146066500D01*
X70421000Y-146541500D01*
X70419856Y-146564779D01*
X70416437Y-146587834D01*
X70410773Y-146610443D01*
X70402921Y-146632387D01*
X70392956Y-146653457D01*
X70380974Y-146673448D01*
X70367090Y-146692168D01*
X70351438Y-146709438D01*
X70334168Y-146725090D01*
X70315448Y-146738974D01*
X70295457Y-146750956D01*
X70274387Y-146760921D01*
X70252443Y-146768773D01*
X70229834Y-146774437D01*
X70206779Y-146777856D01*
X70183500Y-146779000D01*
X69608500Y-146779000D01*
X69585221Y-146777856D01*
X69562166Y-146774437D01*
X69539557Y-146768773D01*
X69517613Y-146760921D01*
X69496543Y-146750956D01*
X69476552Y-146738974D01*
X69457832Y-146725090D01*
X69440562Y-146709438D01*
X69424910Y-146692168D01*
X69411026Y-146673448D01*
X69399044Y-146653457D01*
X69389079Y-146632387D01*
X69381227Y-146610443D01*
X69375563Y-146587834D01*
X69372144Y-146564779D01*
X69371000Y-146541500D01*
X69371000Y-146066500D01*
X69372144Y-146043221D01*
X69375563Y-146020166D01*
X69381227Y-145997557D01*
X69389079Y-145975613D01*
X69399044Y-145954543D01*
X69411026Y-145934552D01*
X69424910Y-145915832D01*
X69440562Y-145898562D01*
X69457832Y-145882910D01*
X69476552Y-145869026D01*
X69496543Y-145857044D01*
X69517613Y-145847079D01*
X69539557Y-145839227D01*
X69562166Y-145833563D01*
X69585221Y-145830144D01*
X69608500Y-145829000D01*
X70183500Y-145829000D01*
X70206779Y-145830144D01*
G37*
G04 #@! TD.AperFunction*
G04 #@! TA.AperFunction,SMDPad,CuDef*
G36*
X71956779Y-145830144D02*
G01*
X71979834Y-145833563D01*
X72002443Y-145839227D01*
X72024387Y-145847079D01*
X72045457Y-145857044D01*
X72065448Y-145869026D01*
X72084168Y-145882910D01*
X72101438Y-145898562D01*
X72117090Y-145915832D01*
X72130974Y-145934552D01*
X72142956Y-145954543D01*
X72152921Y-145975613D01*
X72160773Y-145997557D01*
X72166437Y-146020166D01*
X72169856Y-146043221D01*
X72171000Y-146066500D01*
X72171000Y-146541500D01*
X72169856Y-146564779D01*
X72166437Y-146587834D01*
X72160773Y-146610443D01*
X72152921Y-146632387D01*
X72142956Y-146653457D01*
X72130974Y-146673448D01*
X72117090Y-146692168D01*
X72101438Y-146709438D01*
X72084168Y-146725090D01*
X72065448Y-146738974D01*
X72045457Y-146750956D01*
X72024387Y-146760921D01*
X72002443Y-146768773D01*
X71979834Y-146774437D01*
X71956779Y-146777856D01*
X71933500Y-146779000D01*
X71358500Y-146779000D01*
X71335221Y-146777856D01*
X71312166Y-146774437D01*
X71289557Y-146768773D01*
X71267613Y-146760921D01*
X71246543Y-146750956D01*
X71226552Y-146738974D01*
X71207832Y-146725090D01*
X71190562Y-146709438D01*
X71174910Y-146692168D01*
X71161026Y-146673448D01*
X71149044Y-146653457D01*
X71139079Y-146632387D01*
X71131227Y-146610443D01*
X71125563Y-146587834D01*
X71122144Y-146564779D01*
X71121000Y-146541500D01*
X71121000Y-146066500D01*
X71122144Y-146043221D01*
X71125563Y-146020166D01*
X71131227Y-145997557D01*
X71139079Y-145975613D01*
X71149044Y-145954543D01*
X71161026Y-145934552D01*
X71174910Y-145915832D01*
X71190562Y-145898562D01*
X71207832Y-145882910D01*
X71226552Y-145869026D01*
X71246543Y-145857044D01*
X71267613Y-145847079D01*
X71289557Y-145839227D01*
X71312166Y-145833563D01*
X71335221Y-145830144D01*
X71358500Y-145829000D01*
X71933500Y-145829000D01*
X71956779Y-145830144D01*
G37*
G04 #@! TD.AperFunction*
D15*
X69500000Y-88646000D03*
D16*
X72040000Y-88646000D03*
X69500000Y-91186000D03*
X72040000Y-91186000D03*
X69500000Y-93726000D03*
X72040000Y-93726000D03*
X69500000Y-96266000D03*
X72040000Y-96266000D03*
G04 #@! TA.AperFunction,SMDPad,CuDef*
D12*
G36*
X93669779Y-145830144D02*
G01*
X93692834Y-145833563D01*
X93715443Y-145839227D01*
X93737387Y-145847079D01*
X93758457Y-145857044D01*
X93778448Y-145869026D01*
X93797168Y-145882910D01*
X93814438Y-145898562D01*
X93830090Y-145915832D01*
X93843974Y-145934552D01*
X93855956Y-145954543D01*
X93865921Y-145975613D01*
X93873773Y-145997557D01*
X93879437Y-146020166D01*
X93882856Y-146043221D01*
X93884000Y-146066500D01*
X93884000Y-146541500D01*
X93882856Y-146564779D01*
X93879437Y-146587834D01*
X93873773Y-146610443D01*
X93865921Y-146632387D01*
X93855956Y-146653457D01*
X93843974Y-146673448D01*
X93830090Y-146692168D01*
X93814438Y-146709438D01*
X93797168Y-146725090D01*
X93778448Y-146738974D01*
X93758457Y-146750956D01*
X93737387Y-146760921D01*
X93715443Y-146768773D01*
X93692834Y-146774437D01*
X93669779Y-146777856D01*
X93646500Y-146779000D01*
X93071500Y-146779000D01*
X93048221Y-146777856D01*
X93025166Y-146774437D01*
X93002557Y-146768773D01*
X92980613Y-146760921D01*
X92959543Y-146750956D01*
X92939552Y-146738974D01*
X92920832Y-146725090D01*
X92903562Y-146709438D01*
X92887910Y-146692168D01*
X92874026Y-146673448D01*
X92862044Y-146653457D01*
X92852079Y-146632387D01*
X92844227Y-146610443D01*
X92838563Y-146587834D01*
X92835144Y-146564779D01*
X92834000Y-146541500D01*
X92834000Y-146066500D01*
X92835144Y-146043221D01*
X92838563Y-146020166D01*
X92844227Y-145997557D01*
X92852079Y-145975613D01*
X92862044Y-145954543D01*
X92874026Y-145934552D01*
X92887910Y-145915832D01*
X92903562Y-145898562D01*
X92920832Y-145882910D01*
X92939552Y-145869026D01*
X92959543Y-145857044D01*
X92980613Y-145847079D01*
X93002557Y-145839227D01*
X93025166Y-145833563D01*
X93048221Y-145830144D01*
X93071500Y-145829000D01*
X93646500Y-145829000D01*
X93669779Y-145830144D01*
G37*
G04 #@! TD.AperFunction*
G04 #@! TA.AperFunction,SMDPad,CuDef*
G36*
X95419779Y-145830144D02*
G01*
X95442834Y-145833563D01*
X95465443Y-145839227D01*
X95487387Y-145847079D01*
X95508457Y-145857044D01*
X95528448Y-145869026D01*
X95547168Y-145882910D01*
X95564438Y-145898562D01*
X95580090Y-145915832D01*
X95593974Y-145934552D01*
X95605956Y-145954543D01*
X95615921Y-145975613D01*
X95623773Y-145997557D01*
X95629437Y-146020166D01*
X95632856Y-146043221D01*
X95634000Y-146066500D01*
X95634000Y-146541500D01*
X95632856Y-146564779D01*
X95629437Y-146587834D01*
X95623773Y-146610443D01*
X95615921Y-146632387D01*
X95605956Y-146653457D01*
X95593974Y-146673448D01*
X95580090Y-146692168D01*
X95564438Y-146709438D01*
X95547168Y-146725090D01*
X95528448Y-146738974D01*
X95508457Y-146750956D01*
X95487387Y-146760921D01*
X95465443Y-146768773D01*
X95442834Y-146774437D01*
X95419779Y-146777856D01*
X95396500Y-146779000D01*
X94821500Y-146779000D01*
X94798221Y-146777856D01*
X94775166Y-146774437D01*
X94752557Y-146768773D01*
X94730613Y-146760921D01*
X94709543Y-146750956D01*
X94689552Y-146738974D01*
X94670832Y-146725090D01*
X94653562Y-146709438D01*
X94637910Y-146692168D01*
X94624026Y-146673448D01*
X94612044Y-146653457D01*
X94602079Y-146632387D01*
X94594227Y-146610443D01*
X94588563Y-146587834D01*
X94585144Y-146564779D01*
X94584000Y-146541500D01*
X94584000Y-146066500D01*
X94585144Y-146043221D01*
X94588563Y-146020166D01*
X94594227Y-145997557D01*
X94602079Y-145975613D01*
X94612044Y-145954543D01*
X94624026Y-145934552D01*
X94637910Y-145915832D01*
X94653562Y-145898562D01*
X94670832Y-145882910D01*
X94689552Y-145869026D01*
X94709543Y-145857044D01*
X94730613Y-145847079D01*
X94752557Y-145839227D01*
X94775166Y-145833563D01*
X94798221Y-145830144D01*
X94821500Y-145829000D01*
X95396500Y-145829000D01*
X95419779Y-145830144D01*
G37*
G04 #@! TD.AperFunction*
G04 #@! TA.AperFunction,ComponentPad*
G36*
X70888504Y-123289204D02*
G01*
X70912773Y-123292804D01*
X70936571Y-123298765D01*
X70959671Y-123307030D01*
X70981849Y-123317520D01*
X71002893Y-123330133D01*
X71022598Y-123344747D01*
X71040777Y-123361223D01*
X71057253Y-123379402D01*
X71071867Y-123399107D01*
X71084480Y-123420151D01*
X71094970Y-123442329D01*
X71103235Y-123465429D01*
X71109196Y-123489227D01*
X71112796Y-123513496D01*
X71114000Y-123538000D01*
X71114000Y-124538000D01*
X71112796Y-124562504D01*
X71109196Y-124586773D01*
X71103235Y-124610571D01*
X71094970Y-124633671D01*
X71084480Y-124655849D01*
X71071867Y-124676893D01*
X71057253Y-124696598D01*
X71040777Y-124714777D01*
X71022598Y-124731253D01*
X71002893Y-124745867D01*
X70981849Y-124758480D01*
X70959671Y-124768970D01*
X70936571Y-124777235D01*
X70912773Y-124783196D01*
X70888504Y-124786796D01*
X70864000Y-124788000D01*
X69344000Y-124788000D01*
X69319496Y-124786796D01*
X69295227Y-124783196D01*
X69271429Y-124777235D01*
X69248329Y-124768970D01*
X69226151Y-124758480D01*
X69205107Y-124745867D01*
X69185402Y-124731253D01*
X69167223Y-124714777D01*
X69150747Y-124696598D01*
X69136133Y-124676893D01*
X69123520Y-124655849D01*
X69113030Y-124633671D01*
X69104765Y-124610571D01*
X69098804Y-124586773D01*
X69095204Y-124562504D01*
X69094000Y-124538000D01*
X69094000Y-123538000D01*
X69095204Y-123513496D01*
X69098804Y-123489227D01*
X69104765Y-123465429D01*
X69113030Y-123442329D01*
X69123520Y-123420151D01*
X69136133Y-123399107D01*
X69150747Y-123379402D01*
X69167223Y-123361223D01*
X69185402Y-123344747D01*
X69205107Y-123330133D01*
X69226151Y-123317520D01*
X69248329Y-123307030D01*
X69271429Y-123298765D01*
X69295227Y-123292804D01*
X69319496Y-123289204D01*
X69344000Y-123288000D01*
X70864000Y-123288000D01*
X70888504Y-123289204D01*
G37*
G04 #@! TD.AperFunction*
D14*
X70104000Y-121038000D03*
X70104000Y-118038000D03*
X70104000Y-132382000D03*
X70104000Y-135382000D03*
G04 #@! TA.AperFunction,ComponentPad*
D12*
G36*
X70888504Y-137633204D02*
G01*
X70912773Y-137636804D01*
X70936571Y-137642765D01*
X70959671Y-137651030D01*
X70981849Y-137661520D01*
X71002893Y-137674133D01*
X71022598Y-137688747D01*
X71040777Y-137705223D01*
X71057253Y-137723402D01*
X71071867Y-137743107D01*
X71084480Y-137764151D01*
X71094970Y-137786329D01*
X71103235Y-137809429D01*
X71109196Y-137833227D01*
X71112796Y-137857496D01*
X71114000Y-137882000D01*
X71114000Y-138882000D01*
X71112796Y-138906504D01*
X71109196Y-138930773D01*
X71103235Y-138954571D01*
X71094970Y-138977671D01*
X71084480Y-138999849D01*
X71071867Y-139020893D01*
X71057253Y-139040598D01*
X71040777Y-139058777D01*
X71022598Y-139075253D01*
X71002893Y-139089867D01*
X70981849Y-139102480D01*
X70959671Y-139112970D01*
X70936571Y-139121235D01*
X70912773Y-139127196D01*
X70888504Y-139130796D01*
X70864000Y-139132000D01*
X69344000Y-139132000D01*
X69319496Y-139130796D01*
X69295227Y-139127196D01*
X69271429Y-139121235D01*
X69248329Y-139112970D01*
X69226151Y-139102480D01*
X69205107Y-139089867D01*
X69185402Y-139075253D01*
X69167223Y-139058777D01*
X69150747Y-139040598D01*
X69136133Y-139020893D01*
X69123520Y-138999849D01*
X69113030Y-138977671D01*
X69104765Y-138954571D01*
X69098804Y-138930773D01*
X69095204Y-138906504D01*
X69094000Y-138882000D01*
X69094000Y-137882000D01*
X69095204Y-137857496D01*
X69098804Y-137833227D01*
X69104765Y-137809429D01*
X69113030Y-137786329D01*
X69123520Y-137764151D01*
X69136133Y-137743107D01*
X69150747Y-137723402D01*
X69167223Y-137705223D01*
X69185402Y-137688747D01*
X69205107Y-137674133D01*
X69226151Y-137661520D01*
X69248329Y-137651030D01*
X69271429Y-137642765D01*
X69295227Y-137636804D01*
X69319496Y-137633204D01*
X69344000Y-137632000D01*
X70864000Y-137632000D01*
X70888504Y-137633204D01*
G37*
G04 #@! TD.AperFunction*
G04 #@! TA.AperFunction,ComponentPad*
G36*
X95526504Y-129045204D02*
G01*
X95550773Y-129048804D01*
X95574571Y-129054765D01*
X95597671Y-129063030D01*
X95619849Y-129073520D01*
X95640893Y-129086133D01*
X95660598Y-129100747D01*
X95678777Y-129117223D01*
X95695253Y-129135402D01*
X95709867Y-129155107D01*
X95722480Y-129176151D01*
X95732970Y-129198329D01*
X95741235Y-129221429D01*
X95747196Y-129245227D01*
X95750796Y-129269496D01*
X95752000Y-129294000D01*
X95752000Y-130294000D01*
X95750796Y-130318504D01*
X95747196Y-130342773D01*
X95741235Y-130366571D01*
X95732970Y-130389671D01*
X95722480Y-130411849D01*
X95709867Y-130432893D01*
X95695253Y-130452598D01*
X95678777Y-130470777D01*
X95660598Y-130487253D01*
X95640893Y-130501867D01*
X95619849Y-130514480D01*
X95597671Y-130524970D01*
X95574571Y-130533235D01*
X95550773Y-130539196D01*
X95526504Y-130542796D01*
X95502000Y-130544000D01*
X93982000Y-130544000D01*
X93957496Y-130542796D01*
X93933227Y-130539196D01*
X93909429Y-130533235D01*
X93886329Y-130524970D01*
X93864151Y-130514480D01*
X93843107Y-130501867D01*
X93823402Y-130487253D01*
X93805223Y-130470777D01*
X93788747Y-130452598D01*
X93774133Y-130432893D01*
X93761520Y-130411849D01*
X93751030Y-130389671D01*
X93742765Y-130366571D01*
X93736804Y-130342773D01*
X93733204Y-130318504D01*
X93732000Y-130294000D01*
X93732000Y-129294000D01*
X93733204Y-129269496D01*
X93736804Y-129245227D01*
X93742765Y-129221429D01*
X93751030Y-129198329D01*
X93761520Y-129176151D01*
X93774133Y-129155107D01*
X93788747Y-129135402D01*
X93805223Y-129117223D01*
X93823402Y-129100747D01*
X93843107Y-129086133D01*
X93864151Y-129073520D01*
X93886329Y-129063030D01*
X93909429Y-129054765D01*
X93933227Y-129048804D01*
X93957496Y-129045204D01*
X93982000Y-129044000D01*
X95502000Y-129044000D01*
X95526504Y-129045204D01*
G37*
G04 #@! TD.AperFunction*
D14*
X94742000Y-132794000D03*
X94742000Y-135794000D03*
X94742000Y-138794000D03*
X94742000Y-115694000D03*
X94742000Y-112694000D03*
X94742000Y-109694000D03*
G04 #@! TA.AperFunction,ComponentPad*
D12*
G36*
X95526504Y-105945204D02*
G01*
X95550773Y-105948804D01*
X95574571Y-105954765D01*
X95597671Y-105963030D01*
X95619849Y-105973520D01*
X95640893Y-105986133D01*
X95660598Y-106000747D01*
X95678777Y-106017223D01*
X95695253Y-106035402D01*
X95709867Y-106055107D01*
X95722480Y-106076151D01*
X95732970Y-106098329D01*
X95741235Y-106121429D01*
X95747196Y-106145227D01*
X95750796Y-106169496D01*
X95752000Y-106194000D01*
X95752000Y-107194000D01*
X95750796Y-107218504D01*
X95747196Y-107242773D01*
X95741235Y-107266571D01*
X95732970Y-107289671D01*
X95722480Y-107311849D01*
X95709867Y-107332893D01*
X95695253Y-107352598D01*
X95678777Y-107370777D01*
X95660598Y-107387253D01*
X95640893Y-107401867D01*
X95619849Y-107414480D01*
X95597671Y-107424970D01*
X95574571Y-107433235D01*
X95550773Y-107439196D01*
X95526504Y-107442796D01*
X95502000Y-107444000D01*
X93982000Y-107444000D01*
X93957496Y-107442796D01*
X93933227Y-107439196D01*
X93909429Y-107433235D01*
X93886329Y-107424970D01*
X93864151Y-107414480D01*
X93843107Y-107401867D01*
X93823402Y-107387253D01*
X93805223Y-107370777D01*
X93788747Y-107352598D01*
X93774133Y-107332893D01*
X93761520Y-107311849D01*
X93751030Y-107289671D01*
X93742765Y-107266571D01*
X93736804Y-107242773D01*
X93733204Y-107218504D01*
X93732000Y-107194000D01*
X93732000Y-106194000D01*
X93733204Y-106169496D01*
X93736804Y-106145227D01*
X93742765Y-106121429D01*
X93751030Y-106098329D01*
X93761520Y-106076151D01*
X93774133Y-106055107D01*
X93788747Y-106035402D01*
X93805223Y-106017223D01*
X93823402Y-106000747D01*
X93843107Y-105986133D01*
X93864151Y-105973520D01*
X93886329Y-105963030D01*
X93909429Y-105954765D01*
X93933227Y-105948804D01*
X93957496Y-105945204D01*
X93982000Y-105944000D01*
X95502000Y-105944000D01*
X95526504Y-105945204D01*
G37*
G04 #@! TD.AperFunction*
D17*
X95316000Y-122920000D03*
X97216000Y-122920000D03*
X96266000Y-120920000D03*
X100584000Y-120920000D03*
X101534000Y-122920000D03*
X99634000Y-122920000D03*
G04 #@! TA.AperFunction,SMDPad,CuDef*
D12*
G36*
X93732779Y-120521144D02*
G01*
X93755834Y-120524563D01*
X93778443Y-120530227D01*
X93800387Y-120538079D01*
X93821457Y-120548044D01*
X93841448Y-120560026D01*
X93860168Y-120573910D01*
X93877438Y-120589562D01*
X93893090Y-120606832D01*
X93906974Y-120625552D01*
X93918956Y-120645543D01*
X93928921Y-120666613D01*
X93936773Y-120688557D01*
X93942437Y-120711166D01*
X93945856Y-120734221D01*
X93947000Y-120757500D01*
X93947000Y-121332500D01*
X93945856Y-121355779D01*
X93942437Y-121378834D01*
X93936773Y-121401443D01*
X93928921Y-121423387D01*
X93918956Y-121444457D01*
X93906974Y-121464448D01*
X93893090Y-121483168D01*
X93877438Y-121500438D01*
X93860168Y-121516090D01*
X93841448Y-121529974D01*
X93821457Y-121541956D01*
X93800387Y-121551921D01*
X93778443Y-121559773D01*
X93755834Y-121565437D01*
X93732779Y-121568856D01*
X93709500Y-121570000D01*
X93234500Y-121570000D01*
X93211221Y-121568856D01*
X93188166Y-121565437D01*
X93165557Y-121559773D01*
X93143613Y-121551921D01*
X93122543Y-121541956D01*
X93102552Y-121529974D01*
X93083832Y-121516090D01*
X93066562Y-121500438D01*
X93050910Y-121483168D01*
X93037026Y-121464448D01*
X93025044Y-121444457D01*
X93015079Y-121423387D01*
X93007227Y-121401443D01*
X93001563Y-121378834D01*
X92998144Y-121355779D01*
X92997000Y-121332500D01*
X92997000Y-120757500D01*
X92998144Y-120734221D01*
X93001563Y-120711166D01*
X93007227Y-120688557D01*
X93015079Y-120666613D01*
X93025044Y-120645543D01*
X93037026Y-120625552D01*
X93050910Y-120606832D01*
X93066562Y-120589562D01*
X93083832Y-120573910D01*
X93102552Y-120560026D01*
X93122543Y-120548044D01*
X93143613Y-120538079D01*
X93165557Y-120530227D01*
X93188166Y-120524563D01*
X93211221Y-120521144D01*
X93234500Y-120520000D01*
X93709500Y-120520000D01*
X93732779Y-120521144D01*
G37*
G04 #@! TD.AperFunction*
G04 #@! TA.AperFunction,SMDPad,CuDef*
G36*
X93732779Y-122271144D02*
G01*
X93755834Y-122274563D01*
X93778443Y-122280227D01*
X93800387Y-122288079D01*
X93821457Y-122298044D01*
X93841448Y-122310026D01*
X93860168Y-122323910D01*
X93877438Y-122339562D01*
X93893090Y-122356832D01*
X93906974Y-122375552D01*
X93918956Y-122395543D01*
X93928921Y-122416613D01*
X93936773Y-122438557D01*
X93942437Y-122461166D01*
X93945856Y-122484221D01*
X93947000Y-122507500D01*
X93947000Y-123082500D01*
X93945856Y-123105779D01*
X93942437Y-123128834D01*
X93936773Y-123151443D01*
X93928921Y-123173387D01*
X93918956Y-123194457D01*
X93906974Y-123214448D01*
X93893090Y-123233168D01*
X93877438Y-123250438D01*
X93860168Y-123266090D01*
X93841448Y-123279974D01*
X93821457Y-123291956D01*
X93800387Y-123301921D01*
X93778443Y-123309773D01*
X93755834Y-123315437D01*
X93732779Y-123318856D01*
X93709500Y-123320000D01*
X93234500Y-123320000D01*
X93211221Y-123318856D01*
X93188166Y-123315437D01*
X93165557Y-123309773D01*
X93143613Y-123301921D01*
X93122543Y-123291956D01*
X93102552Y-123279974D01*
X93083832Y-123266090D01*
X93066562Y-123250438D01*
X93050910Y-123233168D01*
X93037026Y-123214448D01*
X93025044Y-123194457D01*
X93015079Y-123173387D01*
X93007227Y-123151443D01*
X93001563Y-123128834D01*
X92998144Y-123105779D01*
X92997000Y-123082500D01*
X92997000Y-122507500D01*
X92998144Y-122484221D01*
X93001563Y-122461166D01*
X93007227Y-122438557D01*
X93015079Y-122416613D01*
X93025044Y-122395543D01*
X93037026Y-122375552D01*
X93050910Y-122356832D01*
X93066562Y-122339562D01*
X93083832Y-122323910D01*
X93102552Y-122310026D01*
X93122543Y-122298044D01*
X93143613Y-122288079D01*
X93165557Y-122280227D01*
X93188166Y-122274563D01*
X93211221Y-122271144D01*
X93234500Y-122270000D01*
X93709500Y-122270000D01*
X93732779Y-122271144D01*
G37*
G04 #@! TD.AperFunction*
G04 #@! TA.AperFunction,SMDPad,CuDef*
G36*
X103638779Y-120521144D02*
G01*
X103661834Y-120524563D01*
X103684443Y-120530227D01*
X103706387Y-120538079D01*
X103727457Y-120548044D01*
X103747448Y-120560026D01*
X103766168Y-120573910D01*
X103783438Y-120589562D01*
X103799090Y-120606832D01*
X103812974Y-120625552D01*
X103824956Y-120645543D01*
X103834921Y-120666613D01*
X103842773Y-120688557D01*
X103848437Y-120711166D01*
X103851856Y-120734221D01*
X103853000Y-120757500D01*
X103853000Y-121332500D01*
X103851856Y-121355779D01*
X103848437Y-121378834D01*
X103842773Y-121401443D01*
X103834921Y-121423387D01*
X103824956Y-121444457D01*
X103812974Y-121464448D01*
X103799090Y-121483168D01*
X103783438Y-121500438D01*
X103766168Y-121516090D01*
X103747448Y-121529974D01*
X103727457Y-121541956D01*
X103706387Y-121551921D01*
X103684443Y-121559773D01*
X103661834Y-121565437D01*
X103638779Y-121568856D01*
X103615500Y-121570000D01*
X103140500Y-121570000D01*
X103117221Y-121568856D01*
X103094166Y-121565437D01*
X103071557Y-121559773D01*
X103049613Y-121551921D01*
X103028543Y-121541956D01*
X103008552Y-121529974D01*
X102989832Y-121516090D01*
X102972562Y-121500438D01*
X102956910Y-121483168D01*
X102943026Y-121464448D01*
X102931044Y-121444457D01*
X102921079Y-121423387D01*
X102913227Y-121401443D01*
X102907563Y-121378834D01*
X102904144Y-121355779D01*
X102903000Y-121332500D01*
X102903000Y-120757500D01*
X102904144Y-120734221D01*
X102907563Y-120711166D01*
X102913227Y-120688557D01*
X102921079Y-120666613D01*
X102931044Y-120645543D01*
X102943026Y-120625552D01*
X102956910Y-120606832D01*
X102972562Y-120589562D01*
X102989832Y-120573910D01*
X103008552Y-120560026D01*
X103028543Y-120548044D01*
X103049613Y-120538079D01*
X103071557Y-120530227D01*
X103094166Y-120524563D01*
X103117221Y-120521144D01*
X103140500Y-120520000D01*
X103615500Y-120520000D01*
X103638779Y-120521144D01*
G37*
G04 #@! TD.AperFunction*
G04 #@! TA.AperFunction,SMDPad,CuDef*
G36*
X103638779Y-122271144D02*
G01*
X103661834Y-122274563D01*
X103684443Y-122280227D01*
X103706387Y-122288079D01*
X103727457Y-122298044D01*
X103747448Y-122310026D01*
X103766168Y-122323910D01*
X103783438Y-122339562D01*
X103799090Y-122356832D01*
X103812974Y-122375552D01*
X103824956Y-122395543D01*
X103834921Y-122416613D01*
X103842773Y-122438557D01*
X103848437Y-122461166D01*
X103851856Y-122484221D01*
X103853000Y-122507500D01*
X103853000Y-123082500D01*
X103851856Y-123105779D01*
X103848437Y-123128834D01*
X103842773Y-123151443D01*
X103834921Y-123173387D01*
X103824956Y-123194457D01*
X103812974Y-123214448D01*
X103799090Y-123233168D01*
X103783438Y-123250438D01*
X103766168Y-123266090D01*
X103747448Y-123279974D01*
X103727457Y-123291956D01*
X103706387Y-123301921D01*
X103684443Y-123309773D01*
X103661834Y-123315437D01*
X103638779Y-123318856D01*
X103615500Y-123320000D01*
X103140500Y-123320000D01*
X103117221Y-123318856D01*
X103094166Y-123315437D01*
X103071557Y-123309773D01*
X103049613Y-123301921D01*
X103028543Y-123291956D01*
X103008552Y-123279974D01*
X102989832Y-123266090D01*
X102972562Y-123250438D01*
X102956910Y-123233168D01*
X102943026Y-123214448D01*
X102931044Y-123194457D01*
X102921079Y-123173387D01*
X102913227Y-123151443D01*
X102907563Y-123128834D01*
X102904144Y-123105779D01*
X102903000Y-123082500D01*
X102903000Y-122507500D01*
X102904144Y-122484221D01*
X102907563Y-122461166D01*
X102913227Y-122438557D01*
X102921079Y-122416613D01*
X102931044Y-122395543D01*
X102943026Y-122375552D01*
X102956910Y-122356832D01*
X102972562Y-122339562D01*
X102989832Y-122323910D01*
X103008552Y-122310026D01*
X103028543Y-122298044D01*
X103049613Y-122288079D01*
X103071557Y-122280227D01*
X103094166Y-122274563D01*
X103117221Y-122271144D01*
X103140500Y-122270000D01*
X103615500Y-122270000D01*
X103638779Y-122271144D01*
G37*
G04 #@! TD.AperFunction*
G04 #@! TA.AperFunction,SMDPad,CuDef*
G36*
X95701779Y-124240144D02*
G01*
X95724834Y-124243563D01*
X95747443Y-124249227D01*
X95769387Y-124257079D01*
X95790457Y-124267044D01*
X95810448Y-124279026D01*
X95829168Y-124292910D01*
X95846438Y-124308562D01*
X95862090Y-124325832D01*
X95875974Y-124344552D01*
X95887956Y-124364543D01*
X95897921Y-124385613D01*
X95905773Y-124407557D01*
X95911437Y-124430166D01*
X95914856Y-124453221D01*
X95916000Y-124476500D01*
X95916000Y-124951500D01*
X95914856Y-124974779D01*
X95911437Y-124997834D01*
X95905773Y-125020443D01*
X95897921Y-125042387D01*
X95887956Y-125063457D01*
X95875974Y-125083448D01*
X95862090Y-125102168D01*
X95846438Y-125119438D01*
X95829168Y-125135090D01*
X95810448Y-125148974D01*
X95790457Y-125160956D01*
X95769387Y-125170921D01*
X95747443Y-125178773D01*
X95724834Y-125184437D01*
X95701779Y-125187856D01*
X95678500Y-125189000D01*
X95103500Y-125189000D01*
X95080221Y-125187856D01*
X95057166Y-125184437D01*
X95034557Y-125178773D01*
X95012613Y-125170921D01*
X94991543Y-125160956D01*
X94971552Y-125148974D01*
X94952832Y-125135090D01*
X94935562Y-125119438D01*
X94919910Y-125102168D01*
X94906026Y-125083448D01*
X94894044Y-125063457D01*
X94884079Y-125042387D01*
X94876227Y-125020443D01*
X94870563Y-124997834D01*
X94867144Y-124974779D01*
X94866000Y-124951500D01*
X94866000Y-124476500D01*
X94867144Y-124453221D01*
X94870563Y-124430166D01*
X94876227Y-124407557D01*
X94884079Y-124385613D01*
X94894044Y-124364543D01*
X94906026Y-124344552D01*
X94919910Y-124325832D01*
X94935562Y-124308562D01*
X94952832Y-124292910D01*
X94971552Y-124279026D01*
X94991543Y-124267044D01*
X95012613Y-124257079D01*
X95034557Y-124249227D01*
X95057166Y-124243563D01*
X95080221Y-124240144D01*
X95103500Y-124239000D01*
X95678500Y-124239000D01*
X95701779Y-124240144D01*
G37*
G04 #@! TD.AperFunction*
G04 #@! TA.AperFunction,SMDPad,CuDef*
G36*
X97451779Y-124240144D02*
G01*
X97474834Y-124243563D01*
X97497443Y-124249227D01*
X97519387Y-124257079D01*
X97540457Y-124267044D01*
X97560448Y-124279026D01*
X97579168Y-124292910D01*
X97596438Y-124308562D01*
X97612090Y-124325832D01*
X97625974Y-124344552D01*
X97637956Y-124364543D01*
X97647921Y-124385613D01*
X97655773Y-124407557D01*
X97661437Y-124430166D01*
X97664856Y-124453221D01*
X97666000Y-124476500D01*
X97666000Y-124951500D01*
X97664856Y-124974779D01*
X97661437Y-124997834D01*
X97655773Y-125020443D01*
X97647921Y-125042387D01*
X97637956Y-125063457D01*
X97625974Y-125083448D01*
X97612090Y-125102168D01*
X97596438Y-125119438D01*
X97579168Y-125135090D01*
X97560448Y-125148974D01*
X97540457Y-125160956D01*
X97519387Y-125170921D01*
X97497443Y-125178773D01*
X97474834Y-125184437D01*
X97451779Y-125187856D01*
X97428500Y-125189000D01*
X96853500Y-125189000D01*
X96830221Y-125187856D01*
X96807166Y-125184437D01*
X96784557Y-125178773D01*
X96762613Y-125170921D01*
X96741543Y-125160956D01*
X96721552Y-125148974D01*
X96702832Y-125135090D01*
X96685562Y-125119438D01*
X96669910Y-125102168D01*
X96656026Y-125083448D01*
X96644044Y-125063457D01*
X96634079Y-125042387D01*
X96626227Y-125020443D01*
X96620563Y-124997834D01*
X96617144Y-124974779D01*
X96616000Y-124951500D01*
X96616000Y-124476500D01*
X96617144Y-124453221D01*
X96620563Y-124430166D01*
X96626227Y-124407557D01*
X96634079Y-124385613D01*
X96644044Y-124364543D01*
X96656026Y-124344552D01*
X96669910Y-124325832D01*
X96685562Y-124308562D01*
X96702832Y-124292910D01*
X96721552Y-124279026D01*
X96741543Y-124267044D01*
X96762613Y-124257079D01*
X96784557Y-124249227D01*
X96807166Y-124243563D01*
X96830221Y-124240144D01*
X96853500Y-124239000D01*
X97428500Y-124239000D01*
X97451779Y-124240144D01*
G37*
G04 #@! TD.AperFunction*
G04 #@! TA.AperFunction,SMDPad,CuDef*
G36*
X100019779Y-124240144D02*
G01*
X100042834Y-124243563D01*
X100065443Y-124249227D01*
X100087387Y-124257079D01*
X100108457Y-124267044D01*
X100128448Y-124279026D01*
X100147168Y-124292910D01*
X100164438Y-124308562D01*
X100180090Y-124325832D01*
X100193974Y-124344552D01*
X100205956Y-124364543D01*
X100215921Y-124385613D01*
X100223773Y-124407557D01*
X100229437Y-124430166D01*
X100232856Y-124453221D01*
X100234000Y-124476500D01*
X100234000Y-124951500D01*
X100232856Y-124974779D01*
X100229437Y-124997834D01*
X100223773Y-125020443D01*
X100215921Y-125042387D01*
X100205956Y-125063457D01*
X100193974Y-125083448D01*
X100180090Y-125102168D01*
X100164438Y-125119438D01*
X100147168Y-125135090D01*
X100128448Y-125148974D01*
X100108457Y-125160956D01*
X100087387Y-125170921D01*
X100065443Y-125178773D01*
X100042834Y-125184437D01*
X100019779Y-125187856D01*
X99996500Y-125189000D01*
X99421500Y-125189000D01*
X99398221Y-125187856D01*
X99375166Y-125184437D01*
X99352557Y-125178773D01*
X99330613Y-125170921D01*
X99309543Y-125160956D01*
X99289552Y-125148974D01*
X99270832Y-125135090D01*
X99253562Y-125119438D01*
X99237910Y-125102168D01*
X99224026Y-125083448D01*
X99212044Y-125063457D01*
X99202079Y-125042387D01*
X99194227Y-125020443D01*
X99188563Y-124997834D01*
X99185144Y-124974779D01*
X99184000Y-124951500D01*
X99184000Y-124476500D01*
X99185144Y-124453221D01*
X99188563Y-124430166D01*
X99194227Y-124407557D01*
X99202079Y-124385613D01*
X99212044Y-124364543D01*
X99224026Y-124344552D01*
X99237910Y-124325832D01*
X99253562Y-124308562D01*
X99270832Y-124292910D01*
X99289552Y-124279026D01*
X99309543Y-124267044D01*
X99330613Y-124257079D01*
X99352557Y-124249227D01*
X99375166Y-124243563D01*
X99398221Y-124240144D01*
X99421500Y-124239000D01*
X99996500Y-124239000D01*
X100019779Y-124240144D01*
G37*
G04 #@! TD.AperFunction*
G04 #@! TA.AperFunction,SMDPad,CuDef*
G36*
X101769779Y-124240144D02*
G01*
X101792834Y-124243563D01*
X101815443Y-124249227D01*
X101837387Y-124257079D01*
X101858457Y-124267044D01*
X101878448Y-124279026D01*
X101897168Y-124292910D01*
X101914438Y-124308562D01*
X101930090Y-124325832D01*
X101943974Y-124344552D01*
X101955956Y-124364543D01*
X101965921Y-124385613D01*
X101973773Y-124407557D01*
X101979437Y-124430166D01*
X101982856Y-124453221D01*
X101984000Y-124476500D01*
X101984000Y-124951500D01*
X101982856Y-124974779D01*
X101979437Y-124997834D01*
X101973773Y-125020443D01*
X101965921Y-125042387D01*
X101955956Y-125063457D01*
X101943974Y-125083448D01*
X101930090Y-125102168D01*
X101914438Y-125119438D01*
X101897168Y-125135090D01*
X101878448Y-125148974D01*
X101858457Y-125160956D01*
X101837387Y-125170921D01*
X101815443Y-125178773D01*
X101792834Y-125184437D01*
X101769779Y-125187856D01*
X101746500Y-125189000D01*
X101171500Y-125189000D01*
X101148221Y-125187856D01*
X101125166Y-125184437D01*
X101102557Y-125178773D01*
X101080613Y-125170921D01*
X101059543Y-125160956D01*
X101039552Y-125148974D01*
X101020832Y-125135090D01*
X101003562Y-125119438D01*
X100987910Y-125102168D01*
X100974026Y-125083448D01*
X100962044Y-125063457D01*
X100952079Y-125042387D01*
X100944227Y-125020443D01*
X100938563Y-124997834D01*
X100935144Y-124974779D01*
X100934000Y-124951500D01*
X100934000Y-124476500D01*
X100935144Y-124453221D01*
X100938563Y-124430166D01*
X100944227Y-124407557D01*
X100952079Y-124385613D01*
X100962044Y-124364543D01*
X100974026Y-124344552D01*
X100987910Y-124325832D01*
X101003562Y-124308562D01*
X101020832Y-124292910D01*
X101039552Y-124279026D01*
X101059543Y-124267044D01*
X101080613Y-124257079D01*
X101102557Y-124249227D01*
X101125166Y-124243563D01*
X101148221Y-124240144D01*
X101171500Y-124239000D01*
X101746500Y-124239000D01*
X101769779Y-124240144D01*
G37*
G04 #@! TD.AperFunction*
D18*
X97028000Y-127254000D03*
X81534000Y-115062000D03*
X82169000Y-139192000D03*
X86741000Y-93091000D03*
X99060000Y-119634000D03*
X93218000Y-119380000D03*
X99314000Y-126746000D03*
X98298000Y-123698000D03*
X62992000Y-114808000D03*
X62738000Y-129286000D03*
D19*
X95316000Y-124639000D02*
X95391000Y-124714000D01*
X95316000Y-122920000D02*
X95316000Y-124639000D01*
X99634000Y-124639000D02*
X99709000Y-124714000D01*
X99634000Y-122920000D02*
X99634000Y-124639000D01*
X97028000Y-126351000D02*
X95391000Y-124714000D01*
X97028000Y-127254000D02*
X97028000Y-126351000D01*
X97169000Y-127254000D02*
X99709000Y-124714000D01*
X97028000Y-127254000D02*
X97169000Y-127254000D01*
X70754000Y-118038000D02*
X70104000Y-118038000D01*
X74890000Y-122174000D02*
X70754000Y-118038000D01*
X71646000Y-138118000D02*
X71646000Y-146304000D01*
X74890000Y-134874000D02*
X71646000Y-138118000D01*
X74890000Y-137414000D02*
X77089000Y-139613000D01*
X77089000Y-139613000D02*
X77089000Y-142367000D01*
X94772142Y-146304000D02*
X93121142Y-144653000D01*
X95109000Y-146304000D02*
X94772142Y-146304000D01*
X79375000Y-144653000D02*
X77089000Y-142367000D01*
X93121142Y-144653000D02*
X79375000Y-144653000D01*
D20*
X69844000Y-121038000D02*
X68258990Y-119452990D01*
X68258990Y-108539010D02*
X70104000Y-106694000D01*
X68258990Y-119452990D02*
X68258990Y-108539010D01*
X70104000Y-121038000D02*
X69844000Y-121038000D01*
X89330001Y-106134001D02*
X90130000Y-106934000D01*
X88494999Y-105298999D02*
X89330001Y-106134001D01*
X71759001Y-105298999D02*
X88494999Y-105298999D01*
X70364000Y-106694000D02*
X71759001Y-105298999D01*
X70104000Y-106694000D02*
X70364000Y-106694000D01*
D19*
X69896000Y-148279000D02*
X69851000Y-148324000D01*
X69896000Y-146304000D02*
X69896000Y-148279000D01*
X93359000Y-146304000D02*
X93359000Y-148324000D01*
X96141000Y-121045000D02*
X96266000Y-120920000D01*
X93472000Y-121045000D02*
X96141000Y-121045000D01*
X92997000Y-121045000D02*
X90130000Y-123912000D01*
X90130000Y-123912000D02*
X90130000Y-124714000D01*
X93472000Y-121045000D02*
X92997000Y-121045000D01*
X70104000Y-129500000D02*
X74890000Y-124714000D01*
X70104000Y-132382000D02*
X70104000Y-129500000D01*
X103253000Y-120920000D02*
X103378000Y-121045000D01*
X100584000Y-120920000D02*
X103253000Y-120920000D01*
X90130000Y-122174000D02*
X91948000Y-120356000D01*
X91948000Y-113030000D02*
X93726000Y-111252000D01*
X97171499Y-115713499D02*
X100584000Y-119126000D01*
X91948000Y-120356000D02*
X91948000Y-113030000D01*
X100584000Y-119126000D02*
X100584000Y-120920000D01*
X93726000Y-111252000D02*
X96012000Y-111252000D01*
X97171499Y-112411499D02*
X97171499Y-115713499D01*
X96012000Y-111252000D02*
X97171499Y-112411499D01*
D21*
X72526078Y-135382000D02*
X74304078Y-133604000D01*
X70104000Y-135382000D02*
X72526078Y-135382000D01*
X92414000Y-133604000D02*
X74304078Y-133604000D01*
X93224000Y-132794000D02*
X92414000Y-133604000D01*
X94742000Y-132794000D02*
X93224000Y-132794000D01*
X94694000Y-132794000D02*
X94742000Y-132794000D01*
X92979999Y-131079999D02*
X94694000Y-132794000D01*
X88875999Y-130395921D02*
X89560077Y-131079999D01*
X89560077Y-131079999D02*
X92979999Y-131079999D01*
X89330001Y-115353999D02*
X89330001Y-115393999D01*
X90130000Y-114554000D02*
X89330001Y-115353999D01*
X89330001Y-115393999D02*
X87630000Y-117094000D01*
X87630000Y-129149922D02*
X89560077Y-131079999D01*
X87630000Y-117094000D02*
X87630000Y-129149922D01*
D19*
X103378000Y-123320000D02*
X103378000Y-122795000D01*
X103378000Y-124418000D02*
X103378000Y-123320000D01*
X95002000Y-132794000D02*
X103378000Y-124418000D01*
X94742000Y-132794000D02*
X95002000Y-132794000D01*
X93472000Y-126358180D02*
X93472000Y-122795000D01*
X96142510Y-129028690D02*
X93472000Y-126358180D01*
X96142510Y-130559310D02*
X96142510Y-129028690D01*
X94742000Y-132794000D02*
X94742000Y-131959820D01*
X94742000Y-131959820D02*
X96142510Y-130559310D01*
X101459000Y-122995000D02*
X101534000Y-122920000D01*
X101459000Y-124714000D02*
X101459000Y-122995000D01*
X101534000Y-122870000D02*
X100584000Y-121920000D01*
X101534000Y-122920000D02*
X101534000Y-122870000D01*
X97797010Y-120403010D02*
X99314000Y-121920000D01*
X97797010Y-120076436D02*
X97797010Y-120403010D01*
X97790000Y-120069426D02*
X97797010Y-120076436D01*
X100330000Y-121920000D02*
X100031098Y-121920000D01*
X100584000Y-121920000D02*
X100330000Y-121920000D01*
X94742000Y-115694000D02*
X94742000Y-115824000D01*
X94742000Y-115824000D02*
X97790000Y-118872000D01*
X99314000Y-121920000D02*
X100330000Y-121920000D01*
X97790000Y-118872000D02*
X97790000Y-120069426D01*
X97141000Y-122995000D02*
X97216000Y-122920000D01*
X97141000Y-124714000D02*
X97141000Y-122995000D01*
X97216000Y-120317098D02*
X95262902Y-118364000D01*
X97216000Y-122920000D02*
X97216000Y-120317098D01*
X95262902Y-118364000D02*
X95250000Y-118364000D01*
X95250000Y-118364000D02*
X92964000Y-116078000D01*
X92964000Y-116078000D02*
X92964000Y-114300000D01*
X94742000Y-112694000D02*
X94570000Y-112694000D01*
X94570000Y-112694000D02*
X92964000Y-114300000D01*
D22*
G36*
X104594000Y-149594000D02*
G01*
X60406000Y-149594000D01*
X60406000Y-148380928D01*
X61798677Y-148380928D01*
X62104859Y-148824503D01*
X62692306Y-149139954D01*
X63330008Y-149334740D01*
X63993457Y-149401372D01*
X64657158Y-149337292D01*
X65295605Y-149144962D01*
X65884262Y-148831772D01*
X65895141Y-148824503D01*
X66201323Y-148380928D01*
X64000000Y-146179605D01*
X61798677Y-148380928D01*
X60406000Y-148380928D01*
X60406000Y-145993457D01*
X60598628Y-145993457D01*
X60662708Y-146657158D01*
X60855038Y-147295605D01*
X61168228Y-147884262D01*
X61175497Y-147895141D01*
X61619072Y-148201323D01*
X63820395Y-146000000D01*
X64179605Y-146000000D01*
X66380928Y-148201323D01*
X66824503Y-147895141D01*
X67139954Y-147307694D01*
X67334740Y-146669992D01*
X67401372Y-146006543D01*
X67337292Y-145342842D01*
X67144962Y-144704395D01*
X66831772Y-144115738D01*
X66824503Y-144104859D01*
X66380928Y-143798677D01*
X64179605Y-146000000D01*
X63820395Y-146000000D01*
X61619072Y-143798677D01*
X61175497Y-144104859D01*
X60860046Y-144692306D01*
X60665260Y-145330008D01*
X60598628Y-145993457D01*
X60406000Y-145993457D01*
X60406000Y-143619072D01*
X61798677Y-143619072D01*
X64000000Y-145820395D01*
X66201323Y-143619072D01*
X65895141Y-143175497D01*
X65307694Y-142860046D01*
X64669992Y-142665260D01*
X64006543Y-142598628D01*
X63342842Y-142662708D01*
X62704395Y-142855038D01*
X62115738Y-143168228D01*
X62104859Y-143175497D01*
X61798677Y-143619072D01*
X60406000Y-143619072D01*
X60406000Y-139132000D01*
X68455928Y-139132000D01*
X68468188Y-139256482D01*
X68504498Y-139376180D01*
X68563463Y-139486494D01*
X68642815Y-139583185D01*
X68739506Y-139662537D01*
X68849820Y-139721502D01*
X68969518Y-139757812D01*
X69094000Y-139770072D01*
X69818250Y-139767000D01*
X69977000Y-139608250D01*
X69977000Y-138509000D01*
X68617750Y-138509000D01*
X68459000Y-138667750D01*
X68455928Y-139132000D01*
X60406000Y-139132000D01*
X60406000Y-137632000D01*
X68455928Y-137632000D01*
X68459000Y-138096250D01*
X68617750Y-138255000D01*
X69977000Y-138255000D01*
X69977000Y-137155750D01*
X69818250Y-136997000D01*
X69094000Y-136993928D01*
X68969518Y-137006188D01*
X68849820Y-137042498D01*
X68739506Y-137101463D01*
X68642815Y-137180815D01*
X68563463Y-137277506D01*
X68504498Y-137387820D01*
X68468188Y-137507518D01*
X68455928Y-137632000D01*
X60406000Y-137632000D01*
X60406000Y-135196738D01*
X63903000Y-135196738D01*
X63903000Y-135567262D01*
X63975286Y-135930667D01*
X64117080Y-136272987D01*
X64322932Y-136581067D01*
X64584933Y-136843068D01*
X64893013Y-137048920D01*
X65235333Y-137190714D01*
X65598738Y-137263000D01*
X65969262Y-137263000D01*
X66332667Y-137190714D01*
X66674987Y-137048920D01*
X66983067Y-136843068D01*
X67245068Y-136581067D01*
X67450920Y-136272987D01*
X67592714Y-135930667D01*
X67665000Y-135567262D01*
X67665000Y-135382000D01*
X68707528Y-135382000D01*
X68729365Y-135603715D01*
X68794037Y-135816909D01*
X68899058Y-136013390D01*
X69040393Y-136185607D01*
X69212610Y-136326942D01*
X69409091Y-136431963D01*
X69622285Y-136496635D01*
X69788442Y-136513000D01*
X70419558Y-136513000D01*
X70585715Y-136496635D01*
X70798909Y-136431963D01*
X70995390Y-136326942D01*
X71167607Y-136185607D01*
X71305979Y-136017000D01*
X72494897Y-136017000D01*
X72526078Y-136020071D01*
X72557259Y-136017000D01*
X72557270Y-136017000D01*
X72650560Y-136007812D01*
X72770258Y-135971502D01*
X72880572Y-135912537D01*
X72977263Y-135833185D01*
X72997152Y-135808950D01*
X73726717Y-135079386D01*
X73751550Y-135204227D01*
X71656288Y-137299490D01*
X71644537Y-137277506D01*
X71565185Y-137180815D01*
X71468494Y-137101463D01*
X71358180Y-137042498D01*
X71238482Y-137006188D01*
X71114000Y-136993928D01*
X70389750Y-136997000D01*
X70231000Y-137155750D01*
X70231000Y-138255000D01*
X70251000Y-138255000D01*
X70251000Y-138509000D01*
X70231000Y-138509000D01*
X70231000Y-139608250D01*
X70389750Y-139767000D01*
X71074500Y-139769904D01*
X71074501Y-145518289D01*
X71013856Y-145550704D01*
X70919851Y-145627851D01*
X70842704Y-145721856D01*
X70785378Y-145829105D01*
X70771000Y-145876503D01*
X70756622Y-145829105D01*
X70699296Y-145721856D01*
X70622149Y-145627851D01*
X70528144Y-145550704D01*
X70420895Y-145493378D01*
X70304523Y-145458077D01*
X70183500Y-145446157D01*
X69608500Y-145446157D01*
X69487477Y-145458077D01*
X69371105Y-145493378D01*
X69263856Y-145550704D01*
X69169851Y-145627851D01*
X69092704Y-145721856D01*
X69035378Y-145829105D01*
X69000077Y-145945477D01*
X68988157Y-146066500D01*
X68988157Y-146541500D01*
X69000077Y-146662523D01*
X69035378Y-146778895D01*
X69092704Y-146886144D01*
X69169851Y-146980149D01*
X69263856Y-147057296D01*
X69324500Y-147089711D01*
X69324501Y-147514236D01*
X69218856Y-147570704D01*
X69124851Y-147647851D01*
X69047704Y-147741856D01*
X68990378Y-147849105D01*
X68955077Y-147965477D01*
X68943157Y-148086500D01*
X68943157Y-148561500D01*
X68955077Y-148682523D01*
X68990378Y-148798895D01*
X69047704Y-148906144D01*
X69124851Y-149000149D01*
X69218856Y-149077296D01*
X69326105Y-149134622D01*
X69442477Y-149169923D01*
X69563500Y-149181843D01*
X70138500Y-149181843D01*
X70259523Y-149169923D01*
X70375895Y-149134622D01*
X70483144Y-149077296D01*
X70498151Y-149064980D01*
X70545463Y-149153494D01*
X70624815Y-149250185D01*
X70721506Y-149329537D01*
X70831820Y-149388502D01*
X70951518Y-149424812D01*
X71076000Y-149437072D01*
X71315250Y-149434000D01*
X71474000Y-149275250D01*
X71474000Y-148451000D01*
X71728000Y-148451000D01*
X71728000Y-149275250D01*
X71886750Y-149434000D01*
X72126000Y-149437072D01*
X72250482Y-149424812D01*
X72370180Y-149388502D01*
X72480494Y-149329537D01*
X72577185Y-149250185D01*
X72656537Y-149153494D01*
X72715502Y-149043180D01*
X72751812Y-148923482D01*
X72764072Y-148799000D01*
X72761000Y-148609750D01*
X72602250Y-148451000D01*
X71728000Y-148451000D01*
X71474000Y-148451000D01*
X71454000Y-148451000D01*
X71454000Y-148197000D01*
X71474000Y-148197000D01*
X71474000Y-147372750D01*
X71728000Y-147372750D01*
X71728000Y-148197000D01*
X72602250Y-148197000D01*
X72761000Y-148038250D01*
X72764072Y-147849000D01*
X72751812Y-147724518D01*
X72715502Y-147604820D01*
X72656537Y-147494506D01*
X72577185Y-147397815D01*
X72480494Y-147318463D01*
X72370180Y-147259498D01*
X72250482Y-147223188D01*
X72126000Y-147210928D01*
X71886750Y-147214000D01*
X71728000Y-147372750D01*
X71474000Y-147372750D01*
X71315250Y-147214000D01*
X71076000Y-147210928D01*
X70951518Y-147223188D01*
X70831820Y-147259498D01*
X70721506Y-147318463D01*
X70624815Y-147397815D01*
X70545463Y-147494506D01*
X70498151Y-147583020D01*
X70483144Y-147570704D01*
X70467500Y-147562342D01*
X70467500Y-147089711D01*
X70528144Y-147057296D01*
X70622149Y-146980149D01*
X70699296Y-146886144D01*
X70756622Y-146778895D01*
X70771000Y-146731497D01*
X70785378Y-146778895D01*
X70842704Y-146886144D01*
X70919851Y-146980149D01*
X71013856Y-147057296D01*
X71121105Y-147114622D01*
X71237477Y-147149923D01*
X71358500Y-147161843D01*
X71933500Y-147161843D01*
X72054523Y-147149923D01*
X72170895Y-147114622D01*
X72278144Y-147057296D01*
X72372149Y-146980149D01*
X72449296Y-146886144D01*
X72506622Y-146778895D01*
X72541923Y-146662523D01*
X72553843Y-146541500D01*
X72553843Y-146066500D01*
X72541923Y-145945477D01*
X72506622Y-145829105D01*
X72449296Y-145721856D01*
X72372149Y-145627851D01*
X72278144Y-145550704D01*
X72217500Y-145518289D01*
X72217500Y-142377682D01*
X73709000Y-142377682D01*
X73709000Y-142610318D01*
X73754386Y-142838485D01*
X73843412Y-143053413D01*
X73972658Y-143246843D01*
X74137157Y-143411342D01*
X74330587Y-143540588D01*
X74545515Y-143629614D01*
X74773682Y-143675000D01*
X75006318Y-143675000D01*
X75234485Y-143629614D01*
X75449413Y-143540588D01*
X75642843Y-143411342D01*
X75807342Y-143246843D01*
X75936588Y-143053413D01*
X76025614Y-142838485D01*
X76071000Y-142610318D01*
X76071000Y-142377682D01*
X76025614Y-142149515D01*
X75936588Y-141934587D01*
X75807342Y-141741157D01*
X75642843Y-141576658D01*
X75449413Y-141447412D01*
X75234485Y-141358386D01*
X75006318Y-141313000D01*
X74773682Y-141313000D01*
X74545515Y-141358386D01*
X74330587Y-141447412D01*
X74137157Y-141576658D01*
X73972658Y-141741157D01*
X73843412Y-141934587D01*
X73754386Y-142149515D01*
X73709000Y-142377682D01*
X72217500Y-142377682D01*
X72217500Y-139837682D01*
X73709000Y-139837682D01*
X73709000Y-140070318D01*
X73754386Y-140298485D01*
X73843412Y-140513413D01*
X73972658Y-140706843D01*
X74137157Y-140871342D01*
X74330587Y-141000588D01*
X74545515Y-141089614D01*
X74773682Y-141135000D01*
X75006318Y-141135000D01*
X75234485Y-141089614D01*
X75449413Y-141000588D01*
X75642843Y-140871342D01*
X75807342Y-140706843D01*
X75936588Y-140513413D01*
X76025614Y-140298485D01*
X76071000Y-140070318D01*
X76071000Y-139837682D01*
X76025614Y-139609515D01*
X75936588Y-139394587D01*
X75807342Y-139201157D01*
X75642843Y-139036658D01*
X75449413Y-138907412D01*
X75234485Y-138818386D01*
X75006318Y-138773000D01*
X74773682Y-138773000D01*
X74545515Y-138818386D01*
X74330587Y-138907412D01*
X74137157Y-139036658D01*
X73972658Y-139201157D01*
X73843412Y-139394587D01*
X73754386Y-139609515D01*
X73709000Y-139837682D01*
X72217500Y-139837682D01*
X72217500Y-138354722D01*
X73274540Y-137297682D01*
X73709000Y-137297682D01*
X73709000Y-137530318D01*
X73754386Y-137758485D01*
X73843412Y-137973413D01*
X73972658Y-138166843D01*
X74137157Y-138331342D01*
X74330587Y-138460588D01*
X74545515Y-138549614D01*
X74773682Y-138595000D01*
X75006318Y-138595000D01*
X75220228Y-138552450D01*
X76517500Y-139849723D01*
X76517501Y-142338916D01*
X76514735Y-142367000D01*
X76525769Y-142479033D01*
X76558448Y-142586761D01*
X76571040Y-142610318D01*
X76611517Y-142686045D01*
X76682934Y-142773067D01*
X76704744Y-142790966D01*
X78951034Y-145037257D01*
X78968933Y-145059067D01*
X79055955Y-145130484D01*
X79155238Y-145183552D01*
X79262966Y-145216231D01*
X79346926Y-145224500D01*
X79346927Y-145224500D01*
X79374999Y-145227265D01*
X79403071Y-145224500D01*
X92884420Y-145224500D01*
X93106077Y-145446157D01*
X93071500Y-145446157D01*
X92950477Y-145458077D01*
X92834105Y-145493378D01*
X92726856Y-145550704D01*
X92632851Y-145627851D01*
X92555704Y-145721856D01*
X92498378Y-145829105D01*
X92463077Y-145945477D01*
X92451157Y-146066500D01*
X92451157Y-146541500D01*
X92463077Y-146662523D01*
X92498378Y-146778895D01*
X92555704Y-146886144D01*
X92632851Y-146980149D01*
X92726856Y-147057296D01*
X92787500Y-147089711D01*
X92787501Y-147538289D01*
X92726856Y-147570704D01*
X92632851Y-147647851D01*
X92555704Y-147741856D01*
X92498378Y-147849105D01*
X92463077Y-147965477D01*
X92451157Y-148086500D01*
X92451157Y-148561500D01*
X92463077Y-148682523D01*
X92498378Y-148798895D01*
X92555704Y-148906144D01*
X92632851Y-149000149D01*
X92726856Y-149077296D01*
X92834105Y-149134622D01*
X92950477Y-149169923D01*
X93071500Y-149181843D01*
X93646500Y-149181843D01*
X93767523Y-149169923D01*
X93883895Y-149134622D01*
X93991144Y-149077296D01*
X94006151Y-149064980D01*
X94053463Y-149153494D01*
X94132815Y-149250185D01*
X94229506Y-149329537D01*
X94339820Y-149388502D01*
X94459518Y-149424812D01*
X94584000Y-149437072D01*
X94823250Y-149434000D01*
X94982000Y-149275250D01*
X94982000Y-148451000D01*
X95236000Y-148451000D01*
X95236000Y-149275250D01*
X95394750Y-149434000D01*
X95634000Y-149437072D01*
X95758482Y-149424812D01*
X95878180Y-149388502D01*
X95988494Y-149329537D01*
X96085185Y-149250185D01*
X96164537Y-149153494D01*
X96223502Y-149043180D01*
X96259812Y-148923482D01*
X96272072Y-148799000D01*
X96269000Y-148609750D01*
X96110250Y-148451000D01*
X95236000Y-148451000D01*
X94982000Y-148451000D01*
X94962000Y-148451000D01*
X94962000Y-148380928D01*
X98798677Y-148380928D01*
X99104859Y-148824503D01*
X99692306Y-149139954D01*
X100330008Y-149334740D01*
X100993457Y-149401372D01*
X101657158Y-149337292D01*
X102295605Y-149144962D01*
X102884262Y-148831772D01*
X102895141Y-148824503D01*
X103201323Y-148380928D01*
X101000000Y-146179605D01*
X98798677Y-148380928D01*
X94962000Y-148380928D01*
X94962000Y-148197000D01*
X94982000Y-148197000D01*
X94982000Y-147372750D01*
X95236000Y-147372750D01*
X95236000Y-148197000D01*
X96110250Y-148197000D01*
X96269000Y-148038250D01*
X96272072Y-147849000D01*
X96259812Y-147724518D01*
X96223502Y-147604820D01*
X96164537Y-147494506D01*
X96085185Y-147397815D01*
X95988494Y-147318463D01*
X95878180Y-147259498D01*
X95758482Y-147223188D01*
X95634000Y-147210928D01*
X95394750Y-147214000D01*
X95236000Y-147372750D01*
X94982000Y-147372750D01*
X94823250Y-147214000D01*
X94584000Y-147210928D01*
X94459518Y-147223188D01*
X94339820Y-147259498D01*
X94229506Y-147318463D01*
X94132815Y-147397815D01*
X94053463Y-147494506D01*
X94006151Y-147583020D01*
X93991144Y-147570704D01*
X93930500Y-147538289D01*
X93930500Y-147089711D01*
X93991144Y-147057296D01*
X94085149Y-146980149D01*
X94162296Y-146886144D01*
X94219622Y-146778895D01*
X94234000Y-146731497D01*
X94248378Y-146778895D01*
X94305704Y-146886144D01*
X94382851Y-146980149D01*
X94476856Y-147057296D01*
X94584105Y-147114622D01*
X94700477Y-147149923D01*
X94821500Y-147161843D01*
X95396500Y-147161843D01*
X95517523Y-147149923D01*
X95633895Y-147114622D01*
X95741144Y-147057296D01*
X95835149Y-146980149D01*
X95912296Y-146886144D01*
X95969622Y-146778895D01*
X96004923Y-146662523D01*
X96016843Y-146541500D01*
X96016843Y-146066500D01*
X96009649Y-145993457D01*
X97598628Y-145993457D01*
X97662708Y-146657158D01*
X97855038Y-147295605D01*
X98168228Y-147884262D01*
X98175497Y-147895141D01*
X98619072Y-148201323D01*
X100820395Y-146000000D01*
X101179605Y-146000000D01*
X103380928Y-148201323D01*
X103824503Y-147895141D01*
X104139954Y-147307694D01*
X104334740Y-146669992D01*
X104401372Y-146006543D01*
X104337292Y-145342842D01*
X104144962Y-144704395D01*
X103831772Y-144115738D01*
X103824503Y-144104859D01*
X103380928Y-143798677D01*
X101179605Y-146000000D01*
X100820395Y-146000000D01*
X98619072Y-143798677D01*
X98175497Y-144104859D01*
X97860046Y-144692306D01*
X97665260Y-145330008D01*
X97598628Y-145993457D01*
X96009649Y-145993457D01*
X96004923Y-145945477D01*
X95969622Y-145829105D01*
X95912296Y-145721856D01*
X95835149Y-145627851D01*
X95741144Y-145550704D01*
X95633895Y-145493378D01*
X95517523Y-145458077D01*
X95396500Y-145446157D01*
X94821500Y-145446157D01*
X94731396Y-145455032D01*
X93545112Y-144268748D01*
X93527209Y-144246933D01*
X93440187Y-144175516D01*
X93340904Y-144122448D01*
X93233176Y-144089769D01*
X93149216Y-144081500D01*
X93121142Y-144078735D01*
X93093068Y-144081500D01*
X79611723Y-144081500D01*
X77907905Y-142377682D01*
X88949000Y-142377682D01*
X88949000Y-142610318D01*
X88994386Y-142838485D01*
X89083412Y-143053413D01*
X89212658Y-143246843D01*
X89377157Y-143411342D01*
X89570587Y-143540588D01*
X89785515Y-143629614D01*
X90013682Y-143675000D01*
X90246318Y-143675000D01*
X90474485Y-143629614D01*
X90499935Y-143619072D01*
X98798677Y-143619072D01*
X101000000Y-145820395D01*
X103201323Y-143619072D01*
X102895141Y-143175497D01*
X102307694Y-142860046D01*
X101669992Y-142665260D01*
X101006543Y-142598628D01*
X100342842Y-142662708D01*
X99704395Y-142855038D01*
X99115738Y-143168228D01*
X99104859Y-143175497D01*
X98798677Y-143619072D01*
X90499935Y-143619072D01*
X90689413Y-143540588D01*
X90882843Y-143411342D01*
X91047342Y-143246843D01*
X91176588Y-143053413D01*
X91265614Y-142838485D01*
X91311000Y-142610318D01*
X91311000Y-142377682D01*
X91265614Y-142149515D01*
X91176588Y-141934587D01*
X91047342Y-141741157D01*
X90882843Y-141576658D01*
X90689413Y-141447412D01*
X90474485Y-141358386D01*
X90246318Y-141313000D01*
X90013682Y-141313000D01*
X89785515Y-141358386D01*
X89570587Y-141447412D01*
X89377157Y-141576658D01*
X89212658Y-141741157D01*
X89083412Y-141934587D01*
X88994386Y-142149515D01*
X88949000Y-142377682D01*
X77907905Y-142377682D01*
X77660500Y-142130278D01*
X77660500Y-139837682D01*
X88949000Y-139837682D01*
X88949000Y-140070318D01*
X88994386Y-140298485D01*
X89083412Y-140513413D01*
X89212658Y-140706843D01*
X89377157Y-140871342D01*
X89570587Y-141000588D01*
X89785515Y-141089614D01*
X90013682Y-141135000D01*
X90246318Y-141135000D01*
X90474485Y-141089614D01*
X90689413Y-141000588D01*
X90882843Y-140871342D01*
X91047342Y-140706843D01*
X91176588Y-140513413D01*
X91265614Y-140298485D01*
X91311000Y-140070318D01*
X91311000Y-139837682D01*
X91265614Y-139609515D01*
X91176588Y-139394587D01*
X91047342Y-139201157D01*
X90882843Y-139036658D01*
X90689413Y-138907412D01*
X90474485Y-138818386D01*
X90351891Y-138794000D01*
X93345528Y-138794000D01*
X93367365Y-139015715D01*
X93432037Y-139228909D01*
X93537058Y-139425390D01*
X93678393Y-139597607D01*
X93850610Y-139738942D01*
X94047091Y-139843963D01*
X94260285Y-139908635D01*
X94426442Y-139925000D01*
X95057558Y-139925000D01*
X95223715Y-139908635D01*
X95436909Y-139843963D01*
X95633390Y-139738942D01*
X95805607Y-139597607D01*
X95946942Y-139425390D01*
X96051963Y-139228909D01*
X96116635Y-139015715D01*
X96138472Y-138794000D01*
X96116635Y-138572285D01*
X96051963Y-138359091D01*
X95946942Y-138162610D01*
X95805607Y-137990393D01*
X95633390Y-137849058D01*
X95436909Y-137744037D01*
X95223715Y-137679365D01*
X95057558Y-137663000D01*
X94426442Y-137663000D01*
X94260285Y-137679365D01*
X94047091Y-137744037D01*
X93850610Y-137849058D01*
X93678393Y-137990393D01*
X93537058Y-138162610D01*
X93432037Y-138359091D01*
X93367365Y-138572285D01*
X93345528Y-138794000D01*
X90351891Y-138794000D01*
X90246318Y-138773000D01*
X90013682Y-138773000D01*
X89785515Y-138818386D01*
X89570587Y-138907412D01*
X89377157Y-139036658D01*
X89212658Y-139201157D01*
X89083412Y-139394587D01*
X88994386Y-139609515D01*
X88949000Y-139837682D01*
X77660500Y-139837682D01*
X77660500Y-139641074D01*
X77663265Y-139613000D01*
X77652231Y-139500966D01*
X77619552Y-139393238D01*
X77566484Y-139293955D01*
X77495067Y-139206933D01*
X77473258Y-139189035D01*
X76028450Y-137744228D01*
X76071000Y-137530318D01*
X76071000Y-137297682D01*
X88949000Y-137297682D01*
X88949000Y-137530318D01*
X88994386Y-137758485D01*
X89083412Y-137973413D01*
X89212658Y-138166843D01*
X89377157Y-138331342D01*
X89570587Y-138460588D01*
X89785515Y-138549614D01*
X90013682Y-138595000D01*
X90246318Y-138595000D01*
X90474485Y-138549614D01*
X90689413Y-138460588D01*
X90882843Y-138331342D01*
X91047342Y-138166843D01*
X91176588Y-137973413D01*
X91265614Y-137758485D01*
X91311000Y-137530318D01*
X91311000Y-137297682D01*
X91265614Y-137069515D01*
X91176588Y-136854587D01*
X91047342Y-136661157D01*
X90882843Y-136496658D01*
X90689413Y-136367412D01*
X90474485Y-136278386D01*
X90246318Y-136233000D01*
X90013682Y-136233000D01*
X89785515Y-136278386D01*
X89570587Y-136367412D01*
X89377157Y-136496658D01*
X89212658Y-136661157D01*
X89083412Y-136854587D01*
X88994386Y-137069515D01*
X88949000Y-137297682D01*
X76071000Y-137297682D01*
X76025614Y-137069515D01*
X75936588Y-136854587D01*
X75807342Y-136661157D01*
X75642843Y-136496658D01*
X75449413Y-136367412D01*
X75234485Y-136278386D01*
X75006318Y-136233000D01*
X74773682Y-136233000D01*
X74545515Y-136278386D01*
X74330587Y-136367412D01*
X74137157Y-136496658D01*
X73972658Y-136661157D01*
X73843412Y-136854587D01*
X73754386Y-137069515D01*
X73709000Y-137297682D01*
X73274540Y-137297682D01*
X74559773Y-136012450D01*
X74773682Y-136055000D01*
X75006318Y-136055000D01*
X75234485Y-136009614D01*
X75449413Y-135920588D01*
X75642843Y-135791342D01*
X75807342Y-135626843D01*
X75936588Y-135433413D01*
X76025614Y-135218485D01*
X76071000Y-134990318D01*
X76071000Y-134757682D01*
X76025614Y-134529515D01*
X75936588Y-134314587D01*
X75886082Y-134239000D01*
X89133918Y-134239000D01*
X89083412Y-134314587D01*
X88994386Y-134529515D01*
X88949000Y-134757682D01*
X88949000Y-134990318D01*
X88994386Y-135218485D01*
X89083412Y-135433413D01*
X89212658Y-135626843D01*
X89377157Y-135791342D01*
X89570587Y-135920588D01*
X89785515Y-136009614D01*
X90013682Y-136055000D01*
X90246318Y-136055000D01*
X90474485Y-136009614D01*
X90689413Y-135920588D01*
X90878865Y-135794000D01*
X93345528Y-135794000D01*
X93367365Y-136015715D01*
X93432037Y-136228909D01*
X93537058Y-136425390D01*
X93678393Y-136597607D01*
X93850610Y-136738942D01*
X94047091Y-136843963D01*
X94260285Y-136908635D01*
X94426442Y-136925000D01*
X95057558Y-136925000D01*
X95223715Y-136908635D01*
X95436909Y-136843963D01*
X95633390Y-136738942D01*
X95805607Y-136597607D01*
X95919573Y-136458738D01*
X97181000Y-136458738D01*
X97181000Y-136829262D01*
X97253286Y-137192667D01*
X97395080Y-137534987D01*
X97600932Y-137843067D01*
X97862933Y-138105068D01*
X98171013Y-138310920D01*
X98513333Y-138452714D01*
X98876738Y-138525000D01*
X99247262Y-138525000D01*
X99610667Y-138452714D01*
X99952987Y-138310920D01*
X100261067Y-138105068D01*
X100523068Y-137843067D01*
X100728920Y-137534987D01*
X100870714Y-137192667D01*
X100943000Y-136829262D01*
X100943000Y-136458738D01*
X100870714Y-136095333D01*
X100728920Y-135753013D01*
X100523068Y-135444933D01*
X100261067Y-135182932D01*
X99952987Y-134977080D01*
X99610667Y-134835286D01*
X99247262Y-134763000D01*
X98876738Y-134763000D01*
X98513333Y-134835286D01*
X98171013Y-134977080D01*
X97862933Y-135182932D01*
X97600932Y-135444933D01*
X97395080Y-135753013D01*
X97253286Y-136095333D01*
X97181000Y-136458738D01*
X95919573Y-136458738D01*
X95946942Y-136425390D01*
X96051963Y-136228909D01*
X96116635Y-136015715D01*
X96138472Y-135794000D01*
X96116635Y-135572285D01*
X96051963Y-135359091D01*
X95946942Y-135162610D01*
X95805607Y-134990393D01*
X95633390Y-134849058D01*
X95436909Y-134744037D01*
X95223715Y-134679365D01*
X95057558Y-134663000D01*
X94426442Y-134663000D01*
X94260285Y-134679365D01*
X94047091Y-134744037D01*
X93850610Y-134849058D01*
X93678393Y-134990393D01*
X93537058Y-135162610D01*
X93432037Y-135359091D01*
X93367365Y-135572285D01*
X93345528Y-135794000D01*
X90878865Y-135794000D01*
X90882843Y-135791342D01*
X91047342Y-135626843D01*
X91176588Y-135433413D01*
X91265614Y-135218485D01*
X91311000Y-134990318D01*
X91311000Y-134757682D01*
X91265614Y-134529515D01*
X91176588Y-134314587D01*
X91126082Y-134239000D01*
X92382819Y-134239000D01*
X92414000Y-134242071D01*
X92445181Y-134239000D01*
X92445192Y-134239000D01*
X92538482Y-134229812D01*
X92658180Y-134193502D01*
X92768494Y-134134537D01*
X92865185Y-134055185D01*
X92885074Y-134030950D01*
X93487025Y-133429000D01*
X93540021Y-133429000D01*
X93678393Y-133597607D01*
X93850610Y-133738942D01*
X94047091Y-133843963D01*
X94260285Y-133908635D01*
X94426442Y-133925000D01*
X95057558Y-133925000D01*
X95223715Y-133908635D01*
X95436909Y-133843963D01*
X95633390Y-133738942D01*
X95805607Y-133597607D01*
X95946942Y-133425390D01*
X96051963Y-133228909D01*
X96116635Y-133015715D01*
X96138472Y-132794000D01*
X96116635Y-132572285D01*
X96096922Y-132507300D01*
X97284679Y-131319543D01*
X97253286Y-131395333D01*
X97181000Y-131758738D01*
X97181000Y-132129262D01*
X97253286Y-132492667D01*
X97395080Y-132834987D01*
X97600932Y-133143067D01*
X97862933Y-133405068D01*
X98171013Y-133610920D01*
X98513333Y-133752714D01*
X98876738Y-133825000D01*
X99247262Y-133825000D01*
X99610667Y-133752714D01*
X99952987Y-133610920D01*
X100261067Y-133405068D01*
X100523068Y-133143067D01*
X100728920Y-132834987D01*
X100870714Y-132492667D01*
X100943000Y-132129262D01*
X100943000Y-131758738D01*
X100870714Y-131395333D01*
X100728920Y-131053013D01*
X100523068Y-130744933D01*
X100261067Y-130482932D01*
X99952987Y-130277080D01*
X99610667Y-130135286D01*
X99247262Y-130063000D01*
X98876738Y-130063000D01*
X98513333Y-130135286D01*
X98437543Y-130166679D01*
X103762258Y-124841965D01*
X103784067Y-124824067D01*
X103855484Y-124737045D01*
X103908552Y-124637762D01*
X103941231Y-124530034D01*
X103949500Y-124446074D01*
X103949500Y-124446073D01*
X103952265Y-124418000D01*
X103949500Y-124389926D01*
X103949500Y-123603985D01*
X103960144Y-123598296D01*
X104054149Y-123521149D01*
X104131296Y-123427144D01*
X104188622Y-123319895D01*
X104223923Y-123203523D01*
X104235843Y-123082500D01*
X104235843Y-122507500D01*
X104223923Y-122386477D01*
X104188622Y-122270105D01*
X104131296Y-122162856D01*
X104054149Y-122068851D01*
X103960144Y-121991704D01*
X103852895Y-121934378D01*
X103805497Y-121920000D01*
X103852895Y-121905622D01*
X103960144Y-121848296D01*
X104054149Y-121771149D01*
X104131296Y-121677144D01*
X104188622Y-121569895D01*
X104223923Y-121453523D01*
X104235843Y-121332500D01*
X104235843Y-120757500D01*
X104223923Y-120636477D01*
X104188622Y-120520105D01*
X104131296Y-120412856D01*
X104054149Y-120318851D01*
X103960144Y-120241704D01*
X103852895Y-120184378D01*
X103736523Y-120149077D01*
X103615500Y-120137157D01*
X103140500Y-120137157D01*
X103019477Y-120149077D01*
X102903105Y-120184378D01*
X102795856Y-120241704D01*
X102701851Y-120318851D01*
X102677519Y-120348500D01*
X101345287Y-120348500D01*
X101337701Y-120323492D01*
X101302322Y-120257304D01*
X101254711Y-120199289D01*
X101196696Y-120151678D01*
X101155500Y-120129658D01*
X101155500Y-119154071D01*
X101158265Y-119125999D01*
X101153201Y-119074587D01*
X101147231Y-119013966D01*
X101114552Y-118906238D01*
X101061484Y-118806955D01*
X100990067Y-118719933D01*
X100968258Y-118702035D01*
X97742999Y-115476777D01*
X97742999Y-114885134D01*
X97862933Y-115005068D01*
X98171013Y-115210920D01*
X98513333Y-115352714D01*
X98876738Y-115425000D01*
X99247262Y-115425000D01*
X99610667Y-115352714D01*
X99952987Y-115210920D01*
X100261067Y-115005068D01*
X100523068Y-114743067D01*
X100728920Y-114434987D01*
X100870714Y-114092667D01*
X100943000Y-113729262D01*
X100943000Y-113358738D01*
X100870714Y-112995333D01*
X100728920Y-112653013D01*
X100523068Y-112344933D01*
X100261067Y-112082932D01*
X99952987Y-111877080D01*
X99610667Y-111735286D01*
X99247262Y-111663000D01*
X98876738Y-111663000D01*
X98513333Y-111735286D01*
X98171013Y-111877080D01*
X97862933Y-112082932D01*
X97714172Y-112231693D01*
X97702051Y-112191737D01*
X97648983Y-112092454D01*
X97577566Y-112005432D01*
X97555757Y-111987534D01*
X96435970Y-110867748D01*
X96418067Y-110845933D01*
X96331045Y-110774516D01*
X96231762Y-110721448D01*
X96124034Y-110688769D01*
X96040074Y-110680500D01*
X96012000Y-110677735D01*
X95983926Y-110680500D01*
X95555640Y-110680500D01*
X95633390Y-110638942D01*
X95805607Y-110497607D01*
X95946942Y-110325390D01*
X96051963Y-110128909D01*
X96116635Y-109915715D01*
X96138472Y-109694000D01*
X96116635Y-109472285D01*
X96051963Y-109259091D01*
X95946942Y-109062610D01*
X95805607Y-108890393D01*
X95633390Y-108749058D01*
X95464413Y-108658738D01*
X97181000Y-108658738D01*
X97181000Y-109029262D01*
X97253286Y-109392667D01*
X97395080Y-109734987D01*
X97600932Y-110043067D01*
X97862933Y-110305068D01*
X98171013Y-110510920D01*
X98513333Y-110652714D01*
X98876738Y-110725000D01*
X99247262Y-110725000D01*
X99610667Y-110652714D01*
X99952987Y-110510920D01*
X100261067Y-110305068D01*
X100523068Y-110043067D01*
X100728920Y-109734987D01*
X100870714Y-109392667D01*
X100943000Y-109029262D01*
X100943000Y-108658738D01*
X100870714Y-108295333D01*
X100728920Y-107953013D01*
X100523068Y-107644933D01*
X100261067Y-107382932D01*
X99952987Y-107177080D01*
X99610667Y-107035286D01*
X99247262Y-106963000D01*
X98876738Y-106963000D01*
X98513333Y-107035286D01*
X98171013Y-107177080D01*
X97862933Y-107382932D01*
X97600932Y-107644933D01*
X97395080Y-107953013D01*
X97253286Y-108295333D01*
X97181000Y-108658738D01*
X95464413Y-108658738D01*
X95436909Y-108644037D01*
X95223715Y-108579365D01*
X95057558Y-108563000D01*
X94426442Y-108563000D01*
X94260285Y-108579365D01*
X94047091Y-108644037D01*
X93850610Y-108749058D01*
X93678393Y-108890393D01*
X93537058Y-109062610D01*
X93432037Y-109259091D01*
X93367365Y-109472285D01*
X93345528Y-109694000D01*
X93367365Y-109915715D01*
X93432037Y-110128909D01*
X93537058Y-110325390D01*
X93678393Y-110497607D01*
X93850610Y-110638942D01*
X93928360Y-110680500D01*
X93754074Y-110680500D01*
X93726000Y-110677735D01*
X93697926Y-110680500D01*
X93613966Y-110688769D01*
X93506238Y-110721448D01*
X93406955Y-110774516D01*
X93319933Y-110845933D01*
X93302039Y-110867738D01*
X91563744Y-112606034D01*
X91541934Y-112623933D01*
X91518069Y-112653013D01*
X91470516Y-112710956D01*
X91417448Y-112810239D01*
X91384769Y-112917967D01*
X91373735Y-113030000D01*
X91376501Y-113058084D01*
X91376500Y-120119277D01*
X90460228Y-121035550D01*
X90246318Y-120993000D01*
X90013682Y-120993000D01*
X89785515Y-121038386D01*
X89570587Y-121127412D01*
X89377157Y-121256658D01*
X89212658Y-121421157D01*
X89083412Y-121614587D01*
X88994386Y-121829515D01*
X88949000Y-122057682D01*
X88949000Y-122290318D01*
X88994386Y-122518485D01*
X89083412Y-122733413D01*
X89212658Y-122926843D01*
X89377157Y-123091342D01*
X89570587Y-123220588D01*
X89785515Y-123309614D01*
X89901160Y-123332618D01*
X89745748Y-123488030D01*
X89723933Y-123505933D01*
X89664473Y-123578386D01*
X89652516Y-123592956D01*
X89624699Y-123644998D01*
X89570587Y-123667412D01*
X89377157Y-123796658D01*
X89212658Y-123961157D01*
X89083412Y-124154587D01*
X88994386Y-124369515D01*
X88949000Y-124597682D01*
X88949000Y-124830318D01*
X88994386Y-125058485D01*
X89083412Y-125273413D01*
X89212658Y-125466843D01*
X89377157Y-125631342D01*
X89570587Y-125760588D01*
X89785515Y-125849614D01*
X90013682Y-125895000D01*
X90246318Y-125895000D01*
X90474485Y-125849614D01*
X90689413Y-125760588D01*
X90882843Y-125631342D01*
X91047342Y-125466843D01*
X91176588Y-125273413D01*
X91265614Y-125058485D01*
X91311000Y-124830318D01*
X91311000Y-124597682D01*
X91265614Y-124369515D01*
X91176588Y-124154587D01*
X91047342Y-123961157D01*
X90968204Y-123882019D01*
X92962889Y-121887333D01*
X92997105Y-121905622D01*
X93044503Y-121920000D01*
X92997105Y-121934378D01*
X92889856Y-121991704D01*
X92795851Y-122068851D01*
X92718704Y-122162856D01*
X92661378Y-122270105D01*
X92626077Y-122386477D01*
X92614157Y-122507500D01*
X92614157Y-123082500D01*
X92626077Y-123203523D01*
X92661378Y-123319895D01*
X92718704Y-123427144D01*
X92795851Y-123521149D01*
X92889856Y-123598296D01*
X92900501Y-123603986D01*
X92900500Y-126330106D01*
X92897735Y-126358180D01*
X92900500Y-126386253D01*
X92908769Y-126470213D01*
X92941448Y-126577941D01*
X92994516Y-126677224D01*
X93065933Y-126764247D01*
X93087748Y-126782150D01*
X94714598Y-128409000D01*
X94614998Y-128409000D01*
X94614998Y-128567748D01*
X94456250Y-128409000D01*
X93732000Y-128405928D01*
X93607518Y-128418188D01*
X93487820Y-128454498D01*
X93377506Y-128513463D01*
X93280815Y-128592815D01*
X93201463Y-128689506D01*
X93142498Y-128799820D01*
X93106188Y-128919518D01*
X93093928Y-129044000D01*
X93097000Y-129508250D01*
X93255750Y-129667000D01*
X94615000Y-129667000D01*
X94615000Y-129647000D01*
X94869000Y-129647000D01*
X94869000Y-129667000D01*
X94889000Y-129667000D01*
X94889000Y-129921000D01*
X94869000Y-129921000D01*
X94869000Y-129941000D01*
X94615000Y-129941000D01*
X94615000Y-129921000D01*
X93255750Y-129921000D01*
X93097000Y-130079750D01*
X93094529Y-130453207D01*
X93011191Y-130444999D01*
X93011180Y-130444999D01*
X92979999Y-130441928D01*
X92948818Y-130444999D01*
X91115392Y-130444999D01*
X91176588Y-130353413D01*
X91265614Y-130138485D01*
X91311000Y-129910318D01*
X91311000Y-129677682D01*
X91265614Y-129449515D01*
X91176588Y-129234587D01*
X91047342Y-129041157D01*
X90882843Y-128876658D01*
X90689413Y-128747412D01*
X90474485Y-128658386D01*
X90246318Y-128613000D01*
X90013682Y-128613000D01*
X89785515Y-128658386D01*
X89570587Y-128747412D01*
X89377157Y-128876658D01*
X89212658Y-129041157D01*
X89083412Y-129234587D01*
X88994386Y-129449515D01*
X88966717Y-129588614D01*
X88265000Y-128886898D01*
X88265000Y-127137682D01*
X88949000Y-127137682D01*
X88949000Y-127370318D01*
X88994386Y-127598485D01*
X89083412Y-127813413D01*
X89212658Y-128006843D01*
X89377157Y-128171342D01*
X89570587Y-128300588D01*
X89785515Y-128389614D01*
X90013682Y-128435000D01*
X90246318Y-128435000D01*
X90474485Y-128389614D01*
X90689413Y-128300588D01*
X90882843Y-128171342D01*
X91047342Y-128006843D01*
X91176588Y-127813413D01*
X91265614Y-127598485D01*
X91311000Y-127370318D01*
X91311000Y-127137682D01*
X91265614Y-126909515D01*
X91176588Y-126694587D01*
X91047342Y-126501157D01*
X90882843Y-126336658D01*
X90689413Y-126207412D01*
X90474485Y-126118386D01*
X90246318Y-126073000D01*
X90013682Y-126073000D01*
X89785515Y-126118386D01*
X89570587Y-126207412D01*
X89377157Y-126336658D01*
X89212658Y-126501157D01*
X89083412Y-126694587D01*
X88994386Y-126909515D01*
X88949000Y-127137682D01*
X88265000Y-127137682D01*
X88265000Y-119517682D01*
X88949000Y-119517682D01*
X88949000Y-119750318D01*
X88994386Y-119978485D01*
X89083412Y-120193413D01*
X89212658Y-120386843D01*
X89377157Y-120551342D01*
X89570587Y-120680588D01*
X89785515Y-120769614D01*
X90013682Y-120815000D01*
X90246318Y-120815000D01*
X90474485Y-120769614D01*
X90689413Y-120680588D01*
X90882843Y-120551342D01*
X91047342Y-120386843D01*
X91176588Y-120193413D01*
X91265614Y-119978485D01*
X91311000Y-119750318D01*
X91311000Y-119517682D01*
X91265614Y-119289515D01*
X91176588Y-119074587D01*
X91047342Y-118881157D01*
X90882843Y-118716658D01*
X90689413Y-118587412D01*
X90474485Y-118498386D01*
X90246318Y-118453000D01*
X90013682Y-118453000D01*
X89785515Y-118498386D01*
X89570587Y-118587412D01*
X89377157Y-118716658D01*
X89212658Y-118881157D01*
X89083412Y-119074587D01*
X88994386Y-119289515D01*
X88949000Y-119517682D01*
X88265000Y-119517682D01*
X88265000Y-117357024D01*
X89080565Y-116541460D01*
X88994386Y-116749515D01*
X88949000Y-116977682D01*
X88949000Y-117210318D01*
X88994386Y-117438485D01*
X89083412Y-117653413D01*
X89212658Y-117846843D01*
X89377157Y-118011342D01*
X89570587Y-118140588D01*
X89785515Y-118229614D01*
X90013682Y-118275000D01*
X90246318Y-118275000D01*
X90474485Y-118229614D01*
X90689413Y-118140588D01*
X90882843Y-118011342D01*
X91047342Y-117846843D01*
X91176588Y-117653413D01*
X91265614Y-117438485D01*
X91311000Y-117210318D01*
X91311000Y-116977682D01*
X91265614Y-116749515D01*
X91176588Y-116534587D01*
X91047342Y-116341157D01*
X90882843Y-116176658D01*
X90689413Y-116047412D01*
X90474485Y-115958386D01*
X90246318Y-115913000D01*
X90013682Y-115913000D01*
X89785515Y-115958386D01*
X89577461Y-116044565D01*
X89756961Y-115865065D01*
X89781186Y-115845184D01*
X89801065Y-115820961D01*
X89801069Y-115820957D01*
X89860538Y-115748494D01*
X89881775Y-115708762D01*
X90013682Y-115735000D01*
X90246318Y-115735000D01*
X90474485Y-115689614D01*
X90689413Y-115600588D01*
X90882843Y-115471342D01*
X91047342Y-115306843D01*
X91176588Y-115113413D01*
X91265614Y-114898485D01*
X91311000Y-114670318D01*
X91311000Y-114437682D01*
X91265614Y-114209515D01*
X91176588Y-113994587D01*
X91047342Y-113801157D01*
X90882843Y-113636658D01*
X90689413Y-113507412D01*
X90474485Y-113418386D01*
X90246318Y-113373000D01*
X90013682Y-113373000D01*
X89785515Y-113418386D01*
X89570587Y-113507412D01*
X89377157Y-113636658D01*
X89212658Y-113801157D01*
X89083412Y-113994587D01*
X88994386Y-114209515D01*
X88949000Y-114437682D01*
X88949000Y-114670318D01*
X88976651Y-114809325D01*
X88903051Y-114882925D01*
X88878816Y-114902814D01*
X88799464Y-114999506D01*
X88768455Y-115057520D01*
X87203050Y-116622926D01*
X87178815Y-116642815D01*
X87099463Y-116739507D01*
X87040498Y-116849821D01*
X87004188Y-116969519D01*
X86995000Y-117062809D01*
X86995000Y-117062819D01*
X86991929Y-117094000D01*
X86995000Y-117125181D01*
X86995001Y-129118731D01*
X86991929Y-129149922D01*
X86995001Y-129181113D01*
X86995001Y-129181114D01*
X87000268Y-129234587D01*
X87004189Y-129274403D01*
X87040498Y-129394101D01*
X87099463Y-129504415D01*
X87099464Y-129504416D01*
X87178816Y-129601107D01*
X87203046Y-129620992D01*
X88602303Y-131020250D01*
X89089011Y-131506959D01*
X89108892Y-131531184D01*
X89133116Y-131551064D01*
X89133119Y-131551067D01*
X89197474Y-131603882D01*
X89083412Y-131774587D01*
X88994386Y-131989515D01*
X88949000Y-132217682D01*
X88949000Y-132450318D01*
X88994386Y-132678485D01*
X89083412Y-132893413D01*
X89133918Y-132969000D01*
X75886082Y-132969000D01*
X75936588Y-132893413D01*
X76025614Y-132678485D01*
X76071000Y-132450318D01*
X76071000Y-132217682D01*
X76025614Y-131989515D01*
X75936588Y-131774587D01*
X75807342Y-131581157D01*
X75642843Y-131416658D01*
X75449413Y-131287412D01*
X75234485Y-131198386D01*
X75006318Y-131153000D01*
X74773682Y-131153000D01*
X74545515Y-131198386D01*
X74330587Y-131287412D01*
X74137157Y-131416658D01*
X73972658Y-131581157D01*
X73843412Y-131774587D01*
X73754386Y-131989515D01*
X73709000Y-132217682D01*
X73709000Y-132450318D01*
X73754386Y-132678485D01*
X73843412Y-132893413D01*
X73959998Y-133067896D01*
X73949584Y-133073462D01*
X73877121Y-133132931D01*
X73877117Y-133132935D01*
X73852893Y-133152815D01*
X73833012Y-133177040D01*
X72263054Y-134747000D01*
X71305979Y-134747000D01*
X71167607Y-134578393D01*
X70995390Y-134437058D01*
X70798909Y-134332037D01*
X70585715Y-134267365D01*
X70419558Y-134251000D01*
X69788442Y-134251000D01*
X69622285Y-134267365D01*
X69409091Y-134332037D01*
X69212610Y-134437058D01*
X69040393Y-134578393D01*
X68899058Y-134750610D01*
X68794037Y-134947091D01*
X68729365Y-135160285D01*
X68707528Y-135382000D01*
X67665000Y-135382000D01*
X67665000Y-135196738D01*
X67592714Y-134833333D01*
X67450920Y-134491013D01*
X67245068Y-134182933D01*
X66983067Y-133920932D01*
X66674987Y-133715080D01*
X66332667Y-133573286D01*
X65969262Y-133501000D01*
X65598738Y-133501000D01*
X65235333Y-133573286D01*
X64893013Y-133715080D01*
X64584933Y-133920932D01*
X64322932Y-134182933D01*
X64117080Y-134491013D01*
X63975286Y-134833333D01*
X63903000Y-135196738D01*
X60406000Y-135196738D01*
X60406000Y-132382000D01*
X68707528Y-132382000D01*
X68729365Y-132603715D01*
X68794037Y-132816909D01*
X68899058Y-133013390D01*
X69040393Y-133185607D01*
X69212610Y-133326942D01*
X69409091Y-133431963D01*
X69622285Y-133496635D01*
X69788442Y-133513000D01*
X70419558Y-133513000D01*
X70585715Y-133496635D01*
X70798909Y-133431963D01*
X70995390Y-133326942D01*
X71167607Y-133185607D01*
X71308942Y-133013390D01*
X71413963Y-132816909D01*
X71478635Y-132603715D01*
X71500472Y-132382000D01*
X71478635Y-132160285D01*
X71413963Y-131947091D01*
X71308942Y-131750610D01*
X71167607Y-131578393D01*
X70995390Y-131437058D01*
X70798909Y-131332037D01*
X70675500Y-131294601D01*
X70675500Y-129736722D01*
X70734540Y-129677682D01*
X73709000Y-129677682D01*
X73709000Y-129910318D01*
X73754386Y-130138485D01*
X73843412Y-130353413D01*
X73972658Y-130546843D01*
X74137157Y-130711342D01*
X74330587Y-130840588D01*
X74545515Y-130929614D01*
X74773682Y-130975000D01*
X75006318Y-130975000D01*
X75234485Y-130929614D01*
X75449413Y-130840588D01*
X75642843Y-130711342D01*
X75807342Y-130546843D01*
X75936588Y-130353413D01*
X76025614Y-130138485D01*
X76071000Y-129910318D01*
X76071000Y-129677682D01*
X76025614Y-129449515D01*
X75936588Y-129234587D01*
X75807342Y-129041157D01*
X75642843Y-128876658D01*
X75449413Y-128747412D01*
X75234485Y-128658386D01*
X75006318Y-128613000D01*
X74773682Y-128613000D01*
X74545515Y-128658386D01*
X74330587Y-128747412D01*
X74137157Y-128876658D01*
X73972658Y-129041157D01*
X73843412Y-129234587D01*
X73754386Y-129449515D01*
X73709000Y-129677682D01*
X70734540Y-129677682D01*
X73274540Y-127137682D01*
X73709000Y-127137682D01*
X73709000Y-127370318D01*
X73754386Y-127598485D01*
X73843412Y-127813413D01*
X73972658Y-128006843D01*
X74137157Y-128171342D01*
X74330587Y-128300588D01*
X74545515Y-128389614D01*
X74773682Y-128435000D01*
X75006318Y-128435000D01*
X75234485Y-128389614D01*
X75449413Y-128300588D01*
X75642843Y-128171342D01*
X75807342Y-128006843D01*
X75936588Y-127813413D01*
X76025614Y-127598485D01*
X76071000Y-127370318D01*
X76071000Y-127137682D01*
X76025614Y-126909515D01*
X75936588Y-126694587D01*
X75807342Y-126501157D01*
X75642843Y-126336658D01*
X75449413Y-126207412D01*
X75234485Y-126118386D01*
X75006318Y-126073000D01*
X74773682Y-126073000D01*
X74545515Y-126118386D01*
X74330587Y-126207412D01*
X74137157Y-126336658D01*
X73972658Y-126501157D01*
X73843412Y-126694587D01*
X73754386Y-126909515D01*
X73709000Y-127137682D01*
X73274540Y-127137682D01*
X74559773Y-125852450D01*
X74773682Y-125895000D01*
X75006318Y-125895000D01*
X75234485Y-125849614D01*
X75449413Y-125760588D01*
X75642843Y-125631342D01*
X75807342Y-125466843D01*
X75936588Y-125273413D01*
X76025614Y-125058485D01*
X76071000Y-124830318D01*
X76071000Y-124597682D01*
X76025614Y-124369515D01*
X75936588Y-124154587D01*
X75807342Y-123961157D01*
X75642843Y-123796658D01*
X75449413Y-123667412D01*
X75234485Y-123578386D01*
X75006318Y-123533000D01*
X74773682Y-123533000D01*
X74545515Y-123578386D01*
X74330587Y-123667412D01*
X74137157Y-123796658D01*
X73972658Y-123961157D01*
X73843412Y-124154587D01*
X73754386Y-124369515D01*
X73709000Y-124597682D01*
X73709000Y-124830318D01*
X73751550Y-125044227D01*
X69719744Y-129076034D01*
X69697934Y-129093933D01*
X69651985Y-129149922D01*
X69626516Y-129180956D01*
X69573448Y-129280239D01*
X69540769Y-129387967D01*
X69529735Y-129500000D01*
X69532501Y-129528084D01*
X69532500Y-131294601D01*
X69409091Y-131332037D01*
X69212610Y-131437058D01*
X69040393Y-131578393D01*
X68899058Y-131750610D01*
X68794037Y-131947091D01*
X68729365Y-132160285D01*
X68707528Y-132382000D01*
X60406000Y-132382000D01*
X60406000Y-124788000D01*
X68455928Y-124788000D01*
X68468188Y-124912482D01*
X68504498Y-125032180D01*
X68563463Y-125142494D01*
X68642815Y-125239185D01*
X68739506Y-125318537D01*
X68849820Y-125377502D01*
X68969518Y-125413812D01*
X69094000Y-125426072D01*
X69818250Y-125423000D01*
X69977000Y-125264250D01*
X69977000Y-124165000D01*
X70231000Y-124165000D01*
X70231000Y-125264250D01*
X70389750Y-125423000D01*
X71114000Y-125426072D01*
X71238482Y-125413812D01*
X71358180Y-125377502D01*
X71468494Y-125318537D01*
X71565185Y-125239185D01*
X71644537Y-125142494D01*
X71703502Y-125032180D01*
X71739812Y-124912482D01*
X71752072Y-124788000D01*
X71749000Y-124323750D01*
X71590250Y-124165000D01*
X70231000Y-124165000D01*
X69977000Y-124165000D01*
X68617750Y-124165000D01*
X68459000Y-124323750D01*
X68455928Y-124788000D01*
X60406000Y-124788000D01*
X60406000Y-123288000D01*
X68455928Y-123288000D01*
X68459000Y-123752250D01*
X68617750Y-123911000D01*
X69977000Y-123911000D01*
X69977000Y-122811750D01*
X70231000Y-122811750D01*
X70231000Y-123911000D01*
X71590250Y-123911000D01*
X71749000Y-123752250D01*
X71752072Y-123288000D01*
X71739812Y-123163518D01*
X71703502Y-123043820D01*
X71644537Y-122933506D01*
X71565185Y-122836815D01*
X71468494Y-122757463D01*
X71358180Y-122698498D01*
X71238482Y-122662188D01*
X71114000Y-122649928D01*
X70389750Y-122653000D01*
X70231000Y-122811750D01*
X69977000Y-122811750D01*
X69818250Y-122653000D01*
X69094000Y-122649928D01*
X68969518Y-122662188D01*
X68849820Y-122698498D01*
X68739506Y-122757463D01*
X68642815Y-122836815D01*
X68563463Y-122933506D01*
X68504498Y-123043820D01*
X68468188Y-123163518D01*
X68455928Y-123288000D01*
X60406000Y-123288000D01*
X60406000Y-120852738D01*
X63903000Y-120852738D01*
X63903000Y-121223262D01*
X63975286Y-121586667D01*
X64117080Y-121928987D01*
X64322932Y-122237067D01*
X64584933Y-122499068D01*
X64893013Y-122704920D01*
X65235333Y-122846714D01*
X65598738Y-122919000D01*
X65969262Y-122919000D01*
X66332667Y-122846714D01*
X66674987Y-122704920D01*
X66983067Y-122499068D01*
X67245068Y-122237067D01*
X67450920Y-121928987D01*
X67592714Y-121586667D01*
X67665000Y-121223262D01*
X67665000Y-120852738D01*
X67592714Y-120489333D01*
X67450920Y-120147013D01*
X67245068Y-119838933D01*
X66983067Y-119576932D01*
X66674987Y-119371080D01*
X66332667Y-119229286D01*
X65969262Y-119157000D01*
X65598738Y-119157000D01*
X65235333Y-119229286D01*
X64893013Y-119371080D01*
X64584933Y-119576932D01*
X64322932Y-119838933D01*
X64117080Y-120147013D01*
X63975286Y-120489333D01*
X63903000Y-120852738D01*
X60406000Y-120852738D01*
X60406000Y-108008738D01*
X63903000Y-108008738D01*
X63903000Y-108379262D01*
X63975286Y-108742667D01*
X64117080Y-109084987D01*
X64322932Y-109393067D01*
X64584933Y-109655068D01*
X64893013Y-109860920D01*
X65235333Y-110002714D01*
X65598738Y-110075000D01*
X65969262Y-110075000D01*
X66332667Y-110002714D01*
X66674987Y-109860920D01*
X66983067Y-109655068D01*
X67242991Y-109395144D01*
X67242990Y-119403088D01*
X67238075Y-119452990D01*
X67247626Y-119549962D01*
X67257692Y-119652160D01*
X67315788Y-119843676D01*
X67410130Y-120020180D01*
X67537094Y-120174886D01*
X67575862Y-120206702D01*
X68773122Y-121403963D01*
X68794037Y-121472909D01*
X68899058Y-121669390D01*
X69040393Y-121841607D01*
X69212610Y-121982942D01*
X69409091Y-122087963D01*
X69622285Y-122152635D01*
X69788442Y-122169000D01*
X70419558Y-122169000D01*
X70585715Y-122152635D01*
X70798909Y-122087963D01*
X70995390Y-121982942D01*
X71167607Y-121841607D01*
X71308942Y-121669390D01*
X71413963Y-121472909D01*
X71478635Y-121259715D01*
X71500472Y-121038000D01*
X71478635Y-120816285D01*
X71413963Y-120603091D01*
X71308942Y-120406610D01*
X71167607Y-120234393D01*
X70995390Y-120093058D01*
X70798909Y-119988037D01*
X70585715Y-119923365D01*
X70419558Y-119907000D01*
X70149841Y-119907000D01*
X69274990Y-119032150D01*
X69274990Y-119016285D01*
X69409091Y-119087963D01*
X69622285Y-119152635D01*
X69788442Y-119169000D01*
X70419558Y-119169000D01*
X70585715Y-119152635D01*
X70798909Y-119087963D01*
X70927179Y-119019401D01*
X73751550Y-121843773D01*
X73709000Y-122057682D01*
X73709000Y-122290318D01*
X73754386Y-122518485D01*
X73843412Y-122733413D01*
X73972658Y-122926843D01*
X74137157Y-123091342D01*
X74330587Y-123220588D01*
X74545515Y-123309614D01*
X74773682Y-123355000D01*
X75006318Y-123355000D01*
X75234485Y-123309614D01*
X75449413Y-123220588D01*
X75642843Y-123091342D01*
X75807342Y-122926843D01*
X75936588Y-122733413D01*
X76025614Y-122518485D01*
X76071000Y-122290318D01*
X76071000Y-122057682D01*
X76025614Y-121829515D01*
X75936588Y-121614587D01*
X75807342Y-121421157D01*
X75642843Y-121256658D01*
X75449413Y-121127412D01*
X75234485Y-121038386D01*
X75006318Y-120993000D01*
X74773682Y-120993000D01*
X74559773Y-121035550D01*
X73041905Y-119517682D01*
X73709000Y-119517682D01*
X73709000Y-119750318D01*
X73754386Y-119978485D01*
X73843412Y-120193413D01*
X73972658Y-120386843D01*
X74137157Y-120551342D01*
X74330587Y-120680588D01*
X74545515Y-120769614D01*
X74773682Y-120815000D01*
X75006318Y-120815000D01*
X75234485Y-120769614D01*
X75449413Y-120680588D01*
X75642843Y-120551342D01*
X75807342Y-120386843D01*
X75936588Y-120193413D01*
X76025614Y-119978485D01*
X76071000Y-119750318D01*
X76071000Y-119517682D01*
X76025614Y-119289515D01*
X75936588Y-119074587D01*
X75807342Y-118881157D01*
X75642843Y-118716658D01*
X75449413Y-118587412D01*
X75234485Y-118498386D01*
X75006318Y-118453000D01*
X74773682Y-118453000D01*
X74545515Y-118498386D01*
X74330587Y-118587412D01*
X74137157Y-118716658D01*
X73972658Y-118881157D01*
X73843412Y-119074587D01*
X73754386Y-119289515D01*
X73709000Y-119517682D01*
X73041905Y-119517682D01*
X71493726Y-117969504D01*
X71478635Y-117816285D01*
X71413963Y-117603091D01*
X71308942Y-117406610D01*
X71167607Y-117234393D01*
X70995390Y-117093058D01*
X70798909Y-116988037D01*
X70585715Y-116923365D01*
X70419558Y-116907000D01*
X69788442Y-116907000D01*
X69622285Y-116923365D01*
X69409091Y-116988037D01*
X69274990Y-117059715D01*
X69274990Y-114903039D01*
X73498096Y-114903039D01*
X73538754Y-115037087D01*
X73658963Y-115291420D01*
X73826481Y-115517414D01*
X74034869Y-115706385D01*
X74276119Y-115851070D01*
X74540960Y-115945909D01*
X74762998Y-115824625D01*
X74762998Y-115915125D01*
X74545515Y-115958386D01*
X74330587Y-116047412D01*
X74137157Y-116176658D01*
X73972658Y-116341157D01*
X73843412Y-116534587D01*
X73754386Y-116749515D01*
X73709000Y-116977682D01*
X73709000Y-117210318D01*
X73754386Y-117438485D01*
X73843412Y-117653413D01*
X73972658Y-117846843D01*
X74137157Y-118011342D01*
X74330587Y-118140588D01*
X74545515Y-118229614D01*
X74773682Y-118275000D01*
X75006318Y-118275000D01*
X75234485Y-118229614D01*
X75449413Y-118140588D01*
X75642843Y-118011342D01*
X75807342Y-117846843D01*
X75936588Y-117653413D01*
X76025614Y-117438485D01*
X76071000Y-117210318D01*
X76071000Y-116977682D01*
X76025614Y-116749515D01*
X75936588Y-116534587D01*
X75807342Y-116341157D01*
X75642843Y-116176658D01*
X75449413Y-116047412D01*
X75234485Y-115958386D01*
X75017002Y-115915125D01*
X75017002Y-115824625D01*
X75239040Y-115945909D01*
X75503881Y-115851070D01*
X75745131Y-115706385D01*
X75953519Y-115517414D01*
X76121037Y-115291420D01*
X76241246Y-115037087D01*
X76281904Y-114903039D01*
X76159915Y-114681000D01*
X75017000Y-114681000D01*
X75017000Y-114701000D01*
X74763000Y-114701000D01*
X74763000Y-114681000D01*
X73620085Y-114681000D01*
X73498096Y-114903039D01*
X69274990Y-114903039D01*
X69274990Y-114204961D01*
X73498096Y-114204961D01*
X73620085Y-114427000D01*
X74763000Y-114427000D01*
X74763000Y-114407000D01*
X75017000Y-114407000D01*
X75017000Y-114427000D01*
X76159915Y-114427000D01*
X76281904Y-114204961D01*
X76241246Y-114070913D01*
X76121037Y-113816580D01*
X75953519Y-113590586D01*
X75745131Y-113401615D01*
X75503881Y-113256930D01*
X75239040Y-113162091D01*
X75017002Y-113283375D01*
X75017002Y-113192875D01*
X75234485Y-113149614D01*
X75449413Y-113060588D01*
X75642843Y-112931342D01*
X75807342Y-112766843D01*
X75936588Y-112573413D01*
X76025614Y-112358485D01*
X76071000Y-112130318D01*
X76071000Y-111897682D01*
X76025614Y-111669515D01*
X75936588Y-111454587D01*
X75807342Y-111261157D01*
X75642843Y-111096658D01*
X75449413Y-110967412D01*
X75234485Y-110878386D01*
X75006318Y-110833000D01*
X74773682Y-110833000D01*
X74545515Y-110878386D01*
X74330587Y-110967412D01*
X74137157Y-111096658D01*
X73972658Y-111261157D01*
X73843412Y-111454587D01*
X73754386Y-111669515D01*
X73709000Y-111897682D01*
X73709000Y-112130318D01*
X73754386Y-112358485D01*
X73843412Y-112573413D01*
X73972658Y-112766843D01*
X74137157Y-112931342D01*
X74330587Y-113060588D01*
X74545515Y-113149614D01*
X74762998Y-113192875D01*
X74762998Y-113283375D01*
X74540960Y-113162091D01*
X74276119Y-113256930D01*
X74034869Y-113401615D01*
X73826481Y-113590586D01*
X73658963Y-113816580D01*
X73538754Y-114070913D01*
X73498096Y-114204961D01*
X69274990Y-114204961D01*
X69274990Y-111081304D01*
X69818250Y-111079000D01*
X69977000Y-110920250D01*
X69977000Y-109821000D01*
X70231000Y-109821000D01*
X70231000Y-110920250D01*
X70389750Y-111079000D01*
X71114000Y-111082072D01*
X71238482Y-111069812D01*
X71358180Y-111033502D01*
X71468494Y-110974537D01*
X71565185Y-110895185D01*
X71644537Y-110798494D01*
X71703502Y-110688180D01*
X71739812Y-110568482D01*
X71752072Y-110444000D01*
X71749000Y-109979750D01*
X71590250Y-109821000D01*
X70231000Y-109821000D01*
X69977000Y-109821000D01*
X69957000Y-109821000D01*
X69957000Y-109567000D01*
X69977000Y-109567000D01*
X69977000Y-108467750D01*
X70231000Y-108467750D01*
X70231000Y-109567000D01*
X71590250Y-109567000D01*
X71749000Y-109408250D01*
X71749334Y-109357682D01*
X73709000Y-109357682D01*
X73709000Y-109590318D01*
X73754386Y-109818485D01*
X73843412Y-110033413D01*
X73972658Y-110226843D01*
X74137157Y-110391342D01*
X74330587Y-110520588D01*
X74545515Y-110609614D01*
X74773682Y-110655000D01*
X75006318Y-110655000D01*
X75234485Y-110609614D01*
X75449413Y-110520588D01*
X75642843Y-110391342D01*
X75807342Y-110226843D01*
X75936588Y-110033413D01*
X76023727Y-109823039D01*
X88738096Y-109823039D01*
X88778754Y-109957087D01*
X88898963Y-110211420D01*
X89066481Y-110437414D01*
X89274869Y-110626385D01*
X89516119Y-110771070D01*
X89780960Y-110865909D01*
X90002998Y-110744625D01*
X90002998Y-110835125D01*
X89785515Y-110878386D01*
X89570587Y-110967412D01*
X89377157Y-111096658D01*
X89212658Y-111261157D01*
X89083412Y-111454587D01*
X88994386Y-111669515D01*
X88949000Y-111897682D01*
X88949000Y-112130318D01*
X88994386Y-112358485D01*
X89083412Y-112573413D01*
X89212658Y-112766843D01*
X89377157Y-112931342D01*
X89570587Y-113060588D01*
X89785515Y-113149614D01*
X90013682Y-113195000D01*
X90246318Y-113195000D01*
X90474485Y-113149614D01*
X90689413Y-113060588D01*
X90882843Y-112931342D01*
X91047342Y-112766843D01*
X91176588Y-112573413D01*
X91265614Y-112358485D01*
X91311000Y-112130318D01*
X91311000Y-111897682D01*
X91265614Y-111669515D01*
X91176588Y-111454587D01*
X91047342Y-111261157D01*
X90882843Y-111096658D01*
X90689413Y-110967412D01*
X90474485Y-110878386D01*
X90257002Y-110835125D01*
X90257002Y-110744625D01*
X90479040Y-110865909D01*
X90743881Y-110771070D01*
X90985131Y-110626385D01*
X91193519Y-110437414D01*
X91361037Y-110211420D01*
X91481246Y-109957087D01*
X91521904Y-109823039D01*
X91399915Y-109601000D01*
X90257000Y-109601000D01*
X90257000Y-109621000D01*
X90003000Y-109621000D01*
X90003000Y-109601000D01*
X88860085Y-109601000D01*
X88738096Y-109823039D01*
X76023727Y-109823039D01*
X76025614Y-109818485D01*
X76071000Y-109590318D01*
X76071000Y-109357682D01*
X76025614Y-109129515D01*
X75936588Y-108914587D01*
X75807342Y-108721157D01*
X75642843Y-108556658D01*
X75449413Y-108427412D01*
X75234485Y-108338386D01*
X75006318Y-108293000D01*
X74773682Y-108293000D01*
X74545515Y-108338386D01*
X74330587Y-108427412D01*
X74137157Y-108556658D01*
X73972658Y-108721157D01*
X73843412Y-108914587D01*
X73754386Y-109129515D01*
X73709000Y-109357682D01*
X71749334Y-109357682D01*
X71752072Y-108944000D01*
X71739812Y-108819518D01*
X71703502Y-108699820D01*
X71644537Y-108589506D01*
X71565185Y-108492815D01*
X71468494Y-108413463D01*
X71358180Y-108354498D01*
X71238482Y-108318188D01*
X71114000Y-108305928D01*
X70389750Y-108309000D01*
X70231000Y-108467750D01*
X69977000Y-108467750D01*
X69872045Y-108362795D01*
X70409841Y-107825000D01*
X70419558Y-107825000D01*
X70585715Y-107808635D01*
X70798909Y-107743963D01*
X70995390Y-107638942D01*
X71167607Y-107497607D01*
X71308942Y-107325390D01*
X71413963Y-107128909D01*
X71434878Y-107059962D01*
X72179842Y-106314999D01*
X73707157Y-106314999D01*
X73707157Y-107734000D01*
X73714513Y-107808689D01*
X73736299Y-107880508D01*
X73771678Y-107946696D01*
X73819289Y-108004711D01*
X73877304Y-108052322D01*
X73943492Y-108087701D01*
X74015311Y-108109487D01*
X74090000Y-108116843D01*
X75690000Y-108116843D01*
X75764689Y-108109487D01*
X75836508Y-108087701D01*
X75902696Y-108052322D01*
X75960711Y-108004711D01*
X76008322Y-107946696D01*
X76043701Y-107880508D01*
X76065487Y-107808689D01*
X76072843Y-107734000D01*
X76072843Y-106314999D01*
X88074159Y-106314999D01*
X88646866Y-106887707D01*
X88646871Y-106887711D01*
X88983645Y-107224485D01*
X88994386Y-107278485D01*
X89083412Y-107493413D01*
X89212658Y-107686843D01*
X89377157Y-107851342D01*
X89570587Y-107980588D01*
X89785515Y-108069614D01*
X90002998Y-108112875D01*
X90002998Y-108203375D01*
X89780960Y-108082091D01*
X89516119Y-108176930D01*
X89274869Y-108321615D01*
X89066481Y-108510586D01*
X88898963Y-108736580D01*
X88778754Y-108990913D01*
X88738096Y-109124961D01*
X88860085Y-109347000D01*
X90003000Y-109347000D01*
X90003000Y-109327000D01*
X90257000Y-109327000D01*
X90257000Y-109347000D01*
X91399915Y-109347000D01*
X91521904Y-109124961D01*
X91481246Y-108990913D01*
X91361037Y-108736580D01*
X91193519Y-108510586D01*
X90985131Y-108321615D01*
X90743881Y-108176930D01*
X90479040Y-108082091D01*
X90257002Y-108203375D01*
X90257002Y-108112875D01*
X90474485Y-108069614D01*
X90689413Y-107980588D01*
X90882843Y-107851342D01*
X91047342Y-107686843D01*
X91176588Y-107493413D01*
X91197055Y-107444000D01*
X93093928Y-107444000D01*
X93106188Y-107568482D01*
X93142498Y-107688180D01*
X93201463Y-107798494D01*
X93280815Y-107895185D01*
X93377506Y-107974537D01*
X93487820Y-108033502D01*
X93607518Y-108069812D01*
X93732000Y-108082072D01*
X94456250Y-108079000D01*
X94615000Y-107920250D01*
X94615000Y-106821000D01*
X94869000Y-106821000D01*
X94869000Y-107920250D01*
X95027750Y-108079000D01*
X95752000Y-108082072D01*
X95876482Y-108069812D01*
X95996180Y-108033502D01*
X96106494Y-107974537D01*
X96203185Y-107895185D01*
X96282537Y-107798494D01*
X96341502Y-107688180D01*
X96377812Y-107568482D01*
X96390072Y-107444000D01*
X96387000Y-106979750D01*
X96228250Y-106821000D01*
X94869000Y-106821000D01*
X94615000Y-106821000D01*
X93255750Y-106821000D01*
X93097000Y-106979750D01*
X93093928Y-107444000D01*
X91197055Y-107444000D01*
X91265614Y-107278485D01*
X91311000Y-107050318D01*
X91311000Y-106817682D01*
X91265614Y-106589515D01*
X91176588Y-106374587D01*
X91047342Y-106181157D01*
X90882843Y-106016658D01*
X90774103Y-105944000D01*
X93093928Y-105944000D01*
X93097000Y-106408250D01*
X93255750Y-106567000D01*
X94615000Y-106567000D01*
X94615000Y-105467750D01*
X94869000Y-105467750D01*
X94869000Y-106567000D01*
X96228250Y-106567000D01*
X96387000Y-106408250D01*
X96390072Y-105944000D01*
X96377812Y-105819518D01*
X96341502Y-105699820D01*
X96282537Y-105589506D01*
X96203185Y-105492815D01*
X96106494Y-105413463D01*
X95996180Y-105354498D01*
X95876482Y-105318188D01*
X95752000Y-105305928D01*
X95027750Y-105309000D01*
X94869000Y-105467750D01*
X94615000Y-105467750D01*
X94456250Y-105309000D01*
X93732000Y-105305928D01*
X93607518Y-105318188D01*
X93487820Y-105354498D01*
X93377506Y-105413463D01*
X93280815Y-105492815D01*
X93201463Y-105589506D01*
X93142498Y-105699820D01*
X93106188Y-105819518D01*
X93093928Y-105944000D01*
X90774103Y-105944000D01*
X90689413Y-105887412D01*
X90474485Y-105798386D01*
X90420485Y-105787645D01*
X90083711Y-105450871D01*
X90083707Y-105450866D01*
X89248711Y-104615871D01*
X89216895Y-104577103D01*
X89062189Y-104450139D01*
X88885686Y-104355797D01*
X88694170Y-104297701D01*
X88544901Y-104282999D01*
X88494999Y-104278084D01*
X88445097Y-104282999D01*
X71808894Y-104282999D01*
X71759000Y-104278085D01*
X71709106Y-104282999D01*
X71709099Y-104282999D01*
X71579178Y-104295795D01*
X71559829Y-104297701D01*
X71501733Y-104315325D01*
X71368314Y-104355797D01*
X71191811Y-104450139D01*
X71037105Y-104577103D01*
X71005293Y-104615866D01*
X70058160Y-105563000D01*
X69788442Y-105563000D01*
X69622285Y-105579365D01*
X69409091Y-105644037D01*
X69212610Y-105749058D01*
X69040393Y-105890393D01*
X68899058Y-106062610D01*
X68794037Y-106259091D01*
X68729365Y-106472285D01*
X68711938Y-106649221D01*
X67613140Y-107748020D01*
X67592714Y-107645333D01*
X67450920Y-107303013D01*
X67245068Y-106994933D01*
X66983067Y-106732932D01*
X66674987Y-106527080D01*
X66332667Y-106385286D01*
X65969262Y-106313000D01*
X65598738Y-106313000D01*
X65235333Y-106385286D01*
X64893013Y-106527080D01*
X64584933Y-106732932D01*
X64322932Y-106994933D01*
X64117080Y-107303013D01*
X63975286Y-107645333D01*
X63903000Y-108008738D01*
X60406000Y-108008738D01*
X60406000Y-96153424D01*
X68357000Y-96153424D01*
X68357000Y-96378576D01*
X68400925Y-96599401D01*
X68487087Y-96807413D01*
X68612174Y-96994620D01*
X68771380Y-97153826D01*
X68958587Y-97278913D01*
X69166599Y-97365075D01*
X69387424Y-97409000D01*
X69612576Y-97409000D01*
X69833401Y-97365075D01*
X70041413Y-97278913D01*
X70228620Y-97153826D01*
X70387826Y-96994620D01*
X70512913Y-96807413D01*
X70599075Y-96599401D01*
X70643000Y-96378576D01*
X70643000Y-96153424D01*
X70897000Y-96153424D01*
X70897000Y-96378576D01*
X70940925Y-96599401D01*
X71027087Y-96807413D01*
X71152174Y-96994620D01*
X71311380Y-97153826D01*
X71498587Y-97278913D01*
X71706599Y-97365075D01*
X71927424Y-97409000D01*
X72152576Y-97409000D01*
X72373401Y-97365075D01*
X72581413Y-97278913D01*
X72768620Y-97153826D01*
X72927826Y-96994620D01*
X73052913Y-96807413D01*
X73139075Y-96599401D01*
X73183000Y-96378576D01*
X73183000Y-96153424D01*
X73139075Y-95932599D01*
X73052913Y-95724587D01*
X72927826Y-95537380D01*
X72768620Y-95378174D01*
X72581413Y-95253087D01*
X72373401Y-95166925D01*
X72152576Y-95123000D01*
X71927424Y-95123000D01*
X71706599Y-95166925D01*
X71498587Y-95253087D01*
X71311380Y-95378174D01*
X71152174Y-95537380D01*
X71027087Y-95724587D01*
X70940925Y-95932599D01*
X70897000Y-96153424D01*
X70643000Y-96153424D01*
X70599075Y-95932599D01*
X70512913Y-95724587D01*
X70387826Y-95537380D01*
X70228620Y-95378174D01*
X70041413Y-95253087D01*
X69833401Y-95166925D01*
X69612576Y-95123000D01*
X69387424Y-95123000D01*
X69166599Y-95166925D01*
X68958587Y-95253087D01*
X68771380Y-95378174D01*
X68612174Y-95537380D01*
X68487087Y-95724587D01*
X68400925Y-95932599D01*
X68357000Y-96153424D01*
X60406000Y-96153424D01*
X60406000Y-93613424D01*
X68357000Y-93613424D01*
X68357000Y-93838576D01*
X68400925Y-94059401D01*
X68487087Y-94267413D01*
X68612174Y-94454620D01*
X68771380Y-94613826D01*
X68958587Y-94738913D01*
X69166599Y-94825075D01*
X69387424Y-94869000D01*
X69612576Y-94869000D01*
X69833401Y-94825075D01*
X70041413Y-94738913D01*
X70228620Y-94613826D01*
X70387826Y-94454620D01*
X70512913Y-94267413D01*
X70599075Y-94059401D01*
X70643000Y-93838576D01*
X70643000Y-93613424D01*
X70897000Y-93613424D01*
X70897000Y-93838576D01*
X70940925Y-94059401D01*
X71027087Y-94267413D01*
X71152174Y-94454620D01*
X71311380Y-94613826D01*
X71498587Y-94738913D01*
X71706599Y-94825075D01*
X71927424Y-94869000D01*
X72152576Y-94869000D01*
X72373401Y-94825075D01*
X72581413Y-94738913D01*
X72768620Y-94613826D01*
X72927826Y-94454620D01*
X73052913Y-94267413D01*
X73139075Y-94059401D01*
X73183000Y-93838576D01*
X73183000Y-93613424D01*
X73139075Y-93392599D01*
X73052913Y-93184587D01*
X72927826Y-92997380D01*
X72768620Y-92838174D01*
X72581413Y-92713087D01*
X72373401Y-92626925D01*
X72152576Y-92583000D01*
X71927424Y-92583000D01*
X71706599Y-92626925D01*
X71498587Y-92713087D01*
X71311380Y-92838174D01*
X71152174Y-92997380D01*
X71027087Y-93184587D01*
X70940925Y-93392599D01*
X70897000Y-93613424D01*
X70643000Y-93613424D01*
X70599075Y-93392599D01*
X70512913Y-93184587D01*
X70387826Y-92997380D01*
X70228620Y-92838174D01*
X70041413Y-92713087D01*
X69833401Y-92626925D01*
X69612576Y-92583000D01*
X69387424Y-92583000D01*
X69166599Y-92626925D01*
X68958587Y-92713087D01*
X68771380Y-92838174D01*
X68612174Y-92997380D01*
X68487087Y-93184587D01*
X68400925Y-93392599D01*
X68357000Y-93613424D01*
X60406000Y-93613424D01*
X60406000Y-91380928D01*
X61798677Y-91380928D01*
X62104859Y-91824503D01*
X62692306Y-92139954D01*
X63330008Y-92334740D01*
X63993457Y-92401372D01*
X64657158Y-92337292D01*
X65295605Y-92144962D01*
X65884262Y-91831772D01*
X65895141Y-91824503D01*
X66201323Y-91380928D01*
X64000000Y-89179605D01*
X61798677Y-91380928D01*
X60406000Y-91380928D01*
X60406000Y-88993457D01*
X60598628Y-88993457D01*
X60662708Y-89657158D01*
X60855038Y-90295605D01*
X61168228Y-90884262D01*
X61175497Y-90895141D01*
X61619072Y-91201323D01*
X63820395Y-89000000D01*
X64179605Y-89000000D01*
X66380928Y-91201323D01*
X66566219Y-91073424D01*
X68357000Y-91073424D01*
X68357000Y-91298576D01*
X68400925Y-91519401D01*
X68487087Y-91727413D01*
X68612174Y-91914620D01*
X68771380Y-92073826D01*
X68958587Y-92198913D01*
X69166599Y-92285075D01*
X69387424Y-92329000D01*
X69612576Y-92329000D01*
X69833401Y-92285075D01*
X70041413Y-92198913D01*
X70228620Y-92073826D01*
X70387826Y-91914620D01*
X70512913Y-91727413D01*
X70599075Y-91519401D01*
X70643000Y-91298576D01*
X70643000Y-91073424D01*
X70897000Y-91073424D01*
X70897000Y-91298576D01*
X70940925Y-91519401D01*
X71027087Y-91727413D01*
X71152174Y-91914620D01*
X71311380Y-92073826D01*
X71498587Y-92198913D01*
X71706599Y-92285075D01*
X71927424Y-92329000D01*
X72152576Y-92329000D01*
X72373401Y-92285075D01*
X72581413Y-92198913D01*
X72768620Y-92073826D01*
X72927826Y-91914620D01*
X73052913Y-91727413D01*
X73139075Y-91519401D01*
X73166619Y-91380928D01*
X98798677Y-91380928D01*
X99104859Y-91824503D01*
X99692306Y-92139954D01*
X100330008Y-92334740D01*
X100993457Y-92401372D01*
X101657158Y-92337292D01*
X102295605Y-92144962D01*
X102884262Y-91831772D01*
X102895141Y-91824503D01*
X103201323Y-91380928D01*
X101000000Y-89179605D01*
X98798677Y-91380928D01*
X73166619Y-91380928D01*
X73183000Y-91298576D01*
X73183000Y-91073424D01*
X73139075Y-90852599D01*
X73052913Y-90644587D01*
X72927826Y-90457380D01*
X72768620Y-90298174D01*
X72581413Y-90173087D01*
X72373401Y-90086925D01*
X72152576Y-90043000D01*
X71927424Y-90043000D01*
X71706599Y-90086925D01*
X71498587Y-90173087D01*
X71311380Y-90298174D01*
X71152174Y-90457380D01*
X71027087Y-90644587D01*
X70940925Y-90852599D01*
X70897000Y-91073424D01*
X70643000Y-91073424D01*
X70599075Y-90852599D01*
X70512913Y-90644587D01*
X70387826Y-90457380D01*
X70228620Y-90298174D01*
X70041413Y-90173087D01*
X69833401Y-90086925D01*
X69612576Y-90043000D01*
X69387424Y-90043000D01*
X69166599Y-90086925D01*
X68958587Y-90173087D01*
X68771380Y-90298174D01*
X68612174Y-90457380D01*
X68487087Y-90644587D01*
X68400925Y-90852599D01*
X68357000Y-91073424D01*
X66566219Y-91073424D01*
X66824503Y-90895141D01*
X67139954Y-90307694D01*
X67334740Y-89669992D01*
X67361052Y-89408000D01*
X68099928Y-89408000D01*
X68112188Y-89532482D01*
X68148498Y-89652180D01*
X68207463Y-89762494D01*
X68286815Y-89859185D01*
X68383506Y-89938537D01*
X68493820Y-89997502D01*
X68613518Y-90033812D01*
X68738000Y-90046072D01*
X69214250Y-90043000D01*
X69373000Y-89884250D01*
X69373000Y-88773000D01*
X69627000Y-88773000D01*
X69627000Y-89884250D01*
X69785750Y-90043000D01*
X70262000Y-90046072D01*
X70386482Y-90033812D01*
X70506180Y-89997502D01*
X70616494Y-89938537D01*
X70713185Y-89859185D01*
X70792537Y-89762494D01*
X70851502Y-89652180D01*
X70887812Y-89532482D01*
X70900072Y-89408000D01*
X70897000Y-88931750D01*
X70738250Y-88773000D01*
X69627000Y-88773000D01*
X69373000Y-88773000D01*
X68261750Y-88773000D01*
X68103000Y-88931750D01*
X68099928Y-89408000D01*
X67361052Y-89408000D01*
X67401372Y-89006543D01*
X67355693Y-88533424D01*
X70897000Y-88533424D01*
X70897000Y-88758576D01*
X70940925Y-88979401D01*
X71027087Y-89187413D01*
X71152174Y-89374620D01*
X71311380Y-89533826D01*
X71498587Y-89658913D01*
X71706599Y-89745075D01*
X71927424Y-89789000D01*
X72152576Y-89789000D01*
X72373401Y-89745075D01*
X72581413Y-89658913D01*
X72768620Y-89533826D01*
X72927826Y-89374620D01*
X73052913Y-89187413D01*
X73133252Y-88993457D01*
X97598628Y-88993457D01*
X97662708Y-89657158D01*
X97855038Y-90295605D01*
X98168228Y-90884262D01*
X98175497Y-90895141D01*
X98619072Y-91201323D01*
X100820395Y-89000000D01*
X101179605Y-89000000D01*
X103380928Y-91201323D01*
X103824503Y-90895141D01*
X104139954Y-90307694D01*
X104334740Y-89669992D01*
X104401372Y-89006543D01*
X104337292Y-88342842D01*
X104144962Y-87704395D01*
X103831772Y-87115738D01*
X103824503Y-87104859D01*
X103380928Y-86798677D01*
X101179605Y-89000000D01*
X100820395Y-89000000D01*
X98619072Y-86798677D01*
X98175497Y-87104859D01*
X97860046Y-87692306D01*
X97665260Y-88330008D01*
X97598628Y-88993457D01*
X73133252Y-88993457D01*
X73139075Y-88979401D01*
X73183000Y-88758576D01*
X73183000Y-88533424D01*
X73139075Y-88312599D01*
X73052913Y-88104587D01*
X72927826Y-87917380D01*
X72768620Y-87758174D01*
X72581413Y-87633087D01*
X72373401Y-87546925D01*
X72152576Y-87503000D01*
X71927424Y-87503000D01*
X71706599Y-87546925D01*
X71498587Y-87633087D01*
X71311380Y-87758174D01*
X71152174Y-87917380D01*
X71027087Y-88104587D01*
X70940925Y-88312599D01*
X70897000Y-88533424D01*
X67355693Y-88533424D01*
X67337292Y-88342842D01*
X67199068Y-87884000D01*
X68099928Y-87884000D01*
X68103000Y-88360250D01*
X68261750Y-88519000D01*
X69373000Y-88519000D01*
X69373000Y-87407750D01*
X69627000Y-87407750D01*
X69627000Y-88519000D01*
X70738250Y-88519000D01*
X70897000Y-88360250D01*
X70900072Y-87884000D01*
X70887812Y-87759518D01*
X70851502Y-87639820D01*
X70792537Y-87529506D01*
X70713185Y-87432815D01*
X70616494Y-87353463D01*
X70506180Y-87294498D01*
X70386482Y-87258188D01*
X70262000Y-87245928D01*
X69785750Y-87249000D01*
X69627000Y-87407750D01*
X69373000Y-87407750D01*
X69214250Y-87249000D01*
X68738000Y-87245928D01*
X68613518Y-87258188D01*
X68493820Y-87294498D01*
X68383506Y-87353463D01*
X68286815Y-87432815D01*
X68207463Y-87529506D01*
X68148498Y-87639820D01*
X68112188Y-87759518D01*
X68099928Y-87884000D01*
X67199068Y-87884000D01*
X67144962Y-87704395D01*
X66831772Y-87115738D01*
X66824503Y-87104859D01*
X66380928Y-86798677D01*
X64179605Y-89000000D01*
X63820395Y-89000000D01*
X61619072Y-86798677D01*
X61175497Y-87104859D01*
X60860046Y-87692306D01*
X60665260Y-88330008D01*
X60598628Y-88993457D01*
X60406000Y-88993457D01*
X60406000Y-86619072D01*
X61798677Y-86619072D01*
X64000000Y-88820395D01*
X66201323Y-86619072D01*
X98798677Y-86619072D01*
X101000000Y-88820395D01*
X103201323Y-86619072D01*
X102895141Y-86175497D01*
X102307694Y-85860046D01*
X101669992Y-85665260D01*
X101006543Y-85598628D01*
X100342842Y-85662708D01*
X99704395Y-85855038D01*
X99115738Y-86168228D01*
X99104859Y-86175497D01*
X98798677Y-86619072D01*
X66201323Y-86619072D01*
X65895141Y-86175497D01*
X65307694Y-85860046D01*
X64669992Y-85665260D01*
X64006543Y-85598628D01*
X63342842Y-85662708D01*
X62704395Y-85855038D01*
X62115738Y-86168228D01*
X62104859Y-86175497D01*
X61798677Y-86619072D01*
X60406000Y-86619072D01*
X60406000Y-85406000D01*
X104594001Y-85406000D01*
X104594000Y-149594000D01*
G37*
X104594000Y-149594000D02*
X60406000Y-149594000D01*
X60406000Y-148380928D01*
X61798677Y-148380928D01*
X62104859Y-148824503D01*
X62692306Y-149139954D01*
X63330008Y-149334740D01*
X63993457Y-149401372D01*
X64657158Y-149337292D01*
X65295605Y-149144962D01*
X65884262Y-148831772D01*
X65895141Y-148824503D01*
X66201323Y-148380928D01*
X64000000Y-146179605D01*
X61798677Y-148380928D01*
X60406000Y-148380928D01*
X60406000Y-145993457D01*
X60598628Y-145993457D01*
X60662708Y-146657158D01*
X60855038Y-147295605D01*
X61168228Y-147884262D01*
X61175497Y-147895141D01*
X61619072Y-148201323D01*
X63820395Y-146000000D01*
X64179605Y-146000000D01*
X66380928Y-148201323D01*
X66824503Y-147895141D01*
X67139954Y-147307694D01*
X67334740Y-146669992D01*
X67401372Y-146006543D01*
X67337292Y-145342842D01*
X67144962Y-144704395D01*
X66831772Y-144115738D01*
X66824503Y-144104859D01*
X66380928Y-143798677D01*
X64179605Y-146000000D01*
X63820395Y-146000000D01*
X61619072Y-143798677D01*
X61175497Y-144104859D01*
X60860046Y-144692306D01*
X60665260Y-145330008D01*
X60598628Y-145993457D01*
X60406000Y-145993457D01*
X60406000Y-143619072D01*
X61798677Y-143619072D01*
X64000000Y-145820395D01*
X66201323Y-143619072D01*
X65895141Y-143175497D01*
X65307694Y-142860046D01*
X64669992Y-142665260D01*
X64006543Y-142598628D01*
X63342842Y-142662708D01*
X62704395Y-142855038D01*
X62115738Y-143168228D01*
X62104859Y-143175497D01*
X61798677Y-143619072D01*
X60406000Y-143619072D01*
X60406000Y-139132000D01*
X68455928Y-139132000D01*
X68468188Y-139256482D01*
X68504498Y-139376180D01*
X68563463Y-139486494D01*
X68642815Y-139583185D01*
X68739506Y-139662537D01*
X68849820Y-139721502D01*
X68969518Y-139757812D01*
X69094000Y-139770072D01*
X69818250Y-139767000D01*
X69977000Y-139608250D01*
X69977000Y-138509000D01*
X68617750Y-138509000D01*
X68459000Y-138667750D01*
X68455928Y-139132000D01*
X60406000Y-139132000D01*
X60406000Y-137632000D01*
X68455928Y-137632000D01*
X68459000Y-138096250D01*
X68617750Y-138255000D01*
X69977000Y-138255000D01*
X69977000Y-137155750D01*
X69818250Y-136997000D01*
X69094000Y-136993928D01*
X68969518Y-137006188D01*
X68849820Y-137042498D01*
X68739506Y-137101463D01*
X68642815Y-137180815D01*
X68563463Y-137277506D01*
X68504498Y-137387820D01*
X68468188Y-137507518D01*
X68455928Y-137632000D01*
X60406000Y-137632000D01*
X60406000Y-135196738D01*
X63903000Y-135196738D01*
X63903000Y-135567262D01*
X63975286Y-135930667D01*
X64117080Y-136272987D01*
X64322932Y-136581067D01*
X64584933Y-136843068D01*
X64893013Y-137048920D01*
X65235333Y-137190714D01*
X65598738Y-137263000D01*
X65969262Y-137263000D01*
X66332667Y-137190714D01*
X66674987Y-137048920D01*
X66983067Y-136843068D01*
X67245068Y-136581067D01*
X67450920Y-136272987D01*
X67592714Y-135930667D01*
X67665000Y-135567262D01*
X67665000Y-135382000D01*
X68707528Y-135382000D01*
X68729365Y-135603715D01*
X68794037Y-135816909D01*
X68899058Y-136013390D01*
X69040393Y-136185607D01*
X69212610Y-136326942D01*
X69409091Y-136431963D01*
X69622285Y-136496635D01*
X69788442Y-136513000D01*
X70419558Y-136513000D01*
X70585715Y-136496635D01*
X70798909Y-136431963D01*
X70995390Y-136326942D01*
X71167607Y-136185607D01*
X71305979Y-136017000D01*
X72494897Y-136017000D01*
X72526078Y-136020071D01*
X72557259Y-136017000D01*
X72557270Y-136017000D01*
X72650560Y-136007812D01*
X72770258Y-135971502D01*
X72880572Y-135912537D01*
X72977263Y-135833185D01*
X72997152Y-135808950D01*
X73726717Y-135079386D01*
X73751550Y-135204227D01*
X71656288Y-137299490D01*
X71644537Y-137277506D01*
X71565185Y-137180815D01*
X71468494Y-137101463D01*
X71358180Y-137042498D01*
X71238482Y-137006188D01*
X71114000Y-136993928D01*
X70389750Y-136997000D01*
X70231000Y-137155750D01*
X70231000Y-138255000D01*
X70251000Y-138255000D01*
X70251000Y-138509000D01*
X70231000Y-138509000D01*
X70231000Y-139608250D01*
X70389750Y-139767000D01*
X71074500Y-139769904D01*
X71074501Y-145518289D01*
X71013856Y-145550704D01*
X70919851Y-145627851D01*
X70842704Y-145721856D01*
X70785378Y-145829105D01*
X70771000Y-145876503D01*
X70756622Y-145829105D01*
X70699296Y-145721856D01*
X70622149Y-145627851D01*
X70528144Y-145550704D01*
X70420895Y-145493378D01*
X70304523Y-145458077D01*
X70183500Y-145446157D01*
X69608500Y-145446157D01*
X69487477Y-145458077D01*
X69371105Y-145493378D01*
X69263856Y-145550704D01*
X69169851Y-145627851D01*
X69092704Y-145721856D01*
X69035378Y-145829105D01*
X69000077Y-145945477D01*
X68988157Y-146066500D01*
X68988157Y-146541500D01*
X69000077Y-146662523D01*
X69035378Y-146778895D01*
X69092704Y-146886144D01*
X69169851Y-146980149D01*
X69263856Y-147057296D01*
X69324500Y-147089711D01*
X69324501Y-147514236D01*
X69218856Y-147570704D01*
X69124851Y-147647851D01*
X69047704Y-147741856D01*
X68990378Y-147849105D01*
X68955077Y-147965477D01*
X68943157Y-148086500D01*
X68943157Y-148561500D01*
X68955077Y-148682523D01*
X68990378Y-148798895D01*
X69047704Y-148906144D01*
X69124851Y-149000149D01*
X69218856Y-149077296D01*
X69326105Y-149134622D01*
X69442477Y-149169923D01*
X69563500Y-149181843D01*
X70138500Y-149181843D01*
X70259523Y-149169923D01*
X70375895Y-149134622D01*
X70483144Y-149077296D01*
X70498151Y-149064980D01*
X70545463Y-149153494D01*
X70624815Y-149250185D01*
X70721506Y-149329537D01*
X70831820Y-149388502D01*
X70951518Y-149424812D01*
X71076000Y-149437072D01*
X71315250Y-149434000D01*
X71474000Y-149275250D01*
X71474000Y-148451000D01*
X71728000Y-148451000D01*
X71728000Y-149275250D01*
X71886750Y-149434000D01*
X72126000Y-149437072D01*
X72250482Y-149424812D01*
X72370180Y-149388502D01*
X72480494Y-149329537D01*
X72577185Y-149250185D01*
X72656537Y-149153494D01*
X72715502Y-149043180D01*
X72751812Y-148923482D01*
X72764072Y-148799000D01*
X72761000Y-148609750D01*
X72602250Y-148451000D01*
X71728000Y-148451000D01*
X71474000Y-148451000D01*
X71454000Y-148451000D01*
X71454000Y-148197000D01*
X71474000Y-148197000D01*
X71474000Y-147372750D01*
X71728000Y-147372750D01*
X71728000Y-148197000D01*
X72602250Y-148197000D01*
X72761000Y-148038250D01*
X72764072Y-147849000D01*
X72751812Y-147724518D01*
X72715502Y-147604820D01*
X72656537Y-147494506D01*
X72577185Y-147397815D01*
X72480494Y-147318463D01*
X72370180Y-147259498D01*
X72250482Y-147223188D01*
X72126000Y-147210928D01*
X71886750Y-147214000D01*
X71728000Y-147372750D01*
X71474000Y-147372750D01*
X71315250Y-147214000D01*
X71076000Y-147210928D01*
X70951518Y-147223188D01*
X70831820Y-147259498D01*
X70721506Y-147318463D01*
X70624815Y-147397815D01*
X70545463Y-147494506D01*
X70498151Y-147583020D01*
X70483144Y-147570704D01*
X70467500Y-147562342D01*
X70467500Y-147089711D01*
X70528144Y-147057296D01*
X70622149Y-146980149D01*
X70699296Y-146886144D01*
X70756622Y-146778895D01*
X70771000Y-146731497D01*
X70785378Y-146778895D01*
X70842704Y-146886144D01*
X70919851Y-146980149D01*
X71013856Y-147057296D01*
X71121105Y-147114622D01*
X71237477Y-147149923D01*
X71358500Y-147161843D01*
X71933500Y-147161843D01*
X72054523Y-147149923D01*
X72170895Y-147114622D01*
X72278144Y-147057296D01*
X72372149Y-146980149D01*
X72449296Y-146886144D01*
X72506622Y-146778895D01*
X72541923Y-146662523D01*
X72553843Y-146541500D01*
X72553843Y-146066500D01*
X72541923Y-145945477D01*
X72506622Y-145829105D01*
X72449296Y-145721856D01*
X72372149Y-145627851D01*
X72278144Y-145550704D01*
X72217500Y-145518289D01*
X72217500Y-142377682D01*
X73709000Y-142377682D01*
X73709000Y-142610318D01*
X73754386Y-142838485D01*
X73843412Y-143053413D01*
X73972658Y-143246843D01*
X74137157Y-143411342D01*
X74330587Y-143540588D01*
X74545515Y-143629614D01*
X74773682Y-143675000D01*
X75006318Y-143675000D01*
X75234485Y-143629614D01*
X75449413Y-143540588D01*
X75642843Y-143411342D01*
X75807342Y-143246843D01*
X75936588Y-143053413D01*
X76025614Y-142838485D01*
X76071000Y-142610318D01*
X76071000Y-142377682D01*
X76025614Y-142149515D01*
X75936588Y-141934587D01*
X75807342Y-141741157D01*
X75642843Y-141576658D01*
X75449413Y-141447412D01*
X75234485Y-141358386D01*
X75006318Y-141313000D01*
X74773682Y-141313000D01*
X74545515Y-141358386D01*
X74330587Y-141447412D01*
X74137157Y-141576658D01*
X73972658Y-141741157D01*
X73843412Y-141934587D01*
X73754386Y-142149515D01*
X73709000Y-142377682D01*
X72217500Y-142377682D01*
X72217500Y-139837682D01*
X73709000Y-139837682D01*
X73709000Y-140070318D01*
X73754386Y-140298485D01*
X73843412Y-140513413D01*
X73972658Y-140706843D01*
X74137157Y-140871342D01*
X74330587Y-141000588D01*
X74545515Y-141089614D01*
X74773682Y-141135000D01*
X75006318Y-141135000D01*
X75234485Y-141089614D01*
X75449413Y-141000588D01*
X75642843Y-140871342D01*
X75807342Y-140706843D01*
X75936588Y-140513413D01*
X76025614Y-140298485D01*
X76071000Y-140070318D01*
X76071000Y-139837682D01*
X76025614Y-139609515D01*
X75936588Y-139394587D01*
X75807342Y-139201157D01*
X75642843Y-139036658D01*
X75449413Y-138907412D01*
X75234485Y-138818386D01*
X75006318Y-138773000D01*
X74773682Y-138773000D01*
X74545515Y-138818386D01*
X74330587Y-138907412D01*
X74137157Y-139036658D01*
X73972658Y-139201157D01*
X73843412Y-139394587D01*
X73754386Y-139609515D01*
X73709000Y-139837682D01*
X72217500Y-139837682D01*
X72217500Y-138354722D01*
X73274540Y-137297682D01*
X73709000Y-137297682D01*
X73709000Y-137530318D01*
X73754386Y-137758485D01*
X73843412Y-137973413D01*
X73972658Y-138166843D01*
X74137157Y-138331342D01*
X74330587Y-138460588D01*
X74545515Y-138549614D01*
X74773682Y-138595000D01*
X75006318Y-138595000D01*
X75220228Y-138552450D01*
X76517500Y-139849723D01*
X76517501Y-142338916D01*
X76514735Y-142367000D01*
X76525769Y-142479033D01*
X76558448Y-142586761D01*
X76571040Y-142610318D01*
X76611517Y-142686045D01*
X76682934Y-142773067D01*
X76704744Y-142790966D01*
X78951034Y-145037257D01*
X78968933Y-145059067D01*
X79055955Y-145130484D01*
X79155238Y-145183552D01*
X79262966Y-145216231D01*
X79346926Y-145224500D01*
X79346927Y-145224500D01*
X79374999Y-145227265D01*
X79403071Y-145224500D01*
X92884420Y-145224500D01*
X93106077Y-145446157D01*
X93071500Y-145446157D01*
X92950477Y-145458077D01*
X92834105Y-145493378D01*
X92726856Y-145550704D01*
X92632851Y-145627851D01*
X92555704Y-145721856D01*
X92498378Y-145829105D01*
X92463077Y-145945477D01*
X92451157Y-146066500D01*
X92451157Y-146541500D01*
X92463077Y-146662523D01*
X92498378Y-146778895D01*
X92555704Y-146886144D01*
X92632851Y-146980149D01*
X92726856Y-147057296D01*
X92787500Y-147089711D01*
X92787501Y-147538289D01*
X92726856Y-147570704D01*
X92632851Y-147647851D01*
X92555704Y-147741856D01*
X92498378Y-147849105D01*
X92463077Y-147965477D01*
X92451157Y-148086500D01*
X92451157Y-148561500D01*
X92463077Y-148682523D01*
X92498378Y-148798895D01*
X92555704Y-148906144D01*
X92632851Y-149000149D01*
X92726856Y-149077296D01*
X92834105Y-149134622D01*
X92950477Y-149169923D01*
X93071500Y-149181843D01*
X93646500Y-149181843D01*
X93767523Y-149169923D01*
X93883895Y-149134622D01*
X93991144Y-149077296D01*
X94006151Y-149064980D01*
X94053463Y-149153494D01*
X94132815Y-149250185D01*
X94229506Y-149329537D01*
X94339820Y-149388502D01*
X94459518Y-149424812D01*
X94584000Y-149437072D01*
X94823250Y-149434000D01*
X94982000Y-149275250D01*
X94982000Y-148451000D01*
X95236000Y-148451000D01*
X95236000Y-149275250D01*
X95394750Y-149434000D01*
X95634000Y-149437072D01*
X95758482Y-149424812D01*
X95878180Y-149388502D01*
X95988494Y-149329537D01*
X96085185Y-149250185D01*
X96164537Y-149153494D01*
X96223502Y-149043180D01*
X96259812Y-148923482D01*
X96272072Y-148799000D01*
X96269000Y-148609750D01*
X96110250Y-148451000D01*
X95236000Y-148451000D01*
X94982000Y-148451000D01*
X94962000Y-148451000D01*
X94962000Y-148380928D01*
X98798677Y-148380928D01*
X99104859Y-148824503D01*
X99692306Y-149139954D01*
X100330008Y-149334740D01*
X100993457Y-149401372D01*
X101657158Y-149337292D01*
X102295605Y-149144962D01*
X102884262Y-148831772D01*
X102895141Y-148824503D01*
X103201323Y-148380928D01*
X101000000Y-146179605D01*
X98798677Y-148380928D01*
X94962000Y-148380928D01*
X94962000Y-148197000D01*
X94982000Y-148197000D01*
X94982000Y-147372750D01*
X95236000Y-147372750D01*
X95236000Y-148197000D01*
X96110250Y-148197000D01*
X96269000Y-148038250D01*
X96272072Y-147849000D01*
X96259812Y-147724518D01*
X96223502Y-147604820D01*
X96164537Y-147494506D01*
X96085185Y-147397815D01*
X95988494Y-147318463D01*
X95878180Y-147259498D01*
X95758482Y-147223188D01*
X95634000Y-147210928D01*
X95394750Y-147214000D01*
X95236000Y-147372750D01*
X94982000Y-147372750D01*
X94823250Y-147214000D01*
X94584000Y-147210928D01*
X94459518Y-147223188D01*
X94339820Y-147259498D01*
X94229506Y-147318463D01*
X94132815Y-147397815D01*
X94053463Y-147494506D01*
X94006151Y-147583020D01*
X93991144Y-147570704D01*
X93930500Y-147538289D01*
X93930500Y-147089711D01*
X93991144Y-147057296D01*
X94085149Y-146980149D01*
X94162296Y-146886144D01*
X94219622Y-146778895D01*
X94234000Y-146731497D01*
X94248378Y-146778895D01*
X94305704Y-146886144D01*
X94382851Y-146980149D01*
X94476856Y-147057296D01*
X94584105Y-147114622D01*
X94700477Y-147149923D01*
X94821500Y-147161843D01*
X95396500Y-147161843D01*
X95517523Y-147149923D01*
X95633895Y-147114622D01*
X95741144Y-147057296D01*
X95835149Y-146980149D01*
X95912296Y-146886144D01*
X95969622Y-146778895D01*
X96004923Y-146662523D01*
X96016843Y-146541500D01*
X96016843Y-146066500D01*
X96009649Y-145993457D01*
X97598628Y-145993457D01*
X97662708Y-146657158D01*
X97855038Y-147295605D01*
X98168228Y-147884262D01*
X98175497Y-147895141D01*
X98619072Y-148201323D01*
X100820395Y-146000000D01*
X101179605Y-146000000D01*
X103380928Y-148201323D01*
X103824503Y-147895141D01*
X104139954Y-147307694D01*
X104334740Y-146669992D01*
X104401372Y-146006543D01*
X104337292Y-145342842D01*
X104144962Y-144704395D01*
X103831772Y-144115738D01*
X103824503Y-144104859D01*
X103380928Y-143798677D01*
X101179605Y-146000000D01*
X100820395Y-146000000D01*
X98619072Y-143798677D01*
X98175497Y-144104859D01*
X97860046Y-144692306D01*
X97665260Y-145330008D01*
X97598628Y-145993457D01*
X96009649Y-145993457D01*
X96004923Y-145945477D01*
X95969622Y-145829105D01*
X95912296Y-145721856D01*
X95835149Y-145627851D01*
X95741144Y-145550704D01*
X95633895Y-145493378D01*
X95517523Y-145458077D01*
X95396500Y-145446157D01*
X94821500Y-145446157D01*
X94731396Y-145455032D01*
X93545112Y-144268748D01*
X93527209Y-144246933D01*
X93440187Y-144175516D01*
X93340904Y-144122448D01*
X93233176Y-144089769D01*
X93149216Y-144081500D01*
X93121142Y-144078735D01*
X93093068Y-144081500D01*
X79611723Y-144081500D01*
X77907905Y-142377682D01*
X88949000Y-142377682D01*
X88949000Y-142610318D01*
X88994386Y-142838485D01*
X89083412Y-143053413D01*
X89212658Y-143246843D01*
X89377157Y-143411342D01*
X89570587Y-143540588D01*
X89785515Y-143629614D01*
X90013682Y-143675000D01*
X90246318Y-143675000D01*
X90474485Y-143629614D01*
X90499935Y-143619072D01*
X98798677Y-143619072D01*
X101000000Y-145820395D01*
X103201323Y-143619072D01*
X102895141Y-143175497D01*
X102307694Y-142860046D01*
X101669992Y-142665260D01*
X101006543Y-142598628D01*
X100342842Y-142662708D01*
X99704395Y-142855038D01*
X99115738Y-143168228D01*
X99104859Y-143175497D01*
X98798677Y-143619072D01*
X90499935Y-143619072D01*
X90689413Y-143540588D01*
X90882843Y-143411342D01*
X91047342Y-143246843D01*
X91176588Y-143053413D01*
X91265614Y-142838485D01*
X91311000Y-142610318D01*
X91311000Y-142377682D01*
X91265614Y-142149515D01*
X91176588Y-141934587D01*
X91047342Y-141741157D01*
X90882843Y-141576658D01*
X90689413Y-141447412D01*
X90474485Y-141358386D01*
X90246318Y-141313000D01*
X90013682Y-141313000D01*
X89785515Y-141358386D01*
X89570587Y-141447412D01*
X89377157Y-141576658D01*
X89212658Y-141741157D01*
X89083412Y-141934587D01*
X88994386Y-142149515D01*
X88949000Y-142377682D01*
X77907905Y-142377682D01*
X77660500Y-142130278D01*
X77660500Y-139837682D01*
X88949000Y-139837682D01*
X88949000Y-140070318D01*
X88994386Y-140298485D01*
X89083412Y-140513413D01*
X89212658Y-140706843D01*
X89377157Y-140871342D01*
X89570587Y-141000588D01*
X89785515Y-141089614D01*
X90013682Y-141135000D01*
X90246318Y-141135000D01*
X90474485Y-141089614D01*
X90689413Y-141000588D01*
X90882843Y-140871342D01*
X91047342Y-140706843D01*
X91176588Y-140513413D01*
X91265614Y-140298485D01*
X91311000Y-140070318D01*
X91311000Y-139837682D01*
X91265614Y-139609515D01*
X91176588Y-139394587D01*
X91047342Y-139201157D01*
X90882843Y-139036658D01*
X90689413Y-138907412D01*
X90474485Y-138818386D01*
X90351891Y-138794000D01*
X93345528Y-138794000D01*
X93367365Y-139015715D01*
X93432037Y-139228909D01*
X93537058Y-139425390D01*
X93678393Y-139597607D01*
X93850610Y-139738942D01*
X94047091Y-139843963D01*
X94260285Y-139908635D01*
X94426442Y-139925000D01*
X95057558Y-139925000D01*
X95223715Y-139908635D01*
X95436909Y-139843963D01*
X95633390Y-139738942D01*
X95805607Y-139597607D01*
X95946942Y-139425390D01*
X96051963Y-139228909D01*
X96116635Y-139015715D01*
X96138472Y-138794000D01*
X96116635Y-138572285D01*
X96051963Y-138359091D01*
X95946942Y-138162610D01*
X95805607Y-137990393D01*
X95633390Y-137849058D01*
X95436909Y-137744037D01*
X95223715Y-137679365D01*
X95057558Y-137663000D01*
X94426442Y-137663000D01*
X94260285Y-137679365D01*
X94047091Y-137744037D01*
X93850610Y-137849058D01*
X93678393Y-137990393D01*
X93537058Y-138162610D01*
X93432037Y-138359091D01*
X93367365Y-138572285D01*
X93345528Y-138794000D01*
X90351891Y-138794000D01*
X90246318Y-138773000D01*
X90013682Y-138773000D01*
X89785515Y-138818386D01*
X89570587Y-138907412D01*
X89377157Y-139036658D01*
X89212658Y-139201157D01*
X89083412Y-139394587D01*
X88994386Y-139609515D01*
X88949000Y-139837682D01*
X77660500Y-139837682D01*
X77660500Y-139641074D01*
X77663265Y-139613000D01*
X77652231Y-139500966D01*
X77619552Y-139393238D01*
X77566484Y-139293955D01*
X77495067Y-139206933D01*
X77473258Y-139189035D01*
X76028450Y-137744228D01*
X76071000Y-137530318D01*
X76071000Y-137297682D01*
X88949000Y-137297682D01*
X88949000Y-137530318D01*
X88994386Y-137758485D01*
X89083412Y-137973413D01*
X89212658Y-138166843D01*
X89377157Y-138331342D01*
X89570587Y-138460588D01*
X89785515Y-138549614D01*
X90013682Y-138595000D01*
X90246318Y-138595000D01*
X90474485Y-138549614D01*
X90689413Y-138460588D01*
X90882843Y-138331342D01*
X91047342Y-138166843D01*
X91176588Y-137973413D01*
X91265614Y-137758485D01*
X91311000Y-137530318D01*
X91311000Y-137297682D01*
X91265614Y-137069515D01*
X91176588Y-136854587D01*
X91047342Y-136661157D01*
X90882843Y-136496658D01*
X90689413Y-136367412D01*
X90474485Y-136278386D01*
X90246318Y-136233000D01*
X90013682Y-136233000D01*
X89785515Y-136278386D01*
X89570587Y-136367412D01*
X89377157Y-136496658D01*
X89212658Y-136661157D01*
X89083412Y-136854587D01*
X88994386Y-137069515D01*
X88949000Y-137297682D01*
X76071000Y-137297682D01*
X76025614Y-137069515D01*
X75936588Y-136854587D01*
X75807342Y-136661157D01*
X75642843Y-136496658D01*
X75449413Y-136367412D01*
X75234485Y-136278386D01*
X75006318Y-136233000D01*
X74773682Y-136233000D01*
X74545515Y-136278386D01*
X74330587Y-136367412D01*
X74137157Y-136496658D01*
X73972658Y-136661157D01*
X73843412Y-136854587D01*
X73754386Y-137069515D01*
X73709000Y-137297682D01*
X73274540Y-137297682D01*
X74559773Y-136012450D01*
X74773682Y-136055000D01*
X75006318Y-136055000D01*
X75234485Y-136009614D01*
X75449413Y-135920588D01*
X75642843Y-135791342D01*
X75807342Y-135626843D01*
X75936588Y-135433413D01*
X76025614Y-135218485D01*
X76071000Y-134990318D01*
X76071000Y-134757682D01*
X76025614Y-134529515D01*
X75936588Y-134314587D01*
X75886082Y-134239000D01*
X89133918Y-134239000D01*
X89083412Y-134314587D01*
X88994386Y-134529515D01*
X88949000Y-134757682D01*
X88949000Y-134990318D01*
X88994386Y-135218485D01*
X89083412Y-135433413D01*
X89212658Y-135626843D01*
X89377157Y-135791342D01*
X89570587Y-135920588D01*
X89785515Y-136009614D01*
X90013682Y-136055000D01*
X90246318Y-136055000D01*
X90474485Y-136009614D01*
X90689413Y-135920588D01*
X90878865Y-135794000D01*
X93345528Y-135794000D01*
X93367365Y-136015715D01*
X93432037Y-136228909D01*
X93537058Y-136425390D01*
X93678393Y-136597607D01*
X93850610Y-136738942D01*
X94047091Y-136843963D01*
X94260285Y-136908635D01*
X94426442Y-136925000D01*
X95057558Y-136925000D01*
X95223715Y-136908635D01*
X95436909Y-136843963D01*
X95633390Y-136738942D01*
X95805607Y-136597607D01*
X95919573Y-136458738D01*
X97181000Y-136458738D01*
X97181000Y-136829262D01*
X97253286Y-137192667D01*
X97395080Y-137534987D01*
X97600932Y-137843067D01*
X97862933Y-138105068D01*
X98171013Y-138310920D01*
X98513333Y-138452714D01*
X98876738Y-138525000D01*
X99247262Y-138525000D01*
X99610667Y-138452714D01*
X99952987Y-138310920D01*
X100261067Y-138105068D01*
X100523068Y-137843067D01*
X100728920Y-137534987D01*
X100870714Y-137192667D01*
X100943000Y-136829262D01*
X100943000Y-136458738D01*
X100870714Y-136095333D01*
X100728920Y-135753013D01*
X100523068Y-135444933D01*
X100261067Y-135182932D01*
X99952987Y-134977080D01*
X99610667Y-134835286D01*
X99247262Y-134763000D01*
X98876738Y-134763000D01*
X98513333Y-134835286D01*
X98171013Y-134977080D01*
X97862933Y-135182932D01*
X97600932Y-135444933D01*
X97395080Y-135753013D01*
X97253286Y-136095333D01*
X97181000Y-136458738D01*
X95919573Y-136458738D01*
X95946942Y-136425390D01*
X96051963Y-136228909D01*
X96116635Y-136015715D01*
X96138472Y-135794000D01*
X96116635Y-135572285D01*
X96051963Y-135359091D01*
X95946942Y-135162610D01*
X95805607Y-134990393D01*
X95633390Y-134849058D01*
X95436909Y-134744037D01*
X95223715Y-134679365D01*
X95057558Y-134663000D01*
X94426442Y-134663000D01*
X94260285Y-134679365D01*
X94047091Y-134744037D01*
X93850610Y-134849058D01*
X93678393Y-134990393D01*
X93537058Y-135162610D01*
X93432037Y-135359091D01*
X93367365Y-135572285D01*
X93345528Y-135794000D01*
X90878865Y-135794000D01*
X90882843Y-135791342D01*
X91047342Y-135626843D01*
X91176588Y-135433413D01*
X91265614Y-135218485D01*
X91311000Y-134990318D01*
X91311000Y-134757682D01*
X91265614Y-134529515D01*
X91176588Y-134314587D01*
X91126082Y-134239000D01*
X92382819Y-134239000D01*
X92414000Y-134242071D01*
X92445181Y-134239000D01*
X92445192Y-134239000D01*
X92538482Y-134229812D01*
X92658180Y-134193502D01*
X92768494Y-134134537D01*
X92865185Y-134055185D01*
X92885074Y-134030950D01*
X93487025Y-133429000D01*
X93540021Y-133429000D01*
X93678393Y-133597607D01*
X93850610Y-133738942D01*
X94047091Y-133843963D01*
X94260285Y-133908635D01*
X94426442Y-133925000D01*
X95057558Y-133925000D01*
X95223715Y-133908635D01*
X95436909Y-133843963D01*
X95633390Y-133738942D01*
X95805607Y-133597607D01*
X95946942Y-133425390D01*
X96051963Y-133228909D01*
X96116635Y-133015715D01*
X96138472Y-132794000D01*
X96116635Y-132572285D01*
X96096922Y-132507300D01*
X97284679Y-131319543D01*
X97253286Y-131395333D01*
X97181000Y-131758738D01*
X97181000Y-132129262D01*
X97253286Y-132492667D01*
X97395080Y-132834987D01*
X97600932Y-133143067D01*
X97862933Y-133405068D01*
X98171013Y-133610920D01*
X98513333Y-133752714D01*
X98876738Y-133825000D01*
X99247262Y-133825000D01*
X99610667Y-133752714D01*
X99952987Y-133610920D01*
X100261067Y-133405068D01*
X100523068Y-133143067D01*
X100728920Y-132834987D01*
X100870714Y-132492667D01*
X100943000Y-132129262D01*
X100943000Y-131758738D01*
X100870714Y-131395333D01*
X100728920Y-131053013D01*
X100523068Y-130744933D01*
X100261067Y-130482932D01*
X99952987Y-130277080D01*
X99610667Y-130135286D01*
X99247262Y-130063000D01*
X98876738Y-130063000D01*
X98513333Y-130135286D01*
X98437543Y-130166679D01*
X103762258Y-124841965D01*
X103784067Y-124824067D01*
X103855484Y-124737045D01*
X103908552Y-124637762D01*
X103941231Y-124530034D01*
X103949500Y-124446074D01*
X103949500Y-124446073D01*
X103952265Y-124418000D01*
X103949500Y-124389926D01*
X103949500Y-123603985D01*
X103960144Y-123598296D01*
X104054149Y-123521149D01*
X104131296Y-123427144D01*
X104188622Y-123319895D01*
X104223923Y-123203523D01*
X104235843Y-123082500D01*
X104235843Y-122507500D01*
X104223923Y-122386477D01*
X104188622Y-122270105D01*
X104131296Y-122162856D01*
X104054149Y-122068851D01*
X103960144Y-121991704D01*
X103852895Y-121934378D01*
X103805497Y-121920000D01*
X103852895Y-121905622D01*
X103960144Y-121848296D01*
X104054149Y-121771149D01*
X104131296Y-121677144D01*
X104188622Y-121569895D01*
X104223923Y-121453523D01*
X104235843Y-121332500D01*
X104235843Y-120757500D01*
X104223923Y-120636477D01*
X104188622Y-120520105D01*
X104131296Y-120412856D01*
X104054149Y-120318851D01*
X103960144Y-120241704D01*
X103852895Y-120184378D01*
X103736523Y-120149077D01*
X103615500Y-120137157D01*
X103140500Y-120137157D01*
X103019477Y-120149077D01*
X102903105Y-120184378D01*
X102795856Y-120241704D01*
X102701851Y-120318851D01*
X102677519Y-120348500D01*
X101345287Y-120348500D01*
X101337701Y-120323492D01*
X101302322Y-120257304D01*
X101254711Y-120199289D01*
X101196696Y-120151678D01*
X101155500Y-120129658D01*
X101155500Y-119154071D01*
X101158265Y-119125999D01*
X101153201Y-119074587D01*
X101147231Y-119013966D01*
X101114552Y-118906238D01*
X101061484Y-118806955D01*
X100990067Y-118719933D01*
X100968258Y-118702035D01*
X97742999Y-115476777D01*
X97742999Y-114885134D01*
X97862933Y-115005068D01*
X98171013Y-115210920D01*
X98513333Y-115352714D01*
X98876738Y-115425000D01*
X99247262Y-115425000D01*
X99610667Y-115352714D01*
X99952987Y-115210920D01*
X100261067Y-115005068D01*
X100523068Y-114743067D01*
X100728920Y-114434987D01*
X100870714Y-114092667D01*
X100943000Y-113729262D01*
X100943000Y-113358738D01*
X100870714Y-112995333D01*
X100728920Y-112653013D01*
X100523068Y-112344933D01*
X100261067Y-112082932D01*
X99952987Y-111877080D01*
X99610667Y-111735286D01*
X99247262Y-111663000D01*
X98876738Y-111663000D01*
X98513333Y-111735286D01*
X98171013Y-111877080D01*
X97862933Y-112082932D01*
X97714172Y-112231693D01*
X97702051Y-112191737D01*
X97648983Y-112092454D01*
X97577566Y-112005432D01*
X97555757Y-111987534D01*
X96435970Y-110867748D01*
X96418067Y-110845933D01*
X96331045Y-110774516D01*
X96231762Y-110721448D01*
X96124034Y-110688769D01*
X96040074Y-110680500D01*
X96012000Y-110677735D01*
X95983926Y-110680500D01*
X95555640Y-110680500D01*
X95633390Y-110638942D01*
X95805607Y-110497607D01*
X95946942Y-110325390D01*
X96051963Y-110128909D01*
X96116635Y-109915715D01*
X96138472Y-109694000D01*
X96116635Y-109472285D01*
X96051963Y-109259091D01*
X95946942Y-109062610D01*
X95805607Y-108890393D01*
X95633390Y-108749058D01*
X95464413Y-108658738D01*
X97181000Y-108658738D01*
X97181000Y-109029262D01*
X97253286Y-109392667D01*
X97395080Y-109734987D01*
X97600932Y-110043067D01*
X97862933Y-110305068D01*
X98171013Y-110510920D01*
X98513333Y-110652714D01*
X98876738Y-110725000D01*
X99247262Y-110725000D01*
X99610667Y-110652714D01*
X99952987Y-110510920D01*
X100261067Y-110305068D01*
X100523068Y-110043067D01*
X100728920Y-109734987D01*
X100870714Y-109392667D01*
X100943000Y-109029262D01*
X100943000Y-108658738D01*
X100870714Y-108295333D01*
X100728920Y-107953013D01*
X100523068Y-107644933D01*
X100261067Y-107382932D01*
X99952987Y-107177080D01*
X99610667Y-107035286D01*
X99247262Y-106963000D01*
X98876738Y-106963000D01*
X98513333Y-107035286D01*
X98171013Y-107177080D01*
X97862933Y-107382932D01*
X97600932Y-107644933D01*
X97395080Y-107953013D01*
X97253286Y-108295333D01*
X97181000Y-108658738D01*
X95464413Y-108658738D01*
X95436909Y-108644037D01*
X95223715Y-108579365D01*
X95057558Y-108563000D01*
X94426442Y-108563000D01*
X94260285Y-108579365D01*
X94047091Y-108644037D01*
X93850610Y-108749058D01*
X93678393Y-108890393D01*
X93537058Y-109062610D01*
X93432037Y-109259091D01*
X93367365Y-109472285D01*
X93345528Y-109694000D01*
X93367365Y-109915715D01*
X93432037Y-110128909D01*
X93537058Y-110325390D01*
X93678393Y-110497607D01*
X93850610Y-110638942D01*
X93928360Y-110680500D01*
X93754074Y-110680500D01*
X93726000Y-110677735D01*
X93697926Y-110680500D01*
X93613966Y-110688769D01*
X93506238Y-110721448D01*
X93406955Y-110774516D01*
X93319933Y-110845933D01*
X93302039Y-110867738D01*
X91563744Y-112606034D01*
X91541934Y-112623933D01*
X91518069Y-112653013D01*
X91470516Y-112710956D01*
X91417448Y-112810239D01*
X91384769Y-112917967D01*
X91373735Y-113030000D01*
X91376501Y-113058084D01*
X91376500Y-120119277D01*
X90460228Y-121035550D01*
X90246318Y-120993000D01*
X90013682Y-120993000D01*
X89785515Y-121038386D01*
X89570587Y-121127412D01*
X89377157Y-121256658D01*
X89212658Y-121421157D01*
X89083412Y-121614587D01*
X88994386Y-121829515D01*
X88949000Y-122057682D01*
X88949000Y-122290318D01*
X88994386Y-122518485D01*
X89083412Y-122733413D01*
X89212658Y-122926843D01*
X89377157Y-123091342D01*
X89570587Y-123220588D01*
X89785515Y-123309614D01*
X89901160Y-123332618D01*
X89745748Y-123488030D01*
X89723933Y-123505933D01*
X89664473Y-123578386D01*
X89652516Y-123592956D01*
X89624699Y-123644998D01*
X89570587Y-123667412D01*
X89377157Y-123796658D01*
X89212658Y-123961157D01*
X89083412Y-124154587D01*
X88994386Y-124369515D01*
X88949000Y-124597682D01*
X88949000Y-124830318D01*
X88994386Y-125058485D01*
X89083412Y-125273413D01*
X89212658Y-125466843D01*
X89377157Y-125631342D01*
X89570587Y-125760588D01*
X89785515Y-125849614D01*
X90013682Y-125895000D01*
X90246318Y-125895000D01*
X90474485Y-125849614D01*
X90689413Y-125760588D01*
X90882843Y-125631342D01*
X91047342Y-125466843D01*
X91176588Y-125273413D01*
X91265614Y-125058485D01*
X91311000Y-124830318D01*
X91311000Y-124597682D01*
X91265614Y-124369515D01*
X91176588Y-124154587D01*
X91047342Y-123961157D01*
X90968204Y-123882019D01*
X92962889Y-121887333D01*
X92997105Y-121905622D01*
X93044503Y-121920000D01*
X92997105Y-121934378D01*
X92889856Y-121991704D01*
X92795851Y-122068851D01*
X92718704Y-122162856D01*
X92661378Y-122270105D01*
X92626077Y-122386477D01*
X92614157Y-122507500D01*
X92614157Y-123082500D01*
X92626077Y-123203523D01*
X92661378Y-123319895D01*
X92718704Y-123427144D01*
X92795851Y-123521149D01*
X92889856Y-123598296D01*
X92900501Y-123603986D01*
X92900500Y-126330106D01*
X92897735Y-126358180D01*
X92900500Y-126386253D01*
X92908769Y-126470213D01*
X92941448Y-126577941D01*
X92994516Y-126677224D01*
X93065933Y-126764247D01*
X93087748Y-126782150D01*
X94714598Y-128409000D01*
X94614998Y-128409000D01*
X94614998Y-128567748D01*
X94456250Y-128409000D01*
X93732000Y-128405928D01*
X93607518Y-128418188D01*
X93487820Y-128454498D01*
X93377506Y-128513463D01*
X93280815Y-128592815D01*
X93201463Y-128689506D01*
X93142498Y-128799820D01*
X93106188Y-128919518D01*
X93093928Y-129044000D01*
X93097000Y-129508250D01*
X93255750Y-129667000D01*
X94615000Y-129667000D01*
X94615000Y-129647000D01*
X94869000Y-129647000D01*
X94869000Y-129667000D01*
X94889000Y-129667000D01*
X94889000Y-129921000D01*
X94869000Y-129921000D01*
X94869000Y-129941000D01*
X94615000Y-129941000D01*
X94615000Y-129921000D01*
X93255750Y-129921000D01*
X93097000Y-130079750D01*
X93094529Y-130453207D01*
X93011191Y-130444999D01*
X93011180Y-130444999D01*
X92979999Y-130441928D01*
X92948818Y-130444999D01*
X91115392Y-130444999D01*
X91176588Y-130353413D01*
X91265614Y-130138485D01*
X91311000Y-129910318D01*
X91311000Y-129677682D01*
X91265614Y-129449515D01*
X91176588Y-129234587D01*
X91047342Y-129041157D01*
X90882843Y-128876658D01*
X90689413Y-128747412D01*
X90474485Y-128658386D01*
X90246318Y-128613000D01*
X90013682Y-128613000D01*
X89785515Y-128658386D01*
X89570587Y-128747412D01*
X89377157Y-128876658D01*
X89212658Y-129041157D01*
X89083412Y-129234587D01*
X88994386Y-129449515D01*
X88966717Y-129588614D01*
X88265000Y-128886898D01*
X88265000Y-127137682D01*
X88949000Y-127137682D01*
X88949000Y-127370318D01*
X88994386Y-127598485D01*
X89083412Y-127813413D01*
X89212658Y-128006843D01*
X89377157Y-128171342D01*
X89570587Y-128300588D01*
X89785515Y-128389614D01*
X90013682Y-128435000D01*
X90246318Y-128435000D01*
X90474485Y-128389614D01*
X90689413Y-128300588D01*
X90882843Y-128171342D01*
X91047342Y-128006843D01*
X91176588Y-127813413D01*
X91265614Y-127598485D01*
X91311000Y-127370318D01*
X91311000Y-127137682D01*
X91265614Y-126909515D01*
X91176588Y-126694587D01*
X91047342Y-126501157D01*
X90882843Y-126336658D01*
X90689413Y-126207412D01*
X90474485Y-126118386D01*
X90246318Y-126073000D01*
X90013682Y-126073000D01*
X89785515Y-126118386D01*
X89570587Y-126207412D01*
X89377157Y-126336658D01*
X89212658Y-126501157D01*
X89083412Y-126694587D01*
X88994386Y-126909515D01*
X88949000Y-127137682D01*
X88265000Y-127137682D01*
X88265000Y-119517682D01*
X88949000Y-119517682D01*
X88949000Y-119750318D01*
X88994386Y-119978485D01*
X89083412Y-120193413D01*
X89212658Y-120386843D01*
X89377157Y-120551342D01*
X89570587Y-120680588D01*
X89785515Y-120769614D01*
X90013682Y-120815000D01*
X90246318Y-120815000D01*
X90474485Y-120769614D01*
X90689413Y-120680588D01*
X90882843Y-120551342D01*
X91047342Y-120386843D01*
X91176588Y-120193413D01*
X91265614Y-119978485D01*
X91311000Y-119750318D01*
X91311000Y-119517682D01*
X91265614Y-119289515D01*
X91176588Y-119074587D01*
X91047342Y-118881157D01*
X90882843Y-118716658D01*
X90689413Y-118587412D01*
X90474485Y-118498386D01*
X90246318Y-118453000D01*
X90013682Y-118453000D01*
X89785515Y-118498386D01*
X89570587Y-118587412D01*
X89377157Y-118716658D01*
X89212658Y-118881157D01*
X89083412Y-119074587D01*
X88994386Y-119289515D01*
X88949000Y-119517682D01*
X88265000Y-119517682D01*
X88265000Y-117357024D01*
X89080565Y-116541460D01*
X88994386Y-116749515D01*
X88949000Y-116977682D01*
X88949000Y-117210318D01*
X88994386Y-117438485D01*
X89083412Y-117653413D01*
X89212658Y-117846843D01*
X89377157Y-118011342D01*
X89570587Y-118140588D01*
X89785515Y-118229614D01*
X90013682Y-118275000D01*
X90246318Y-118275000D01*
X90474485Y-118229614D01*
X90689413Y-118140588D01*
X90882843Y-118011342D01*
X91047342Y-117846843D01*
X91176588Y-117653413D01*
X91265614Y-117438485D01*
X91311000Y-117210318D01*
X91311000Y-116977682D01*
X91265614Y-116749515D01*
X91176588Y-116534587D01*
X91047342Y-116341157D01*
X90882843Y-116176658D01*
X90689413Y-116047412D01*
X90474485Y-115958386D01*
X90246318Y-115913000D01*
X90013682Y-115913000D01*
X89785515Y-115958386D01*
X89577461Y-116044565D01*
X89756961Y-115865065D01*
X89781186Y-115845184D01*
X89801065Y-115820961D01*
X89801069Y-115820957D01*
X89860538Y-115748494D01*
X89881775Y-115708762D01*
X90013682Y-115735000D01*
X90246318Y-115735000D01*
X90474485Y-115689614D01*
X90689413Y-115600588D01*
X90882843Y-115471342D01*
X91047342Y-115306843D01*
X91176588Y-115113413D01*
X91265614Y-114898485D01*
X91311000Y-114670318D01*
X91311000Y-114437682D01*
X91265614Y-114209515D01*
X91176588Y-113994587D01*
X91047342Y-113801157D01*
X90882843Y-113636658D01*
X90689413Y-113507412D01*
X90474485Y-113418386D01*
X90246318Y-113373000D01*
X90013682Y-113373000D01*
X89785515Y-113418386D01*
X89570587Y-113507412D01*
X89377157Y-113636658D01*
X89212658Y-113801157D01*
X89083412Y-113994587D01*
X88994386Y-114209515D01*
X88949000Y-114437682D01*
X88949000Y-114670318D01*
X88976651Y-114809325D01*
X88903051Y-114882925D01*
X88878816Y-114902814D01*
X88799464Y-114999506D01*
X88768455Y-115057520D01*
X87203050Y-116622926D01*
X87178815Y-116642815D01*
X87099463Y-116739507D01*
X87040498Y-116849821D01*
X87004188Y-116969519D01*
X86995000Y-117062809D01*
X86995000Y-117062819D01*
X86991929Y-117094000D01*
X86995000Y-117125181D01*
X86995001Y-129118731D01*
X86991929Y-129149922D01*
X86995001Y-129181113D01*
X86995001Y-129181114D01*
X87000268Y-129234587D01*
X87004189Y-129274403D01*
X87040498Y-129394101D01*
X87099463Y-129504415D01*
X87099464Y-129504416D01*
X87178816Y-129601107D01*
X87203046Y-129620992D01*
X88602303Y-131020250D01*
X89089011Y-131506959D01*
X89108892Y-131531184D01*
X89133116Y-131551064D01*
X89133119Y-131551067D01*
X89197474Y-131603882D01*
X89083412Y-131774587D01*
X88994386Y-131989515D01*
X88949000Y-132217682D01*
X88949000Y-132450318D01*
X88994386Y-132678485D01*
X89083412Y-132893413D01*
X89133918Y-132969000D01*
X75886082Y-132969000D01*
X75936588Y-132893413D01*
X76025614Y-132678485D01*
X76071000Y-132450318D01*
X76071000Y-132217682D01*
X76025614Y-131989515D01*
X75936588Y-131774587D01*
X75807342Y-131581157D01*
X75642843Y-131416658D01*
X75449413Y-131287412D01*
X75234485Y-131198386D01*
X75006318Y-131153000D01*
X74773682Y-131153000D01*
X74545515Y-131198386D01*
X74330587Y-131287412D01*
X74137157Y-131416658D01*
X73972658Y-131581157D01*
X73843412Y-131774587D01*
X73754386Y-131989515D01*
X73709000Y-132217682D01*
X73709000Y-132450318D01*
X73754386Y-132678485D01*
X73843412Y-132893413D01*
X73959998Y-133067896D01*
X73949584Y-133073462D01*
X73877121Y-133132931D01*
X73877117Y-133132935D01*
X73852893Y-133152815D01*
X73833012Y-133177040D01*
X72263054Y-134747000D01*
X71305979Y-134747000D01*
X71167607Y-134578393D01*
X70995390Y-134437058D01*
X70798909Y-134332037D01*
X70585715Y-134267365D01*
X70419558Y-134251000D01*
X69788442Y-134251000D01*
X69622285Y-134267365D01*
X69409091Y-134332037D01*
X69212610Y-134437058D01*
X69040393Y-134578393D01*
X68899058Y-134750610D01*
X68794037Y-134947091D01*
X68729365Y-135160285D01*
X68707528Y-135382000D01*
X67665000Y-135382000D01*
X67665000Y-135196738D01*
X67592714Y-134833333D01*
X67450920Y-134491013D01*
X67245068Y-134182933D01*
X66983067Y-133920932D01*
X66674987Y-133715080D01*
X66332667Y-133573286D01*
X65969262Y-133501000D01*
X65598738Y-133501000D01*
X65235333Y-133573286D01*
X64893013Y-133715080D01*
X64584933Y-133920932D01*
X64322932Y-134182933D01*
X64117080Y-134491013D01*
X63975286Y-134833333D01*
X63903000Y-135196738D01*
X60406000Y-135196738D01*
X60406000Y-132382000D01*
X68707528Y-132382000D01*
X68729365Y-132603715D01*
X68794037Y-132816909D01*
X68899058Y-133013390D01*
X69040393Y-133185607D01*
X69212610Y-133326942D01*
X69409091Y-133431963D01*
X69622285Y-133496635D01*
X69788442Y-133513000D01*
X70419558Y-133513000D01*
X70585715Y-133496635D01*
X70798909Y-133431963D01*
X70995390Y-133326942D01*
X71167607Y-133185607D01*
X71308942Y-133013390D01*
X71413963Y-132816909D01*
X71478635Y-132603715D01*
X71500472Y-132382000D01*
X71478635Y-132160285D01*
X71413963Y-131947091D01*
X71308942Y-131750610D01*
X71167607Y-131578393D01*
X70995390Y-131437058D01*
X70798909Y-131332037D01*
X70675500Y-131294601D01*
X70675500Y-129736722D01*
X70734540Y-129677682D01*
X73709000Y-129677682D01*
X73709000Y-129910318D01*
X73754386Y-130138485D01*
X73843412Y-130353413D01*
X73972658Y-130546843D01*
X74137157Y-130711342D01*
X74330587Y-130840588D01*
X74545515Y-130929614D01*
X74773682Y-130975000D01*
X75006318Y-130975000D01*
X75234485Y-130929614D01*
X75449413Y-130840588D01*
X75642843Y-130711342D01*
X75807342Y-130546843D01*
X75936588Y-130353413D01*
X76025614Y-130138485D01*
X76071000Y-129910318D01*
X76071000Y-129677682D01*
X76025614Y-129449515D01*
X75936588Y-129234587D01*
X75807342Y-129041157D01*
X75642843Y-128876658D01*
X75449413Y-128747412D01*
X75234485Y-128658386D01*
X75006318Y-128613000D01*
X74773682Y-128613000D01*
X74545515Y-128658386D01*
X74330587Y-128747412D01*
X74137157Y-128876658D01*
X73972658Y-129041157D01*
X73843412Y-129234587D01*
X73754386Y-129449515D01*
X73709000Y-129677682D01*
X70734540Y-129677682D01*
X73274540Y-127137682D01*
X73709000Y-127137682D01*
X73709000Y-127370318D01*
X73754386Y-127598485D01*
X73843412Y-127813413D01*
X73972658Y-128006843D01*
X74137157Y-128171342D01*
X74330587Y-128300588D01*
X74545515Y-128389614D01*
X74773682Y-128435000D01*
X75006318Y-128435000D01*
X75234485Y-128389614D01*
X75449413Y-128300588D01*
X75642843Y-128171342D01*
X75807342Y-128006843D01*
X75936588Y-127813413D01*
X76025614Y-127598485D01*
X76071000Y-127370318D01*
X76071000Y-127137682D01*
X76025614Y-126909515D01*
X75936588Y-126694587D01*
X75807342Y-126501157D01*
X75642843Y-126336658D01*
X75449413Y-126207412D01*
X75234485Y-126118386D01*
X75006318Y-126073000D01*
X74773682Y-126073000D01*
X74545515Y-126118386D01*
X74330587Y-126207412D01*
X74137157Y-126336658D01*
X73972658Y-126501157D01*
X73843412Y-126694587D01*
X73754386Y-126909515D01*
X73709000Y-127137682D01*
X73274540Y-127137682D01*
X74559773Y-125852450D01*
X74773682Y-125895000D01*
X75006318Y-125895000D01*
X75234485Y-125849614D01*
X75449413Y-125760588D01*
X75642843Y-125631342D01*
X75807342Y-125466843D01*
X75936588Y-125273413D01*
X76025614Y-125058485D01*
X76071000Y-124830318D01*
X76071000Y-124597682D01*
X76025614Y-124369515D01*
X75936588Y-124154587D01*
X75807342Y-123961157D01*
X75642843Y-123796658D01*
X75449413Y-123667412D01*
X75234485Y-123578386D01*
X75006318Y-123533000D01*
X74773682Y-123533000D01*
X74545515Y-123578386D01*
X74330587Y-123667412D01*
X74137157Y-123796658D01*
X73972658Y-123961157D01*
X73843412Y-124154587D01*
X73754386Y-124369515D01*
X73709000Y-124597682D01*
X73709000Y-124830318D01*
X73751550Y-125044227D01*
X69719744Y-129076034D01*
X69697934Y-129093933D01*
X69651985Y-129149922D01*
X69626516Y-129180956D01*
X69573448Y-129280239D01*
X69540769Y-129387967D01*
X69529735Y-129500000D01*
X69532501Y-129528084D01*
X69532500Y-131294601D01*
X69409091Y-131332037D01*
X69212610Y-131437058D01*
X69040393Y-131578393D01*
X68899058Y-131750610D01*
X68794037Y-131947091D01*
X68729365Y-132160285D01*
X68707528Y-132382000D01*
X60406000Y-132382000D01*
X60406000Y-124788000D01*
X68455928Y-124788000D01*
X68468188Y-124912482D01*
X68504498Y-125032180D01*
X68563463Y-125142494D01*
X68642815Y-125239185D01*
X68739506Y-125318537D01*
X68849820Y-125377502D01*
X68969518Y-125413812D01*
X69094000Y-125426072D01*
X69818250Y-125423000D01*
X69977000Y-125264250D01*
X69977000Y-124165000D01*
X70231000Y-124165000D01*
X70231000Y-125264250D01*
X70389750Y-125423000D01*
X71114000Y-125426072D01*
X71238482Y-125413812D01*
X71358180Y-125377502D01*
X71468494Y-125318537D01*
X71565185Y-125239185D01*
X71644537Y-125142494D01*
X71703502Y-125032180D01*
X71739812Y-124912482D01*
X71752072Y-124788000D01*
X71749000Y-124323750D01*
X71590250Y-124165000D01*
X70231000Y-124165000D01*
X69977000Y-124165000D01*
X68617750Y-124165000D01*
X68459000Y-124323750D01*
X68455928Y-124788000D01*
X60406000Y-124788000D01*
X60406000Y-123288000D01*
X68455928Y-123288000D01*
X68459000Y-123752250D01*
X68617750Y-123911000D01*
X69977000Y-123911000D01*
X69977000Y-122811750D01*
X70231000Y-122811750D01*
X70231000Y-123911000D01*
X71590250Y-123911000D01*
X71749000Y-123752250D01*
X71752072Y-123288000D01*
X71739812Y-123163518D01*
X71703502Y-123043820D01*
X71644537Y-122933506D01*
X71565185Y-122836815D01*
X71468494Y-122757463D01*
X71358180Y-122698498D01*
X71238482Y-122662188D01*
X71114000Y-122649928D01*
X70389750Y-122653000D01*
X70231000Y-122811750D01*
X69977000Y-122811750D01*
X69818250Y-122653000D01*
X69094000Y-122649928D01*
X68969518Y-122662188D01*
X68849820Y-122698498D01*
X68739506Y-122757463D01*
X68642815Y-122836815D01*
X68563463Y-122933506D01*
X68504498Y-123043820D01*
X68468188Y-123163518D01*
X68455928Y-123288000D01*
X60406000Y-123288000D01*
X60406000Y-120852738D01*
X63903000Y-120852738D01*
X63903000Y-121223262D01*
X63975286Y-121586667D01*
X64117080Y-121928987D01*
X64322932Y-122237067D01*
X64584933Y-122499068D01*
X64893013Y-122704920D01*
X65235333Y-122846714D01*
X65598738Y-122919000D01*
X65969262Y-122919000D01*
X66332667Y-122846714D01*
X66674987Y-122704920D01*
X66983067Y-122499068D01*
X67245068Y-122237067D01*
X67450920Y-121928987D01*
X67592714Y-121586667D01*
X67665000Y-121223262D01*
X67665000Y-120852738D01*
X67592714Y-120489333D01*
X67450920Y-120147013D01*
X67245068Y-119838933D01*
X66983067Y-119576932D01*
X66674987Y-119371080D01*
X66332667Y-119229286D01*
X65969262Y-119157000D01*
X65598738Y-119157000D01*
X65235333Y-119229286D01*
X64893013Y-119371080D01*
X64584933Y-119576932D01*
X64322932Y-119838933D01*
X64117080Y-120147013D01*
X63975286Y-120489333D01*
X63903000Y-120852738D01*
X60406000Y-120852738D01*
X60406000Y-108008738D01*
X63903000Y-108008738D01*
X63903000Y-108379262D01*
X63975286Y-108742667D01*
X64117080Y-109084987D01*
X64322932Y-109393067D01*
X64584933Y-109655068D01*
X64893013Y-109860920D01*
X65235333Y-110002714D01*
X65598738Y-110075000D01*
X65969262Y-110075000D01*
X66332667Y-110002714D01*
X66674987Y-109860920D01*
X66983067Y-109655068D01*
X67242991Y-109395144D01*
X67242990Y-119403088D01*
X67238075Y-119452990D01*
X67247626Y-119549962D01*
X67257692Y-119652160D01*
X67315788Y-119843676D01*
X67410130Y-120020180D01*
X67537094Y-120174886D01*
X67575862Y-120206702D01*
X68773122Y-121403963D01*
X68794037Y-121472909D01*
X68899058Y-121669390D01*
X69040393Y-121841607D01*
X69212610Y-121982942D01*
X69409091Y-122087963D01*
X69622285Y-122152635D01*
X69788442Y-122169000D01*
X70419558Y-122169000D01*
X70585715Y-122152635D01*
X70798909Y-122087963D01*
X70995390Y-121982942D01*
X71167607Y-121841607D01*
X71308942Y-121669390D01*
X71413963Y-121472909D01*
X71478635Y-121259715D01*
X71500472Y-121038000D01*
X71478635Y-120816285D01*
X71413963Y-120603091D01*
X71308942Y-120406610D01*
X71167607Y-120234393D01*
X70995390Y-120093058D01*
X70798909Y-119988037D01*
X70585715Y-119923365D01*
X70419558Y-119907000D01*
X70149841Y-119907000D01*
X69274990Y-119032150D01*
X69274990Y-119016285D01*
X69409091Y-119087963D01*
X69622285Y-119152635D01*
X69788442Y-119169000D01*
X70419558Y-119169000D01*
X70585715Y-119152635D01*
X70798909Y-119087963D01*
X70927179Y-119019401D01*
X73751550Y-121843773D01*
X73709000Y-122057682D01*
X73709000Y-122290318D01*
X73754386Y-122518485D01*
X73843412Y-122733413D01*
X73972658Y-122926843D01*
X74137157Y-123091342D01*
X74330587Y-123220588D01*
X74545515Y-123309614D01*
X74773682Y-123355000D01*
X75006318Y-123355000D01*
X75234485Y-123309614D01*
X75449413Y-123220588D01*
X75642843Y-123091342D01*
X75807342Y-122926843D01*
X75936588Y-122733413D01*
X76025614Y-122518485D01*
X76071000Y-122290318D01*
X76071000Y-122057682D01*
X76025614Y-121829515D01*
X75936588Y-121614587D01*
X75807342Y-121421157D01*
X75642843Y-121256658D01*
X75449413Y-121127412D01*
X75234485Y-121038386D01*
X75006318Y-120993000D01*
X74773682Y-120993000D01*
X74559773Y-121035550D01*
X73041905Y-119517682D01*
X73709000Y-119517682D01*
X73709000Y-119750318D01*
X73754386Y-119978485D01*
X73843412Y-120193413D01*
X73972658Y-120386843D01*
X74137157Y-120551342D01*
X74330587Y-120680588D01*
X74545515Y-120769614D01*
X74773682Y-120815000D01*
X75006318Y-120815000D01*
X75234485Y-120769614D01*
X75449413Y-120680588D01*
X75642843Y-120551342D01*
X75807342Y-120386843D01*
X75936588Y-120193413D01*
X76025614Y-119978485D01*
X76071000Y-119750318D01*
X76071000Y-119517682D01*
X76025614Y-119289515D01*
X75936588Y-119074587D01*
X75807342Y-118881157D01*
X75642843Y-118716658D01*
X75449413Y-118587412D01*
X75234485Y-118498386D01*
X75006318Y-118453000D01*
X74773682Y-118453000D01*
X74545515Y-118498386D01*
X74330587Y-118587412D01*
X74137157Y-118716658D01*
X73972658Y-118881157D01*
X73843412Y-119074587D01*
X73754386Y-119289515D01*
X73709000Y-119517682D01*
X73041905Y-119517682D01*
X71493726Y-117969504D01*
X71478635Y-117816285D01*
X71413963Y-117603091D01*
X71308942Y-117406610D01*
X71167607Y-117234393D01*
X70995390Y-117093058D01*
X70798909Y-116988037D01*
X70585715Y-116923365D01*
X70419558Y-116907000D01*
X69788442Y-116907000D01*
X69622285Y-116923365D01*
X69409091Y-116988037D01*
X69274990Y-117059715D01*
X69274990Y-114903039D01*
X73498096Y-114903039D01*
X73538754Y-115037087D01*
X73658963Y-115291420D01*
X73826481Y-115517414D01*
X74034869Y-115706385D01*
X74276119Y-115851070D01*
X74540960Y-115945909D01*
X74762998Y-115824625D01*
X74762998Y-115915125D01*
X74545515Y-115958386D01*
X74330587Y-116047412D01*
X74137157Y-116176658D01*
X73972658Y-116341157D01*
X73843412Y-116534587D01*
X73754386Y-116749515D01*
X73709000Y-116977682D01*
X73709000Y-117210318D01*
X73754386Y-117438485D01*
X73843412Y-117653413D01*
X73972658Y-117846843D01*
X74137157Y-118011342D01*
X74330587Y-118140588D01*
X74545515Y-118229614D01*
X74773682Y-118275000D01*
X75006318Y-118275000D01*
X75234485Y-118229614D01*
X75449413Y-118140588D01*
X75642843Y-118011342D01*
X75807342Y-117846843D01*
X75936588Y-117653413D01*
X76025614Y-117438485D01*
X76071000Y-117210318D01*
X76071000Y-116977682D01*
X76025614Y-116749515D01*
X75936588Y-116534587D01*
X75807342Y-116341157D01*
X75642843Y-116176658D01*
X75449413Y-116047412D01*
X75234485Y-115958386D01*
X75017002Y-115915125D01*
X75017002Y-115824625D01*
X75239040Y-115945909D01*
X75503881Y-115851070D01*
X75745131Y-115706385D01*
X75953519Y-115517414D01*
X76121037Y-115291420D01*
X76241246Y-115037087D01*
X76281904Y-114903039D01*
X76159915Y-114681000D01*
X75017000Y-114681000D01*
X75017000Y-114701000D01*
X74763000Y-114701000D01*
X74763000Y-114681000D01*
X73620085Y-114681000D01*
X73498096Y-114903039D01*
X69274990Y-114903039D01*
X69274990Y-114204961D01*
X73498096Y-114204961D01*
X73620085Y-114427000D01*
X74763000Y-114427000D01*
X74763000Y-114407000D01*
X75017000Y-114407000D01*
X75017000Y-114427000D01*
X76159915Y-114427000D01*
X76281904Y-114204961D01*
X76241246Y-114070913D01*
X76121037Y-113816580D01*
X75953519Y-113590586D01*
X75745131Y-113401615D01*
X75503881Y-113256930D01*
X75239040Y-113162091D01*
X75017002Y-113283375D01*
X75017002Y-113192875D01*
X75234485Y-113149614D01*
X75449413Y-113060588D01*
X75642843Y-112931342D01*
X75807342Y-112766843D01*
X75936588Y-112573413D01*
X76025614Y-112358485D01*
X76071000Y-112130318D01*
X76071000Y-111897682D01*
X76025614Y-111669515D01*
X75936588Y-111454587D01*
X75807342Y-111261157D01*
X75642843Y-111096658D01*
X75449413Y-110967412D01*
X75234485Y-110878386D01*
X75006318Y-110833000D01*
X74773682Y-110833000D01*
X74545515Y-110878386D01*
X74330587Y-110967412D01*
X74137157Y-111096658D01*
X73972658Y-111261157D01*
X73843412Y-111454587D01*
X73754386Y-111669515D01*
X73709000Y-111897682D01*
X73709000Y-112130318D01*
X73754386Y-112358485D01*
X73843412Y-112573413D01*
X73972658Y-112766843D01*
X74137157Y-112931342D01*
X74330587Y-113060588D01*
X74545515Y-113149614D01*
X74762998Y-113192875D01*
X74762998Y-113283375D01*
X74540960Y-113162091D01*
X74276119Y-113256930D01*
X74034869Y-113401615D01*
X73826481Y-113590586D01*
X73658963Y-113816580D01*
X73538754Y-114070913D01*
X73498096Y-114204961D01*
X69274990Y-114204961D01*
X69274990Y-111081304D01*
X69818250Y-111079000D01*
X69977000Y-110920250D01*
X69977000Y-109821000D01*
X70231000Y-109821000D01*
X70231000Y-110920250D01*
X70389750Y-111079000D01*
X71114000Y-111082072D01*
X71238482Y-111069812D01*
X71358180Y-111033502D01*
X71468494Y-110974537D01*
X71565185Y-110895185D01*
X71644537Y-110798494D01*
X71703502Y-110688180D01*
X71739812Y-110568482D01*
X71752072Y-110444000D01*
X71749000Y-109979750D01*
X71590250Y-109821000D01*
X70231000Y-109821000D01*
X69977000Y-109821000D01*
X69957000Y-109821000D01*
X69957000Y-109567000D01*
X69977000Y-109567000D01*
X69977000Y-108467750D01*
X70231000Y-108467750D01*
X70231000Y-109567000D01*
X71590250Y-109567000D01*
X71749000Y-109408250D01*
X71749334Y-109357682D01*
X73709000Y-109357682D01*
X73709000Y-109590318D01*
X73754386Y-109818485D01*
X73843412Y-110033413D01*
X73972658Y-110226843D01*
X74137157Y-110391342D01*
X74330587Y-110520588D01*
X74545515Y-110609614D01*
X74773682Y-110655000D01*
X75006318Y-110655000D01*
X75234485Y-110609614D01*
X75449413Y-110520588D01*
X75642843Y-110391342D01*
X75807342Y-110226843D01*
X75936588Y-110033413D01*
X76023727Y-109823039D01*
X88738096Y-109823039D01*
X88778754Y-109957087D01*
X88898963Y-110211420D01*
X89066481Y-110437414D01*
X89274869Y-110626385D01*
X89516119Y-110771070D01*
X89780960Y-110865909D01*
X90002998Y-110744625D01*
X90002998Y-110835125D01*
X89785515Y-110878386D01*
X89570587Y-110967412D01*
X89377157Y-111096658D01*
X89212658Y-111261157D01*
X89083412Y-111454587D01*
X88994386Y-111669515D01*
X88949000Y-111897682D01*
X88949000Y-112130318D01*
X88994386Y-112358485D01*
X89083412Y-112573413D01*
X89212658Y-112766843D01*
X89377157Y-112931342D01*
X89570587Y-113060588D01*
X89785515Y-113149614D01*
X90013682Y-113195000D01*
X90246318Y-113195000D01*
X90474485Y-113149614D01*
X90689413Y-113060588D01*
X90882843Y-112931342D01*
X91047342Y-112766843D01*
X91176588Y-112573413D01*
X91265614Y-112358485D01*
X91311000Y-112130318D01*
X91311000Y-111897682D01*
X91265614Y-111669515D01*
X91176588Y-111454587D01*
X91047342Y-111261157D01*
X90882843Y-111096658D01*
X90689413Y-110967412D01*
X90474485Y-110878386D01*
X90257002Y-110835125D01*
X90257002Y-110744625D01*
X90479040Y-110865909D01*
X90743881Y-110771070D01*
X90985131Y-110626385D01*
X91193519Y-110437414D01*
X91361037Y-110211420D01*
X91481246Y-109957087D01*
X91521904Y-109823039D01*
X91399915Y-109601000D01*
X90257000Y-109601000D01*
X90257000Y-109621000D01*
X90003000Y-109621000D01*
X90003000Y-109601000D01*
X88860085Y-109601000D01*
X88738096Y-109823039D01*
X76023727Y-109823039D01*
X76025614Y-109818485D01*
X76071000Y-109590318D01*
X76071000Y-109357682D01*
X76025614Y-109129515D01*
X75936588Y-108914587D01*
X75807342Y-108721157D01*
X75642843Y-108556658D01*
X75449413Y-108427412D01*
X75234485Y-108338386D01*
X75006318Y-108293000D01*
X74773682Y-108293000D01*
X74545515Y-108338386D01*
X74330587Y-108427412D01*
X74137157Y-108556658D01*
X73972658Y-108721157D01*
X73843412Y-108914587D01*
X73754386Y-109129515D01*
X73709000Y-109357682D01*
X71749334Y-109357682D01*
X71752072Y-108944000D01*
X71739812Y-108819518D01*
X71703502Y-108699820D01*
X71644537Y-108589506D01*
X71565185Y-108492815D01*
X71468494Y-108413463D01*
X71358180Y-108354498D01*
X71238482Y-108318188D01*
X71114000Y-108305928D01*
X70389750Y-108309000D01*
X70231000Y-108467750D01*
X69977000Y-108467750D01*
X69872045Y-108362795D01*
X70409841Y-107825000D01*
X70419558Y-107825000D01*
X70585715Y-107808635D01*
X70798909Y-107743963D01*
X70995390Y-107638942D01*
X71167607Y-107497607D01*
X71308942Y-107325390D01*
X71413963Y-107128909D01*
X71434878Y-107059962D01*
X72179842Y-106314999D01*
X73707157Y-106314999D01*
X73707157Y-107734000D01*
X73714513Y-107808689D01*
X73736299Y-107880508D01*
X73771678Y-107946696D01*
X73819289Y-108004711D01*
X73877304Y-108052322D01*
X73943492Y-108087701D01*
X74015311Y-108109487D01*
X74090000Y-108116843D01*
X75690000Y-108116843D01*
X75764689Y-108109487D01*
X75836508Y-108087701D01*
X75902696Y-108052322D01*
X75960711Y-108004711D01*
X76008322Y-107946696D01*
X76043701Y-107880508D01*
X76065487Y-107808689D01*
X76072843Y-107734000D01*
X76072843Y-106314999D01*
X88074159Y-106314999D01*
X88646866Y-106887707D01*
X88646871Y-106887711D01*
X88983645Y-107224485D01*
X88994386Y-107278485D01*
X89083412Y-107493413D01*
X89212658Y-107686843D01*
X89377157Y-107851342D01*
X89570587Y-107980588D01*
X89785515Y-108069614D01*
X90002998Y-108112875D01*
X90002998Y-108203375D01*
X89780960Y-108082091D01*
X89516119Y-108176930D01*
X89274869Y-108321615D01*
X89066481Y-108510586D01*
X88898963Y-108736580D01*
X88778754Y-108990913D01*
X88738096Y-109124961D01*
X88860085Y-109347000D01*
X90003000Y-109347000D01*
X90003000Y-109327000D01*
X90257000Y-109327000D01*
X90257000Y-109347000D01*
X91399915Y-109347000D01*
X91521904Y-109124961D01*
X91481246Y-108990913D01*
X91361037Y-108736580D01*
X91193519Y-108510586D01*
X90985131Y-108321615D01*
X90743881Y-108176930D01*
X90479040Y-108082091D01*
X90257002Y-108203375D01*
X90257002Y-108112875D01*
X90474485Y-108069614D01*
X90689413Y-107980588D01*
X90882843Y-107851342D01*
X91047342Y-107686843D01*
X91176588Y-107493413D01*
X91197055Y-107444000D01*
X93093928Y-107444000D01*
X93106188Y-107568482D01*
X93142498Y-107688180D01*
X93201463Y-107798494D01*
X93280815Y-107895185D01*
X93377506Y-107974537D01*
X93487820Y-108033502D01*
X93607518Y-108069812D01*
X93732000Y-108082072D01*
X94456250Y-108079000D01*
X94615000Y-107920250D01*
X94615000Y-106821000D01*
X94869000Y-106821000D01*
X94869000Y-107920250D01*
X95027750Y-108079000D01*
X95752000Y-108082072D01*
X95876482Y-108069812D01*
X95996180Y-108033502D01*
X96106494Y-107974537D01*
X96203185Y-107895185D01*
X96282537Y-107798494D01*
X96341502Y-107688180D01*
X96377812Y-107568482D01*
X96390072Y-107444000D01*
X96387000Y-106979750D01*
X96228250Y-106821000D01*
X94869000Y-106821000D01*
X94615000Y-106821000D01*
X93255750Y-106821000D01*
X93097000Y-106979750D01*
X93093928Y-107444000D01*
X91197055Y-107444000D01*
X91265614Y-107278485D01*
X91311000Y-107050318D01*
X91311000Y-106817682D01*
X91265614Y-106589515D01*
X91176588Y-106374587D01*
X91047342Y-106181157D01*
X90882843Y-106016658D01*
X90774103Y-105944000D01*
X93093928Y-105944000D01*
X93097000Y-106408250D01*
X93255750Y-106567000D01*
X94615000Y-106567000D01*
X94615000Y-105467750D01*
X94869000Y-105467750D01*
X94869000Y-106567000D01*
X96228250Y-106567000D01*
X96387000Y-106408250D01*
X96390072Y-105944000D01*
X96377812Y-105819518D01*
X96341502Y-105699820D01*
X96282537Y-105589506D01*
X96203185Y-105492815D01*
X96106494Y-105413463D01*
X95996180Y-105354498D01*
X95876482Y-105318188D01*
X95752000Y-105305928D01*
X95027750Y-105309000D01*
X94869000Y-105467750D01*
X94615000Y-105467750D01*
X94456250Y-105309000D01*
X93732000Y-105305928D01*
X93607518Y-105318188D01*
X93487820Y-105354498D01*
X93377506Y-105413463D01*
X93280815Y-105492815D01*
X93201463Y-105589506D01*
X93142498Y-105699820D01*
X93106188Y-105819518D01*
X93093928Y-105944000D01*
X90774103Y-105944000D01*
X90689413Y-105887412D01*
X90474485Y-105798386D01*
X90420485Y-105787645D01*
X90083711Y-105450871D01*
X90083707Y-105450866D01*
X89248711Y-104615871D01*
X89216895Y-104577103D01*
X89062189Y-104450139D01*
X88885686Y-104355797D01*
X88694170Y-104297701D01*
X88544901Y-104282999D01*
X88494999Y-104278084D01*
X88445097Y-104282999D01*
X71808894Y-104282999D01*
X71759000Y-104278085D01*
X71709106Y-104282999D01*
X71709099Y-104282999D01*
X71579178Y-104295795D01*
X71559829Y-104297701D01*
X71501733Y-104315325D01*
X71368314Y-104355797D01*
X71191811Y-104450139D01*
X71037105Y-104577103D01*
X71005293Y-104615866D01*
X70058160Y-105563000D01*
X69788442Y-105563000D01*
X69622285Y-105579365D01*
X69409091Y-105644037D01*
X69212610Y-105749058D01*
X69040393Y-105890393D01*
X68899058Y-106062610D01*
X68794037Y-106259091D01*
X68729365Y-106472285D01*
X68711938Y-106649221D01*
X67613140Y-107748020D01*
X67592714Y-107645333D01*
X67450920Y-107303013D01*
X67245068Y-106994933D01*
X66983067Y-106732932D01*
X66674987Y-106527080D01*
X66332667Y-106385286D01*
X65969262Y-106313000D01*
X65598738Y-106313000D01*
X65235333Y-106385286D01*
X64893013Y-106527080D01*
X64584933Y-106732932D01*
X64322932Y-106994933D01*
X64117080Y-107303013D01*
X63975286Y-107645333D01*
X63903000Y-108008738D01*
X60406000Y-108008738D01*
X60406000Y-96153424D01*
X68357000Y-96153424D01*
X68357000Y-96378576D01*
X68400925Y-96599401D01*
X68487087Y-96807413D01*
X68612174Y-96994620D01*
X68771380Y-97153826D01*
X68958587Y-97278913D01*
X69166599Y-97365075D01*
X69387424Y-97409000D01*
X69612576Y-97409000D01*
X69833401Y-97365075D01*
X70041413Y-97278913D01*
X70228620Y-97153826D01*
X70387826Y-96994620D01*
X70512913Y-96807413D01*
X70599075Y-96599401D01*
X70643000Y-96378576D01*
X70643000Y-96153424D01*
X70897000Y-96153424D01*
X70897000Y-96378576D01*
X70940925Y-96599401D01*
X71027087Y-96807413D01*
X71152174Y-96994620D01*
X71311380Y-97153826D01*
X71498587Y-97278913D01*
X71706599Y-97365075D01*
X71927424Y-97409000D01*
X72152576Y-97409000D01*
X72373401Y-97365075D01*
X72581413Y-97278913D01*
X72768620Y-97153826D01*
X72927826Y-96994620D01*
X73052913Y-96807413D01*
X73139075Y-96599401D01*
X73183000Y-96378576D01*
X73183000Y-96153424D01*
X73139075Y-95932599D01*
X73052913Y-95724587D01*
X72927826Y-95537380D01*
X72768620Y-95378174D01*
X72581413Y-95253087D01*
X72373401Y-95166925D01*
X72152576Y-95123000D01*
X71927424Y-95123000D01*
X71706599Y-95166925D01*
X71498587Y-95253087D01*
X71311380Y-95378174D01*
X71152174Y-95537380D01*
X71027087Y-95724587D01*
X70940925Y-95932599D01*
X70897000Y-96153424D01*
X70643000Y-96153424D01*
X70599075Y-95932599D01*
X70512913Y-95724587D01*
X70387826Y-95537380D01*
X70228620Y-95378174D01*
X70041413Y-95253087D01*
X69833401Y-95166925D01*
X69612576Y-95123000D01*
X69387424Y-95123000D01*
X69166599Y-95166925D01*
X68958587Y-95253087D01*
X68771380Y-95378174D01*
X68612174Y-95537380D01*
X68487087Y-95724587D01*
X68400925Y-95932599D01*
X68357000Y-96153424D01*
X60406000Y-96153424D01*
X60406000Y-93613424D01*
X68357000Y-93613424D01*
X68357000Y-93838576D01*
X68400925Y-94059401D01*
X68487087Y-94267413D01*
X68612174Y-94454620D01*
X68771380Y-94613826D01*
X68958587Y-94738913D01*
X69166599Y-94825075D01*
X69387424Y-94869000D01*
X69612576Y-94869000D01*
X69833401Y-94825075D01*
X70041413Y-94738913D01*
X70228620Y-94613826D01*
X70387826Y-94454620D01*
X70512913Y-94267413D01*
X70599075Y-94059401D01*
X70643000Y-93838576D01*
X70643000Y-93613424D01*
X70897000Y-93613424D01*
X70897000Y-93838576D01*
X70940925Y-94059401D01*
X71027087Y-94267413D01*
X71152174Y-94454620D01*
X71311380Y-94613826D01*
X71498587Y-94738913D01*
X71706599Y-94825075D01*
X71927424Y-94869000D01*
X72152576Y-94869000D01*
X72373401Y-94825075D01*
X72581413Y-94738913D01*
X72768620Y-94613826D01*
X72927826Y-94454620D01*
X73052913Y-94267413D01*
X73139075Y-94059401D01*
X73183000Y-93838576D01*
X73183000Y-93613424D01*
X73139075Y-93392599D01*
X73052913Y-93184587D01*
X72927826Y-92997380D01*
X72768620Y-92838174D01*
X72581413Y-92713087D01*
X72373401Y-92626925D01*
X72152576Y-92583000D01*
X71927424Y-92583000D01*
X71706599Y-92626925D01*
X71498587Y-92713087D01*
X71311380Y-92838174D01*
X71152174Y-92997380D01*
X71027087Y-93184587D01*
X70940925Y-93392599D01*
X70897000Y-93613424D01*
X70643000Y-93613424D01*
X70599075Y-93392599D01*
X70512913Y-93184587D01*
X70387826Y-92997380D01*
X70228620Y-92838174D01*
X70041413Y-92713087D01*
X69833401Y-92626925D01*
X69612576Y-92583000D01*
X69387424Y-92583000D01*
X69166599Y-92626925D01*
X68958587Y-92713087D01*
X68771380Y-92838174D01*
X68612174Y-92997380D01*
X68487087Y-93184587D01*
X68400925Y-93392599D01*
X68357000Y-93613424D01*
X60406000Y-93613424D01*
X60406000Y-91380928D01*
X61798677Y-91380928D01*
X62104859Y-91824503D01*
X62692306Y-92139954D01*
X63330008Y-92334740D01*
X63993457Y-92401372D01*
X64657158Y-92337292D01*
X65295605Y-92144962D01*
X65884262Y-91831772D01*
X65895141Y-91824503D01*
X66201323Y-91380928D01*
X64000000Y-89179605D01*
X61798677Y-91380928D01*
X60406000Y-91380928D01*
X60406000Y-88993457D01*
X60598628Y-88993457D01*
X60662708Y-89657158D01*
X60855038Y-90295605D01*
X61168228Y-90884262D01*
X61175497Y-90895141D01*
X61619072Y-91201323D01*
X63820395Y-89000000D01*
X64179605Y-89000000D01*
X66380928Y-91201323D01*
X66566219Y-91073424D01*
X68357000Y-91073424D01*
X68357000Y-91298576D01*
X68400925Y-91519401D01*
X68487087Y-91727413D01*
X68612174Y-91914620D01*
X68771380Y-92073826D01*
X68958587Y-92198913D01*
X69166599Y-92285075D01*
X69387424Y-92329000D01*
X69612576Y-92329000D01*
X69833401Y-92285075D01*
X70041413Y-92198913D01*
X70228620Y-92073826D01*
X70387826Y-91914620D01*
X70512913Y-91727413D01*
X70599075Y-91519401D01*
X70643000Y-91298576D01*
X70643000Y-91073424D01*
X70897000Y-91073424D01*
X70897000Y-91298576D01*
X70940925Y-91519401D01*
X71027087Y-91727413D01*
X71152174Y-91914620D01*
X71311380Y-92073826D01*
X71498587Y-92198913D01*
X71706599Y-92285075D01*
X71927424Y-92329000D01*
X72152576Y-92329000D01*
X72373401Y-92285075D01*
X72581413Y-92198913D01*
X72768620Y-92073826D01*
X72927826Y-91914620D01*
X73052913Y-91727413D01*
X73139075Y-91519401D01*
X73166619Y-91380928D01*
X98798677Y-91380928D01*
X99104859Y-91824503D01*
X99692306Y-92139954D01*
X100330008Y-92334740D01*
X100993457Y-92401372D01*
X101657158Y-92337292D01*
X102295605Y-92144962D01*
X102884262Y-91831772D01*
X102895141Y-91824503D01*
X103201323Y-91380928D01*
X101000000Y-89179605D01*
X98798677Y-91380928D01*
X73166619Y-91380928D01*
X73183000Y-91298576D01*
X73183000Y-91073424D01*
X73139075Y-90852599D01*
X73052913Y-90644587D01*
X72927826Y-90457380D01*
X72768620Y-90298174D01*
X72581413Y-90173087D01*
X72373401Y-90086925D01*
X72152576Y-90043000D01*
X71927424Y-90043000D01*
X71706599Y-90086925D01*
X71498587Y-90173087D01*
X71311380Y-90298174D01*
X71152174Y-90457380D01*
X71027087Y-90644587D01*
X70940925Y-90852599D01*
X70897000Y-91073424D01*
X70643000Y-91073424D01*
X70599075Y-90852599D01*
X70512913Y-90644587D01*
X70387826Y-90457380D01*
X70228620Y-90298174D01*
X70041413Y-90173087D01*
X69833401Y-90086925D01*
X69612576Y-90043000D01*
X69387424Y-90043000D01*
X69166599Y-90086925D01*
X68958587Y-90173087D01*
X68771380Y-90298174D01*
X68612174Y-90457380D01*
X68487087Y-90644587D01*
X68400925Y-90852599D01*
X68357000Y-91073424D01*
X66566219Y-91073424D01*
X66824503Y-90895141D01*
X67139954Y-90307694D01*
X67334740Y-89669992D01*
X67361052Y-89408000D01*
X68099928Y-89408000D01*
X68112188Y-89532482D01*
X68148498Y-89652180D01*
X68207463Y-89762494D01*
X68286815Y-89859185D01*
X68383506Y-89938537D01*
X68493820Y-89997502D01*
X68613518Y-90033812D01*
X68738000Y-90046072D01*
X69214250Y-90043000D01*
X69373000Y-89884250D01*
X69373000Y-88773000D01*
X69627000Y-88773000D01*
X69627000Y-89884250D01*
X69785750Y-90043000D01*
X70262000Y-90046072D01*
X70386482Y-90033812D01*
X70506180Y-89997502D01*
X70616494Y-89938537D01*
X70713185Y-89859185D01*
X70792537Y-89762494D01*
X70851502Y-89652180D01*
X70887812Y-89532482D01*
X70900072Y-89408000D01*
X70897000Y-88931750D01*
X70738250Y-88773000D01*
X69627000Y-88773000D01*
X69373000Y-88773000D01*
X68261750Y-88773000D01*
X68103000Y-88931750D01*
X68099928Y-89408000D01*
X67361052Y-89408000D01*
X67401372Y-89006543D01*
X67355693Y-88533424D01*
X70897000Y-88533424D01*
X70897000Y-88758576D01*
X70940925Y-88979401D01*
X71027087Y-89187413D01*
X71152174Y-89374620D01*
X71311380Y-89533826D01*
X71498587Y-89658913D01*
X71706599Y-89745075D01*
X71927424Y-89789000D01*
X72152576Y-89789000D01*
X72373401Y-89745075D01*
X72581413Y-89658913D01*
X72768620Y-89533826D01*
X72927826Y-89374620D01*
X73052913Y-89187413D01*
X73133252Y-88993457D01*
X97598628Y-88993457D01*
X97662708Y-89657158D01*
X97855038Y-90295605D01*
X98168228Y-90884262D01*
X98175497Y-90895141D01*
X98619072Y-91201323D01*
X100820395Y-89000000D01*
X101179605Y-89000000D01*
X103380928Y-91201323D01*
X103824503Y-90895141D01*
X104139954Y-90307694D01*
X104334740Y-89669992D01*
X104401372Y-89006543D01*
X104337292Y-88342842D01*
X104144962Y-87704395D01*
X103831772Y-87115738D01*
X103824503Y-87104859D01*
X103380928Y-86798677D01*
X101179605Y-89000000D01*
X100820395Y-89000000D01*
X98619072Y-86798677D01*
X98175497Y-87104859D01*
X97860046Y-87692306D01*
X97665260Y-88330008D01*
X97598628Y-88993457D01*
X73133252Y-88993457D01*
X73139075Y-88979401D01*
X73183000Y-88758576D01*
X73183000Y-88533424D01*
X73139075Y-88312599D01*
X73052913Y-88104587D01*
X72927826Y-87917380D01*
X72768620Y-87758174D01*
X72581413Y-87633087D01*
X72373401Y-87546925D01*
X72152576Y-87503000D01*
X71927424Y-87503000D01*
X71706599Y-87546925D01*
X71498587Y-87633087D01*
X71311380Y-87758174D01*
X71152174Y-87917380D01*
X71027087Y-88104587D01*
X70940925Y-88312599D01*
X70897000Y-88533424D01*
X67355693Y-88533424D01*
X67337292Y-88342842D01*
X67199068Y-87884000D01*
X68099928Y-87884000D01*
X68103000Y-88360250D01*
X68261750Y-88519000D01*
X69373000Y-88519000D01*
X69373000Y-87407750D01*
X69627000Y-87407750D01*
X69627000Y-88519000D01*
X70738250Y-88519000D01*
X70897000Y-88360250D01*
X70900072Y-87884000D01*
X70887812Y-87759518D01*
X70851502Y-87639820D01*
X70792537Y-87529506D01*
X70713185Y-87432815D01*
X70616494Y-87353463D01*
X70506180Y-87294498D01*
X70386482Y-87258188D01*
X70262000Y-87245928D01*
X69785750Y-87249000D01*
X69627000Y-87407750D01*
X69373000Y-87407750D01*
X69214250Y-87249000D01*
X68738000Y-87245928D01*
X68613518Y-87258188D01*
X68493820Y-87294498D01*
X68383506Y-87353463D01*
X68286815Y-87432815D01*
X68207463Y-87529506D01*
X68148498Y-87639820D01*
X68112188Y-87759518D01*
X68099928Y-87884000D01*
X67199068Y-87884000D01*
X67144962Y-87704395D01*
X66831772Y-87115738D01*
X66824503Y-87104859D01*
X66380928Y-86798677D01*
X64179605Y-89000000D01*
X63820395Y-89000000D01*
X61619072Y-86798677D01*
X61175497Y-87104859D01*
X60860046Y-87692306D01*
X60665260Y-88330008D01*
X60598628Y-88993457D01*
X60406000Y-88993457D01*
X60406000Y-86619072D01*
X61798677Y-86619072D01*
X64000000Y-88820395D01*
X66201323Y-86619072D01*
X98798677Y-86619072D01*
X101000000Y-88820395D01*
X103201323Y-86619072D01*
X102895141Y-86175497D01*
X102307694Y-85860046D01*
X101669992Y-85665260D01*
X101006543Y-85598628D01*
X100342842Y-85662708D01*
X99704395Y-85855038D01*
X99115738Y-86168228D01*
X99104859Y-86175497D01*
X98798677Y-86619072D01*
X66201323Y-86619072D01*
X65895141Y-86175497D01*
X65307694Y-85860046D01*
X64669992Y-85665260D01*
X64006543Y-85598628D01*
X63342842Y-85662708D01*
X62704395Y-85855038D01*
X62115738Y-86168228D01*
X62104859Y-86175497D01*
X61798677Y-86619072D01*
X60406000Y-86619072D01*
X60406000Y-85406000D01*
X104594001Y-85406000D01*
X104594000Y-149594000D01*
G36*
X95595289Y-121640711D02*
G01*
X95653304Y-121688322D01*
X95719492Y-121723701D01*
X95791311Y-121745487D01*
X95866000Y-121752843D01*
X96644500Y-121752843D01*
X96644500Y-122129658D01*
X96603304Y-122151678D01*
X96545289Y-122199289D01*
X96497678Y-122257304D01*
X96462299Y-122323492D01*
X96440513Y-122395311D01*
X96433157Y-122470000D01*
X96433157Y-123370000D01*
X96440513Y-123444689D01*
X96462299Y-123516508D01*
X96497678Y-123582696D01*
X96545289Y-123640711D01*
X96569501Y-123660581D01*
X96569500Y-123928289D01*
X96508856Y-123960704D01*
X96414851Y-124037851D01*
X96337704Y-124131856D01*
X96280378Y-124239105D01*
X96266000Y-124286503D01*
X96251622Y-124239105D01*
X96194296Y-124131856D01*
X96117149Y-124037851D01*
X96023144Y-123960704D01*
X95915895Y-123903378D01*
X95887500Y-123894764D01*
X95887500Y-123710342D01*
X95928696Y-123688322D01*
X95986711Y-123640711D01*
X96034322Y-123582696D01*
X96069701Y-123516508D01*
X96091487Y-123444689D01*
X96098843Y-123370000D01*
X96098843Y-122470000D01*
X96091487Y-122395311D01*
X96069701Y-122323492D01*
X96034322Y-122257304D01*
X95986711Y-122199289D01*
X95928696Y-122151678D01*
X95862508Y-122116299D01*
X95790689Y-122094513D01*
X95716000Y-122087157D01*
X94916000Y-122087157D01*
X94841311Y-122094513D01*
X94769492Y-122116299D01*
X94703304Y-122151678D01*
X94645289Y-122199289D01*
X94597678Y-122257304D01*
X94562299Y-122323492D01*
X94540513Y-122395311D01*
X94533157Y-122470000D01*
X94533157Y-123370000D01*
X94540513Y-123444689D01*
X94562299Y-123516508D01*
X94597678Y-123582696D01*
X94645289Y-123640711D01*
X94703304Y-123688322D01*
X94744500Y-123710342D01*
X94744501Y-123972485D01*
X94664851Y-124037851D01*
X94587704Y-124131856D01*
X94530378Y-124239105D01*
X94495077Y-124355477D01*
X94483157Y-124476500D01*
X94483157Y-124951500D01*
X94495077Y-125072523D01*
X94530378Y-125188895D01*
X94587704Y-125296144D01*
X94664851Y-125390149D01*
X94758856Y-125467296D01*
X94866105Y-125524622D01*
X94982477Y-125559923D01*
X95103500Y-125571843D01*
X95440621Y-125571843D01*
X96456500Y-126587723D01*
X96456500Y-126720999D01*
X96421358Y-126756141D01*
X96335887Y-126884058D01*
X96277013Y-127026191D01*
X96247000Y-127177078D01*
X96247000Y-127330922D01*
X96277013Y-127481809D01*
X96335887Y-127623942D01*
X96421358Y-127751859D01*
X96530141Y-127860642D01*
X96658058Y-127946113D01*
X96800191Y-128004987D01*
X96951078Y-128035000D01*
X97104922Y-128035000D01*
X97255809Y-128004987D01*
X97397942Y-127946113D01*
X97525859Y-127860642D01*
X97634642Y-127751859D01*
X97720113Y-127623942D01*
X97778987Y-127481809D01*
X97786330Y-127444892D01*
X99659380Y-125571843D01*
X99996500Y-125571843D01*
X100117523Y-125559923D01*
X100233895Y-125524622D01*
X100341144Y-125467296D01*
X100435149Y-125390149D01*
X100512296Y-125296144D01*
X100569622Y-125188895D01*
X100584000Y-125141497D01*
X100598378Y-125188895D01*
X100655704Y-125296144D01*
X100732851Y-125390149D01*
X100826856Y-125467296D01*
X100934105Y-125524622D01*
X101050477Y-125559923D01*
X101171500Y-125571843D01*
X101415934Y-125571843D01*
X96714010Y-130273768D01*
X96714010Y-129056761D01*
X96716775Y-129028689D01*
X96710940Y-128969448D01*
X96705741Y-128916656D01*
X96673062Y-128808928D01*
X96619994Y-128709645D01*
X96548577Y-128622623D01*
X96526767Y-128604724D01*
X94043500Y-126121458D01*
X94043500Y-123603985D01*
X94054144Y-123598296D01*
X94148149Y-123521149D01*
X94225296Y-123427144D01*
X94282622Y-123319895D01*
X94317923Y-123203523D01*
X94329843Y-123082500D01*
X94329843Y-122507500D01*
X94317923Y-122386477D01*
X94282622Y-122270105D01*
X94225296Y-122162856D01*
X94148149Y-122068851D01*
X94054144Y-121991704D01*
X93946895Y-121934378D01*
X93899497Y-121920000D01*
X93946895Y-121905622D01*
X94054144Y-121848296D01*
X94148149Y-121771149D01*
X94225296Y-121677144D01*
X94257711Y-121616500D01*
X95575420Y-121616500D01*
X95595289Y-121640711D01*
G37*
X95595289Y-121640711D02*
X95653304Y-121688322D01*
X95719492Y-121723701D01*
X95791311Y-121745487D01*
X95866000Y-121752843D01*
X96644500Y-121752843D01*
X96644500Y-122129658D01*
X96603304Y-122151678D01*
X96545289Y-122199289D01*
X96497678Y-122257304D01*
X96462299Y-122323492D01*
X96440513Y-122395311D01*
X96433157Y-122470000D01*
X96433157Y-123370000D01*
X96440513Y-123444689D01*
X96462299Y-123516508D01*
X96497678Y-123582696D01*
X96545289Y-123640711D01*
X96569501Y-123660581D01*
X96569500Y-123928289D01*
X96508856Y-123960704D01*
X96414851Y-124037851D01*
X96337704Y-124131856D01*
X96280378Y-124239105D01*
X96266000Y-124286503D01*
X96251622Y-124239105D01*
X96194296Y-124131856D01*
X96117149Y-124037851D01*
X96023144Y-123960704D01*
X95915895Y-123903378D01*
X95887500Y-123894764D01*
X95887500Y-123710342D01*
X95928696Y-123688322D01*
X95986711Y-123640711D01*
X96034322Y-123582696D01*
X96069701Y-123516508D01*
X96091487Y-123444689D01*
X96098843Y-123370000D01*
X96098843Y-122470000D01*
X96091487Y-122395311D01*
X96069701Y-122323492D01*
X96034322Y-122257304D01*
X95986711Y-122199289D01*
X95928696Y-122151678D01*
X95862508Y-122116299D01*
X95790689Y-122094513D01*
X95716000Y-122087157D01*
X94916000Y-122087157D01*
X94841311Y-122094513D01*
X94769492Y-122116299D01*
X94703304Y-122151678D01*
X94645289Y-122199289D01*
X94597678Y-122257304D01*
X94562299Y-122323492D01*
X94540513Y-122395311D01*
X94533157Y-122470000D01*
X94533157Y-123370000D01*
X94540513Y-123444689D01*
X94562299Y-123516508D01*
X94597678Y-123582696D01*
X94645289Y-123640711D01*
X94703304Y-123688322D01*
X94744500Y-123710342D01*
X94744501Y-123972485D01*
X94664851Y-124037851D01*
X94587704Y-124131856D01*
X94530378Y-124239105D01*
X94495077Y-124355477D01*
X94483157Y-124476500D01*
X94483157Y-124951500D01*
X94495077Y-125072523D01*
X94530378Y-125188895D01*
X94587704Y-125296144D01*
X94664851Y-125390149D01*
X94758856Y-125467296D01*
X94866105Y-125524622D01*
X94982477Y-125559923D01*
X95103500Y-125571843D01*
X95440621Y-125571843D01*
X96456500Y-126587723D01*
X96456500Y-126720999D01*
X96421358Y-126756141D01*
X96335887Y-126884058D01*
X96277013Y-127026191D01*
X96247000Y-127177078D01*
X96247000Y-127330922D01*
X96277013Y-127481809D01*
X96335887Y-127623942D01*
X96421358Y-127751859D01*
X96530141Y-127860642D01*
X96658058Y-127946113D01*
X96800191Y-128004987D01*
X96951078Y-128035000D01*
X97104922Y-128035000D01*
X97255809Y-128004987D01*
X97397942Y-127946113D01*
X97525859Y-127860642D01*
X97634642Y-127751859D01*
X97720113Y-127623942D01*
X97778987Y-127481809D01*
X97786330Y-127444892D01*
X99659380Y-125571843D01*
X99996500Y-125571843D01*
X100117523Y-125559923D01*
X100233895Y-125524622D01*
X100341144Y-125467296D01*
X100435149Y-125390149D01*
X100512296Y-125296144D01*
X100569622Y-125188895D01*
X100584000Y-125141497D01*
X100598378Y-125188895D01*
X100655704Y-125296144D01*
X100732851Y-125390149D01*
X100826856Y-125467296D01*
X100934105Y-125524622D01*
X101050477Y-125559923D01*
X101171500Y-125571843D01*
X101415934Y-125571843D01*
X96714010Y-130273768D01*
X96714010Y-129056761D01*
X96716775Y-129028689D01*
X96710940Y-128969448D01*
X96705741Y-128916656D01*
X96673062Y-128808928D01*
X96619994Y-128709645D01*
X96548577Y-128622623D01*
X96526767Y-128604724D01*
X94043500Y-126121458D01*
X94043500Y-123603985D01*
X94054144Y-123598296D01*
X94148149Y-123521149D01*
X94225296Y-123427144D01*
X94282622Y-123319895D01*
X94317923Y-123203523D01*
X94329843Y-123082500D01*
X94329843Y-122507500D01*
X94317923Y-122386477D01*
X94282622Y-122270105D01*
X94225296Y-122162856D01*
X94148149Y-122068851D01*
X94054144Y-121991704D01*
X93946895Y-121934378D01*
X93899497Y-121920000D01*
X93946895Y-121905622D01*
X94054144Y-121848296D01*
X94148149Y-121771149D01*
X94225296Y-121677144D01*
X94257711Y-121616500D01*
X95575420Y-121616500D01*
X95595289Y-121640711D01*
G36*
X98890034Y-122304257D02*
G01*
X98890365Y-122304660D01*
X98880299Y-122323492D01*
X98858513Y-122395311D01*
X98851157Y-122470000D01*
X98851157Y-123370000D01*
X98858513Y-123444689D01*
X98880299Y-123516508D01*
X98915678Y-123582696D01*
X98963289Y-123640711D01*
X99021304Y-123688322D01*
X99062500Y-123710342D01*
X99062501Y-123972485D01*
X98982851Y-124037851D01*
X98905704Y-124131856D01*
X98848378Y-124239105D01*
X98813077Y-124355477D01*
X98801157Y-124476500D01*
X98801157Y-124813620D01*
X97532423Y-126082355D01*
X97505484Y-126031955D01*
X97434067Y-125944933D01*
X97412257Y-125927034D01*
X97057066Y-125571843D01*
X97428500Y-125571843D01*
X97549523Y-125559923D01*
X97665895Y-125524622D01*
X97773144Y-125467296D01*
X97867149Y-125390149D01*
X97944296Y-125296144D01*
X98001622Y-125188895D01*
X98036923Y-125072523D01*
X98048843Y-124951500D01*
X98048843Y-124476500D01*
X98036923Y-124355477D01*
X98001622Y-124239105D01*
X97944296Y-124131856D01*
X97867149Y-124037851D01*
X97773144Y-123960704D01*
X97712500Y-123928289D01*
X97712500Y-123738871D01*
X97762508Y-123723701D01*
X97828696Y-123688322D01*
X97886711Y-123640711D01*
X97934322Y-123582696D01*
X97969701Y-123516508D01*
X97991487Y-123444689D01*
X97998843Y-123370000D01*
X97998843Y-122470000D01*
X97991487Y-122395311D01*
X97969701Y-122323492D01*
X97934322Y-122257304D01*
X97886711Y-122199289D01*
X97828696Y-122151678D01*
X97787500Y-122129658D01*
X97787500Y-121201722D01*
X98890034Y-122304257D01*
G37*
X98890034Y-122304257D02*
X98890365Y-122304660D01*
X98880299Y-122323492D01*
X98858513Y-122395311D01*
X98851157Y-122470000D01*
X98851157Y-123370000D01*
X98858513Y-123444689D01*
X98880299Y-123516508D01*
X98915678Y-123582696D01*
X98963289Y-123640711D01*
X99021304Y-123688322D01*
X99062500Y-123710342D01*
X99062501Y-123972485D01*
X98982851Y-124037851D01*
X98905704Y-124131856D01*
X98848378Y-124239105D01*
X98813077Y-124355477D01*
X98801157Y-124476500D01*
X98801157Y-124813620D01*
X97532423Y-126082355D01*
X97505484Y-126031955D01*
X97434067Y-125944933D01*
X97412257Y-125927034D01*
X97057066Y-125571843D01*
X97428500Y-125571843D01*
X97549523Y-125559923D01*
X97665895Y-125524622D01*
X97773144Y-125467296D01*
X97867149Y-125390149D01*
X97944296Y-125296144D01*
X98001622Y-125188895D01*
X98036923Y-125072523D01*
X98048843Y-124951500D01*
X98048843Y-124476500D01*
X98036923Y-124355477D01*
X98001622Y-124239105D01*
X97944296Y-124131856D01*
X97867149Y-124037851D01*
X97773144Y-123960704D01*
X97712500Y-123928289D01*
X97712500Y-123738871D01*
X97762508Y-123723701D01*
X97828696Y-123688322D01*
X97886711Y-123640711D01*
X97934322Y-123582696D01*
X97969701Y-123516508D01*
X97991487Y-123444689D01*
X97998843Y-123370000D01*
X97998843Y-122470000D01*
X97991487Y-122395311D01*
X97969701Y-122323492D01*
X97934322Y-122257304D01*
X97886711Y-122199289D01*
X97828696Y-122151678D01*
X97787500Y-122129658D01*
X97787500Y-121201722D01*
X98890034Y-122304257D01*
G36*
X92557933Y-116484067D02*
G01*
X92579748Y-116501970D01*
X94826034Y-118748257D01*
X94843933Y-118770067D01*
X94930955Y-118841484D01*
X94933552Y-118842872D01*
X96177836Y-120087157D01*
X95866000Y-120087157D01*
X95791311Y-120094513D01*
X95719492Y-120116299D01*
X95653304Y-120151678D01*
X95595289Y-120199289D01*
X95547678Y-120257304D01*
X95512299Y-120323492D01*
X95490513Y-120395311D01*
X95483157Y-120470000D01*
X95483157Y-120473500D01*
X94257711Y-120473500D01*
X94225296Y-120412856D01*
X94148149Y-120318851D01*
X94054144Y-120241704D01*
X93946895Y-120184378D01*
X93830523Y-120149077D01*
X93709500Y-120137157D01*
X93234500Y-120137157D01*
X93113477Y-120149077D01*
X92997105Y-120184378D01*
X92889856Y-120241704D01*
X92795851Y-120318851D01*
X92718704Y-120412856D01*
X92661378Y-120520105D01*
X92636734Y-120601345D01*
X92590933Y-120638933D01*
X92573036Y-120660741D01*
X91288618Y-121945160D01*
X91268450Y-121843772D01*
X92332258Y-120779965D01*
X92354067Y-120762067D01*
X92425484Y-120675045D01*
X92478552Y-120575762D01*
X92511231Y-120468034D01*
X92519500Y-120384074D01*
X92519500Y-120384073D01*
X92522265Y-120356001D01*
X92519500Y-120327929D01*
X92519500Y-116437236D01*
X92557933Y-116484067D01*
G37*
X92557933Y-116484067D02*
X92579748Y-116501970D01*
X94826034Y-118748257D01*
X94843933Y-118770067D01*
X94930955Y-118841484D01*
X94933552Y-118842872D01*
X96177836Y-120087157D01*
X95866000Y-120087157D01*
X95791311Y-120094513D01*
X95719492Y-120116299D01*
X95653304Y-120151678D01*
X95595289Y-120199289D01*
X95547678Y-120257304D01*
X95512299Y-120323492D01*
X95490513Y-120395311D01*
X95483157Y-120470000D01*
X95483157Y-120473500D01*
X94257711Y-120473500D01*
X94225296Y-120412856D01*
X94148149Y-120318851D01*
X94054144Y-120241704D01*
X93946895Y-120184378D01*
X93830523Y-120149077D01*
X93709500Y-120137157D01*
X93234500Y-120137157D01*
X93113477Y-120149077D01*
X92997105Y-120184378D01*
X92889856Y-120241704D01*
X92795851Y-120318851D01*
X92718704Y-120412856D01*
X92661378Y-120520105D01*
X92636734Y-120601345D01*
X92590933Y-120638933D01*
X92573036Y-120660741D01*
X91288618Y-121945160D01*
X91268450Y-121843772D01*
X92332258Y-120779965D01*
X92354067Y-120762067D01*
X92425484Y-120675045D01*
X92478552Y-120575762D01*
X92511231Y-120468034D01*
X92519500Y-120384074D01*
X92519500Y-120384073D01*
X92522265Y-120356001D01*
X92519500Y-120327929D01*
X92519500Y-116437236D01*
X92557933Y-116484067D01*
G36*
X96599999Y-112648222D02*
G01*
X96600000Y-115685415D01*
X96597234Y-115713499D01*
X96608268Y-115825532D01*
X96640947Y-115933260D01*
X96694015Y-116032543D01*
X96703222Y-116043762D01*
X96765433Y-116119566D01*
X96787243Y-116137465D01*
X100012500Y-119362723D01*
X100012501Y-120129657D01*
X99971304Y-120151678D01*
X99913289Y-120199289D01*
X99865678Y-120257304D01*
X99830299Y-120323492D01*
X99808513Y-120395311D01*
X99801157Y-120470000D01*
X99801157Y-121348500D01*
X99550723Y-121348500D01*
X98368510Y-120166288D01*
X98368510Y-120104510D01*
X98371275Y-120076436D01*
X98361500Y-119977186D01*
X98361500Y-118900074D01*
X98364265Y-118872000D01*
X98353231Y-118759966D01*
X98320552Y-118652238D01*
X98267484Y-118552955D01*
X98236732Y-118515484D01*
X98196067Y-118465933D01*
X98174258Y-118448035D01*
X95983401Y-116257179D01*
X96051963Y-116128909D01*
X96116635Y-115915715D01*
X96138472Y-115694000D01*
X96116635Y-115472285D01*
X96051963Y-115259091D01*
X95946942Y-115062610D01*
X95805607Y-114890393D01*
X95633390Y-114749058D01*
X95436909Y-114644037D01*
X95223715Y-114579365D01*
X95057558Y-114563000D01*
X94426442Y-114563000D01*
X94260285Y-114579365D01*
X94047091Y-114644037D01*
X93850610Y-114749058D01*
X93678393Y-114890393D01*
X93537058Y-115062610D01*
X93535500Y-115065525D01*
X93535500Y-114536722D01*
X94263291Y-113808931D01*
X94426442Y-113825000D01*
X95057558Y-113825000D01*
X95223715Y-113808635D01*
X95436909Y-113743963D01*
X95633390Y-113638942D01*
X95805607Y-113497607D01*
X95946942Y-113325390D01*
X96051963Y-113128909D01*
X96116635Y-112915715D01*
X96138472Y-112694000D01*
X96116635Y-112472285D01*
X96051963Y-112259091D01*
X95946942Y-112062610D01*
X95805607Y-111890393D01*
X95724098Y-111823500D01*
X95775278Y-111823500D01*
X96599999Y-112648222D01*
G37*
X96599999Y-112648222D02*
X96600000Y-115685415D01*
X96597234Y-115713499D01*
X96608268Y-115825532D01*
X96640947Y-115933260D01*
X96694015Y-116032543D01*
X96703222Y-116043762D01*
X96765433Y-116119566D01*
X96787243Y-116137465D01*
X100012500Y-119362723D01*
X100012501Y-120129657D01*
X99971304Y-120151678D01*
X99913289Y-120199289D01*
X99865678Y-120257304D01*
X99830299Y-120323492D01*
X99808513Y-120395311D01*
X99801157Y-120470000D01*
X99801157Y-121348500D01*
X99550723Y-121348500D01*
X98368510Y-120166288D01*
X98368510Y-120104510D01*
X98371275Y-120076436D01*
X98361500Y-119977186D01*
X98361500Y-118900074D01*
X98364265Y-118872000D01*
X98353231Y-118759966D01*
X98320552Y-118652238D01*
X98267484Y-118552955D01*
X98236732Y-118515484D01*
X98196067Y-118465933D01*
X98174258Y-118448035D01*
X95983401Y-116257179D01*
X96051963Y-116128909D01*
X96116635Y-115915715D01*
X96138472Y-115694000D01*
X96116635Y-115472285D01*
X96051963Y-115259091D01*
X95946942Y-115062610D01*
X95805607Y-114890393D01*
X95633390Y-114749058D01*
X95436909Y-114644037D01*
X95223715Y-114579365D01*
X95057558Y-114563000D01*
X94426442Y-114563000D01*
X94260285Y-114579365D01*
X94047091Y-114644037D01*
X93850610Y-114749058D01*
X93678393Y-114890393D01*
X93537058Y-115062610D01*
X93535500Y-115065525D01*
X93535500Y-114536722D01*
X94263291Y-113808931D01*
X94426442Y-113825000D01*
X95057558Y-113825000D01*
X95223715Y-113808635D01*
X95436909Y-113743963D01*
X95633390Y-113638942D01*
X95805607Y-113497607D01*
X95946942Y-113325390D01*
X96051963Y-113128909D01*
X96116635Y-112915715D01*
X96138472Y-112694000D01*
X96116635Y-112472285D01*
X96051963Y-112259091D01*
X95946942Y-112062610D01*
X95805607Y-111890393D01*
X95724098Y-111823500D01*
X95775278Y-111823500D01*
X96599999Y-112648222D01*
M02*
