G04 #@! TF.GenerationSoftware,KiCad,Pcbnew,(5.1.5)-3*
G04 #@! TF.CreationDate,2020-05-08T22:00:03-06:00*
G04 #@! TF.ProjectId,fluid,666c7569-642e-46b6-9963-61645f706362,rev?*
G04 #@! TF.SameCoordinates,Original*
G04 #@! TF.FileFunction,Legend,Top*
G04 #@! TF.FilePolarity,Positive*
%FSLAX46Y46*%
G04 Gerber Fmt 4.6, Leading zero omitted, Abs format (unit mm)*
G04 Created by KiCad (PCBNEW (5.1.5)-3) date 2020-05-08 22:00:03*
%MOMM*%
%LPD*%
G04 APERTURE LIST*
%ADD10C,0.200000*%
%ADD11C,0.300000*%
%ADD12C,0.150000*%
%ADD13C,0.120000*%
G04 APERTURE END LIST*
D10*
X102295428Y-97640857D02*
X102981142Y-97640857D01*
X102638285Y-98840857D02*
X102638285Y-97640857D01*
X103266857Y-98840857D02*
X103895428Y-98040857D01*
X103266857Y-98040857D02*
X103895428Y-98840857D01*
X103009714Y-96046857D02*
X102609714Y-95475428D01*
X102324000Y-96046857D02*
X102324000Y-94846857D01*
X102781142Y-94846857D01*
X102895428Y-94904000D01*
X102952571Y-94961142D01*
X103009714Y-95075428D01*
X103009714Y-95246857D01*
X102952571Y-95361142D01*
X102895428Y-95418285D01*
X102781142Y-95475428D01*
X102324000Y-95475428D01*
X103409714Y-96046857D02*
X104038285Y-95246857D01*
X103409714Y-95246857D02*
X104038285Y-96046857D01*
D11*
X62543428Y-94234285D02*
X61043428Y-94734285D01*
X62543428Y-95234285D01*
X61043428Y-96520000D02*
X61043428Y-95662857D01*
X61043428Y-96091428D02*
X62543428Y-96091428D01*
X62329142Y-95948571D01*
X62186285Y-95805714D01*
X62114857Y-95662857D01*
X61186285Y-97162857D02*
X61114857Y-97234285D01*
X61043428Y-97162857D01*
X61114857Y-97091428D01*
X61186285Y-97162857D01*
X61043428Y-97162857D01*
X62543428Y-98162857D02*
X62543428Y-98305714D01*
X62472000Y-98448571D01*
X62400571Y-98520000D01*
X62257714Y-98591428D01*
X61972000Y-98662857D01*
X61614857Y-98662857D01*
X61329142Y-98591428D01*
X61186285Y-98520000D01*
X61114857Y-98448571D01*
X61043428Y-98305714D01*
X61043428Y-98162857D01*
X61114857Y-98020000D01*
X61186285Y-97948571D01*
X61329142Y-97877142D01*
X61614857Y-97805714D01*
X61972000Y-97805714D01*
X62257714Y-97877142D01*
X62400571Y-97948571D01*
X62472000Y-98020000D01*
X62543428Y-98162857D01*
D12*
X72890000Y-108966095D02*
X72937619Y-108870857D01*
X72937619Y-108728000D01*
X72890000Y-108585142D01*
X72794761Y-108489904D01*
X72699523Y-108442285D01*
X72509047Y-108394666D01*
X72366190Y-108394666D01*
X72175714Y-108442285D01*
X72080476Y-108489904D01*
X71985238Y-108585142D01*
X71937619Y-108728000D01*
X71937619Y-108823238D01*
X71985238Y-108966095D01*
X72032857Y-109013714D01*
X72366190Y-109013714D01*
X72366190Y-108823238D01*
X71937619Y-109442285D02*
X72937619Y-109442285D01*
X71937619Y-110013714D01*
X72937619Y-110013714D01*
X71937619Y-110489904D02*
X72937619Y-110489904D01*
X72937619Y-110728000D01*
X72890000Y-110870857D01*
X72794761Y-110966095D01*
X72699523Y-111013714D01*
X72509047Y-111061333D01*
X72366190Y-111061333D01*
X72175714Y-111013714D01*
X72080476Y-110966095D01*
X71985238Y-110870857D01*
X71937619Y-110728000D01*
X71937619Y-110489904D01*
X71937619Y-105608571D02*
X72937619Y-105608571D01*
X72604285Y-106084761D02*
X71937619Y-106084761D01*
X72509047Y-106084761D02*
X72556666Y-106132380D01*
X72604285Y-106227619D01*
X72604285Y-106370476D01*
X72556666Y-106465714D01*
X72461428Y-106513333D01*
X71937619Y-106513333D01*
X72318571Y-106989523D02*
X72318571Y-107751428D01*
X71937619Y-107370476D02*
X72699523Y-107370476D01*
X72683619Y-118713523D02*
X71683619Y-119046857D01*
X72683619Y-119380190D01*
X71683619Y-121046857D02*
X72159809Y-120713523D01*
X71683619Y-120475428D02*
X72683619Y-120475428D01*
X72683619Y-120856380D01*
X72636000Y-120951619D01*
X72588380Y-120999238D01*
X72493142Y-121046857D01*
X72350285Y-121046857D01*
X72255047Y-120999238D01*
X72207428Y-120951619D01*
X72159809Y-120856380D01*
X72159809Y-120475428D01*
X71683619Y-121904000D02*
X72207428Y-121904000D01*
X72302666Y-121856380D01*
X72350285Y-121761142D01*
X72350285Y-121570666D01*
X72302666Y-121475428D01*
X71731238Y-121904000D02*
X71683619Y-121808761D01*
X71683619Y-121570666D01*
X71731238Y-121475428D01*
X71826476Y-121427809D01*
X71921714Y-121427809D01*
X72016952Y-121475428D01*
X72064571Y-121570666D01*
X72064571Y-121808761D01*
X72112190Y-121904000D01*
X72350285Y-122284952D02*
X71683619Y-122475428D01*
X72159809Y-122665904D01*
X71683619Y-122856380D01*
X72350285Y-123046857D01*
X72683619Y-133191523D02*
X71683619Y-133524857D01*
X72683619Y-133858190D01*
X71683619Y-135524857D02*
X72159809Y-135191523D01*
X71683619Y-134953428D02*
X72683619Y-134953428D01*
X72683619Y-135334380D01*
X72636000Y-135429619D01*
X72588380Y-135477238D01*
X72493142Y-135524857D01*
X72350285Y-135524857D01*
X72255047Y-135477238D01*
X72207428Y-135429619D01*
X72159809Y-135334380D01*
X72159809Y-134953428D01*
X71683619Y-136382000D02*
X72207428Y-136382000D01*
X72302666Y-136334380D01*
X72350285Y-136239142D01*
X72350285Y-136048666D01*
X72302666Y-135953428D01*
X71731238Y-136382000D02*
X71683619Y-136286761D01*
X71683619Y-136048666D01*
X71731238Y-135953428D01*
X71826476Y-135905809D01*
X71921714Y-135905809D01*
X72016952Y-135953428D01*
X72064571Y-136048666D01*
X72064571Y-136286761D01*
X72112190Y-136382000D01*
X72350285Y-136762952D02*
X71683619Y-136953428D01*
X72159809Y-137143904D01*
X71683619Y-137334380D01*
X72350285Y-137524857D01*
X92527428Y-130174952D02*
X92527428Y-129413047D01*
X92527428Y-133222952D02*
X92527428Y-132461047D01*
X92908380Y-132842000D02*
X92146476Y-132842000D01*
X92527428Y-107060952D02*
X92527428Y-106299047D01*
X92527428Y-110108952D02*
X92527428Y-109347047D01*
X92908380Y-109728000D02*
X92146476Y-109728000D01*
X92860761Y-117014476D02*
X92908380Y-116871619D01*
X92908380Y-116633523D01*
X92860761Y-116538285D01*
X92813142Y-116490666D01*
X92717904Y-116443047D01*
X92622666Y-116443047D01*
X92527428Y-116490666D01*
X92479809Y-116538285D01*
X92432190Y-116633523D01*
X92384571Y-116824000D01*
X92336952Y-116919238D01*
X92289333Y-116966857D01*
X92194095Y-117014476D01*
X92098857Y-117014476D01*
X92003619Y-116966857D01*
X91956000Y-116919238D01*
X91908380Y-116824000D01*
X91908380Y-116585904D01*
X91956000Y-116443047D01*
X92813142Y-115443047D02*
X92860761Y-115490666D01*
X92908380Y-115633523D01*
X92908380Y-115728761D01*
X92860761Y-115871619D01*
X92765523Y-115966857D01*
X92670285Y-116014476D01*
X92479809Y-116062095D01*
X92336952Y-116062095D01*
X92146476Y-116014476D01*
X92051238Y-115966857D01*
X91956000Y-115871619D01*
X91908380Y-115728761D01*
X91908380Y-115633523D01*
X91956000Y-115490666D01*
X92003619Y-115443047D01*
X92908380Y-114538285D02*
X92908380Y-115014476D01*
X91908380Y-115014476D01*
X92860761Y-113990285D02*
X92908380Y-113847428D01*
X92908380Y-113609333D01*
X92860761Y-113514095D01*
X92813142Y-113466476D01*
X92717904Y-113418857D01*
X92622666Y-113418857D01*
X92527428Y-113466476D01*
X92479809Y-113514095D01*
X92432190Y-113609333D01*
X92384571Y-113799809D01*
X92336952Y-113895047D01*
X92289333Y-113942666D01*
X92194095Y-113990285D01*
X92098857Y-113990285D01*
X92003619Y-113942666D01*
X91956000Y-113895047D01*
X91908380Y-113799809D01*
X91908380Y-113561714D01*
X91956000Y-113418857D01*
X92908380Y-112990285D02*
X91908380Y-112990285D01*
X91908380Y-112752190D01*
X91956000Y-112609333D01*
X92051238Y-112514095D01*
X92146476Y-112466476D01*
X92336952Y-112418857D01*
X92479809Y-112418857D01*
X92670285Y-112466476D01*
X92765523Y-112514095D01*
X92860761Y-112609333D01*
X92908380Y-112752190D01*
X92908380Y-112990285D01*
X92622666Y-112037904D02*
X92622666Y-111561714D01*
X92908380Y-112133142D02*
X91908380Y-111799809D01*
X92908380Y-111466476D01*
X92860761Y-140128476D02*
X92908380Y-139985619D01*
X92908380Y-139747523D01*
X92860761Y-139652285D01*
X92813142Y-139604666D01*
X92717904Y-139557047D01*
X92622666Y-139557047D01*
X92527428Y-139604666D01*
X92479809Y-139652285D01*
X92432190Y-139747523D01*
X92384571Y-139938000D01*
X92336952Y-140033238D01*
X92289333Y-140080857D01*
X92194095Y-140128476D01*
X92098857Y-140128476D01*
X92003619Y-140080857D01*
X91956000Y-140033238D01*
X91908380Y-139938000D01*
X91908380Y-139699904D01*
X91956000Y-139557047D01*
X92813142Y-138557047D02*
X92860761Y-138604666D01*
X92908380Y-138747523D01*
X92908380Y-138842761D01*
X92860761Y-138985619D01*
X92765523Y-139080857D01*
X92670285Y-139128476D01*
X92479809Y-139176095D01*
X92336952Y-139176095D01*
X92146476Y-139128476D01*
X92051238Y-139080857D01*
X91956000Y-138985619D01*
X91908380Y-138842761D01*
X91908380Y-138747523D01*
X91956000Y-138604666D01*
X92003619Y-138557047D01*
X92908380Y-137652285D02*
X92908380Y-138128476D01*
X91908380Y-138128476D01*
X92860761Y-137104285D02*
X92908380Y-136961428D01*
X92908380Y-136723333D01*
X92860761Y-136628095D01*
X92813142Y-136580476D01*
X92717904Y-136532857D01*
X92622666Y-136532857D01*
X92527428Y-136580476D01*
X92479809Y-136628095D01*
X92432190Y-136723333D01*
X92384571Y-136913809D01*
X92336952Y-137009047D01*
X92289333Y-137056666D01*
X92194095Y-137104285D01*
X92098857Y-137104285D01*
X92003619Y-137056666D01*
X91956000Y-137009047D01*
X91908380Y-136913809D01*
X91908380Y-136675714D01*
X91956000Y-136532857D01*
X92908380Y-136104285D02*
X91908380Y-136104285D01*
X91908380Y-135866190D01*
X91956000Y-135723333D01*
X92051238Y-135628095D01*
X92146476Y-135580476D01*
X92336952Y-135532857D01*
X92479809Y-135532857D01*
X92670285Y-135580476D01*
X92765523Y-135628095D01*
X92860761Y-135723333D01*
X92908380Y-135866190D01*
X92908380Y-136104285D01*
X92622666Y-135151904D02*
X92622666Y-134675714D01*
X92908380Y-135247142D02*
X91908380Y-134913809D01*
X92908380Y-134580476D01*
X93916571Y-142962380D02*
X93440380Y-142962380D01*
X93392761Y-143438571D01*
X93440380Y-143390952D01*
X93535619Y-143343333D01*
X93773714Y-143343333D01*
X93868952Y-143390952D01*
X93916571Y-143438571D01*
X93964190Y-143533809D01*
X93964190Y-143771904D01*
X93916571Y-143867142D01*
X93868952Y-143914761D01*
X93773714Y-143962380D01*
X93535619Y-143962380D01*
X93440380Y-143914761D01*
X93392761Y-143867142D01*
X95011809Y-142962380D02*
X95345142Y-143962380D01*
X95678476Y-142962380D01*
X99996857Y-101306380D02*
X100615904Y-101306380D01*
X100282571Y-101687333D01*
X100425428Y-101687333D01*
X100520666Y-101734952D01*
X100568285Y-101782571D01*
X100615904Y-101877809D01*
X100615904Y-102115904D01*
X100568285Y-102211142D01*
X100520666Y-102258761D01*
X100425428Y-102306380D01*
X100139714Y-102306380D01*
X100044476Y-102258761D01*
X99996857Y-102211142D01*
X101044476Y-102211142D02*
X101092095Y-102258761D01*
X101044476Y-102306380D01*
X100996857Y-102258761D01*
X101044476Y-102211142D01*
X101044476Y-102306380D01*
X101425428Y-101306380D02*
X102044476Y-101306380D01*
X101711142Y-101687333D01*
X101854000Y-101687333D01*
X101949238Y-101734952D01*
X101996857Y-101782571D01*
X102044476Y-101877809D01*
X102044476Y-102115904D01*
X101996857Y-102211142D01*
X101949238Y-102258761D01*
X101854000Y-102306380D01*
X101568285Y-102306380D01*
X101473047Y-102258761D01*
X101425428Y-102211142D01*
X103092095Y-101306380D02*
X103425428Y-102306380D01*
X103758761Y-101306380D01*
D13*
X71194000Y-134730233D02*
X71194000Y-133033767D01*
X71194000Y-137372000D02*
X71194000Y-136033767D01*
X71194000Y-128947000D02*
X71194000Y-131730233D01*
X71194000Y-141817000D02*
X71194000Y-139392000D01*
X62074000Y-128947000D02*
X71194000Y-128947000D01*
X61074000Y-129947000D02*
X62074000Y-128947000D01*
X61074000Y-140817000D02*
X61074000Y-129947000D01*
X62074000Y-141817000D02*
X61074000Y-140817000D01*
X71194000Y-141817000D02*
X62074000Y-141817000D01*
X76160000Y-108204000D02*
X76160000Y-105664000D01*
X76160000Y-105664000D02*
X73490000Y-105664000D01*
X73490000Y-108204000D02*
X73490000Y-146434000D01*
X73490000Y-102994000D02*
X73490000Y-105664000D01*
X88860000Y-105664000D02*
X91530000Y-105664000D01*
X88860000Y-105664000D02*
X88860000Y-143764000D01*
X88860000Y-143764000D02*
X91530000Y-143764000D01*
X76160000Y-108204000D02*
X73490000Y-108204000D01*
X76160000Y-108204000D02*
X76160000Y-143764000D01*
X76160000Y-143764000D02*
X73490000Y-143764000D01*
X73490000Y-146434000D02*
X91530000Y-146434000D01*
X91530000Y-146434000D02*
X91530000Y-102994000D01*
X91530000Y-102994000D02*
X73490000Y-102994000D01*
X69926000Y-149059000D02*
X72386000Y-149059000D01*
X72386000Y-149059000D02*
X72386000Y-147589000D01*
X72386000Y-147589000D02*
X69926000Y-147589000D01*
X95894000Y-147589000D02*
X93434000Y-147589000D01*
X95894000Y-149059000D02*
X95894000Y-147589000D01*
X93434000Y-149059000D02*
X95894000Y-149059000D01*
X71194000Y-113129000D02*
X62074000Y-113129000D01*
X62074000Y-113129000D02*
X61074000Y-112129000D01*
X61074000Y-112129000D02*
X61074000Y-104259000D01*
X61074000Y-104259000D02*
X62074000Y-103259000D01*
X62074000Y-103259000D02*
X71194000Y-103259000D01*
X71194000Y-113129000D02*
X71194000Y-110704000D01*
X71194000Y-103259000D02*
X71194000Y-106042233D01*
X71194000Y-108684000D02*
X71194000Y-107345767D01*
X70599733Y-145794000D02*
X70942267Y-145794000D01*
X70599733Y-146814000D02*
X70942267Y-146814000D01*
X68230000Y-87122000D02*
X73564000Y-87122000D01*
X73564000Y-87122000D02*
X73564000Y-97790000D01*
X73564000Y-97790000D02*
X68230000Y-97790000D01*
X68230000Y-97790000D02*
X68230000Y-97790000D01*
X70770000Y-87630000D02*
X70770000Y-89916000D01*
X70770000Y-89916000D02*
X68484000Y-89916000D01*
X68484000Y-89916000D02*
X68484000Y-89916000D01*
X67900000Y-86546000D02*
X97100000Y-86546000D01*
X97100000Y-86546000D02*
X97100000Y-101996000D01*
X97100000Y-101996000D02*
X67900000Y-101996000D01*
X67900000Y-101996000D02*
X67900000Y-86546000D01*
X67900000Y-86546000D02*
X67900000Y-86546000D01*
X68230000Y-97790000D02*
X68230000Y-87122000D01*
X68230000Y-87122000D02*
X68230000Y-87122000D01*
X94062733Y-145794000D02*
X94405267Y-145794000D01*
X94062733Y-146814000D02*
X94405267Y-146814000D01*
X71194000Y-127473000D02*
X62074000Y-127473000D01*
X62074000Y-127473000D02*
X61074000Y-126473000D01*
X61074000Y-126473000D02*
X61074000Y-115603000D01*
X61074000Y-115603000D02*
X62074000Y-114603000D01*
X62074000Y-114603000D02*
X71194000Y-114603000D01*
X71194000Y-127473000D02*
X71194000Y-125048000D01*
X71194000Y-114603000D02*
X71194000Y-117386233D01*
X71194000Y-123028000D02*
X71194000Y-121689767D01*
X71194000Y-120386233D02*
X71194000Y-118689767D01*
X93652000Y-126359000D02*
X102772000Y-126359000D01*
X102772000Y-126359000D02*
X103772000Y-127359000D01*
X103772000Y-127359000D02*
X103772000Y-141229000D01*
X103772000Y-141229000D02*
X102772000Y-142229000D01*
X102772000Y-142229000D02*
X93652000Y-142229000D01*
X93652000Y-126359000D02*
X93652000Y-128784000D01*
X93652000Y-142229000D02*
X93652000Y-139445767D01*
X93652000Y-130804000D02*
X93652000Y-132142233D01*
X93652000Y-133445767D02*
X93652000Y-135142233D01*
X93652000Y-136445767D02*
X93652000Y-138142233D01*
X93652000Y-113345767D02*
X93652000Y-115042233D01*
X93652000Y-110345767D02*
X93652000Y-112042233D01*
X93652000Y-107704000D02*
X93652000Y-109042233D01*
X93652000Y-119129000D02*
X93652000Y-116345767D01*
X93652000Y-103259000D02*
X93652000Y-105684000D01*
X102772000Y-119129000D02*
X93652000Y-119129000D01*
X103772000Y-118129000D02*
X102772000Y-119129000D01*
X103772000Y-104259000D02*
X103772000Y-118129000D01*
X102772000Y-103259000D02*
X103772000Y-104259000D01*
X93652000Y-103259000D02*
X102772000Y-103259000D01*
X97846000Y-121160000D02*
X96916000Y-121160000D01*
X94686000Y-121160000D02*
X95616000Y-121160000D01*
X94686000Y-121160000D02*
X94686000Y-123320000D01*
X97846000Y-121160000D02*
X97846000Y-122620000D01*
X102164000Y-121160000D02*
X102164000Y-122620000D01*
X99004000Y-121160000D02*
X99004000Y-123320000D01*
X99004000Y-121160000D02*
X99934000Y-121160000D01*
X102164000Y-121160000D02*
X101234000Y-121160000D01*
X93982000Y-122091267D02*
X93982000Y-121748733D01*
X92962000Y-122091267D02*
X92962000Y-121748733D01*
X103888000Y-122091267D02*
X103888000Y-121748733D01*
X102868000Y-122091267D02*
X102868000Y-121748733D01*
X96094733Y-124204000D02*
X96437267Y-124204000D01*
X96094733Y-125224000D02*
X96437267Y-125224000D01*
X100412733Y-124204000D02*
X100755267Y-124204000D01*
X100412733Y-125224000D02*
X100755267Y-125224000D01*
X98746000Y-99628000D02*
X101406000Y-99628000D01*
X98746000Y-97028000D02*
X98746000Y-99628000D01*
X101406000Y-97028000D02*
X101406000Y-99628000D01*
X98746000Y-97028000D02*
X101406000Y-97028000D01*
X98746000Y-95758000D02*
X98746000Y-94428000D01*
X98746000Y-94428000D02*
X100076000Y-94428000D01*
X86283000Y-138194000D02*
G75*
G02X85583000Y-137494000I0J700000D01*
G01*
X87583000Y-137494000D02*
G75*
G02X86883000Y-138194000I-700000J0D01*
G01*
X86883000Y-134094000D02*
G75*
G02X87583000Y-134794000I0J-700000D01*
G01*
X85583000Y-134794000D02*
G75*
G02X86283000Y-134094000I700000J0D01*
G01*
X85583000Y-137544000D02*
X85583000Y-134744000D01*
X86283000Y-134094000D02*
X86883000Y-134094000D01*
X87583000Y-134744000D02*
X87583000Y-137544000D01*
X86883000Y-138194000D02*
X86283000Y-138194000D01*
X87783000Y-137344000D02*
X88083000Y-137644000D01*
X88083000Y-137644000D02*
X88083000Y-137044000D01*
X87783000Y-137344000D02*
X88083000Y-137044000D01*
X87783000Y-142170000D02*
X88083000Y-141870000D01*
X88083000Y-142470000D02*
X88083000Y-141870000D01*
X87783000Y-142170000D02*
X88083000Y-142470000D01*
X86883000Y-143020000D02*
X86283000Y-143020000D01*
X87583000Y-139570000D02*
X87583000Y-142370000D01*
X86283000Y-138920000D02*
X86883000Y-138920000D01*
X85583000Y-142370000D02*
X85583000Y-139570000D01*
X85583000Y-139620000D02*
G75*
G02X86283000Y-138920000I700000J0D01*
G01*
X86883000Y-138920000D02*
G75*
G02X87583000Y-139620000I0J-700000D01*
G01*
X87583000Y-142320000D02*
G75*
G02X86883000Y-143020000I-700000J0D01*
G01*
X86283000Y-143020000D02*
G75*
G02X85583000Y-142320000I0J700000D01*
G01*
X87168000Y-111488000D02*
G75*
G02X87868000Y-112188000I0J-700000D01*
G01*
X85868000Y-112188000D02*
G75*
G02X86568000Y-111488000I700000J0D01*
G01*
X86568000Y-115588000D02*
G75*
G02X85868000Y-114888000I0J700000D01*
G01*
X87868000Y-114888000D02*
G75*
G02X87168000Y-115588000I-700000J0D01*
G01*
X87868000Y-112138000D02*
X87868000Y-114938000D01*
X87168000Y-115588000D02*
X86568000Y-115588000D01*
X85868000Y-114938000D02*
X85868000Y-112138000D01*
X86568000Y-111488000D02*
X87168000Y-111488000D01*
X85668000Y-112338000D02*
X85368000Y-112038000D01*
X85368000Y-112038000D02*
X85368000Y-112638000D01*
X85668000Y-112338000D02*
X85368000Y-112638000D01*
X85668000Y-117418000D02*
X85368000Y-117718000D01*
X85368000Y-117118000D02*
X85368000Y-117718000D01*
X85668000Y-117418000D02*
X85368000Y-117118000D01*
X86568000Y-116568000D02*
X87168000Y-116568000D01*
X85868000Y-120018000D02*
X85868000Y-117218000D01*
X87168000Y-120668000D02*
X86568000Y-120668000D01*
X87868000Y-117218000D02*
X87868000Y-120018000D01*
X87868000Y-119968000D02*
G75*
G02X87168000Y-120668000I-700000J0D01*
G01*
X86568000Y-120668000D02*
G75*
G02X85868000Y-119968000I0J700000D01*
G01*
X85868000Y-117268000D02*
G75*
G02X86568000Y-116568000I700000J0D01*
G01*
X87168000Y-116568000D02*
G75*
G02X87868000Y-117268000I0J-700000D01*
G01*
D12*
X62698380Y-135969333D02*
X63412666Y-135969333D01*
X63555523Y-136016952D01*
X63650761Y-136112190D01*
X63698380Y-136255047D01*
X63698380Y-136350285D01*
X62698380Y-135588380D02*
X62698380Y-134969333D01*
X63079333Y-135302666D01*
X63079333Y-135159809D01*
X63126952Y-135064571D01*
X63174571Y-135016952D01*
X63269809Y-134969333D01*
X63507904Y-134969333D01*
X63603142Y-135016952D01*
X63650761Y-135064571D01*
X63698380Y-135159809D01*
X63698380Y-135445523D01*
X63650761Y-135540761D01*
X63603142Y-135588380D01*
X81795714Y-104052666D02*
X82271904Y-104052666D01*
X81700476Y-104338380D02*
X82033809Y-103338380D01*
X82367142Y-104338380D01*
X83224285Y-104338380D02*
X82652857Y-104338380D01*
X82938571Y-104338380D02*
X82938571Y-103338380D01*
X82843333Y-103481238D01*
X82748095Y-103576476D01*
X82652857Y-103624095D01*
X67333904Y-148776380D02*
X67333904Y-147776380D01*
X67572000Y-147776380D01*
X67714857Y-147824000D01*
X67810095Y-147919238D01*
X67857714Y-148014476D01*
X67905333Y-148204952D01*
X67905333Y-148347809D01*
X67857714Y-148538285D01*
X67810095Y-148633523D01*
X67714857Y-148728761D01*
X67572000Y-148776380D01*
X67333904Y-148776380D01*
X68857714Y-148776380D02*
X68286285Y-148776380D01*
X68572000Y-148776380D02*
X68572000Y-147776380D01*
X68476761Y-147919238D01*
X68381523Y-148014476D01*
X68286285Y-148062095D01*
X96289904Y-148776380D02*
X96289904Y-147776380D01*
X96528000Y-147776380D01*
X96670857Y-147824000D01*
X96766095Y-147919238D01*
X96813714Y-148014476D01*
X96861333Y-148204952D01*
X96861333Y-148347809D01*
X96813714Y-148538285D01*
X96766095Y-148633523D01*
X96670857Y-148728761D01*
X96528000Y-148776380D01*
X96289904Y-148776380D01*
X97242285Y-147871619D02*
X97289904Y-147824000D01*
X97385142Y-147776380D01*
X97623238Y-147776380D01*
X97718476Y-147824000D01*
X97766095Y-147871619D01*
X97813714Y-147966857D01*
X97813714Y-148062095D01*
X97766095Y-148204952D01*
X97194666Y-148776380D01*
X97813714Y-148776380D01*
X62698380Y-108537333D02*
X63412666Y-108537333D01*
X63555523Y-108584952D01*
X63650761Y-108680190D01*
X63698380Y-108823047D01*
X63698380Y-108918285D01*
X63698380Y-107537333D02*
X63698380Y-108108761D01*
X63698380Y-107823047D02*
X62698380Y-107823047D01*
X62841238Y-107918285D01*
X62936476Y-108013523D01*
X62984095Y-108108761D01*
X67950333Y-146756380D02*
X67617000Y-146280190D01*
X67378904Y-146756380D02*
X67378904Y-145756380D01*
X67759857Y-145756380D01*
X67855095Y-145804000D01*
X67902714Y-145851619D01*
X67950333Y-145946857D01*
X67950333Y-146089714D01*
X67902714Y-146184952D01*
X67855095Y-146232571D01*
X67759857Y-146280190D01*
X67378904Y-146280190D01*
X68902714Y-146756380D02*
X68331285Y-146756380D01*
X68617000Y-146756380D02*
X68617000Y-145756380D01*
X68521761Y-145899238D01*
X68426523Y-145994476D01*
X68331285Y-146042095D01*
X68580095Y-98258380D02*
X68580095Y-99067904D01*
X68627714Y-99163142D01*
X68675333Y-99210761D01*
X68770571Y-99258380D01*
X68961047Y-99258380D01*
X69056285Y-99210761D01*
X69103904Y-99163142D01*
X69151523Y-99067904D01*
X69151523Y-98258380D01*
X70151523Y-99258380D02*
X69580095Y-99258380D01*
X69865809Y-99258380D02*
X69865809Y-98258380D01*
X69770571Y-98401238D01*
X69675333Y-98496476D01*
X69580095Y-98544095D01*
X96861333Y-146756380D02*
X96528000Y-146280190D01*
X96289904Y-146756380D02*
X96289904Y-145756380D01*
X96670857Y-145756380D01*
X96766095Y-145804000D01*
X96813714Y-145851619D01*
X96861333Y-145946857D01*
X96861333Y-146089714D01*
X96813714Y-146184952D01*
X96766095Y-146232571D01*
X96670857Y-146280190D01*
X96289904Y-146280190D01*
X97242285Y-145851619D02*
X97289904Y-145804000D01*
X97385142Y-145756380D01*
X97623238Y-145756380D01*
X97718476Y-145804000D01*
X97766095Y-145851619D01*
X97813714Y-145946857D01*
X97813714Y-146042095D01*
X97766095Y-146184952D01*
X97194666Y-146756380D01*
X97813714Y-146756380D01*
X62698380Y-121371333D02*
X63412666Y-121371333D01*
X63555523Y-121418952D01*
X63650761Y-121514190D01*
X63698380Y-121657047D01*
X63698380Y-121752285D01*
X62793619Y-120942761D02*
X62746000Y-120895142D01*
X62698380Y-120799904D01*
X62698380Y-120561809D01*
X62746000Y-120466571D01*
X62793619Y-120418952D01*
X62888857Y-120371333D01*
X62984095Y-120371333D01*
X63126952Y-120418952D01*
X63698380Y-120990380D01*
X63698380Y-120371333D01*
X100290380Y-134699333D02*
X101004666Y-134699333D01*
X101147523Y-134746952D01*
X101242761Y-134842190D01*
X101290380Y-134985047D01*
X101290380Y-135080285D01*
X100623714Y-133794571D02*
X101290380Y-133794571D01*
X100242761Y-134032666D02*
X100957047Y-134270761D01*
X100957047Y-133651714D01*
X100544380Y-111585333D02*
X101258666Y-111585333D01*
X101401523Y-111632952D01*
X101496761Y-111728190D01*
X101544380Y-111871047D01*
X101544380Y-111966285D01*
X100544380Y-110632952D02*
X100544380Y-111109142D01*
X101020571Y-111156761D01*
X100972952Y-111109142D01*
X100925333Y-111013904D01*
X100925333Y-110775809D01*
X100972952Y-110680571D01*
X101020571Y-110632952D01*
X101115809Y-110585333D01*
X101353904Y-110585333D01*
X101449142Y-110632952D01*
X101496761Y-110680571D01*
X101544380Y-110775809D01*
X101544380Y-111013904D01*
X101496761Y-111109142D01*
X101449142Y-111156761D01*
X99742666Y-92880380D02*
X99742666Y-93594666D01*
X99695047Y-93737523D01*
X99599809Y-93832761D01*
X99456952Y-93880380D01*
X99361714Y-93880380D01*
X100647428Y-92880380D02*
X100456952Y-92880380D01*
X100361714Y-92928000D01*
X100314095Y-92975619D01*
X100218857Y-93118476D01*
X100171238Y-93308952D01*
X100171238Y-93689904D01*
X100218857Y-93785142D01*
X100266476Y-93832761D01*
X100361714Y-93880380D01*
X100552190Y-93880380D01*
X100647428Y-93832761D01*
X100695047Y-93785142D01*
X100742666Y-93689904D01*
X100742666Y-93451809D01*
X100695047Y-93356571D01*
X100647428Y-93308952D01*
X100552190Y-93261333D01*
X100361714Y-93261333D01*
X100266476Y-93308952D01*
X100218857Y-93356571D01*
X100171238Y-93451809D01*
X84235380Y-136977333D02*
X84949666Y-136977333D01*
X85092523Y-137024952D01*
X85187761Y-137120190D01*
X85235380Y-137263047D01*
X85235380Y-137358285D01*
X85235380Y-136501142D02*
X84235380Y-136501142D01*
X84235380Y-136120190D01*
X84283000Y-136024952D01*
X84330619Y-135977333D01*
X84425857Y-135929714D01*
X84568714Y-135929714D01*
X84663952Y-135977333D01*
X84711571Y-136024952D01*
X84759190Y-136120190D01*
X84759190Y-136501142D01*
X85235380Y-134977333D02*
X85235380Y-135548761D01*
X85235380Y-135263047D02*
X84235380Y-135263047D01*
X84378238Y-135358285D01*
X84473476Y-135453523D01*
X84521095Y-135548761D01*
X84235380Y-141803333D02*
X84949666Y-141803333D01*
X85092523Y-141850952D01*
X85187761Y-141946190D01*
X85235380Y-142089047D01*
X85235380Y-142184285D01*
X85235380Y-141327142D02*
X84235380Y-141327142D01*
X84235380Y-140946190D01*
X84283000Y-140850952D01*
X84330619Y-140803333D01*
X84425857Y-140755714D01*
X84568714Y-140755714D01*
X84663952Y-140803333D01*
X84711571Y-140850952D01*
X84759190Y-140946190D01*
X84759190Y-141327142D01*
X84330619Y-140374761D02*
X84283000Y-140327142D01*
X84235380Y-140231904D01*
X84235380Y-139993809D01*
X84283000Y-139898571D01*
X84330619Y-139850952D01*
X84425857Y-139803333D01*
X84521095Y-139803333D01*
X84663952Y-139850952D01*
X85235380Y-140422380D01*
X85235380Y-139803333D01*
X86034666Y-109942380D02*
X86034666Y-110656666D01*
X85987047Y-110799523D01*
X85891809Y-110894761D01*
X85748952Y-110942380D01*
X85653714Y-110942380D01*
X86510857Y-110942380D02*
X86510857Y-109942380D01*
X86891809Y-109942380D01*
X86987047Y-109990000D01*
X87034666Y-110037619D01*
X87082285Y-110132857D01*
X87082285Y-110275714D01*
X87034666Y-110370952D01*
X86987047Y-110418571D01*
X86891809Y-110466190D01*
X86510857Y-110466190D01*
X87415619Y-109942380D02*
X88034666Y-109942380D01*
X87701333Y-110323333D01*
X87844190Y-110323333D01*
X87939428Y-110370952D01*
X87987047Y-110418571D01*
X88034666Y-110513809D01*
X88034666Y-110751904D01*
X87987047Y-110847142D01*
X87939428Y-110894761D01*
X87844190Y-110942380D01*
X87558476Y-110942380D01*
X87463238Y-110894761D01*
X87415619Y-110847142D01*
X86034666Y-121118380D02*
X86034666Y-121832666D01*
X85987047Y-121975523D01*
X85891809Y-122070761D01*
X85748952Y-122118380D01*
X85653714Y-122118380D01*
X86510857Y-122118380D02*
X86510857Y-121118380D01*
X86891809Y-121118380D01*
X86987047Y-121166000D01*
X87034666Y-121213619D01*
X87082285Y-121308857D01*
X87082285Y-121451714D01*
X87034666Y-121546952D01*
X86987047Y-121594571D01*
X86891809Y-121642190D01*
X86510857Y-121642190D01*
X87939428Y-121451714D02*
X87939428Y-122118380D01*
X87701333Y-121070761D02*
X87463238Y-121785047D01*
X88082285Y-121785047D01*
M02*
