G04 #@! TF.GenerationSoftware,KiCad,Pcbnew,(5.1.5)-3*
G04 #@! TF.CreationDate,2020-05-08T22:00:03-06:00*
G04 #@! TF.ProjectId,fluid,666c7569-642e-46b6-9963-61645f706362,rev?*
G04 #@! TF.SameCoordinates,Original*
G04 #@! TF.FileFunction,Soldermask,Top*
G04 #@! TF.FilePolarity,Negative*
%FSLAX46Y46*%
G04 Gerber Fmt 4.6, Leading zero omitted, Abs format (unit mm)*
G04 Created by KiCad (PCBNEW (5.1.5)-3) date 2020-05-08 22:00:03*
%MOMM*%
%LPD*%
G04 APERTURE LIST*
%ADD10C,0.100000*%
G04 APERTURE END LIST*
D10*
G36*
X95523499Y-147802445D02*
G01*
X95560995Y-147813820D01*
X95595554Y-147832292D01*
X95625847Y-147857153D01*
X95650708Y-147887446D01*
X95669180Y-147922005D01*
X95680555Y-147959501D01*
X95685000Y-148004638D01*
X95685000Y-148643362D01*
X95680555Y-148688499D01*
X95669180Y-148725995D01*
X95650708Y-148760554D01*
X95625847Y-148790847D01*
X95595554Y-148815708D01*
X95560995Y-148834180D01*
X95523499Y-148845555D01*
X95478362Y-148850000D01*
X94739638Y-148850000D01*
X94694501Y-148845555D01*
X94657005Y-148834180D01*
X94622446Y-148815708D01*
X94592153Y-148790847D01*
X94567292Y-148760554D01*
X94548820Y-148725995D01*
X94537445Y-148688499D01*
X94533000Y-148643362D01*
X94533000Y-148004638D01*
X94537445Y-147959501D01*
X94548820Y-147922005D01*
X94567292Y-147887446D01*
X94592153Y-147857153D01*
X94622446Y-147832292D01*
X94657005Y-147813820D01*
X94694501Y-147802445D01*
X94739638Y-147798000D01*
X95478362Y-147798000D01*
X95523499Y-147802445D01*
G37*
G36*
X72015499Y-147802445D02*
G01*
X72052995Y-147813820D01*
X72087554Y-147832292D01*
X72117847Y-147857153D01*
X72142708Y-147887446D01*
X72161180Y-147922005D01*
X72172555Y-147959501D01*
X72177000Y-148004638D01*
X72177000Y-148643362D01*
X72172555Y-148688499D01*
X72161180Y-148725995D01*
X72142708Y-148760554D01*
X72117847Y-148790847D01*
X72087554Y-148815708D01*
X72052995Y-148834180D01*
X72015499Y-148845555D01*
X71970362Y-148850000D01*
X71231638Y-148850000D01*
X71186501Y-148845555D01*
X71149005Y-148834180D01*
X71114446Y-148815708D01*
X71084153Y-148790847D01*
X71059292Y-148760554D01*
X71040820Y-148725995D01*
X71029445Y-148688499D01*
X71025000Y-148643362D01*
X71025000Y-148004638D01*
X71029445Y-147959501D01*
X71040820Y-147922005D01*
X71059292Y-147887446D01*
X71084153Y-147857153D01*
X71114446Y-147832292D01*
X71149005Y-147813820D01*
X71186501Y-147802445D01*
X71231638Y-147798000D01*
X71970362Y-147798000D01*
X72015499Y-147802445D01*
G37*
G36*
X70265499Y-147802445D02*
G01*
X70302995Y-147813820D01*
X70337554Y-147832292D01*
X70367847Y-147857153D01*
X70392708Y-147887446D01*
X70411180Y-147922005D01*
X70422555Y-147959501D01*
X70427000Y-148004638D01*
X70427000Y-148643362D01*
X70422555Y-148688499D01*
X70411180Y-148725995D01*
X70392708Y-148760554D01*
X70367847Y-148790847D01*
X70337554Y-148815708D01*
X70302995Y-148834180D01*
X70265499Y-148845555D01*
X70220362Y-148850000D01*
X69481638Y-148850000D01*
X69436501Y-148845555D01*
X69399005Y-148834180D01*
X69364446Y-148815708D01*
X69334153Y-148790847D01*
X69309292Y-148760554D01*
X69290820Y-148725995D01*
X69279445Y-148688499D01*
X69275000Y-148643362D01*
X69275000Y-148004638D01*
X69279445Y-147959501D01*
X69290820Y-147922005D01*
X69309292Y-147887446D01*
X69334153Y-147857153D01*
X69364446Y-147832292D01*
X69399005Y-147813820D01*
X69436501Y-147802445D01*
X69481638Y-147798000D01*
X70220362Y-147798000D01*
X70265499Y-147802445D01*
G37*
G36*
X93773499Y-147802445D02*
G01*
X93810995Y-147813820D01*
X93845554Y-147832292D01*
X93875847Y-147857153D01*
X93900708Y-147887446D01*
X93919180Y-147922005D01*
X93930555Y-147959501D01*
X93935000Y-148004638D01*
X93935000Y-148643362D01*
X93930555Y-148688499D01*
X93919180Y-148725995D01*
X93900708Y-148760554D01*
X93875847Y-148790847D01*
X93845554Y-148815708D01*
X93810995Y-148834180D01*
X93773499Y-148845555D01*
X93728362Y-148850000D01*
X92989638Y-148850000D01*
X92944501Y-148845555D01*
X92907005Y-148834180D01*
X92872446Y-148815708D01*
X92842153Y-148790847D01*
X92817292Y-148760554D01*
X92798820Y-148725995D01*
X92787445Y-148688499D01*
X92783000Y-148643362D01*
X92783000Y-148004638D01*
X92787445Y-147959501D01*
X92798820Y-147922005D01*
X92817292Y-147887446D01*
X92842153Y-147857153D01*
X92872446Y-147832292D01*
X92907005Y-147813820D01*
X92944501Y-147802445D01*
X92989638Y-147798000D01*
X93728362Y-147798000D01*
X93773499Y-147802445D01*
G37*
G36*
X101817021Y-143306640D02*
G01*
X102326769Y-143517785D01*
X102326771Y-143517786D01*
X102785534Y-143824321D01*
X103175679Y-144214466D01*
X103482214Y-144673229D01*
X103482215Y-144673231D01*
X103693360Y-145182979D01*
X103801000Y-145724124D01*
X103801000Y-146275876D01*
X103693360Y-146817021D01*
X103482215Y-147326769D01*
X103482214Y-147326771D01*
X103175679Y-147785534D01*
X102785534Y-148175679D01*
X102326771Y-148482214D01*
X102326770Y-148482215D01*
X102326769Y-148482215D01*
X101817021Y-148693360D01*
X101275876Y-148801000D01*
X100724124Y-148801000D01*
X100182979Y-148693360D01*
X99673231Y-148482215D01*
X99673230Y-148482215D01*
X99673229Y-148482214D01*
X99214466Y-148175679D01*
X98824321Y-147785534D01*
X98517786Y-147326771D01*
X98517785Y-147326769D01*
X98306640Y-146817021D01*
X98199000Y-146275876D01*
X98199000Y-145724124D01*
X98306640Y-145182979D01*
X98517785Y-144673231D01*
X98517786Y-144673229D01*
X98824321Y-144214466D01*
X99214466Y-143824321D01*
X99673229Y-143517786D01*
X99673231Y-143517785D01*
X100182979Y-143306640D01*
X100724124Y-143199000D01*
X101275876Y-143199000D01*
X101817021Y-143306640D01*
G37*
G36*
X64817021Y-143306640D02*
G01*
X65326769Y-143517785D01*
X65326771Y-143517786D01*
X65785534Y-143824321D01*
X66175679Y-144214466D01*
X66482214Y-144673229D01*
X66482215Y-144673231D01*
X66693360Y-145182979D01*
X66801000Y-145724124D01*
X66801000Y-146275876D01*
X66693360Y-146817021D01*
X66482215Y-147326769D01*
X66482214Y-147326771D01*
X66175679Y-147785534D01*
X65785534Y-148175679D01*
X65326771Y-148482214D01*
X65326770Y-148482215D01*
X65326769Y-148482215D01*
X64817021Y-148693360D01*
X64275876Y-148801000D01*
X63724124Y-148801000D01*
X63182979Y-148693360D01*
X62673231Y-148482215D01*
X62673230Y-148482215D01*
X62673229Y-148482214D01*
X62214466Y-148175679D01*
X61824321Y-147785534D01*
X61517786Y-147326771D01*
X61517785Y-147326769D01*
X61306640Y-146817021D01*
X61199000Y-146275876D01*
X61199000Y-145724124D01*
X61306640Y-145182979D01*
X61517785Y-144673231D01*
X61517786Y-144673229D01*
X61824321Y-144214466D01*
X62214466Y-143824321D01*
X62673229Y-143517786D01*
X62673231Y-143517785D01*
X63182979Y-143306640D01*
X63724124Y-143199000D01*
X64275876Y-143199000D01*
X64817021Y-143306640D01*
G37*
G36*
X72060499Y-145782445D02*
G01*
X72097995Y-145793820D01*
X72132554Y-145812292D01*
X72162847Y-145837153D01*
X72187708Y-145867446D01*
X72206180Y-145902005D01*
X72217555Y-145939501D01*
X72222000Y-145984638D01*
X72222000Y-146623362D01*
X72217555Y-146668499D01*
X72206180Y-146705995D01*
X72187708Y-146740554D01*
X72162847Y-146770847D01*
X72132554Y-146795708D01*
X72097995Y-146814180D01*
X72060499Y-146825555D01*
X72015362Y-146830000D01*
X71276638Y-146830000D01*
X71231501Y-146825555D01*
X71194005Y-146814180D01*
X71159446Y-146795708D01*
X71129153Y-146770847D01*
X71104292Y-146740554D01*
X71085820Y-146705995D01*
X71074445Y-146668499D01*
X71070000Y-146623362D01*
X71070000Y-145984638D01*
X71074445Y-145939501D01*
X71085820Y-145902005D01*
X71104292Y-145867446D01*
X71129153Y-145837153D01*
X71159446Y-145812292D01*
X71194005Y-145793820D01*
X71231501Y-145782445D01*
X71276638Y-145778000D01*
X72015362Y-145778000D01*
X72060499Y-145782445D01*
G37*
G36*
X70310499Y-145782445D02*
G01*
X70347995Y-145793820D01*
X70382554Y-145812292D01*
X70412847Y-145837153D01*
X70437708Y-145867446D01*
X70456180Y-145902005D01*
X70467555Y-145939501D01*
X70472000Y-145984638D01*
X70472000Y-146623362D01*
X70467555Y-146668499D01*
X70456180Y-146705995D01*
X70437708Y-146740554D01*
X70412847Y-146770847D01*
X70382554Y-146795708D01*
X70347995Y-146814180D01*
X70310499Y-146825555D01*
X70265362Y-146830000D01*
X69526638Y-146830000D01*
X69481501Y-146825555D01*
X69444005Y-146814180D01*
X69409446Y-146795708D01*
X69379153Y-146770847D01*
X69354292Y-146740554D01*
X69335820Y-146705995D01*
X69324445Y-146668499D01*
X69320000Y-146623362D01*
X69320000Y-145984638D01*
X69324445Y-145939501D01*
X69335820Y-145902005D01*
X69354292Y-145867446D01*
X69379153Y-145837153D01*
X69409446Y-145812292D01*
X69444005Y-145793820D01*
X69481501Y-145782445D01*
X69526638Y-145778000D01*
X70265362Y-145778000D01*
X70310499Y-145782445D01*
G37*
G36*
X93773499Y-145782445D02*
G01*
X93810995Y-145793820D01*
X93845554Y-145812292D01*
X93875847Y-145837153D01*
X93900708Y-145867446D01*
X93919180Y-145902005D01*
X93930555Y-145939501D01*
X93935000Y-145984638D01*
X93935000Y-146623362D01*
X93930555Y-146668499D01*
X93919180Y-146705995D01*
X93900708Y-146740554D01*
X93875847Y-146770847D01*
X93845554Y-146795708D01*
X93810995Y-146814180D01*
X93773499Y-146825555D01*
X93728362Y-146830000D01*
X92989638Y-146830000D01*
X92944501Y-146825555D01*
X92907005Y-146814180D01*
X92872446Y-146795708D01*
X92842153Y-146770847D01*
X92817292Y-146740554D01*
X92798820Y-146705995D01*
X92787445Y-146668499D01*
X92783000Y-146623362D01*
X92783000Y-145984638D01*
X92787445Y-145939501D01*
X92798820Y-145902005D01*
X92817292Y-145867446D01*
X92842153Y-145837153D01*
X92872446Y-145812292D01*
X92907005Y-145793820D01*
X92944501Y-145782445D01*
X92989638Y-145778000D01*
X93728362Y-145778000D01*
X93773499Y-145782445D01*
G37*
G36*
X95523499Y-145782445D02*
G01*
X95560995Y-145793820D01*
X95595554Y-145812292D01*
X95625847Y-145837153D01*
X95650708Y-145867446D01*
X95669180Y-145902005D01*
X95680555Y-145939501D01*
X95685000Y-145984638D01*
X95685000Y-146623362D01*
X95680555Y-146668499D01*
X95669180Y-146705995D01*
X95650708Y-146740554D01*
X95625847Y-146770847D01*
X95595554Y-146795708D01*
X95560995Y-146814180D01*
X95523499Y-146825555D01*
X95478362Y-146830000D01*
X94739638Y-146830000D01*
X94694501Y-146825555D01*
X94657005Y-146814180D01*
X94622446Y-146795708D01*
X94592153Y-146770847D01*
X94567292Y-146740554D01*
X94548820Y-146705995D01*
X94537445Y-146668499D01*
X94533000Y-146623362D01*
X94533000Y-145984638D01*
X94537445Y-145939501D01*
X94548820Y-145902005D01*
X94567292Y-145867446D01*
X94592153Y-145837153D01*
X94622446Y-145812292D01*
X94657005Y-145793820D01*
X94694501Y-145782445D01*
X94739638Y-145778000D01*
X95478362Y-145778000D01*
X95523499Y-145782445D01*
G37*
G36*
X90378228Y-141675703D02*
G01*
X90533100Y-141739853D01*
X90672481Y-141832985D01*
X90791015Y-141951519D01*
X90884147Y-142090900D01*
X90948297Y-142245772D01*
X90981000Y-142410184D01*
X90981000Y-142577816D01*
X90948297Y-142742228D01*
X90884147Y-142897100D01*
X90791015Y-143036481D01*
X90672481Y-143155015D01*
X90533100Y-143248147D01*
X90378228Y-143312297D01*
X90213816Y-143345000D01*
X90046184Y-143345000D01*
X89881772Y-143312297D01*
X89726900Y-143248147D01*
X89587519Y-143155015D01*
X89468985Y-143036481D01*
X89375853Y-142897100D01*
X89311703Y-142742228D01*
X89279000Y-142577816D01*
X89279000Y-142410184D01*
X89311703Y-142245772D01*
X89375853Y-142090900D01*
X89468985Y-141951519D01*
X89587519Y-141832985D01*
X89726900Y-141739853D01*
X89881772Y-141675703D01*
X90046184Y-141643000D01*
X90213816Y-141643000D01*
X90378228Y-141675703D01*
G37*
G36*
X75138228Y-141675703D02*
G01*
X75293100Y-141739853D01*
X75432481Y-141832985D01*
X75551015Y-141951519D01*
X75644147Y-142090900D01*
X75708297Y-142245772D01*
X75741000Y-142410184D01*
X75741000Y-142577816D01*
X75708297Y-142742228D01*
X75644147Y-142897100D01*
X75551015Y-143036481D01*
X75432481Y-143155015D01*
X75293100Y-143248147D01*
X75138228Y-143312297D01*
X74973816Y-143345000D01*
X74806184Y-143345000D01*
X74641772Y-143312297D01*
X74486900Y-143248147D01*
X74347519Y-143155015D01*
X74228985Y-143036481D01*
X74135853Y-142897100D01*
X74071703Y-142742228D01*
X74039000Y-142577816D01*
X74039000Y-142410184D01*
X74071703Y-142245772D01*
X74135853Y-142090900D01*
X74228985Y-141951519D01*
X74347519Y-141832985D01*
X74486900Y-141739853D01*
X74641772Y-141675703D01*
X74806184Y-141643000D01*
X74973816Y-141643000D01*
X75138228Y-141675703D01*
G37*
G36*
X86845199Y-139119954D02*
G01*
X86857450Y-139120556D01*
X86875869Y-139120556D01*
X86898149Y-139122750D01*
X86982233Y-139139476D01*
X87003660Y-139145976D01*
X87082858Y-139178780D01*
X87088303Y-139181691D01*
X87088309Y-139181693D01*
X87097169Y-139186429D01*
X87097173Y-139186432D01*
X87102614Y-139189340D01*
X87173899Y-139236971D01*
X87191204Y-139251172D01*
X87251828Y-139311796D01*
X87266029Y-139329101D01*
X87313660Y-139400386D01*
X87316568Y-139405827D01*
X87316571Y-139405831D01*
X87321307Y-139414691D01*
X87321309Y-139414697D01*
X87324220Y-139420142D01*
X87357024Y-139499340D01*
X87363524Y-139520767D01*
X87380250Y-139604851D01*
X87382444Y-139627131D01*
X87382444Y-139645550D01*
X87383046Y-139657801D01*
X87384852Y-139676139D01*
X87384852Y-140213860D01*
X87383263Y-140229999D01*
X87378855Y-140244528D01*
X87373394Y-140257711D01*
X87368612Y-140281745D01*
X87368611Y-140306249D01*
X87373391Y-140330282D01*
X87382768Y-140352921D01*
X87384000Y-140354765D01*
X87384000Y-141586050D01*
X87377525Y-141598164D01*
X87370412Y-141621613D01*
X87368010Y-141645999D01*
X87370412Y-141670385D01*
X87377525Y-141693834D01*
X87379848Y-141698746D01*
X87383263Y-141710001D01*
X87384852Y-141726140D01*
X87384852Y-142263862D01*
X87383046Y-142282199D01*
X87382444Y-142294450D01*
X87382444Y-142312869D01*
X87380250Y-142335149D01*
X87363524Y-142419233D01*
X87357024Y-142440660D01*
X87324220Y-142519858D01*
X87321309Y-142525303D01*
X87321307Y-142525309D01*
X87316571Y-142534169D01*
X87316568Y-142534173D01*
X87313660Y-142539614D01*
X87266029Y-142610899D01*
X87251828Y-142628204D01*
X87191204Y-142688828D01*
X87173899Y-142703029D01*
X87102614Y-142750660D01*
X87097173Y-142753568D01*
X87097169Y-142753571D01*
X87088309Y-142758307D01*
X87088303Y-142758309D01*
X87082858Y-142761220D01*
X87003660Y-142794024D01*
X86982233Y-142800524D01*
X86898149Y-142817250D01*
X86875869Y-142819444D01*
X86857450Y-142819444D01*
X86845199Y-142820046D01*
X86826862Y-142821852D01*
X86339138Y-142821852D01*
X86320801Y-142820046D01*
X86308550Y-142819444D01*
X86290131Y-142819444D01*
X86267851Y-142817250D01*
X86183767Y-142800524D01*
X86162340Y-142794024D01*
X86083142Y-142761220D01*
X86077697Y-142758309D01*
X86077691Y-142758307D01*
X86068831Y-142753571D01*
X86068827Y-142753568D01*
X86063386Y-142750660D01*
X85992101Y-142703029D01*
X85974796Y-142688828D01*
X85914172Y-142628204D01*
X85899971Y-142610899D01*
X85852340Y-142539614D01*
X85849432Y-142534173D01*
X85849429Y-142534169D01*
X85844693Y-142525309D01*
X85844691Y-142525303D01*
X85841780Y-142519858D01*
X85808976Y-142440660D01*
X85802476Y-142419233D01*
X85785750Y-142335149D01*
X85783556Y-142312869D01*
X85783556Y-142294450D01*
X85782954Y-142282199D01*
X85781148Y-142263862D01*
X85781148Y-141726140D01*
X85782737Y-141710001D01*
X85787145Y-141695472D01*
X85792606Y-141682289D01*
X85797388Y-141658255D01*
X85797389Y-141633751D01*
X85792609Y-141609718D01*
X85783232Y-141587079D01*
X85782000Y-141585235D01*
X85782000Y-140353950D01*
X85788475Y-140341836D01*
X85795588Y-140318387D01*
X85797990Y-140294001D01*
X85795588Y-140269615D01*
X85788475Y-140246166D01*
X85786152Y-140241254D01*
X85782737Y-140229999D01*
X85781148Y-140213860D01*
X85781148Y-139676139D01*
X85782954Y-139657801D01*
X85783556Y-139645550D01*
X85783556Y-139627131D01*
X85785750Y-139604851D01*
X85802476Y-139520767D01*
X85808976Y-139499340D01*
X85841780Y-139420142D01*
X85844691Y-139414697D01*
X85844693Y-139414691D01*
X85849429Y-139405831D01*
X85849432Y-139405827D01*
X85852340Y-139400386D01*
X85899971Y-139329101D01*
X85914172Y-139311796D01*
X85974796Y-139251172D01*
X85992101Y-139236971D01*
X86063386Y-139189340D01*
X86068827Y-139186432D01*
X86068831Y-139186429D01*
X86077691Y-139181693D01*
X86077697Y-139181691D01*
X86083142Y-139178780D01*
X86162340Y-139145976D01*
X86183767Y-139139476D01*
X86267851Y-139122750D01*
X86290131Y-139120556D01*
X86308550Y-139120556D01*
X86320801Y-139119954D01*
X86339139Y-139118148D01*
X86826861Y-139118148D01*
X86845199Y-139119954D01*
G37*
G36*
X75138228Y-139135703D02*
G01*
X75293100Y-139199853D01*
X75432481Y-139292985D01*
X75551015Y-139411519D01*
X75644147Y-139550900D01*
X75708297Y-139705772D01*
X75741000Y-139870184D01*
X75741000Y-140037816D01*
X75708297Y-140202228D01*
X75644147Y-140357100D01*
X75551015Y-140496481D01*
X75432481Y-140615015D01*
X75293100Y-140708147D01*
X75138228Y-140772297D01*
X74973816Y-140805000D01*
X74806184Y-140805000D01*
X74641772Y-140772297D01*
X74486900Y-140708147D01*
X74347519Y-140615015D01*
X74228985Y-140496481D01*
X74135853Y-140357100D01*
X74071703Y-140202228D01*
X74039000Y-140037816D01*
X74039000Y-139870184D01*
X74071703Y-139705772D01*
X74135853Y-139550900D01*
X74228985Y-139411519D01*
X74347519Y-139292985D01*
X74486900Y-139199853D01*
X74641772Y-139135703D01*
X74806184Y-139103000D01*
X74973816Y-139103000D01*
X75138228Y-139135703D01*
G37*
G36*
X90378228Y-139135703D02*
G01*
X90533100Y-139199853D01*
X90672481Y-139292985D01*
X90791015Y-139411519D01*
X90884147Y-139550900D01*
X90948297Y-139705772D01*
X90981000Y-139870184D01*
X90981000Y-140037816D01*
X90948297Y-140202228D01*
X90884147Y-140357100D01*
X90791015Y-140496481D01*
X90672481Y-140615015D01*
X90533100Y-140708147D01*
X90378228Y-140772297D01*
X90213816Y-140805000D01*
X90046184Y-140805000D01*
X89881772Y-140772297D01*
X89726900Y-140708147D01*
X89587519Y-140615015D01*
X89468985Y-140496481D01*
X89375853Y-140357100D01*
X89311703Y-140202228D01*
X89279000Y-140037816D01*
X89279000Y-139870184D01*
X89311703Y-139705772D01*
X89375853Y-139550900D01*
X89468985Y-139411519D01*
X89587519Y-139292985D01*
X89726900Y-139199853D01*
X89881772Y-139135703D01*
X90046184Y-139103000D01*
X90213816Y-139103000D01*
X90378228Y-139135703D01*
G37*
G36*
X95054159Y-137994262D02*
G01*
X95159023Y-138004590D01*
X95259682Y-138035125D01*
X95310013Y-138050392D01*
X95449165Y-138124771D01*
X95571133Y-138224867D01*
X95671229Y-138346835D01*
X95745608Y-138485987D01*
X95745608Y-138485988D01*
X95791410Y-138636977D01*
X95806875Y-138794000D01*
X95791410Y-138951023D01*
X95786233Y-138968089D01*
X95745608Y-139102013D01*
X95671229Y-139241165D01*
X95571133Y-139363133D01*
X95449165Y-139463229D01*
X95310013Y-139537608D01*
X95266194Y-139550900D01*
X95159023Y-139583410D01*
X95080571Y-139591137D01*
X95041346Y-139595000D01*
X94442654Y-139595000D01*
X94403429Y-139591137D01*
X94324977Y-139583410D01*
X94217806Y-139550900D01*
X94173987Y-139537608D01*
X94034835Y-139463229D01*
X93912867Y-139363133D01*
X93812771Y-139241165D01*
X93738392Y-139102013D01*
X93697767Y-138968089D01*
X93692590Y-138951023D01*
X93677125Y-138794000D01*
X93692590Y-138636977D01*
X93738392Y-138485988D01*
X93738392Y-138485987D01*
X93812771Y-138346835D01*
X93912867Y-138224867D01*
X94034835Y-138124771D01*
X94173987Y-138050392D01*
X94224318Y-138035125D01*
X94324977Y-138004590D01*
X94429841Y-137994262D01*
X94442654Y-137993000D01*
X95041346Y-137993000D01*
X95054159Y-137994262D01*
G37*
G36*
X71017048Y-137585122D02*
G01*
X71051387Y-137595539D01*
X71083036Y-137612456D01*
X71110778Y-137635222D01*
X71133544Y-137662964D01*
X71150461Y-137694613D01*
X71160878Y-137728952D01*
X71165000Y-137770807D01*
X71165000Y-138993193D01*
X71160878Y-139035048D01*
X71150461Y-139069387D01*
X71133544Y-139101036D01*
X71110778Y-139128778D01*
X71083036Y-139151544D01*
X71051387Y-139168461D01*
X71017048Y-139178878D01*
X70975193Y-139183000D01*
X69232807Y-139183000D01*
X69190952Y-139178878D01*
X69156613Y-139168461D01*
X69124964Y-139151544D01*
X69097222Y-139128778D01*
X69074456Y-139101036D01*
X69057539Y-139069387D01*
X69047122Y-139035048D01*
X69043000Y-138993193D01*
X69043000Y-137770807D01*
X69047122Y-137728952D01*
X69057539Y-137694613D01*
X69074456Y-137662964D01*
X69097222Y-137635222D01*
X69124964Y-137612456D01*
X69156613Y-137595539D01*
X69190952Y-137585122D01*
X69232807Y-137581000D01*
X70975193Y-137581000D01*
X71017048Y-137585122D01*
G37*
G36*
X90378228Y-136595703D02*
G01*
X90533100Y-136659853D01*
X90672481Y-136752985D01*
X90791015Y-136871519D01*
X90884147Y-137010900D01*
X90948297Y-137165772D01*
X90981000Y-137330184D01*
X90981000Y-137497816D01*
X90948297Y-137662228D01*
X90884147Y-137817100D01*
X90791015Y-137956481D01*
X90672481Y-138075015D01*
X90533100Y-138168147D01*
X90378228Y-138232297D01*
X90213816Y-138265000D01*
X90046184Y-138265000D01*
X89881772Y-138232297D01*
X89726900Y-138168147D01*
X89587519Y-138075015D01*
X89468985Y-137956481D01*
X89375853Y-137817100D01*
X89311703Y-137662228D01*
X89279000Y-137497816D01*
X89279000Y-137330184D01*
X89311703Y-137165772D01*
X89375853Y-137010900D01*
X89468985Y-136871519D01*
X89587519Y-136752985D01*
X89726900Y-136659853D01*
X89881772Y-136595703D01*
X90046184Y-136563000D01*
X90213816Y-136563000D01*
X90378228Y-136595703D01*
G37*
G36*
X75138228Y-136595703D02*
G01*
X75293100Y-136659853D01*
X75432481Y-136752985D01*
X75551015Y-136871519D01*
X75644147Y-137010900D01*
X75708297Y-137165772D01*
X75741000Y-137330184D01*
X75741000Y-137497816D01*
X75708297Y-137662228D01*
X75644147Y-137817100D01*
X75551015Y-137956481D01*
X75432481Y-138075015D01*
X75293100Y-138168147D01*
X75138228Y-138232297D01*
X74973816Y-138265000D01*
X74806184Y-138265000D01*
X74641772Y-138232297D01*
X74486900Y-138168147D01*
X74347519Y-138075015D01*
X74228985Y-137956481D01*
X74135853Y-137817100D01*
X74071703Y-137662228D01*
X74039000Y-137497816D01*
X74039000Y-137330184D01*
X74071703Y-137165772D01*
X74135853Y-137010900D01*
X74228985Y-136871519D01*
X74347519Y-136752985D01*
X74486900Y-136659853D01*
X74641772Y-136595703D01*
X74806184Y-136563000D01*
X74973816Y-136563000D01*
X75138228Y-136595703D01*
G37*
G36*
X99361699Y-135122228D02*
G01*
X99514410Y-135152604D01*
X99796674Y-135269521D01*
X100050705Y-135439259D01*
X100266741Y-135655295D01*
X100436479Y-135909326D01*
X100553396Y-136191590D01*
X100553396Y-136191591D01*
X100613000Y-136491239D01*
X100613000Y-136796761D01*
X100585900Y-136933000D01*
X100553396Y-137096410D01*
X100436479Y-137378674D01*
X100266741Y-137632705D01*
X100050705Y-137848741D01*
X99796674Y-138018479D01*
X99514410Y-138135396D01*
X99364585Y-138165198D01*
X99214761Y-138195000D01*
X98909239Y-138195000D01*
X98759415Y-138165198D01*
X98609590Y-138135396D01*
X98327326Y-138018479D01*
X98073295Y-137848741D01*
X97857259Y-137632705D01*
X97687521Y-137378674D01*
X97570604Y-137096410D01*
X97538100Y-136933000D01*
X97511000Y-136796761D01*
X97511000Y-136491239D01*
X97570604Y-136191591D01*
X97570604Y-136191590D01*
X97687521Y-135909326D01*
X97857259Y-135655295D01*
X98073295Y-135439259D01*
X98327326Y-135269521D01*
X98609590Y-135152604D01*
X98762301Y-135122228D01*
X98909239Y-135093000D01*
X99214761Y-135093000D01*
X99361699Y-135122228D01*
G37*
G36*
X86845199Y-134293954D02*
G01*
X86857450Y-134294556D01*
X86875869Y-134294556D01*
X86898149Y-134296750D01*
X86982233Y-134313476D01*
X87003660Y-134319976D01*
X87082858Y-134352780D01*
X87088303Y-134355691D01*
X87088309Y-134355693D01*
X87097169Y-134360429D01*
X87097173Y-134360432D01*
X87102614Y-134363340D01*
X87173899Y-134410971D01*
X87191204Y-134425172D01*
X87251828Y-134485796D01*
X87266029Y-134503101D01*
X87313660Y-134574386D01*
X87316568Y-134579827D01*
X87316571Y-134579831D01*
X87321307Y-134588691D01*
X87321309Y-134588697D01*
X87324220Y-134594142D01*
X87357024Y-134673340D01*
X87363524Y-134694767D01*
X87380250Y-134778851D01*
X87382444Y-134801131D01*
X87382444Y-134819550D01*
X87383046Y-134831801D01*
X87384852Y-134850139D01*
X87384852Y-135387860D01*
X87383263Y-135403999D01*
X87378855Y-135418528D01*
X87373394Y-135431711D01*
X87368612Y-135455745D01*
X87368611Y-135480249D01*
X87373391Y-135504282D01*
X87382768Y-135526921D01*
X87384000Y-135528765D01*
X87384000Y-136760050D01*
X87377525Y-136772164D01*
X87370412Y-136795613D01*
X87368010Y-136819999D01*
X87370412Y-136844385D01*
X87377525Y-136867834D01*
X87379848Y-136872746D01*
X87383263Y-136884001D01*
X87384852Y-136900140D01*
X87384852Y-137437862D01*
X87383046Y-137456199D01*
X87382444Y-137468450D01*
X87382444Y-137486869D01*
X87380250Y-137509149D01*
X87363524Y-137593233D01*
X87357024Y-137614660D01*
X87324220Y-137693858D01*
X87321309Y-137699303D01*
X87321307Y-137699309D01*
X87316571Y-137708169D01*
X87316568Y-137708173D01*
X87313660Y-137713614D01*
X87266029Y-137784899D01*
X87251828Y-137802204D01*
X87191204Y-137862828D01*
X87173899Y-137877029D01*
X87102614Y-137924660D01*
X87097173Y-137927568D01*
X87097169Y-137927571D01*
X87088309Y-137932307D01*
X87088303Y-137932309D01*
X87082858Y-137935220D01*
X87003660Y-137968024D01*
X86982233Y-137974524D01*
X86898149Y-137991250D01*
X86875869Y-137993444D01*
X86857450Y-137993444D01*
X86845199Y-137994046D01*
X86826862Y-137995852D01*
X86339138Y-137995852D01*
X86320801Y-137994046D01*
X86308550Y-137993444D01*
X86290131Y-137993444D01*
X86267851Y-137991250D01*
X86183767Y-137974524D01*
X86162340Y-137968024D01*
X86083142Y-137935220D01*
X86077697Y-137932309D01*
X86077691Y-137932307D01*
X86068831Y-137927571D01*
X86068827Y-137927568D01*
X86063386Y-137924660D01*
X85992101Y-137877029D01*
X85974796Y-137862828D01*
X85914172Y-137802204D01*
X85899971Y-137784899D01*
X85852340Y-137713614D01*
X85849432Y-137708173D01*
X85849429Y-137708169D01*
X85844693Y-137699309D01*
X85844691Y-137699303D01*
X85841780Y-137693858D01*
X85808976Y-137614660D01*
X85802476Y-137593233D01*
X85785750Y-137509149D01*
X85783556Y-137486869D01*
X85783556Y-137468450D01*
X85782954Y-137456199D01*
X85781148Y-137437862D01*
X85781148Y-136900140D01*
X85782737Y-136884001D01*
X85787145Y-136869472D01*
X85792606Y-136856289D01*
X85797388Y-136832255D01*
X85797389Y-136807751D01*
X85792609Y-136783718D01*
X85783232Y-136761079D01*
X85782000Y-136759235D01*
X85782000Y-135527950D01*
X85788475Y-135515836D01*
X85795588Y-135492387D01*
X85797990Y-135468001D01*
X85795588Y-135443615D01*
X85788475Y-135420166D01*
X85786152Y-135415254D01*
X85782737Y-135403999D01*
X85781148Y-135387860D01*
X85781148Y-134850139D01*
X85782954Y-134831801D01*
X85783556Y-134819550D01*
X85783556Y-134801131D01*
X85785750Y-134778851D01*
X85802476Y-134694767D01*
X85808976Y-134673340D01*
X85841780Y-134594142D01*
X85844691Y-134588697D01*
X85844693Y-134588691D01*
X85849429Y-134579831D01*
X85849432Y-134579827D01*
X85852340Y-134574386D01*
X85899971Y-134503101D01*
X85914172Y-134485796D01*
X85974796Y-134425172D01*
X85992101Y-134410971D01*
X86063386Y-134363340D01*
X86068827Y-134360432D01*
X86068831Y-134360429D01*
X86077691Y-134355693D01*
X86077697Y-134355691D01*
X86083142Y-134352780D01*
X86162340Y-134319976D01*
X86183767Y-134313476D01*
X86267851Y-134296750D01*
X86290131Y-134294556D01*
X86308550Y-134294556D01*
X86320801Y-134293954D01*
X86339139Y-134292148D01*
X86826861Y-134292148D01*
X86845199Y-134293954D01*
G37*
G36*
X66086585Y-133860802D02*
G01*
X66236410Y-133890604D01*
X66518674Y-134007521D01*
X66772705Y-134177259D01*
X66988741Y-134393295D01*
X67158479Y-134647326D01*
X67275396Y-134929590D01*
X67305198Y-135079415D01*
X67335000Y-135229239D01*
X67335000Y-135534761D01*
X67334152Y-135539023D01*
X67275396Y-135834410D01*
X67158479Y-136116674D01*
X66988741Y-136370705D01*
X66772705Y-136586741D01*
X66518674Y-136756479D01*
X66236410Y-136873396D01*
X66101959Y-136900140D01*
X65936761Y-136933000D01*
X65631239Y-136933000D01*
X65466041Y-136900140D01*
X65331590Y-136873396D01*
X65049326Y-136756479D01*
X64795295Y-136586741D01*
X64579259Y-136370705D01*
X64409521Y-136116674D01*
X64292604Y-135834410D01*
X64233848Y-135539023D01*
X64233000Y-135534761D01*
X64233000Y-135229239D01*
X64262802Y-135079415D01*
X64292604Y-134929590D01*
X64409521Y-134647326D01*
X64579259Y-134393295D01*
X64795295Y-134177259D01*
X65049326Y-134007521D01*
X65331590Y-133890604D01*
X65481415Y-133860802D01*
X65631239Y-133831000D01*
X65936761Y-133831000D01*
X66086585Y-133860802D01*
G37*
G36*
X95080571Y-134996863D02*
G01*
X95159023Y-135004590D01*
X95259682Y-135035125D01*
X95310013Y-135050392D01*
X95449165Y-135124771D01*
X95571133Y-135224867D01*
X95671229Y-135346835D01*
X95745608Y-135485987D01*
X95754662Y-135515836D01*
X95791410Y-135636977D01*
X95806875Y-135794000D01*
X95791410Y-135951023D01*
X95761013Y-136051229D01*
X95745608Y-136102013D01*
X95671229Y-136241165D01*
X95571133Y-136363133D01*
X95449165Y-136463229D01*
X95310013Y-136537608D01*
X95259682Y-136552875D01*
X95159023Y-136583410D01*
X95080571Y-136591137D01*
X95041346Y-136595000D01*
X94442654Y-136595000D01*
X94403429Y-136591137D01*
X94324977Y-136583410D01*
X94224318Y-136552875D01*
X94173987Y-136537608D01*
X94034835Y-136463229D01*
X93912867Y-136363133D01*
X93812771Y-136241165D01*
X93738392Y-136102013D01*
X93722987Y-136051229D01*
X93692590Y-135951023D01*
X93677125Y-135794000D01*
X93692590Y-135636977D01*
X93729338Y-135515836D01*
X93738392Y-135485987D01*
X93812771Y-135346835D01*
X93912867Y-135224867D01*
X94034835Y-135124771D01*
X94173987Y-135050392D01*
X94224318Y-135035125D01*
X94324977Y-135004590D01*
X94403429Y-134996863D01*
X94442654Y-134993000D01*
X95041346Y-134993000D01*
X95080571Y-134996863D01*
G37*
G36*
X70442571Y-134584863D02*
G01*
X70521023Y-134592590D01*
X70621682Y-134623125D01*
X70672013Y-134638392D01*
X70811165Y-134712771D01*
X70933133Y-134812867D01*
X71033229Y-134934835D01*
X71107608Y-135073987D01*
X71107608Y-135073988D01*
X71153410Y-135224977D01*
X71168875Y-135382000D01*
X71153410Y-135539023D01*
X71126374Y-135628148D01*
X71107608Y-135690013D01*
X71033229Y-135829165D01*
X70933133Y-135951133D01*
X70811165Y-136051229D01*
X70672013Y-136125608D01*
X70621682Y-136140875D01*
X70521023Y-136171410D01*
X70442571Y-136179137D01*
X70403346Y-136183000D01*
X69804654Y-136183000D01*
X69765429Y-136179137D01*
X69686977Y-136171410D01*
X69586318Y-136140875D01*
X69535987Y-136125608D01*
X69396835Y-136051229D01*
X69274867Y-135951133D01*
X69174771Y-135829165D01*
X69100392Y-135690013D01*
X69081626Y-135628148D01*
X69054590Y-135539023D01*
X69039125Y-135382000D01*
X69054590Y-135224977D01*
X69100392Y-135073988D01*
X69100392Y-135073987D01*
X69174771Y-134934835D01*
X69274867Y-134812867D01*
X69396835Y-134712771D01*
X69535987Y-134638392D01*
X69586318Y-134623125D01*
X69686977Y-134592590D01*
X69765429Y-134584863D01*
X69804654Y-134581000D01*
X70403346Y-134581000D01*
X70442571Y-134584863D01*
G37*
G36*
X75138228Y-134055703D02*
G01*
X75293100Y-134119853D01*
X75432481Y-134212985D01*
X75551015Y-134331519D01*
X75644147Y-134470900D01*
X75708297Y-134625772D01*
X75741000Y-134790184D01*
X75741000Y-134957816D01*
X75708297Y-135122228D01*
X75644147Y-135277100D01*
X75551015Y-135416481D01*
X75432481Y-135535015D01*
X75293100Y-135628147D01*
X75138228Y-135692297D01*
X74973816Y-135725000D01*
X74806184Y-135725000D01*
X74641772Y-135692297D01*
X74486900Y-135628147D01*
X74347519Y-135535015D01*
X74228985Y-135416481D01*
X74135853Y-135277100D01*
X74071703Y-135122228D01*
X74039000Y-134957816D01*
X74039000Y-134790184D01*
X74071703Y-134625772D01*
X74135853Y-134470900D01*
X74228985Y-134331519D01*
X74347519Y-134212985D01*
X74486900Y-134119853D01*
X74641772Y-134055703D01*
X74806184Y-134023000D01*
X74973816Y-134023000D01*
X75138228Y-134055703D01*
G37*
G36*
X90378228Y-134055703D02*
G01*
X90533100Y-134119853D01*
X90672481Y-134212985D01*
X90791015Y-134331519D01*
X90884147Y-134470900D01*
X90948297Y-134625772D01*
X90981000Y-134790184D01*
X90981000Y-134957816D01*
X90948297Y-135122228D01*
X90884147Y-135277100D01*
X90791015Y-135416481D01*
X90672481Y-135535015D01*
X90533100Y-135628147D01*
X90378228Y-135692297D01*
X90213816Y-135725000D01*
X90046184Y-135725000D01*
X89881772Y-135692297D01*
X89726900Y-135628147D01*
X89587519Y-135535015D01*
X89468985Y-135416481D01*
X89375853Y-135277100D01*
X89311703Y-135122228D01*
X89279000Y-134957816D01*
X89279000Y-134790184D01*
X89311703Y-134625772D01*
X89375853Y-134470900D01*
X89468985Y-134331519D01*
X89587519Y-134212985D01*
X89726900Y-134119853D01*
X89881772Y-134055703D01*
X90046184Y-134023000D01*
X90213816Y-134023000D01*
X90378228Y-134055703D01*
G37*
G36*
X95080571Y-131996863D02*
G01*
X95159023Y-132004590D01*
X95259682Y-132035125D01*
X95310013Y-132050392D01*
X95449165Y-132124771D01*
X95571133Y-132224867D01*
X95671229Y-132346835D01*
X95745608Y-132485987D01*
X95745608Y-132485988D01*
X95791410Y-132636977D01*
X95806875Y-132794000D01*
X95791410Y-132951023D01*
X95778065Y-132995015D01*
X95745608Y-133102013D01*
X95671229Y-133241165D01*
X95571133Y-133363133D01*
X95449165Y-133463229D01*
X95310013Y-133537608D01*
X95259682Y-133552875D01*
X95159023Y-133583410D01*
X95080571Y-133591137D01*
X95041346Y-133595000D01*
X94442654Y-133595000D01*
X94403429Y-133591137D01*
X94324977Y-133583410D01*
X94224318Y-133552875D01*
X94173987Y-133537608D01*
X94034835Y-133463229D01*
X93912867Y-133363133D01*
X93812771Y-133241165D01*
X93738392Y-133102013D01*
X93705935Y-132995015D01*
X93692590Y-132951023D01*
X93677125Y-132794000D01*
X93692590Y-132636977D01*
X93738392Y-132485988D01*
X93738392Y-132485987D01*
X93812771Y-132346835D01*
X93912867Y-132224867D01*
X94034835Y-132124771D01*
X94173987Y-132050392D01*
X94224318Y-132035125D01*
X94324977Y-132004590D01*
X94403429Y-131996863D01*
X94442654Y-131993000D01*
X95041346Y-131993000D01*
X95080571Y-131996863D01*
G37*
G36*
X99364585Y-130422802D02*
G01*
X99514410Y-130452604D01*
X99796674Y-130569521D01*
X100050705Y-130739259D01*
X100266741Y-130955295D01*
X100436479Y-131209326D01*
X100553396Y-131491590D01*
X100613000Y-131791240D01*
X100613000Y-132096760D01*
X100553396Y-132396410D01*
X100436479Y-132678674D01*
X100266741Y-132932705D01*
X100050705Y-133148741D01*
X99796674Y-133318479D01*
X99514410Y-133435396D01*
X99374484Y-133463229D01*
X99214761Y-133495000D01*
X98909239Y-133495000D01*
X98749516Y-133463229D01*
X98609590Y-133435396D01*
X98327326Y-133318479D01*
X98073295Y-133148741D01*
X97857259Y-132932705D01*
X97687521Y-132678674D01*
X97570604Y-132396410D01*
X97511000Y-132096760D01*
X97511000Y-131791240D01*
X97570604Y-131491590D01*
X97687521Y-131209326D01*
X97857259Y-130955295D01*
X98073295Y-130739259D01*
X98327326Y-130569521D01*
X98609590Y-130452604D01*
X98759415Y-130422802D01*
X98909239Y-130393000D01*
X99214761Y-130393000D01*
X99364585Y-130422802D01*
G37*
G36*
X75138228Y-131515703D02*
G01*
X75293100Y-131579853D01*
X75432481Y-131672985D01*
X75551015Y-131791519D01*
X75644147Y-131930900D01*
X75708297Y-132085772D01*
X75741000Y-132250184D01*
X75741000Y-132417816D01*
X75708297Y-132582228D01*
X75644147Y-132737100D01*
X75551015Y-132876481D01*
X75432481Y-132995015D01*
X75293100Y-133088147D01*
X75138228Y-133152297D01*
X74973816Y-133185000D01*
X74806184Y-133185000D01*
X74641772Y-133152297D01*
X74486900Y-133088147D01*
X74347519Y-132995015D01*
X74228985Y-132876481D01*
X74135853Y-132737100D01*
X74071703Y-132582228D01*
X74039000Y-132417816D01*
X74039000Y-132250184D01*
X74071703Y-132085772D01*
X74135853Y-131930900D01*
X74228985Y-131791519D01*
X74347519Y-131672985D01*
X74486900Y-131579853D01*
X74641772Y-131515703D01*
X74806184Y-131483000D01*
X74973816Y-131483000D01*
X75138228Y-131515703D01*
G37*
G36*
X90378228Y-131515703D02*
G01*
X90533100Y-131579853D01*
X90672481Y-131672985D01*
X90791015Y-131791519D01*
X90884147Y-131930900D01*
X90948297Y-132085772D01*
X90981000Y-132250184D01*
X90981000Y-132417816D01*
X90948297Y-132582228D01*
X90884147Y-132737100D01*
X90791015Y-132876481D01*
X90672481Y-132995015D01*
X90533100Y-133088147D01*
X90378228Y-133152297D01*
X90213816Y-133185000D01*
X90046184Y-133185000D01*
X89881772Y-133152297D01*
X89726900Y-133088147D01*
X89587519Y-132995015D01*
X89468985Y-132876481D01*
X89375853Y-132737100D01*
X89311703Y-132582228D01*
X89279000Y-132417816D01*
X89279000Y-132250184D01*
X89311703Y-132085772D01*
X89375853Y-131930900D01*
X89468985Y-131791519D01*
X89587519Y-131672985D01*
X89726900Y-131579853D01*
X89881772Y-131515703D01*
X90046184Y-131483000D01*
X90213816Y-131483000D01*
X90378228Y-131515703D01*
G37*
G36*
X70442571Y-131584863D02*
G01*
X70521023Y-131592590D01*
X70621682Y-131623125D01*
X70672013Y-131638392D01*
X70811165Y-131712771D01*
X70933133Y-131812867D01*
X71033229Y-131934835D01*
X71107608Y-132073987D01*
X71111183Y-132085772D01*
X71153410Y-132224977D01*
X71168875Y-132382000D01*
X71153410Y-132539023D01*
X71123696Y-132636977D01*
X71107608Y-132690013D01*
X71033229Y-132829165D01*
X70933133Y-132951133D01*
X70811165Y-133051229D01*
X70672013Y-133125608D01*
X70621682Y-133140875D01*
X70521023Y-133171410D01*
X70442571Y-133179137D01*
X70403346Y-133183000D01*
X69804654Y-133183000D01*
X69765429Y-133179137D01*
X69686977Y-133171410D01*
X69586318Y-133140875D01*
X69535987Y-133125608D01*
X69396835Y-133051229D01*
X69274867Y-132951133D01*
X69174771Y-132829165D01*
X69100392Y-132690013D01*
X69084304Y-132636977D01*
X69054590Y-132539023D01*
X69039125Y-132382000D01*
X69054590Y-132224977D01*
X69096817Y-132085772D01*
X69100392Y-132073987D01*
X69174771Y-131934835D01*
X69274867Y-131812867D01*
X69396835Y-131712771D01*
X69535987Y-131638392D01*
X69586318Y-131623125D01*
X69686977Y-131592590D01*
X69765429Y-131584863D01*
X69804654Y-131581000D01*
X70403346Y-131581000D01*
X70442571Y-131584863D01*
G37*
G36*
X75138228Y-128975703D02*
G01*
X75293100Y-129039853D01*
X75432481Y-129132985D01*
X75551015Y-129251519D01*
X75644147Y-129390900D01*
X75708297Y-129545772D01*
X75741000Y-129710184D01*
X75741000Y-129877816D01*
X75708297Y-130042228D01*
X75644147Y-130197100D01*
X75551015Y-130336481D01*
X75432481Y-130455015D01*
X75293100Y-130548147D01*
X75138228Y-130612297D01*
X74973816Y-130645000D01*
X74806184Y-130645000D01*
X74641772Y-130612297D01*
X74486900Y-130548147D01*
X74347519Y-130455015D01*
X74228985Y-130336481D01*
X74135853Y-130197100D01*
X74071703Y-130042228D01*
X74039000Y-129877816D01*
X74039000Y-129710184D01*
X74071703Y-129545772D01*
X74135853Y-129390900D01*
X74228985Y-129251519D01*
X74347519Y-129132985D01*
X74486900Y-129039853D01*
X74641772Y-128975703D01*
X74806184Y-128943000D01*
X74973816Y-128943000D01*
X75138228Y-128975703D01*
G37*
G36*
X90378228Y-128975703D02*
G01*
X90533100Y-129039853D01*
X90672481Y-129132985D01*
X90791015Y-129251519D01*
X90884147Y-129390900D01*
X90948297Y-129545772D01*
X90981000Y-129710184D01*
X90981000Y-129877816D01*
X90948297Y-130042228D01*
X90884147Y-130197100D01*
X90791015Y-130336481D01*
X90672481Y-130455015D01*
X90533100Y-130548147D01*
X90378228Y-130612297D01*
X90213816Y-130645000D01*
X90046184Y-130645000D01*
X89881772Y-130612297D01*
X89726900Y-130548147D01*
X89587519Y-130455015D01*
X89468985Y-130336481D01*
X89375853Y-130197100D01*
X89311703Y-130042228D01*
X89279000Y-129877816D01*
X89279000Y-129710184D01*
X89311703Y-129545772D01*
X89375853Y-129390900D01*
X89468985Y-129251519D01*
X89587519Y-129132985D01*
X89726900Y-129039853D01*
X89881772Y-128975703D01*
X90046184Y-128943000D01*
X90213816Y-128943000D01*
X90378228Y-128975703D01*
G37*
G36*
X95655048Y-128997122D02*
G01*
X95689387Y-129007539D01*
X95721036Y-129024456D01*
X95748778Y-129047222D01*
X95771544Y-129074964D01*
X95788461Y-129106613D01*
X95798878Y-129140952D01*
X95803000Y-129182807D01*
X95803000Y-130405193D01*
X95798878Y-130447048D01*
X95788461Y-130481387D01*
X95771544Y-130513036D01*
X95748778Y-130540778D01*
X95721036Y-130563544D01*
X95689387Y-130580461D01*
X95655048Y-130590878D01*
X95613193Y-130595000D01*
X93870807Y-130595000D01*
X93828952Y-130590878D01*
X93794613Y-130580461D01*
X93762964Y-130563544D01*
X93735222Y-130540778D01*
X93712456Y-130513036D01*
X93695539Y-130481387D01*
X93685122Y-130447048D01*
X93681000Y-130405193D01*
X93681000Y-129182807D01*
X93685122Y-129140952D01*
X93695539Y-129106613D01*
X93712456Y-129074964D01*
X93735222Y-129047222D01*
X93762964Y-129024456D01*
X93794613Y-129007539D01*
X93828952Y-128997122D01*
X93870807Y-128993000D01*
X95613193Y-128993000D01*
X95655048Y-128997122D01*
G37*
G36*
X90378228Y-126435703D02*
G01*
X90533100Y-126499853D01*
X90672481Y-126592985D01*
X90791015Y-126711519D01*
X90884147Y-126850900D01*
X90948297Y-127005772D01*
X90981000Y-127170184D01*
X90981000Y-127337816D01*
X90948297Y-127502228D01*
X90884147Y-127657100D01*
X90791015Y-127796481D01*
X90672481Y-127915015D01*
X90533100Y-128008147D01*
X90378228Y-128072297D01*
X90213816Y-128105000D01*
X90046184Y-128105000D01*
X89881772Y-128072297D01*
X89726900Y-128008147D01*
X89587519Y-127915015D01*
X89468985Y-127796481D01*
X89375853Y-127657100D01*
X89311703Y-127502228D01*
X89279000Y-127337816D01*
X89279000Y-127170184D01*
X89311703Y-127005772D01*
X89375853Y-126850900D01*
X89468985Y-126711519D01*
X89587519Y-126592985D01*
X89726900Y-126499853D01*
X89881772Y-126435703D01*
X90046184Y-126403000D01*
X90213816Y-126403000D01*
X90378228Y-126435703D01*
G37*
G36*
X75138228Y-126435703D02*
G01*
X75293100Y-126499853D01*
X75432481Y-126592985D01*
X75551015Y-126711519D01*
X75644147Y-126850900D01*
X75708297Y-127005772D01*
X75741000Y-127170184D01*
X75741000Y-127337816D01*
X75708297Y-127502228D01*
X75644147Y-127657100D01*
X75551015Y-127796481D01*
X75432481Y-127915015D01*
X75293100Y-128008147D01*
X75138228Y-128072297D01*
X74973816Y-128105000D01*
X74806184Y-128105000D01*
X74641772Y-128072297D01*
X74486900Y-128008147D01*
X74347519Y-127915015D01*
X74228985Y-127796481D01*
X74135853Y-127657100D01*
X74071703Y-127502228D01*
X74039000Y-127337816D01*
X74039000Y-127170184D01*
X74071703Y-127005772D01*
X74135853Y-126850900D01*
X74228985Y-126711519D01*
X74347519Y-126592985D01*
X74486900Y-126499853D01*
X74641772Y-126435703D01*
X74806184Y-126403000D01*
X74973816Y-126403000D01*
X75138228Y-126435703D01*
G37*
G36*
X90378228Y-123895703D02*
G01*
X90533100Y-123959853D01*
X90672481Y-124052985D01*
X90791015Y-124171519D01*
X90884147Y-124310900D01*
X90948297Y-124465772D01*
X90981000Y-124630184D01*
X90981000Y-124797816D01*
X90948297Y-124962228D01*
X90884147Y-125117100D01*
X90791015Y-125256481D01*
X90672481Y-125375015D01*
X90533100Y-125468147D01*
X90378228Y-125532297D01*
X90213816Y-125565000D01*
X90046184Y-125565000D01*
X89881772Y-125532297D01*
X89726900Y-125468147D01*
X89587519Y-125375015D01*
X89468985Y-125256481D01*
X89375853Y-125117100D01*
X89311703Y-124962228D01*
X89279000Y-124797816D01*
X89279000Y-124630184D01*
X89311703Y-124465772D01*
X89375853Y-124310900D01*
X89468985Y-124171519D01*
X89587519Y-124052985D01*
X89726900Y-123959853D01*
X89881772Y-123895703D01*
X90046184Y-123863000D01*
X90213816Y-123863000D01*
X90378228Y-123895703D01*
G37*
G36*
X75138228Y-123895703D02*
G01*
X75293100Y-123959853D01*
X75432481Y-124052985D01*
X75551015Y-124171519D01*
X75644147Y-124310900D01*
X75708297Y-124465772D01*
X75741000Y-124630184D01*
X75741000Y-124797816D01*
X75708297Y-124962228D01*
X75644147Y-125117100D01*
X75551015Y-125256481D01*
X75432481Y-125375015D01*
X75293100Y-125468147D01*
X75138228Y-125532297D01*
X74973816Y-125565000D01*
X74806184Y-125565000D01*
X74641772Y-125532297D01*
X74486900Y-125468147D01*
X74347519Y-125375015D01*
X74228985Y-125256481D01*
X74135853Y-125117100D01*
X74071703Y-124962228D01*
X74039000Y-124797816D01*
X74039000Y-124630184D01*
X74071703Y-124465772D01*
X74135853Y-124310900D01*
X74228985Y-124171519D01*
X74347519Y-124052985D01*
X74486900Y-123959853D01*
X74641772Y-123895703D01*
X74806184Y-123863000D01*
X74973816Y-123863000D01*
X75138228Y-123895703D01*
G37*
G36*
X97555499Y-124192445D02*
G01*
X97592995Y-124203820D01*
X97627554Y-124222292D01*
X97657847Y-124247153D01*
X97682708Y-124277446D01*
X97701180Y-124312005D01*
X97712555Y-124349501D01*
X97717000Y-124394638D01*
X97717000Y-125033362D01*
X97712555Y-125078499D01*
X97701180Y-125115995D01*
X97682708Y-125150554D01*
X97657847Y-125180847D01*
X97627554Y-125205708D01*
X97592995Y-125224180D01*
X97555499Y-125235555D01*
X97510362Y-125240000D01*
X96771638Y-125240000D01*
X96726501Y-125235555D01*
X96689005Y-125224180D01*
X96654446Y-125205708D01*
X96624153Y-125180847D01*
X96599292Y-125150554D01*
X96580820Y-125115995D01*
X96569445Y-125078499D01*
X96565000Y-125033362D01*
X96565000Y-124394638D01*
X96569445Y-124349501D01*
X96580820Y-124312005D01*
X96599292Y-124277446D01*
X96624153Y-124247153D01*
X96654446Y-124222292D01*
X96689005Y-124203820D01*
X96726501Y-124192445D01*
X96771638Y-124188000D01*
X97510362Y-124188000D01*
X97555499Y-124192445D01*
G37*
G36*
X101873499Y-124192445D02*
G01*
X101910995Y-124203820D01*
X101945554Y-124222292D01*
X101975847Y-124247153D01*
X102000708Y-124277446D01*
X102019180Y-124312005D01*
X102030555Y-124349501D01*
X102035000Y-124394638D01*
X102035000Y-125033362D01*
X102030555Y-125078499D01*
X102019180Y-125115995D01*
X102000708Y-125150554D01*
X101975847Y-125180847D01*
X101945554Y-125205708D01*
X101910995Y-125224180D01*
X101873499Y-125235555D01*
X101828362Y-125240000D01*
X101089638Y-125240000D01*
X101044501Y-125235555D01*
X101007005Y-125224180D01*
X100972446Y-125205708D01*
X100942153Y-125180847D01*
X100917292Y-125150554D01*
X100898820Y-125115995D01*
X100887445Y-125078499D01*
X100883000Y-125033362D01*
X100883000Y-124394638D01*
X100887445Y-124349501D01*
X100898820Y-124312005D01*
X100917292Y-124277446D01*
X100942153Y-124247153D01*
X100972446Y-124222292D01*
X101007005Y-124203820D01*
X101044501Y-124192445D01*
X101089638Y-124188000D01*
X101828362Y-124188000D01*
X101873499Y-124192445D01*
G37*
G36*
X100123499Y-124192445D02*
G01*
X100160995Y-124203820D01*
X100195554Y-124222292D01*
X100225847Y-124247153D01*
X100250708Y-124277446D01*
X100269180Y-124312005D01*
X100280555Y-124349501D01*
X100285000Y-124394638D01*
X100285000Y-125033362D01*
X100280555Y-125078499D01*
X100269180Y-125115995D01*
X100250708Y-125150554D01*
X100225847Y-125180847D01*
X100195554Y-125205708D01*
X100160995Y-125224180D01*
X100123499Y-125235555D01*
X100078362Y-125240000D01*
X99339638Y-125240000D01*
X99294501Y-125235555D01*
X99257005Y-125224180D01*
X99222446Y-125205708D01*
X99192153Y-125180847D01*
X99167292Y-125150554D01*
X99148820Y-125115995D01*
X99137445Y-125078499D01*
X99133000Y-125033362D01*
X99133000Y-124394638D01*
X99137445Y-124349501D01*
X99148820Y-124312005D01*
X99167292Y-124277446D01*
X99192153Y-124247153D01*
X99222446Y-124222292D01*
X99257005Y-124203820D01*
X99294501Y-124192445D01*
X99339638Y-124188000D01*
X100078362Y-124188000D01*
X100123499Y-124192445D01*
G37*
G36*
X95805499Y-124192445D02*
G01*
X95842995Y-124203820D01*
X95877554Y-124222292D01*
X95907847Y-124247153D01*
X95932708Y-124277446D01*
X95951180Y-124312005D01*
X95962555Y-124349501D01*
X95967000Y-124394638D01*
X95967000Y-125033362D01*
X95962555Y-125078499D01*
X95951180Y-125115995D01*
X95932708Y-125150554D01*
X95907847Y-125180847D01*
X95877554Y-125205708D01*
X95842995Y-125224180D01*
X95805499Y-125235555D01*
X95760362Y-125240000D01*
X95021638Y-125240000D01*
X94976501Y-125235555D01*
X94939005Y-125224180D01*
X94904446Y-125205708D01*
X94874153Y-125180847D01*
X94849292Y-125150554D01*
X94830820Y-125115995D01*
X94819445Y-125078499D01*
X94815000Y-125033362D01*
X94815000Y-124394638D01*
X94819445Y-124349501D01*
X94830820Y-124312005D01*
X94849292Y-124277446D01*
X94874153Y-124247153D01*
X94904446Y-124222292D01*
X94939005Y-124203820D01*
X94976501Y-124192445D01*
X95021638Y-124188000D01*
X95760362Y-124188000D01*
X95805499Y-124192445D01*
G37*
G36*
X71017048Y-123241122D02*
G01*
X71051387Y-123251539D01*
X71083036Y-123268456D01*
X71110778Y-123291222D01*
X71133544Y-123318964D01*
X71150461Y-123350613D01*
X71160878Y-123384952D01*
X71165000Y-123426807D01*
X71165000Y-124649193D01*
X71160878Y-124691048D01*
X71150461Y-124725387D01*
X71133544Y-124757036D01*
X71110778Y-124784778D01*
X71083036Y-124807544D01*
X71051387Y-124824461D01*
X71017048Y-124834878D01*
X70975193Y-124839000D01*
X69232807Y-124839000D01*
X69190952Y-124834878D01*
X69156613Y-124824461D01*
X69124964Y-124807544D01*
X69097222Y-124784778D01*
X69074456Y-124757036D01*
X69057539Y-124725387D01*
X69047122Y-124691048D01*
X69043000Y-124649193D01*
X69043000Y-123426807D01*
X69047122Y-123384952D01*
X69057539Y-123350613D01*
X69074456Y-123318964D01*
X69097222Y-123291222D01*
X69124964Y-123268456D01*
X69156613Y-123251539D01*
X69190952Y-123241122D01*
X69232807Y-123237000D01*
X70975193Y-123237000D01*
X71017048Y-123241122D01*
G37*
G36*
X101985000Y-123421000D02*
G01*
X101083000Y-123421000D01*
X101083000Y-122419000D01*
X101985000Y-122419000D01*
X101985000Y-123421000D01*
G37*
G36*
X100085000Y-123421000D02*
G01*
X99183000Y-123421000D01*
X99183000Y-122419000D01*
X100085000Y-122419000D01*
X100085000Y-123421000D01*
G37*
G36*
X97667000Y-123421000D02*
G01*
X96765000Y-123421000D01*
X96765000Y-122419000D01*
X97667000Y-122419000D01*
X97667000Y-123421000D01*
G37*
G36*
X95767000Y-123421000D02*
G01*
X94865000Y-123421000D01*
X94865000Y-122419000D01*
X95767000Y-122419000D01*
X95767000Y-123421000D01*
G37*
G36*
X93836499Y-122223445D02*
G01*
X93873995Y-122234820D01*
X93908554Y-122253292D01*
X93938847Y-122278153D01*
X93963708Y-122308446D01*
X93982180Y-122343005D01*
X93993555Y-122380501D01*
X93998000Y-122425638D01*
X93998000Y-123164362D01*
X93993555Y-123209499D01*
X93982180Y-123246995D01*
X93963708Y-123281554D01*
X93938847Y-123311847D01*
X93908554Y-123336708D01*
X93873995Y-123355180D01*
X93836499Y-123366555D01*
X93791362Y-123371000D01*
X93152638Y-123371000D01*
X93107501Y-123366555D01*
X93070005Y-123355180D01*
X93035446Y-123336708D01*
X93005153Y-123311847D01*
X92980292Y-123281554D01*
X92961820Y-123246995D01*
X92950445Y-123209499D01*
X92946000Y-123164362D01*
X92946000Y-122425638D01*
X92950445Y-122380501D01*
X92961820Y-122343005D01*
X92980292Y-122308446D01*
X93005153Y-122278153D01*
X93035446Y-122253292D01*
X93070005Y-122234820D01*
X93107501Y-122223445D01*
X93152638Y-122219000D01*
X93791362Y-122219000D01*
X93836499Y-122223445D01*
G37*
G36*
X103742499Y-122223445D02*
G01*
X103779995Y-122234820D01*
X103814554Y-122253292D01*
X103844847Y-122278153D01*
X103869708Y-122308446D01*
X103888180Y-122343005D01*
X103899555Y-122380501D01*
X103904000Y-122425638D01*
X103904000Y-123164362D01*
X103899555Y-123209499D01*
X103888180Y-123246995D01*
X103869708Y-123281554D01*
X103844847Y-123311847D01*
X103814554Y-123336708D01*
X103779995Y-123355180D01*
X103742499Y-123366555D01*
X103697362Y-123371000D01*
X103058638Y-123371000D01*
X103013501Y-123366555D01*
X102976005Y-123355180D01*
X102941446Y-123336708D01*
X102911153Y-123311847D01*
X102886292Y-123281554D01*
X102867820Y-123246995D01*
X102856445Y-123209499D01*
X102852000Y-123164362D01*
X102852000Y-122425638D01*
X102856445Y-122380501D01*
X102867820Y-122343005D01*
X102886292Y-122308446D01*
X102911153Y-122278153D01*
X102941446Y-122253292D01*
X102976005Y-122234820D01*
X103013501Y-122223445D01*
X103058638Y-122219000D01*
X103697362Y-122219000D01*
X103742499Y-122223445D01*
G37*
G36*
X90378228Y-121355703D02*
G01*
X90533100Y-121419853D01*
X90672481Y-121512985D01*
X90791015Y-121631519D01*
X90884147Y-121770900D01*
X90948297Y-121925772D01*
X90981000Y-122090184D01*
X90981000Y-122257816D01*
X90948297Y-122422228D01*
X90884147Y-122577100D01*
X90791015Y-122716481D01*
X90672481Y-122835015D01*
X90533100Y-122928147D01*
X90378228Y-122992297D01*
X90213816Y-123025000D01*
X90046184Y-123025000D01*
X89881772Y-122992297D01*
X89726900Y-122928147D01*
X89587519Y-122835015D01*
X89468985Y-122716481D01*
X89375853Y-122577100D01*
X89311703Y-122422228D01*
X89279000Y-122257816D01*
X89279000Y-122090184D01*
X89311703Y-121925772D01*
X89375853Y-121770900D01*
X89468985Y-121631519D01*
X89587519Y-121512985D01*
X89726900Y-121419853D01*
X89881772Y-121355703D01*
X90046184Y-121323000D01*
X90213816Y-121323000D01*
X90378228Y-121355703D01*
G37*
G36*
X75138228Y-121355703D02*
G01*
X75293100Y-121419853D01*
X75432481Y-121512985D01*
X75551015Y-121631519D01*
X75644147Y-121770900D01*
X75708297Y-121925772D01*
X75741000Y-122090184D01*
X75741000Y-122257816D01*
X75708297Y-122422228D01*
X75644147Y-122577100D01*
X75551015Y-122716481D01*
X75432481Y-122835015D01*
X75293100Y-122928147D01*
X75138228Y-122992297D01*
X74973816Y-123025000D01*
X74806184Y-123025000D01*
X74641772Y-122992297D01*
X74486900Y-122928147D01*
X74347519Y-122835015D01*
X74228985Y-122716481D01*
X74135853Y-122577100D01*
X74071703Y-122422228D01*
X74039000Y-122257816D01*
X74039000Y-122090184D01*
X74071703Y-121925772D01*
X74135853Y-121770900D01*
X74228985Y-121631519D01*
X74347519Y-121512985D01*
X74486900Y-121419853D01*
X74641772Y-121355703D01*
X74806184Y-121323000D01*
X74973816Y-121323000D01*
X75138228Y-121355703D01*
G37*
G36*
X66086585Y-119516802D02*
G01*
X66236410Y-119546604D01*
X66518674Y-119663521D01*
X66772705Y-119833259D01*
X66988741Y-120049295D01*
X67158479Y-120303326D01*
X67275396Y-120585590D01*
X67304519Y-120732000D01*
X67335000Y-120885239D01*
X67335000Y-121190761D01*
X67334152Y-121195023D01*
X67275396Y-121490410D01*
X67158479Y-121772674D01*
X66988741Y-122026705D01*
X66772705Y-122242741D01*
X66518674Y-122412479D01*
X66236410Y-122529396D01*
X66086585Y-122559198D01*
X65936761Y-122589000D01*
X65631239Y-122589000D01*
X65481415Y-122559198D01*
X65331590Y-122529396D01*
X65049326Y-122412479D01*
X64795295Y-122242741D01*
X64579259Y-122026705D01*
X64409521Y-121772674D01*
X64292604Y-121490410D01*
X64233848Y-121195023D01*
X64233000Y-121190761D01*
X64233000Y-120885239D01*
X64263481Y-120732000D01*
X64292604Y-120585590D01*
X64409521Y-120303326D01*
X64579259Y-120049295D01*
X64795295Y-119833259D01*
X65049326Y-119663521D01*
X65331590Y-119546604D01*
X65481415Y-119516802D01*
X65631239Y-119487000D01*
X65936761Y-119487000D01*
X66086585Y-119516802D01*
G37*
G36*
X70442571Y-120240863D02*
G01*
X70521023Y-120248590D01*
X70612054Y-120276204D01*
X70672013Y-120294392D01*
X70811165Y-120368771D01*
X70933133Y-120468867D01*
X71033229Y-120590835D01*
X71107608Y-120729987D01*
X71122875Y-120780318D01*
X71153410Y-120880977D01*
X71168875Y-121038000D01*
X71153410Y-121195023D01*
X71122875Y-121295682D01*
X71107608Y-121346013D01*
X71033229Y-121485165D01*
X70933133Y-121607133D01*
X70811165Y-121707229D01*
X70672013Y-121781608D01*
X70621682Y-121796875D01*
X70521023Y-121827410D01*
X70442571Y-121835137D01*
X70403346Y-121839000D01*
X69804654Y-121839000D01*
X69765429Y-121835137D01*
X69686977Y-121827410D01*
X69586318Y-121796875D01*
X69535987Y-121781608D01*
X69396835Y-121707229D01*
X69274867Y-121607133D01*
X69174771Y-121485165D01*
X69100392Y-121346013D01*
X69085125Y-121295682D01*
X69054590Y-121195023D01*
X69039125Y-121038000D01*
X69054590Y-120880977D01*
X69085125Y-120780318D01*
X69100392Y-120729987D01*
X69174771Y-120590835D01*
X69274867Y-120468867D01*
X69396835Y-120368771D01*
X69535987Y-120294392D01*
X69595946Y-120276204D01*
X69686977Y-120248590D01*
X69765429Y-120240863D01*
X69804654Y-120237000D01*
X70403346Y-120237000D01*
X70442571Y-120240863D01*
G37*
G36*
X103742499Y-120473445D02*
G01*
X103779995Y-120484820D01*
X103814554Y-120503292D01*
X103844847Y-120528153D01*
X103869708Y-120558446D01*
X103888180Y-120593005D01*
X103899555Y-120630501D01*
X103904000Y-120675638D01*
X103904000Y-121414362D01*
X103899555Y-121459499D01*
X103888180Y-121496995D01*
X103869708Y-121531554D01*
X103844847Y-121561847D01*
X103814554Y-121586708D01*
X103779995Y-121605180D01*
X103742499Y-121616555D01*
X103697362Y-121621000D01*
X103058638Y-121621000D01*
X103013501Y-121616555D01*
X102976005Y-121605180D01*
X102941446Y-121586708D01*
X102911153Y-121561847D01*
X102886292Y-121531554D01*
X102867820Y-121496995D01*
X102856445Y-121459499D01*
X102852000Y-121414362D01*
X102852000Y-120675638D01*
X102856445Y-120630501D01*
X102867820Y-120593005D01*
X102886292Y-120558446D01*
X102911153Y-120528153D01*
X102941446Y-120503292D01*
X102976005Y-120484820D01*
X103013501Y-120473445D01*
X103058638Y-120469000D01*
X103697362Y-120469000D01*
X103742499Y-120473445D01*
G37*
G36*
X93836499Y-120473445D02*
G01*
X93873995Y-120484820D01*
X93908554Y-120503292D01*
X93938847Y-120528153D01*
X93963708Y-120558446D01*
X93982180Y-120593005D01*
X93993555Y-120630501D01*
X93998000Y-120675638D01*
X93998000Y-121414362D01*
X93993555Y-121459499D01*
X93982180Y-121496995D01*
X93963708Y-121531554D01*
X93938847Y-121561847D01*
X93908554Y-121586708D01*
X93873995Y-121605180D01*
X93836499Y-121616555D01*
X93791362Y-121621000D01*
X93152638Y-121621000D01*
X93107501Y-121616555D01*
X93070005Y-121605180D01*
X93035446Y-121586708D01*
X93005153Y-121561847D01*
X92980292Y-121531554D01*
X92961820Y-121496995D01*
X92950445Y-121459499D01*
X92946000Y-121414362D01*
X92946000Y-120675638D01*
X92950445Y-120630501D01*
X92961820Y-120593005D01*
X92980292Y-120558446D01*
X93005153Y-120528153D01*
X93035446Y-120503292D01*
X93070005Y-120484820D01*
X93107501Y-120473445D01*
X93152638Y-120469000D01*
X93791362Y-120469000D01*
X93836499Y-120473445D01*
G37*
G36*
X96717000Y-121421000D02*
G01*
X95815000Y-121421000D01*
X95815000Y-120419000D01*
X96717000Y-120419000D01*
X96717000Y-121421000D01*
G37*
G36*
X101035000Y-121421000D02*
G01*
X100133000Y-121421000D01*
X100133000Y-120419000D01*
X101035000Y-120419000D01*
X101035000Y-121421000D01*
G37*
G36*
X90378228Y-118815703D02*
G01*
X90533100Y-118879853D01*
X90672481Y-118972985D01*
X90791015Y-119091519D01*
X90884147Y-119230900D01*
X90948297Y-119385772D01*
X90981000Y-119550184D01*
X90981000Y-119717816D01*
X90948297Y-119882228D01*
X90884147Y-120037100D01*
X90791015Y-120176481D01*
X90672481Y-120295015D01*
X90533100Y-120388147D01*
X90378228Y-120452297D01*
X90213816Y-120485000D01*
X90046184Y-120485000D01*
X89881772Y-120452297D01*
X89726900Y-120388147D01*
X89587519Y-120295015D01*
X89468985Y-120176481D01*
X89375853Y-120037100D01*
X89311703Y-119882228D01*
X89279000Y-119717816D01*
X89279000Y-119550184D01*
X89311703Y-119385772D01*
X89375853Y-119230900D01*
X89468985Y-119091519D01*
X89587519Y-118972985D01*
X89726900Y-118879853D01*
X89881772Y-118815703D01*
X90046184Y-118783000D01*
X90213816Y-118783000D01*
X90378228Y-118815703D01*
G37*
G36*
X75138228Y-118815703D02*
G01*
X75293100Y-118879853D01*
X75432481Y-118972985D01*
X75551015Y-119091519D01*
X75644147Y-119230900D01*
X75708297Y-119385772D01*
X75741000Y-119550184D01*
X75741000Y-119717816D01*
X75708297Y-119882228D01*
X75644147Y-120037100D01*
X75551015Y-120176481D01*
X75432481Y-120295015D01*
X75293100Y-120388147D01*
X75138228Y-120452297D01*
X74973816Y-120485000D01*
X74806184Y-120485000D01*
X74641772Y-120452297D01*
X74486900Y-120388147D01*
X74347519Y-120295015D01*
X74228985Y-120176481D01*
X74135853Y-120037100D01*
X74071703Y-119882228D01*
X74039000Y-119717816D01*
X74039000Y-119550184D01*
X74071703Y-119385772D01*
X74135853Y-119230900D01*
X74228985Y-119091519D01*
X74347519Y-118972985D01*
X74486900Y-118879853D01*
X74641772Y-118815703D01*
X74806184Y-118783000D01*
X74973816Y-118783000D01*
X75138228Y-118815703D01*
G37*
G36*
X87130199Y-116767954D02*
G01*
X87142450Y-116768556D01*
X87160869Y-116768556D01*
X87183149Y-116770750D01*
X87267233Y-116787476D01*
X87288660Y-116793976D01*
X87367858Y-116826780D01*
X87373303Y-116829691D01*
X87373309Y-116829693D01*
X87382169Y-116834429D01*
X87382173Y-116834432D01*
X87387614Y-116837340D01*
X87458899Y-116884971D01*
X87476204Y-116899172D01*
X87536828Y-116959796D01*
X87551029Y-116977101D01*
X87598660Y-117048386D01*
X87601568Y-117053827D01*
X87601571Y-117053831D01*
X87606307Y-117062691D01*
X87606309Y-117062697D01*
X87609220Y-117068142D01*
X87642024Y-117147340D01*
X87648524Y-117168767D01*
X87665250Y-117252851D01*
X87667444Y-117275131D01*
X87667444Y-117293550D01*
X87668046Y-117305801D01*
X87669852Y-117324139D01*
X87669852Y-117861860D01*
X87668263Y-117877999D01*
X87663855Y-117892528D01*
X87658394Y-117905711D01*
X87653612Y-117929745D01*
X87653611Y-117954249D01*
X87658391Y-117978282D01*
X87667768Y-118000921D01*
X87669000Y-118002765D01*
X87669000Y-119234050D01*
X87662525Y-119246164D01*
X87655412Y-119269613D01*
X87653010Y-119293999D01*
X87655412Y-119318385D01*
X87662525Y-119341834D01*
X87664848Y-119346746D01*
X87668263Y-119358001D01*
X87669852Y-119374140D01*
X87669852Y-119911862D01*
X87668046Y-119930199D01*
X87667444Y-119942450D01*
X87667444Y-119960869D01*
X87665250Y-119983149D01*
X87648524Y-120067233D01*
X87642024Y-120088660D01*
X87609220Y-120167858D01*
X87606309Y-120173303D01*
X87606307Y-120173309D01*
X87601571Y-120182169D01*
X87601568Y-120182173D01*
X87598660Y-120187614D01*
X87551029Y-120258899D01*
X87536828Y-120276204D01*
X87476204Y-120336828D01*
X87458899Y-120351029D01*
X87387614Y-120398660D01*
X87382173Y-120401568D01*
X87382169Y-120401571D01*
X87373309Y-120406307D01*
X87373303Y-120406309D01*
X87367858Y-120409220D01*
X87288660Y-120442024D01*
X87267233Y-120448524D01*
X87183149Y-120465250D01*
X87160869Y-120467444D01*
X87142450Y-120467444D01*
X87130199Y-120468046D01*
X87111862Y-120469852D01*
X86624138Y-120469852D01*
X86605801Y-120468046D01*
X86593550Y-120467444D01*
X86575131Y-120467444D01*
X86552851Y-120465250D01*
X86468767Y-120448524D01*
X86447340Y-120442024D01*
X86368142Y-120409220D01*
X86362697Y-120406309D01*
X86362691Y-120406307D01*
X86353831Y-120401571D01*
X86353827Y-120401568D01*
X86348386Y-120398660D01*
X86277101Y-120351029D01*
X86259796Y-120336828D01*
X86199172Y-120276204D01*
X86184971Y-120258899D01*
X86137340Y-120187614D01*
X86134432Y-120182173D01*
X86134429Y-120182169D01*
X86129693Y-120173309D01*
X86129691Y-120173303D01*
X86126780Y-120167858D01*
X86093976Y-120088660D01*
X86087476Y-120067233D01*
X86070750Y-119983149D01*
X86068556Y-119960869D01*
X86068556Y-119942450D01*
X86067954Y-119930199D01*
X86066148Y-119911862D01*
X86066148Y-119374140D01*
X86067737Y-119358001D01*
X86072145Y-119343472D01*
X86077606Y-119330289D01*
X86082388Y-119306255D01*
X86082389Y-119281751D01*
X86077609Y-119257718D01*
X86068232Y-119235079D01*
X86067000Y-119233235D01*
X86067000Y-118001950D01*
X86073475Y-117989836D01*
X86080588Y-117966387D01*
X86082990Y-117942001D01*
X86080588Y-117917615D01*
X86073475Y-117894166D01*
X86071152Y-117889254D01*
X86067737Y-117877999D01*
X86066148Y-117861860D01*
X86066148Y-117324139D01*
X86067954Y-117305801D01*
X86068556Y-117293550D01*
X86068556Y-117275131D01*
X86070750Y-117252851D01*
X86087476Y-117168767D01*
X86093976Y-117147340D01*
X86126780Y-117068142D01*
X86129691Y-117062697D01*
X86129693Y-117062691D01*
X86134429Y-117053831D01*
X86134432Y-117053827D01*
X86137340Y-117048386D01*
X86184971Y-116977101D01*
X86199172Y-116959796D01*
X86259796Y-116899172D01*
X86277101Y-116884971D01*
X86348386Y-116837340D01*
X86353827Y-116834432D01*
X86353831Y-116834429D01*
X86362691Y-116829693D01*
X86362697Y-116829691D01*
X86368142Y-116826780D01*
X86447340Y-116793976D01*
X86468767Y-116787476D01*
X86552851Y-116770750D01*
X86575131Y-116768556D01*
X86593550Y-116768556D01*
X86605801Y-116767954D01*
X86624139Y-116766148D01*
X87111861Y-116766148D01*
X87130199Y-116767954D01*
G37*
G36*
X70442571Y-117240863D02*
G01*
X70521023Y-117248590D01*
X70608517Y-117275131D01*
X70672013Y-117294392D01*
X70811165Y-117368771D01*
X70933133Y-117468867D01*
X71033229Y-117590835D01*
X71107608Y-117729987D01*
X71107608Y-117729988D01*
X71153410Y-117880977D01*
X71168875Y-118038000D01*
X71153410Y-118195023D01*
X71122875Y-118295682D01*
X71107608Y-118346013D01*
X71033229Y-118485165D01*
X70933133Y-118607133D01*
X70811165Y-118707229D01*
X70672013Y-118781608D01*
X70621682Y-118796875D01*
X70521023Y-118827410D01*
X70442571Y-118835137D01*
X70403346Y-118839000D01*
X69804654Y-118839000D01*
X69765429Y-118835137D01*
X69686977Y-118827410D01*
X69586318Y-118796875D01*
X69535987Y-118781608D01*
X69396835Y-118707229D01*
X69274867Y-118607133D01*
X69174771Y-118485165D01*
X69100392Y-118346013D01*
X69085125Y-118295682D01*
X69054590Y-118195023D01*
X69039125Y-118038000D01*
X69054590Y-117880977D01*
X69100392Y-117729988D01*
X69100392Y-117729987D01*
X69174771Y-117590835D01*
X69274867Y-117468867D01*
X69396835Y-117368771D01*
X69535987Y-117294392D01*
X69599483Y-117275131D01*
X69686977Y-117248590D01*
X69765429Y-117240863D01*
X69804654Y-117237000D01*
X70403346Y-117237000D01*
X70442571Y-117240863D01*
G37*
G36*
X90378228Y-116275703D02*
G01*
X90533100Y-116339853D01*
X90672481Y-116432985D01*
X90791015Y-116551519D01*
X90884147Y-116690900D01*
X90948297Y-116845772D01*
X90981000Y-117010184D01*
X90981000Y-117177816D01*
X90948297Y-117342228D01*
X90884147Y-117497100D01*
X90791015Y-117636481D01*
X90672481Y-117755015D01*
X90533100Y-117848147D01*
X90378228Y-117912297D01*
X90213816Y-117945000D01*
X90046184Y-117945000D01*
X89881772Y-117912297D01*
X89726900Y-117848147D01*
X89587519Y-117755015D01*
X89468985Y-117636481D01*
X89375853Y-117497100D01*
X89311703Y-117342228D01*
X89279000Y-117177816D01*
X89279000Y-117010184D01*
X89311703Y-116845772D01*
X89375853Y-116690900D01*
X89468985Y-116551519D01*
X89587519Y-116432985D01*
X89726900Y-116339853D01*
X89881772Y-116275703D01*
X90046184Y-116243000D01*
X90213816Y-116243000D01*
X90378228Y-116275703D01*
G37*
G36*
X75138228Y-116275703D02*
G01*
X75293100Y-116339853D01*
X75432481Y-116432985D01*
X75551015Y-116551519D01*
X75644147Y-116690900D01*
X75708297Y-116845772D01*
X75741000Y-117010184D01*
X75741000Y-117177816D01*
X75708297Y-117342228D01*
X75644147Y-117497100D01*
X75551015Y-117636481D01*
X75432481Y-117755015D01*
X75293100Y-117848147D01*
X75138228Y-117912297D01*
X74973816Y-117945000D01*
X74806184Y-117945000D01*
X74641772Y-117912297D01*
X74486900Y-117848147D01*
X74347519Y-117755015D01*
X74228985Y-117636481D01*
X74135853Y-117497100D01*
X74071703Y-117342228D01*
X74039000Y-117177816D01*
X74039000Y-117010184D01*
X74071703Y-116845772D01*
X74135853Y-116690900D01*
X74228985Y-116551519D01*
X74347519Y-116432985D01*
X74486900Y-116339853D01*
X74641772Y-116275703D01*
X74806184Y-116243000D01*
X74973816Y-116243000D01*
X75138228Y-116275703D01*
G37*
G36*
X95080571Y-114896863D02*
G01*
X95159023Y-114904590D01*
X95259682Y-114935125D01*
X95310013Y-114950392D01*
X95449165Y-115024771D01*
X95571133Y-115124867D01*
X95671229Y-115246835D01*
X95745608Y-115385987D01*
X95746298Y-115388262D01*
X95791410Y-115536977D01*
X95806875Y-115694000D01*
X95791410Y-115851023D01*
X95760875Y-115951682D01*
X95745608Y-116002013D01*
X95671229Y-116141165D01*
X95571133Y-116263133D01*
X95449165Y-116363229D01*
X95310013Y-116437608D01*
X95259682Y-116452875D01*
X95159023Y-116483410D01*
X95080571Y-116491137D01*
X95041346Y-116495000D01*
X94442654Y-116495000D01*
X94403429Y-116491137D01*
X94324977Y-116483410D01*
X94224318Y-116452875D01*
X94173987Y-116437608D01*
X94034835Y-116363229D01*
X93912867Y-116263133D01*
X93812771Y-116141165D01*
X93738392Y-116002013D01*
X93723125Y-115951682D01*
X93692590Y-115851023D01*
X93677125Y-115694000D01*
X93692590Y-115536977D01*
X93737702Y-115388262D01*
X93738392Y-115385987D01*
X93812771Y-115246835D01*
X93912867Y-115124867D01*
X94034835Y-115024771D01*
X94173987Y-114950392D01*
X94224318Y-114935125D01*
X94324977Y-114904590D01*
X94403429Y-114896863D01*
X94442654Y-114893000D01*
X95041346Y-114893000D01*
X95080571Y-114896863D01*
G37*
G36*
X75138228Y-113735703D02*
G01*
X75293100Y-113799853D01*
X75432481Y-113892985D01*
X75551015Y-114011519D01*
X75644147Y-114150900D01*
X75708297Y-114305772D01*
X75741000Y-114470184D01*
X75741000Y-114637816D01*
X75708297Y-114802228D01*
X75644147Y-114957100D01*
X75551015Y-115096481D01*
X75432481Y-115215015D01*
X75293100Y-115308147D01*
X75138228Y-115372297D01*
X74973816Y-115405000D01*
X74806184Y-115405000D01*
X74641772Y-115372297D01*
X74486900Y-115308147D01*
X74347519Y-115215015D01*
X74228985Y-115096481D01*
X74135853Y-114957100D01*
X74071703Y-114802228D01*
X74039000Y-114637816D01*
X74039000Y-114470184D01*
X74071703Y-114305772D01*
X74135853Y-114150900D01*
X74228985Y-114011519D01*
X74347519Y-113892985D01*
X74486900Y-113799853D01*
X74641772Y-113735703D01*
X74806184Y-113703000D01*
X74973816Y-113703000D01*
X75138228Y-113735703D01*
G37*
G36*
X90378228Y-113735703D02*
G01*
X90533100Y-113799853D01*
X90672481Y-113892985D01*
X90791015Y-114011519D01*
X90884147Y-114150900D01*
X90948297Y-114305772D01*
X90981000Y-114470184D01*
X90981000Y-114637816D01*
X90948297Y-114802228D01*
X90884147Y-114957100D01*
X90791015Y-115096481D01*
X90672481Y-115215015D01*
X90533100Y-115308147D01*
X90378228Y-115372297D01*
X90213816Y-115405000D01*
X90046184Y-115405000D01*
X89881772Y-115372297D01*
X89726900Y-115308147D01*
X89587519Y-115215015D01*
X89468985Y-115096481D01*
X89375853Y-114957100D01*
X89311703Y-114802228D01*
X89279000Y-114637816D01*
X89279000Y-114470184D01*
X89311703Y-114305772D01*
X89375853Y-114150900D01*
X89468985Y-114011519D01*
X89587519Y-113892985D01*
X89726900Y-113799853D01*
X89881772Y-113735703D01*
X90046184Y-113703000D01*
X90213816Y-113703000D01*
X90378228Y-113735703D01*
G37*
G36*
X87130199Y-111687954D02*
G01*
X87142450Y-111688556D01*
X87160869Y-111688556D01*
X87183149Y-111690750D01*
X87267233Y-111707476D01*
X87288660Y-111713976D01*
X87367858Y-111746780D01*
X87373303Y-111749691D01*
X87373309Y-111749693D01*
X87382169Y-111754429D01*
X87382173Y-111754432D01*
X87387614Y-111757340D01*
X87458899Y-111804971D01*
X87476204Y-111819172D01*
X87536828Y-111879796D01*
X87551029Y-111897101D01*
X87598660Y-111968386D01*
X87601568Y-111973827D01*
X87601571Y-111973831D01*
X87606307Y-111982691D01*
X87606309Y-111982697D01*
X87609220Y-111988142D01*
X87642024Y-112067340D01*
X87648524Y-112088767D01*
X87665250Y-112172851D01*
X87667444Y-112195131D01*
X87667444Y-112213550D01*
X87668046Y-112225801D01*
X87669852Y-112244139D01*
X87669852Y-112781860D01*
X87668263Y-112797999D01*
X87663855Y-112812528D01*
X87658394Y-112825711D01*
X87653612Y-112849745D01*
X87653611Y-112874249D01*
X87658391Y-112898282D01*
X87667768Y-112920921D01*
X87669000Y-112922765D01*
X87669000Y-114154050D01*
X87662525Y-114166164D01*
X87655412Y-114189613D01*
X87653010Y-114213999D01*
X87655412Y-114238385D01*
X87662525Y-114261834D01*
X87664848Y-114266746D01*
X87668263Y-114278001D01*
X87669852Y-114294140D01*
X87669852Y-114831862D01*
X87668046Y-114850199D01*
X87667444Y-114862450D01*
X87667444Y-114880869D01*
X87665250Y-114903149D01*
X87648524Y-114987233D01*
X87642024Y-115008660D01*
X87609220Y-115087858D01*
X87606309Y-115093303D01*
X87606307Y-115093309D01*
X87601571Y-115102169D01*
X87601568Y-115102173D01*
X87598660Y-115107614D01*
X87551029Y-115178899D01*
X87536828Y-115196204D01*
X87476204Y-115256828D01*
X87458899Y-115271029D01*
X87387614Y-115318660D01*
X87382173Y-115321568D01*
X87382169Y-115321571D01*
X87373309Y-115326307D01*
X87373303Y-115326309D01*
X87367858Y-115329220D01*
X87288660Y-115362024D01*
X87267233Y-115368524D01*
X87183149Y-115385250D01*
X87160869Y-115387444D01*
X87142450Y-115387444D01*
X87130199Y-115388046D01*
X87111862Y-115389852D01*
X86624138Y-115389852D01*
X86605801Y-115388046D01*
X86593550Y-115387444D01*
X86575131Y-115387444D01*
X86552851Y-115385250D01*
X86468767Y-115368524D01*
X86447340Y-115362024D01*
X86368142Y-115329220D01*
X86362697Y-115326309D01*
X86362691Y-115326307D01*
X86353831Y-115321571D01*
X86353827Y-115321568D01*
X86348386Y-115318660D01*
X86277101Y-115271029D01*
X86259796Y-115256828D01*
X86199172Y-115196204D01*
X86184971Y-115178899D01*
X86137340Y-115107614D01*
X86134432Y-115102173D01*
X86134429Y-115102169D01*
X86129693Y-115093309D01*
X86129691Y-115093303D01*
X86126780Y-115087858D01*
X86093976Y-115008660D01*
X86087476Y-114987233D01*
X86070750Y-114903149D01*
X86068556Y-114880869D01*
X86068556Y-114862450D01*
X86067954Y-114850199D01*
X86066148Y-114831862D01*
X86066148Y-114294140D01*
X86067737Y-114278001D01*
X86072145Y-114263472D01*
X86077606Y-114250289D01*
X86082388Y-114226255D01*
X86082389Y-114201751D01*
X86077609Y-114177718D01*
X86068232Y-114155079D01*
X86067000Y-114153235D01*
X86067000Y-112921950D01*
X86073475Y-112909836D01*
X86080588Y-112886387D01*
X86082990Y-112862001D01*
X86080588Y-112837615D01*
X86073475Y-112814166D01*
X86071152Y-112809254D01*
X86067737Y-112797999D01*
X86066148Y-112781860D01*
X86066148Y-112244139D01*
X86067954Y-112225801D01*
X86068556Y-112213550D01*
X86068556Y-112195131D01*
X86070750Y-112172851D01*
X86087476Y-112088767D01*
X86093976Y-112067340D01*
X86126780Y-111988142D01*
X86129691Y-111982697D01*
X86129693Y-111982691D01*
X86134429Y-111973831D01*
X86134432Y-111973827D01*
X86137340Y-111968386D01*
X86184971Y-111897101D01*
X86199172Y-111879796D01*
X86259796Y-111819172D01*
X86277101Y-111804971D01*
X86348386Y-111757340D01*
X86353827Y-111754432D01*
X86353831Y-111754429D01*
X86362691Y-111749693D01*
X86362697Y-111749691D01*
X86368142Y-111746780D01*
X86447340Y-111713976D01*
X86468767Y-111707476D01*
X86552851Y-111690750D01*
X86575131Y-111688556D01*
X86593550Y-111688556D01*
X86605801Y-111687954D01*
X86624139Y-111686148D01*
X87111861Y-111686148D01*
X87130199Y-111687954D01*
G37*
G36*
X99364585Y-112022802D02*
G01*
X99514410Y-112052604D01*
X99796674Y-112169521D01*
X100050705Y-112339259D01*
X100266741Y-112555295D01*
X100436479Y-112809326D01*
X100516292Y-113002013D01*
X100553396Y-113091591D01*
X100613000Y-113391239D01*
X100613000Y-113696761D01*
X100592494Y-113799852D01*
X100553396Y-113996410D01*
X100436479Y-114278674D01*
X100266741Y-114532705D01*
X100050705Y-114748741D01*
X99796674Y-114918479D01*
X99514410Y-115035396D01*
X99364585Y-115065198D01*
X99214761Y-115095000D01*
X98909239Y-115095000D01*
X98759415Y-115065198D01*
X98609590Y-115035396D01*
X98327326Y-114918479D01*
X98073295Y-114748741D01*
X97857259Y-114532705D01*
X97687521Y-114278674D01*
X97570604Y-113996410D01*
X97531506Y-113799852D01*
X97511000Y-113696761D01*
X97511000Y-113391239D01*
X97570604Y-113091591D01*
X97607708Y-113002013D01*
X97687521Y-112809326D01*
X97857259Y-112555295D01*
X98073295Y-112339259D01*
X98327326Y-112169521D01*
X98609590Y-112052604D01*
X98759415Y-112022802D01*
X98909239Y-111993000D01*
X99214761Y-111993000D01*
X99364585Y-112022802D01*
G37*
G36*
X95080571Y-111896863D02*
G01*
X95159023Y-111904590D01*
X95243395Y-111930184D01*
X95310013Y-111950392D01*
X95449165Y-112024771D01*
X95571133Y-112124867D01*
X95671229Y-112246835D01*
X95745608Y-112385987D01*
X95745608Y-112385988D01*
X95791410Y-112536977D01*
X95806875Y-112694000D01*
X95791410Y-112851023D01*
X95769647Y-112922765D01*
X95745608Y-113002013D01*
X95671229Y-113141165D01*
X95571133Y-113263133D01*
X95449165Y-113363229D01*
X95310013Y-113437608D01*
X95259682Y-113452875D01*
X95159023Y-113483410D01*
X95080571Y-113491137D01*
X95041346Y-113495000D01*
X94442654Y-113495000D01*
X94403429Y-113491137D01*
X94324977Y-113483410D01*
X94224318Y-113452875D01*
X94173987Y-113437608D01*
X94034835Y-113363229D01*
X93912867Y-113263133D01*
X93812771Y-113141165D01*
X93738392Y-113002013D01*
X93714353Y-112922765D01*
X93692590Y-112851023D01*
X93677125Y-112694000D01*
X93692590Y-112536977D01*
X93738392Y-112385988D01*
X93738392Y-112385987D01*
X93812771Y-112246835D01*
X93912867Y-112124867D01*
X94034835Y-112024771D01*
X94173987Y-111950392D01*
X94240605Y-111930184D01*
X94324977Y-111904590D01*
X94403429Y-111896863D01*
X94442654Y-111893000D01*
X95041346Y-111893000D01*
X95080571Y-111896863D01*
G37*
G36*
X75138228Y-111195703D02*
G01*
X75293100Y-111259853D01*
X75432481Y-111352985D01*
X75551015Y-111471519D01*
X75644147Y-111610900D01*
X75708297Y-111765772D01*
X75741000Y-111930184D01*
X75741000Y-112097816D01*
X75708297Y-112262228D01*
X75644147Y-112417100D01*
X75551015Y-112556481D01*
X75432481Y-112675015D01*
X75293100Y-112768147D01*
X75138228Y-112832297D01*
X74973816Y-112865000D01*
X74806184Y-112865000D01*
X74641772Y-112832297D01*
X74486900Y-112768147D01*
X74347519Y-112675015D01*
X74228985Y-112556481D01*
X74135853Y-112417100D01*
X74071703Y-112262228D01*
X74039000Y-112097816D01*
X74039000Y-111930184D01*
X74071703Y-111765772D01*
X74135853Y-111610900D01*
X74228985Y-111471519D01*
X74347519Y-111352985D01*
X74486900Y-111259853D01*
X74641772Y-111195703D01*
X74806184Y-111163000D01*
X74973816Y-111163000D01*
X75138228Y-111195703D01*
G37*
G36*
X90378228Y-111195703D02*
G01*
X90533100Y-111259853D01*
X90672481Y-111352985D01*
X90791015Y-111471519D01*
X90884147Y-111610900D01*
X90948297Y-111765772D01*
X90981000Y-111930184D01*
X90981000Y-112097816D01*
X90948297Y-112262228D01*
X90884147Y-112417100D01*
X90791015Y-112556481D01*
X90672481Y-112675015D01*
X90533100Y-112768147D01*
X90378228Y-112832297D01*
X90213816Y-112865000D01*
X90046184Y-112865000D01*
X89881772Y-112832297D01*
X89726900Y-112768147D01*
X89587519Y-112675015D01*
X89468985Y-112556481D01*
X89375853Y-112417100D01*
X89311703Y-112262228D01*
X89279000Y-112097816D01*
X89279000Y-111930184D01*
X89311703Y-111765772D01*
X89375853Y-111610900D01*
X89468985Y-111471519D01*
X89587519Y-111352985D01*
X89726900Y-111259853D01*
X89881772Y-111195703D01*
X90046184Y-111163000D01*
X90213816Y-111163000D01*
X90378228Y-111195703D01*
G37*
G36*
X71017048Y-108897122D02*
G01*
X71051387Y-108907539D01*
X71083036Y-108924456D01*
X71110778Y-108947222D01*
X71133544Y-108974964D01*
X71150461Y-109006613D01*
X71160878Y-109040952D01*
X71165000Y-109082807D01*
X71165000Y-110305193D01*
X71160878Y-110347048D01*
X71150461Y-110381387D01*
X71133544Y-110413036D01*
X71110778Y-110440778D01*
X71083036Y-110463544D01*
X71051387Y-110480461D01*
X71017048Y-110490878D01*
X70975193Y-110495000D01*
X69232807Y-110495000D01*
X69190952Y-110490878D01*
X69156613Y-110480461D01*
X69124964Y-110463544D01*
X69097222Y-110440778D01*
X69074456Y-110413036D01*
X69057539Y-110381387D01*
X69047122Y-110347048D01*
X69043000Y-110305193D01*
X69043000Y-109082807D01*
X69047122Y-109040952D01*
X69057539Y-109006613D01*
X69074456Y-108974964D01*
X69097222Y-108947222D01*
X69124964Y-108924456D01*
X69156613Y-108907539D01*
X69190952Y-108897122D01*
X69232807Y-108893000D01*
X70975193Y-108893000D01*
X71017048Y-108897122D01*
G37*
G36*
X95080571Y-108896863D02*
G01*
X95159023Y-108904590D01*
X95238417Y-108928674D01*
X95310013Y-108950392D01*
X95449165Y-109024771D01*
X95571133Y-109124867D01*
X95671229Y-109246835D01*
X95745608Y-109385987D01*
X95749477Y-109398741D01*
X95791410Y-109536977D01*
X95806875Y-109694000D01*
X95791410Y-109851023D01*
X95760875Y-109951682D01*
X95745608Y-110002013D01*
X95671229Y-110141165D01*
X95571133Y-110263133D01*
X95449165Y-110363229D01*
X95310013Y-110437608D01*
X95259682Y-110452875D01*
X95159023Y-110483410D01*
X95093432Y-110489870D01*
X95041346Y-110495000D01*
X94442654Y-110495000D01*
X94390568Y-110489870D01*
X94324977Y-110483410D01*
X94224318Y-110452875D01*
X94173987Y-110437608D01*
X94034835Y-110363229D01*
X93912867Y-110263133D01*
X93812771Y-110141165D01*
X93738392Y-110002013D01*
X93723125Y-109951682D01*
X93692590Y-109851023D01*
X93677125Y-109694000D01*
X93692590Y-109536977D01*
X93734523Y-109398741D01*
X93738392Y-109385987D01*
X93812771Y-109246835D01*
X93912867Y-109124867D01*
X94034835Y-109024771D01*
X94173987Y-108950392D01*
X94245583Y-108928674D01*
X94324977Y-108904590D01*
X94403429Y-108896863D01*
X94442654Y-108893000D01*
X95041346Y-108893000D01*
X95080571Y-108896863D01*
G37*
G36*
X99364585Y-107322802D02*
G01*
X99514410Y-107352604D01*
X99796674Y-107469521D01*
X100050705Y-107639259D01*
X100266741Y-107855295D01*
X100436479Y-108109326D01*
X100553396Y-108391590D01*
X100613000Y-108691240D01*
X100613000Y-108996760D01*
X100553396Y-109296410D01*
X100436479Y-109578674D01*
X100266741Y-109832705D01*
X100050705Y-110048741D01*
X99796674Y-110218479D01*
X99514410Y-110335396D01*
X99455831Y-110347048D01*
X99214761Y-110395000D01*
X98909239Y-110395000D01*
X98668169Y-110347048D01*
X98609590Y-110335396D01*
X98327326Y-110218479D01*
X98073295Y-110048741D01*
X97857259Y-109832705D01*
X97687521Y-109578674D01*
X97570604Y-109296410D01*
X97511000Y-108996760D01*
X97511000Y-108691240D01*
X97570604Y-108391590D01*
X97687521Y-108109326D01*
X97857259Y-107855295D01*
X98073295Y-107639259D01*
X98327326Y-107469521D01*
X98609590Y-107352604D01*
X98759415Y-107322802D01*
X98909239Y-107293000D01*
X99214761Y-107293000D01*
X99364585Y-107322802D01*
G37*
G36*
X90378228Y-108655703D02*
G01*
X90533100Y-108719853D01*
X90672481Y-108812985D01*
X90791015Y-108931519D01*
X90884147Y-109070900D01*
X90948297Y-109225772D01*
X90981000Y-109390184D01*
X90981000Y-109557816D01*
X90948297Y-109722228D01*
X90884147Y-109877100D01*
X90791015Y-110016481D01*
X90672481Y-110135015D01*
X90533100Y-110228147D01*
X90378228Y-110292297D01*
X90213816Y-110325000D01*
X90046184Y-110325000D01*
X89881772Y-110292297D01*
X89726900Y-110228147D01*
X89587519Y-110135015D01*
X89468985Y-110016481D01*
X89375853Y-109877100D01*
X89311703Y-109722228D01*
X89279000Y-109557816D01*
X89279000Y-109390184D01*
X89311703Y-109225772D01*
X89375853Y-109070900D01*
X89468985Y-108931519D01*
X89587519Y-108812985D01*
X89726900Y-108719853D01*
X89881772Y-108655703D01*
X90046184Y-108623000D01*
X90213816Y-108623000D01*
X90378228Y-108655703D01*
G37*
G36*
X75138228Y-108655703D02*
G01*
X75293100Y-108719853D01*
X75432481Y-108812985D01*
X75551015Y-108931519D01*
X75644147Y-109070900D01*
X75708297Y-109225772D01*
X75741000Y-109390184D01*
X75741000Y-109557816D01*
X75708297Y-109722228D01*
X75644147Y-109877100D01*
X75551015Y-110016481D01*
X75432481Y-110135015D01*
X75293100Y-110228147D01*
X75138228Y-110292297D01*
X74973816Y-110325000D01*
X74806184Y-110325000D01*
X74641772Y-110292297D01*
X74486900Y-110228147D01*
X74347519Y-110135015D01*
X74228985Y-110016481D01*
X74135853Y-109877100D01*
X74071703Y-109722228D01*
X74039000Y-109557816D01*
X74039000Y-109390184D01*
X74071703Y-109225772D01*
X74135853Y-109070900D01*
X74228985Y-108931519D01*
X74347519Y-108812985D01*
X74486900Y-108719853D01*
X74641772Y-108655703D01*
X74806184Y-108623000D01*
X74973816Y-108623000D01*
X75138228Y-108655703D01*
G37*
G36*
X66086585Y-106672802D02*
G01*
X66236410Y-106702604D01*
X66518674Y-106819521D01*
X66772705Y-106989259D01*
X66988741Y-107205295D01*
X67158479Y-107459326D01*
X67275396Y-107741590D01*
X67335000Y-108041240D01*
X67335000Y-108346760D01*
X67275396Y-108646410D01*
X67158479Y-108928674D01*
X66988741Y-109182705D01*
X66772705Y-109398741D01*
X66518674Y-109568479D01*
X66236410Y-109685396D01*
X66086585Y-109715198D01*
X65936761Y-109745000D01*
X65631239Y-109745000D01*
X65481415Y-109715198D01*
X65331590Y-109685396D01*
X65049326Y-109568479D01*
X64795295Y-109398741D01*
X64579259Y-109182705D01*
X64409521Y-108928674D01*
X64292604Y-108646410D01*
X64233000Y-108346760D01*
X64233000Y-108041240D01*
X64292604Y-107741590D01*
X64409521Y-107459326D01*
X64579259Y-107205295D01*
X64795295Y-106989259D01*
X65049326Y-106819521D01*
X65331590Y-106702604D01*
X65481415Y-106672802D01*
X65631239Y-106643000D01*
X65936761Y-106643000D01*
X66086585Y-106672802D01*
G37*
G36*
X90378228Y-106115703D02*
G01*
X90533100Y-106179853D01*
X90672481Y-106272985D01*
X90791015Y-106391519D01*
X90884147Y-106530900D01*
X90948297Y-106685772D01*
X90981000Y-106850184D01*
X90981000Y-107017816D01*
X90948297Y-107182228D01*
X90884147Y-107337100D01*
X90791015Y-107476481D01*
X90672481Y-107595015D01*
X90533100Y-107688147D01*
X90378228Y-107752297D01*
X90213816Y-107785000D01*
X90046184Y-107785000D01*
X89881772Y-107752297D01*
X89726900Y-107688147D01*
X89587519Y-107595015D01*
X89468985Y-107476481D01*
X89375853Y-107337100D01*
X89311703Y-107182228D01*
X89279000Y-107017816D01*
X89279000Y-106850184D01*
X89311703Y-106685772D01*
X89375853Y-106530900D01*
X89468985Y-106391519D01*
X89587519Y-106272985D01*
X89726900Y-106179853D01*
X89881772Y-106115703D01*
X90046184Y-106083000D01*
X90213816Y-106083000D01*
X90378228Y-106115703D01*
G37*
G36*
X75741000Y-107785000D02*
G01*
X74039000Y-107785000D01*
X74039000Y-106083000D01*
X75741000Y-106083000D01*
X75741000Y-107785000D01*
G37*
G36*
X70442571Y-105896863D02*
G01*
X70521023Y-105904590D01*
X70586512Y-105924456D01*
X70672013Y-105950392D01*
X70811165Y-106024771D01*
X70933133Y-106124867D01*
X71033229Y-106246835D01*
X71107608Y-106385987D01*
X71107608Y-106385988D01*
X71153410Y-106536977D01*
X71168875Y-106694000D01*
X71153410Y-106851023D01*
X71122875Y-106951682D01*
X71107608Y-107002013D01*
X71033229Y-107141165D01*
X70933133Y-107263133D01*
X70811165Y-107363229D01*
X70672013Y-107437608D01*
X70621682Y-107452875D01*
X70521023Y-107483410D01*
X70455432Y-107489870D01*
X70403346Y-107495000D01*
X69804654Y-107495000D01*
X69752568Y-107489870D01*
X69686977Y-107483410D01*
X69586318Y-107452875D01*
X69535987Y-107437608D01*
X69396835Y-107363229D01*
X69274867Y-107263133D01*
X69174771Y-107141165D01*
X69100392Y-107002013D01*
X69085125Y-106951682D01*
X69054590Y-106851023D01*
X69039125Y-106694000D01*
X69054590Y-106536977D01*
X69100392Y-106385988D01*
X69100392Y-106385987D01*
X69174771Y-106246835D01*
X69274867Y-106124867D01*
X69396835Y-106024771D01*
X69535987Y-105950392D01*
X69621488Y-105924456D01*
X69686977Y-105904590D01*
X69765429Y-105896863D01*
X69804654Y-105893000D01*
X70403346Y-105893000D01*
X70442571Y-105896863D01*
G37*
G36*
X95655048Y-105897122D02*
G01*
X95689387Y-105907539D01*
X95721036Y-105924456D01*
X95748778Y-105947222D01*
X95771544Y-105974964D01*
X95788461Y-106006613D01*
X95798878Y-106040952D01*
X95803000Y-106082807D01*
X95803000Y-107305193D01*
X95798878Y-107347048D01*
X95788461Y-107381387D01*
X95771544Y-107413036D01*
X95748778Y-107440778D01*
X95721036Y-107463544D01*
X95689387Y-107480461D01*
X95655048Y-107490878D01*
X95613193Y-107495000D01*
X93870807Y-107495000D01*
X93828952Y-107490878D01*
X93794613Y-107480461D01*
X93762964Y-107463544D01*
X93735222Y-107440778D01*
X93712456Y-107413036D01*
X93695539Y-107381387D01*
X93685122Y-107347048D01*
X93681000Y-107305193D01*
X93681000Y-106082807D01*
X93685122Y-106040952D01*
X93695539Y-106006613D01*
X93712456Y-105974964D01*
X93735222Y-105947222D01*
X93762964Y-105924456D01*
X93794613Y-105907539D01*
X93828952Y-105897122D01*
X93870807Y-105893000D01*
X95613193Y-105893000D01*
X95655048Y-105897122D01*
G37*
G36*
X100189512Y-97401927D02*
G01*
X100338812Y-97431624D01*
X100502784Y-97499544D01*
X100650354Y-97598147D01*
X100775853Y-97723646D01*
X100874456Y-97871216D01*
X100942376Y-98035188D01*
X100977000Y-98209259D01*
X100977000Y-98386741D01*
X100942376Y-98560812D01*
X100874456Y-98724784D01*
X100775853Y-98872354D01*
X100650354Y-98997853D01*
X100502784Y-99096456D01*
X100338812Y-99164376D01*
X100189512Y-99194073D01*
X100164742Y-99199000D01*
X99987258Y-99199000D01*
X99962488Y-99194073D01*
X99813188Y-99164376D01*
X99649216Y-99096456D01*
X99501646Y-98997853D01*
X99376147Y-98872354D01*
X99277544Y-98724784D01*
X99209624Y-98560812D01*
X99175000Y-98386741D01*
X99175000Y-98209259D01*
X99209624Y-98035188D01*
X99277544Y-97871216D01*
X99376147Y-97723646D01*
X99501646Y-97598147D01*
X99649216Y-97499544D01*
X99813188Y-97431624D01*
X99962488Y-97401927D01*
X99987258Y-97397000D01*
X100164742Y-97397000D01*
X100189512Y-97401927D01*
G37*
G36*
X69737142Y-95484242D02*
G01*
X69885101Y-95545529D01*
X70018255Y-95634499D01*
X70131501Y-95747745D01*
X70220471Y-95880899D01*
X70281758Y-96028858D01*
X70313000Y-96185925D01*
X70313000Y-96346075D01*
X70281758Y-96503142D01*
X70220471Y-96651101D01*
X70131501Y-96784255D01*
X70018255Y-96897501D01*
X69885101Y-96986471D01*
X69737142Y-97047758D01*
X69580075Y-97079000D01*
X69419925Y-97079000D01*
X69262858Y-97047758D01*
X69114899Y-96986471D01*
X68981745Y-96897501D01*
X68868499Y-96784255D01*
X68779529Y-96651101D01*
X68718242Y-96503142D01*
X68687000Y-96346075D01*
X68687000Y-96185925D01*
X68718242Y-96028858D01*
X68779529Y-95880899D01*
X68868499Y-95747745D01*
X68981745Y-95634499D01*
X69114899Y-95545529D01*
X69262858Y-95484242D01*
X69419925Y-95453000D01*
X69580075Y-95453000D01*
X69737142Y-95484242D01*
G37*
G36*
X72277142Y-95484242D02*
G01*
X72425101Y-95545529D01*
X72558255Y-95634499D01*
X72671501Y-95747745D01*
X72760471Y-95880899D01*
X72821758Y-96028858D01*
X72853000Y-96185925D01*
X72853000Y-96346075D01*
X72821758Y-96503142D01*
X72760471Y-96651101D01*
X72671501Y-96784255D01*
X72558255Y-96897501D01*
X72425101Y-96986471D01*
X72277142Y-97047758D01*
X72120075Y-97079000D01*
X71959925Y-97079000D01*
X71802858Y-97047758D01*
X71654899Y-96986471D01*
X71521745Y-96897501D01*
X71408499Y-96784255D01*
X71319529Y-96651101D01*
X71258242Y-96503142D01*
X71227000Y-96346075D01*
X71227000Y-96185925D01*
X71258242Y-96028858D01*
X71319529Y-95880899D01*
X71408499Y-95747745D01*
X71521745Y-95634499D01*
X71654899Y-95545529D01*
X71802858Y-95484242D01*
X71959925Y-95453000D01*
X72120075Y-95453000D01*
X72277142Y-95484242D01*
G37*
G36*
X100977000Y-96659000D02*
G01*
X99175000Y-96659000D01*
X99175000Y-94857000D01*
X100977000Y-94857000D01*
X100977000Y-96659000D01*
G37*
G36*
X72277142Y-92944242D02*
G01*
X72425101Y-93005529D01*
X72558255Y-93094499D01*
X72671501Y-93207745D01*
X72760471Y-93340899D01*
X72821758Y-93488858D01*
X72853000Y-93645925D01*
X72853000Y-93806075D01*
X72821758Y-93963142D01*
X72760471Y-94111101D01*
X72671501Y-94244255D01*
X72558255Y-94357501D01*
X72425101Y-94446471D01*
X72277142Y-94507758D01*
X72120075Y-94539000D01*
X71959925Y-94539000D01*
X71802858Y-94507758D01*
X71654899Y-94446471D01*
X71521745Y-94357501D01*
X71408499Y-94244255D01*
X71319529Y-94111101D01*
X71258242Y-93963142D01*
X71227000Y-93806075D01*
X71227000Y-93645925D01*
X71258242Y-93488858D01*
X71319529Y-93340899D01*
X71408499Y-93207745D01*
X71521745Y-93094499D01*
X71654899Y-93005529D01*
X71802858Y-92944242D01*
X71959925Y-92913000D01*
X72120075Y-92913000D01*
X72277142Y-92944242D01*
G37*
G36*
X69737142Y-92944242D02*
G01*
X69885101Y-93005529D01*
X70018255Y-93094499D01*
X70131501Y-93207745D01*
X70220471Y-93340899D01*
X70281758Y-93488858D01*
X70313000Y-93645925D01*
X70313000Y-93806075D01*
X70281758Y-93963142D01*
X70220471Y-94111101D01*
X70131501Y-94244255D01*
X70018255Y-94357501D01*
X69885101Y-94446471D01*
X69737142Y-94507758D01*
X69580075Y-94539000D01*
X69419925Y-94539000D01*
X69262858Y-94507758D01*
X69114899Y-94446471D01*
X68981745Y-94357501D01*
X68868499Y-94244255D01*
X68779529Y-94111101D01*
X68718242Y-93963142D01*
X68687000Y-93806075D01*
X68687000Y-93645925D01*
X68718242Y-93488858D01*
X68779529Y-93340899D01*
X68868499Y-93207745D01*
X68981745Y-93094499D01*
X69114899Y-93005529D01*
X69262858Y-92944242D01*
X69419925Y-92913000D01*
X69580075Y-92913000D01*
X69737142Y-92944242D01*
G37*
G36*
X69737142Y-90404242D02*
G01*
X69885101Y-90465529D01*
X70018255Y-90554499D01*
X70131501Y-90667745D01*
X70220471Y-90800899D01*
X70281758Y-90948858D01*
X70313000Y-91105925D01*
X70313000Y-91266075D01*
X70281758Y-91423142D01*
X70220471Y-91571101D01*
X70131501Y-91704255D01*
X70018255Y-91817501D01*
X69885101Y-91906471D01*
X69737142Y-91967758D01*
X69580075Y-91999000D01*
X69419925Y-91999000D01*
X69262858Y-91967758D01*
X69114899Y-91906471D01*
X68981745Y-91817501D01*
X68868499Y-91704255D01*
X68779529Y-91571101D01*
X68718242Y-91423142D01*
X68687000Y-91266075D01*
X68687000Y-91105925D01*
X68718242Y-90948858D01*
X68779529Y-90800899D01*
X68868499Y-90667745D01*
X68981745Y-90554499D01*
X69114899Y-90465529D01*
X69262858Y-90404242D01*
X69419925Y-90373000D01*
X69580075Y-90373000D01*
X69737142Y-90404242D01*
G37*
G36*
X72277142Y-90404242D02*
G01*
X72425101Y-90465529D01*
X72558255Y-90554499D01*
X72671501Y-90667745D01*
X72760471Y-90800899D01*
X72821758Y-90948858D01*
X72853000Y-91105925D01*
X72853000Y-91266075D01*
X72821758Y-91423142D01*
X72760471Y-91571101D01*
X72671501Y-91704255D01*
X72558255Y-91817501D01*
X72425101Y-91906471D01*
X72277142Y-91967758D01*
X72120075Y-91999000D01*
X71959925Y-91999000D01*
X71802858Y-91967758D01*
X71654899Y-91906471D01*
X71521745Y-91817501D01*
X71408499Y-91704255D01*
X71319529Y-91571101D01*
X71258242Y-91423142D01*
X71227000Y-91266075D01*
X71227000Y-91105925D01*
X71258242Y-90948858D01*
X71319529Y-90800899D01*
X71408499Y-90667745D01*
X71521745Y-90554499D01*
X71654899Y-90465529D01*
X71802858Y-90404242D01*
X71959925Y-90373000D01*
X72120075Y-90373000D01*
X72277142Y-90404242D01*
G37*
G36*
X101817021Y-86306640D02*
G01*
X102326769Y-86517785D01*
X102326771Y-86517786D01*
X102785534Y-86824321D01*
X103175679Y-87214466D01*
X103482214Y-87673229D01*
X103482215Y-87673231D01*
X103693360Y-88182979D01*
X103801000Y-88724124D01*
X103801000Y-89275876D01*
X103693360Y-89817021D01*
X103482215Y-90326769D01*
X103482214Y-90326771D01*
X103175679Y-90785534D01*
X102785534Y-91175679D01*
X102326771Y-91482214D01*
X102326770Y-91482215D01*
X102326769Y-91482215D01*
X101817021Y-91693360D01*
X101275876Y-91801000D01*
X100724124Y-91801000D01*
X100182979Y-91693360D01*
X99673231Y-91482215D01*
X99673230Y-91482215D01*
X99673229Y-91482214D01*
X99214466Y-91175679D01*
X98824321Y-90785534D01*
X98517786Y-90326771D01*
X98517785Y-90326769D01*
X98306640Y-89817021D01*
X98199000Y-89275876D01*
X98199000Y-88724124D01*
X98306640Y-88182979D01*
X98517785Y-87673231D01*
X98517786Y-87673229D01*
X98824321Y-87214466D01*
X99214466Y-86824321D01*
X99673229Y-86517786D01*
X99673231Y-86517785D01*
X100182979Y-86306640D01*
X100724124Y-86199000D01*
X101275876Y-86199000D01*
X101817021Y-86306640D01*
G37*
G36*
X64817021Y-86306640D02*
G01*
X65326769Y-86517785D01*
X65326771Y-86517786D01*
X65785534Y-86824321D01*
X66175679Y-87214466D01*
X66482214Y-87673229D01*
X66482215Y-87673231D01*
X66693360Y-88182979D01*
X66801000Y-88724124D01*
X66801000Y-89275876D01*
X66693360Y-89817021D01*
X66482215Y-90326769D01*
X66482214Y-90326771D01*
X66175679Y-90785534D01*
X65785534Y-91175679D01*
X65326771Y-91482214D01*
X65326770Y-91482215D01*
X65326769Y-91482215D01*
X64817021Y-91693360D01*
X64275876Y-91801000D01*
X63724124Y-91801000D01*
X63182979Y-91693360D01*
X62673231Y-91482215D01*
X62673230Y-91482215D01*
X62673229Y-91482214D01*
X62214466Y-91175679D01*
X61824321Y-90785534D01*
X61517786Y-90326771D01*
X61517785Y-90326769D01*
X61306640Y-89817021D01*
X61199000Y-89275876D01*
X61199000Y-88724124D01*
X61306640Y-88182979D01*
X61517785Y-87673231D01*
X61517786Y-87673229D01*
X61824321Y-87214466D01*
X62214466Y-86824321D01*
X62673229Y-86517786D01*
X62673231Y-86517785D01*
X63182979Y-86306640D01*
X63724124Y-86199000D01*
X64275876Y-86199000D01*
X64817021Y-86306640D01*
G37*
G36*
X72277142Y-87864242D02*
G01*
X72425101Y-87925529D01*
X72558255Y-88014499D01*
X72671501Y-88127745D01*
X72760471Y-88260899D01*
X72821758Y-88408858D01*
X72853000Y-88565925D01*
X72853000Y-88726075D01*
X72821758Y-88883142D01*
X72760471Y-89031101D01*
X72671501Y-89164255D01*
X72558255Y-89277501D01*
X72425101Y-89366471D01*
X72277142Y-89427758D01*
X72120075Y-89459000D01*
X71959925Y-89459000D01*
X71802858Y-89427758D01*
X71654899Y-89366471D01*
X71521745Y-89277501D01*
X71408499Y-89164255D01*
X71319529Y-89031101D01*
X71258242Y-88883142D01*
X71227000Y-88726075D01*
X71227000Y-88565925D01*
X71258242Y-88408858D01*
X71319529Y-88260899D01*
X71408499Y-88127745D01*
X71521745Y-88014499D01*
X71654899Y-87925529D01*
X71802858Y-87864242D01*
X71959925Y-87833000D01*
X72120075Y-87833000D01*
X72277142Y-87864242D01*
G37*
G36*
X70313000Y-89459000D02*
G01*
X68687000Y-89459000D01*
X68687000Y-87833000D01*
X70313000Y-87833000D01*
X70313000Y-89459000D01*
G37*
M02*
