M48
; DRILL file {KiCad (5.1.5)-3} date 5/8/2020 1:08:25 AM
; FORMAT={-:-/ absolute / inch / decimal}
; #@! TF.CreationDate,2020-05-08T01:08:25-06:00
; #@! TF.GenerationSoftware,Kicad,Pcbnew,(5.1.5)-3
; #@! TF.FileFunction,Plated,1,2,PTH
FMAT,2
INCH
T1C0.0157
T2C0.0300
T3C0.0315
T4C0.0394
T5C0.0402
T6C0.0512
T7C0.1260
%
G90
G05
T1
X2.68Y-3.61
X3.1Y-2.73
X3.26Y-5.36
X3.62Y-4.95
X3.72Y-3.55
T2
X2.495Y-2.4927
X2.495Y-2.5927
X2.495Y-2.6927
X2.495Y-2.7927
X2.595Y-2.4927
X2.595Y-2.5927
X2.595Y-2.6927
X2.595Y-2.7927
T3
X2.5019Y-3.5008
X2.5019Y-3.6008
X2.5019Y-3.7008
X2.5019Y-3.8008
X2.5019Y-3.9008
X2.5019Y-4.0008
X2.5019Y-4.1008
X2.5019Y-4.2008
X2.5019Y-4.3008
X2.5019Y-4.4008
X2.5019Y-4.5008
X2.5019Y-4.6008
X2.5019Y-4.7008
X2.5019Y-4.8008
X2.5019Y-4.9008
X3.1019Y-3.5008
X3.1019Y-3.6008
X3.1019Y-3.7008
X3.1019Y-3.8008
X3.1019Y-3.9008
X3.1019Y-4.0008
X3.1019Y-4.1008
X3.1019Y-4.2008
X3.1019Y-4.3008
X3.1019Y-4.4008
X3.1019Y-4.5008
X3.1019Y-4.6008
X3.1019Y-4.7008
X3.1019Y-4.8008
X3.1019Y-4.9008
T4
X3.2Y-3.1826
X3.3Y-3.1826
X3.4Y-3.1826
X3.0Y-3.1324
X3.0Y-3.2324
T5
X3.1299Y-5.5
X3.248Y-5.5
X3.3661Y-5.5
X3.81Y-2.775
X3.9281Y-2.775
X2.6118Y-5.5
X2.7299Y-5.5
X3.7661Y-5.5
X3.8843Y-5.5
T6
X3.2736Y-3.425
X3.2736Y-4.9998
X3.9625Y-3.425
X3.9625Y-4.9998
T7
X3.9764Y-3.1693
X2.5197Y-5.2953
X2.5197Y-3.1693
X3.9764Y-5.2953
T0
M30
