G04 #@! TF.GenerationSoftware,KiCad,Pcbnew,(5.1.5)-3*
G04 #@! TF.CreationDate,2020-05-08T01:08:23-06:00*
G04 #@! TF.ProjectId,MASTER,4d415354-4552-42e6-9b69-6361645f7063,rev?*
G04 #@! TF.SameCoordinates,Original*
G04 #@! TF.FileFunction,Paste,Top*
G04 #@! TF.FilePolarity,Positive*
%FSLAX46Y46*%
G04 Gerber Fmt 4.6, Leading zero omitted, Abs format (unit mm)*
G04 Created by KiCad (PCBNEW (5.1.5)-3) date 2020-05-08 01:08:23*
%MOMM*%
%LPD*%
G04 APERTURE LIST*
%ADD10C,0.100000*%
G04 APERTURE END LIST*
D10*
G36*
X78515779Y-135162144D02*
G01*
X78538834Y-135165563D01*
X78561443Y-135171227D01*
X78583387Y-135179079D01*
X78604457Y-135189044D01*
X78624448Y-135201026D01*
X78643168Y-135214910D01*
X78660438Y-135230562D01*
X78676090Y-135247832D01*
X78689974Y-135266552D01*
X78701956Y-135286543D01*
X78711921Y-135307613D01*
X78719773Y-135329557D01*
X78725437Y-135352166D01*
X78728856Y-135375221D01*
X78730000Y-135398500D01*
X78730000Y-135873500D01*
X78728856Y-135896779D01*
X78725437Y-135919834D01*
X78719773Y-135942443D01*
X78711921Y-135964387D01*
X78701956Y-135985457D01*
X78689974Y-136005448D01*
X78676090Y-136024168D01*
X78660438Y-136041438D01*
X78643168Y-136057090D01*
X78624448Y-136070974D01*
X78604457Y-136082956D01*
X78583387Y-136092921D01*
X78561443Y-136100773D01*
X78538834Y-136106437D01*
X78515779Y-136109856D01*
X78492500Y-136111000D01*
X77917500Y-136111000D01*
X77894221Y-136109856D01*
X77871166Y-136106437D01*
X77848557Y-136100773D01*
X77826613Y-136092921D01*
X77805543Y-136082956D01*
X77785552Y-136070974D01*
X77766832Y-136057090D01*
X77749562Y-136041438D01*
X77733910Y-136024168D01*
X77720026Y-136005448D01*
X77708044Y-135985457D01*
X77698079Y-135964387D01*
X77690227Y-135942443D01*
X77684563Y-135919834D01*
X77681144Y-135896779D01*
X77680000Y-135873500D01*
X77680000Y-135398500D01*
X77681144Y-135375221D01*
X77684563Y-135352166D01*
X77690227Y-135329557D01*
X77698079Y-135307613D01*
X77708044Y-135286543D01*
X77720026Y-135266552D01*
X77733910Y-135247832D01*
X77749562Y-135230562D01*
X77766832Y-135214910D01*
X77785552Y-135201026D01*
X77805543Y-135189044D01*
X77826613Y-135179079D01*
X77848557Y-135171227D01*
X77871166Y-135165563D01*
X77894221Y-135162144D01*
X77917500Y-135161000D01*
X78492500Y-135161000D01*
X78515779Y-135162144D01*
G37*
G36*
X76765779Y-135162144D02*
G01*
X76788834Y-135165563D01*
X76811443Y-135171227D01*
X76833387Y-135179079D01*
X76854457Y-135189044D01*
X76874448Y-135201026D01*
X76893168Y-135214910D01*
X76910438Y-135230562D01*
X76926090Y-135247832D01*
X76939974Y-135266552D01*
X76951956Y-135286543D01*
X76961921Y-135307613D01*
X76969773Y-135329557D01*
X76975437Y-135352166D01*
X76978856Y-135375221D01*
X76980000Y-135398500D01*
X76980000Y-135873500D01*
X76978856Y-135896779D01*
X76975437Y-135919834D01*
X76969773Y-135942443D01*
X76961921Y-135964387D01*
X76951956Y-135985457D01*
X76939974Y-136005448D01*
X76926090Y-136024168D01*
X76910438Y-136041438D01*
X76893168Y-136057090D01*
X76874448Y-136070974D01*
X76854457Y-136082956D01*
X76833387Y-136092921D01*
X76811443Y-136100773D01*
X76788834Y-136106437D01*
X76765779Y-136109856D01*
X76742500Y-136111000D01*
X76167500Y-136111000D01*
X76144221Y-136109856D01*
X76121166Y-136106437D01*
X76098557Y-136100773D01*
X76076613Y-136092921D01*
X76055543Y-136082956D01*
X76035552Y-136070974D01*
X76016832Y-136057090D01*
X75999562Y-136041438D01*
X75983910Y-136024168D01*
X75970026Y-136005448D01*
X75958044Y-135985457D01*
X75948079Y-135964387D01*
X75940227Y-135942443D01*
X75934563Y-135919834D01*
X75931144Y-135896779D01*
X75930000Y-135873500D01*
X75930000Y-135398500D01*
X75931144Y-135375221D01*
X75934563Y-135352166D01*
X75940227Y-135329557D01*
X75948079Y-135307613D01*
X75958044Y-135286543D01*
X75970026Y-135266552D01*
X75983910Y-135247832D01*
X75999562Y-135230562D01*
X76016832Y-135214910D01*
X76035552Y-135201026D01*
X76055543Y-135189044D01*
X76076613Y-135179079D01*
X76098557Y-135171227D01*
X76121166Y-135165563D01*
X76144221Y-135162144D01*
X76167500Y-135161000D01*
X76742500Y-135161000D01*
X76765779Y-135162144D01*
G37*
G36*
X87060779Y-135162144D02*
G01*
X87083834Y-135165563D01*
X87106443Y-135171227D01*
X87128387Y-135179079D01*
X87149457Y-135189044D01*
X87169448Y-135201026D01*
X87188168Y-135214910D01*
X87205438Y-135230562D01*
X87221090Y-135247832D01*
X87234974Y-135266552D01*
X87246956Y-135286543D01*
X87256921Y-135307613D01*
X87264773Y-135329557D01*
X87270437Y-135352166D01*
X87273856Y-135375221D01*
X87275000Y-135398500D01*
X87275000Y-135873500D01*
X87273856Y-135896779D01*
X87270437Y-135919834D01*
X87264773Y-135942443D01*
X87256921Y-135964387D01*
X87246956Y-135985457D01*
X87234974Y-136005448D01*
X87221090Y-136024168D01*
X87205438Y-136041438D01*
X87188168Y-136057090D01*
X87169448Y-136070974D01*
X87149457Y-136082956D01*
X87128387Y-136092921D01*
X87106443Y-136100773D01*
X87083834Y-136106437D01*
X87060779Y-136109856D01*
X87037500Y-136111000D01*
X86462500Y-136111000D01*
X86439221Y-136109856D01*
X86416166Y-136106437D01*
X86393557Y-136100773D01*
X86371613Y-136092921D01*
X86350543Y-136082956D01*
X86330552Y-136070974D01*
X86311832Y-136057090D01*
X86294562Y-136041438D01*
X86278910Y-136024168D01*
X86265026Y-136005448D01*
X86253044Y-135985457D01*
X86243079Y-135964387D01*
X86235227Y-135942443D01*
X86229563Y-135919834D01*
X86226144Y-135896779D01*
X86225000Y-135873500D01*
X86225000Y-135398500D01*
X86226144Y-135375221D01*
X86229563Y-135352166D01*
X86235227Y-135329557D01*
X86243079Y-135307613D01*
X86253044Y-135286543D01*
X86265026Y-135266552D01*
X86278910Y-135247832D01*
X86294562Y-135230562D01*
X86311832Y-135214910D01*
X86330552Y-135201026D01*
X86350543Y-135189044D01*
X86371613Y-135179079D01*
X86393557Y-135171227D01*
X86416166Y-135165563D01*
X86439221Y-135162144D01*
X86462500Y-135161000D01*
X87037500Y-135161000D01*
X87060779Y-135162144D01*
G37*
G36*
X88810779Y-135162144D02*
G01*
X88833834Y-135165563D01*
X88856443Y-135171227D01*
X88878387Y-135179079D01*
X88899457Y-135189044D01*
X88919448Y-135201026D01*
X88938168Y-135214910D01*
X88955438Y-135230562D01*
X88971090Y-135247832D01*
X88984974Y-135266552D01*
X88996956Y-135286543D01*
X89006921Y-135307613D01*
X89014773Y-135329557D01*
X89020437Y-135352166D01*
X89023856Y-135375221D01*
X89025000Y-135398500D01*
X89025000Y-135873500D01*
X89023856Y-135896779D01*
X89020437Y-135919834D01*
X89014773Y-135942443D01*
X89006921Y-135964387D01*
X88996956Y-135985457D01*
X88984974Y-136005448D01*
X88971090Y-136024168D01*
X88955438Y-136041438D01*
X88938168Y-136057090D01*
X88919448Y-136070974D01*
X88899457Y-136082956D01*
X88878387Y-136092921D01*
X88856443Y-136100773D01*
X88833834Y-136106437D01*
X88810779Y-136109856D01*
X88787500Y-136111000D01*
X88212500Y-136111000D01*
X88189221Y-136109856D01*
X88166166Y-136106437D01*
X88143557Y-136100773D01*
X88121613Y-136092921D01*
X88100543Y-136082956D01*
X88080552Y-136070974D01*
X88061832Y-136057090D01*
X88044562Y-136041438D01*
X88028910Y-136024168D01*
X88015026Y-136005448D01*
X88003044Y-135985457D01*
X87993079Y-135964387D01*
X87985227Y-135942443D01*
X87979563Y-135919834D01*
X87976144Y-135896779D01*
X87975000Y-135873500D01*
X87975000Y-135398500D01*
X87976144Y-135375221D01*
X87979563Y-135352166D01*
X87985227Y-135329557D01*
X87993079Y-135307613D01*
X88003044Y-135286543D01*
X88015026Y-135266552D01*
X88028910Y-135247832D01*
X88044562Y-135230562D01*
X88061832Y-135214910D01*
X88080552Y-135201026D01*
X88100543Y-135189044D01*
X88121613Y-135179079D01*
X88143557Y-135171227D01*
X88166166Y-135165563D01*
X88189221Y-135162144D01*
X88212500Y-135161000D01*
X88787500Y-135161000D01*
X88810779Y-135162144D01*
G37*
G36*
X76765779Y-133130144D02*
G01*
X76788834Y-133133563D01*
X76811443Y-133139227D01*
X76833387Y-133147079D01*
X76854457Y-133157044D01*
X76874448Y-133169026D01*
X76893168Y-133182910D01*
X76910438Y-133198562D01*
X76926090Y-133215832D01*
X76939974Y-133234552D01*
X76951956Y-133254543D01*
X76961921Y-133275613D01*
X76969773Y-133297557D01*
X76975437Y-133320166D01*
X76978856Y-133343221D01*
X76980000Y-133366500D01*
X76980000Y-133841500D01*
X76978856Y-133864779D01*
X76975437Y-133887834D01*
X76969773Y-133910443D01*
X76961921Y-133932387D01*
X76951956Y-133953457D01*
X76939974Y-133973448D01*
X76926090Y-133992168D01*
X76910438Y-134009438D01*
X76893168Y-134025090D01*
X76874448Y-134038974D01*
X76854457Y-134050956D01*
X76833387Y-134060921D01*
X76811443Y-134068773D01*
X76788834Y-134074437D01*
X76765779Y-134077856D01*
X76742500Y-134079000D01*
X76167500Y-134079000D01*
X76144221Y-134077856D01*
X76121166Y-134074437D01*
X76098557Y-134068773D01*
X76076613Y-134060921D01*
X76055543Y-134050956D01*
X76035552Y-134038974D01*
X76016832Y-134025090D01*
X75999562Y-134009438D01*
X75983910Y-133992168D01*
X75970026Y-133973448D01*
X75958044Y-133953457D01*
X75948079Y-133932387D01*
X75940227Y-133910443D01*
X75934563Y-133887834D01*
X75931144Y-133864779D01*
X75930000Y-133841500D01*
X75930000Y-133366500D01*
X75931144Y-133343221D01*
X75934563Y-133320166D01*
X75940227Y-133297557D01*
X75948079Y-133275613D01*
X75958044Y-133254543D01*
X75970026Y-133234552D01*
X75983910Y-133215832D01*
X75999562Y-133198562D01*
X76016832Y-133182910D01*
X76035552Y-133169026D01*
X76055543Y-133157044D01*
X76076613Y-133147079D01*
X76098557Y-133139227D01*
X76121166Y-133133563D01*
X76144221Y-133130144D01*
X76167500Y-133129000D01*
X76742500Y-133129000D01*
X76765779Y-133130144D01*
G37*
G36*
X78515779Y-133130144D02*
G01*
X78538834Y-133133563D01*
X78561443Y-133139227D01*
X78583387Y-133147079D01*
X78604457Y-133157044D01*
X78624448Y-133169026D01*
X78643168Y-133182910D01*
X78660438Y-133198562D01*
X78676090Y-133215832D01*
X78689974Y-133234552D01*
X78701956Y-133254543D01*
X78711921Y-133275613D01*
X78719773Y-133297557D01*
X78725437Y-133320166D01*
X78728856Y-133343221D01*
X78730000Y-133366500D01*
X78730000Y-133841500D01*
X78728856Y-133864779D01*
X78725437Y-133887834D01*
X78719773Y-133910443D01*
X78711921Y-133932387D01*
X78701956Y-133953457D01*
X78689974Y-133973448D01*
X78676090Y-133992168D01*
X78660438Y-134009438D01*
X78643168Y-134025090D01*
X78624448Y-134038974D01*
X78604457Y-134050956D01*
X78583387Y-134060921D01*
X78561443Y-134068773D01*
X78538834Y-134074437D01*
X78515779Y-134077856D01*
X78492500Y-134079000D01*
X77917500Y-134079000D01*
X77894221Y-134077856D01*
X77871166Y-134074437D01*
X77848557Y-134068773D01*
X77826613Y-134060921D01*
X77805543Y-134050956D01*
X77785552Y-134038974D01*
X77766832Y-134025090D01*
X77749562Y-134009438D01*
X77733910Y-133992168D01*
X77720026Y-133973448D01*
X77708044Y-133953457D01*
X77698079Y-133932387D01*
X77690227Y-133910443D01*
X77684563Y-133887834D01*
X77681144Y-133864779D01*
X77680000Y-133841500D01*
X77680000Y-133366500D01*
X77681144Y-133343221D01*
X77684563Y-133320166D01*
X77690227Y-133297557D01*
X77698079Y-133275613D01*
X77708044Y-133254543D01*
X77720026Y-133234552D01*
X77733910Y-133215832D01*
X77749562Y-133198562D01*
X77766832Y-133182910D01*
X77785552Y-133169026D01*
X77805543Y-133157044D01*
X77826613Y-133147079D01*
X77848557Y-133139227D01*
X77871166Y-133133563D01*
X77894221Y-133130144D01*
X77917500Y-133129000D01*
X78492500Y-133129000D01*
X78515779Y-133130144D01*
G37*
G36*
X88855779Y-133130144D02*
G01*
X88878834Y-133133563D01*
X88901443Y-133139227D01*
X88923387Y-133147079D01*
X88944457Y-133157044D01*
X88964448Y-133169026D01*
X88983168Y-133182910D01*
X89000438Y-133198562D01*
X89016090Y-133215832D01*
X89029974Y-133234552D01*
X89041956Y-133254543D01*
X89051921Y-133275613D01*
X89059773Y-133297557D01*
X89065437Y-133320166D01*
X89068856Y-133343221D01*
X89070000Y-133366500D01*
X89070000Y-133841500D01*
X89068856Y-133864779D01*
X89065437Y-133887834D01*
X89059773Y-133910443D01*
X89051921Y-133932387D01*
X89041956Y-133953457D01*
X89029974Y-133973448D01*
X89016090Y-133992168D01*
X89000438Y-134009438D01*
X88983168Y-134025090D01*
X88964448Y-134038974D01*
X88944457Y-134050956D01*
X88923387Y-134060921D01*
X88901443Y-134068773D01*
X88878834Y-134074437D01*
X88855779Y-134077856D01*
X88832500Y-134079000D01*
X88257500Y-134079000D01*
X88234221Y-134077856D01*
X88211166Y-134074437D01*
X88188557Y-134068773D01*
X88166613Y-134060921D01*
X88145543Y-134050956D01*
X88125552Y-134038974D01*
X88106832Y-134025090D01*
X88089562Y-134009438D01*
X88073910Y-133992168D01*
X88060026Y-133973448D01*
X88048044Y-133953457D01*
X88038079Y-133932387D01*
X88030227Y-133910443D01*
X88024563Y-133887834D01*
X88021144Y-133864779D01*
X88020000Y-133841500D01*
X88020000Y-133366500D01*
X88021144Y-133343221D01*
X88024563Y-133320166D01*
X88030227Y-133297557D01*
X88038079Y-133275613D01*
X88048044Y-133254543D01*
X88060026Y-133234552D01*
X88073910Y-133215832D01*
X88089562Y-133198562D01*
X88106832Y-133182910D01*
X88125552Y-133169026D01*
X88145543Y-133157044D01*
X88166613Y-133147079D01*
X88188557Y-133139227D01*
X88211166Y-133133563D01*
X88234221Y-133130144D01*
X88257500Y-133129000D01*
X88832500Y-133129000D01*
X88855779Y-133130144D01*
G37*
G36*
X87105779Y-133130144D02*
G01*
X87128834Y-133133563D01*
X87151443Y-133139227D01*
X87173387Y-133147079D01*
X87194457Y-133157044D01*
X87214448Y-133169026D01*
X87233168Y-133182910D01*
X87250438Y-133198562D01*
X87266090Y-133215832D01*
X87279974Y-133234552D01*
X87291956Y-133254543D01*
X87301921Y-133275613D01*
X87309773Y-133297557D01*
X87315437Y-133320166D01*
X87318856Y-133343221D01*
X87320000Y-133366500D01*
X87320000Y-133841500D01*
X87318856Y-133864779D01*
X87315437Y-133887834D01*
X87309773Y-133910443D01*
X87301921Y-133932387D01*
X87291956Y-133953457D01*
X87279974Y-133973448D01*
X87266090Y-133992168D01*
X87250438Y-134009438D01*
X87233168Y-134025090D01*
X87214448Y-134038974D01*
X87194457Y-134050956D01*
X87173387Y-134060921D01*
X87151443Y-134068773D01*
X87128834Y-134074437D01*
X87105779Y-134077856D01*
X87082500Y-134079000D01*
X86507500Y-134079000D01*
X86484221Y-134077856D01*
X86461166Y-134074437D01*
X86438557Y-134068773D01*
X86416613Y-134060921D01*
X86395543Y-134050956D01*
X86375552Y-134038974D01*
X86356832Y-134025090D01*
X86339562Y-134009438D01*
X86323910Y-133992168D01*
X86310026Y-133973448D01*
X86298044Y-133953457D01*
X86288079Y-133932387D01*
X86280227Y-133910443D01*
X86274563Y-133887834D01*
X86271144Y-133864779D01*
X86270000Y-133841500D01*
X86270000Y-133366500D01*
X86271144Y-133343221D01*
X86274563Y-133320166D01*
X86280227Y-133297557D01*
X86288079Y-133275613D01*
X86298044Y-133254543D01*
X86310026Y-133234552D01*
X86323910Y-133215832D01*
X86339562Y-133198562D01*
X86356832Y-133182910D01*
X86375552Y-133169026D01*
X86395543Y-133157044D01*
X86416613Y-133147079D01*
X86438557Y-133139227D01*
X86461166Y-133133563D01*
X86484221Y-133130144D01*
X86507500Y-133129000D01*
X87082500Y-133129000D01*
X87105779Y-133130144D01*
G37*
M02*
