G04 #@! TF.GenerationSoftware,KiCad,Pcbnew,(5.1.5)-3*
G04 #@! TF.CreationDate,2020-05-08T01:18:23-06:00*
G04 #@! TF.ProjectId,cap,6361702e-6b69-4636-9164-5f7063625858,rev?*
G04 #@! TF.SameCoordinates,Original*
G04 #@! TF.FileFunction,Legend,Top*
G04 #@! TF.FilePolarity,Positive*
%FSLAX46Y46*%
G04 Gerber Fmt 4.6, Leading zero omitted, Abs format (unit mm)*
G04 Created by KiCad (PCBNEW (5.1.5)-3) date 2020-05-08 01:18:23*
%MOMM*%
%LPD*%
G04 APERTURE LIST*
%ADD10C,0.150000*%
%ADD11C,0.300000*%
%ADD12C,0.120000*%
G04 APERTURE END LIST*
D10*
X122041238Y-95347619D02*
X121993619Y-95490476D01*
X121993619Y-95728571D01*
X122041238Y-95823809D01*
X122088857Y-95871428D01*
X122184095Y-95919047D01*
X122279333Y-95919047D01*
X122374571Y-95871428D01*
X122422190Y-95823809D01*
X122469809Y-95728571D01*
X122517428Y-95538095D01*
X122565047Y-95442857D01*
X122612666Y-95395238D01*
X122707904Y-95347619D01*
X122803142Y-95347619D01*
X122898380Y-95395238D01*
X122946000Y-95442857D01*
X122993619Y-95538095D01*
X122993619Y-95776190D01*
X122946000Y-95919047D01*
X122993619Y-96252380D02*
X121993619Y-96490476D01*
X122707904Y-96680952D01*
X121993619Y-96871428D01*
X122993619Y-97109523D01*
X122374571Y-97490476D02*
X122374571Y-98252380D01*
X122898380Y-98680952D02*
X122946000Y-98728571D01*
X122993619Y-98823809D01*
X122993619Y-99061904D01*
X122946000Y-99157142D01*
X122898380Y-99204761D01*
X122803142Y-99252380D01*
X122707904Y-99252380D01*
X122565047Y-99204761D01*
X121993619Y-98633333D01*
X121993619Y-99252380D01*
X122041238Y-66137619D02*
X121993619Y-66280476D01*
X121993619Y-66518571D01*
X122041238Y-66613809D01*
X122088857Y-66661428D01*
X122184095Y-66709047D01*
X122279333Y-66709047D01*
X122374571Y-66661428D01*
X122422190Y-66613809D01*
X122469809Y-66518571D01*
X122517428Y-66328095D01*
X122565047Y-66232857D01*
X122612666Y-66185238D01*
X122707904Y-66137619D01*
X122803142Y-66137619D01*
X122898380Y-66185238D01*
X122946000Y-66232857D01*
X122993619Y-66328095D01*
X122993619Y-66566190D01*
X122946000Y-66709047D01*
X122993619Y-67042380D02*
X121993619Y-67280476D01*
X122707904Y-67470952D01*
X121993619Y-67661428D01*
X122993619Y-67899523D01*
X122374571Y-68280476D02*
X122374571Y-69042380D01*
X121993619Y-70042380D02*
X121993619Y-69470952D01*
X121993619Y-69756666D02*
X122993619Y-69756666D01*
X122850761Y-69661428D01*
X122755523Y-69566190D01*
X122707904Y-69470952D01*
X122517428Y-81734666D02*
X122517428Y-81401333D01*
X121993619Y-81401333D02*
X122993619Y-81401333D01*
X122993619Y-81877523D01*
X122041238Y-82210857D02*
X121993619Y-82353714D01*
X121993619Y-82591809D01*
X122041238Y-82687047D01*
X122088857Y-82734666D01*
X122184095Y-82782285D01*
X122279333Y-82782285D01*
X122374571Y-82734666D01*
X122422190Y-82687047D01*
X122469809Y-82591809D01*
X122517428Y-82401333D01*
X122565047Y-82306095D01*
X122612666Y-82258476D01*
X122707904Y-82210857D01*
X122803142Y-82210857D01*
X122898380Y-82258476D01*
X122946000Y-82306095D01*
X122993619Y-82401333D01*
X122993619Y-82639428D01*
X122946000Y-82782285D01*
X121993619Y-83782285D02*
X122469809Y-83448952D01*
X121993619Y-83210857D02*
X122993619Y-83210857D01*
X122993619Y-83591809D01*
X122946000Y-83687047D01*
X122898380Y-83734666D01*
X122803142Y-83782285D01*
X122660285Y-83782285D01*
X122565047Y-83734666D01*
X122517428Y-83687047D01*
X122469809Y-83591809D01*
X122469809Y-83210857D01*
X141964380Y-69113809D02*
X142964380Y-68780476D01*
X141964380Y-68447142D01*
X142964380Y-68113809D02*
X142297714Y-68113809D01*
X141964380Y-68113809D02*
X142012000Y-68161428D01*
X142059619Y-68113809D01*
X142012000Y-68066190D01*
X141964380Y-68113809D01*
X142059619Y-68113809D01*
X142297714Y-67637619D02*
X142964380Y-67637619D01*
X142392952Y-67637619D02*
X142345333Y-67590000D01*
X142297714Y-67494761D01*
X142297714Y-67351904D01*
X142345333Y-67256666D01*
X142440571Y-67209047D01*
X142964380Y-67209047D01*
D11*
X112599428Y-54120285D02*
X111099428Y-54620285D01*
X112599428Y-55120285D01*
X111099428Y-56406000D02*
X111099428Y-55548857D01*
X111099428Y-55977428D02*
X112599428Y-55977428D01*
X112385142Y-55834571D01*
X112242285Y-55691714D01*
X112170857Y-55548857D01*
X111242285Y-57048857D02*
X111170857Y-57120285D01*
X111099428Y-57048857D01*
X111170857Y-56977428D01*
X111242285Y-57048857D01*
X111099428Y-57048857D01*
X112599428Y-58048857D02*
X112599428Y-58191714D01*
X112528000Y-58334571D01*
X112456571Y-58406000D01*
X112313714Y-58477428D01*
X112028000Y-58548857D01*
X111670857Y-58548857D01*
X111385142Y-58477428D01*
X111242285Y-58406000D01*
X111170857Y-58334571D01*
X111099428Y-58191714D01*
X111099428Y-58048857D01*
X111170857Y-57906000D01*
X111242285Y-57834571D01*
X111385142Y-57763142D01*
X111670857Y-57691714D01*
X112028000Y-57691714D01*
X112313714Y-57763142D01*
X112456571Y-57834571D01*
X112528000Y-57906000D01*
X112599428Y-58048857D01*
D12*
X141530000Y-62890000D02*
X123490000Y-62890000D01*
X141530000Y-106330000D02*
X141530000Y-62890000D01*
X123490000Y-106330000D02*
X141530000Y-106330000D01*
X126160000Y-103660000D02*
X123490000Y-103660000D01*
X126160000Y-68100000D02*
X126160000Y-103660000D01*
X126160000Y-68100000D02*
X123490000Y-68100000D01*
X138860000Y-103660000D02*
X141530000Y-103660000D01*
X138860000Y-65560000D02*
X138860000Y-103660000D01*
X138860000Y-65560000D02*
X141530000Y-65560000D01*
X123490000Y-62890000D02*
X123490000Y-65560000D01*
X123490000Y-68100000D02*
X123490000Y-106330000D01*
X126160000Y-65560000D02*
X123490000Y-65560000D01*
X126160000Y-68100000D02*
X126160000Y-65560000D01*
X120124221Y-90063000D02*
X120449779Y-90063000D01*
X120124221Y-89043000D02*
X120449779Y-89043000D01*
X148728221Y-74863000D02*
X149053779Y-74863000D01*
X148728221Y-73843000D02*
X149053779Y-73843000D01*
X137543000Y-73232000D02*
X137543000Y-74632000D01*
X136843000Y-75332000D02*
X136243000Y-75332000D01*
X135543000Y-74632000D02*
X135543000Y-73232000D01*
X136243000Y-72532000D02*
X136843000Y-72532000D01*
X136843000Y-72532000D02*
G75*
G02X137543000Y-73232000I0J-700000D01*
G01*
X135543000Y-73232000D02*
G75*
G02X136243000Y-72532000I700000J0D01*
G01*
X136243000Y-75332000D02*
G75*
G02X135543000Y-74632000I0J700000D01*
G01*
X137543000Y-74632000D02*
G75*
G02X136843000Y-75332000I-700000J0D01*
G01*
X144824000Y-79809779D02*
X144824000Y-79484221D01*
X143804000Y-79809779D02*
X143804000Y-79484221D01*
X144824000Y-76507779D02*
X144824000Y-76182221D01*
X143804000Y-76507779D02*
X143804000Y-76182221D01*
X118230000Y-46736000D02*
X123564000Y-46736000D01*
X123564000Y-46736000D02*
X123564000Y-57404000D01*
X123564000Y-57404000D02*
X118230000Y-57404000D01*
X118230000Y-57404000D02*
X118230000Y-57404000D01*
X120770000Y-47244000D02*
X120770000Y-49530000D01*
X120770000Y-49530000D02*
X118484000Y-49530000D01*
X118484000Y-49530000D02*
X118484000Y-49530000D01*
X117900000Y-46160000D02*
X147100000Y-46160000D01*
X147100000Y-46160000D02*
X147100000Y-61610000D01*
X147100000Y-61610000D02*
X117900000Y-61610000D01*
X117900000Y-61610000D02*
X117900000Y-46160000D01*
X117900000Y-46160000D02*
X117900000Y-46160000D01*
X118230000Y-57404000D02*
X118230000Y-46736000D01*
X118230000Y-46736000D02*
X118230000Y-46736000D01*
X151273779Y-87904000D02*
X150948221Y-87904000D01*
X151273779Y-86884000D02*
X150948221Y-86884000D01*
X148891000Y-75436000D02*
X146941000Y-75436000D01*
X148891000Y-75436000D02*
X150841000Y-75436000D01*
X148891000Y-80556000D02*
X146941000Y-80556000D01*
X148891000Y-80556000D02*
X152341000Y-80556000D01*
X149181000Y-83573000D02*
X149181000Y-85373000D01*
X152401000Y-85373000D02*
X152401000Y-82923000D01*
X119868000Y-108955000D02*
X122328000Y-108955000D01*
X122328000Y-108955000D02*
X122328000Y-107485000D01*
X122328000Y-107485000D02*
X119868000Y-107485000D01*
X145950000Y-107485000D02*
X143490000Y-107485000D01*
X145950000Y-108955000D02*
X145950000Y-107485000D01*
X143490000Y-108955000D02*
X145950000Y-108955000D01*
X144461267Y-106827000D02*
X144118733Y-106827000D01*
X144461267Y-105807000D02*
X144118733Y-105807000D01*
X120884267Y-105807000D02*
X120541733Y-105807000D01*
X120884267Y-106827000D02*
X120541733Y-106827000D01*
X121377000Y-102211000D02*
X112257000Y-102211000D01*
X112257000Y-102211000D02*
X111257000Y-101211000D01*
X111257000Y-101211000D02*
X111257000Y-93341000D01*
X111257000Y-93341000D02*
X112257000Y-92341000D01*
X112257000Y-92341000D02*
X121377000Y-92341000D01*
X121377000Y-102211000D02*
X121377000Y-99786000D01*
X121377000Y-92341000D02*
X121377000Y-95124233D01*
X121377000Y-97766000D02*
X121377000Y-96427767D01*
X143581000Y-89341000D02*
X152701000Y-89341000D01*
X152701000Y-89341000D02*
X153701000Y-90341000D01*
X153701000Y-90341000D02*
X153701000Y-101211000D01*
X153701000Y-101211000D02*
X152701000Y-102211000D01*
X152701000Y-102211000D02*
X143581000Y-102211000D01*
X143581000Y-89341000D02*
X143581000Y-91766000D01*
X143581000Y-102211000D02*
X143581000Y-99427767D01*
X143581000Y-93786000D02*
X143581000Y-95124233D01*
X143581000Y-96427767D02*
X143581000Y-98124233D01*
X121377000Y-73025000D02*
X112257000Y-73025000D01*
X112257000Y-73025000D02*
X111257000Y-72025000D01*
X111257000Y-72025000D02*
X111257000Y-64155000D01*
X111257000Y-64155000D02*
X112257000Y-63155000D01*
X112257000Y-63155000D02*
X121377000Y-63155000D01*
X121377000Y-73025000D02*
X121377000Y-70600000D01*
X121377000Y-63155000D02*
X121377000Y-65938233D01*
X121377000Y-68580000D02*
X121377000Y-67241767D01*
X143581000Y-63155000D02*
X152701000Y-63155000D01*
X152701000Y-63155000D02*
X153701000Y-64155000D01*
X153701000Y-64155000D02*
X153701000Y-72025000D01*
X153701000Y-72025000D02*
X152701000Y-73025000D01*
X152701000Y-73025000D02*
X143581000Y-73025000D01*
X143581000Y-63155000D02*
X143581000Y-65580000D01*
X143581000Y-73025000D02*
X143581000Y-70241767D01*
X143581000Y-67600000D02*
X143581000Y-68938233D01*
X121377000Y-83173000D02*
X121377000Y-81834767D01*
X121377000Y-77748000D02*
X121377000Y-80531233D01*
X121377000Y-87618000D02*
X121377000Y-85193000D01*
X112257000Y-77748000D02*
X121377000Y-77748000D01*
X111257000Y-78748000D02*
X112257000Y-77748000D01*
X111257000Y-86618000D02*
X111257000Y-78748000D01*
X112257000Y-87618000D02*
X111257000Y-86618000D01*
X121377000Y-87618000D02*
X112257000Y-87618000D01*
X145182000Y-85075064D02*
X145182000Y-83870936D01*
X147002000Y-85075064D02*
X147002000Y-83870936D01*
D10*
X132018714Y-64065666D02*
X132494904Y-64065666D01*
X131923476Y-64351380D02*
X132256809Y-63351380D01*
X132590142Y-64351380D01*
X133447285Y-64351380D02*
X132875857Y-64351380D01*
X133161571Y-64351380D02*
X133161571Y-63351380D01*
X133066333Y-63494238D01*
X132971095Y-63589476D01*
X132875857Y-63637095D01*
X117453333Y-90005380D02*
X117120000Y-89529190D01*
X116881904Y-90005380D02*
X116881904Y-89005380D01*
X117262857Y-89005380D01*
X117358095Y-89053000D01*
X117405714Y-89100619D01*
X117453333Y-89195857D01*
X117453333Y-89338714D01*
X117405714Y-89433952D01*
X117358095Y-89481571D01*
X117262857Y-89529190D01*
X116881904Y-89529190D01*
X118310476Y-89338714D02*
X118310476Y-90005380D01*
X118072380Y-88957761D02*
X117834285Y-89672047D01*
X118453333Y-89672047D01*
X146184333Y-74932380D02*
X145851000Y-74456190D01*
X145612904Y-74932380D02*
X145612904Y-73932380D01*
X145993857Y-73932380D01*
X146089095Y-73980000D01*
X146136714Y-74027619D01*
X146184333Y-74122857D01*
X146184333Y-74265714D01*
X146136714Y-74360952D01*
X146089095Y-74408571D01*
X145993857Y-74456190D01*
X145612904Y-74456190D01*
X146517666Y-73932380D02*
X147136714Y-73932380D01*
X146803380Y-74313333D01*
X146946238Y-74313333D01*
X147041476Y-74360952D01*
X147089095Y-74408571D01*
X147136714Y-74503809D01*
X147136714Y-74741904D01*
X147089095Y-74837142D01*
X147041476Y-74884761D01*
X146946238Y-74932380D01*
X146660523Y-74932380D01*
X146565285Y-74884761D01*
X146517666Y-74837142D01*
X135836666Y-70986380D02*
X135836666Y-71700666D01*
X135789047Y-71843523D01*
X135693809Y-71938761D01*
X135550952Y-71986380D01*
X135455714Y-71986380D01*
X136312857Y-71986380D02*
X136312857Y-70986380D01*
X136693809Y-70986380D01*
X136789047Y-71034000D01*
X136836666Y-71081619D01*
X136884285Y-71176857D01*
X136884285Y-71319714D01*
X136836666Y-71414952D01*
X136789047Y-71462571D01*
X136693809Y-71510190D01*
X136312857Y-71510190D01*
X137836666Y-71986380D02*
X137265238Y-71986380D01*
X137550952Y-71986380D02*
X137550952Y-70986380D01*
X137455714Y-71129238D01*
X137360476Y-71224476D01*
X137265238Y-71272095D01*
X143250142Y-79813666D02*
X143297761Y-79861285D01*
X143345380Y-80004142D01*
X143345380Y-80099380D01*
X143297761Y-80242238D01*
X143202523Y-80337476D01*
X143107285Y-80385095D01*
X142916809Y-80432714D01*
X142773952Y-80432714D01*
X142583476Y-80385095D01*
X142488238Y-80337476D01*
X142393000Y-80242238D01*
X142345380Y-80099380D01*
X142345380Y-80004142D01*
X142393000Y-79861285D01*
X142440619Y-79813666D01*
X142440619Y-79432714D02*
X142393000Y-79385095D01*
X142345380Y-79289857D01*
X142345380Y-79051761D01*
X142393000Y-78956523D01*
X142440619Y-78908904D01*
X142535857Y-78861285D01*
X142631095Y-78861285D01*
X142773952Y-78908904D01*
X143345380Y-79480333D01*
X143345380Y-78861285D01*
X143250142Y-76511666D02*
X143297761Y-76559285D01*
X143345380Y-76702142D01*
X143345380Y-76797380D01*
X143297761Y-76940238D01*
X143202523Y-77035476D01*
X143107285Y-77083095D01*
X142916809Y-77130714D01*
X142773952Y-77130714D01*
X142583476Y-77083095D01*
X142488238Y-77035476D01*
X142393000Y-76940238D01*
X142345380Y-76797380D01*
X142345380Y-76702142D01*
X142393000Y-76559285D01*
X142440619Y-76511666D01*
X143345380Y-75559285D02*
X143345380Y-76130714D01*
X143345380Y-75845000D02*
X142345380Y-75845000D01*
X142488238Y-75940238D01*
X142583476Y-76035476D01*
X142631095Y-76130714D01*
X115588095Y-60684380D02*
X115588095Y-61493904D01*
X115635714Y-61589142D01*
X115683333Y-61636761D01*
X115778571Y-61684380D01*
X115969047Y-61684380D01*
X116064285Y-61636761D01*
X116111904Y-61589142D01*
X116159523Y-61493904D01*
X116159523Y-60684380D01*
X116588095Y-60779619D02*
X116635714Y-60732000D01*
X116730952Y-60684380D01*
X116969047Y-60684380D01*
X117064285Y-60732000D01*
X117111904Y-60779619D01*
X117159523Y-60874857D01*
X117159523Y-60970095D01*
X117111904Y-61112952D01*
X116540476Y-61684380D01*
X117159523Y-61684380D01*
X148404333Y-87751142D02*
X148356714Y-87798761D01*
X148213857Y-87846380D01*
X148118619Y-87846380D01*
X147975761Y-87798761D01*
X147880523Y-87703523D01*
X147832904Y-87608285D01*
X147785285Y-87417809D01*
X147785285Y-87274952D01*
X147832904Y-87084476D01*
X147880523Y-86989238D01*
X147975761Y-86894000D01*
X148118619Y-86846380D01*
X148213857Y-86846380D01*
X148356714Y-86894000D01*
X148404333Y-86941619D01*
X148737666Y-86846380D02*
X149356714Y-86846380D01*
X149023380Y-87227333D01*
X149166238Y-87227333D01*
X149261476Y-87274952D01*
X149309095Y-87322571D01*
X149356714Y-87417809D01*
X149356714Y-87655904D01*
X149309095Y-87751142D01*
X149261476Y-87798761D01*
X149166238Y-87846380D01*
X148880523Y-87846380D01*
X148785285Y-87798761D01*
X148737666Y-87751142D01*
X151045095Y-74019380D02*
X151045095Y-74828904D01*
X151092714Y-74924142D01*
X151140333Y-74971761D01*
X151235571Y-75019380D01*
X151426047Y-75019380D01*
X151521285Y-74971761D01*
X151568904Y-74924142D01*
X151616523Y-74828904D01*
X151616523Y-74019380D01*
X152616523Y-75019380D02*
X152045095Y-75019380D01*
X152330809Y-75019380D02*
X152330809Y-74019380D01*
X152235571Y-74162238D01*
X152140333Y-74257476D01*
X152045095Y-74305095D01*
X151045095Y-81385380D02*
X151045095Y-82194904D01*
X151092714Y-82290142D01*
X151140333Y-82337761D01*
X151235571Y-82385380D01*
X151426047Y-82385380D01*
X151521285Y-82337761D01*
X151568904Y-82290142D01*
X151616523Y-82194904D01*
X151616523Y-81385380D01*
X151997476Y-81385380D02*
X152616523Y-81385380D01*
X152283190Y-81766333D01*
X152426047Y-81766333D01*
X152521285Y-81813952D01*
X152568904Y-81861571D01*
X152616523Y-81956809D01*
X152616523Y-82194904D01*
X152568904Y-82290142D01*
X152521285Y-82337761D01*
X152426047Y-82385380D01*
X152140333Y-82385380D01*
X152045095Y-82337761D01*
X151997476Y-82290142D01*
X117262904Y-108672380D02*
X117262904Y-107672380D01*
X117501000Y-107672380D01*
X117643857Y-107720000D01*
X117739095Y-107815238D01*
X117786714Y-107910476D01*
X117834333Y-108100952D01*
X117834333Y-108243809D01*
X117786714Y-108434285D01*
X117739095Y-108529523D01*
X117643857Y-108624761D01*
X117501000Y-108672380D01*
X117262904Y-108672380D01*
X118786714Y-108672380D02*
X118215285Y-108672380D01*
X118501000Y-108672380D02*
X118501000Y-107672380D01*
X118405761Y-107815238D01*
X118310523Y-107910476D01*
X118215285Y-107958095D01*
X146218904Y-108672380D02*
X146218904Y-107672380D01*
X146457000Y-107672380D01*
X146599857Y-107720000D01*
X146695095Y-107815238D01*
X146742714Y-107910476D01*
X146790333Y-108100952D01*
X146790333Y-108243809D01*
X146742714Y-108434285D01*
X146695095Y-108529523D01*
X146599857Y-108624761D01*
X146457000Y-108672380D01*
X146218904Y-108672380D01*
X147171285Y-107767619D02*
X147218904Y-107720000D01*
X147314142Y-107672380D01*
X147552238Y-107672380D01*
X147647476Y-107720000D01*
X147695095Y-107767619D01*
X147742714Y-107862857D01*
X147742714Y-107958095D01*
X147695095Y-108100952D01*
X147123666Y-108672380D01*
X147742714Y-108672380D01*
X146790333Y-106769380D02*
X146457000Y-106293190D01*
X146218904Y-106769380D02*
X146218904Y-105769380D01*
X146599857Y-105769380D01*
X146695095Y-105817000D01*
X146742714Y-105864619D01*
X146790333Y-105959857D01*
X146790333Y-106102714D01*
X146742714Y-106197952D01*
X146695095Y-106245571D01*
X146599857Y-106293190D01*
X146218904Y-106293190D01*
X147171285Y-105864619D02*
X147218904Y-105817000D01*
X147314142Y-105769380D01*
X147552238Y-105769380D01*
X147647476Y-105817000D01*
X147695095Y-105864619D01*
X147742714Y-105959857D01*
X147742714Y-106055095D01*
X147695095Y-106197952D01*
X147123666Y-106769380D01*
X147742714Y-106769380D01*
X117879333Y-106769380D02*
X117546000Y-106293190D01*
X117307904Y-106769380D02*
X117307904Y-105769380D01*
X117688857Y-105769380D01*
X117784095Y-105817000D01*
X117831714Y-105864619D01*
X117879333Y-105959857D01*
X117879333Y-106102714D01*
X117831714Y-106197952D01*
X117784095Y-106245571D01*
X117688857Y-106293190D01*
X117307904Y-106293190D01*
X118784095Y-105769380D02*
X118307904Y-105769380D01*
X118260285Y-106245571D01*
X118307904Y-106197952D01*
X118403142Y-106150333D01*
X118641238Y-106150333D01*
X118736476Y-106197952D01*
X118784095Y-106245571D01*
X118831714Y-106340809D01*
X118831714Y-106578904D01*
X118784095Y-106674142D01*
X118736476Y-106721761D01*
X118641238Y-106769380D01*
X118403142Y-106769380D01*
X118307904Y-106721761D01*
X118260285Y-106674142D01*
X111317666Y-90529380D02*
X111317666Y-91243666D01*
X111270047Y-91386523D01*
X111174809Y-91481761D01*
X111031952Y-91529380D01*
X110936714Y-91529380D01*
X111698619Y-90529380D02*
X112317666Y-90529380D01*
X111984333Y-90910333D01*
X112127190Y-90910333D01*
X112222428Y-90957952D01*
X112270047Y-91005571D01*
X112317666Y-91100809D01*
X112317666Y-91338904D01*
X112270047Y-91434142D01*
X112222428Y-91481761D01*
X112127190Y-91529380D01*
X111841476Y-91529380D01*
X111746238Y-91481761D01*
X111698619Y-91434142D01*
X143450666Y-102975380D02*
X143450666Y-103689666D01*
X143403047Y-103832523D01*
X143307809Y-103927761D01*
X143164952Y-103975380D01*
X143069714Y-103975380D01*
X144450666Y-103975380D02*
X143879238Y-103975380D01*
X144164952Y-103975380D02*
X144164952Y-102975380D01*
X144069714Y-103118238D01*
X143974476Y-103213476D01*
X143879238Y-103261095D01*
X111317666Y-61446380D02*
X111317666Y-62160666D01*
X111270047Y-62303523D01*
X111174809Y-62398761D01*
X111031952Y-62446380D01*
X110936714Y-62446380D01*
X112222428Y-61779714D02*
X112222428Y-62446380D01*
X111984333Y-61398761D02*
X111746238Y-62113047D01*
X112365285Y-62113047D01*
X153100666Y-61446380D02*
X153100666Y-62160666D01*
X153053047Y-62303523D01*
X152957809Y-62398761D01*
X152814952Y-62446380D01*
X152719714Y-62446380D01*
X154053047Y-61446380D02*
X153576857Y-61446380D01*
X153529238Y-61922571D01*
X153576857Y-61874952D01*
X153672095Y-61827333D01*
X153910190Y-61827333D01*
X154005428Y-61874952D01*
X154053047Y-61922571D01*
X154100666Y-62017809D01*
X154100666Y-62255904D01*
X154053047Y-62351142D01*
X154005428Y-62398761D01*
X153910190Y-62446380D01*
X153672095Y-62446380D01*
X153576857Y-62398761D01*
X153529238Y-62351142D01*
X111317666Y-75924380D02*
X111317666Y-76638666D01*
X111270047Y-76781523D01*
X111174809Y-76876761D01*
X111031952Y-76924380D01*
X110936714Y-76924380D01*
X111698619Y-75924380D02*
X112365285Y-75924380D01*
X111936714Y-76924380D01*
X144724380Y-84639666D02*
X144248190Y-84973000D01*
X144724380Y-85211095D02*
X143724380Y-85211095D01*
X143724380Y-84830142D01*
X143772000Y-84734904D01*
X143819619Y-84687285D01*
X143914857Y-84639666D01*
X144057714Y-84639666D01*
X144152952Y-84687285D01*
X144200571Y-84734904D01*
X144248190Y-84830142D01*
X144248190Y-85211095D01*
X144724380Y-83687285D02*
X144724380Y-84258714D01*
X144724380Y-83973000D02*
X143724380Y-83973000D01*
X143867238Y-84068238D01*
X143962476Y-84163476D01*
X144010095Y-84258714D01*
M02*
