G04 #@! TF.GenerationSoftware,KiCad,Pcbnew,(5.1.5)-3*
G04 #@! TF.CreationDate,2020-05-08T01:18:23-06:00*
G04 #@! TF.ProjectId,cap,6361702e-6b69-4636-9164-5f7063625858,rev?*
G04 #@! TF.SameCoordinates,Original*
G04 #@! TF.FileFunction,Copper,L2,Bot*
G04 #@! TF.FilePolarity,Positive*
%FSLAX46Y46*%
G04 Gerber Fmt 4.6, Leading zero omitted, Abs format (unit mm)*
G04 Created by KiCad (PCBNEW (5.1.5)-3) date 2020-05-08 01:18:23*
%MOMM*%
%LPD*%
G04 APERTURE LIST*
%ADD10O,1.600000X1.600000*%
%ADD11R,1.600000X1.600000*%
%ADD12R,1.524000X1.524000*%
%ADD13C,1.524000*%
%ADD14C,5.500000*%
%ADD15C,0.100000*%
%ADD16O,2.020000X1.500000*%
%ADD17C,0.800000*%
%ADD18C,0.762000*%
%ADD19C,0.381000*%
%ADD20C,0.254000*%
G04 APERTURE END LIST*
D10*
X140130000Y-102390000D03*
X124890000Y-102390000D03*
X140130000Y-66830000D03*
X124890000Y-99850000D03*
X140130000Y-69370000D03*
X124890000Y-97310000D03*
X140130000Y-71910000D03*
X124890000Y-94770000D03*
X140130000Y-74450000D03*
X124890000Y-92230000D03*
X140130000Y-76990000D03*
X124890000Y-89690000D03*
X140130000Y-79530000D03*
X124890000Y-87150000D03*
X140130000Y-82070000D03*
X124890000Y-84610000D03*
X140130000Y-84610000D03*
X124890000Y-82070000D03*
X140130000Y-87150000D03*
X124890000Y-79530000D03*
X140130000Y-89690000D03*
X124890000Y-76990000D03*
X140130000Y-92230000D03*
X124890000Y-74450000D03*
X140130000Y-94770000D03*
X124890000Y-71910000D03*
X140130000Y-97310000D03*
X124890000Y-69370000D03*
X140130000Y-99850000D03*
D11*
X124890000Y-66830000D03*
D12*
X119500000Y-48260000D03*
D13*
X122040000Y-48260000D03*
X119500000Y-50800000D03*
X122040000Y-50800000D03*
X119500000Y-53340000D03*
X122040000Y-53340000D03*
X119500000Y-55880000D03*
X122040000Y-55880000D03*
D14*
X151000000Y-49000000D03*
X114000000Y-49000000D03*
X114000000Y-106000000D03*
X151000000Y-106000000D03*
G04 #@! TA.AperFunction,ComponentPad*
D15*
G36*
X121071504Y-98027204D02*
G01*
X121095773Y-98030804D01*
X121119571Y-98036765D01*
X121142671Y-98045030D01*
X121164849Y-98055520D01*
X121185893Y-98068133D01*
X121205598Y-98082747D01*
X121223777Y-98099223D01*
X121240253Y-98117402D01*
X121254867Y-98137107D01*
X121267480Y-98158151D01*
X121277970Y-98180329D01*
X121286235Y-98203429D01*
X121292196Y-98227227D01*
X121295796Y-98251496D01*
X121297000Y-98276000D01*
X121297000Y-99276000D01*
X121295796Y-99300504D01*
X121292196Y-99324773D01*
X121286235Y-99348571D01*
X121277970Y-99371671D01*
X121267480Y-99393849D01*
X121254867Y-99414893D01*
X121240253Y-99434598D01*
X121223777Y-99452777D01*
X121205598Y-99469253D01*
X121185893Y-99483867D01*
X121164849Y-99496480D01*
X121142671Y-99506970D01*
X121119571Y-99515235D01*
X121095773Y-99521196D01*
X121071504Y-99524796D01*
X121047000Y-99526000D01*
X119527000Y-99526000D01*
X119502496Y-99524796D01*
X119478227Y-99521196D01*
X119454429Y-99515235D01*
X119431329Y-99506970D01*
X119409151Y-99496480D01*
X119388107Y-99483867D01*
X119368402Y-99469253D01*
X119350223Y-99452777D01*
X119333747Y-99434598D01*
X119319133Y-99414893D01*
X119306520Y-99393849D01*
X119296030Y-99371671D01*
X119287765Y-99348571D01*
X119281804Y-99324773D01*
X119278204Y-99300504D01*
X119277000Y-99276000D01*
X119277000Y-98276000D01*
X119278204Y-98251496D01*
X119281804Y-98227227D01*
X119287765Y-98203429D01*
X119296030Y-98180329D01*
X119306520Y-98158151D01*
X119319133Y-98137107D01*
X119333747Y-98117402D01*
X119350223Y-98099223D01*
X119368402Y-98082747D01*
X119388107Y-98068133D01*
X119409151Y-98055520D01*
X119431329Y-98045030D01*
X119454429Y-98036765D01*
X119478227Y-98030804D01*
X119502496Y-98027204D01*
X119527000Y-98026000D01*
X121047000Y-98026000D01*
X121071504Y-98027204D01*
G37*
G04 #@! TD.AperFunction*
D16*
X120287000Y-95776000D03*
G04 #@! TA.AperFunction,ComponentPad*
D15*
G36*
X145455504Y-92027204D02*
G01*
X145479773Y-92030804D01*
X145503571Y-92036765D01*
X145526671Y-92045030D01*
X145548849Y-92055520D01*
X145569893Y-92068133D01*
X145589598Y-92082747D01*
X145607777Y-92099223D01*
X145624253Y-92117402D01*
X145638867Y-92137107D01*
X145651480Y-92158151D01*
X145661970Y-92180329D01*
X145670235Y-92203429D01*
X145676196Y-92227227D01*
X145679796Y-92251496D01*
X145681000Y-92276000D01*
X145681000Y-93276000D01*
X145679796Y-93300504D01*
X145676196Y-93324773D01*
X145670235Y-93348571D01*
X145661970Y-93371671D01*
X145651480Y-93393849D01*
X145638867Y-93414893D01*
X145624253Y-93434598D01*
X145607777Y-93452777D01*
X145589598Y-93469253D01*
X145569893Y-93483867D01*
X145548849Y-93496480D01*
X145526671Y-93506970D01*
X145503571Y-93515235D01*
X145479773Y-93521196D01*
X145455504Y-93524796D01*
X145431000Y-93526000D01*
X143911000Y-93526000D01*
X143886496Y-93524796D01*
X143862227Y-93521196D01*
X143838429Y-93515235D01*
X143815329Y-93506970D01*
X143793151Y-93496480D01*
X143772107Y-93483867D01*
X143752402Y-93469253D01*
X143734223Y-93452777D01*
X143717747Y-93434598D01*
X143703133Y-93414893D01*
X143690520Y-93393849D01*
X143680030Y-93371671D01*
X143671765Y-93348571D01*
X143665804Y-93324773D01*
X143662204Y-93300504D01*
X143661000Y-93276000D01*
X143661000Y-92276000D01*
X143662204Y-92251496D01*
X143665804Y-92227227D01*
X143671765Y-92203429D01*
X143680030Y-92180329D01*
X143690520Y-92158151D01*
X143703133Y-92137107D01*
X143717747Y-92117402D01*
X143734223Y-92099223D01*
X143752402Y-92082747D01*
X143772107Y-92068133D01*
X143793151Y-92055520D01*
X143815329Y-92045030D01*
X143838429Y-92036765D01*
X143862227Y-92030804D01*
X143886496Y-92027204D01*
X143911000Y-92026000D01*
X145431000Y-92026000D01*
X145455504Y-92027204D01*
G37*
G04 #@! TD.AperFunction*
D16*
X144671000Y-95776000D03*
X144671000Y-98776000D03*
G04 #@! TA.AperFunction,ComponentPad*
D15*
G36*
X121071504Y-68841204D02*
G01*
X121095773Y-68844804D01*
X121119571Y-68850765D01*
X121142671Y-68859030D01*
X121164849Y-68869520D01*
X121185893Y-68882133D01*
X121205598Y-68896747D01*
X121223777Y-68913223D01*
X121240253Y-68931402D01*
X121254867Y-68951107D01*
X121267480Y-68972151D01*
X121277970Y-68994329D01*
X121286235Y-69017429D01*
X121292196Y-69041227D01*
X121295796Y-69065496D01*
X121297000Y-69090000D01*
X121297000Y-70090000D01*
X121295796Y-70114504D01*
X121292196Y-70138773D01*
X121286235Y-70162571D01*
X121277970Y-70185671D01*
X121267480Y-70207849D01*
X121254867Y-70228893D01*
X121240253Y-70248598D01*
X121223777Y-70266777D01*
X121205598Y-70283253D01*
X121185893Y-70297867D01*
X121164849Y-70310480D01*
X121142671Y-70320970D01*
X121119571Y-70329235D01*
X121095773Y-70335196D01*
X121071504Y-70338796D01*
X121047000Y-70340000D01*
X119527000Y-70340000D01*
X119502496Y-70338796D01*
X119478227Y-70335196D01*
X119454429Y-70329235D01*
X119431329Y-70320970D01*
X119409151Y-70310480D01*
X119388107Y-70297867D01*
X119368402Y-70283253D01*
X119350223Y-70266777D01*
X119333747Y-70248598D01*
X119319133Y-70228893D01*
X119306520Y-70207849D01*
X119296030Y-70185671D01*
X119287765Y-70162571D01*
X119281804Y-70138773D01*
X119278204Y-70114504D01*
X119277000Y-70090000D01*
X119277000Y-69090000D01*
X119278204Y-69065496D01*
X119281804Y-69041227D01*
X119287765Y-69017429D01*
X119296030Y-68994329D01*
X119306520Y-68972151D01*
X119319133Y-68951107D01*
X119333747Y-68931402D01*
X119350223Y-68913223D01*
X119368402Y-68896747D01*
X119388107Y-68882133D01*
X119409151Y-68869520D01*
X119431329Y-68859030D01*
X119454429Y-68850765D01*
X119478227Y-68844804D01*
X119502496Y-68841204D01*
X119527000Y-68840000D01*
X121047000Y-68840000D01*
X121071504Y-68841204D01*
G37*
G04 #@! TD.AperFunction*
D16*
X120287000Y-66590000D03*
G04 #@! TA.AperFunction,ComponentPad*
D15*
G36*
X145455504Y-65841204D02*
G01*
X145479773Y-65844804D01*
X145503571Y-65850765D01*
X145526671Y-65859030D01*
X145548849Y-65869520D01*
X145569893Y-65882133D01*
X145589598Y-65896747D01*
X145607777Y-65913223D01*
X145624253Y-65931402D01*
X145638867Y-65951107D01*
X145651480Y-65972151D01*
X145661970Y-65994329D01*
X145670235Y-66017429D01*
X145676196Y-66041227D01*
X145679796Y-66065496D01*
X145681000Y-66090000D01*
X145681000Y-67090000D01*
X145679796Y-67114504D01*
X145676196Y-67138773D01*
X145670235Y-67162571D01*
X145661970Y-67185671D01*
X145651480Y-67207849D01*
X145638867Y-67228893D01*
X145624253Y-67248598D01*
X145607777Y-67266777D01*
X145589598Y-67283253D01*
X145569893Y-67297867D01*
X145548849Y-67310480D01*
X145526671Y-67320970D01*
X145503571Y-67329235D01*
X145479773Y-67335196D01*
X145455504Y-67338796D01*
X145431000Y-67340000D01*
X143911000Y-67340000D01*
X143886496Y-67338796D01*
X143862227Y-67335196D01*
X143838429Y-67329235D01*
X143815329Y-67320970D01*
X143793151Y-67310480D01*
X143772107Y-67297867D01*
X143752402Y-67283253D01*
X143734223Y-67266777D01*
X143717747Y-67248598D01*
X143703133Y-67228893D01*
X143690520Y-67207849D01*
X143680030Y-67185671D01*
X143671765Y-67162571D01*
X143665804Y-67138773D01*
X143662204Y-67114504D01*
X143661000Y-67090000D01*
X143661000Y-66090000D01*
X143662204Y-66065496D01*
X143665804Y-66041227D01*
X143671765Y-66017429D01*
X143680030Y-65994329D01*
X143690520Y-65972151D01*
X143703133Y-65951107D01*
X143717747Y-65931402D01*
X143734223Y-65913223D01*
X143752402Y-65896747D01*
X143772107Y-65882133D01*
X143793151Y-65869520D01*
X143815329Y-65859030D01*
X143838429Y-65850765D01*
X143862227Y-65844804D01*
X143886496Y-65841204D01*
X143911000Y-65840000D01*
X145431000Y-65840000D01*
X145455504Y-65841204D01*
G37*
G04 #@! TD.AperFunction*
D16*
X144671000Y-69590000D03*
X120287000Y-81183000D03*
G04 #@! TA.AperFunction,ComponentPad*
D15*
G36*
X121071504Y-83434204D02*
G01*
X121095773Y-83437804D01*
X121119571Y-83443765D01*
X121142671Y-83452030D01*
X121164849Y-83462520D01*
X121185893Y-83475133D01*
X121205598Y-83489747D01*
X121223777Y-83506223D01*
X121240253Y-83524402D01*
X121254867Y-83544107D01*
X121267480Y-83565151D01*
X121277970Y-83587329D01*
X121286235Y-83610429D01*
X121292196Y-83634227D01*
X121295796Y-83658496D01*
X121297000Y-83683000D01*
X121297000Y-84683000D01*
X121295796Y-84707504D01*
X121292196Y-84731773D01*
X121286235Y-84755571D01*
X121277970Y-84778671D01*
X121267480Y-84800849D01*
X121254867Y-84821893D01*
X121240253Y-84841598D01*
X121223777Y-84859777D01*
X121205598Y-84876253D01*
X121185893Y-84890867D01*
X121164849Y-84903480D01*
X121142671Y-84913970D01*
X121119571Y-84922235D01*
X121095773Y-84928196D01*
X121071504Y-84931796D01*
X121047000Y-84933000D01*
X119527000Y-84933000D01*
X119502496Y-84931796D01*
X119478227Y-84928196D01*
X119454429Y-84922235D01*
X119431329Y-84913970D01*
X119409151Y-84903480D01*
X119388107Y-84890867D01*
X119368402Y-84876253D01*
X119350223Y-84859777D01*
X119333747Y-84841598D01*
X119319133Y-84821893D01*
X119306520Y-84800849D01*
X119296030Y-84778671D01*
X119287765Y-84755571D01*
X119281804Y-84731773D01*
X119278204Y-84707504D01*
X119277000Y-84683000D01*
X119277000Y-83683000D01*
X119278204Y-83658496D01*
X119281804Y-83634227D01*
X119287765Y-83610429D01*
X119296030Y-83587329D01*
X119306520Y-83565151D01*
X119319133Y-83544107D01*
X119333747Y-83524402D01*
X119350223Y-83506223D01*
X119368402Y-83489747D01*
X119388107Y-83475133D01*
X119409151Y-83462520D01*
X119431329Y-83452030D01*
X119454429Y-83443765D01*
X119478227Y-83437804D01*
X119502496Y-83434204D01*
X119527000Y-83433000D01*
X121047000Y-83433000D01*
X121071504Y-83434204D01*
G37*
G04 #@! TD.AperFunction*
D17*
X153688000Y-83584000D03*
X143020000Y-83584000D03*
X130447000Y-83965000D03*
X142004000Y-75710000D03*
X142639000Y-79139000D03*
X136289000Y-66312000D03*
X114064000Y-75202000D03*
X114064000Y-90188000D03*
X138702000Y-51326000D03*
D18*
X140130000Y-74450000D02*
X152301000Y-74450000D01*
X152301000Y-74450000D02*
X153688000Y-75837000D01*
X153688000Y-75837000D02*
X153688000Y-83584000D01*
D19*
X140130000Y-102390000D02*
X133368000Y-95628000D01*
X133368000Y-60422298D02*
X133368000Y-66312000D01*
X118946799Y-49647499D02*
X122593201Y-49647499D01*
X133368000Y-66312000D02*
X133368000Y-66058000D01*
X133368000Y-95628000D02*
X133368000Y-66312000D01*
X118422370Y-53340000D02*
X117112000Y-52029630D01*
X119500000Y-53340000D02*
X118422370Y-53340000D01*
X117112000Y-52029630D02*
X117112000Y-50564000D01*
X118028501Y-49647499D02*
X122593201Y-49647499D01*
X117112000Y-50564000D02*
X118028501Y-49647499D01*
X122593201Y-49647499D02*
X123683457Y-49647499D01*
X133368000Y-59332042D02*
X133368000Y-60422298D01*
X123683457Y-49647499D02*
X133368000Y-59332042D01*
X119500000Y-55880000D02*
X122192000Y-58572000D01*
X122192000Y-99692000D02*
X124890000Y-102390000D01*
X122192000Y-58572000D02*
X122192000Y-99692000D01*
X123699499Y-98659499D02*
X124090001Y-99050001D01*
X124090001Y-99050001D02*
X124890000Y-99850000D01*
X122773010Y-97733010D02*
X124890000Y-99850000D01*
X122773010Y-58331338D02*
X122773010Y-97733010D01*
X120887499Y-54492501D02*
X120887499Y-56445827D01*
X120887499Y-56445827D02*
X122773010Y-58331338D01*
X122040000Y-53340000D02*
X120887499Y-54492501D01*
X127526000Y-89594000D02*
X124890000Y-92230000D01*
X127526000Y-56286000D02*
X127526000Y-89594000D01*
X122040000Y-50800000D02*
X127526000Y-56286000D01*
X126944990Y-87635010D02*
X124890000Y-89690000D01*
X126944990Y-56539288D02*
X126944990Y-87635010D01*
X122358203Y-51952501D02*
X126944990Y-56539288D01*
X120652501Y-51952501D02*
X122358203Y-51952501D01*
X119500000Y-50800000D02*
X120652501Y-51952501D01*
X123117630Y-48260000D02*
X122040000Y-48260000D01*
X133949010Y-59091380D02*
X133949010Y-60181636D01*
X123117630Y-48260000D02*
X133949010Y-59091380D01*
X140130000Y-99850000D02*
X138411672Y-99850000D01*
X138411672Y-99850000D02*
X133949010Y-95387338D01*
X133949010Y-95387338D02*
X133949010Y-59091380D01*
D20*
G36*
X154594000Y-109594000D02*
G01*
X110406000Y-109594000D01*
X110406000Y-108380928D01*
X111798677Y-108380928D01*
X112104859Y-108824503D01*
X112692306Y-109139954D01*
X113330008Y-109334740D01*
X113993457Y-109401372D01*
X114657158Y-109337292D01*
X115295605Y-109144962D01*
X115884262Y-108831772D01*
X115895141Y-108824503D01*
X116201323Y-108380928D01*
X148798677Y-108380928D01*
X149104859Y-108824503D01*
X149692306Y-109139954D01*
X150330008Y-109334740D01*
X150993457Y-109401372D01*
X151657158Y-109337292D01*
X152295605Y-109144962D01*
X152884262Y-108831772D01*
X152895141Y-108824503D01*
X153201323Y-108380928D01*
X151000000Y-106179605D01*
X148798677Y-108380928D01*
X116201323Y-108380928D01*
X114000000Y-106179605D01*
X111798677Y-108380928D01*
X110406000Y-108380928D01*
X110406000Y-105993457D01*
X110598628Y-105993457D01*
X110662708Y-106657158D01*
X110855038Y-107295605D01*
X111168228Y-107884262D01*
X111175497Y-107895141D01*
X111619072Y-108201323D01*
X113820395Y-106000000D01*
X114179605Y-106000000D01*
X116380928Y-108201323D01*
X116824503Y-107895141D01*
X117139954Y-107307694D01*
X117334740Y-106669992D01*
X117401372Y-106006543D01*
X117400109Y-105993457D01*
X147598628Y-105993457D01*
X147662708Y-106657158D01*
X147855038Y-107295605D01*
X148168228Y-107884262D01*
X148175497Y-107895141D01*
X148619072Y-108201323D01*
X150820395Y-106000000D01*
X151179605Y-106000000D01*
X153380928Y-108201323D01*
X153824503Y-107895141D01*
X154139954Y-107307694D01*
X154334740Y-106669992D01*
X154401372Y-106006543D01*
X154337292Y-105342842D01*
X154144962Y-104704395D01*
X153831772Y-104115738D01*
X153824503Y-104104859D01*
X153380928Y-103798677D01*
X151179605Y-106000000D01*
X150820395Y-106000000D01*
X148619072Y-103798677D01*
X148175497Y-104104859D01*
X147860046Y-104692306D01*
X147665260Y-105330008D01*
X147598628Y-105993457D01*
X117400109Y-105993457D01*
X117337292Y-105342842D01*
X117144962Y-104704395D01*
X116831772Y-104115738D01*
X116824503Y-104104859D01*
X116380928Y-103798677D01*
X114179605Y-106000000D01*
X113820395Y-106000000D01*
X111619072Y-103798677D01*
X111175497Y-104104859D01*
X110860046Y-104692306D01*
X110665260Y-105330008D01*
X110598628Y-105993457D01*
X110406000Y-105993457D01*
X110406000Y-103619072D01*
X111798677Y-103619072D01*
X114000000Y-105820395D01*
X116201323Y-103619072D01*
X148798677Y-103619072D01*
X151000000Y-105820395D01*
X153201323Y-103619072D01*
X152895141Y-103175497D01*
X152307694Y-102860046D01*
X151669992Y-102665260D01*
X151006543Y-102598628D01*
X150342842Y-102662708D01*
X149704395Y-102855038D01*
X149115738Y-103168228D01*
X149104859Y-103175497D01*
X148798677Y-103619072D01*
X116201323Y-103619072D01*
X115895141Y-103175497D01*
X115307694Y-102860046D01*
X114669992Y-102665260D01*
X114006543Y-102598628D01*
X113342842Y-102662708D01*
X112704395Y-102855038D01*
X112115738Y-103168228D01*
X112104859Y-103175497D01*
X111798677Y-103619072D01*
X110406000Y-103619072D01*
X110406000Y-99526000D01*
X118638928Y-99526000D01*
X118651188Y-99650482D01*
X118687498Y-99770180D01*
X118746463Y-99880494D01*
X118825815Y-99977185D01*
X118922506Y-100056537D01*
X119032820Y-100115502D01*
X119152518Y-100151812D01*
X119277000Y-100164072D01*
X120001250Y-100161000D01*
X120160000Y-100002250D01*
X120160000Y-98903000D01*
X118800750Y-98903000D01*
X118642000Y-99061750D01*
X118638928Y-99526000D01*
X110406000Y-99526000D01*
X110406000Y-97090738D01*
X114086000Y-97090738D01*
X114086000Y-97461262D01*
X114158286Y-97824667D01*
X114300080Y-98166987D01*
X114505932Y-98475067D01*
X114767933Y-98737068D01*
X115076013Y-98942920D01*
X115418333Y-99084714D01*
X115781738Y-99157000D01*
X116152262Y-99157000D01*
X116515667Y-99084714D01*
X116857987Y-98942920D01*
X117166067Y-98737068D01*
X117428068Y-98475067D01*
X117633920Y-98166987D01*
X117692318Y-98026000D01*
X118638928Y-98026000D01*
X118642000Y-98490250D01*
X118800750Y-98649000D01*
X120160000Y-98649000D01*
X120160000Y-97549750D01*
X120001250Y-97391000D01*
X119277000Y-97387928D01*
X119152518Y-97400188D01*
X119032820Y-97436498D01*
X118922506Y-97495463D01*
X118825815Y-97574815D01*
X118746463Y-97671506D01*
X118687498Y-97781820D01*
X118651188Y-97901518D01*
X118638928Y-98026000D01*
X117692318Y-98026000D01*
X117775714Y-97824667D01*
X117848000Y-97461262D01*
X117848000Y-97090738D01*
X117775714Y-96727333D01*
X117633920Y-96385013D01*
X117428068Y-96076933D01*
X117166067Y-95814932D01*
X116857987Y-95609080D01*
X116515667Y-95467286D01*
X116152262Y-95395000D01*
X115781738Y-95395000D01*
X115418333Y-95467286D01*
X115076013Y-95609080D01*
X114767933Y-95814932D01*
X114505932Y-96076933D01*
X114300080Y-96385013D01*
X114158286Y-96727333D01*
X114086000Y-97090738D01*
X110406000Y-97090738D01*
X110406000Y-82497738D01*
X114086000Y-82497738D01*
X114086000Y-82868262D01*
X114158286Y-83231667D01*
X114300080Y-83573987D01*
X114505932Y-83882067D01*
X114767933Y-84144068D01*
X115076013Y-84349920D01*
X115418333Y-84491714D01*
X115781738Y-84564000D01*
X116152262Y-84564000D01*
X116515667Y-84491714D01*
X116857987Y-84349920D01*
X117166067Y-84144068D01*
X117428068Y-83882067D01*
X117633920Y-83573987D01*
X117775714Y-83231667D01*
X117848000Y-82868262D01*
X117848000Y-82497738D01*
X117775714Y-82134333D01*
X117633920Y-81792013D01*
X117428068Y-81483933D01*
X117166067Y-81221932D01*
X116857987Y-81016080D01*
X116515667Y-80874286D01*
X116152262Y-80802000D01*
X115781738Y-80802000D01*
X115418333Y-80874286D01*
X115076013Y-81016080D01*
X114767933Y-81221932D01*
X114505932Y-81483933D01*
X114300080Y-81792013D01*
X114158286Y-82134333D01*
X114086000Y-82497738D01*
X110406000Y-82497738D01*
X110406000Y-70340000D01*
X118638928Y-70340000D01*
X118651188Y-70464482D01*
X118687498Y-70584180D01*
X118746463Y-70694494D01*
X118825815Y-70791185D01*
X118922506Y-70870537D01*
X119032820Y-70929502D01*
X119152518Y-70965812D01*
X119277000Y-70978072D01*
X120001250Y-70975000D01*
X120160000Y-70816250D01*
X120160000Y-69717000D01*
X118800750Y-69717000D01*
X118642000Y-69875750D01*
X118638928Y-70340000D01*
X110406000Y-70340000D01*
X110406000Y-67904738D01*
X114086000Y-67904738D01*
X114086000Y-68275262D01*
X114158286Y-68638667D01*
X114300080Y-68980987D01*
X114505932Y-69289067D01*
X114767933Y-69551068D01*
X115076013Y-69756920D01*
X115418333Y-69898714D01*
X115781738Y-69971000D01*
X116152262Y-69971000D01*
X116515667Y-69898714D01*
X116857987Y-69756920D01*
X117166067Y-69551068D01*
X117428068Y-69289067D01*
X117633920Y-68980987D01*
X117692318Y-68840000D01*
X118638928Y-68840000D01*
X118642000Y-69304250D01*
X118800750Y-69463000D01*
X120160000Y-69463000D01*
X120160000Y-68363750D01*
X120001250Y-68205000D01*
X119277000Y-68201928D01*
X119152518Y-68214188D01*
X119032820Y-68250498D01*
X118922506Y-68309463D01*
X118825815Y-68388815D01*
X118746463Y-68485506D01*
X118687498Y-68595820D01*
X118651188Y-68715518D01*
X118638928Y-68840000D01*
X117692318Y-68840000D01*
X117775714Y-68638667D01*
X117848000Y-68275262D01*
X117848000Y-67904738D01*
X117775714Y-67541333D01*
X117633920Y-67199013D01*
X117428068Y-66890933D01*
X117166067Y-66628932D01*
X116857987Y-66423080D01*
X116515667Y-66281286D01*
X116152262Y-66209000D01*
X115781738Y-66209000D01*
X115418333Y-66281286D01*
X115076013Y-66423080D01*
X114767933Y-66628932D01*
X114505932Y-66890933D01*
X114300080Y-67199013D01*
X114158286Y-67541333D01*
X114086000Y-67904738D01*
X110406000Y-67904738D01*
X110406000Y-51380928D01*
X111798677Y-51380928D01*
X112104859Y-51824503D01*
X112692306Y-52139954D01*
X113330008Y-52334740D01*
X113993457Y-52401372D01*
X114657158Y-52337292D01*
X115295605Y-52144962D01*
X115884262Y-51831772D01*
X115895141Y-51824503D01*
X116201323Y-51380928D01*
X114000000Y-49179605D01*
X111798677Y-51380928D01*
X110406000Y-51380928D01*
X110406000Y-48993457D01*
X110598628Y-48993457D01*
X110662708Y-49657158D01*
X110855038Y-50295605D01*
X111168228Y-50884262D01*
X111175497Y-50895141D01*
X111619072Y-51201323D01*
X113820395Y-49000000D01*
X114179605Y-49000000D01*
X116380928Y-51201323D01*
X116540501Y-51091176D01*
X116540500Y-52001555D01*
X116537735Y-52029630D01*
X116540500Y-52057703D01*
X116548769Y-52141663D01*
X116581448Y-52249391D01*
X116634516Y-52348674D01*
X116705933Y-52435697D01*
X116727748Y-52453600D01*
X117998404Y-53724257D01*
X118016303Y-53746067D01*
X118103325Y-53817484D01*
X118202608Y-53870552D01*
X118310336Y-53903231D01*
X118422369Y-53914265D01*
X118450443Y-53911500D01*
X118507190Y-53911500D01*
X118612174Y-54068620D01*
X118771380Y-54227826D01*
X118958587Y-54352913D01*
X119166599Y-54439075D01*
X119387424Y-54483000D01*
X119612576Y-54483000D01*
X119833401Y-54439075D01*
X120041413Y-54352913D01*
X120228620Y-54227826D01*
X120387826Y-54068620D01*
X120512913Y-53881413D01*
X120599075Y-53673401D01*
X120643000Y-53452576D01*
X120643000Y-53227424D01*
X120599075Y-53006599D01*
X120512913Y-52798587D01*
X120387826Y-52611380D01*
X120228620Y-52452174D01*
X120041413Y-52327087D01*
X119833401Y-52240925D01*
X119612576Y-52197000D01*
X119387424Y-52197000D01*
X119166599Y-52240925D01*
X118958587Y-52327087D01*
X118771380Y-52452174D01*
X118612174Y-52611380D01*
X118568034Y-52677441D01*
X117683500Y-51792908D01*
X117683500Y-50800722D01*
X118265224Y-50218999D01*
X118513539Y-50218999D01*
X118487087Y-50258587D01*
X118400925Y-50466599D01*
X118357000Y-50687424D01*
X118357000Y-50912576D01*
X118400925Y-51133401D01*
X118487087Y-51341413D01*
X118612174Y-51528620D01*
X118771380Y-51687826D01*
X118958587Y-51812913D01*
X119166599Y-51899075D01*
X119387424Y-51943000D01*
X119612576Y-51943000D01*
X119797912Y-51906134D01*
X120228535Y-52336758D01*
X120246434Y-52358568D01*
X120333456Y-52429985D01*
X120432739Y-52483053D01*
X120540467Y-52515732D01*
X120624427Y-52524001D01*
X120652501Y-52526766D01*
X120680575Y-52524001D01*
X121239553Y-52524001D01*
X121152174Y-52611380D01*
X121027087Y-52798587D01*
X120940925Y-53006599D01*
X120897000Y-53227424D01*
X120897000Y-53452576D01*
X120933866Y-53637912D01*
X120503247Y-54068531D01*
X120481432Y-54086434D01*
X120410016Y-54173456D01*
X120410015Y-54173457D01*
X120356947Y-54272740D01*
X120324268Y-54380468D01*
X120313234Y-54492501D01*
X120315999Y-54520576D01*
X120315999Y-55079553D01*
X120228620Y-54992174D01*
X120041413Y-54867087D01*
X119833401Y-54780925D01*
X119612576Y-54737000D01*
X119387424Y-54737000D01*
X119166599Y-54780925D01*
X118958587Y-54867087D01*
X118771380Y-54992174D01*
X118612174Y-55151380D01*
X118487087Y-55338587D01*
X118400925Y-55546599D01*
X118357000Y-55767424D01*
X118357000Y-55992576D01*
X118400925Y-56213401D01*
X118487087Y-56421413D01*
X118612174Y-56608620D01*
X118771380Y-56767826D01*
X118958587Y-56892913D01*
X119166599Y-56979075D01*
X119387424Y-57023000D01*
X119612576Y-57023000D01*
X119797912Y-56986134D01*
X121620500Y-58808723D01*
X121620500Y-66232682D01*
X121596963Y-66155091D01*
X121491942Y-65958610D01*
X121350607Y-65786393D01*
X121178390Y-65645058D01*
X120981909Y-65540037D01*
X120768715Y-65475365D01*
X120602558Y-65459000D01*
X119971442Y-65459000D01*
X119805285Y-65475365D01*
X119592091Y-65540037D01*
X119395610Y-65645058D01*
X119223393Y-65786393D01*
X119082058Y-65958610D01*
X118977037Y-66155091D01*
X118912365Y-66368285D01*
X118890528Y-66590000D01*
X118912365Y-66811715D01*
X118977037Y-67024909D01*
X119082058Y-67221390D01*
X119223393Y-67393607D01*
X119395610Y-67534942D01*
X119592091Y-67639963D01*
X119805285Y-67704635D01*
X119971442Y-67721000D01*
X120602558Y-67721000D01*
X120768715Y-67704635D01*
X120981909Y-67639963D01*
X121178390Y-67534942D01*
X121350607Y-67393607D01*
X121491942Y-67221390D01*
X121596963Y-67024909D01*
X121620500Y-66947318D01*
X121620500Y-68292896D01*
X121541180Y-68250498D01*
X121421482Y-68214188D01*
X121297000Y-68201928D01*
X120572750Y-68205000D01*
X120414000Y-68363750D01*
X120414000Y-69463000D01*
X120434000Y-69463000D01*
X120434000Y-69717000D01*
X120414000Y-69717000D01*
X120414000Y-70816250D01*
X120572750Y-70975000D01*
X121297000Y-70978072D01*
X121421482Y-70965812D01*
X121541180Y-70929502D01*
X121620500Y-70887104D01*
X121620501Y-80825684D01*
X121596963Y-80748091D01*
X121491942Y-80551610D01*
X121350607Y-80379393D01*
X121178390Y-80238058D01*
X120981909Y-80133037D01*
X120768715Y-80068365D01*
X120602558Y-80052000D01*
X119971442Y-80052000D01*
X119805285Y-80068365D01*
X119592091Y-80133037D01*
X119395610Y-80238058D01*
X119223393Y-80379393D01*
X119082058Y-80551610D01*
X118977037Y-80748091D01*
X118912365Y-80961285D01*
X118890528Y-81183000D01*
X118912365Y-81404715D01*
X118977037Y-81617909D01*
X119082058Y-81814390D01*
X119223393Y-81986607D01*
X119395610Y-82127942D01*
X119592091Y-82232963D01*
X119805285Y-82297635D01*
X119971442Y-82314000D01*
X120602558Y-82314000D01*
X120768715Y-82297635D01*
X120981909Y-82232963D01*
X121178390Y-82127942D01*
X121350607Y-81986607D01*
X121491942Y-81814390D01*
X121596963Y-81617909D01*
X121620501Y-81540316D01*
X121620501Y-83419923D01*
X121573190Y-83331411D01*
X121494488Y-83235512D01*
X121398589Y-83156810D01*
X121289179Y-83098329D01*
X121170462Y-83062317D01*
X121047000Y-83050157D01*
X119527000Y-83050157D01*
X119403538Y-83062317D01*
X119284821Y-83098329D01*
X119175411Y-83156810D01*
X119079512Y-83235512D01*
X119000810Y-83331411D01*
X118942329Y-83440821D01*
X118906317Y-83559538D01*
X118894157Y-83683000D01*
X118894157Y-84683000D01*
X118906317Y-84806462D01*
X118942329Y-84925179D01*
X119000810Y-85034589D01*
X119079512Y-85130488D01*
X119175411Y-85209190D01*
X119284821Y-85267671D01*
X119403538Y-85303683D01*
X119527000Y-85315843D01*
X121047000Y-85315843D01*
X121170462Y-85303683D01*
X121289179Y-85267671D01*
X121398589Y-85209190D01*
X121494488Y-85130488D01*
X121573190Y-85034589D01*
X121620501Y-84946077D01*
X121620501Y-95418685D01*
X121596963Y-95341091D01*
X121491942Y-95144610D01*
X121350607Y-94972393D01*
X121178390Y-94831058D01*
X120981909Y-94726037D01*
X120768715Y-94661365D01*
X120602558Y-94645000D01*
X119971442Y-94645000D01*
X119805285Y-94661365D01*
X119592091Y-94726037D01*
X119395610Y-94831058D01*
X119223393Y-94972393D01*
X119082058Y-95144610D01*
X118977037Y-95341091D01*
X118912365Y-95554285D01*
X118890528Y-95776000D01*
X118912365Y-95997715D01*
X118977037Y-96210909D01*
X119082058Y-96407390D01*
X119223393Y-96579607D01*
X119395610Y-96720942D01*
X119592091Y-96825963D01*
X119805285Y-96890635D01*
X119971442Y-96907000D01*
X120602558Y-96907000D01*
X120768715Y-96890635D01*
X120981909Y-96825963D01*
X121178390Y-96720942D01*
X121350607Y-96579607D01*
X121491942Y-96407390D01*
X121596963Y-96210909D01*
X121620501Y-96133315D01*
X121620501Y-97478897D01*
X121541180Y-97436498D01*
X121421482Y-97400188D01*
X121297000Y-97387928D01*
X120572750Y-97391000D01*
X120414000Y-97549750D01*
X120414000Y-98649000D01*
X120434000Y-98649000D01*
X120434000Y-98903000D01*
X120414000Y-98903000D01*
X120414000Y-100002250D01*
X120572750Y-100161000D01*
X121297000Y-100164072D01*
X121421482Y-100151812D01*
X121541180Y-100115502D01*
X121651494Y-100056537D01*
X121712202Y-100006715D01*
X121714516Y-100011044D01*
X121714517Y-100011045D01*
X121785934Y-100098067D01*
X121807744Y-100115966D01*
X123751550Y-102059773D01*
X123709000Y-102273682D01*
X123709000Y-102506318D01*
X123754386Y-102734485D01*
X123843412Y-102949413D01*
X123972658Y-103142843D01*
X124137157Y-103307342D01*
X124330587Y-103436588D01*
X124545515Y-103525614D01*
X124773682Y-103571000D01*
X125006318Y-103571000D01*
X125234485Y-103525614D01*
X125449413Y-103436588D01*
X125642843Y-103307342D01*
X125807342Y-103142843D01*
X125936588Y-102949413D01*
X126025614Y-102734485D01*
X126071000Y-102506318D01*
X126071000Y-102273682D01*
X126025614Y-102045515D01*
X125936588Y-101830587D01*
X125807342Y-101637157D01*
X125642843Y-101472658D01*
X125449413Y-101343412D01*
X125234485Y-101254386D01*
X125006318Y-101209000D01*
X124773682Y-101209000D01*
X124559773Y-101251550D01*
X122763500Y-99455278D01*
X122763500Y-98531722D01*
X123751550Y-99519773D01*
X123709000Y-99733682D01*
X123709000Y-99966318D01*
X123754386Y-100194485D01*
X123843412Y-100409413D01*
X123972658Y-100602843D01*
X124137157Y-100767342D01*
X124330587Y-100896588D01*
X124545515Y-100985614D01*
X124773682Y-101031000D01*
X125006318Y-101031000D01*
X125234485Y-100985614D01*
X125449413Y-100896588D01*
X125642843Y-100767342D01*
X125807342Y-100602843D01*
X125936588Y-100409413D01*
X126025614Y-100194485D01*
X126071000Y-99966318D01*
X126071000Y-99733682D01*
X126025614Y-99505515D01*
X125936588Y-99290587D01*
X125807342Y-99097157D01*
X125642843Y-98932658D01*
X125449413Y-98803412D01*
X125234485Y-98714386D01*
X125006318Y-98669000D01*
X124773682Y-98669000D01*
X124559773Y-98711550D01*
X123344510Y-97496288D01*
X123344510Y-97193682D01*
X123709000Y-97193682D01*
X123709000Y-97426318D01*
X123754386Y-97654485D01*
X123843412Y-97869413D01*
X123972658Y-98062843D01*
X124137157Y-98227342D01*
X124330587Y-98356588D01*
X124545515Y-98445614D01*
X124773682Y-98491000D01*
X125006318Y-98491000D01*
X125234485Y-98445614D01*
X125449413Y-98356588D01*
X125642843Y-98227342D01*
X125807342Y-98062843D01*
X125936588Y-97869413D01*
X126025614Y-97654485D01*
X126071000Y-97426318D01*
X126071000Y-97193682D01*
X126025614Y-96965515D01*
X125936588Y-96750587D01*
X125807342Y-96557157D01*
X125642843Y-96392658D01*
X125449413Y-96263412D01*
X125234485Y-96174386D01*
X125006318Y-96129000D01*
X124773682Y-96129000D01*
X124545515Y-96174386D01*
X124330587Y-96263412D01*
X124137157Y-96392658D01*
X123972658Y-96557157D01*
X123843412Y-96750587D01*
X123754386Y-96965515D01*
X123709000Y-97193682D01*
X123344510Y-97193682D01*
X123344510Y-94653682D01*
X123709000Y-94653682D01*
X123709000Y-94886318D01*
X123754386Y-95114485D01*
X123843412Y-95329413D01*
X123972658Y-95522843D01*
X124137157Y-95687342D01*
X124330587Y-95816588D01*
X124545515Y-95905614D01*
X124773682Y-95951000D01*
X125006318Y-95951000D01*
X125234485Y-95905614D01*
X125449413Y-95816588D01*
X125642843Y-95687342D01*
X125807342Y-95522843D01*
X125936588Y-95329413D01*
X126025614Y-95114485D01*
X126071000Y-94886318D01*
X126071000Y-94653682D01*
X126025614Y-94425515D01*
X125936588Y-94210587D01*
X125807342Y-94017157D01*
X125642843Y-93852658D01*
X125449413Y-93723412D01*
X125234485Y-93634386D01*
X125006318Y-93589000D01*
X124773682Y-93589000D01*
X124545515Y-93634386D01*
X124330587Y-93723412D01*
X124137157Y-93852658D01*
X123972658Y-94017157D01*
X123843412Y-94210587D01*
X123754386Y-94425515D01*
X123709000Y-94653682D01*
X123344510Y-94653682D01*
X123344510Y-87033682D01*
X123709000Y-87033682D01*
X123709000Y-87266318D01*
X123754386Y-87494485D01*
X123843412Y-87709413D01*
X123972658Y-87902843D01*
X124137157Y-88067342D01*
X124330587Y-88196588D01*
X124545515Y-88285614D01*
X124773682Y-88331000D01*
X125006318Y-88331000D01*
X125234485Y-88285614D01*
X125449413Y-88196588D01*
X125642843Y-88067342D01*
X125807342Y-87902843D01*
X125936588Y-87709413D01*
X126025614Y-87494485D01*
X126071000Y-87266318D01*
X126071000Y-87033682D01*
X126025614Y-86805515D01*
X125936588Y-86590587D01*
X125807342Y-86397157D01*
X125642843Y-86232658D01*
X125449413Y-86103412D01*
X125234485Y-86014386D01*
X125006318Y-85969000D01*
X124773682Y-85969000D01*
X124545515Y-86014386D01*
X124330587Y-86103412D01*
X124137157Y-86232658D01*
X123972658Y-86397157D01*
X123843412Y-86590587D01*
X123754386Y-86805515D01*
X123709000Y-87033682D01*
X123344510Y-87033682D01*
X123344510Y-84493682D01*
X123709000Y-84493682D01*
X123709000Y-84726318D01*
X123754386Y-84954485D01*
X123843412Y-85169413D01*
X123972658Y-85362843D01*
X124137157Y-85527342D01*
X124330587Y-85656588D01*
X124545515Y-85745614D01*
X124773682Y-85791000D01*
X125006318Y-85791000D01*
X125234485Y-85745614D01*
X125449413Y-85656588D01*
X125642843Y-85527342D01*
X125807342Y-85362843D01*
X125936588Y-85169413D01*
X126025614Y-84954485D01*
X126071000Y-84726318D01*
X126071000Y-84493682D01*
X126025614Y-84265515D01*
X125936588Y-84050587D01*
X125807342Y-83857157D01*
X125642843Y-83692658D01*
X125449413Y-83563412D01*
X125234485Y-83474386D01*
X125006318Y-83429000D01*
X124773682Y-83429000D01*
X124545515Y-83474386D01*
X124330587Y-83563412D01*
X124137157Y-83692658D01*
X123972658Y-83857157D01*
X123843412Y-84050587D01*
X123754386Y-84265515D01*
X123709000Y-84493682D01*
X123344510Y-84493682D01*
X123344510Y-81953682D01*
X123709000Y-81953682D01*
X123709000Y-82186318D01*
X123754386Y-82414485D01*
X123843412Y-82629413D01*
X123972658Y-82822843D01*
X124137157Y-82987342D01*
X124330587Y-83116588D01*
X124545515Y-83205614D01*
X124773682Y-83251000D01*
X125006318Y-83251000D01*
X125234485Y-83205614D01*
X125449413Y-83116588D01*
X125642843Y-82987342D01*
X125807342Y-82822843D01*
X125936588Y-82629413D01*
X126025614Y-82414485D01*
X126071000Y-82186318D01*
X126071000Y-81953682D01*
X126025614Y-81725515D01*
X125936588Y-81510587D01*
X125807342Y-81317157D01*
X125642843Y-81152658D01*
X125449413Y-81023412D01*
X125234485Y-80934386D01*
X125006318Y-80889000D01*
X124773682Y-80889000D01*
X124545515Y-80934386D01*
X124330587Y-81023412D01*
X124137157Y-81152658D01*
X123972658Y-81317157D01*
X123843412Y-81510587D01*
X123754386Y-81725515D01*
X123709000Y-81953682D01*
X123344510Y-81953682D01*
X123344510Y-79413682D01*
X123709000Y-79413682D01*
X123709000Y-79646318D01*
X123754386Y-79874485D01*
X123843412Y-80089413D01*
X123972658Y-80282843D01*
X124137157Y-80447342D01*
X124330587Y-80576588D01*
X124545515Y-80665614D01*
X124773682Y-80711000D01*
X125006318Y-80711000D01*
X125234485Y-80665614D01*
X125449413Y-80576588D01*
X125642843Y-80447342D01*
X125807342Y-80282843D01*
X125936588Y-80089413D01*
X126025614Y-79874485D01*
X126071000Y-79646318D01*
X126071000Y-79413682D01*
X126025614Y-79185515D01*
X125936588Y-78970587D01*
X125807342Y-78777157D01*
X125642843Y-78612658D01*
X125449413Y-78483412D01*
X125234485Y-78394386D01*
X125006318Y-78349000D01*
X124773682Y-78349000D01*
X124545515Y-78394386D01*
X124330587Y-78483412D01*
X124137157Y-78612658D01*
X123972658Y-78777157D01*
X123843412Y-78970587D01*
X123754386Y-79185515D01*
X123709000Y-79413682D01*
X123344510Y-79413682D01*
X123344510Y-74799039D01*
X123498096Y-74799039D01*
X123538754Y-74933087D01*
X123658963Y-75187420D01*
X123826481Y-75413414D01*
X124034869Y-75602385D01*
X124276119Y-75747070D01*
X124540960Y-75841909D01*
X124762998Y-75720625D01*
X124762998Y-75811125D01*
X124545515Y-75854386D01*
X124330587Y-75943412D01*
X124137157Y-76072658D01*
X123972658Y-76237157D01*
X123843412Y-76430587D01*
X123754386Y-76645515D01*
X123709000Y-76873682D01*
X123709000Y-77106318D01*
X123754386Y-77334485D01*
X123843412Y-77549413D01*
X123972658Y-77742843D01*
X124137157Y-77907342D01*
X124330587Y-78036588D01*
X124545515Y-78125614D01*
X124773682Y-78171000D01*
X125006318Y-78171000D01*
X125234485Y-78125614D01*
X125449413Y-78036588D01*
X125642843Y-77907342D01*
X125807342Y-77742843D01*
X125936588Y-77549413D01*
X126025614Y-77334485D01*
X126071000Y-77106318D01*
X126071000Y-76873682D01*
X126025614Y-76645515D01*
X125936588Y-76430587D01*
X125807342Y-76237157D01*
X125642843Y-76072658D01*
X125449413Y-75943412D01*
X125234485Y-75854386D01*
X125017002Y-75811125D01*
X125017002Y-75720625D01*
X125239040Y-75841909D01*
X125503881Y-75747070D01*
X125745131Y-75602385D01*
X125953519Y-75413414D01*
X126121037Y-75187420D01*
X126241246Y-74933087D01*
X126281904Y-74799039D01*
X126159915Y-74577000D01*
X125017000Y-74577000D01*
X125017000Y-74597000D01*
X124763000Y-74597000D01*
X124763000Y-74577000D01*
X123620085Y-74577000D01*
X123498096Y-74799039D01*
X123344510Y-74799039D01*
X123344510Y-74100961D01*
X123498096Y-74100961D01*
X123620085Y-74323000D01*
X124763000Y-74323000D01*
X124763000Y-74303000D01*
X125017000Y-74303000D01*
X125017000Y-74323000D01*
X126159915Y-74323000D01*
X126281904Y-74100961D01*
X126241246Y-73966913D01*
X126121037Y-73712580D01*
X125953519Y-73486586D01*
X125745131Y-73297615D01*
X125503881Y-73152930D01*
X125239040Y-73058091D01*
X125017002Y-73179375D01*
X125017002Y-73088875D01*
X125234485Y-73045614D01*
X125449413Y-72956588D01*
X125642843Y-72827342D01*
X125807342Y-72662843D01*
X125936588Y-72469413D01*
X126025614Y-72254485D01*
X126071000Y-72026318D01*
X126071000Y-71793682D01*
X126025614Y-71565515D01*
X125936588Y-71350587D01*
X125807342Y-71157157D01*
X125642843Y-70992658D01*
X125449413Y-70863412D01*
X125234485Y-70774386D01*
X125006318Y-70729000D01*
X124773682Y-70729000D01*
X124545515Y-70774386D01*
X124330587Y-70863412D01*
X124137157Y-70992658D01*
X123972658Y-71157157D01*
X123843412Y-71350587D01*
X123754386Y-71565515D01*
X123709000Y-71793682D01*
X123709000Y-72026318D01*
X123754386Y-72254485D01*
X123843412Y-72469413D01*
X123972658Y-72662843D01*
X124137157Y-72827342D01*
X124330587Y-72956588D01*
X124545515Y-73045614D01*
X124762998Y-73088875D01*
X124762998Y-73179375D01*
X124540960Y-73058091D01*
X124276119Y-73152930D01*
X124034869Y-73297615D01*
X123826481Y-73486586D01*
X123658963Y-73712580D01*
X123538754Y-73966913D01*
X123498096Y-74100961D01*
X123344510Y-74100961D01*
X123344510Y-69253682D01*
X123709000Y-69253682D01*
X123709000Y-69486318D01*
X123754386Y-69714485D01*
X123843412Y-69929413D01*
X123972658Y-70122843D01*
X124137157Y-70287342D01*
X124330587Y-70416588D01*
X124545515Y-70505614D01*
X124773682Y-70551000D01*
X125006318Y-70551000D01*
X125234485Y-70505614D01*
X125449413Y-70416588D01*
X125642843Y-70287342D01*
X125807342Y-70122843D01*
X125936588Y-69929413D01*
X126025614Y-69714485D01*
X126071000Y-69486318D01*
X126071000Y-69253682D01*
X126025614Y-69025515D01*
X125936588Y-68810587D01*
X125807342Y-68617157D01*
X125642843Y-68452658D01*
X125449413Y-68323412D01*
X125234485Y-68234386D01*
X125006318Y-68189000D01*
X124773682Y-68189000D01*
X124545515Y-68234386D01*
X124330587Y-68323412D01*
X124137157Y-68452658D01*
X123972658Y-68617157D01*
X123843412Y-68810587D01*
X123754386Y-69025515D01*
X123709000Y-69253682D01*
X123344510Y-69253682D01*
X123344510Y-66030000D01*
X123707157Y-66030000D01*
X123707157Y-67630000D01*
X123714513Y-67704689D01*
X123736299Y-67776508D01*
X123771678Y-67842696D01*
X123819289Y-67900711D01*
X123877304Y-67948322D01*
X123943492Y-67983701D01*
X124015311Y-68005487D01*
X124090000Y-68012843D01*
X125690000Y-68012843D01*
X125764689Y-68005487D01*
X125836508Y-67983701D01*
X125902696Y-67948322D01*
X125960711Y-67900711D01*
X126008322Y-67842696D01*
X126043701Y-67776508D01*
X126065487Y-67704689D01*
X126072843Y-67630000D01*
X126072843Y-66030000D01*
X126065487Y-65955311D01*
X126043701Y-65883492D01*
X126008322Y-65817304D01*
X125960711Y-65759289D01*
X125902696Y-65711678D01*
X125836508Y-65676299D01*
X125764689Y-65654513D01*
X125690000Y-65647157D01*
X124090000Y-65647157D01*
X124015311Y-65654513D01*
X123943492Y-65676299D01*
X123877304Y-65711678D01*
X123819289Y-65759289D01*
X123771678Y-65817304D01*
X123736299Y-65883492D01*
X123714513Y-65955311D01*
X123707157Y-66030000D01*
X123344510Y-66030000D01*
X123344510Y-58359409D01*
X123347275Y-58331337D01*
X123339555Y-58252955D01*
X123336241Y-58219304D01*
X123303562Y-58111576D01*
X123250494Y-58012293D01*
X123179077Y-57925271D01*
X123157268Y-57907373D01*
X122252932Y-57003038D01*
X122373401Y-56979075D01*
X122581413Y-56892913D01*
X122768620Y-56767826D01*
X122927826Y-56608620D01*
X123052913Y-56421413D01*
X123139075Y-56213401D01*
X123183000Y-55992576D01*
X123183000Y-55767424D01*
X123139075Y-55546599D01*
X123052913Y-55338587D01*
X122927826Y-55151380D01*
X122768620Y-54992174D01*
X122581413Y-54867087D01*
X122373401Y-54780925D01*
X122152576Y-54737000D01*
X121927424Y-54737000D01*
X121706599Y-54780925D01*
X121498587Y-54867087D01*
X121458999Y-54893539D01*
X121458999Y-54729223D01*
X121742088Y-54446134D01*
X121927424Y-54483000D01*
X122152576Y-54483000D01*
X122373401Y-54439075D01*
X122581413Y-54352913D01*
X122768620Y-54227826D01*
X122927826Y-54068620D01*
X123052913Y-53881413D01*
X123139075Y-53673401D01*
X123160943Y-53563463D01*
X126373490Y-56776011D01*
X126373491Y-87398285D01*
X125220227Y-88551550D01*
X125006318Y-88509000D01*
X124773682Y-88509000D01*
X124545515Y-88554386D01*
X124330587Y-88643412D01*
X124137157Y-88772658D01*
X123972658Y-88937157D01*
X123843412Y-89130587D01*
X123754386Y-89345515D01*
X123709000Y-89573682D01*
X123709000Y-89806318D01*
X123754386Y-90034485D01*
X123843412Y-90249413D01*
X123972658Y-90442843D01*
X124137157Y-90607342D01*
X124330587Y-90736588D01*
X124545515Y-90825614D01*
X124773682Y-90871000D01*
X125006318Y-90871000D01*
X125234485Y-90825614D01*
X125449413Y-90736588D01*
X125642843Y-90607342D01*
X125807342Y-90442843D01*
X125936588Y-90249413D01*
X126025614Y-90034485D01*
X126071000Y-89806318D01*
X126071000Y-89573682D01*
X126028450Y-89359773D01*
X126954501Y-88433723D01*
X126954501Y-89357276D01*
X125220228Y-91091550D01*
X125006318Y-91049000D01*
X124773682Y-91049000D01*
X124545515Y-91094386D01*
X124330587Y-91183412D01*
X124137157Y-91312658D01*
X123972658Y-91477157D01*
X123843412Y-91670587D01*
X123754386Y-91885515D01*
X123709000Y-92113682D01*
X123709000Y-92346318D01*
X123754386Y-92574485D01*
X123843412Y-92789413D01*
X123972658Y-92982843D01*
X124137157Y-93147342D01*
X124330587Y-93276588D01*
X124545515Y-93365614D01*
X124773682Y-93411000D01*
X125006318Y-93411000D01*
X125234485Y-93365614D01*
X125449413Y-93276588D01*
X125642843Y-93147342D01*
X125807342Y-92982843D01*
X125936588Y-92789413D01*
X126025614Y-92574485D01*
X126071000Y-92346318D01*
X126071000Y-92113682D01*
X126028450Y-91899772D01*
X127910257Y-90017966D01*
X127932067Y-90000067D01*
X128003484Y-89913045D01*
X128056552Y-89813762D01*
X128089231Y-89706034D01*
X128097500Y-89622074D01*
X128100265Y-89594000D01*
X128097500Y-89565926D01*
X128097500Y-56314074D01*
X128100265Y-56286000D01*
X128089231Y-56173966D01*
X128056552Y-56066238D01*
X128003484Y-55966955D01*
X127961071Y-55915275D01*
X127932067Y-55879933D01*
X127910258Y-55862035D01*
X123146134Y-51097912D01*
X123183000Y-50912576D01*
X123183000Y-50687424D01*
X123139075Y-50466599D01*
X123052913Y-50258587D01*
X123026461Y-50218999D01*
X123446735Y-50218999D01*
X132796500Y-59568765D01*
X132796501Y-60394215D01*
X132796500Y-60394225D01*
X132796501Y-66029916D01*
X132796500Y-66029926D01*
X132796500Y-66340073D01*
X132796501Y-66340083D01*
X132796500Y-95599926D01*
X132793735Y-95628000D01*
X132796500Y-95656073D01*
X132804769Y-95740033D01*
X132837448Y-95847761D01*
X132890516Y-95947044D01*
X132961933Y-96034067D01*
X132983748Y-96051970D01*
X138991550Y-102059773D01*
X138949000Y-102273682D01*
X138949000Y-102506318D01*
X138994386Y-102734485D01*
X139083412Y-102949413D01*
X139212658Y-103142843D01*
X139377157Y-103307342D01*
X139570587Y-103436588D01*
X139785515Y-103525614D01*
X140013682Y-103571000D01*
X140246318Y-103571000D01*
X140474485Y-103525614D01*
X140689413Y-103436588D01*
X140882843Y-103307342D01*
X141047342Y-103142843D01*
X141176588Y-102949413D01*
X141265614Y-102734485D01*
X141311000Y-102506318D01*
X141311000Y-102273682D01*
X141265614Y-102045515D01*
X141176588Y-101830587D01*
X141047342Y-101637157D01*
X140882843Y-101472658D01*
X140689413Y-101343412D01*
X140474485Y-101254386D01*
X140246318Y-101209000D01*
X140013682Y-101209000D01*
X139799773Y-101251550D01*
X138969723Y-100421500D01*
X139091488Y-100421500D01*
X139212658Y-100602843D01*
X139377157Y-100767342D01*
X139570587Y-100896588D01*
X139785515Y-100985614D01*
X140013682Y-101031000D01*
X140246318Y-101031000D01*
X140474485Y-100985614D01*
X140689413Y-100896588D01*
X140882843Y-100767342D01*
X141047342Y-100602843D01*
X141176588Y-100409413D01*
X141265614Y-100194485D01*
X141311000Y-99966318D01*
X141311000Y-99733682D01*
X141265614Y-99505515D01*
X141176588Y-99290587D01*
X141047342Y-99097157D01*
X140882843Y-98932658D01*
X140689413Y-98803412D01*
X140623235Y-98776000D01*
X143274528Y-98776000D01*
X143296365Y-98997715D01*
X143361037Y-99210909D01*
X143466058Y-99407390D01*
X143607393Y-99579607D01*
X143779610Y-99720942D01*
X143976091Y-99825963D01*
X144189285Y-99890635D01*
X144355442Y-99907000D01*
X144986558Y-99907000D01*
X145152715Y-99890635D01*
X145365909Y-99825963D01*
X145562390Y-99720942D01*
X145734607Y-99579607D01*
X145875942Y-99407390D01*
X145980963Y-99210909D01*
X146045635Y-98997715D01*
X146067472Y-98776000D01*
X146045635Y-98554285D01*
X145980963Y-98341091D01*
X145875942Y-98144610D01*
X145734607Y-97972393D01*
X145562390Y-97831058D01*
X145365909Y-97726037D01*
X145152715Y-97661365D01*
X144986558Y-97645000D01*
X144355442Y-97645000D01*
X144189285Y-97661365D01*
X143976091Y-97726037D01*
X143779610Y-97831058D01*
X143607393Y-97972393D01*
X143466058Y-98144610D01*
X143361037Y-98341091D01*
X143296365Y-98554285D01*
X143274528Y-98776000D01*
X140623235Y-98776000D01*
X140474485Y-98714386D01*
X140246318Y-98669000D01*
X140013682Y-98669000D01*
X139785515Y-98714386D01*
X139570587Y-98803412D01*
X139377157Y-98932658D01*
X139212658Y-99097157D01*
X139091488Y-99278500D01*
X138648395Y-99278500D01*
X136563577Y-97193682D01*
X138949000Y-97193682D01*
X138949000Y-97426318D01*
X138994386Y-97654485D01*
X139083412Y-97869413D01*
X139212658Y-98062843D01*
X139377157Y-98227342D01*
X139570587Y-98356588D01*
X139785515Y-98445614D01*
X140013682Y-98491000D01*
X140246318Y-98491000D01*
X140474485Y-98445614D01*
X140689413Y-98356588D01*
X140882843Y-98227342D01*
X141047342Y-98062843D01*
X141176588Y-97869413D01*
X141265614Y-97654485D01*
X141311000Y-97426318D01*
X141311000Y-97193682D01*
X141265614Y-96965515D01*
X141176588Y-96750587D01*
X141047342Y-96557157D01*
X140882843Y-96392658D01*
X140689413Y-96263412D01*
X140474485Y-96174386D01*
X140246318Y-96129000D01*
X140013682Y-96129000D01*
X139785515Y-96174386D01*
X139570587Y-96263412D01*
X139377157Y-96392658D01*
X139212658Y-96557157D01*
X139083412Y-96750587D01*
X138994386Y-96965515D01*
X138949000Y-97193682D01*
X136563577Y-97193682D01*
X134520510Y-95150616D01*
X134520510Y-94653682D01*
X138949000Y-94653682D01*
X138949000Y-94886318D01*
X138994386Y-95114485D01*
X139083412Y-95329413D01*
X139212658Y-95522843D01*
X139377157Y-95687342D01*
X139570587Y-95816588D01*
X139785515Y-95905614D01*
X140013682Y-95951000D01*
X140246318Y-95951000D01*
X140474485Y-95905614D01*
X140689413Y-95816588D01*
X140750157Y-95776000D01*
X143274528Y-95776000D01*
X143296365Y-95997715D01*
X143361037Y-96210909D01*
X143466058Y-96407390D01*
X143607393Y-96579607D01*
X143779610Y-96720942D01*
X143976091Y-96825963D01*
X144189285Y-96890635D01*
X144355442Y-96907000D01*
X144986558Y-96907000D01*
X145152715Y-96890635D01*
X145365909Y-96825963D01*
X145562390Y-96720942D01*
X145734607Y-96579607D01*
X145875942Y-96407390D01*
X145980963Y-96210909D01*
X146045635Y-95997715D01*
X146067472Y-95776000D01*
X146049226Y-95590738D01*
X147110000Y-95590738D01*
X147110000Y-95961262D01*
X147182286Y-96324667D01*
X147324080Y-96666987D01*
X147529932Y-96975067D01*
X147791933Y-97237068D01*
X148100013Y-97442920D01*
X148442333Y-97584714D01*
X148805738Y-97657000D01*
X149176262Y-97657000D01*
X149539667Y-97584714D01*
X149881987Y-97442920D01*
X150190067Y-97237068D01*
X150452068Y-96975067D01*
X150657920Y-96666987D01*
X150799714Y-96324667D01*
X150872000Y-95961262D01*
X150872000Y-95590738D01*
X150799714Y-95227333D01*
X150657920Y-94885013D01*
X150452068Y-94576933D01*
X150190067Y-94314932D01*
X149881987Y-94109080D01*
X149539667Y-93967286D01*
X149176262Y-93895000D01*
X148805738Y-93895000D01*
X148442333Y-93967286D01*
X148100013Y-94109080D01*
X147791933Y-94314932D01*
X147529932Y-94576933D01*
X147324080Y-94885013D01*
X147182286Y-95227333D01*
X147110000Y-95590738D01*
X146049226Y-95590738D01*
X146045635Y-95554285D01*
X145980963Y-95341091D01*
X145875942Y-95144610D01*
X145734607Y-94972393D01*
X145562390Y-94831058D01*
X145365909Y-94726037D01*
X145152715Y-94661365D01*
X144986558Y-94645000D01*
X144355442Y-94645000D01*
X144189285Y-94661365D01*
X143976091Y-94726037D01*
X143779610Y-94831058D01*
X143607393Y-94972393D01*
X143466058Y-95144610D01*
X143361037Y-95341091D01*
X143296365Y-95554285D01*
X143274528Y-95776000D01*
X140750157Y-95776000D01*
X140882843Y-95687342D01*
X141047342Y-95522843D01*
X141176588Y-95329413D01*
X141265614Y-95114485D01*
X141311000Y-94886318D01*
X141311000Y-94653682D01*
X141265614Y-94425515D01*
X141176588Y-94210587D01*
X141047342Y-94017157D01*
X140882843Y-93852658D01*
X140689413Y-93723412D01*
X140474485Y-93634386D01*
X140246318Y-93589000D01*
X140013682Y-93589000D01*
X139785515Y-93634386D01*
X139570587Y-93723412D01*
X139377157Y-93852658D01*
X139212658Y-94017157D01*
X139083412Y-94210587D01*
X138994386Y-94425515D01*
X138949000Y-94653682D01*
X134520510Y-94653682D01*
X134520510Y-93526000D01*
X143022928Y-93526000D01*
X143035188Y-93650482D01*
X143071498Y-93770180D01*
X143130463Y-93880494D01*
X143209815Y-93977185D01*
X143306506Y-94056537D01*
X143416820Y-94115502D01*
X143536518Y-94151812D01*
X143661000Y-94164072D01*
X144385250Y-94161000D01*
X144544000Y-94002250D01*
X144544000Y-92903000D01*
X144798000Y-92903000D01*
X144798000Y-94002250D01*
X144956750Y-94161000D01*
X145681000Y-94164072D01*
X145805482Y-94151812D01*
X145925180Y-94115502D01*
X146035494Y-94056537D01*
X146132185Y-93977185D01*
X146211537Y-93880494D01*
X146270502Y-93770180D01*
X146306812Y-93650482D01*
X146319072Y-93526000D01*
X146316000Y-93061750D01*
X146157250Y-92903000D01*
X144798000Y-92903000D01*
X144544000Y-92903000D01*
X143184750Y-92903000D01*
X143026000Y-93061750D01*
X143022928Y-93526000D01*
X134520510Y-93526000D01*
X134520510Y-92113682D01*
X138949000Y-92113682D01*
X138949000Y-92346318D01*
X138994386Y-92574485D01*
X139083412Y-92789413D01*
X139212658Y-92982843D01*
X139377157Y-93147342D01*
X139570587Y-93276588D01*
X139785515Y-93365614D01*
X140013682Y-93411000D01*
X140246318Y-93411000D01*
X140474485Y-93365614D01*
X140689413Y-93276588D01*
X140882843Y-93147342D01*
X141047342Y-92982843D01*
X141176588Y-92789413D01*
X141265614Y-92574485D01*
X141311000Y-92346318D01*
X141311000Y-92113682D01*
X141293559Y-92026000D01*
X143022928Y-92026000D01*
X143026000Y-92490250D01*
X143184750Y-92649000D01*
X144544000Y-92649000D01*
X144544000Y-91549750D01*
X144798000Y-91549750D01*
X144798000Y-92649000D01*
X146157250Y-92649000D01*
X146316000Y-92490250D01*
X146319072Y-92026000D01*
X146306812Y-91901518D01*
X146270502Y-91781820D01*
X146211537Y-91671506D01*
X146132185Y-91574815D01*
X146035494Y-91495463D01*
X145925180Y-91436498D01*
X145805482Y-91400188D01*
X145681000Y-91387928D01*
X144956750Y-91391000D01*
X144798000Y-91549750D01*
X144544000Y-91549750D01*
X144385250Y-91391000D01*
X143661000Y-91387928D01*
X143536518Y-91400188D01*
X143416820Y-91436498D01*
X143306506Y-91495463D01*
X143209815Y-91574815D01*
X143130463Y-91671506D01*
X143071498Y-91781820D01*
X143035188Y-91901518D01*
X143022928Y-92026000D01*
X141293559Y-92026000D01*
X141265614Y-91885515D01*
X141176588Y-91670587D01*
X141047342Y-91477157D01*
X140882843Y-91312658D01*
X140689413Y-91183412D01*
X140474485Y-91094386D01*
X140246318Y-91049000D01*
X140013682Y-91049000D01*
X139785515Y-91094386D01*
X139570587Y-91183412D01*
X139377157Y-91312658D01*
X139212658Y-91477157D01*
X139083412Y-91670587D01*
X138994386Y-91885515D01*
X138949000Y-92113682D01*
X134520510Y-92113682D01*
X134520510Y-89573682D01*
X138949000Y-89573682D01*
X138949000Y-89806318D01*
X138994386Y-90034485D01*
X139083412Y-90249413D01*
X139212658Y-90442843D01*
X139377157Y-90607342D01*
X139570587Y-90736588D01*
X139785515Y-90825614D01*
X140013682Y-90871000D01*
X140246318Y-90871000D01*
X140474485Y-90825614D01*
X140689413Y-90736588D01*
X140882843Y-90607342D01*
X141047342Y-90442843D01*
X141176588Y-90249413D01*
X141265614Y-90034485D01*
X141311000Y-89806318D01*
X141311000Y-89573682D01*
X141265614Y-89345515D01*
X141176588Y-89130587D01*
X141047342Y-88937157D01*
X140882843Y-88772658D01*
X140689413Y-88643412D01*
X140474485Y-88554386D01*
X140246318Y-88509000D01*
X140013682Y-88509000D01*
X139785515Y-88554386D01*
X139570587Y-88643412D01*
X139377157Y-88772658D01*
X139212658Y-88937157D01*
X139083412Y-89130587D01*
X138994386Y-89345515D01*
X138949000Y-89573682D01*
X134520510Y-89573682D01*
X134520510Y-87033682D01*
X138949000Y-87033682D01*
X138949000Y-87266318D01*
X138994386Y-87494485D01*
X139083412Y-87709413D01*
X139212658Y-87902843D01*
X139377157Y-88067342D01*
X139570587Y-88196588D01*
X139785515Y-88285614D01*
X140013682Y-88331000D01*
X140246318Y-88331000D01*
X140474485Y-88285614D01*
X140689413Y-88196588D01*
X140882843Y-88067342D01*
X141047342Y-87902843D01*
X141176588Y-87709413D01*
X141265614Y-87494485D01*
X141311000Y-87266318D01*
X141311000Y-87033682D01*
X141265614Y-86805515D01*
X141176588Y-86590587D01*
X141047342Y-86397157D01*
X140882843Y-86232658D01*
X140689413Y-86103412D01*
X140474485Y-86014386D01*
X140246318Y-85969000D01*
X140013682Y-85969000D01*
X139785515Y-86014386D01*
X139570587Y-86103412D01*
X139377157Y-86232658D01*
X139212658Y-86397157D01*
X139083412Y-86590587D01*
X138994386Y-86805515D01*
X138949000Y-87033682D01*
X134520510Y-87033682D01*
X134520510Y-84493682D01*
X138949000Y-84493682D01*
X138949000Y-84726318D01*
X138994386Y-84954485D01*
X139083412Y-85169413D01*
X139212658Y-85362843D01*
X139377157Y-85527342D01*
X139570587Y-85656588D01*
X139785515Y-85745614D01*
X140013682Y-85791000D01*
X140246318Y-85791000D01*
X140474485Y-85745614D01*
X140689413Y-85656588D01*
X140882843Y-85527342D01*
X141047342Y-85362843D01*
X141176588Y-85169413D01*
X141265614Y-84954485D01*
X141311000Y-84726318D01*
X141311000Y-84493682D01*
X141265614Y-84265515D01*
X141176588Y-84050587D01*
X141047342Y-83857157D01*
X140882843Y-83692658D01*
X140689413Y-83563412D01*
X140474485Y-83474386D01*
X140246318Y-83429000D01*
X140013682Y-83429000D01*
X139785515Y-83474386D01*
X139570587Y-83563412D01*
X139377157Y-83692658D01*
X139212658Y-83857157D01*
X139083412Y-84050587D01*
X138994386Y-84265515D01*
X138949000Y-84493682D01*
X134520510Y-84493682D01*
X134520510Y-81953682D01*
X138949000Y-81953682D01*
X138949000Y-82186318D01*
X138994386Y-82414485D01*
X139083412Y-82629413D01*
X139212658Y-82822843D01*
X139377157Y-82987342D01*
X139570587Y-83116588D01*
X139785515Y-83205614D01*
X140013682Y-83251000D01*
X140246318Y-83251000D01*
X140474485Y-83205614D01*
X140689413Y-83116588D01*
X140882843Y-82987342D01*
X141047342Y-82822843D01*
X141176588Y-82629413D01*
X141265614Y-82414485D01*
X141311000Y-82186318D01*
X141311000Y-81953682D01*
X141265614Y-81725515D01*
X141176588Y-81510587D01*
X141047342Y-81317157D01*
X140882843Y-81152658D01*
X140689413Y-81023412D01*
X140474485Y-80934386D01*
X140246318Y-80889000D01*
X140013682Y-80889000D01*
X139785515Y-80934386D01*
X139570587Y-81023412D01*
X139377157Y-81152658D01*
X139212658Y-81317157D01*
X139083412Y-81510587D01*
X138994386Y-81725515D01*
X138949000Y-81953682D01*
X134520510Y-81953682D01*
X134520510Y-79413682D01*
X138949000Y-79413682D01*
X138949000Y-79646318D01*
X138994386Y-79874485D01*
X139083412Y-80089413D01*
X139212658Y-80282843D01*
X139377157Y-80447342D01*
X139570587Y-80576588D01*
X139785515Y-80665614D01*
X140013682Y-80711000D01*
X140246318Y-80711000D01*
X140474485Y-80665614D01*
X140689413Y-80576588D01*
X140882843Y-80447342D01*
X141047342Y-80282843D01*
X141176588Y-80089413D01*
X141265614Y-79874485D01*
X141311000Y-79646318D01*
X141311000Y-79413682D01*
X141265614Y-79185515D01*
X141176588Y-78970587D01*
X141047342Y-78777157D01*
X140882843Y-78612658D01*
X140689413Y-78483412D01*
X140474485Y-78394386D01*
X140246318Y-78349000D01*
X140013682Y-78349000D01*
X139785515Y-78394386D01*
X139570587Y-78483412D01*
X139377157Y-78612658D01*
X139212658Y-78777157D01*
X139083412Y-78970587D01*
X138994386Y-79185515D01*
X138949000Y-79413682D01*
X134520510Y-79413682D01*
X134520510Y-76873682D01*
X138949000Y-76873682D01*
X138949000Y-77106318D01*
X138994386Y-77334485D01*
X139083412Y-77549413D01*
X139212658Y-77742843D01*
X139377157Y-77907342D01*
X139570587Y-78036588D01*
X139785515Y-78125614D01*
X140013682Y-78171000D01*
X140246318Y-78171000D01*
X140474485Y-78125614D01*
X140689413Y-78036588D01*
X140882843Y-77907342D01*
X141047342Y-77742843D01*
X141176588Y-77549413D01*
X141265614Y-77334485D01*
X141311000Y-77106318D01*
X141311000Y-76873682D01*
X141265614Y-76645515D01*
X141176588Y-76430587D01*
X141047342Y-76237157D01*
X140882843Y-76072658D01*
X140689413Y-75943412D01*
X140474485Y-75854386D01*
X140246318Y-75809000D01*
X140013682Y-75809000D01*
X139785515Y-75854386D01*
X139570587Y-75943412D01*
X139377157Y-76072658D01*
X139212658Y-76237157D01*
X139083412Y-76430587D01*
X138994386Y-76645515D01*
X138949000Y-76873682D01*
X134520510Y-76873682D01*
X134520510Y-74333682D01*
X138949000Y-74333682D01*
X138949000Y-74566318D01*
X138994386Y-74794485D01*
X139083412Y-75009413D01*
X139212658Y-75202843D01*
X139377157Y-75367342D01*
X139570587Y-75496588D01*
X139785515Y-75585614D01*
X140013682Y-75631000D01*
X140246318Y-75631000D01*
X140474485Y-75585614D01*
X140689413Y-75496588D01*
X140882843Y-75367342D01*
X141038185Y-75212000D01*
X151985370Y-75212000D01*
X152926000Y-76152631D01*
X152926001Y-83411553D01*
X152907000Y-83507078D01*
X152907000Y-83660922D01*
X152937013Y-83811809D01*
X152995887Y-83953942D01*
X153081358Y-84081859D01*
X153190141Y-84190642D01*
X153318058Y-84276113D01*
X153460191Y-84334987D01*
X153611078Y-84365000D01*
X153764922Y-84365000D01*
X153915809Y-84334987D01*
X154057942Y-84276113D01*
X154185859Y-84190642D01*
X154294642Y-84081859D01*
X154380113Y-83953942D01*
X154438987Y-83811809D01*
X154469000Y-83660922D01*
X154469000Y-83507078D01*
X154450000Y-83411558D01*
X154450000Y-75874422D01*
X154453686Y-75836999D01*
X154450000Y-75799574D01*
X154438974Y-75687622D01*
X154395402Y-75543985D01*
X154324645Y-75411608D01*
X154229422Y-75295578D01*
X154200353Y-75271722D01*
X152866284Y-73937654D01*
X152842422Y-73908578D01*
X152726392Y-73813355D01*
X152594015Y-73742598D01*
X152450378Y-73699026D01*
X152338426Y-73688000D01*
X152338423Y-73688000D01*
X152301000Y-73684314D01*
X152263577Y-73688000D01*
X141038185Y-73688000D01*
X140882843Y-73532658D01*
X140689413Y-73403412D01*
X140474485Y-73314386D01*
X140246318Y-73269000D01*
X140013682Y-73269000D01*
X139785515Y-73314386D01*
X139570587Y-73403412D01*
X139377157Y-73532658D01*
X139212658Y-73697157D01*
X139083412Y-73890587D01*
X138994386Y-74105515D01*
X138949000Y-74333682D01*
X134520510Y-74333682D01*
X134520510Y-69719039D01*
X138738096Y-69719039D01*
X138778754Y-69853087D01*
X138898963Y-70107420D01*
X139066481Y-70333414D01*
X139274869Y-70522385D01*
X139516119Y-70667070D01*
X139780960Y-70761909D01*
X140002998Y-70640625D01*
X140002998Y-70731125D01*
X139785515Y-70774386D01*
X139570587Y-70863412D01*
X139377157Y-70992658D01*
X139212658Y-71157157D01*
X139083412Y-71350587D01*
X138994386Y-71565515D01*
X138949000Y-71793682D01*
X138949000Y-72026318D01*
X138994386Y-72254485D01*
X139083412Y-72469413D01*
X139212658Y-72662843D01*
X139377157Y-72827342D01*
X139570587Y-72956588D01*
X139785515Y-73045614D01*
X140013682Y-73091000D01*
X140246318Y-73091000D01*
X140474485Y-73045614D01*
X140689413Y-72956588D01*
X140882843Y-72827342D01*
X141047342Y-72662843D01*
X141176588Y-72469413D01*
X141265614Y-72254485D01*
X141311000Y-72026318D01*
X141311000Y-71793682D01*
X141265614Y-71565515D01*
X141176588Y-71350587D01*
X141047342Y-71157157D01*
X140882843Y-70992658D01*
X140689413Y-70863412D01*
X140474485Y-70774386D01*
X140257002Y-70731125D01*
X140257002Y-70640625D01*
X140479040Y-70761909D01*
X140743881Y-70667070D01*
X140985131Y-70522385D01*
X141193519Y-70333414D01*
X141361037Y-70107420D01*
X141481246Y-69853087D01*
X141521904Y-69719039D01*
X141451010Y-69590000D01*
X143274528Y-69590000D01*
X143296365Y-69811715D01*
X143361037Y-70024909D01*
X143466058Y-70221390D01*
X143607393Y-70393607D01*
X143779610Y-70534942D01*
X143976091Y-70639963D01*
X144189285Y-70704635D01*
X144355442Y-70721000D01*
X144986558Y-70721000D01*
X145152715Y-70704635D01*
X145365909Y-70639963D01*
X145562390Y-70534942D01*
X145734607Y-70393607D01*
X145875942Y-70221390D01*
X145980963Y-70024909D01*
X146045635Y-69811715D01*
X146067472Y-69590000D01*
X146045635Y-69368285D01*
X145980963Y-69155091D01*
X145875942Y-68958610D01*
X145734607Y-68786393D01*
X145562390Y-68645058D01*
X145365909Y-68540037D01*
X145152715Y-68475365D01*
X144986558Y-68459000D01*
X144355442Y-68459000D01*
X144189285Y-68475365D01*
X143976091Y-68540037D01*
X143779610Y-68645058D01*
X143607393Y-68786393D01*
X143466058Y-68958610D01*
X143361037Y-69155091D01*
X143296365Y-69368285D01*
X143274528Y-69590000D01*
X141451010Y-69590000D01*
X141399915Y-69497000D01*
X140257000Y-69497000D01*
X140257000Y-69517000D01*
X140003000Y-69517000D01*
X140003000Y-69497000D01*
X138860085Y-69497000D01*
X138738096Y-69719039D01*
X134520510Y-69719039D01*
X134520510Y-69020961D01*
X138738096Y-69020961D01*
X138860085Y-69243000D01*
X140003000Y-69243000D01*
X140003000Y-69223000D01*
X140257000Y-69223000D01*
X140257000Y-69243000D01*
X141399915Y-69243000D01*
X141521904Y-69020961D01*
X141481246Y-68886913D01*
X141361037Y-68632580D01*
X141193519Y-68406586D01*
X140985131Y-68217615D01*
X140743881Y-68072930D01*
X140479040Y-67978091D01*
X140257002Y-68099375D01*
X140257002Y-68008875D01*
X140474485Y-67965614D01*
X140689413Y-67876588D01*
X140882843Y-67747342D01*
X141047342Y-67582843D01*
X141176588Y-67389413D01*
X141197055Y-67340000D01*
X143022928Y-67340000D01*
X143035188Y-67464482D01*
X143071498Y-67584180D01*
X143130463Y-67694494D01*
X143209815Y-67791185D01*
X143306506Y-67870537D01*
X143416820Y-67929502D01*
X143536518Y-67965812D01*
X143661000Y-67978072D01*
X144385250Y-67975000D01*
X144544000Y-67816250D01*
X144544000Y-66717000D01*
X144798000Y-66717000D01*
X144798000Y-67816250D01*
X144956750Y-67975000D01*
X145681000Y-67978072D01*
X145805482Y-67965812D01*
X145925180Y-67929502D01*
X145971509Y-67904738D01*
X147110000Y-67904738D01*
X147110000Y-68275262D01*
X147182286Y-68638667D01*
X147324080Y-68980987D01*
X147529932Y-69289067D01*
X147791933Y-69551068D01*
X148100013Y-69756920D01*
X148442333Y-69898714D01*
X148805738Y-69971000D01*
X149176262Y-69971000D01*
X149539667Y-69898714D01*
X149881987Y-69756920D01*
X150190067Y-69551068D01*
X150452068Y-69289067D01*
X150657920Y-68980987D01*
X150799714Y-68638667D01*
X150872000Y-68275262D01*
X150872000Y-67904738D01*
X150799714Y-67541333D01*
X150657920Y-67199013D01*
X150452068Y-66890933D01*
X150190067Y-66628932D01*
X149881987Y-66423080D01*
X149539667Y-66281286D01*
X149176262Y-66209000D01*
X148805738Y-66209000D01*
X148442333Y-66281286D01*
X148100013Y-66423080D01*
X147791933Y-66628932D01*
X147529932Y-66890933D01*
X147324080Y-67199013D01*
X147182286Y-67541333D01*
X147110000Y-67904738D01*
X145971509Y-67904738D01*
X146035494Y-67870537D01*
X146132185Y-67791185D01*
X146211537Y-67694494D01*
X146270502Y-67584180D01*
X146306812Y-67464482D01*
X146319072Y-67340000D01*
X146316000Y-66875750D01*
X146157250Y-66717000D01*
X144798000Y-66717000D01*
X144544000Y-66717000D01*
X143184750Y-66717000D01*
X143026000Y-66875750D01*
X143022928Y-67340000D01*
X141197055Y-67340000D01*
X141265614Y-67174485D01*
X141311000Y-66946318D01*
X141311000Y-66713682D01*
X141265614Y-66485515D01*
X141176588Y-66270587D01*
X141047342Y-66077157D01*
X140882843Y-65912658D01*
X140774103Y-65840000D01*
X143022928Y-65840000D01*
X143026000Y-66304250D01*
X143184750Y-66463000D01*
X144544000Y-66463000D01*
X144544000Y-65363750D01*
X144798000Y-65363750D01*
X144798000Y-66463000D01*
X146157250Y-66463000D01*
X146316000Y-66304250D01*
X146319072Y-65840000D01*
X146306812Y-65715518D01*
X146270502Y-65595820D01*
X146211537Y-65485506D01*
X146132185Y-65388815D01*
X146035494Y-65309463D01*
X145925180Y-65250498D01*
X145805482Y-65214188D01*
X145681000Y-65201928D01*
X144956750Y-65205000D01*
X144798000Y-65363750D01*
X144544000Y-65363750D01*
X144385250Y-65205000D01*
X143661000Y-65201928D01*
X143536518Y-65214188D01*
X143416820Y-65250498D01*
X143306506Y-65309463D01*
X143209815Y-65388815D01*
X143130463Y-65485506D01*
X143071498Y-65595820D01*
X143035188Y-65715518D01*
X143022928Y-65840000D01*
X140774103Y-65840000D01*
X140689413Y-65783412D01*
X140474485Y-65694386D01*
X140246318Y-65649000D01*
X140013682Y-65649000D01*
X139785515Y-65694386D01*
X139570587Y-65783412D01*
X139377157Y-65912658D01*
X139212658Y-66077157D01*
X139083412Y-66270587D01*
X138994386Y-66485515D01*
X138949000Y-66713682D01*
X138949000Y-66946318D01*
X138994386Y-67174485D01*
X139083412Y-67389413D01*
X139212658Y-67582843D01*
X139377157Y-67747342D01*
X139570587Y-67876588D01*
X139785515Y-67965614D01*
X140002998Y-68008875D01*
X140002998Y-68099375D01*
X139780960Y-67978091D01*
X139516119Y-68072930D01*
X139274869Y-68217615D01*
X139066481Y-68406586D01*
X138898963Y-68632580D01*
X138778754Y-68886913D01*
X138738096Y-69020961D01*
X134520510Y-69020961D01*
X134520510Y-59119451D01*
X134523275Y-59091379D01*
X134520510Y-59063306D01*
X134512241Y-58979346D01*
X134479562Y-58871618D01*
X134426494Y-58772335D01*
X134355077Y-58685313D01*
X134333267Y-58667414D01*
X127046781Y-51380928D01*
X148798677Y-51380928D01*
X149104859Y-51824503D01*
X149692306Y-52139954D01*
X150330008Y-52334740D01*
X150993457Y-52401372D01*
X151657158Y-52337292D01*
X152295605Y-52144962D01*
X152884262Y-51831772D01*
X152895141Y-51824503D01*
X153201323Y-51380928D01*
X151000000Y-49179605D01*
X148798677Y-51380928D01*
X127046781Y-51380928D01*
X124659310Y-48993457D01*
X147598628Y-48993457D01*
X147662708Y-49657158D01*
X147855038Y-50295605D01*
X148168228Y-50884262D01*
X148175497Y-50895141D01*
X148619072Y-51201323D01*
X150820395Y-49000000D01*
X151179605Y-49000000D01*
X153380928Y-51201323D01*
X153824503Y-50895141D01*
X154139954Y-50307694D01*
X154334740Y-49669992D01*
X154401372Y-49006543D01*
X154337292Y-48342842D01*
X154144962Y-47704395D01*
X153831772Y-47115738D01*
X153824503Y-47104859D01*
X153380928Y-46798677D01*
X151179605Y-49000000D01*
X150820395Y-49000000D01*
X148619072Y-46798677D01*
X148175497Y-47104859D01*
X147860046Y-47692306D01*
X147665260Y-48330008D01*
X147598628Y-48993457D01*
X124659310Y-48993457D01*
X123541600Y-47875748D01*
X123523697Y-47853933D01*
X123436675Y-47782516D01*
X123337392Y-47729448D01*
X123229664Y-47696769D01*
X123145704Y-47688500D01*
X123117630Y-47685735D01*
X123089556Y-47688500D01*
X123032810Y-47688500D01*
X122927826Y-47531380D01*
X122768620Y-47372174D01*
X122581413Y-47247087D01*
X122373401Y-47160925D01*
X122152576Y-47117000D01*
X121927424Y-47117000D01*
X121706599Y-47160925D01*
X121498587Y-47247087D01*
X121311380Y-47372174D01*
X121152174Y-47531380D01*
X121027087Y-47718587D01*
X120940925Y-47926599D01*
X120897000Y-48147424D01*
X120897000Y-48372576D01*
X120940925Y-48593401D01*
X121027087Y-48801413D01*
X121152174Y-48988620D01*
X121239553Y-49075999D01*
X120894754Y-49075999D01*
X120900072Y-49022000D01*
X120897000Y-48545750D01*
X120738250Y-48387000D01*
X119627000Y-48387000D01*
X119627000Y-48407000D01*
X119373000Y-48407000D01*
X119373000Y-48387000D01*
X118261750Y-48387000D01*
X118103000Y-48545750D01*
X118099928Y-49022000D01*
X118105246Y-49075999D01*
X118056572Y-49075999D01*
X118028500Y-49073234D01*
X118000428Y-49075999D01*
X118000427Y-49075999D01*
X117916467Y-49084268D01*
X117808739Y-49116947D01*
X117709456Y-49170015D01*
X117622434Y-49241432D01*
X117604535Y-49263242D01*
X117350030Y-49517747D01*
X117401372Y-49006543D01*
X117337292Y-48342842D01*
X117144962Y-47704395D01*
X117035152Y-47498000D01*
X118099928Y-47498000D01*
X118103000Y-47974250D01*
X118261750Y-48133000D01*
X119373000Y-48133000D01*
X119373000Y-47021750D01*
X119627000Y-47021750D01*
X119627000Y-48133000D01*
X120738250Y-48133000D01*
X120897000Y-47974250D01*
X120900072Y-47498000D01*
X120887812Y-47373518D01*
X120851502Y-47253820D01*
X120792537Y-47143506D01*
X120713185Y-47046815D01*
X120616494Y-46967463D01*
X120506180Y-46908498D01*
X120386482Y-46872188D01*
X120262000Y-46859928D01*
X119785750Y-46863000D01*
X119627000Y-47021750D01*
X119373000Y-47021750D01*
X119214250Y-46863000D01*
X118738000Y-46859928D01*
X118613518Y-46872188D01*
X118493820Y-46908498D01*
X118383506Y-46967463D01*
X118286815Y-47046815D01*
X118207463Y-47143506D01*
X118148498Y-47253820D01*
X118112188Y-47373518D01*
X118099928Y-47498000D01*
X117035152Y-47498000D01*
X116831772Y-47115738D01*
X116824503Y-47104859D01*
X116380928Y-46798677D01*
X114179605Y-49000000D01*
X113820395Y-49000000D01*
X111619072Y-46798677D01*
X111175497Y-47104859D01*
X110860046Y-47692306D01*
X110665260Y-48330008D01*
X110598628Y-48993457D01*
X110406000Y-48993457D01*
X110406000Y-46619072D01*
X111798677Y-46619072D01*
X114000000Y-48820395D01*
X116201323Y-46619072D01*
X148798677Y-46619072D01*
X151000000Y-48820395D01*
X153201323Y-46619072D01*
X152895141Y-46175497D01*
X152307694Y-45860046D01*
X151669992Y-45665260D01*
X151006543Y-45598628D01*
X150342842Y-45662708D01*
X149704395Y-45855038D01*
X149115738Y-46168228D01*
X149104859Y-46175497D01*
X148798677Y-46619072D01*
X116201323Y-46619072D01*
X115895141Y-46175497D01*
X115307694Y-45860046D01*
X114669992Y-45665260D01*
X114006543Y-45598628D01*
X113342842Y-45662708D01*
X112704395Y-45855038D01*
X112115738Y-46168228D01*
X112104859Y-46175497D01*
X111798677Y-46619072D01*
X110406000Y-46619072D01*
X110406000Y-45406000D01*
X154594001Y-45406000D01*
X154594000Y-109594000D01*
G37*
X154594000Y-109594000D02*
X110406000Y-109594000D01*
X110406000Y-108380928D01*
X111798677Y-108380928D01*
X112104859Y-108824503D01*
X112692306Y-109139954D01*
X113330008Y-109334740D01*
X113993457Y-109401372D01*
X114657158Y-109337292D01*
X115295605Y-109144962D01*
X115884262Y-108831772D01*
X115895141Y-108824503D01*
X116201323Y-108380928D01*
X148798677Y-108380928D01*
X149104859Y-108824503D01*
X149692306Y-109139954D01*
X150330008Y-109334740D01*
X150993457Y-109401372D01*
X151657158Y-109337292D01*
X152295605Y-109144962D01*
X152884262Y-108831772D01*
X152895141Y-108824503D01*
X153201323Y-108380928D01*
X151000000Y-106179605D01*
X148798677Y-108380928D01*
X116201323Y-108380928D01*
X114000000Y-106179605D01*
X111798677Y-108380928D01*
X110406000Y-108380928D01*
X110406000Y-105993457D01*
X110598628Y-105993457D01*
X110662708Y-106657158D01*
X110855038Y-107295605D01*
X111168228Y-107884262D01*
X111175497Y-107895141D01*
X111619072Y-108201323D01*
X113820395Y-106000000D01*
X114179605Y-106000000D01*
X116380928Y-108201323D01*
X116824503Y-107895141D01*
X117139954Y-107307694D01*
X117334740Y-106669992D01*
X117401372Y-106006543D01*
X117400109Y-105993457D01*
X147598628Y-105993457D01*
X147662708Y-106657158D01*
X147855038Y-107295605D01*
X148168228Y-107884262D01*
X148175497Y-107895141D01*
X148619072Y-108201323D01*
X150820395Y-106000000D01*
X151179605Y-106000000D01*
X153380928Y-108201323D01*
X153824503Y-107895141D01*
X154139954Y-107307694D01*
X154334740Y-106669992D01*
X154401372Y-106006543D01*
X154337292Y-105342842D01*
X154144962Y-104704395D01*
X153831772Y-104115738D01*
X153824503Y-104104859D01*
X153380928Y-103798677D01*
X151179605Y-106000000D01*
X150820395Y-106000000D01*
X148619072Y-103798677D01*
X148175497Y-104104859D01*
X147860046Y-104692306D01*
X147665260Y-105330008D01*
X147598628Y-105993457D01*
X117400109Y-105993457D01*
X117337292Y-105342842D01*
X117144962Y-104704395D01*
X116831772Y-104115738D01*
X116824503Y-104104859D01*
X116380928Y-103798677D01*
X114179605Y-106000000D01*
X113820395Y-106000000D01*
X111619072Y-103798677D01*
X111175497Y-104104859D01*
X110860046Y-104692306D01*
X110665260Y-105330008D01*
X110598628Y-105993457D01*
X110406000Y-105993457D01*
X110406000Y-103619072D01*
X111798677Y-103619072D01*
X114000000Y-105820395D01*
X116201323Y-103619072D01*
X148798677Y-103619072D01*
X151000000Y-105820395D01*
X153201323Y-103619072D01*
X152895141Y-103175497D01*
X152307694Y-102860046D01*
X151669992Y-102665260D01*
X151006543Y-102598628D01*
X150342842Y-102662708D01*
X149704395Y-102855038D01*
X149115738Y-103168228D01*
X149104859Y-103175497D01*
X148798677Y-103619072D01*
X116201323Y-103619072D01*
X115895141Y-103175497D01*
X115307694Y-102860046D01*
X114669992Y-102665260D01*
X114006543Y-102598628D01*
X113342842Y-102662708D01*
X112704395Y-102855038D01*
X112115738Y-103168228D01*
X112104859Y-103175497D01*
X111798677Y-103619072D01*
X110406000Y-103619072D01*
X110406000Y-99526000D01*
X118638928Y-99526000D01*
X118651188Y-99650482D01*
X118687498Y-99770180D01*
X118746463Y-99880494D01*
X118825815Y-99977185D01*
X118922506Y-100056537D01*
X119032820Y-100115502D01*
X119152518Y-100151812D01*
X119277000Y-100164072D01*
X120001250Y-100161000D01*
X120160000Y-100002250D01*
X120160000Y-98903000D01*
X118800750Y-98903000D01*
X118642000Y-99061750D01*
X118638928Y-99526000D01*
X110406000Y-99526000D01*
X110406000Y-97090738D01*
X114086000Y-97090738D01*
X114086000Y-97461262D01*
X114158286Y-97824667D01*
X114300080Y-98166987D01*
X114505932Y-98475067D01*
X114767933Y-98737068D01*
X115076013Y-98942920D01*
X115418333Y-99084714D01*
X115781738Y-99157000D01*
X116152262Y-99157000D01*
X116515667Y-99084714D01*
X116857987Y-98942920D01*
X117166067Y-98737068D01*
X117428068Y-98475067D01*
X117633920Y-98166987D01*
X117692318Y-98026000D01*
X118638928Y-98026000D01*
X118642000Y-98490250D01*
X118800750Y-98649000D01*
X120160000Y-98649000D01*
X120160000Y-97549750D01*
X120001250Y-97391000D01*
X119277000Y-97387928D01*
X119152518Y-97400188D01*
X119032820Y-97436498D01*
X118922506Y-97495463D01*
X118825815Y-97574815D01*
X118746463Y-97671506D01*
X118687498Y-97781820D01*
X118651188Y-97901518D01*
X118638928Y-98026000D01*
X117692318Y-98026000D01*
X117775714Y-97824667D01*
X117848000Y-97461262D01*
X117848000Y-97090738D01*
X117775714Y-96727333D01*
X117633920Y-96385013D01*
X117428068Y-96076933D01*
X117166067Y-95814932D01*
X116857987Y-95609080D01*
X116515667Y-95467286D01*
X116152262Y-95395000D01*
X115781738Y-95395000D01*
X115418333Y-95467286D01*
X115076013Y-95609080D01*
X114767933Y-95814932D01*
X114505932Y-96076933D01*
X114300080Y-96385013D01*
X114158286Y-96727333D01*
X114086000Y-97090738D01*
X110406000Y-97090738D01*
X110406000Y-82497738D01*
X114086000Y-82497738D01*
X114086000Y-82868262D01*
X114158286Y-83231667D01*
X114300080Y-83573987D01*
X114505932Y-83882067D01*
X114767933Y-84144068D01*
X115076013Y-84349920D01*
X115418333Y-84491714D01*
X115781738Y-84564000D01*
X116152262Y-84564000D01*
X116515667Y-84491714D01*
X116857987Y-84349920D01*
X117166067Y-84144068D01*
X117428068Y-83882067D01*
X117633920Y-83573987D01*
X117775714Y-83231667D01*
X117848000Y-82868262D01*
X117848000Y-82497738D01*
X117775714Y-82134333D01*
X117633920Y-81792013D01*
X117428068Y-81483933D01*
X117166067Y-81221932D01*
X116857987Y-81016080D01*
X116515667Y-80874286D01*
X116152262Y-80802000D01*
X115781738Y-80802000D01*
X115418333Y-80874286D01*
X115076013Y-81016080D01*
X114767933Y-81221932D01*
X114505932Y-81483933D01*
X114300080Y-81792013D01*
X114158286Y-82134333D01*
X114086000Y-82497738D01*
X110406000Y-82497738D01*
X110406000Y-70340000D01*
X118638928Y-70340000D01*
X118651188Y-70464482D01*
X118687498Y-70584180D01*
X118746463Y-70694494D01*
X118825815Y-70791185D01*
X118922506Y-70870537D01*
X119032820Y-70929502D01*
X119152518Y-70965812D01*
X119277000Y-70978072D01*
X120001250Y-70975000D01*
X120160000Y-70816250D01*
X120160000Y-69717000D01*
X118800750Y-69717000D01*
X118642000Y-69875750D01*
X118638928Y-70340000D01*
X110406000Y-70340000D01*
X110406000Y-67904738D01*
X114086000Y-67904738D01*
X114086000Y-68275262D01*
X114158286Y-68638667D01*
X114300080Y-68980987D01*
X114505932Y-69289067D01*
X114767933Y-69551068D01*
X115076013Y-69756920D01*
X115418333Y-69898714D01*
X115781738Y-69971000D01*
X116152262Y-69971000D01*
X116515667Y-69898714D01*
X116857987Y-69756920D01*
X117166067Y-69551068D01*
X117428068Y-69289067D01*
X117633920Y-68980987D01*
X117692318Y-68840000D01*
X118638928Y-68840000D01*
X118642000Y-69304250D01*
X118800750Y-69463000D01*
X120160000Y-69463000D01*
X120160000Y-68363750D01*
X120001250Y-68205000D01*
X119277000Y-68201928D01*
X119152518Y-68214188D01*
X119032820Y-68250498D01*
X118922506Y-68309463D01*
X118825815Y-68388815D01*
X118746463Y-68485506D01*
X118687498Y-68595820D01*
X118651188Y-68715518D01*
X118638928Y-68840000D01*
X117692318Y-68840000D01*
X117775714Y-68638667D01*
X117848000Y-68275262D01*
X117848000Y-67904738D01*
X117775714Y-67541333D01*
X117633920Y-67199013D01*
X117428068Y-66890933D01*
X117166067Y-66628932D01*
X116857987Y-66423080D01*
X116515667Y-66281286D01*
X116152262Y-66209000D01*
X115781738Y-66209000D01*
X115418333Y-66281286D01*
X115076013Y-66423080D01*
X114767933Y-66628932D01*
X114505932Y-66890933D01*
X114300080Y-67199013D01*
X114158286Y-67541333D01*
X114086000Y-67904738D01*
X110406000Y-67904738D01*
X110406000Y-51380928D01*
X111798677Y-51380928D01*
X112104859Y-51824503D01*
X112692306Y-52139954D01*
X113330008Y-52334740D01*
X113993457Y-52401372D01*
X114657158Y-52337292D01*
X115295605Y-52144962D01*
X115884262Y-51831772D01*
X115895141Y-51824503D01*
X116201323Y-51380928D01*
X114000000Y-49179605D01*
X111798677Y-51380928D01*
X110406000Y-51380928D01*
X110406000Y-48993457D01*
X110598628Y-48993457D01*
X110662708Y-49657158D01*
X110855038Y-50295605D01*
X111168228Y-50884262D01*
X111175497Y-50895141D01*
X111619072Y-51201323D01*
X113820395Y-49000000D01*
X114179605Y-49000000D01*
X116380928Y-51201323D01*
X116540501Y-51091176D01*
X116540500Y-52001555D01*
X116537735Y-52029630D01*
X116540500Y-52057703D01*
X116548769Y-52141663D01*
X116581448Y-52249391D01*
X116634516Y-52348674D01*
X116705933Y-52435697D01*
X116727748Y-52453600D01*
X117998404Y-53724257D01*
X118016303Y-53746067D01*
X118103325Y-53817484D01*
X118202608Y-53870552D01*
X118310336Y-53903231D01*
X118422369Y-53914265D01*
X118450443Y-53911500D01*
X118507190Y-53911500D01*
X118612174Y-54068620D01*
X118771380Y-54227826D01*
X118958587Y-54352913D01*
X119166599Y-54439075D01*
X119387424Y-54483000D01*
X119612576Y-54483000D01*
X119833401Y-54439075D01*
X120041413Y-54352913D01*
X120228620Y-54227826D01*
X120387826Y-54068620D01*
X120512913Y-53881413D01*
X120599075Y-53673401D01*
X120643000Y-53452576D01*
X120643000Y-53227424D01*
X120599075Y-53006599D01*
X120512913Y-52798587D01*
X120387826Y-52611380D01*
X120228620Y-52452174D01*
X120041413Y-52327087D01*
X119833401Y-52240925D01*
X119612576Y-52197000D01*
X119387424Y-52197000D01*
X119166599Y-52240925D01*
X118958587Y-52327087D01*
X118771380Y-52452174D01*
X118612174Y-52611380D01*
X118568034Y-52677441D01*
X117683500Y-51792908D01*
X117683500Y-50800722D01*
X118265224Y-50218999D01*
X118513539Y-50218999D01*
X118487087Y-50258587D01*
X118400925Y-50466599D01*
X118357000Y-50687424D01*
X118357000Y-50912576D01*
X118400925Y-51133401D01*
X118487087Y-51341413D01*
X118612174Y-51528620D01*
X118771380Y-51687826D01*
X118958587Y-51812913D01*
X119166599Y-51899075D01*
X119387424Y-51943000D01*
X119612576Y-51943000D01*
X119797912Y-51906134D01*
X120228535Y-52336758D01*
X120246434Y-52358568D01*
X120333456Y-52429985D01*
X120432739Y-52483053D01*
X120540467Y-52515732D01*
X120624427Y-52524001D01*
X120652501Y-52526766D01*
X120680575Y-52524001D01*
X121239553Y-52524001D01*
X121152174Y-52611380D01*
X121027087Y-52798587D01*
X120940925Y-53006599D01*
X120897000Y-53227424D01*
X120897000Y-53452576D01*
X120933866Y-53637912D01*
X120503247Y-54068531D01*
X120481432Y-54086434D01*
X120410016Y-54173456D01*
X120410015Y-54173457D01*
X120356947Y-54272740D01*
X120324268Y-54380468D01*
X120313234Y-54492501D01*
X120315999Y-54520576D01*
X120315999Y-55079553D01*
X120228620Y-54992174D01*
X120041413Y-54867087D01*
X119833401Y-54780925D01*
X119612576Y-54737000D01*
X119387424Y-54737000D01*
X119166599Y-54780925D01*
X118958587Y-54867087D01*
X118771380Y-54992174D01*
X118612174Y-55151380D01*
X118487087Y-55338587D01*
X118400925Y-55546599D01*
X118357000Y-55767424D01*
X118357000Y-55992576D01*
X118400925Y-56213401D01*
X118487087Y-56421413D01*
X118612174Y-56608620D01*
X118771380Y-56767826D01*
X118958587Y-56892913D01*
X119166599Y-56979075D01*
X119387424Y-57023000D01*
X119612576Y-57023000D01*
X119797912Y-56986134D01*
X121620500Y-58808723D01*
X121620500Y-66232682D01*
X121596963Y-66155091D01*
X121491942Y-65958610D01*
X121350607Y-65786393D01*
X121178390Y-65645058D01*
X120981909Y-65540037D01*
X120768715Y-65475365D01*
X120602558Y-65459000D01*
X119971442Y-65459000D01*
X119805285Y-65475365D01*
X119592091Y-65540037D01*
X119395610Y-65645058D01*
X119223393Y-65786393D01*
X119082058Y-65958610D01*
X118977037Y-66155091D01*
X118912365Y-66368285D01*
X118890528Y-66590000D01*
X118912365Y-66811715D01*
X118977037Y-67024909D01*
X119082058Y-67221390D01*
X119223393Y-67393607D01*
X119395610Y-67534942D01*
X119592091Y-67639963D01*
X119805285Y-67704635D01*
X119971442Y-67721000D01*
X120602558Y-67721000D01*
X120768715Y-67704635D01*
X120981909Y-67639963D01*
X121178390Y-67534942D01*
X121350607Y-67393607D01*
X121491942Y-67221390D01*
X121596963Y-67024909D01*
X121620500Y-66947318D01*
X121620500Y-68292896D01*
X121541180Y-68250498D01*
X121421482Y-68214188D01*
X121297000Y-68201928D01*
X120572750Y-68205000D01*
X120414000Y-68363750D01*
X120414000Y-69463000D01*
X120434000Y-69463000D01*
X120434000Y-69717000D01*
X120414000Y-69717000D01*
X120414000Y-70816250D01*
X120572750Y-70975000D01*
X121297000Y-70978072D01*
X121421482Y-70965812D01*
X121541180Y-70929502D01*
X121620500Y-70887104D01*
X121620501Y-80825684D01*
X121596963Y-80748091D01*
X121491942Y-80551610D01*
X121350607Y-80379393D01*
X121178390Y-80238058D01*
X120981909Y-80133037D01*
X120768715Y-80068365D01*
X120602558Y-80052000D01*
X119971442Y-80052000D01*
X119805285Y-80068365D01*
X119592091Y-80133037D01*
X119395610Y-80238058D01*
X119223393Y-80379393D01*
X119082058Y-80551610D01*
X118977037Y-80748091D01*
X118912365Y-80961285D01*
X118890528Y-81183000D01*
X118912365Y-81404715D01*
X118977037Y-81617909D01*
X119082058Y-81814390D01*
X119223393Y-81986607D01*
X119395610Y-82127942D01*
X119592091Y-82232963D01*
X119805285Y-82297635D01*
X119971442Y-82314000D01*
X120602558Y-82314000D01*
X120768715Y-82297635D01*
X120981909Y-82232963D01*
X121178390Y-82127942D01*
X121350607Y-81986607D01*
X121491942Y-81814390D01*
X121596963Y-81617909D01*
X121620501Y-81540316D01*
X121620501Y-83419923D01*
X121573190Y-83331411D01*
X121494488Y-83235512D01*
X121398589Y-83156810D01*
X121289179Y-83098329D01*
X121170462Y-83062317D01*
X121047000Y-83050157D01*
X119527000Y-83050157D01*
X119403538Y-83062317D01*
X119284821Y-83098329D01*
X119175411Y-83156810D01*
X119079512Y-83235512D01*
X119000810Y-83331411D01*
X118942329Y-83440821D01*
X118906317Y-83559538D01*
X118894157Y-83683000D01*
X118894157Y-84683000D01*
X118906317Y-84806462D01*
X118942329Y-84925179D01*
X119000810Y-85034589D01*
X119079512Y-85130488D01*
X119175411Y-85209190D01*
X119284821Y-85267671D01*
X119403538Y-85303683D01*
X119527000Y-85315843D01*
X121047000Y-85315843D01*
X121170462Y-85303683D01*
X121289179Y-85267671D01*
X121398589Y-85209190D01*
X121494488Y-85130488D01*
X121573190Y-85034589D01*
X121620501Y-84946077D01*
X121620501Y-95418685D01*
X121596963Y-95341091D01*
X121491942Y-95144610D01*
X121350607Y-94972393D01*
X121178390Y-94831058D01*
X120981909Y-94726037D01*
X120768715Y-94661365D01*
X120602558Y-94645000D01*
X119971442Y-94645000D01*
X119805285Y-94661365D01*
X119592091Y-94726037D01*
X119395610Y-94831058D01*
X119223393Y-94972393D01*
X119082058Y-95144610D01*
X118977037Y-95341091D01*
X118912365Y-95554285D01*
X118890528Y-95776000D01*
X118912365Y-95997715D01*
X118977037Y-96210909D01*
X119082058Y-96407390D01*
X119223393Y-96579607D01*
X119395610Y-96720942D01*
X119592091Y-96825963D01*
X119805285Y-96890635D01*
X119971442Y-96907000D01*
X120602558Y-96907000D01*
X120768715Y-96890635D01*
X120981909Y-96825963D01*
X121178390Y-96720942D01*
X121350607Y-96579607D01*
X121491942Y-96407390D01*
X121596963Y-96210909D01*
X121620501Y-96133315D01*
X121620501Y-97478897D01*
X121541180Y-97436498D01*
X121421482Y-97400188D01*
X121297000Y-97387928D01*
X120572750Y-97391000D01*
X120414000Y-97549750D01*
X120414000Y-98649000D01*
X120434000Y-98649000D01*
X120434000Y-98903000D01*
X120414000Y-98903000D01*
X120414000Y-100002250D01*
X120572750Y-100161000D01*
X121297000Y-100164072D01*
X121421482Y-100151812D01*
X121541180Y-100115502D01*
X121651494Y-100056537D01*
X121712202Y-100006715D01*
X121714516Y-100011044D01*
X121714517Y-100011045D01*
X121785934Y-100098067D01*
X121807744Y-100115966D01*
X123751550Y-102059773D01*
X123709000Y-102273682D01*
X123709000Y-102506318D01*
X123754386Y-102734485D01*
X123843412Y-102949413D01*
X123972658Y-103142843D01*
X124137157Y-103307342D01*
X124330587Y-103436588D01*
X124545515Y-103525614D01*
X124773682Y-103571000D01*
X125006318Y-103571000D01*
X125234485Y-103525614D01*
X125449413Y-103436588D01*
X125642843Y-103307342D01*
X125807342Y-103142843D01*
X125936588Y-102949413D01*
X126025614Y-102734485D01*
X126071000Y-102506318D01*
X126071000Y-102273682D01*
X126025614Y-102045515D01*
X125936588Y-101830587D01*
X125807342Y-101637157D01*
X125642843Y-101472658D01*
X125449413Y-101343412D01*
X125234485Y-101254386D01*
X125006318Y-101209000D01*
X124773682Y-101209000D01*
X124559773Y-101251550D01*
X122763500Y-99455278D01*
X122763500Y-98531722D01*
X123751550Y-99519773D01*
X123709000Y-99733682D01*
X123709000Y-99966318D01*
X123754386Y-100194485D01*
X123843412Y-100409413D01*
X123972658Y-100602843D01*
X124137157Y-100767342D01*
X124330587Y-100896588D01*
X124545515Y-100985614D01*
X124773682Y-101031000D01*
X125006318Y-101031000D01*
X125234485Y-100985614D01*
X125449413Y-100896588D01*
X125642843Y-100767342D01*
X125807342Y-100602843D01*
X125936588Y-100409413D01*
X126025614Y-100194485D01*
X126071000Y-99966318D01*
X126071000Y-99733682D01*
X126025614Y-99505515D01*
X125936588Y-99290587D01*
X125807342Y-99097157D01*
X125642843Y-98932658D01*
X125449413Y-98803412D01*
X125234485Y-98714386D01*
X125006318Y-98669000D01*
X124773682Y-98669000D01*
X124559773Y-98711550D01*
X123344510Y-97496288D01*
X123344510Y-97193682D01*
X123709000Y-97193682D01*
X123709000Y-97426318D01*
X123754386Y-97654485D01*
X123843412Y-97869413D01*
X123972658Y-98062843D01*
X124137157Y-98227342D01*
X124330587Y-98356588D01*
X124545515Y-98445614D01*
X124773682Y-98491000D01*
X125006318Y-98491000D01*
X125234485Y-98445614D01*
X125449413Y-98356588D01*
X125642843Y-98227342D01*
X125807342Y-98062843D01*
X125936588Y-97869413D01*
X126025614Y-97654485D01*
X126071000Y-97426318D01*
X126071000Y-97193682D01*
X126025614Y-96965515D01*
X125936588Y-96750587D01*
X125807342Y-96557157D01*
X125642843Y-96392658D01*
X125449413Y-96263412D01*
X125234485Y-96174386D01*
X125006318Y-96129000D01*
X124773682Y-96129000D01*
X124545515Y-96174386D01*
X124330587Y-96263412D01*
X124137157Y-96392658D01*
X123972658Y-96557157D01*
X123843412Y-96750587D01*
X123754386Y-96965515D01*
X123709000Y-97193682D01*
X123344510Y-97193682D01*
X123344510Y-94653682D01*
X123709000Y-94653682D01*
X123709000Y-94886318D01*
X123754386Y-95114485D01*
X123843412Y-95329413D01*
X123972658Y-95522843D01*
X124137157Y-95687342D01*
X124330587Y-95816588D01*
X124545515Y-95905614D01*
X124773682Y-95951000D01*
X125006318Y-95951000D01*
X125234485Y-95905614D01*
X125449413Y-95816588D01*
X125642843Y-95687342D01*
X125807342Y-95522843D01*
X125936588Y-95329413D01*
X126025614Y-95114485D01*
X126071000Y-94886318D01*
X126071000Y-94653682D01*
X126025614Y-94425515D01*
X125936588Y-94210587D01*
X125807342Y-94017157D01*
X125642843Y-93852658D01*
X125449413Y-93723412D01*
X125234485Y-93634386D01*
X125006318Y-93589000D01*
X124773682Y-93589000D01*
X124545515Y-93634386D01*
X124330587Y-93723412D01*
X124137157Y-93852658D01*
X123972658Y-94017157D01*
X123843412Y-94210587D01*
X123754386Y-94425515D01*
X123709000Y-94653682D01*
X123344510Y-94653682D01*
X123344510Y-87033682D01*
X123709000Y-87033682D01*
X123709000Y-87266318D01*
X123754386Y-87494485D01*
X123843412Y-87709413D01*
X123972658Y-87902843D01*
X124137157Y-88067342D01*
X124330587Y-88196588D01*
X124545515Y-88285614D01*
X124773682Y-88331000D01*
X125006318Y-88331000D01*
X125234485Y-88285614D01*
X125449413Y-88196588D01*
X125642843Y-88067342D01*
X125807342Y-87902843D01*
X125936588Y-87709413D01*
X126025614Y-87494485D01*
X126071000Y-87266318D01*
X126071000Y-87033682D01*
X126025614Y-86805515D01*
X125936588Y-86590587D01*
X125807342Y-86397157D01*
X125642843Y-86232658D01*
X125449413Y-86103412D01*
X125234485Y-86014386D01*
X125006318Y-85969000D01*
X124773682Y-85969000D01*
X124545515Y-86014386D01*
X124330587Y-86103412D01*
X124137157Y-86232658D01*
X123972658Y-86397157D01*
X123843412Y-86590587D01*
X123754386Y-86805515D01*
X123709000Y-87033682D01*
X123344510Y-87033682D01*
X123344510Y-84493682D01*
X123709000Y-84493682D01*
X123709000Y-84726318D01*
X123754386Y-84954485D01*
X123843412Y-85169413D01*
X123972658Y-85362843D01*
X124137157Y-85527342D01*
X124330587Y-85656588D01*
X124545515Y-85745614D01*
X124773682Y-85791000D01*
X125006318Y-85791000D01*
X125234485Y-85745614D01*
X125449413Y-85656588D01*
X125642843Y-85527342D01*
X125807342Y-85362843D01*
X125936588Y-85169413D01*
X126025614Y-84954485D01*
X126071000Y-84726318D01*
X126071000Y-84493682D01*
X126025614Y-84265515D01*
X125936588Y-84050587D01*
X125807342Y-83857157D01*
X125642843Y-83692658D01*
X125449413Y-83563412D01*
X125234485Y-83474386D01*
X125006318Y-83429000D01*
X124773682Y-83429000D01*
X124545515Y-83474386D01*
X124330587Y-83563412D01*
X124137157Y-83692658D01*
X123972658Y-83857157D01*
X123843412Y-84050587D01*
X123754386Y-84265515D01*
X123709000Y-84493682D01*
X123344510Y-84493682D01*
X123344510Y-81953682D01*
X123709000Y-81953682D01*
X123709000Y-82186318D01*
X123754386Y-82414485D01*
X123843412Y-82629413D01*
X123972658Y-82822843D01*
X124137157Y-82987342D01*
X124330587Y-83116588D01*
X124545515Y-83205614D01*
X124773682Y-83251000D01*
X125006318Y-83251000D01*
X125234485Y-83205614D01*
X125449413Y-83116588D01*
X125642843Y-82987342D01*
X125807342Y-82822843D01*
X125936588Y-82629413D01*
X126025614Y-82414485D01*
X126071000Y-82186318D01*
X126071000Y-81953682D01*
X126025614Y-81725515D01*
X125936588Y-81510587D01*
X125807342Y-81317157D01*
X125642843Y-81152658D01*
X125449413Y-81023412D01*
X125234485Y-80934386D01*
X125006318Y-80889000D01*
X124773682Y-80889000D01*
X124545515Y-80934386D01*
X124330587Y-81023412D01*
X124137157Y-81152658D01*
X123972658Y-81317157D01*
X123843412Y-81510587D01*
X123754386Y-81725515D01*
X123709000Y-81953682D01*
X123344510Y-81953682D01*
X123344510Y-79413682D01*
X123709000Y-79413682D01*
X123709000Y-79646318D01*
X123754386Y-79874485D01*
X123843412Y-80089413D01*
X123972658Y-80282843D01*
X124137157Y-80447342D01*
X124330587Y-80576588D01*
X124545515Y-80665614D01*
X124773682Y-80711000D01*
X125006318Y-80711000D01*
X125234485Y-80665614D01*
X125449413Y-80576588D01*
X125642843Y-80447342D01*
X125807342Y-80282843D01*
X125936588Y-80089413D01*
X126025614Y-79874485D01*
X126071000Y-79646318D01*
X126071000Y-79413682D01*
X126025614Y-79185515D01*
X125936588Y-78970587D01*
X125807342Y-78777157D01*
X125642843Y-78612658D01*
X125449413Y-78483412D01*
X125234485Y-78394386D01*
X125006318Y-78349000D01*
X124773682Y-78349000D01*
X124545515Y-78394386D01*
X124330587Y-78483412D01*
X124137157Y-78612658D01*
X123972658Y-78777157D01*
X123843412Y-78970587D01*
X123754386Y-79185515D01*
X123709000Y-79413682D01*
X123344510Y-79413682D01*
X123344510Y-74799039D01*
X123498096Y-74799039D01*
X123538754Y-74933087D01*
X123658963Y-75187420D01*
X123826481Y-75413414D01*
X124034869Y-75602385D01*
X124276119Y-75747070D01*
X124540960Y-75841909D01*
X124762998Y-75720625D01*
X124762998Y-75811125D01*
X124545515Y-75854386D01*
X124330587Y-75943412D01*
X124137157Y-76072658D01*
X123972658Y-76237157D01*
X123843412Y-76430587D01*
X123754386Y-76645515D01*
X123709000Y-76873682D01*
X123709000Y-77106318D01*
X123754386Y-77334485D01*
X123843412Y-77549413D01*
X123972658Y-77742843D01*
X124137157Y-77907342D01*
X124330587Y-78036588D01*
X124545515Y-78125614D01*
X124773682Y-78171000D01*
X125006318Y-78171000D01*
X125234485Y-78125614D01*
X125449413Y-78036588D01*
X125642843Y-77907342D01*
X125807342Y-77742843D01*
X125936588Y-77549413D01*
X126025614Y-77334485D01*
X126071000Y-77106318D01*
X126071000Y-76873682D01*
X126025614Y-76645515D01*
X125936588Y-76430587D01*
X125807342Y-76237157D01*
X125642843Y-76072658D01*
X125449413Y-75943412D01*
X125234485Y-75854386D01*
X125017002Y-75811125D01*
X125017002Y-75720625D01*
X125239040Y-75841909D01*
X125503881Y-75747070D01*
X125745131Y-75602385D01*
X125953519Y-75413414D01*
X126121037Y-75187420D01*
X126241246Y-74933087D01*
X126281904Y-74799039D01*
X126159915Y-74577000D01*
X125017000Y-74577000D01*
X125017000Y-74597000D01*
X124763000Y-74597000D01*
X124763000Y-74577000D01*
X123620085Y-74577000D01*
X123498096Y-74799039D01*
X123344510Y-74799039D01*
X123344510Y-74100961D01*
X123498096Y-74100961D01*
X123620085Y-74323000D01*
X124763000Y-74323000D01*
X124763000Y-74303000D01*
X125017000Y-74303000D01*
X125017000Y-74323000D01*
X126159915Y-74323000D01*
X126281904Y-74100961D01*
X126241246Y-73966913D01*
X126121037Y-73712580D01*
X125953519Y-73486586D01*
X125745131Y-73297615D01*
X125503881Y-73152930D01*
X125239040Y-73058091D01*
X125017002Y-73179375D01*
X125017002Y-73088875D01*
X125234485Y-73045614D01*
X125449413Y-72956588D01*
X125642843Y-72827342D01*
X125807342Y-72662843D01*
X125936588Y-72469413D01*
X126025614Y-72254485D01*
X126071000Y-72026318D01*
X126071000Y-71793682D01*
X126025614Y-71565515D01*
X125936588Y-71350587D01*
X125807342Y-71157157D01*
X125642843Y-70992658D01*
X125449413Y-70863412D01*
X125234485Y-70774386D01*
X125006318Y-70729000D01*
X124773682Y-70729000D01*
X124545515Y-70774386D01*
X124330587Y-70863412D01*
X124137157Y-70992658D01*
X123972658Y-71157157D01*
X123843412Y-71350587D01*
X123754386Y-71565515D01*
X123709000Y-71793682D01*
X123709000Y-72026318D01*
X123754386Y-72254485D01*
X123843412Y-72469413D01*
X123972658Y-72662843D01*
X124137157Y-72827342D01*
X124330587Y-72956588D01*
X124545515Y-73045614D01*
X124762998Y-73088875D01*
X124762998Y-73179375D01*
X124540960Y-73058091D01*
X124276119Y-73152930D01*
X124034869Y-73297615D01*
X123826481Y-73486586D01*
X123658963Y-73712580D01*
X123538754Y-73966913D01*
X123498096Y-74100961D01*
X123344510Y-74100961D01*
X123344510Y-69253682D01*
X123709000Y-69253682D01*
X123709000Y-69486318D01*
X123754386Y-69714485D01*
X123843412Y-69929413D01*
X123972658Y-70122843D01*
X124137157Y-70287342D01*
X124330587Y-70416588D01*
X124545515Y-70505614D01*
X124773682Y-70551000D01*
X125006318Y-70551000D01*
X125234485Y-70505614D01*
X125449413Y-70416588D01*
X125642843Y-70287342D01*
X125807342Y-70122843D01*
X125936588Y-69929413D01*
X126025614Y-69714485D01*
X126071000Y-69486318D01*
X126071000Y-69253682D01*
X126025614Y-69025515D01*
X125936588Y-68810587D01*
X125807342Y-68617157D01*
X125642843Y-68452658D01*
X125449413Y-68323412D01*
X125234485Y-68234386D01*
X125006318Y-68189000D01*
X124773682Y-68189000D01*
X124545515Y-68234386D01*
X124330587Y-68323412D01*
X124137157Y-68452658D01*
X123972658Y-68617157D01*
X123843412Y-68810587D01*
X123754386Y-69025515D01*
X123709000Y-69253682D01*
X123344510Y-69253682D01*
X123344510Y-66030000D01*
X123707157Y-66030000D01*
X123707157Y-67630000D01*
X123714513Y-67704689D01*
X123736299Y-67776508D01*
X123771678Y-67842696D01*
X123819289Y-67900711D01*
X123877304Y-67948322D01*
X123943492Y-67983701D01*
X124015311Y-68005487D01*
X124090000Y-68012843D01*
X125690000Y-68012843D01*
X125764689Y-68005487D01*
X125836508Y-67983701D01*
X125902696Y-67948322D01*
X125960711Y-67900711D01*
X126008322Y-67842696D01*
X126043701Y-67776508D01*
X126065487Y-67704689D01*
X126072843Y-67630000D01*
X126072843Y-66030000D01*
X126065487Y-65955311D01*
X126043701Y-65883492D01*
X126008322Y-65817304D01*
X125960711Y-65759289D01*
X125902696Y-65711678D01*
X125836508Y-65676299D01*
X125764689Y-65654513D01*
X125690000Y-65647157D01*
X124090000Y-65647157D01*
X124015311Y-65654513D01*
X123943492Y-65676299D01*
X123877304Y-65711678D01*
X123819289Y-65759289D01*
X123771678Y-65817304D01*
X123736299Y-65883492D01*
X123714513Y-65955311D01*
X123707157Y-66030000D01*
X123344510Y-66030000D01*
X123344510Y-58359409D01*
X123347275Y-58331337D01*
X123339555Y-58252955D01*
X123336241Y-58219304D01*
X123303562Y-58111576D01*
X123250494Y-58012293D01*
X123179077Y-57925271D01*
X123157268Y-57907373D01*
X122252932Y-57003038D01*
X122373401Y-56979075D01*
X122581413Y-56892913D01*
X122768620Y-56767826D01*
X122927826Y-56608620D01*
X123052913Y-56421413D01*
X123139075Y-56213401D01*
X123183000Y-55992576D01*
X123183000Y-55767424D01*
X123139075Y-55546599D01*
X123052913Y-55338587D01*
X122927826Y-55151380D01*
X122768620Y-54992174D01*
X122581413Y-54867087D01*
X122373401Y-54780925D01*
X122152576Y-54737000D01*
X121927424Y-54737000D01*
X121706599Y-54780925D01*
X121498587Y-54867087D01*
X121458999Y-54893539D01*
X121458999Y-54729223D01*
X121742088Y-54446134D01*
X121927424Y-54483000D01*
X122152576Y-54483000D01*
X122373401Y-54439075D01*
X122581413Y-54352913D01*
X122768620Y-54227826D01*
X122927826Y-54068620D01*
X123052913Y-53881413D01*
X123139075Y-53673401D01*
X123160943Y-53563463D01*
X126373490Y-56776011D01*
X126373491Y-87398285D01*
X125220227Y-88551550D01*
X125006318Y-88509000D01*
X124773682Y-88509000D01*
X124545515Y-88554386D01*
X124330587Y-88643412D01*
X124137157Y-88772658D01*
X123972658Y-88937157D01*
X123843412Y-89130587D01*
X123754386Y-89345515D01*
X123709000Y-89573682D01*
X123709000Y-89806318D01*
X123754386Y-90034485D01*
X123843412Y-90249413D01*
X123972658Y-90442843D01*
X124137157Y-90607342D01*
X124330587Y-90736588D01*
X124545515Y-90825614D01*
X124773682Y-90871000D01*
X125006318Y-90871000D01*
X125234485Y-90825614D01*
X125449413Y-90736588D01*
X125642843Y-90607342D01*
X125807342Y-90442843D01*
X125936588Y-90249413D01*
X126025614Y-90034485D01*
X126071000Y-89806318D01*
X126071000Y-89573682D01*
X126028450Y-89359773D01*
X126954501Y-88433723D01*
X126954501Y-89357276D01*
X125220228Y-91091550D01*
X125006318Y-91049000D01*
X124773682Y-91049000D01*
X124545515Y-91094386D01*
X124330587Y-91183412D01*
X124137157Y-91312658D01*
X123972658Y-91477157D01*
X123843412Y-91670587D01*
X123754386Y-91885515D01*
X123709000Y-92113682D01*
X123709000Y-92346318D01*
X123754386Y-92574485D01*
X123843412Y-92789413D01*
X123972658Y-92982843D01*
X124137157Y-93147342D01*
X124330587Y-93276588D01*
X124545515Y-93365614D01*
X124773682Y-93411000D01*
X125006318Y-93411000D01*
X125234485Y-93365614D01*
X125449413Y-93276588D01*
X125642843Y-93147342D01*
X125807342Y-92982843D01*
X125936588Y-92789413D01*
X126025614Y-92574485D01*
X126071000Y-92346318D01*
X126071000Y-92113682D01*
X126028450Y-91899772D01*
X127910257Y-90017966D01*
X127932067Y-90000067D01*
X128003484Y-89913045D01*
X128056552Y-89813762D01*
X128089231Y-89706034D01*
X128097500Y-89622074D01*
X128100265Y-89594000D01*
X128097500Y-89565926D01*
X128097500Y-56314074D01*
X128100265Y-56286000D01*
X128089231Y-56173966D01*
X128056552Y-56066238D01*
X128003484Y-55966955D01*
X127961071Y-55915275D01*
X127932067Y-55879933D01*
X127910258Y-55862035D01*
X123146134Y-51097912D01*
X123183000Y-50912576D01*
X123183000Y-50687424D01*
X123139075Y-50466599D01*
X123052913Y-50258587D01*
X123026461Y-50218999D01*
X123446735Y-50218999D01*
X132796500Y-59568765D01*
X132796501Y-60394215D01*
X132796500Y-60394225D01*
X132796501Y-66029916D01*
X132796500Y-66029926D01*
X132796500Y-66340073D01*
X132796501Y-66340083D01*
X132796500Y-95599926D01*
X132793735Y-95628000D01*
X132796500Y-95656073D01*
X132804769Y-95740033D01*
X132837448Y-95847761D01*
X132890516Y-95947044D01*
X132961933Y-96034067D01*
X132983748Y-96051970D01*
X138991550Y-102059773D01*
X138949000Y-102273682D01*
X138949000Y-102506318D01*
X138994386Y-102734485D01*
X139083412Y-102949413D01*
X139212658Y-103142843D01*
X139377157Y-103307342D01*
X139570587Y-103436588D01*
X139785515Y-103525614D01*
X140013682Y-103571000D01*
X140246318Y-103571000D01*
X140474485Y-103525614D01*
X140689413Y-103436588D01*
X140882843Y-103307342D01*
X141047342Y-103142843D01*
X141176588Y-102949413D01*
X141265614Y-102734485D01*
X141311000Y-102506318D01*
X141311000Y-102273682D01*
X141265614Y-102045515D01*
X141176588Y-101830587D01*
X141047342Y-101637157D01*
X140882843Y-101472658D01*
X140689413Y-101343412D01*
X140474485Y-101254386D01*
X140246318Y-101209000D01*
X140013682Y-101209000D01*
X139799773Y-101251550D01*
X138969723Y-100421500D01*
X139091488Y-100421500D01*
X139212658Y-100602843D01*
X139377157Y-100767342D01*
X139570587Y-100896588D01*
X139785515Y-100985614D01*
X140013682Y-101031000D01*
X140246318Y-101031000D01*
X140474485Y-100985614D01*
X140689413Y-100896588D01*
X140882843Y-100767342D01*
X141047342Y-100602843D01*
X141176588Y-100409413D01*
X141265614Y-100194485D01*
X141311000Y-99966318D01*
X141311000Y-99733682D01*
X141265614Y-99505515D01*
X141176588Y-99290587D01*
X141047342Y-99097157D01*
X140882843Y-98932658D01*
X140689413Y-98803412D01*
X140623235Y-98776000D01*
X143274528Y-98776000D01*
X143296365Y-98997715D01*
X143361037Y-99210909D01*
X143466058Y-99407390D01*
X143607393Y-99579607D01*
X143779610Y-99720942D01*
X143976091Y-99825963D01*
X144189285Y-99890635D01*
X144355442Y-99907000D01*
X144986558Y-99907000D01*
X145152715Y-99890635D01*
X145365909Y-99825963D01*
X145562390Y-99720942D01*
X145734607Y-99579607D01*
X145875942Y-99407390D01*
X145980963Y-99210909D01*
X146045635Y-98997715D01*
X146067472Y-98776000D01*
X146045635Y-98554285D01*
X145980963Y-98341091D01*
X145875942Y-98144610D01*
X145734607Y-97972393D01*
X145562390Y-97831058D01*
X145365909Y-97726037D01*
X145152715Y-97661365D01*
X144986558Y-97645000D01*
X144355442Y-97645000D01*
X144189285Y-97661365D01*
X143976091Y-97726037D01*
X143779610Y-97831058D01*
X143607393Y-97972393D01*
X143466058Y-98144610D01*
X143361037Y-98341091D01*
X143296365Y-98554285D01*
X143274528Y-98776000D01*
X140623235Y-98776000D01*
X140474485Y-98714386D01*
X140246318Y-98669000D01*
X140013682Y-98669000D01*
X139785515Y-98714386D01*
X139570587Y-98803412D01*
X139377157Y-98932658D01*
X139212658Y-99097157D01*
X139091488Y-99278500D01*
X138648395Y-99278500D01*
X136563577Y-97193682D01*
X138949000Y-97193682D01*
X138949000Y-97426318D01*
X138994386Y-97654485D01*
X139083412Y-97869413D01*
X139212658Y-98062843D01*
X139377157Y-98227342D01*
X139570587Y-98356588D01*
X139785515Y-98445614D01*
X140013682Y-98491000D01*
X140246318Y-98491000D01*
X140474485Y-98445614D01*
X140689413Y-98356588D01*
X140882843Y-98227342D01*
X141047342Y-98062843D01*
X141176588Y-97869413D01*
X141265614Y-97654485D01*
X141311000Y-97426318D01*
X141311000Y-97193682D01*
X141265614Y-96965515D01*
X141176588Y-96750587D01*
X141047342Y-96557157D01*
X140882843Y-96392658D01*
X140689413Y-96263412D01*
X140474485Y-96174386D01*
X140246318Y-96129000D01*
X140013682Y-96129000D01*
X139785515Y-96174386D01*
X139570587Y-96263412D01*
X139377157Y-96392658D01*
X139212658Y-96557157D01*
X139083412Y-96750587D01*
X138994386Y-96965515D01*
X138949000Y-97193682D01*
X136563577Y-97193682D01*
X134520510Y-95150616D01*
X134520510Y-94653682D01*
X138949000Y-94653682D01*
X138949000Y-94886318D01*
X138994386Y-95114485D01*
X139083412Y-95329413D01*
X139212658Y-95522843D01*
X139377157Y-95687342D01*
X139570587Y-95816588D01*
X139785515Y-95905614D01*
X140013682Y-95951000D01*
X140246318Y-95951000D01*
X140474485Y-95905614D01*
X140689413Y-95816588D01*
X140750157Y-95776000D01*
X143274528Y-95776000D01*
X143296365Y-95997715D01*
X143361037Y-96210909D01*
X143466058Y-96407390D01*
X143607393Y-96579607D01*
X143779610Y-96720942D01*
X143976091Y-96825963D01*
X144189285Y-96890635D01*
X144355442Y-96907000D01*
X144986558Y-96907000D01*
X145152715Y-96890635D01*
X145365909Y-96825963D01*
X145562390Y-96720942D01*
X145734607Y-96579607D01*
X145875942Y-96407390D01*
X145980963Y-96210909D01*
X146045635Y-95997715D01*
X146067472Y-95776000D01*
X146049226Y-95590738D01*
X147110000Y-95590738D01*
X147110000Y-95961262D01*
X147182286Y-96324667D01*
X147324080Y-96666987D01*
X147529932Y-96975067D01*
X147791933Y-97237068D01*
X148100013Y-97442920D01*
X148442333Y-97584714D01*
X148805738Y-97657000D01*
X149176262Y-97657000D01*
X149539667Y-97584714D01*
X149881987Y-97442920D01*
X150190067Y-97237068D01*
X150452068Y-96975067D01*
X150657920Y-96666987D01*
X150799714Y-96324667D01*
X150872000Y-95961262D01*
X150872000Y-95590738D01*
X150799714Y-95227333D01*
X150657920Y-94885013D01*
X150452068Y-94576933D01*
X150190067Y-94314932D01*
X149881987Y-94109080D01*
X149539667Y-93967286D01*
X149176262Y-93895000D01*
X148805738Y-93895000D01*
X148442333Y-93967286D01*
X148100013Y-94109080D01*
X147791933Y-94314932D01*
X147529932Y-94576933D01*
X147324080Y-94885013D01*
X147182286Y-95227333D01*
X147110000Y-95590738D01*
X146049226Y-95590738D01*
X146045635Y-95554285D01*
X145980963Y-95341091D01*
X145875942Y-95144610D01*
X145734607Y-94972393D01*
X145562390Y-94831058D01*
X145365909Y-94726037D01*
X145152715Y-94661365D01*
X144986558Y-94645000D01*
X144355442Y-94645000D01*
X144189285Y-94661365D01*
X143976091Y-94726037D01*
X143779610Y-94831058D01*
X143607393Y-94972393D01*
X143466058Y-95144610D01*
X143361037Y-95341091D01*
X143296365Y-95554285D01*
X143274528Y-95776000D01*
X140750157Y-95776000D01*
X140882843Y-95687342D01*
X141047342Y-95522843D01*
X141176588Y-95329413D01*
X141265614Y-95114485D01*
X141311000Y-94886318D01*
X141311000Y-94653682D01*
X141265614Y-94425515D01*
X141176588Y-94210587D01*
X141047342Y-94017157D01*
X140882843Y-93852658D01*
X140689413Y-93723412D01*
X140474485Y-93634386D01*
X140246318Y-93589000D01*
X140013682Y-93589000D01*
X139785515Y-93634386D01*
X139570587Y-93723412D01*
X139377157Y-93852658D01*
X139212658Y-94017157D01*
X139083412Y-94210587D01*
X138994386Y-94425515D01*
X138949000Y-94653682D01*
X134520510Y-94653682D01*
X134520510Y-93526000D01*
X143022928Y-93526000D01*
X143035188Y-93650482D01*
X143071498Y-93770180D01*
X143130463Y-93880494D01*
X143209815Y-93977185D01*
X143306506Y-94056537D01*
X143416820Y-94115502D01*
X143536518Y-94151812D01*
X143661000Y-94164072D01*
X144385250Y-94161000D01*
X144544000Y-94002250D01*
X144544000Y-92903000D01*
X144798000Y-92903000D01*
X144798000Y-94002250D01*
X144956750Y-94161000D01*
X145681000Y-94164072D01*
X145805482Y-94151812D01*
X145925180Y-94115502D01*
X146035494Y-94056537D01*
X146132185Y-93977185D01*
X146211537Y-93880494D01*
X146270502Y-93770180D01*
X146306812Y-93650482D01*
X146319072Y-93526000D01*
X146316000Y-93061750D01*
X146157250Y-92903000D01*
X144798000Y-92903000D01*
X144544000Y-92903000D01*
X143184750Y-92903000D01*
X143026000Y-93061750D01*
X143022928Y-93526000D01*
X134520510Y-93526000D01*
X134520510Y-92113682D01*
X138949000Y-92113682D01*
X138949000Y-92346318D01*
X138994386Y-92574485D01*
X139083412Y-92789413D01*
X139212658Y-92982843D01*
X139377157Y-93147342D01*
X139570587Y-93276588D01*
X139785515Y-93365614D01*
X140013682Y-93411000D01*
X140246318Y-93411000D01*
X140474485Y-93365614D01*
X140689413Y-93276588D01*
X140882843Y-93147342D01*
X141047342Y-92982843D01*
X141176588Y-92789413D01*
X141265614Y-92574485D01*
X141311000Y-92346318D01*
X141311000Y-92113682D01*
X141293559Y-92026000D01*
X143022928Y-92026000D01*
X143026000Y-92490250D01*
X143184750Y-92649000D01*
X144544000Y-92649000D01*
X144544000Y-91549750D01*
X144798000Y-91549750D01*
X144798000Y-92649000D01*
X146157250Y-92649000D01*
X146316000Y-92490250D01*
X146319072Y-92026000D01*
X146306812Y-91901518D01*
X146270502Y-91781820D01*
X146211537Y-91671506D01*
X146132185Y-91574815D01*
X146035494Y-91495463D01*
X145925180Y-91436498D01*
X145805482Y-91400188D01*
X145681000Y-91387928D01*
X144956750Y-91391000D01*
X144798000Y-91549750D01*
X144544000Y-91549750D01*
X144385250Y-91391000D01*
X143661000Y-91387928D01*
X143536518Y-91400188D01*
X143416820Y-91436498D01*
X143306506Y-91495463D01*
X143209815Y-91574815D01*
X143130463Y-91671506D01*
X143071498Y-91781820D01*
X143035188Y-91901518D01*
X143022928Y-92026000D01*
X141293559Y-92026000D01*
X141265614Y-91885515D01*
X141176588Y-91670587D01*
X141047342Y-91477157D01*
X140882843Y-91312658D01*
X140689413Y-91183412D01*
X140474485Y-91094386D01*
X140246318Y-91049000D01*
X140013682Y-91049000D01*
X139785515Y-91094386D01*
X139570587Y-91183412D01*
X139377157Y-91312658D01*
X139212658Y-91477157D01*
X139083412Y-91670587D01*
X138994386Y-91885515D01*
X138949000Y-92113682D01*
X134520510Y-92113682D01*
X134520510Y-89573682D01*
X138949000Y-89573682D01*
X138949000Y-89806318D01*
X138994386Y-90034485D01*
X139083412Y-90249413D01*
X139212658Y-90442843D01*
X139377157Y-90607342D01*
X139570587Y-90736588D01*
X139785515Y-90825614D01*
X140013682Y-90871000D01*
X140246318Y-90871000D01*
X140474485Y-90825614D01*
X140689413Y-90736588D01*
X140882843Y-90607342D01*
X141047342Y-90442843D01*
X141176588Y-90249413D01*
X141265614Y-90034485D01*
X141311000Y-89806318D01*
X141311000Y-89573682D01*
X141265614Y-89345515D01*
X141176588Y-89130587D01*
X141047342Y-88937157D01*
X140882843Y-88772658D01*
X140689413Y-88643412D01*
X140474485Y-88554386D01*
X140246318Y-88509000D01*
X140013682Y-88509000D01*
X139785515Y-88554386D01*
X139570587Y-88643412D01*
X139377157Y-88772658D01*
X139212658Y-88937157D01*
X139083412Y-89130587D01*
X138994386Y-89345515D01*
X138949000Y-89573682D01*
X134520510Y-89573682D01*
X134520510Y-87033682D01*
X138949000Y-87033682D01*
X138949000Y-87266318D01*
X138994386Y-87494485D01*
X139083412Y-87709413D01*
X139212658Y-87902843D01*
X139377157Y-88067342D01*
X139570587Y-88196588D01*
X139785515Y-88285614D01*
X140013682Y-88331000D01*
X140246318Y-88331000D01*
X140474485Y-88285614D01*
X140689413Y-88196588D01*
X140882843Y-88067342D01*
X141047342Y-87902843D01*
X141176588Y-87709413D01*
X141265614Y-87494485D01*
X141311000Y-87266318D01*
X141311000Y-87033682D01*
X141265614Y-86805515D01*
X141176588Y-86590587D01*
X141047342Y-86397157D01*
X140882843Y-86232658D01*
X140689413Y-86103412D01*
X140474485Y-86014386D01*
X140246318Y-85969000D01*
X140013682Y-85969000D01*
X139785515Y-86014386D01*
X139570587Y-86103412D01*
X139377157Y-86232658D01*
X139212658Y-86397157D01*
X139083412Y-86590587D01*
X138994386Y-86805515D01*
X138949000Y-87033682D01*
X134520510Y-87033682D01*
X134520510Y-84493682D01*
X138949000Y-84493682D01*
X138949000Y-84726318D01*
X138994386Y-84954485D01*
X139083412Y-85169413D01*
X139212658Y-85362843D01*
X139377157Y-85527342D01*
X139570587Y-85656588D01*
X139785515Y-85745614D01*
X140013682Y-85791000D01*
X140246318Y-85791000D01*
X140474485Y-85745614D01*
X140689413Y-85656588D01*
X140882843Y-85527342D01*
X141047342Y-85362843D01*
X141176588Y-85169413D01*
X141265614Y-84954485D01*
X141311000Y-84726318D01*
X141311000Y-84493682D01*
X141265614Y-84265515D01*
X141176588Y-84050587D01*
X141047342Y-83857157D01*
X140882843Y-83692658D01*
X140689413Y-83563412D01*
X140474485Y-83474386D01*
X140246318Y-83429000D01*
X140013682Y-83429000D01*
X139785515Y-83474386D01*
X139570587Y-83563412D01*
X139377157Y-83692658D01*
X139212658Y-83857157D01*
X139083412Y-84050587D01*
X138994386Y-84265515D01*
X138949000Y-84493682D01*
X134520510Y-84493682D01*
X134520510Y-81953682D01*
X138949000Y-81953682D01*
X138949000Y-82186318D01*
X138994386Y-82414485D01*
X139083412Y-82629413D01*
X139212658Y-82822843D01*
X139377157Y-82987342D01*
X139570587Y-83116588D01*
X139785515Y-83205614D01*
X140013682Y-83251000D01*
X140246318Y-83251000D01*
X140474485Y-83205614D01*
X140689413Y-83116588D01*
X140882843Y-82987342D01*
X141047342Y-82822843D01*
X141176588Y-82629413D01*
X141265614Y-82414485D01*
X141311000Y-82186318D01*
X141311000Y-81953682D01*
X141265614Y-81725515D01*
X141176588Y-81510587D01*
X141047342Y-81317157D01*
X140882843Y-81152658D01*
X140689413Y-81023412D01*
X140474485Y-80934386D01*
X140246318Y-80889000D01*
X140013682Y-80889000D01*
X139785515Y-80934386D01*
X139570587Y-81023412D01*
X139377157Y-81152658D01*
X139212658Y-81317157D01*
X139083412Y-81510587D01*
X138994386Y-81725515D01*
X138949000Y-81953682D01*
X134520510Y-81953682D01*
X134520510Y-79413682D01*
X138949000Y-79413682D01*
X138949000Y-79646318D01*
X138994386Y-79874485D01*
X139083412Y-80089413D01*
X139212658Y-80282843D01*
X139377157Y-80447342D01*
X139570587Y-80576588D01*
X139785515Y-80665614D01*
X140013682Y-80711000D01*
X140246318Y-80711000D01*
X140474485Y-80665614D01*
X140689413Y-80576588D01*
X140882843Y-80447342D01*
X141047342Y-80282843D01*
X141176588Y-80089413D01*
X141265614Y-79874485D01*
X141311000Y-79646318D01*
X141311000Y-79413682D01*
X141265614Y-79185515D01*
X141176588Y-78970587D01*
X141047342Y-78777157D01*
X140882843Y-78612658D01*
X140689413Y-78483412D01*
X140474485Y-78394386D01*
X140246318Y-78349000D01*
X140013682Y-78349000D01*
X139785515Y-78394386D01*
X139570587Y-78483412D01*
X139377157Y-78612658D01*
X139212658Y-78777157D01*
X139083412Y-78970587D01*
X138994386Y-79185515D01*
X138949000Y-79413682D01*
X134520510Y-79413682D01*
X134520510Y-76873682D01*
X138949000Y-76873682D01*
X138949000Y-77106318D01*
X138994386Y-77334485D01*
X139083412Y-77549413D01*
X139212658Y-77742843D01*
X139377157Y-77907342D01*
X139570587Y-78036588D01*
X139785515Y-78125614D01*
X140013682Y-78171000D01*
X140246318Y-78171000D01*
X140474485Y-78125614D01*
X140689413Y-78036588D01*
X140882843Y-77907342D01*
X141047342Y-77742843D01*
X141176588Y-77549413D01*
X141265614Y-77334485D01*
X141311000Y-77106318D01*
X141311000Y-76873682D01*
X141265614Y-76645515D01*
X141176588Y-76430587D01*
X141047342Y-76237157D01*
X140882843Y-76072658D01*
X140689413Y-75943412D01*
X140474485Y-75854386D01*
X140246318Y-75809000D01*
X140013682Y-75809000D01*
X139785515Y-75854386D01*
X139570587Y-75943412D01*
X139377157Y-76072658D01*
X139212658Y-76237157D01*
X139083412Y-76430587D01*
X138994386Y-76645515D01*
X138949000Y-76873682D01*
X134520510Y-76873682D01*
X134520510Y-74333682D01*
X138949000Y-74333682D01*
X138949000Y-74566318D01*
X138994386Y-74794485D01*
X139083412Y-75009413D01*
X139212658Y-75202843D01*
X139377157Y-75367342D01*
X139570587Y-75496588D01*
X139785515Y-75585614D01*
X140013682Y-75631000D01*
X140246318Y-75631000D01*
X140474485Y-75585614D01*
X140689413Y-75496588D01*
X140882843Y-75367342D01*
X141038185Y-75212000D01*
X151985370Y-75212000D01*
X152926000Y-76152631D01*
X152926001Y-83411553D01*
X152907000Y-83507078D01*
X152907000Y-83660922D01*
X152937013Y-83811809D01*
X152995887Y-83953942D01*
X153081358Y-84081859D01*
X153190141Y-84190642D01*
X153318058Y-84276113D01*
X153460191Y-84334987D01*
X153611078Y-84365000D01*
X153764922Y-84365000D01*
X153915809Y-84334987D01*
X154057942Y-84276113D01*
X154185859Y-84190642D01*
X154294642Y-84081859D01*
X154380113Y-83953942D01*
X154438987Y-83811809D01*
X154469000Y-83660922D01*
X154469000Y-83507078D01*
X154450000Y-83411558D01*
X154450000Y-75874422D01*
X154453686Y-75836999D01*
X154450000Y-75799574D01*
X154438974Y-75687622D01*
X154395402Y-75543985D01*
X154324645Y-75411608D01*
X154229422Y-75295578D01*
X154200353Y-75271722D01*
X152866284Y-73937654D01*
X152842422Y-73908578D01*
X152726392Y-73813355D01*
X152594015Y-73742598D01*
X152450378Y-73699026D01*
X152338426Y-73688000D01*
X152338423Y-73688000D01*
X152301000Y-73684314D01*
X152263577Y-73688000D01*
X141038185Y-73688000D01*
X140882843Y-73532658D01*
X140689413Y-73403412D01*
X140474485Y-73314386D01*
X140246318Y-73269000D01*
X140013682Y-73269000D01*
X139785515Y-73314386D01*
X139570587Y-73403412D01*
X139377157Y-73532658D01*
X139212658Y-73697157D01*
X139083412Y-73890587D01*
X138994386Y-74105515D01*
X138949000Y-74333682D01*
X134520510Y-74333682D01*
X134520510Y-69719039D01*
X138738096Y-69719039D01*
X138778754Y-69853087D01*
X138898963Y-70107420D01*
X139066481Y-70333414D01*
X139274869Y-70522385D01*
X139516119Y-70667070D01*
X139780960Y-70761909D01*
X140002998Y-70640625D01*
X140002998Y-70731125D01*
X139785515Y-70774386D01*
X139570587Y-70863412D01*
X139377157Y-70992658D01*
X139212658Y-71157157D01*
X139083412Y-71350587D01*
X138994386Y-71565515D01*
X138949000Y-71793682D01*
X138949000Y-72026318D01*
X138994386Y-72254485D01*
X139083412Y-72469413D01*
X139212658Y-72662843D01*
X139377157Y-72827342D01*
X139570587Y-72956588D01*
X139785515Y-73045614D01*
X140013682Y-73091000D01*
X140246318Y-73091000D01*
X140474485Y-73045614D01*
X140689413Y-72956588D01*
X140882843Y-72827342D01*
X141047342Y-72662843D01*
X141176588Y-72469413D01*
X141265614Y-72254485D01*
X141311000Y-72026318D01*
X141311000Y-71793682D01*
X141265614Y-71565515D01*
X141176588Y-71350587D01*
X141047342Y-71157157D01*
X140882843Y-70992658D01*
X140689413Y-70863412D01*
X140474485Y-70774386D01*
X140257002Y-70731125D01*
X140257002Y-70640625D01*
X140479040Y-70761909D01*
X140743881Y-70667070D01*
X140985131Y-70522385D01*
X141193519Y-70333414D01*
X141361037Y-70107420D01*
X141481246Y-69853087D01*
X141521904Y-69719039D01*
X141451010Y-69590000D01*
X143274528Y-69590000D01*
X143296365Y-69811715D01*
X143361037Y-70024909D01*
X143466058Y-70221390D01*
X143607393Y-70393607D01*
X143779610Y-70534942D01*
X143976091Y-70639963D01*
X144189285Y-70704635D01*
X144355442Y-70721000D01*
X144986558Y-70721000D01*
X145152715Y-70704635D01*
X145365909Y-70639963D01*
X145562390Y-70534942D01*
X145734607Y-70393607D01*
X145875942Y-70221390D01*
X145980963Y-70024909D01*
X146045635Y-69811715D01*
X146067472Y-69590000D01*
X146045635Y-69368285D01*
X145980963Y-69155091D01*
X145875942Y-68958610D01*
X145734607Y-68786393D01*
X145562390Y-68645058D01*
X145365909Y-68540037D01*
X145152715Y-68475365D01*
X144986558Y-68459000D01*
X144355442Y-68459000D01*
X144189285Y-68475365D01*
X143976091Y-68540037D01*
X143779610Y-68645058D01*
X143607393Y-68786393D01*
X143466058Y-68958610D01*
X143361037Y-69155091D01*
X143296365Y-69368285D01*
X143274528Y-69590000D01*
X141451010Y-69590000D01*
X141399915Y-69497000D01*
X140257000Y-69497000D01*
X140257000Y-69517000D01*
X140003000Y-69517000D01*
X140003000Y-69497000D01*
X138860085Y-69497000D01*
X138738096Y-69719039D01*
X134520510Y-69719039D01*
X134520510Y-69020961D01*
X138738096Y-69020961D01*
X138860085Y-69243000D01*
X140003000Y-69243000D01*
X140003000Y-69223000D01*
X140257000Y-69223000D01*
X140257000Y-69243000D01*
X141399915Y-69243000D01*
X141521904Y-69020961D01*
X141481246Y-68886913D01*
X141361037Y-68632580D01*
X141193519Y-68406586D01*
X140985131Y-68217615D01*
X140743881Y-68072930D01*
X140479040Y-67978091D01*
X140257002Y-68099375D01*
X140257002Y-68008875D01*
X140474485Y-67965614D01*
X140689413Y-67876588D01*
X140882843Y-67747342D01*
X141047342Y-67582843D01*
X141176588Y-67389413D01*
X141197055Y-67340000D01*
X143022928Y-67340000D01*
X143035188Y-67464482D01*
X143071498Y-67584180D01*
X143130463Y-67694494D01*
X143209815Y-67791185D01*
X143306506Y-67870537D01*
X143416820Y-67929502D01*
X143536518Y-67965812D01*
X143661000Y-67978072D01*
X144385250Y-67975000D01*
X144544000Y-67816250D01*
X144544000Y-66717000D01*
X144798000Y-66717000D01*
X144798000Y-67816250D01*
X144956750Y-67975000D01*
X145681000Y-67978072D01*
X145805482Y-67965812D01*
X145925180Y-67929502D01*
X145971509Y-67904738D01*
X147110000Y-67904738D01*
X147110000Y-68275262D01*
X147182286Y-68638667D01*
X147324080Y-68980987D01*
X147529932Y-69289067D01*
X147791933Y-69551068D01*
X148100013Y-69756920D01*
X148442333Y-69898714D01*
X148805738Y-69971000D01*
X149176262Y-69971000D01*
X149539667Y-69898714D01*
X149881987Y-69756920D01*
X150190067Y-69551068D01*
X150452068Y-69289067D01*
X150657920Y-68980987D01*
X150799714Y-68638667D01*
X150872000Y-68275262D01*
X150872000Y-67904738D01*
X150799714Y-67541333D01*
X150657920Y-67199013D01*
X150452068Y-66890933D01*
X150190067Y-66628932D01*
X149881987Y-66423080D01*
X149539667Y-66281286D01*
X149176262Y-66209000D01*
X148805738Y-66209000D01*
X148442333Y-66281286D01*
X148100013Y-66423080D01*
X147791933Y-66628932D01*
X147529932Y-66890933D01*
X147324080Y-67199013D01*
X147182286Y-67541333D01*
X147110000Y-67904738D01*
X145971509Y-67904738D01*
X146035494Y-67870537D01*
X146132185Y-67791185D01*
X146211537Y-67694494D01*
X146270502Y-67584180D01*
X146306812Y-67464482D01*
X146319072Y-67340000D01*
X146316000Y-66875750D01*
X146157250Y-66717000D01*
X144798000Y-66717000D01*
X144544000Y-66717000D01*
X143184750Y-66717000D01*
X143026000Y-66875750D01*
X143022928Y-67340000D01*
X141197055Y-67340000D01*
X141265614Y-67174485D01*
X141311000Y-66946318D01*
X141311000Y-66713682D01*
X141265614Y-66485515D01*
X141176588Y-66270587D01*
X141047342Y-66077157D01*
X140882843Y-65912658D01*
X140774103Y-65840000D01*
X143022928Y-65840000D01*
X143026000Y-66304250D01*
X143184750Y-66463000D01*
X144544000Y-66463000D01*
X144544000Y-65363750D01*
X144798000Y-65363750D01*
X144798000Y-66463000D01*
X146157250Y-66463000D01*
X146316000Y-66304250D01*
X146319072Y-65840000D01*
X146306812Y-65715518D01*
X146270502Y-65595820D01*
X146211537Y-65485506D01*
X146132185Y-65388815D01*
X146035494Y-65309463D01*
X145925180Y-65250498D01*
X145805482Y-65214188D01*
X145681000Y-65201928D01*
X144956750Y-65205000D01*
X144798000Y-65363750D01*
X144544000Y-65363750D01*
X144385250Y-65205000D01*
X143661000Y-65201928D01*
X143536518Y-65214188D01*
X143416820Y-65250498D01*
X143306506Y-65309463D01*
X143209815Y-65388815D01*
X143130463Y-65485506D01*
X143071498Y-65595820D01*
X143035188Y-65715518D01*
X143022928Y-65840000D01*
X140774103Y-65840000D01*
X140689413Y-65783412D01*
X140474485Y-65694386D01*
X140246318Y-65649000D01*
X140013682Y-65649000D01*
X139785515Y-65694386D01*
X139570587Y-65783412D01*
X139377157Y-65912658D01*
X139212658Y-66077157D01*
X139083412Y-66270587D01*
X138994386Y-66485515D01*
X138949000Y-66713682D01*
X138949000Y-66946318D01*
X138994386Y-67174485D01*
X139083412Y-67389413D01*
X139212658Y-67582843D01*
X139377157Y-67747342D01*
X139570587Y-67876588D01*
X139785515Y-67965614D01*
X140002998Y-68008875D01*
X140002998Y-68099375D01*
X139780960Y-67978091D01*
X139516119Y-68072930D01*
X139274869Y-68217615D01*
X139066481Y-68406586D01*
X138898963Y-68632580D01*
X138778754Y-68886913D01*
X138738096Y-69020961D01*
X134520510Y-69020961D01*
X134520510Y-59119451D01*
X134523275Y-59091379D01*
X134520510Y-59063306D01*
X134512241Y-58979346D01*
X134479562Y-58871618D01*
X134426494Y-58772335D01*
X134355077Y-58685313D01*
X134333267Y-58667414D01*
X127046781Y-51380928D01*
X148798677Y-51380928D01*
X149104859Y-51824503D01*
X149692306Y-52139954D01*
X150330008Y-52334740D01*
X150993457Y-52401372D01*
X151657158Y-52337292D01*
X152295605Y-52144962D01*
X152884262Y-51831772D01*
X152895141Y-51824503D01*
X153201323Y-51380928D01*
X151000000Y-49179605D01*
X148798677Y-51380928D01*
X127046781Y-51380928D01*
X124659310Y-48993457D01*
X147598628Y-48993457D01*
X147662708Y-49657158D01*
X147855038Y-50295605D01*
X148168228Y-50884262D01*
X148175497Y-50895141D01*
X148619072Y-51201323D01*
X150820395Y-49000000D01*
X151179605Y-49000000D01*
X153380928Y-51201323D01*
X153824503Y-50895141D01*
X154139954Y-50307694D01*
X154334740Y-49669992D01*
X154401372Y-49006543D01*
X154337292Y-48342842D01*
X154144962Y-47704395D01*
X153831772Y-47115738D01*
X153824503Y-47104859D01*
X153380928Y-46798677D01*
X151179605Y-49000000D01*
X150820395Y-49000000D01*
X148619072Y-46798677D01*
X148175497Y-47104859D01*
X147860046Y-47692306D01*
X147665260Y-48330008D01*
X147598628Y-48993457D01*
X124659310Y-48993457D01*
X123541600Y-47875748D01*
X123523697Y-47853933D01*
X123436675Y-47782516D01*
X123337392Y-47729448D01*
X123229664Y-47696769D01*
X123145704Y-47688500D01*
X123117630Y-47685735D01*
X123089556Y-47688500D01*
X123032810Y-47688500D01*
X122927826Y-47531380D01*
X122768620Y-47372174D01*
X122581413Y-47247087D01*
X122373401Y-47160925D01*
X122152576Y-47117000D01*
X121927424Y-47117000D01*
X121706599Y-47160925D01*
X121498587Y-47247087D01*
X121311380Y-47372174D01*
X121152174Y-47531380D01*
X121027087Y-47718587D01*
X120940925Y-47926599D01*
X120897000Y-48147424D01*
X120897000Y-48372576D01*
X120940925Y-48593401D01*
X121027087Y-48801413D01*
X121152174Y-48988620D01*
X121239553Y-49075999D01*
X120894754Y-49075999D01*
X120900072Y-49022000D01*
X120897000Y-48545750D01*
X120738250Y-48387000D01*
X119627000Y-48387000D01*
X119627000Y-48407000D01*
X119373000Y-48407000D01*
X119373000Y-48387000D01*
X118261750Y-48387000D01*
X118103000Y-48545750D01*
X118099928Y-49022000D01*
X118105246Y-49075999D01*
X118056572Y-49075999D01*
X118028500Y-49073234D01*
X118000428Y-49075999D01*
X118000427Y-49075999D01*
X117916467Y-49084268D01*
X117808739Y-49116947D01*
X117709456Y-49170015D01*
X117622434Y-49241432D01*
X117604535Y-49263242D01*
X117350030Y-49517747D01*
X117401372Y-49006543D01*
X117337292Y-48342842D01*
X117144962Y-47704395D01*
X117035152Y-47498000D01*
X118099928Y-47498000D01*
X118103000Y-47974250D01*
X118261750Y-48133000D01*
X119373000Y-48133000D01*
X119373000Y-47021750D01*
X119627000Y-47021750D01*
X119627000Y-48133000D01*
X120738250Y-48133000D01*
X120897000Y-47974250D01*
X120900072Y-47498000D01*
X120887812Y-47373518D01*
X120851502Y-47253820D01*
X120792537Y-47143506D01*
X120713185Y-47046815D01*
X120616494Y-46967463D01*
X120506180Y-46908498D01*
X120386482Y-46872188D01*
X120262000Y-46859928D01*
X119785750Y-46863000D01*
X119627000Y-47021750D01*
X119373000Y-47021750D01*
X119214250Y-46863000D01*
X118738000Y-46859928D01*
X118613518Y-46872188D01*
X118493820Y-46908498D01*
X118383506Y-46967463D01*
X118286815Y-47046815D01*
X118207463Y-47143506D01*
X118148498Y-47253820D01*
X118112188Y-47373518D01*
X118099928Y-47498000D01*
X117035152Y-47498000D01*
X116831772Y-47115738D01*
X116824503Y-47104859D01*
X116380928Y-46798677D01*
X114179605Y-49000000D01*
X113820395Y-49000000D01*
X111619072Y-46798677D01*
X111175497Y-47104859D01*
X110860046Y-47692306D01*
X110665260Y-48330008D01*
X110598628Y-48993457D01*
X110406000Y-48993457D01*
X110406000Y-46619072D01*
X111798677Y-46619072D01*
X114000000Y-48820395D01*
X116201323Y-46619072D01*
X148798677Y-46619072D01*
X151000000Y-48820395D01*
X153201323Y-46619072D01*
X152895141Y-46175497D01*
X152307694Y-45860046D01*
X151669992Y-45665260D01*
X151006543Y-45598628D01*
X150342842Y-45662708D01*
X149704395Y-45855038D01*
X149115738Y-46168228D01*
X149104859Y-46175497D01*
X148798677Y-46619072D01*
X116201323Y-46619072D01*
X115895141Y-46175497D01*
X115307694Y-45860046D01*
X114669992Y-45665260D01*
X114006543Y-45598628D01*
X113342842Y-45662708D01*
X112704395Y-45855038D01*
X112115738Y-46168228D01*
X112104859Y-46175497D01*
X111798677Y-46619072D01*
X110406000Y-46619072D01*
X110406000Y-45406000D01*
X154594001Y-45406000D01*
X154594000Y-109594000D01*
M02*
